<?xml version="1.0" encoding="UTF-8" standalone="no"?>
<!-- Created with Inkscape (http://www.inkscape.org/) -->

<svg
   xmlns:dc="http://purl.org/dc/elements/1.1/"
   xmlns:cc="http://creativecommons.org/ns#"
   xmlns:rdf="http://www.w3.org/1999/02/22-rdf-syntax-ns#"
   xmlns:svg="http://www.w3.org/2000/svg"
   xmlns="http://www.w3.org/2000/svg"
   xmlns:sodipodi="http://sodipodi.sourceforge.net/DTD/sodipodi-0.dtd"
   xmlns:inkscape="http://www.inkscape.org/namespaces/inkscape"
   width="66.498718mm"
   height="46.35812mm"
   viewBox="0 0 66.498718 46.35812"
   version="1.1"
   id="svg4091"
   inkscape:version="0.92.2 2405546, 2018-03-11"
   sodipodi:docname="paint-big04.svg">
  <defs
     id="defs4085">
    <clipPath
       clipPathUnits="userSpaceOnUse"
       id="clipPath114">
      <path
         d="M 0,600 H 600 V 0 H 0 Z"
         id="path112"
         inkscape:connector-curvature="0" />
    </clipPath>
  </defs>
  <sodipodi:namedview
     id="base"
     pagecolor="#ffffff"
     bordercolor="#666666"
     borderopacity="1.0"
     inkscape:pageopacity="0.0"
     inkscape:pageshadow="2"
     inkscape:zoom="0.35"
     inkscape:cx="8.5714284"
     inkscape:cy="560.00001"
     inkscape:document-units="mm"
     inkscape:current-layer="layer1"
     showgrid="false"
     fit-margin-top="0"
     fit-margin-left="0"
     fit-margin-right="0"
     fit-margin-bottom="0"
     inkscape:window-width="3840"
     inkscape:window-height="2095"
     inkscape:window-x="0"
     inkscape:window-y="0"
     inkscape:window-maximized="1" />
  <metadata
     id="metadata4088">
    <rdf:RDF>
      <cc:Work
         rdf:about="">
        <dc:format>image/svg+xml</dc:format>
        <dc:type
           rdf:resource="http://purl.org/dc/dcmitype/StillImage" />
        <dc:title></dc:title>
      </cc:Work>
    </rdf:RDF>
  </metadata>
  <g
     inkscape:label="Layer 1"
     inkscape:groupmode="layer"
     id="layer1"
     transform="translate(-3.308059e-8,-250.64188)">
    <g
       transform="matrix(0.35277777,0,0,-0.35277777,-3.5277041,409.44256)"
       id="g108">
      <g
         id="g110"
         clip-path="url(#clipPath114)">
        <g
           id="g116"
           transform="translate(157.1167,344.7051)">
          <path
             d="M 0,0 C -0.019,-0.052 -0.015,-0.096 0.035,-0.115 L 0.467,-0.276 0.57,-0.297 c 0.053,-0.012 0.107,0.022 0.118,0.074 0.011,0.054 -0.02,0.105 -0.074,0.117 L 0.505,-0.083 0.146,0.046 C 0.096,0.065 0.018,0.05 0,0 m -16.73,16.978 c -0.032,-0.051 -0.018,-0.119 0.033,-0.152 2.029,-1.321 4.185,-2.158 6.213,-2.865 0.056,-0.02 0.12,0.01 0.138,0.068 0.021,0.057 -0.01,0.122 -0.066,0.139 -2.015,0.704 -4.156,1.534 -6.167,2.843 -0.05,0.032 -0.117,0.018 -0.151,-0.033 m 16.644,10.163 c -0.083,-0.099 -0.073,-0.246 0.024,-0.33 3.245,-2.792 5.936,-4.314 8.224,-4.651 1.686,-0.25 2.998,-0.031 4.051,0.146 0.745,0.125 1.387,0.233 1.998,0.161 1.919,-0.221 3.413,-1.415 5.706,-4.558 0.984,-1.349 1.637,-2.371 2.719,-4.064 l 1.097,-1.711 c 0.07,-0.108 0.213,-0.14 0.321,-0.069 0.109,0.069 0.139,0.214 0.07,0.322 l -1.096,1.709 c -1.087,1.701 -1.743,2.728 -2.736,4.089 -2.382,3.265 -3.959,4.507 -6.028,4.746 -0.676,0.078 -1.349,-0.033 -2.127,-0.164 -1.075,-0.18 -2.293,-0.385 -3.908,-0.146 -2.199,0.325 -4.812,1.812 -7.987,4.545 -0.098,0.083 -0.244,0.072 -0.328,-0.025 m -1.637,1.499 c -0.015,-0.014 -0.039,-0.014 -0.054,0 l 0.503,-0.503 c 0.053,0.053 -0.449,0.557 -0.449,0.557 0.014,-0.016 0.014,-0.039 0,-0.054 m -2.24,2.08 c -0.021,-0.022 -0.021,-0.056 0,-0.077 l 1.171,-1.176 c 0.022,-0.021 0.056,-0.021 0.078,0 0.021,0.023 0.021,0.057 0,0.078 l -1.171,1.175 c -0.023,0.021 -0.056,0.021 -0.078,0 m -2.346,2.007 c -0.024,-0.036 -0.016,-0.084 0.018,-0.109 0.253,-0.18 0.38,-0.27 0.456,-0.455 -0.017,0.04 0.002,0.085 0.042,0.1 0.039,0.016 0.085,-0.002 0.1,-0.042 -0.093,0.227 -0.25,0.339 -0.509,0.523 -0.035,0.024 -0.083,0.016 -0.107,-0.017 m -124.506,40.632 c -0.027,-0.051 0.022,-0.121 0.071,-0.147 l 0.297,-0.152 c -0.052,0.026 -0.06,0.081 -0.034,0.131 0.024,0.05 0.097,0.065 0.147,0.04 l -0.374,0.183 c -0.049,0.025 -0.081,-0.006 -0.107,-0.055 m -2.898,5.246 c -0.05,-0.035 -0.075,-0.077 -0.041,-0.126 l 0.263,-0.385 0.235,-0.36 c 0.033,-0.05 0.113,-0.096 0.164,-0.064 0.05,0.032 0.077,0.069 0.046,0.119 l -0.285,0.45 -0.22,0.314 c -0.034,0.05 -0.114,0.085 -0.162,0.052 m 44.777,10.389 c -0.039,-0.017 -0.057,-0.063 -0.04,-0.103 0.142,-0.323 0.405,-0.583 0.659,-0.836 l 0.193,-0.194 c 0.031,-0.03 0.081,-0.031 0.112,-0.001 0.03,0.031 0.03,0.079 0,0.11 l -0.196,0.197 c -0.243,0.241 -0.495,0.491 -0.625,0.787 -0.018,0.04 -0.063,0.057 -0.103,0.04 m 40.287,-52.421 c -0.071,-0.125 -0.027,-0.285 0.098,-0.356 2.252,-1.282 4.508,-2.681 6.691,-4.033 3.625,-2.248 7.373,-4.572 11.224,-6.438 0.13,-0.063 0.285,-0.007 0.348,0.122 0.063,0.13 0.009,0.286 -0.121,0.349 -3.827,1.855 -7.564,4.171 -11.178,6.412 -2.186,1.354 -4.447,2.756 -6.707,4.042 -0.124,0.071 -0.284,0.028 -0.355,-0.098 m 20.887,-11.802 c -0.09,-0.12 -0.075,-0.285 0.044,-0.376 l 0.663,-0.51 c 0.423,-0.31 0.823,-0.605 1.147,-0.971 0.099,-0.113 0.271,-0.123 0.384,-0.023 0.113,0.099 0.123,0.272 0.023,0.384 -0.362,0.413 -0.804,0.737 -1.232,1.052 l -0.638,0.488 c -0.121,0.092 -0.299,0.076 -0.391,-0.044 m -6.279,-2.21 c -0.056,-0.096 -0.055,-0.198 0.04,-0.255 l 0.464,-0.284 0.373,-0.22 c 0.095,-0.057 0.247,-0.047 0.304,0.048 0.057,0.095 0.055,0.197 -0.039,0.255 l -0.465,0.282 -0.371,0.22 c -0.095,0.058 -0.248,0.049 -0.306,-0.046 m -4.773,0.595 c -0.016,-0.053 0.015,-0.108 0.067,-0.122 1.388,-0.404 2.519,-0.598 3.458,-0.592 0.055,0 0.099,0.045 0.098,0.1 0,0.054 -0.045,0.099 -0.099,0.098 -0.919,-0.005 -2.033,0.186 -3.402,0.584 -0.053,0.016 -0.107,-0.016 -0.122,-0.068 m 6.856,-1.892 c -0.084,-0.055 -0.106,-0.166 -0.052,-0.248 0.351,-0.534 0.859,-0.897 1.348,-1.249 0.52,-0.372 1.011,-0.725 1.324,-1.261 0.049,-0.086 0.158,-0.114 0.244,-0.065 0.085,0.05 0.115,0.16 0.065,0.246 -0.351,0.603 -0.896,0.995 -1.424,1.373 -0.485,0.347 -0.943,0.675 -1.258,1.154 -0.055,0.082 -0.165,0.105 -0.247,0.05 m -8.332,1.302 c -0.058,-0.129 -0.002,-0.281 0.125,-0.342 l 2.565,-1.201 c 2.497,-1.178 5.079,-2.397 7.655,-3.393 0.131,-0.051 0.28,0.016 0.33,0.146 0.05,0.133 -0.015,0.283 -0.146,0.332 -2.558,0.989 -5.134,2.205 -7.622,3.378 l -2.568,1.204 c -0.128,0.059 -0.28,0.004 -0.339,-0.124 m -8.354,4.09 c -0.063,-0.123 -0.014,-0.275 0.108,-0.337 l 0.721,-0.373 c 1.446,-0.749 2.941,-1.523 4.492,-2.101 0.13,-0.049 0.273,0.018 0.32,0.147 0.048,0.129 -0.017,0.273 -0.146,0.321 -1.523,0.569 -3.005,1.336 -4.438,2.078 l -0.721,0.373 c -0.123,0.063 -0.273,0.015 -0.336,-0.108 m -5.503,2.567 c -0.028,-0.114 0.04,-0.23 0.153,-0.258 0.822,-0.209 1.593,-0.641 2.339,-1.06 l 0.794,-0.433 c 0.102,-0.056 0.228,-0.016 0.283,0.086 0.056,0.103 0.015,0.234 -0.088,0.29 l -0.783,0.427 c -0.77,0.432 -1.566,0.879 -2.441,1.101 -0.113,0.028 -0.229,-0.04 -0.257,-0.153 m -11.017,6.089 c -0.056,-0.102 -0.025,-0.222 0.075,-0.278 l 4.497,-2.455 c 1.574,-0.824 3.203,-1.675 4.703,-2.579 0.098,-0.061 0.225,-0.028 0.285,0.07 0.058,0.099 0.026,0.227 -0.071,0.286 -1.512,0.911 -3.145,1.765 -4.727,2.592 l -4.474,2.444 c -0.102,0.054 -0.234,0.021 -0.288,-0.08 m 0.17,0.638 -0.113,-0.431 -0.058,-0.255 c -0.025,-0.103 0.038,-0.213 0.14,-0.237 0.102,-0.025 0.201,0.032 0.226,0.135 l 0.064,0.279 0.098,0.379 c 0.027,0.101 -0.029,0.222 -0.131,0.249 -0.101,0.027 -0.199,-0.018 -0.226,-0.119 m -0.992,-0.334 c -0.038,-0.094 -10e-4,-0.195 0.092,-0.232 l 0.834,-0.336 c 0.093,-0.037 0.208,0.004 0.244,0.098 0.038,0.092 0.003,0.193 -0.091,0.231 l -0.838,0.337 c -0.092,0.036 -0.206,-0.006 -0.241,-0.098 m -20.203,11.436 c -0.05,-0.071 -0.032,-0.169 0.039,-0.22 1.151,-0.81 2.381,-1.485 3.571,-2.137 1.152,-0.632 2.344,-1.286 3.455,-2.058 -0.071,0.049 -0.089,0.147 -0.039,0.218 0.049,0.072 0.147,0.09 0.217,0.041 -1.125,0.782 -2.324,1.44 -3.482,2.075 -1.183,0.648 -2.405,1.32 -3.543,2.119 -0.07,0.052 -0.168,0.033 -0.218,-0.038 m -2.784,2.664 c -0.038,-0.038 -0.018,-0.114 0.02,-0.152 l 0.301,-0.303 c -0.038,0.038 -0.023,0.081 0.015,0.119 0.037,0.038 0.112,0.019 0.149,-0.019 l -0.368,0.37 c -0.038,0.038 -0.08,0.022 -0.117,-0.015 m 39.836,-14.002 c -0.091,-0.088 -0.093,-0.233 -0.008,-0.323 2.317,-2.432 4.978,-4.634 7.55,-6.764 2.184,-1.809 4.441,-3.679 6.452,-5.661 0.09,-0.09 0.234,-0.088 0.322,0.003 0.088,0.089 0.087,0.234 -0.003,0.322 -2.025,1.997 -4.29,3.873 -6.481,5.687 -2.562,2.123 -5.212,4.317 -7.51,6.728 -0.087,0.091 -0.231,0.095 -0.322,0.008 m -32.127,27.375 c -0.009,-0.123 0.084,-0.229 0.207,-0.238 0.786,-0.053 1.562,-0.301 2.31,-0.541 l 1.679,-0.463 c 0.118,-0.033 0.223,0.042 0.255,0.161 0.034,0.119 -0.054,0.247 -0.173,0.281 l -1.625,0.447 c -0.775,0.248 -1.576,0.505 -2.415,0.562 -0.124,0.009 -0.231,-0.085 -0.238,-0.209 M -45.387,41 l -0.42,-0.27 c 0.073,0.047 0.147,0.013 0.195,-0.06 0.047,-0.074 0.004,-0.183 -0.07,-0.232 l 0.527,0.344 c 0.072,0.047 0.064,0.121 0.017,0.195 -0.048,0.074 -0.175,0.07 -0.249,0.023 m -36.395,21.377 c -0.077,-0.102 -0.06,-0.246 0.04,-0.323 l 6.142,-4.747 c 5.452,-4.178 11.09,-8.499 16.204,-13.201 0.095,-0.087 0.24,-0.08 0.327,0.014 0.085,0.094 0.079,0.24 -0.015,0.328 -5.13,4.716 -10.777,9.043 -16.237,13.227 l -6.136,4.742 c -0.101,0.078 -0.247,0.061 -0.325,-0.04 m 61.62,-40.334 c -0.104,-0.062 -0.14,-0.197 -0.079,-0.302 0.062,-0.105 0.197,-0.14 0.302,-0.078 0.318,0.186 0.712,0.2 1.024,0.038 0.109,-0.056 0.242,-0.014 0.298,0.094 0.055,0.109 0.014,0.243 -0.094,0.299 -0.447,0.23 -1.002,0.212 -1.451,-0.051 m -12.084,14.378 c -0.068,-0.038 -0.152,-0.018 -0.191,0.053 l 0.237,-0.436 0.06,-0.033 c 0.833,-0.275 1.938,-0.568 3.094,-0.38 l 0.051,0.009 0.311,0.37 0.109,0.12 c 0.053,0.059 0.048,0.148 -0.011,0.202 -0.059,0.054 -0.149,0.048 -0.203,-0.011 L -28.895,36.2 c 0,0 -0.177,-0.212 -0.245,-0.294 -1.055,-0.159 -2.072,0.101 -2.86,0.358 -0.05,0.096 -0.191,0.358 -0.191,0.358 0.038,-0.069 0.015,-0.163 -0.055,-0.201 m -88.304,68.966 c -0.055,-0.063 -0.05,-0.158 0.013,-0.214 7.613,-6.705 15.991,-12.625 24.092,-18.35 6.034,-4.264 12.273,-8.673 18.153,-13.377 0.065,-0.051 0.16,-0.041 0.212,0.024 0.052,0.066 0.041,0.162 -0.024,0.214 -5.887,4.708 -12.13,9.119 -18.167,13.386 -8.095,5.721 -16.466,11.636 -24.067,18.331 -0.062,0.055 -0.158,0.049 -0.212,-0.014 m 43.888,-33.026 c -0.096,-0.09 -0.081,-0.26 0.008,-0.356 l 0.714,-0.775 0.068,-0.082 c 0.083,-0.101 0.232,-0.116 0.334,-0.032 0.1,0.083 0.114,0.233 0.031,0.334 l -0.068,0.083 -0.773,0.834 c -0.089,0.096 -0.219,0.082 -0.314,-0.006 m 1.799,-2.528 c -0.117,-0.005 -0.207,-0.105 -0.201,-0.223 0.017,-0.351 0.159,-0.632 0.298,-0.905 l 0.212,-0.488 c 0.047,-0.107 0.18,-0.18 0.287,-0.134 0.107,0.047 0.166,0.148 0.119,0.256 l -0.24,0.558 c -0.123,0.243 -0.24,0.474 -0.253,0.734 -0.006,0.117 -0.104,0.208 -0.222,0.202 m -34.839,10.37 c -0.066,-0.123 0.012,-0.291 0.134,-0.358 l 0.918,-0.498 c 0.395,-0.25 0.8,-0.508 1.284,-0.629 0.135,-0.034 0.272,0.049 0.305,0.185 0.035,0.135 -0.048,0.273 -0.184,0.307 -0.402,0.101 -0.758,0.326 -1.135,0.565 l -1.012,0.546 c -0.123,0.066 -0.244,0.005 -0.31,-0.118 m -37.41,14.717 c -0.022,-0.089 0.032,-0.178 0.121,-0.199 8.599,-2.096 17.254,-5.319 27.236,-10.143 0.081,-0.04 0.18,-0.006 0.219,0.077 0.04,0.082 0.005,0.181 -0.077,0.221 -10.003,4.834 -18.678,8.065 -27.3,10.166 -0.088,0.021 -0.178,-0.033 -0.199,-0.122 m 41.968,-17.298 c -0.063,-0.1 -0.031,-0.232 0.068,-0.293 l 1.737,-1.087 c 5.307,-3.317 10.794,-6.748 15.984,-10.487 0.095,-0.068 0.229,-0.047 0.296,0.049 0.068,0.095 0.047,0.228 -0.049,0.298 -5.201,3.747 -10.694,7.181 -16.006,10.502 l -1.738,1.085 c -0.099,0.063 -0.23,0.032 -0.292,-0.067 M -92.37,65.357 c -0.024,-0.159 0.075,-0.306 0.232,-0.329 l 4.034,-0.619 c -0.159,0.024 -0.274,0.174 -0.25,0.333 0.023,0.158 0.165,0.269 0.323,0.244 l -3.997,0.612 c -0.159,0.025 -0.317,-0.083 -0.342,-0.241 m 10.067,-12.062 c -0.037,-0.143 0.049,-0.287 0.191,-0.325 7.333,-1.904 14.166,-5.545 20.772,-9.068 l 1.42,-0.756 c 0.128,-0.068 0.289,-0.019 0.357,0.11 0.069,0.131 0.02,0.292 -0.11,0.36 l -1.418,0.756 c -6.635,3.536 -13.493,7.194 -20.889,9.113 -0.142,0.038 -0.286,-0.048 -0.323,-0.19 m -13.117,2.472 c -0.042,-0.042 -0.042,-0.111 -0.001,-0.154 0.19,-0.193 0.357,-0.443 0.48,-0.722 0.024,-0.055 0.087,-0.079 0.141,-0.055 0.055,0.024 0.08,0.087 0.055,0.142 -0.133,0.303 -0.314,0.576 -0.523,0.788 -0.042,0.042 -0.109,0.042 -0.152,0.001 m -4.952,5.599 c -0.076,-0.051 -0.095,-0.155 -0.045,-0.231 0.41,-0.607 0.92,-1.14 1.413,-1.656 0.508,-0.531 1.034,-1.082 1.43,-1.697 0.049,-0.077 0.152,-0.1 0.227,-0.05 0.078,0.05 0.1,0.152 0.051,0.23 -0.413,0.642 -0.95,1.204 -1.47,1.747 -0.484,0.506 -0.983,1.029 -1.377,1.612 -0.051,0.076 -0.153,0.096 -0.229,0.045 m -15.586,2.869 c -0.039,-0.066 -0.018,-0.152 0.05,-0.191 l 6.046,-3.524 c 3.538,-2.043 7.195,-4.157 10.595,-6.292 0.066,-0.042 0.153,-0.022 0.193,0.044 0.041,0.066 0.022,0.153 -0.044,0.194 -3.404,2.138 -7.065,4.253 -10.605,6.298 l -6.042,3.523 c -0.067,0.039 -0.154,0.017 -0.193,-0.052 m -2.323,1.443 c -0.046,-0.057 -0.038,-0.141 0.018,-0.188 l 0.061,-0.052 0.473,-0.303 c 0.062,-0.039 0.124,-0.011 0.163,0.05 0.039,0.061 0.003,0.154 -0.06,0.194 l -0.406,0.263 -0.063,0.052 c -0.056,0.048 -0.139,0.04 -0.186,-0.016 m 21.979,-12.759 c -0.045,-0.066 -0.028,-0.158 0.039,-0.204 1.394,-0.959 2.938,-1.829 4.431,-2.668 l 2.519,-1.449 c 0.07,-0.039 0.161,-0.017 0.201,0.053 0.041,0.07 0.018,0.159 -0.052,0.199 l -2.525,1.453 c -1.487,0.837 -3.026,1.703 -4.41,2.654 -0.066,0.045 -0.156,0.028 -0.203,-0.038 m 18.255,-10.735 c -0.049,-0.101 -0.006,-0.225 0.094,-0.273 2.251,-1.093 4.439,-2.325 6.554,-3.515 l 3.644,-2.02 c 0.098,-0.055 0.22,-0.019 0.274,0.081 0.054,0.099 0.017,0.225 -0.082,0.279 l -3.637,2.017 c -2.12,1.194 -4.314,2.427 -6.573,3.525 -0.102,0.05 -0.225,0.007 -0.274,-0.094 M -20.13,12.035 c -0.038,-0.058 -0.02,-0.136 0.038,-0.174 l 4.874,-3.153 C -10.93,5.9 -6.495,2.997 -1.805,0.693 c 0.062,-0.03 0.137,-0.005 0.168,0.057 0.029,0.063 0.004,0.137 -0.058,0.167 -4.677,2.297 -9.104,5.197 -13.386,8.001 l -4.877,3.154 c -0.059,0.038 -0.134,0.021 -0.172,-0.037 m 0.194,1.524 c -0.059,-0.16 0.034,-0.34 0.193,-0.402 l 1.218,-0.464 1.293,-0.488 c 0.157,-0.059 0.32,0.026 0.379,0.185 0.06,0.159 -0.034,0.341 -0.193,0.402 l -2.508,0.95 c -0.159,0.06 -0.321,-0.024 -0.382,-0.183 m -4.146,1.652 c -0.046,-0.139 0.029,-0.289 0.168,-0.336 l 0.333,-0.111 c -0.137,0.046 -0.213,0.196 -0.167,0.336 0.046,0.138 0.198,0.213 0.336,0.168 l -0.336,0.112 c -0.139,0.046 -0.288,-0.029 -0.334,-0.169 m -1.777,6.896 c -1.13,-0.154 -2.304,-0.096 -3.439,-0.039 l -2.57,0.04 c -0.086,0.001 -0.146,-0.067 -0.147,-0.152 -10e-4,-0.086 0.078,-0.156 0.163,-0.158 l 2.539,-0.04 c 1.148,-0.058 2.338,-0.117 3.496,0.042 0.084,0.012 0.144,0.089 0.131,0.174 -0.011,0.086 -0.088,0.144 -0.173,0.133 m 3.09,-1.046 c -0.063,-0.06 -0.066,-0.16 -0.005,-0.224 1.055,-1.118 2.354,-1.914 3.61,-2.683 l 1.41,-0.888 -0.067,0.103 0.334,-0.089 -0.037,0.215 -0.056,0.034 -1.42,0.894 c -1.239,0.76 -2.52,1.544 -3.546,2.631 -0.06,0.065 -0.16,0.068 -0.223,0.007 m 2.613,0.171 c -0.02,-0.049 -0.011,-0.096 0.038,-0.115 l 0.848,-0.335 0.237,-0.069 c 0.073,0.006 0.182,0.064 0.182,0.064 -0.047,-0.024 -0.106,-0.007 -0.129,0.041 -0.026,0.046 -0.007,0.105 0.039,0.129 0,0 -0.077,-0.041 -0.096,-0.051 -0.004,0.019 -0.18,0.071 -0.18,0.071 l -0.799,0.312 c -0.049,0.019 -0.121,0.003 -0.14,-0.047 m 14.564,0.132 c -0.13,-0.351 -0.421,-0.607 -0.727,-0.876 -0.306,-0.269 -0.62,-0.547 -0.824,-0.946 -0.059,-0.115 -0.013,-0.256 0.102,-0.314 0.115,-0.06 0.254,-0.014 0.313,0.102 0.163,0.319 0.431,0.556 0.715,0.806 0.337,0.297 0.686,0.603 0.857,1.064 0.046,0.12 -0.015,0.254 -0.136,0.3 -0.121,0.046 -0.253,-0.015 -0.3,-0.136 m -16.953,0.787 c -0.139,-0.028 -0.229,-0.166 -0.201,-0.306 0.028,-0.14 0.165,-0.231 0.305,-0.203 0.374,0.077 0.741,0.078 1.06,0.002 0.14,-0.032 0.278,0.054 0.311,0.194 0.032,0.14 -0.054,0.279 -0.192,0.311 -0.393,0.093 -0.836,0.094 -1.283,0.002 M -38.44,34.899 c -0.105,-0.092 -0.115,-0.253 -0.022,-0.358 1.262,-1.43 2.734,-2.759 4.157,-4.043 1.358,-1.225 2.762,-2.491 3.986,-3.848 0.092,-0.103 0.253,-0.111 0.357,-0.018 0.103,0.094 0.111,0.255 0.017,0.358 -1.242,1.377 -2.655,2.652 -4.022,3.885 -1.413,1.275 -2.873,2.593 -4.116,4.002 -0.093,0.105 -0.253,0.115 -0.357,0.022 m 32.94,7.906 c -6.648,-3.807 -13.204,-7.138 -20.318,-6.108 -0.078,0.011 -0.149,-0.044 -0.161,-0.12 -0.011,-0.078 0.043,-0.15 0.121,-0.161 7.202,-1.043 13.807,2.311 20.499,6.143 0.067,0.038 0.09,0.125 0.051,0.193 -0.038,0.068 -0.124,0.092 -0.192,0.053 m 5.161,2.778 -1.146,-0.52 -1.353,-0.595 c -0.131,-0.058 -0.211,-0.219 -0.154,-0.352 0.058,-0.133 0.191,-0.201 0.323,-0.142 l 1.412,0.619 1.108,0.502 c 0.13,0.061 0.202,0.221 0.141,0.353 -0.058,0.131 -0.2,0.195 -0.331,0.135 m 9.323,1.633 c -10e-4,-0.076 0.059,-0.141 0.137,-0.143 1.458,-0.03 2.872,-0.411 4.314,-0.834 0.073,-0.02 0.151,0.022 0.173,0.097 0.021,0.074 -0.022,0.152 -0.096,0.173 -1.46,0.428 -2.894,0.813 -4.386,0.845 -0.076,10e-4 -0.14,-0.061 -0.142,-0.138 m -39.622,31.11 c -8.306,-0.446 -16.2,-4.514 -20.603,-10.616 -0.057,-0.08 -0.04,-0.189 0.039,-0.246 0.079,-0.058 0.189,-0.04 0.247,0.039 4.341,6.017 12.133,10.029 20.336,10.47 7.342,0.395 14.037,-2.142 18.368,-6.96 0.063,-0.073 0.175,-0.079 0.248,-0.013 0.071,0.065 0.078,0.176 0.012,0.25 -4.4,4.897 -11.198,7.478 -18.647,7.076 M -40.641,51.491 c -0.059,-0.139 0.005,-0.3 0.142,-0.359 l 0.274,-0.121 c 0.626,-0.274 1.274,-0.558 1.982,-0.626 0.148,-0.016 0.281,0.094 0.295,0.243 0.015,0.148 -0.094,0.282 -0.243,0.296 -0.621,0.061 -1.202,0.317 -1.816,0.586 l -0.278,0.122 c -0.137,0.059 -0.297,-0.003 -0.356,-0.141 m 15.087,3.988 c -0.099,-0.041 -0.146,-0.154 -0.105,-0.252 0.516,-1.261 1.05,-2.563 2.027,-3.535 0.076,-0.074 0.198,-0.074 0.272,10e-4 0.076,0.076 0.075,0.199 -0.001,0.273 -0.922,0.916 -1.44,2.182 -1.942,3.406 -0.04,0.099 -0.154,0.147 -0.251,0.107 m 2.187,-4.776 -0.076,-0.28 c -0.037,-0.176 -0.07,-0.328 -0.204,-0.412 -0.063,-0.037 -0.082,-0.118 -0.044,-0.179 0.038,-0.063 0.118,-0.082 0.179,-0.044 0.233,0.142 0.282,0.376 0.325,0.581 l 0.062,0.236 c 0.019,0.069 -0.018,0.156 -0.086,0.175 -0.07,0.019 -0.137,-0.008 -0.156,-0.077 m 14.599,15.328 c -0.149,-0.058 -0.223,-0.225 -0.166,-0.375 0.75,-1.96 1.531,-4.052 2.11,-6.181 0.042,-0.155 0.2,-0.246 0.355,-0.204 0.154,0.042 0.244,0.202 0.201,0.356 -0.586,2.156 -1.372,4.264 -2.127,6.238 -0.057,0.149 -0.224,0.223 -0.373,0.166 m -19.063,-29.26 -0.523,-0.125 -0.417,-0.076 c -0.195,-0.036 -0.3,-0.218 -0.265,-0.414 0.035,-0.196 0.247,-0.32 0.442,-0.286 l 0.342,0.06 0.726,0.187 c 0.192,0.05 0.241,0.221 0.194,0.412 -0.046,0.193 -0.307,0.287 -0.499,0.242 m -4.547,-0.047 c -0.077,-0.023 -0.12,-0.105 -0.096,-0.183 0.022,-0.077 0.104,-0.121 0.182,-0.097 1.004,0.307 2.495,0.158 3.546,-0.357 0.073,-0.034 0.159,-0.004 0.195,0.069 0.036,0.073 0.005,0.16 -0.067,0.196 -1.111,0.543 -2.691,0.699 -3.76,0.372 m -4.332,0.864 c -0.048,-0.134 0.022,-0.28 0.156,-0.328 0.703,-0.252 1.437,-0.371 2.149,-0.486 0.662,-0.107 1.345,-0.216 1.988,-0.434 0.134,-0.045 0.28,0.027 0.325,0.162 0.046,0.134 -0.026,0.28 -0.161,0.326 -0.684,0.23 -1.388,0.344 -2.071,0.455 -0.72,0.116 -1.4,0.226 -2.058,0.461 -0.135,0.048 -0.28,-0.022 -0.328,-0.156 m -41.647,44.038 c -0.049,-0.042 -0.055,-0.115 -0.013,-0.164 5.467,-6.383 9.971,-11.564 13.769,-15.841 l 1.983,-2.234 c 7.296,-8.236 14.842,-16.751 23.118,-23.27 l 0.769,-0.577 c 0.88,-0.642 1.789,-1.307 2.158,-2.088 0.027,-0.058 0.096,-0.082 0.154,-0.055 0.058,0.027 0.082,0.096 0.056,0.155 -0.395,0.835 -1.328,1.518 -2.23,2.177 l -0.764,0.571 c -8.26,6.507 -15.798,15.013 -23.088,23.241 l -1.982,2.235 c -3.798,4.275 -8.302,9.455 -13.767,15.837 -0.042,0.049 -0.116,0.054 -0.163,0.013 m 41.733,-43.938 -0.215,-0.077 -0.556,-0.135 c -0.132,-0.032 -0.259,-0.172 -0.227,-0.306 0.031,-0.134 0.122,-0.223 0.255,-0.192 l 0.7,0.163 0.202,0.073 c 0.128,0.046 0.202,0.19 0.155,0.321 -0.046,0.129 -0.184,0.199 -0.314,0.153 m -8.41,3.187 c -0.008,-0.131 -0.123,-0.23 -0.253,-0.222 0.293,-0.02 0.475,-0.199 0.707,-0.428 0.202,-0.2 0.432,-0.427 0.767,-0.538 0.125,-0.041 0.26,0.025 0.3,0.151 0.042,0.125 -0.025,0.26 -0.15,0.301 -0.231,0.077 -0.402,0.246 -0.585,0.425 -0.252,0.25 -0.538,0.533 -1.007,0.564 0.131,-0.008 0.229,-0.123 0.221,-0.253 m -27.46,19.576 c -0.033,-0.083 0.007,-0.179 0.089,-0.212 9.679,-3.982 19.02,-10.711 27.014,-19.457 0.06,-0.066 0.163,-0.072 0.229,-0.011 0.066,0.06 0.071,0.165 0.011,0.23 -8.027,8.783 -17.408,15.539 -27.13,19.539 -0.083,0.034 -0.177,-0.006 -0.213,-0.089 m -2.01,9.782 c -0.061,-0.085 -0.041,-0.203 0.044,-0.263 2.096,-1.489 4.054,-3.275 5.949,-5.004 1.369,-1.249 2.785,-2.542 4.247,-3.717 0.08,-0.065 0.2,-0.052 0.264,0.029 0.066,0.082 0.053,0.201 -0.029,0.266 -1.453,1.166 -2.864,2.455 -4.229,3.701 -1.903,1.736 -3.87,3.531 -5.984,5.034 -0.086,0.059 -0.203,0.039 -0.262,-0.046 M -87.17,86.846 c -0.057,-0.058 -0.057,-0.153 0.002,-0.211 4.043,-4.038 7.018,-7.87 9.09,-11.715 0.039,-0.072 0.13,-0.099 0.202,-0.059 0.072,0.039 0.099,0.129 0.059,0.202 -2.086,3.871 -5.077,7.725 -9.141,11.784 -0.059,0.058 -0.154,0.057 -0.212,-10e-4 M 9.633,-3.021 C 9.615,-3.109 9.612,-3.173 9.7,-3.195 l 0.427,-0.107 C 10.04,-3.28 9.96,-3.188 9.98,-3.099 c 0.019,0.088 0.08,0.149 0.169,0.132 l -0.263,0.05 C 9.797,-2.898 9.653,-2.931 9.633,-3.021 m 1.721,41.882 C 9.519,38.424 7.623,37.973 5.807,38.252 5.704,38.267 5.609,38.197 5.593,38.095 5.577,37.992 5.648,37.896 5.75,37.88 c 1.888,-0.289 3.82,0.17 5.689,0.616 2.811,0.668 5.464,1.3 8.103,-0.303 0.088,-0.054 0.204,-0.025 0.256,0.064 0.055,0.089 0.026,0.204 -0.062,0.258 -2.77,1.682 -5.623,1.002 -8.382,0.346 M -0.495,0.385 c -0.969,0.485 -0.44,-0.413 0,0 m -8.866,13.26 c 1.335,-0.435 -1.116,0.505 0,0 m 33.29,-1.384 -0.336,0.042 c 2.735,-4.39 5.847,-9.811 8.699,-14.266 1.037,-1.62 2.5,-3.027 3.179,-4.533 0.516,-1.146 0.623,-2.906 1.84,-3.861 0.975,-0.764 2.576,-1.327 4.015,0.168 0.517,3.486 -2.577,3.332 -4.517,4.7 -0.596,0.421 -1.052,1.295 -1.672,2.014 C 30.987,1.336 27.82,7.271 24.263,12.303 Z M 4.356,38.486 c -0.405,-0.124 -1.354,0.413 -1.004,0 0.294,0.047 0.835,-0.473 1.004,0 m -134.747,34.66 -0.251,0.083 c -0.056,-1.232 0.888,-1.46 2.175,-1.342 -0.16,1.014 -0.699,1.648 -2.007,1.509 z m -2.927,4.615 c -0.851,-1.15 0.216,-2.637 1.171,-3.021 -0.292,1.105 0.064,2.863 -1.004,3.189 v -0.168 z m -0.335,0.755 0.168,-0.084 c -0.032,1.346 -0.994,2.348 -2.008,2.015 -1.477,-0.487 -0.06,-2.868 1.674,-2.015 z m 44.749,10.407 0.084,-0.084 c 1.008,2.29 -2.175,2.834 -2.175,1.175 0,-0.749 0.872,-1.196 2.007,-1.175 z m 53.615,-66.381 v -0.169 c 0.688,0.132 0.858,-0.257 1.504,-0.168 l -0.084,0.252 0.084,0.251 c -0.354,0.205 -0.485,0.632 -1.003,0.672 l -0.195,-0.251 -0.306,0.083 v -0.504 c -0.103,-0.009 -0.198,-0.024 -0.168,-0.166 z m -73.941,57.737 c -0.428,0.465 -1.091,0.694 -1.672,1.007 -0.584,1.242 -0.56,2.431 -1.338,3.525 -1.72,2.418 -5.723,2.678 -7.529,0.168 l 0.085,-0.252 -0.252,-0.085 c 0.569,-2.468 2.04,-4.123 4.349,-4.363 1.105,-0.115 2.221,0.459 3.681,0.335 0.94,-0.08 1.558,-0.792 2.509,-0.839 l -0.083,0.308 z m 4.517,-2.686 c -0.514,0.74 0.613,1.385 0.168,2.014 -0.952,0.414 -1.872,-0.253 -2.844,-0.336 l 0.083,-0.307 -0.251,-0.196 c 0.67,-0.727 1.667,-1.124 2.677,-1.511 l -0.083,0.252 z m 12.881,-12.084 c -1.977,0.534 -4.191,0.829 -6.022,1.51 -0.501,1.378 -2.374,4.9 -4.517,4.196 -1.281,-0.421 -1.01,-2.672 -0.334,-3.524 1.622,-2.048 7.97,-1.997 10.706,-2.686 l -0.084,0.308 z m 10.54,-3.357 v 0.504 c 0.167,-0.002 0.198,0.135 0.334,0.166 l -0.084,0.252 -0.083,0.253 c -2.532,0.426 -4.317,1.598 -6.022,2.853 l -0.084,-0.252 -0.251,-0.084 v -0.839 h -0.67 l 0.084,-0.307 -0.251,-0.197 c 2.773,-0.238 4.753,-1.273 6.524,-2.518 l 0.195,0.252 z m 21.244,-18.966 c 4.215,-2.039 7.425,-5.083 10.873,-7.889 l 0.196,0.252 0.307,-0.085 v 0.504 c 0.167,0 0.199,0.136 0.334,0.168 l -0.084,0.308 0.251,0.195 c -4.073,2.18 -7.625,4.883 -10.873,7.889 l -0.195,-0.251 -0.307,0.083 v -0.672 h -0.335 l 0.084,-0.307 z m -35.129,12.419 c -0.148,1.421 -1.225,1.906 -2.175,2.519 l -0.083,-0.252 -0.252,0.084 c 0.399,-1.112 0.811,-2.209 2.176,-2.351 l 0.167,0.084 z m -20.576,8.729 c -0.447,0.614 -0.945,1.177 -2.008,1.175 l 0.084,-0.253 -0.251,-0.084 c 0.348,-0.769 1.201,-1.033 2.175,-1.174 l -0.084,0.168 z m 19.739,-11.582 c 0.072,1.677 1.597,0.916 2.678,1.008 0.243,0.02 0.566,0.293 0.834,0.336 3.327,0.525 8.256,-0.893 10.54,-1.176 l -0.084,0.308 0.251,0.195 c -3.418,1.362 -8.528,1.611 -12.88,1.512 -0.01,0.102 -0.026,0.198 -0.168,0.168 v -0.168 h -0.167 c -0.858,-0.599 -2.692,-0.908 -4.015,-0.504 l -0.167,-0.083 -0.167,0.083 c -0.121,-1.52 -1.664,-1.462 -2.509,-1.847 -1.139,0.208 -1.59,0.917 -2.677,1.007 -2.757,0.232 -5.907,-1.962 -5.019,-4.867 0.279,-0.914 1.609,-1.875 2.007,-2.014 2.714,-0.948 4.754,0.907 5.689,2.182 0.543,0.743 0.584,1.754 1.003,2.351 0.74,1.051 2.87,2.12 4.517,1.509 l 0.167,0.084 z m 10.205,-5.706 c -0.696,1.092 -1.593,1.983 -2.844,2.518 l 0.084,-0.252 -0.251,0.084 c 0,-0.169 -0.136,-0.199 -0.168,-0.336 -0.168,0 -0.199,-0.136 -0.334,-0.168 l 0.084,-0.168 -0.084,-0.167 c 1.176,-0.556 1.739,-1.725 3.345,-1.847 l -0.083,0.252 z m 8.196,-4.868 c -0.411,0.369 -0.855,0.708 -1.505,0.84 l 0.083,-0.252 -0.251,-0.084 c 0.166,-0.957 -1.031,-1.228 -0.502,-2.014 1.25,-0.191 1.42,0.702 2.008,1.175 l -0.083,0.252 z m 12.045,-6.546 c -0.685,0.433 -1.349,0.884 -2.174,1.176 l 0.083,-0.252 -0.252,-0.084 c 0.038,-0.131 0.005,-0.331 0.169,-0.336 -0.14,-1.001 -1.059,-1.64 -0.169,-2.35 1.566,-0.34 1.489,0.968 2.176,1.511 l -0.084,0.252 z m 11.71,-6.209 c -0.438,0.568 -1.229,0.781 -2.008,1.007 l 0.084,-0.252 -0.251,0.084 c 0.151,-0.576 0.368,-1.085 0.668,-1.511 0.675,-0.115 0.956,0.161 1.507,0.168 l -0.084,0.252 z m 5.687,-2.686 c -0.616,0.612 -1.369,1.088 -2.508,1.175 l -0.084,-0.252 -0.252,-0.085 c 0.613,-0.727 1.425,-1.255 2.677,-1.342 l -0.084,0.308 z m 8.197,-4.029 c -0.1,0.437 0.068,0.605 0.502,0.504 -1.202,0.473 -2.495,0.853 -3.848,1.176 l 0.084,-0.309 -0.251,-0.196 c 1.094,-0.636 2.291,-1.17 3.513,-1.678 l -0.084,0.252 z m 22.583,-10.405 c 4.078,-1.81 8.078,-3.337 12.714,-4.365 1.501,-0.333 3.458,-1.127 4.683,-1.174 1.258,-0.05 3.039,0.698 4.35,0.671 1.605,-0.034 3.043,-0.755 4.517,-0.504 1.382,0.236 2.858,1.349 3.346,2.687 0.394,1.078 0.304,2.492 0,3.188 -0.762,1.737 -3.308,1.998 -5.186,1.51 C 6.115,14.078 4.87,12.48 4.523,11.799 4.108,10.981 4.354,8.791 2.684,8.274 2.005,8.064 0.844,8.446 -0.161,8.442 -0.955,8.438 -1.612,8.243 -2.167,8.274 -4.692,8.413 -7.419,9.5 -9.863,10.288 c -2.595,0.837 -5.075,1.79 -7.36,2.518 l 0.083,-0.307 z m -6.357,2.517 c 0.573,-0.947 2.144,-1.377 2.845,-2.182 0.428,-0.493 0.346,-0.888 0.669,-1.342 -10e-4,0.167 0.135,0.2 0.167,0.335 l 0.042,0.336 0.292,0.167 c -0.189,0.203 -0.476,0.305 -0.334,0.839 0.213,0.01 0.231,0.216 0.501,0.169 l -0.083,0.308 0.251,0.195 c -1.264,0.69 -2.721,1.186 -4.182,1.679 l 0.083,-0.309 z m -5.688,3.86 c -0.178,-0.157 -0.051,-0.619 -0.501,-0.503 l 0.083,-0.308 -0.25,-0.195 c 1.86,-0.903 3.999,-2.009 6.356,-2.854 l -0.083,0.308 0.251,0.196 c -1.991,1.023 -3.72,2.31 -5.52,3.525 l -0.084,-0.252 z m -2.341,3.525 h -1.338 l 0.083,-0.252 -0.083,-0.251 c 0.438,-0.232 0.575,-0.765 1.171,-0.84 l 0.084,0.252 0.25,-0.083 v 0.839 l -0.25,0.083 z m 26.598,-1.174 c 0.977,0.227 2.864,0.853 2.844,2.013 -0.006,0.347 -0.547,1.202 -1.003,1.344 -1.509,0.466 -2.6,-1.006 -2.343,-3.191 l 0.307,0.085 z m -13.884,0.671 c 0.052,-0.228 0.237,-0.322 0.167,-0.671 -0.103,-0.01 -0.199,-0.026 -0.167,-0.169 h 0.167 v -0.168 c 2.569,-0.532 3.719,-2.682 6.356,-3.02 1.76,-0.227 3.443,-0.062 5.688,-0.169 0.321,0.407 0.106,1.349 0.168,2.015 l -0.252,-0.084 -0.083,0.252 h -0.334 c -0.508,-0.046 -0.163,1.027 -0.67,0.502 -3.888,-0.516 -6.416,1.712 -9.702,2.352 -0.198,-0.306 -0.872,-0.133 -1.171,-0.337 l 0.083,-0.308 z m -2.51,0 c 0.399,-0.328 1.028,-0.424 1.506,-0.671 v 0.166 h 0.168 c -0.009,0.233 0.077,0.37 0.166,0.505 l -0.318,0.151 -0.016,0.352 h -1.338 l 0.083,-0.308 z m -4.349,1.174 c 0.053,-0.389 -0.026,-0.643 -0.168,-0.838 l 0.251,-0.085 -0.083,-0.251 c 1.61,0.216 2.322,-0.468 3.179,-1.008 l 0.083,0.253 0.251,-0.085 v 0.672 c 0.102,0.009 0.198,0.025 0.167,0.168 l -0.251,0.195 0.084,0.308 c -1.397,0.052 -2.102,0.799 -3.178,1.175 l -0.118,-0.285 z m -4.517,4.028 c 0.012,-0.292 -0.037,-0.521 -0.167,-0.671 l 0.084,-0.252 -0.084,-0.252 c 0.822,-0.574 1.851,-0.94 2.844,-1.341 l 0.218,0.217 0.284,0.117 c -0.879,0.798 -1.61,1.743 -2.677,2.351 l -0.195,-0.252 z M 13.39,46.208 c 0.032,-1.768 -0.22,-3.25 -0.67,-4.534 1.862,-1.555 5.39,-1.466 5.688,1.008 0.327,2.713 -2.42,3.448 -5.018,3.86 l 0.084,-0.167 z M -0.328,45.031 c 2.651,1.201 6.174,1.527 9.536,2.015 l -0.084,0.167 0.084,0.169 c -3.332,1.184 -7.227,-0.59 -9.703,-1.847 l 0.251,-0.195 z m -37.973,5.372 c 1.499,-0.556 4.183,-0.575 4.349,1.175 -0.712,0.589 -2.043,0.686 -3.011,0.335 -0.713,-0.258 -0.775,-0.906 -1.338,-1.007 l 0.084,-0.252 z m -13.048,17.288 c -1.087,-1.617 -1.896,-3.273 -1.672,-5.876 0.438,-5.107 3.84,-5.547 7.359,-7.719 2.218,-1.37 3.224,-2.528 5.353,-3.022 l -0.083,0.306 0.25,0.198 c -1.505,1.074 -3.813,2.141 -5.52,4.196 -0.94,1.133 -1.505,2.462 -2.509,3.188 -1.361,0.987 -2.904,1.218 -3.513,2.686 -0.799,1.93 -0.074,4.039 0.836,5.874 l -0.251,0.083 z m 27.601,-15.945 c -0.11,-0.614 0.363,-0.645 0.335,-1.175 l 0.167,0.083 0.167,-0.083 c 0.434,0.236 1.132,0.207 1.005,1.007 -0.463,0.207 -0.85,0.49 -1.506,0.503 l 0.083,-0.251 z m 15.391,13.931 v 0.671 c 1.826,0.684 4.237,-0.98 6.524,-2.182 2.067,-1.088 4.525,-2.469 5.52,-3.861 1.141,-1.594 1.83,-4.457 4.35,-3.861 0.235,0.057 1.052,0.641 1.171,1.008 0.733,2.264 -1.901,3.399 -4.182,3.525 -3.239,2.126 -6.957,5.048 -10.707,6.545 -2.577,1.031 -5.101,1.794 -6.356,3.861 l -0.084,-0.252 -0.251,0.084 v -0.503 c -1.551,-1.551 -4.111,-0.712 -6.022,-0.84 -2.612,-0.175 -5.483,-0.896 -7.026,-2.685 -2.092,-2.426 -2.034,-8.466 -0.335,-11.749 l 0.252,-0.084 0.25,-0.084 c -0.403,3.529 -1.582,7.533 0,10.407 2.36,4.285 12.092,3.842 15.892,0.839 0.074,-0.43 0.234,-0.772 0.502,-1.007 l 0.194,0.252 z m 2.844,-23.163 h 0.501 c 0.811,-0.682 0.604,-1.745 0.168,-2.685 1.53,-2.761 -0.386,-8.058 2.174,-9.735 0.476,-0.312 1.634,-0.781 2.844,-0.504 1.889,0.433 1.812,2.598 0.67,3.861 -1.023,1.128 -2.734,1.468 -3.346,2.853 -0.783,1.771 -1.153,6.954 0,7.721 l -0.251,0.195 0.083,0.308 h -0.334 c -0.816,0.912 -0.822,2.297 -1.003,3.524 -0.636,4.291 -1.153,8.406 -2.343,11.75 l -0.195,-0.252 -0.307,0.084 c 0.292,-1.871 0.926,-4.503 1.339,-7.217 0.463,-3.051 1.635,-7.984 0,-9.566 l 0.084,-0.169 z m -22.249,-6.378 c 0.791,-0.066 1.396,0.054 2.007,0.168 l -0.084,0.252 0.252,-0.084 c -0.269,0.514 -0.101,1.467 -0.837,1.51 -0.943,-0.003 -0.957,-0.941 -1.506,-1.343 l 0.251,-0.195 z m -50.352,45.318 c -0.247,1.121 -0.909,2.634 -2.175,2.181 0.065,-1.276 1.119,-1.562 1.84,-2.181 l 0.168,0.084 z m 41.485,-44.311 h 0.168 l -0.007,0.358 -0.327,0.146 0.25,-0.196 z m -7.359,2.686 c 0.041,-1.56 -0.64,-2.448 -0.335,-3.693 0.538,-2.192 3.482,-2.287 5.854,-1.678 l 0.196,0.251 0.307,-0.084 c -0.068,1.077 0.445,1.568 0.668,2.351 l -0.083,0.252 0.083,0.25 c -1.33,1.296 -3.193,2.056 -5.854,2.014 -0.235,0.213 -0.009,0.886 -0.669,0.672 l 0.084,-0.251 z m -30.614,28.532 c 0.102,-1.522 -1.193,-1.928 -1.672,-3.021 -0.462,-1.051 -0.18,-1.943 -0.837,-3.02 l 0.083,-0.252 -0.083,-0.253 c 1.482,-0.695 3.122,-1.231 4.851,-1.677 l -0.083,0.251 0.251,0.085 c 0.194,1.759 1.347,2.222 1.338,3.692 -0.017,2.75 -2.643,2.153 -3.345,4.195 l -0.252,-0.083 z m 10.205,-7.048 c 0.921,-0.936 1.573,-2.99 3.68,-2.183 0.062,2.078 -2.636,1.384 -3.513,2.518 l 0.084,-0.252 z m -11.543,9.902 c 0.347,-0.491 0.377,-1.3 0.837,-1.679 l 0.25,0.085 0.251,-0.085 c 0,0.169 0.136,0.201 0.168,0.336 h 0.166 l -0.083,0.253 0.252,0.084 c -0.397,0.441 -0.665,1.011 -1.339,1.174 L -75.689,71.3 Z m -2.258,2.35 -0.083,-0.169 c 0.573,-0.541 1.067,-1.166 1.839,-1.509 l -0.059,0.3 0.227,0.204 c -0.525,0.871 -0.701,2.094 -1.506,2.684 l -0.167,-0.083 -0.167,0.083 c 0.163,-0.579 0.585,-1.1 -0.167,-1.342 z m 60.975,-99.531 c 0.316,-0.038 0.369,0.19 0.669,0.169 0.076,0.524 -0.357,0.536 -0.837,0.503 -0.012,-0.293 0.038,-0.523 0.168,-0.672 m -33.96,9.568 c 0.041,-0.24 0.277,-0.284 0.335,-0.504 0.665,-0.107 0.903,0.213 1.172,0.504 -0.053,0.95 -1.487,1.062 -1.507,0 m -2.173,11.244 c 0.019,-0.426 0.243,-0.65 0.668,-0.67 0.536,0.022 0.737,0.379 0.669,1.007 -0.321,0.274 -1.395,0.283 -1.337,-0.337 m 64.905,1.846 c 0.243,0.093 0.866,-0.195 0.836,0.169 -0.249,0.266 -0.683,0.123 -0.836,-0.169 m 6.357,0.505 c 0.114,-0.131 0.997,-0.437 0.836,0.167 -0.069,0.373 -0.916,0.161 -0.836,-0.167 m -78.289,1.006 c -0.47,-3.537 5.768,-2.771 3.848,1.008 -1.471,1.073 -3.625,0.672 -3.848,-1.008 m 4.016,4.7 c 0.795,-0.815 2.396,-0.007 1.672,1.175 -0.819,0.472 -2.067,0.11 -1.672,-1.175 m -4.016,2.517 c 0.195,-0.14 0.448,-0.22 0.837,-0.167 0.162,0.617 -0.822,0.667 -0.837,0.167 m 89.999,1.176 c 0.523,-0.078 0.747,0.146 0.67,0.671 h -0.67 z m -46.17,1.678 h 0.502 v 0.335 h -0.502 z m -7.862,0.168 h 0.334 v 0.335 h -0.334 z m 27.601,5.203 c -0.352,-0.4 0.164,-0.372 0.335,-1.007 0.481,0.02 1.095,-0.092 1.338,0.168 0.323,1.076 -1.23,1.343 -1.673,0.839 m 1.505,2.014 c 0.224,-0.239 0.948,-0.239 1.172,0 V 16.33 C 5.394,16.716 4.531,16.424 4.69,15.659 m -52.024,-5.034 c 0.754,0.196 1.715,1.324 1.84,1.678 1.252,3.562 -4.066,5.195 -7.026,3.524 -0.043,-3.271 2.002,-6.033 5.186,-5.202 m -8.867,8.895 c -0.527,-1.742 1.455,-3.733 3.18,-2.685 0.293,2.156 -1.382,3.18 -3.18,2.685 M 5.527,17.17 C 6.869,17.182 7.17,19.095 6.363,19.855 4.235,20.36 4.515,17.695 5.527,17.17 m -79.626,2.685 h 0.501 v 0.335 h -0.501 z m -23.253,1.176 c 0.563,-0.51 0.508,0.619 0,0 m 39.646,0.671 c -0.358,-1.538 2.262,-1.883 2.174,-0.336 -0.205,0.764 -1.619,0.862 -2.174,0.336 m -8.364,0 c 0.222,-0.219 0.623,-0.222 0.669,0.168 -0.222,0.218 -0.622,0.221 -0.669,-0.168 m 66.076,1.51 h 0.335 v 0.335 H 0.006 Z m -80.797,0.168 h 0.334 v 0.336 h -0.334 z m 89.33,1.175 c 0.987,-0.152 1.42,0.253 1.505,1.007 -0.13,0.037 -0.194,0.14 -0.167,0.336 -1.035,0.695 -2.183,-0.593 -1.338,-1.343 m -69.424,1.846 c -1.121,-1.567 1.557,-4.55 3.011,-2.518 -0.093,1.753 -1.688,1.999 -3.011,2.518 M 9.877,28.415 C 9.954,29.348 7.968,29.882 8.203,28.08 9.006,27.479 9.819,27.729 9.877,28.415 M -57.54,28.08 c 0.666,-0.108 0.905,0.213 1.173,0.503 0.008,1.253 -2.073,0.521 -1.173,-0.503 m 9.871,1.175 c 0.479,-0.033 0.914,-0.022 0.836,0.503 -0.024,0.367 -0.42,0.361 -0.836,0.336 -0.117,-0.517 -0.117,-0.323 0,-0.839 m 70.593,-5.036 c 0.311,-1.33 1.717,-2.779 2.343,-3.022 2.521,-0.974 4.179,0.91 3.513,3.022 -0.651,2.06 -3.179,3.728 -3.513,6.211 -0.239,0.039 -0.283,0.276 -0.502,0.335 -1.725,-0.176 -2.375,-4.253 -1.841,-6.546 m -11.375,6.378 c 0.01,0.289 -0.129,0.43 -0.334,0.504 -0.24,-0.245 -0.246,-0.65 0.334,-0.504 m -106.224,3.357 c -0.077,-0.525 0.357,-0.536 0.836,-0.503 0.102,0.764 -0.374,0.69 -0.836,0.503 M 2.684,32.107 C 2.781,28.675 8.144,28.09 8.706,31.101 9.284,34.198 6.722,35.138 5.026,34.793 3.45,34.474 2.642,33.542 2.684,32.107 M -10.7,35.632 c -0.05,-0.442 0.233,-0.551 0.67,-0.503 0.048,0.439 -0.061,0.722 -0.503,0.672 -0.009,-0.102 -0.024,-0.199 -0.167,-0.169 m -2.175,1.511 h 0.503 v 0.335 h -0.503 z m -51.69,3.525 c 0.516,-0.117 0.322,-0.117 0.836,0 0.106,0.891 -0.896,0.718 -0.836,0 m 20.409,0.335 c 0.735,-0.065 1.133,0.207 1.171,0.84 -0.67,0 -1.25,-0.089 -1.171,-0.84 m -7.193,-1.174 c 0.608,-2.091 4.536,-1.38 5.018,0.671 -0.485,3.046 -6.033,2.82 -5.018,-0.671 m -25.093,7.049 c 0.008,-0.507 1.366,-0.521 1.172,0.168 -0.009,0.507 -1.367,0.521 -1.172,-0.168 M 19.639,38.354 19.412,38.15 c 2.602,-1.017 5.388,-4.163 8.531,-4.868 0.724,-0.161 1.63,-0.336 2.51,-0.167 2.751,0.527 5.547,7.044 5.018,10.741 -0.564,3.94 -6.487,7.505 -8.698,3.022 1.623,-1.857 6.373,-3.31 6.69,-6.21 0.202,-1.843 -1.387,-4.543 -2.174,-5.204 -2.523,-2.114 -5.159,-0.251 -7.36,1.008 -1.488,0.85 -2.906,1.721 -4.349,2.182 z M -88.82,51.243 c 0.591,-0.092 0.861,0.141 1.003,0.503 -0.131,0.036 -0.195,0.141 -0.167,0.335 h -0.836 c -0.118,-0.517 -0.118,-0.322 0,-0.838 m -0.334,6.881 h 0.835 c 0.263,1.04 -1.1,1.04 -0.835,0 m -14.722,2.685 c -0.031,0.248 -0.404,0.153 -0.669,0.168 -0.357,-0.617 0.851,-0.757 0.669,-0.168 m -15.558,5.371 c 0.168,0.56 -0.232,0.55 -0.669,0.504 -0.05,-0.442 0.232,-0.552 0.669,-0.504 m 14.554,4.532 c 0.172,2.503 -3.907,3.228 -4.517,1.006 -0.772,-2.817 2.156,-2.801 3.347,-3.188 0.357,1.37 1.095,1.091 1.17,2.182 m -35.631,14.602 c -0.364,2.37 2.504,1.623 2.342,0.336 -0.115,-0.909 -1.562,-1.242 -2.342,-0.336"
             style="fill:#262626;fill-opacity:1;fill-rule:nonzero;stroke:none"
             id="path118"
             inkscape:connector-curvature="0" />
        </g>
      </g>
    </g>
  </g>
</svg>
