<?xml version="1.0" encoding="UTF-8" standalone="no"?>
<!-- Created with Inkscape (http://www.inkscape.org/) -->

<svg
   xmlns:dc="http://purl.org/dc/elements/1.1/"
   xmlns:cc="http://creativecommons.org/ns#"
   xmlns:rdf="http://www.w3.org/1999/02/22-rdf-syntax-ns#"
   xmlns:svg="http://www.w3.org/2000/svg"
   xmlns="http://www.w3.org/2000/svg"
   xmlns:sodipodi="http://sodipodi.sourceforge.net/DTD/sodipodi-0.dtd"
   xmlns:inkscape="http://www.inkscape.org/namespaces/inkscape"
   width="64.793556mm"
   height="37.698479mm"
   viewBox="0 0 64.793556 37.698479"
   version="1.1"
   id="svg4295"
   inkscape:version="0.92.2 2405546, 2018-03-11"
   sodipodi:docname="paint-big07.svg">
  <defs
     id="defs4289">
    <clipPath
       clipPathUnits="userSpaceOnUse"
       id="clipPath78">
      <path
         d="M 0,600 H 600 V 0 H 0 Z"
         id="path76"
         inkscape:connector-curvature="0" />
    </clipPath>
  </defs>
  <sodipodi:namedview
     id="base"
     pagecolor="#ffffff"
     bordercolor="#666666"
     borderopacity="1.0"
     inkscape:pageopacity="0.0"
     inkscape:pageshadow="2"
     inkscape:zoom="0.35"
     inkscape:cx="8.5714284"
     inkscape:cy="559.99999"
     inkscape:document-units="mm"
     inkscape:current-layer="layer1"
     showgrid="false"
     inkscape:window-width="3840"
     inkscape:window-height="2095"
     inkscape:window-x="0"
     inkscape:window-y="0"
     inkscape:window-maximized="1" />
  <metadata
     id="metadata4292">
    <rdf:RDF>
      <cc:Work
         rdf:about="">
        <dc:format>image/svg+xml</dc:format>
        <dc:type
           rdf:resource="http://purl.org/dc/dcmitype/StillImage" />
        <dc:title></dc:title>
      </cc:Work>
    </rdf:RDF>
  </metadata>
  <g
     inkscape:label="Layer 1"
     inkscape:groupmode="layer"
     id="layer1"
     transform="translate(-4.6523762e-8,-259.30152)">
    <g
       transform="matrix(0.35277777,0,0,-0.35277777,-3.5277782,358.68025)"
       id="g72">
      <g
         id="g74"
         clip-path="url(#clipPath78)">
        <g
           id="g80"
           transform="translate(41.0864,201.9775)">
          <path
             d="m 0,0 -1.671,-0.566 c -0.6,-0.225 -1.221,-0.457 -1.841,-0.609 -0.083,-0.02 -0.134,-0.105 -0.113,-0.188 0.021,-0.083 0.104,-0.134 0.187,-0.115 0.638,0.158 1.267,0.393 1.875,0.62 L 0.081,-0.3 c 0.081,0.028 0.134,0.118 0.106,0.2 C 0.16,-0.019 0.081,0.027 0,0 M -4.813,-1.601 -6.476,-2.05 -6.759,-2.122 c -0.066,-0.016 -0.106,-0.083 -0.089,-0.149 0.017,-0.064 0.083,-0.104 0.148,-0.087 l 0.283,0.07 1.676,0.453 c 0.066,0.017 0.1,0.084 0.082,0.149 -0.018,0.065 -0.089,0.103 -0.154,0.085 m -3.523,-0.792 -0.27,-0.061 -1.408,-0.285 c -0.108,-0.022 -0.188,-0.129 -0.166,-0.239 0.022,-0.108 0.117,-0.178 0.226,-0.158 l 1.436,0.291 0.27,0.061 c 0.108,0.024 0.176,0.133 0.151,0.24 -0.024,0.107 -0.131,0.177 -0.239,0.151 m -5.208,-1.001 -1.228,-0.23 c -3.031,-0.567 -6.166,-1.154 -9.303,-1.553 -0.133,-0.016 -0.227,-0.139 -0.21,-0.272 0.016,-0.135 0.138,-0.228 0.271,-0.211 3.152,0.4 6.293,0.988 9.331,1.557 l 1.228,0.23 c 0.132,0.024 0.219,0.152 0.194,0.284 -0.024,0.133 -0.151,0.22 -0.283,0.195 M 2.93,1.289 2.488,1.1 C 2.528,1.117 2.569,1.097 2.586,1.057 2.604,1.016 2.58,0.969 2.54,0.951 L 3.009,1.153 C 3.049,1.171 3.059,1.212 3.042,1.252 3.024,1.292 2.97,1.307 2.93,1.289 m 59.666,20.668 c -0.018,-0.036 0.008,-0.082 0.044,-0.102 l 0.5,-0.251 c -0.036,0.019 -0.04,0.055 -0.023,0.093 0.018,0.036 0.071,0.044 0.107,0.026 l -0.541,0.273 c -0.036,0.017 -0.069,-10e-4 -0.087,-0.039 m 12.819,-0.982 c -1.609,-0.054 -3.122,-0.49 -4.585,-0.909 l -0.27,-0.079 c -0.084,-0.024 -0.133,-0.112 -0.109,-0.196 0.024,-0.085 0.112,-0.133 0.196,-0.109 l 0.27,0.078 c 1.445,0.415 2.939,0.844 4.508,0.896 0.087,0.004 0.156,0.076 0.153,0.164 -0.002,0.088 -0.076,0.158 -0.163,0.155 m 10.028,-0.593 c -0.013,-0.072 0.011,-0.137 0.083,-0.151 l 0.366,-0.069 c 0.148,-0.013 0.276,-0.023 0.38,-0.106 0.059,-0.045 0.144,-0.036 0.19,0.022 0.046,0.059 0.036,0.144 -0.023,0.19 -0.168,0.132 -0.356,0.148 -0.525,0.164 l -0.29,0.051 c -0.073,0.013 -0.167,-0.028 -0.181,-0.101 m -2.648,0.403 c -0.055,-0.025 -0.08,-0.091 -0.055,-0.146 0.025,-0.056 0.091,-0.081 0.146,-0.056 0.195,0.088 0.404,0.056 0.623,0.021 l 0.517,-0.029 c 0.061,-0.004 0.093,0.041 0.097,0.103 0.003,0.06 -0.064,0.112 -0.124,0.116 l -0.455,0.029 c -0.243,0.039 -0.493,0.078 -0.749,-0.038 m -6.082,0.254 c -0.051,-0.005 -0.089,-0.05 -0.085,-0.101 0.005,-0.052 0.05,-0.09 0.102,-0.085 1.625,0.145 3.333,0.25 4.781,-0.193 0.051,-0.015 0.102,0.012 0.117,0.062 0.016,0.05 -0.012,0.102 -0.061,0.117 -1.481,0.454 -3.21,0.349 -4.854,0.2 m -19.057,3.748 -0.593,-0.196 c -0.286,-0.076 -0.581,-0.155 -0.854,-0.333 -0.061,-0.042 -0.078,-0.124 -0.038,-0.186 0.041,-0.06 0.122,-0.078 0.183,-0.037 0.237,0.154 0.5,0.226 0.777,0.299 l 0.64,0.215 c 0.07,0.023 0.091,0.092 0.068,0.161 -0.022,0.069 -0.113,0.102 -0.183,0.077 m 0.18,-0.829 -0.082,-0.004 -0.475,-0.068 c -0.076,-0.011 -0.103,-0.075 -0.093,-0.152 0.011,-0.076 0.106,-0.124 0.181,-0.113 l 0.399,0.054 0.086,0.006 c 0.076,0.003 0.135,0.068 0.131,0.145 -0.004,0.076 -0.07,0.137 -0.147,0.132 m -1.029,-0.129 c -0.076,-0.014 -0.153,-0.087 -0.142,-0.163 0.013,-0.077 0.058,-0.13 0.134,-0.117 l 0.43,0.069 c -0.075,-0.012 -0.16,0.036 -0.173,0.112 -0.013,0.078 0.026,0.146 0.101,0.159 z M 38.155,29.694 37.187,29.55 35.412,29.256 c -0.106,-0.017 -0.168,-0.115 -0.151,-0.222 0.016,-0.105 0.126,-0.176 0.232,-0.158 l 1.748,0.288 0.976,0.145 c 0.106,0.015 0.176,0.114 0.16,0.221 -0.014,0.107 -0.116,0.179 -0.222,0.164 m 27.622,-2.593 -0.08,-0.006 c -0.155,-0.014 -0.313,-0.029 -0.477,-0.139 -0.038,-0.024 -0.048,-0.075 -0.022,-0.113 0.025,-0.037 0.075,-0.047 0.113,-0.022 0.128,0.087 0.26,0.098 0.399,0.109 l 0.084,0.008 c 0.045,0.003 0.077,0.043 0.073,0.088 -0.004,0.045 -0.045,0.078 -0.09,0.075 m -8.378,3.239 c -0.03,-0.03 -0.03,-0.079 0,-0.11 l 0.26,-0.26 c 0.031,-0.031 0.078,-0.031 0.11,0 0.03,0.029 0.03,0.078 0,0.108 l -0.26,0.262 c -0.03,0.03 -0.079,0.03 -0.11,0 m 32.947,1.908 c -0.432,-0.09 -0.865,-0.116 -1.324,-0.144 l -0.87,-0.071 c -0.123,-0.011 -0.207,-0.118 -0.198,-0.242 0.011,-0.124 0.128,-0.217 0.252,-0.207 l 0.844,0.069 c 0.454,0.029 0.924,0.057 1.387,0.153 0.122,0.024 0.2,0.144 0.175,0.266 -0.025,0.122 -0.144,0.201 -0.266,0.176 m -6.398,-3.291 c -0.036,-0.107 0.021,-0.224 0.129,-0.262 l 0.261,-0.087 c -0.108,0.037 -0.167,0.154 -0.13,0.262 0.035,0.108 0.152,0.166 0.26,0.13 l -0.26,0.088 c -0.108,0.036 -0.225,-0.023 -0.26,-0.131 m -23.805,1.657 c -0.038,-0.024 -0.048,-0.075 -0.023,-0.113 0.025,-0.038 0.076,-0.048 0.112,-0.022 0.228,0.149 0.432,0.09 0.51,0.057 0.042,-0.016 0.089,0.002 0.107,0.044 0.017,0.042 -0.002,0.089 -0.043,0.108 -0.102,0.041 -0.37,0.12 -0.663,-0.074 m -2.428,0.112 c -0.027,-0.072 0.007,-0.151 0.079,-0.179 0.234,-0.09 0.472,-0.082 0.703,-0.073 0.214,0.008 0.417,0.015 0.598,-0.057 0.072,-0.028 0.153,0.008 0.179,0.078 0.029,0.072 -0.006,0.153 -0.077,0.181 -0.236,0.094 -0.477,0.085 -0.71,0.075 -0.212,-0.006 -0.413,-0.014 -0.593,0.056 -0.072,0.027 -0.151,-0.008 -0.179,-0.081 m -7.487,11.026 c -0.067,-0.017 -0.109,-0.082 -0.094,-0.15 0.107,-0.459 0.393,-0.773 0.784,-0.858 0.066,-0.015 0.133,0.027 0.148,0.094 0.014,0.068 -0.027,0.135 -0.095,0.15 -0.402,0.089 -0.544,0.458 -0.593,0.67 -0.016,0.069 -0.083,0.11 -0.15,0.094 m 51.261,-0.242 c -1.618,-1.88 -3.773,-3.353 -5.859,-4.664 -0.088,-0.056 -0.115,-0.172 -0.06,-0.261 0.055,-0.088 0.171,-0.114 0.259,-0.059 2.112,1.328 4.294,2.82 5.944,4.739 0.069,0.079 0.06,0.197 -0.018,0.266 -0.08,0.068 -0.197,0.06 -0.266,-0.021 m -10.761,-7.321 -0.121,-0.03 -0.569,-0.202 c -0.109,-0.038 -0.143,-0.149 -0.104,-0.259 0.039,-0.109 0.182,-0.157 0.291,-0.119 l 0.485,0.17 0.126,0.033 c 0.113,0.03 0.178,0.144 0.149,0.256 -0.029,0.112 -0.145,0.181 -0.257,0.151 m 13.2,9.954 c -0.018,-0.219 -0.155,-0.382 -0.302,-0.554 -0.147,-0.176 -0.298,-0.356 -0.348,-0.608 -0.014,-0.073 0.034,-0.144 0.107,-0.158 0.073,-0.013 0.143,0.033 0.157,0.106 0.037,0.183 0.159,0.331 0.291,0.485 0.158,0.19 0.338,0.402 0.362,0.706 0.007,0.075 -0.048,0.139 -0.123,0.145 -0.073,0.006 -0.138,-0.049 -0.144,-0.122 M 91.773,42.281 91.486,42.217 91.392,42.196 c -0.11,-0.022 -0.18,-0.131 -0.156,-0.24 0.022,-0.109 0.13,-0.181 0.24,-0.158 l 0.092,0.021 0.307,0.069 c 0.109,0.025 0.17,0.132 0.146,0.243 -0.024,0.108 -0.14,0.175 -0.248,0.15 m -46.505,2.296 c -0.029,-0.043 -0.019,-0.101 0.024,-0.132 0.53,-0.369 1.168,-0.627 1.778,-0.86 0.049,-0.019 0.105,0.006 0.123,0.055 0.018,0.049 -0.006,0.106 -0.055,0.123 -0.598,0.228 -1.225,0.481 -1.738,0.838 -0.042,0.029 -0.102,0.02 -0.132,-0.024 m 42.42,2.625 c -0.012,-0.128 0.08,-0.241 0.208,-0.254 1.202,-0.12 2.429,-0.134 3.616,-0.146 l 2.642,-0.073 c 0.127,-0.002 0.24,0.098 0.244,0.226 0.004,0.128 -0.089,0.234 -0.217,0.238 l -2.663,0.072 c -1.177,0.013 -2.395,0.027 -3.577,0.144 -0.127,0.014 -0.24,-0.08 -0.253,-0.207 m 9.898,-0.823 -1.78,-0.584 C 94.252,45.3 92.645,44.786 91.193,44.021 91.146,43.996 91.127,43.938 91.152,43.89 c 0.025,-0.047 0.084,-0.065 0.131,-0.04 1.437,0.755 3.035,1.266 4.582,1.76 l 1.783,0.585 c 0.051,0.016 0.078,0.071 0.06,0.121 -0.015,0.052 -0.072,0.079 -0.122,0.063 m 6.08,-1.77 c -3.74,-0.153 -8.078,-0.352 -12.248,-0.783 -0.084,-0.009 -0.145,-0.084 -0.136,-0.167 0.009,-0.085 0.083,-0.145 0.167,-0.137 4.161,0.429 8.494,0.629 12.229,0.783 0.084,0.004 0.149,0.075 0.145,0.159 -0.003,0.084 -0.074,0.149 -0.157,0.145 m 1.134,3.902 c -0.231,-0.143 -0.39,-0.304 -0.485,-0.49 -0.021,-0.04 -0.005,-0.088 0.036,-0.11 0.04,-0.02 0.088,-0.004 0.108,0.036 0.083,0.161 0.217,0.296 0.426,0.425 0.038,0.024 0.05,0.074 0.027,0.112 -0.024,0.038 -0.074,0.05 -0.112,0.027 m -64.501,-2.74 c -0.039,-0.056 -0.028,-0.132 0.028,-0.172 0.408,-0.294 0.75,-0.666 1.081,-1.028 0.345,-0.377 0.702,-0.767 1.134,-1.063 0.057,-0.04 0.133,-0.026 0.171,0.032 0.039,0.056 0.024,0.132 -0.031,0.171 -0.41,0.28 -0.742,0.643 -1.093,1.027 -0.339,0.369 -0.69,0.753 -1.118,1.062 -0.056,0.04 -0.132,0.026 -0.172,-0.029 m 3.35,-3.332 c -0.04,-0.04 -0.041,-0.103 -0.002,-0.14 l 2.603,-2.61 2.734,-2.746 c 0.039,-0.04 0.104,-0.042 0.142,-0.002 0.04,0.038 0.041,0.101 0.002,0.141 l -2.737,2.751 -2.6,2.605 c -0.04,0.038 -0.104,0.039 -0.142,10e-4 m 3.136,-8.784 c -0.022,-0.032 -0.013,-0.076 0.019,-0.099 0.296,-0.196 0.56,-0.459 0.763,-0.763 0.02,-0.032 0.064,-0.04 0.096,-0.019 0.032,0.021 0.042,0.066 0.02,0.098 -0.213,0.318 -0.489,0.595 -0.801,0.803 -0.033,0.021 -0.076,0.013 -0.097,-0.02 m -6.897,6.544 c -0.029,-0.031 -0.031,-0.076 0,-0.105 l 0.472,-0.436 c 0.276,-0.239 0.56,-0.484 0.755,-0.793 0.023,-0.035 0.07,-0.046 0.106,-0.023 0.036,0.022 0.045,0.069 0.024,0.105 -0.209,0.328 -0.502,0.58 -0.785,0.826 L 39.999,40.2 c -0.032,0.029 -0.082,0.03 -0.111,-0.001 m 13.93,-2.693 c -0.056,-0.03 -0.072,-0.11 -0.042,-0.165 l 0.275,-0.507 c 0.157,-0.318 0.318,-0.648 0.592,-0.889 0.049,-0.042 0.122,-0.038 0.164,0.012 0.042,0.047 0.037,0.12 -0.011,0.162 -0.24,0.211 -0.383,0.506 -0.537,0.819 l -0.288,0.53 c -0.032,0.056 -0.096,0.068 -0.153,0.038 m 1.21,0.024 c -0.07,-0.009 -0.119,-0.073 -0.11,-0.143 0.035,-0.244 0.157,-0.413 0.276,-0.577 l 0.191,-0.307 c 0.037,-0.06 0.124,-0.094 0.183,-0.056 0.059,0.037 0.086,0.101 0.049,0.16 l -0.218,0.353 c -0.108,0.15 -0.204,0.28 -0.228,0.461 -0.009,0.069 -0.073,0.119 -0.143,0.109 m -5.232,-1.125 c -0.024,-0.022 -0.027,-0.061 -0.004,-0.087 0.376,-0.424 0.824,-0.805 1.256,-1.172 0.523,-0.443 1.063,-0.9 1.475,-1.436 0.02,-0.028 0.059,-0.032 0.086,-0.012 0.027,0.021 0.032,0.059 0.012,0.085 -0.421,0.548 -0.966,1.011 -1.494,1.457 -0.428,0.364 -0.874,0.741 -1.244,1.159 -0.022,0.028 -0.061,0.03 -0.087,0.006 m -9.315,9.978 c -0.089,-0.027 -0.14,-0.12 -0.113,-0.21 0.026,-0.089 0.12,-0.141 0.209,-0.113 0.369,0.109 0.776,-0.205 1.014,-0.506 l 0.056,-0.074 0.374,0.034 0.443,0.016 c 0.094,0.004 0.189,0.082 0.186,0.174 -0.004,0.094 -0.058,0.166 -0.151,0.163 l -0.513,-0.018 c 0,0 -0.117,-0.009 -0.195,-0.016 -0.321,0.374 -0.812,0.698 -1.31,0.55 m 43.872,10.188 c -0.089,-0.082 -0.095,-0.221 -0.013,-0.308 0.357,-0.39 0.795,-0.674 1.25,-0.954 0.103,-0.064 0.238,-0.032 0.301,0.072 0.063,0.102 0.031,0.237 -0.072,0.302 -0.428,0.262 -0.839,0.528 -1.158,0.876 -0.081,0.088 -0.22,0.094 -0.308,0.012 m -2.989,0.861 c -0.058,-0.025 -0.088,-0.091 -0.063,-0.15 l 0.079,-0.193 c 0.341,-0.325 0.747,-0.239 1.102,-0.138 0.062,0.018 0.097,0.081 0.079,0.144 -0.017,0.061 -0.081,0.097 -0.143,0.08 -0.306,-0.09 -0.625,-0.155 -0.848,0.046 -10e-4,0.018 -0.054,0.145 -0.054,0.145 -0.024,0.06 -0.093,0.09 -0.152,0.066 M 48.701,26.556 c -0.032,-0.016 -0.045,-0.057 -0.029,-0.088 0.326,-0.648 0.902,-1.103 1.457,-1.543 l 0.383,-0.308 c 0.029,-0.022 0.07,-0.017 0.092,0.01 0.023,0.028 0.02,0.069 -0.009,0.092 l -0.385,0.309 c -0.544,0.432 -1.107,0.877 -1.42,1.499 -0.017,0.033 -0.057,0.045 -0.089,0.029 m 6.252,0.385 c -0.031,-0.015 -0.042,-0.05 -0.026,-0.08 0.161,-0.306 0.441,-0.502 0.711,-0.689 l 0.471,-0.37 c 0.025,-0.021 0.069,-0.022 0.09,0.005 0.02,0.026 0.021,0.058 -0.004,0.079 l -0.489,0.386 c -0.27,0.187 -0.525,0.365 -0.672,0.645 -0.016,0.03 -0.053,0.04 -0.081,0.024 m 0.75,-2.804 -0.22,-0.057 C 55.325,24.053 55.128,24.02 55,23.83 c -0.042,-0.061 -0.027,-0.145 0.035,-0.188 0.061,-0.041 0.144,-0.026 0.186,0.037 0.061,0.09 0.156,0.109 0.307,0.135 l 0.291,0.08 c 0.072,0.02 0.09,0.085 0.071,0.156 -0.019,0.07 -0.116,0.105 -0.187,0.087 m -3.367,-0.952 c -1.205,-0.289 -2.319,-0.624 -3.499,-0.981 l -0.806,-0.242 c -0.093,-0.027 -0.145,-0.125 -0.118,-0.218 0.027,-0.092 0.125,-0.144 0.216,-0.116 l 0.809,0.241 c 1.175,0.355 2.284,0.69 3.479,0.976 0.093,0.022 0.151,0.115 0.128,0.209 -0.022,0.094 -0.116,0.153 -0.209,0.131 M 37.12,19.553 36.662,19.495 c -1.244,-0.16 -2.531,-0.326 -3.795,-0.203 -0.108,0.011 -0.204,-0.069 -0.216,-0.179 -0.01,-0.108 0.07,-0.204 0.178,-0.215 1.308,-0.128 2.617,0.04 3.883,0.204 l 0.456,0.059 c 0.109,0.013 0.186,0.112 0.171,0.22 -0.013,0.109 -0.111,0.185 -0.219,0.172 m 6.242,1.128 -2.088,-0.415 c -0.971,-0.211 -1.975,-0.429 -2.98,-0.541 -0.106,-0.013 -0.183,-0.109 -0.171,-0.216 0.011,-0.108 0.107,-0.184 0.215,-0.172 1.023,0.115 2.038,0.335 3.019,0.547 l 2.067,0.413 c 0.106,0.02 0.18,0.124 0.16,0.228 -0.021,0.108 -0.116,0.177 -0.222,0.156 m 13.277,-9.138 c -0.036,-0.019 -0.052,-0.064 -0.033,-0.102 0.11,-0.219 0.303,-0.33 0.49,-0.436 l 0.186,-0.114 c 0.034,-0.023 0.084,-0.012 0.105,0.023 0.022,0.036 0.013,0.08 -0.021,0.101 l -0.197,0.119 c -0.173,0.101 -0.34,0.195 -0.43,0.376 -0.018,0.036 -0.063,0.052 -0.1,0.033 M 55.383,8.216 C 49.361,5.599 43.424,2.494 37.682,-0.509 L 29.89,-4.535 c -0.123,-0.063 -0.174,-0.216 -0.11,-0.339 0.064,-0.124 0.212,-0.174 0.335,-0.11 l 7.798,4.031 c 5.734,2.997 11.665,6.098 17.669,8.707 0.127,0.056 0.184,0.204 0.129,0.331 -0.054,0.128 -0.201,0.186 -0.328,0.131 m 5.674,14.68 c -0.032,-0.022 -0.038,-0.067 -0.015,-0.099 0.124,-0.164 0.296,-0.25 0.464,-0.334 l 0.327,-0.198 c 0.034,-0.022 0.087,-0.018 0.107,0.015 0.021,0.033 0.02,0.07 -0.013,0.09 l -0.359,0.221 c -0.158,0.079 -0.309,0.153 -0.412,0.291 -0.024,0.032 -0.067,0.038 -0.099,0.014 m 16.745,3.558 c -0.012,-0.051 0.037,-0.103 0.087,-0.117 l 0.542,-0.134 0.422,-0.126 c 0.049,-0.014 0.093,0.017 0.106,0.067 0.016,0.048 -0.022,0.104 -0.072,0.12 l -0.393,0.117 -0.596,0.144 c -0.05,0.013 -0.084,-0.022 -0.096,-0.071 m 10.413,1.4 C 88.172,27.745 88.201,27.632 88.31,27.59 l 0.595,-0.235 0.48,-0.178 c 0.111,-0.041 0.253,0.005 0.295,0.115 0.041,0.112 0.006,0.226 -0.105,0.267 l -0.542,0.205 -0.517,0.201 c -0.11,0.041 -0.259,0 -0.301,-0.111 m 5.171,2.875 c -0.019,-0.075 0.022,-0.169 0.096,-0.188 0.076,-0.02 0.145,0.006 0.164,0.083 l 0.074,0.292 c -0.019,-0.076 -0.098,-0.133 -0.173,-0.113 -0.075,0.018 -0.123,0.083 -0.104,0.158 z m 17.477,10.997 c -0.018,-0.127 0.07,-0.245 0.196,-0.263 1.305,-0.187 2.637,-0.303 3.925,-0.412 l 0.774,-0.069 c 0.128,-0.01 0.24,0.084 0.25,0.212 0.012,0.127 -0.082,0.24 -0.209,0.25 l -0.774,0.068 c -1.282,0.11 -2.608,0.223 -3.9,0.411 -0.126,0.017 -0.244,-0.07 -0.262,-0.197 m -1.229,6.609 c -0.108,-0.014 -0.186,-0.114 -0.172,-0.224 0.015,-0.109 0.115,-0.186 0.224,-0.173 5.416,0.702 10.988,0.438 16.375,0.182 2.691,-0.128 5.475,-0.26 8.204,-0.268 0.11,-10e-4 0.199,0.086 0.2,0.199 0,0.109 -0.089,0.198 -0.198,0.198 -2.721,0.011 -5.5,0.143 -8.187,0.27 -5.405,0.256 -10.994,0.522 -16.446,-0.184 m 31.354,0.53 c -0.747,-0.143 -1.52,-0.209 -2.268,-0.272 l -1.889,-0.204 c -0.14,-0.016 -0.229,-0.14 -0.214,-0.28 0.015,-0.139 0.152,-0.238 0.291,-0.223 l 1.855,0.2 c 0.76,0.064 1.547,0.131 2.32,0.28 0.137,0.027 0.228,0.16 0.201,0.298 -0.026,0.138 -0.159,0.229 -0.296,0.201 m -33.595,7.562 c -0.081,-0.03 -0.123,-0.119 -0.093,-0.201 0.571,-1.585 0.613,-3.533 0.124,-5.791 -0.018,-0.085 0.035,-0.169 0.119,-0.188 0.085,-0.018 0.167,0.036 0.186,0.121 0.501,2.317 0.457,4.323 -0.136,5.964 -0.029,0.081 -0.118,0.124 -0.2,0.095 m -5.208,3.065 c -0.018,-0.102 0.048,-0.199 0.149,-0.22 1.152,-0.214 2.356,-0.63 3.579,-1.239 0.092,-0.045 0.205,-0.008 0.25,0.085 0.046,0.093 0.009,0.205 -0.084,0.252 -1.253,0.622 -2.49,1.051 -3.676,1.272 -0.101,0.02 -0.199,-0.048 -0.218,-0.15 m -3.342,0.466 C 93.61,59.597 87.07,58.508 84.412,56.532 84.343,56.481 84.33,56.387 84.379,56.32 c 0.05,-0.067 0.145,-0.082 0.212,-0.031 2.606,1.936 9.081,3.008 14.273,3.366 0.083,0.006 0.146,0.078 0.141,0.161 -0.007,0.083 -0.079,0.148 -0.162,0.142 M 83.622,56.739 c -0.182,0 -0.329,-0.146 -0.329,-0.33 0,-0.181 0.147,-0.329 0.329,-0.329 h 0.879 c 0.181,0 0.329,0.148 0.329,0.329 0,0.184 -0.148,0.33 -0.329,0.33 z m -1.336,0.389 c -0.036,-0.093 -0.008,-0.187 0.083,-0.222 l 0.433,-0.17 c 0.283,-0.091 0.526,-0.171 0.666,-0.416 0.05,-0.085 0.158,-0.113 0.243,-0.063 0.085,0.049 0.113,0.156 0.065,0.241 -0.209,0.362 -0.557,0.476 -0.865,0.576 l -0.379,0.147 c -0.091,0.035 -0.213,-0.003 -0.246,-0.093 m -0.922,0.296 c -0.054,-0.026 -0.079,-0.09 -0.054,-0.145 0.024,-0.054 0.088,-0.08 0.144,-0.053 0.196,0.087 0.425,0.036 0.647,-0.014 0,0 0.074,-0.016 0.118,-0.025 0.047,-0.061 0.15,-0.196 0.15,-0.196 -0.037,0.047 -0.033,0.122 0.015,0.158 0.048,0.037 0.111,0.034 0.148,-0.013 l -0.18,0.232 -0.051,0.025 -0.154,0.032 c -0.243,0.055 -0.52,0.117 -0.783,-10e-4 m -6.988,0.621 c -0.072,-0.002 -0.13,-0.061 -0.129,-0.136 0.001,-0.071 0.061,-0.13 0.133,-0.129 2.471,0.035 4.828,-0.162 7.004,-0.585 0.071,-0.014 0.139,0.033 0.154,0.104 0.014,0.071 -0.032,0.141 -0.104,0.154 -2.194,0.428 -4.568,0.627 -7.058,0.592 M 72.673,57.888 C 65.496,56.997 59.261,54.814 54.14,51.404 c -0.05,-0.032 -0.063,-0.098 -0.031,-0.148 0.034,-0.05 0.099,-0.063 0.149,-0.03 5.094,3.391 11.298,5.56 18.441,6.45 0.059,0.006 0.101,0.06 0.093,0.118 -0.006,0.06 -0.061,0.102 -0.119,0.094 M 50.255,46.636 c -0.125,-0.963 0.293,-2.09 1.308,-2.28 0.093,-0.017 0.182,0.043 0.199,0.136 0.017,0.092 -0.044,0.182 -0.136,0.198 -0.812,0.153 -1.139,1.094 -1.035,1.901 0.013,0.094 -0.052,0.179 -0.145,0.19 -0.093,0.013 -0.178,-0.053 -0.191,-0.145 m 33.308,9.84 -1.03,-0.795 c -0.804,-0.577 -1.635,-1.173 -2.051,-2.109 -0.021,-0.045 0,-0.096 0.045,-0.116 0.044,-0.02 0.096,0 0.116,0.044 0.397,0.893 1.208,1.475 1.993,2.038 l 1.045,0.806 c 0.037,0.03 0.04,0.081 0.011,0.12 -0.029,0.038 -0.089,0.042 -0.129,0.012 m -13.5,-9.815 c -0.098,-0.011 -0.168,-0.1 -0.158,-0.197 0.01,-0.099 0.098,-0.17 0.196,-0.16 5.712,0.612 11.135,0.815 16.117,0.61 0.098,-0.004 0.181,0.071 0.185,0.171 0.005,0.098 -0.071,0.183 -0.17,0.186 -5,0.208 -10.441,0.002 -16.17,-0.61 m 9.588,-6.188 c -0.512,-0.131 -1.042,-0.267 -1.569,-0.29 -0.092,-0.004 -0.163,-0.082 -0.16,-0.174 0.004,-0.091 0.082,-0.163 0.174,-0.159 0.563,0.024 1.109,0.164 1.638,0.3 0.615,0.158 1.198,0.308 1.799,0.288 0.092,-0.003 0.169,0.069 0.172,0.161 0.003,0.091 -0.069,0.17 -0.161,0.172 -0.649,0.022 -1.282,-0.141 -1.893,-0.298 M 73.354,39.572 C 73.311,39.546 73.301,39.483 73.328,39.44 l 0.071,-0.116 0.227,-0.306 0.029,0.011 c 1.629,-0.123 3.539,-0.204 5.361,0.114 0.049,0.007 0.083,0.055 0.074,0.105 -0.008,0.051 -0.056,0.084 -0.106,0.075 -1.788,-0.31 -3.667,-0.231 -5.277,-0.113 -0.025,0.034 -0.149,0.205 -0.149,0.205 l -0.081,0.134 c -0.027,0.043 -0.081,0.051 -0.123,0.023 m 2.943,-3.504 c -0.013,-0.037 -0.113,-0.096 -0.25,-0.129 -0.056,-0.012 -0.091,-0.069 -0.078,-0.126 0.013,-0.057 0.069,-0.092 0.126,-0.08 0.101,0.025 0.34,0.096 0.4,0.263 0.02,0.055 -0.008,0.114 -0.062,0.135 -0.055,0.021 -0.115,-0.007 -0.136,-0.063 M 58.95,32.38 c -0.003,-0.109 0.083,-0.199 0.192,-0.202 0.372,-0.01 0.728,-0.118 1.105,-0.232 l 0.545,-0.155 c 0.106,-0.028 0.206,0.033 0.236,0.139 0.03,0.105 -0.039,0.215 -0.143,0.245 l -0.523,0.148 c -0.386,0.117 -0.786,0.239 -1.212,0.249 -0.108,0.003 -0.198,-0.084 -0.2,-0.192 m -3.513,6.043 c -0.022,-0.036 -0.01,-0.083 0.025,-0.105 l 1.216,-0.747 c 1.18,-0.739 2.402,-1.505 3.744,-2.002 0.039,-0.013 0.083,0.008 0.097,0.047 0.014,0.037 -0.007,0.081 -0.045,0.095 -1.328,0.492 -2.542,1.252 -3.717,1.987 l -1.217,0.751 c -0.036,0.022 -0.082,0.01 -0.103,-0.026 m -5.046,3.371 c -0.04,-0.008 -0.176,-0.066 -0.176,-0.066 -0.054,-0.024 -0.079,-0.084 -0.056,-0.139 0.023,-0.053 0.085,-0.079 0.139,-0.055 l 0.135,0.059 c 0.282,-0.006 0.575,-0.207 0.672,-0.499 0.019,-0.056 0.077,-0.085 0.133,-0.067 0.055,0.018 0.085,0.078 0.067,0.133 -0.127,0.379 -0.502,0.639 -0.914,0.634 m -2.299,1.514 c -0.05,-0.066 -0.032,-0.162 0.033,-0.213 l 1.276,-0.98 0.766,-0.603 c 0.063,-0.051 0.155,-0.038 0.205,0.027 0.051,0.065 0.039,0.159 -0.026,0.21 l -0.76,0.599 -1.291,0.991 c -0.064,0.049 -0.152,0.034 -0.203,-0.031 m -2.024,1.918 c -0.027,-0.034 -0.027,-0.079 0.005,-0.105 l 0.512,-0.435 c 0.267,-0.212 0.519,-0.414 0.719,-0.667 0.027,-0.035 0.074,-0.04 0.108,-0.014 0.033,0.026 0.039,0.076 0.013,0.109 -0.212,0.268 -0.483,0.484 -0.745,0.693 l -0.499,0.424 c -0.032,0.028 -0.085,0.027 -0.113,-0.005 m -6.829,4.962 c -0.027,-0.065 0.003,-0.139 0.07,-0.167 0.532,-0.218 0.987,-0.564 1.469,-0.929 0.472,-0.359 0.96,-0.728 1.524,-0.965 0.065,-0.027 0.14,0.003 0.169,0.068 0.027,0.067 -0.004,0.143 -0.07,0.169 -0.534,0.225 -1.008,0.586 -1.467,0.934 -0.474,0.358 -0.965,0.73 -1.527,0.961 -0.067,0.027 -0.141,-0.004 -0.168,-0.071 m -5.806,2.946 c -0.041,-0.11 0.011,-0.232 0.121,-0.273 1.801,-0.698 3.206,-1.361 4.42,-2.091 0.1,-0.06 0.228,-0.029 0.288,0.071 0.059,0.099 0.027,0.23 -0.073,0.289 -1.235,0.743 -2.66,1.418 -4.484,2.124 -0.109,0.041 -0.23,-0.012 -0.272,-0.12 m -0.602,-4.676 c -0.081,-0.01 -0.138,-0.082 -0.13,-0.164 0.01,-0.081 0.083,-0.139 0.164,-0.13 0.536,0.062 1.052,-0.072 1.599,-0.215 0.444,-0.115 0.901,-0.235 1.376,-0.243 0.081,-0.001 0.148,0.064 0.149,0.146 0.002,0.081 -0.062,0.148 -0.144,0.15 -0.439,0.008 -0.88,0.123 -1.306,0.233 -0.549,0.144 -1.118,0.291 -1.708,0.223 m -10.828,0.555 c -0.122,-0.022 -0.204,-0.14 -0.182,-0.262 0.021,-0.123 0.137,-0.205 0.26,-0.184 1.986,0.351 4.171,0.41 6.316,0.172 0.124,-0.012 0.235,0.076 0.248,0.201 0.013,0.123 -0.076,0.236 -0.198,0.248 -2.189,0.242 -4.416,0.18 -6.444,-0.175 m 11.626,-3.06 c -0.032,-0.035 -0.03,-0.089 0.006,-0.122 l 2.08,-1.896 c 1.097,-0.981 2.231,-1.995 3.254,-3.065 0.033,-0.035 0.088,-0.036 0.123,-0.003 0.035,0.033 0.036,0.09 0.003,0.125 -1.028,1.074 -2.165,2.091 -3.264,3.072 l -2.077,1.894 c -0.036,0.032 -0.092,0.03 -0.125,-0.005 m 7.175,-8.971 C 40.711,36.943 40.659,36.863 40.7,36.771 l 0.323,-0.749 c 0.164,-0.305 0.318,-0.594 0.322,-0.907 10e-4,-0.099 0.084,-0.181 0.184,-0.179 0.102,10e-4 0.182,0.084 0.181,0.185 -0.005,0.4 -0.188,0.744 -0.364,1.075 l -0.293,0.666 c -0.041,0.092 -0.157,0.162 -0.249,0.12 m -6.637,-7.872 -0.374,-0.085 -0.534,-0.13 c -0.131,-0.033 -0.157,-0.146 -0.126,-0.277 0.03,-0.132 0.215,-0.193 0.345,-0.165 l 0.37,0.084 0.544,0.136 c 0.13,0.032 0.155,0.144 0.125,0.274 -0.033,0.132 -0.218,0.194 -0.35,0.163 m -16.07,-6.104 -3.51,-0.86 C 8.188,20.562 1.57,18.923 -5.166,18.962 c -0.094,0.001 -0.171,-0.076 -0.171,-0.171 0,-0.095 0.075,-0.171 0.17,-0.172 6.777,-0.04 13.416,1.605 19.836,3.195 l 3.507,0.86 c 0.093,0.022 0.149,0.115 0.126,0.206 -0.022,0.092 -0.113,0.148 -0.205,0.126 M 26.07,33.18 c -0.108,-0.004 -0.191,-0.096 -0.187,-0.204 0.005,-0.108 0.096,-0.191 0.203,-0.187 0.68,0.031 1.376,-0.05 2.049,-0.126 0.603,-0.069 1.227,-0.14 1.85,-0.135 0.108,0 0.195,0.088 0.194,0.197 -10e-4,0.108 -0.089,0.195 -0.198,0.194 -0.598,-0.005 -1.21,0.065 -1.801,0.134 -0.689,0.078 -1.401,0.159 -2.11,0.127 m -12.686,1.623 c -0.019,-0.109 0.054,-0.211 0.162,-0.231 1.497,-0.258 3.037,-0.448 4.524,-0.631 1.939,-0.239 3.946,-0.486 5.885,-0.89 0.108,-0.023 0.212,0.047 0.234,0.154 0.023,0.108 -0.046,0.213 -0.153,0.235 -1.956,0.409 -3.97,0.657 -5.918,0.897 -1.483,0.184 -3.016,0.372 -4.504,0.629 -0.108,0.018 -0.211,-0.054 -0.23,-0.163 M 3.452,37.502 C 3.434,37.444 3.466,37.383 3.523,37.366 4.658,37.008 5.819,36.718 6.941,36.437 l 2.443,-0.64 c 0.058,-0.015 0.12,0.019 0.135,0.078 0.015,0.058 -0.018,0.116 -0.075,0.132 l -2.45,0.639 C 5.875,36.927 4.717,37.218 3.588,37.573 3.53,37.592 3.47,37.56 3.452,37.502 m -6.792,2.29 c -0.021,-0.069 0.019,-0.143 0.089,-0.163 1.214,-0.357 2.46,-0.812 3.665,-1.253 l 1.405,-0.508 c 0.069,-0.024 0.142,0.01 0.168,0.079 0.025,0.069 -0.01,0.144 -0.08,0.168 l -1.404,0.509 c -1.208,0.442 -2.458,0.899 -3.681,1.258 -0.07,0.02 -0.142,-0.019 -0.162,-0.09 m 11.449,-4.9 c -0.02,-0.074 0.024,-0.15 0.098,-0.17 0.357,-0.094 0.724,-0.081 1.08,-0.069 0.352,0.012 0.685,0.025 1.003,-0.061 0.073,-0.021 0.149,0.023 0.169,0.098 0.02,0.076 -0.024,0.151 -0.098,0.169 -0.359,0.097 -0.727,0.083 -1.083,0.072 C 8.926,34.918 8.594,34.907 8.277,34.99 8.203,35.011 8.128,34.966 8.109,34.892 M -8.113,32.947 c -4.588,-2.028 -8.458,-6.354 -6.994,-10.08 0.979,-2.491 3.926,-3.894 8.759,-4.168 0.086,-0.005 0.16,0.062 0.164,0.148 0.006,0.087 -0.06,0.16 -0.147,0.165 -4.701,0.266 -7.556,1.602 -8.486,3.969 -1.377,3.505 2.473,7.752 6.831,9.68 0.078,0.035 0.113,0.127 0.079,0.206 -0.035,0.079 -0.127,0.115 -0.206,0.08 m 116.417,-33.477 -0.319,-0.067 -0.322,-0.061 c -0.082,-0.015 -0.121,-0.091 -0.105,-0.173 0.016,-0.083 0.11,-0.133 0.193,-0.117 l 0.273,0.05 0.387,0.083 c 0.081,0.017 0.112,0.091 0.095,0.174 -0.018,0.082 -0.12,0.127 -0.202,0.111 m 32.727,12.817 c -0.017,-0.074 0.015,-0.143 0.09,-0.159 l 0.283,-0.063 0.065,-0.009 c 0.076,-0.01 0.149,0.044 0.159,0.119 0.01,0.075 -0.04,0.144 -0.115,0.155 l -0.073,0.01 -0.23,0.051 c -0.074,0.015 -0.164,-0.028 -0.179,-0.104 m -52.288,6.125 c -0.02,-0.082 0.033,-0.141 0.115,-0.162 0.082,-0.021 0.168,0.055 0.189,0.136 l 0.057,0.225 c -0.021,-0.082 -0.1,-0.12 -0.181,-0.099 -0.081,0.02 -0.128,0.114 -0.108,0.197 z m -0.109,18.382 c -0.036,-0.108 -0.153,-0.167 -0.259,-0.13 l 0.259,-0.088 c 0.108,-0.036 0.225,0.023 0.261,0.13 0.035,0.108 -0.022,0.224 -0.131,0.262 l -0.261,0.088 c 0.109,-0.036 0.167,-0.155 0.131,-0.262 m -17.009,2.655 c -0.083,-0.01 -0.141,-0.087 -0.131,-0.17 0.011,-0.084 0.087,-0.143 0.17,-0.133 0.207,0.027 0.411,-0.016 0.63,-0.06 l 0.664,-0.069 c 0.083,-0.01 0.13,0.05 0.139,0.133 0.009,0.083 -0.078,0.16 -0.161,0.169 l -0.582,0.067 c -0.231,0.047 -0.471,0.095 -0.729,0.063 m 32.764,12.907 -0.103,-0.047 -0.174,-0.092 c -0.069,-0.036 -0.081,-0.113 -0.046,-0.182 0.037,-0.07 0.137,-0.089 0.205,-0.054 l 0.134,0.069 0.111,0.053 c 0.071,0.033 0.098,0.116 0.064,0.189 -0.034,0.069 -0.121,0.099 -0.191,0.064 m 11.639,1.392 -0.072,-0.007 -0.282,-0.067 c -0.043,-0.011 -0.05,-0.046 -0.04,-0.091 0.01,-0.043 0.074,-0.064 0.118,-0.055 l 0.222,0.047 0.076,0.01 c 0.045,0.005 0.076,0.045 0.071,0.091 -0.006,0.046 -0.047,0.078 -0.093,0.072 m 6.145,5.321 c -0.027,-0.062 0.003,-0.135 0.067,-0.163 0.067,-0.027 0.075,-0.083 0.068,-0.261 -0.007,-0.16 -0.016,-0.376 0.168,-0.508 0.056,-0.04 0.134,-0.028 0.173,0.028 0.041,0.057 0.028,0.136 -0.028,0.175 -0.071,0.051 -0.071,0.144 -0.064,0.295 0.006,0.171 0.017,0.404 -0.221,0.503 -0.064,0.026 -0.136,-0.004 -0.163,-0.069 M 148.647,10 c -0.015,-0.074 0.066,-0.149 0.141,-0.165 l 0.279,-0.06 c -0.075,0.015 -0.109,0.085 -0.094,0.16 0.015,0.075 0.099,0.119 0.174,0.105 l -0.372,0.071 C 148.7,10.126 148.663,10.073 148.647,10 M 56.868,-8.053 c 0.173,-0.392 0.511,-0.621 1.172,-0.522 -0.014,0.405 0.409,0.373 0.26,0.914 -0.102,0.029 -0.151,0.109 -0.13,0.262 -0.561,0.262 -1.418,0.146 -1.302,-0.654 m 21.872,1.958 c -0.395,1.722 -3.006,-0.958 -0.391,-0.913 0.189,0.425 0.499,0.439 0.391,0.913 m -21.221,2.092 c 0.109,-0.848 1.449,-0.812 1.432,0.13 -0.145,0.698 -1.427,0.687 -1.432,-0.13 m 57.283,21.029 c 0.418,-1.094 1.791,-1.885 2.734,-1.827 2.451,0.147 3.087,4.633 0.781,5.354 -1.21,0.38 -2.364,-0.027 -2.994,-0.782 -0.468,-0.564 -0.193,-1.003 -0.911,-1.699 0.512,-0.159 0.287,-0.776 0.39,-1.046 m -144.77,35.791 c -0.022,0.284 0.461,0.06 0.651,0.132 0.022,-0.284 -0.462,-0.059 -0.651,-0.132 m 5.989,-57.996 c -1.66,-0.111 -2.079,1.294 -3.906,1.437 -1.269,0.098 -2.625,-0.589 -2.995,-1.568 -1.168,-3.097 2.906,-4.77 5.078,-3.265 1.134,0.784 0.925,1.825 1.692,2.874 0.101,0.028 0.257,0.003 0.26,0.13 l -0.194,0.153 z m 14.06,2.481 c -1.507,-0.011 -2.644,-0.396 -3.775,-0.782 l 0.194,-0.154 -0.064,-0.239 c 1.459,0.06 2.808,0.23 3.774,0.783 l -0.194,0.153 z m 3.254,0.654 c -0.802,0.065 -1.416,-0.06 -1.822,-0.393 l 0.195,-0.151 -0.064,-0.24 c 0.87,-0.09 1.412,0.15 1.821,0.523 l -0.194,0.065 z m 3.191,0.718 0.064,0.196 c -0.77,0.076 -1.172,-0.218 -1.561,-0.522 l 0.194,-0.066 -0.065,-0.196 c 0.794,-0.1 1.226,0.164 1.562,0.522 z M 2.97,1.221 V 1.092 C 3.867,0.489 4.639,0.188 5.313,0.438 6.884,1.021 6.412,3.601 4.662,3.573 3.266,3.55 3.317,2.546 2.839,1.221 Z m 48.17,22.99 c -0.196,0.274 0.665,-0.935 0,0 m 32.807,-3.658 c 0.43,-0.264 0.903,-0.488 1.693,-0.392 l -0.066,0.196 0.196,0.066 c -0.274,0.417 -1.2,0.745 -1.823,0.391 l 0.066,-0.129 z m -2.604,0.261 c -0.319,-1.329 1.666,-1.633 1.563,-0.261 l -0.066,0.132 0.066,0.129 c -0.42,0.174 -0.966,0.367 -1.432,0.132 l 0.065,-0.196 z m -5.858,-0.129 c 0.483,-0.692 0.613,0.279 1.303,0.129 l -0.066,0.132 -0.065,0.13 c -0.442,-0.036 -1.056,0.102 -1.302,-0.13 l 0.064,-0.132 z m -12.302,0.978 -0.196,0.066 c 0.246,-2.292 -2.474,-1.611 -2.474,-3.657 1.044,-0.206 1.285,-0.032 2.344,0 1.129,-0.606 1.403,-1.696 2.343,-1.829 3.854,-0.542 4.041,1.85 5.599,3.528 l -0.195,0.065 0.064,0.195 c -0.131,0 -0.155,0.106 -0.261,0.13 -0.122,0.734 0.333,0.886 0.392,1.438 -0.291,0.361 -1.067,0.235 -1.563,0.392 -0.737,0.697 -1.392,1.478 -1.172,3.135 -2.016,-0.721 -4.503,-0.969 -4.947,-3.267 z m -6.056,1.895 c 0.154,0.021 0.371,-0.023 0.392,0.131 l -0.195,0.065 0.064,0.196 c -0.153,-0.021 -0.369,0.023 -0.39,-0.131 l 0.196,-0.065 z m 1.824,6.923 c 0.199,-0.399 0.622,-0.943 0.13,-1.306 0.492,-0.331 0.955,0.294 1.432,0.391 0.092,0.486 -0.223,0.561 -0.131,1.045 l -0.194,-0.064 0.064,0.195 h -1.171 l 0.065,-0.195 z m -10.025,6.531 c 0.095,-0.4 -0.225,-0.384 -0.13,-0.783 0.319,-0.322 0.564,0.096 1.042,0 v 0.129 h 0.13 c -0.177,0.391 -0.588,0.543 -0.912,0.785 v -0.131 z m -6.509,6.532 c 0.11,-0.76 0.611,-1.129 1.302,-1.307 v 0.131 h 0.13 c -0.029,0.102 -0.004,0.257 -0.13,0.26 -0.138,0.756 0.359,1.336 -0.131,1.699 -0.49,-0.03 -0.551,-0.492 -1.042,-0.522 l 0.066,-0.197 z M 55.696,23.819 c -0.091,-0.767 0.901,-0.518 1.172,-0.261 l -0.065,0.131 -0.065,0.13 c -10e-4,0.173 -0.229,0.119 -0.261,0.262 l -0.195,0.065 -0.064,0.197 c -0.08,-0.227 -0.619,0.009 -0.652,-0.262 l 0.195,-0.065 z m -3.385,-1.045 c 1.081,-0.046 1.951,-0.306 2.604,-0.783 0.44,-0.007 0.564,0.304 0.781,0.522 0.05,0.572 -0.371,0.673 -0.39,1.176 l -0.196,0.065 0.065,0.196 c -1.329,0.071 -2.526,0.008 -2.994,-0.784 l 0.195,-0.151 z M 33.043,19.248 c -0.207,1.673 -0.641,3.356 -1.692,4.31 -0.563,0.51 -1.702,1.148 -2.604,1.175 -2.247,0.071 -3.529,-2.248 -2.864,-4.31 0.783,-2.429 4.546,-2.939 7.031,-1.569 l -0.066,0.241 z m 5.338,0.523 c -0.683,-0.174 -1.351,0.426 -1.433,-0.262 l 0.197,-0.153 -0.066,-0.24 c 0.583,-0.018 1.114,0.015 1.433,0.262 l -0.197,0.153 z M 78.74,26.17 c 0.206,-0.49 0.469,-0.922 1.302,-0.783 0.744,0.72 -0.521,1.667 -1.172,0.915 V 26.17 Z m 10.545,1.046 c 0.635,-1.054 1.674,-2.838 3.384,-2.483 1.343,0.279 1.332,1.717 1.043,3.005 -0.114,0.507 -0.173,1.263 -0.521,1.567 C 92.576,29.784 92.49,28.619 91.889,28.651 90.9,28.468 90.246,27.95 89.416,27.606 l 0.065,-0.238 z m 6.379,9.666 C 94.637,36.065 92.675,35.701 91.369,35.576 91,35.204 91.02,34.445 90.587,34.138 l 0.196,-0.152 -0.066,-0.239 c 0.683,-0.088 0.528,-1.036 0.26,-1.437 -0.228,-0.076 -0.765,0.158 -0.781,-0.13 l 0.196,-0.154 -0.065,-0.239 c 0.415,0.112 0.402,-0.206 0.65,-0.262 -0.325,-0.978 -1.786,-0.819 -2.863,-1.044 -0.191,-0.289 -0.422,-0.535 -0.652,-0.783 -1.636,0.39 -1.704,-1.233 -3.124,-0.654 l 0.065,-0.239 -0.195,-0.154 c 0.007,-0.079 0.019,-0.153 0.13,-0.13 -0.127,-1.435 -1.903,-1.512 -2.995,-2.219 -1.124,-0.731 -1.591,-2.297 -3.385,-2.091 -0.601,-0.737 -2.615,-0.636 -2.212,-1.96 1.948,-0.581 3.093,1.585 4.426,1.83 0.687,0.125 1.553,-0.337 2.343,-0.131 0.853,0.223 1.402,1.735 2.214,2.352 0.351,0.266 0.958,0.387 1.432,0.651 0.599,0.337 0.956,0.763 1.432,0.785 0.151,0.007 0.401,-0.393 0.651,-0.132 l 0.169,0.17 0.221,0.092 c -0.334,0.543 0.618,0.999 1.302,1.569 1.003,0.834 1.994,1.642 3.515,1.566 l 0.131,-0.065 0.13,-0.065 c 3.413,0.681 2.768,-3.841 4.687,-5.095 0.971,0.75 1.265,1.829 2.603,1.699 1.818,-0.178 0.943,-2.154 1.302,-3.788 0.156,-0.712 0.877,-1.702 1.692,-1.96 3.169,-1 3.266,3.196 5.208,3.527 1.505,0.257 1.354,-0.541 2.213,-1.175 0.875,-0.645 2.108,-1.131 2.995,-1.436 0.837,-0.878 3.689,-1.554 4.817,-0.524 -0.717,1.044 -1.936,1.488 -3.255,1.568 -0.605,0.037 -1.246,-0.229 -1.823,-0.131 -0.91,0.156 -1.899,1.288 -2.474,1.829 -1.105,1.043 -1.256,2.405 -2.473,3.264 0.034,0.645 0.05,1.271 -0.65,1.177 -0.991,-0.559 -0.113,-1.389 -0.912,-1.829 -0.308,-0.169 -1.302,-0.123 -1.692,0 -0.694,0.22 -1.443,1.161 -1.562,1.829 -0.242,1.341 0.501,2.527 -0.261,3.657 -0.648,0.96 -2.134,0.686 -2.213,1.829 h 1.562 c 0.322,0.39 0.651,1.51 0.13,1.958 -1.388,-0.349 -2.224,-1.251 -3.516,-1.696 -0.62,-0.1 -0.577,0.464 -1.171,0.391 -0.933,-0.075 -3.046,-0.83 -3.125,0.523 l -0.065,0.196 z m 19.919,4.18 c 0.692,-0.007 1.568,-0.824 2.344,-0.654 0.588,0.129 1.013,0.704 0.911,1.177 -0.283,1.295 -2.294,0.186 -3.124,-0.132 l 0.064,-0.24 z m -12.238,2.089 c -1.616,-0.838 -4.776,-0.14 -6.509,-0.523 -0.411,0.155 -0.403,0.728 -0.781,0.916 -0.616,0.052 -0.416,-0.715 -0.781,-0.916 -1.068,-0.276 -2.686,-0.004 -3.646,-0.391 l 0.196,-0.152 -0.065,-0.238 c 3.06,-0.043 6.848,0.493 9.634,-0.132 v -0.392 l 0.239,0.065 0.151,-0.196 c 0.734,1.077 2.173,0.745 3.775,0.655 1.884,-0.11 4.015,-0.262 5.599,-0.394 l -0.065,0.239 0.196,0.155 c -1.592,0.352 -3.84,0.511 -5.73,0.652 -0.682,0.05 -1.541,-0.244 -1.952,0.391 v 0.131 l -0.195,-0.065 z m 37.626,5.226 c 2.165,-0.234 4.304,0.944 6.248,0.914 1.057,-0.018 2.042,-0.669 3.125,-0.523 1.397,0.19 2.689,1.451 2.083,3.266 -0.933,0.822 -2.693,0.679 -3.515,0.262 -0.919,-0.467 -1.296,-1.695 -2.344,-2.221 -1.804,-0.906 -3.454,-0.622 -5.729,-1.307 l 0.196,-0.151 z m -6.64,-0.523 c 0.609,-0.851 2.17,-0.499 2.733,0.13 l -0.195,0.153 0.065,0.24 c -0.622,0.582 -2.242,0.501 -2.734,-0.131 l 0.066,-0.195 z m -26.82,2.745 c -0.188,-0.161 -0.174,-0.524 -0.521,-0.524 -0.137,-0.006 -0.33,0.061 -0.129,0.13 -0.504,0.076 -2.087,-0.976 -2.214,-1.828 l 0.196,0.065 -0.066,-0.196 c 0.347,-0.181 -0.25,-0.511 -0.26,-0.262 h -0.129 v 0.131 c -0.188,-0.072 -0.319,-0.204 -0.392,-0.392 -3.119,-0.353 -6.258,-0.688 -9.894,-0.521 l 0.065,-0.24 -0.196,-0.153 c 0.957,-0.304 2.474,-0.044 3.646,-0.13 0.006,-0.181 -0.061,-0.287 -0.13,-0.393 h 0.13 v -0.131 c 1.888,0.471 4.469,0.899 6.51,0.785 0.404,-0.466 0.602,-1.138 0.52,-2.089 -0.297,-0.138 -0.785,-0.084 -1.041,-0.262 l 0.065,-0.131 0.065,-0.131 c -0.001,-0.131 0.105,-0.155 0.131,-0.262 l 0.195,0.066 0.065,-0.195 c 1.288,1.157 2.416,-1.436 4.556,-1.177 0.83,0.101 1.84,0.754 1.953,1.961 0.128,1.364 -0.764,1.554 -0.781,3.264 l -0.195,0.153 0.065,0.24 c -0.826,0.476 -1.41,1.198 -1.953,1.96 l -0.195,0.064 z m -1.691,7.444 c 0.176,-0.999 1.024,-1.324 1.561,-1.959 l 0.065,0.195 0.196,0.067 c 0.064,0.585 -0.066,0.976 -0.131,1.435 -0.399,0.339 -0.977,0.5 -1.561,0.654 l 0.046,-0.234 z m -6.901,1.566 c 1.287,-0.161 2.017,-0.755 3.516,-0.391 l -0.066,0.24 0.195,0.151 c -0.611,0.139 -0.996,0.594 -1.692,0.654 -0.662,0.056 -1.28,-0.346 -2.083,-0.261 l 0.065,-0.196 z M 54.133,51.511 C 52.13,50.562 50.168,49.569 50.229,46.548 l 0.194,0.064 0.196,-0.064 c 0.582,1.332 2.115,1.708 2.343,3.396 0.51,0.403 0.943,0.882 1.432,1.307 l -0.195,0.064 z m 20.18,6.532 c -0.45,0.373 -1.35,0.28 -1.692,-0.132 l 0.065,-0.13 -0.065,-0.131 c 0.595,-0.173 1.376,-0.183 1.822,0.131 l -0.065,0.13 z m 6.119,-4.441 c -0.855,-0.196 -1.027,-1.15 -0.65,-1.96 0.324,0.504 0.879,0.138 1.171,0.654 0.261,0.46 0.067,0.819 -0.26,1.306 l -0.13,-0.066 z M 76.526,35.967 c 1.615,0.666 2.955,1.791 4.167,2.744 0.411,0.323 0.887,0.821 1.302,1.043 0.398,0.215 1.962,0.759 2.343,0.785 1.586,0.109 3.094,-1.423 4.817,-0.785 0.866,0.322 1.334,1.214 2.082,1.961 0.155,0.02 0.37,-0.023 0.391,0.132 l -0.195,0.15 0.065,0.24 h -0.261 c -0.139,0.338 -0.316,0.64 -0.26,1.175 0.228,-0.009 0.405,0.029 0.521,0.132 l -0.065,0.13 -0.064,0.131 v 0.131 h -0.132 v 0.129 c -0.85,-0.685 -1.675,-0.15 -2.862,0.132 -0.929,0.22 -1.609,0.2 -1.825,0.654 -0.331,0.698 0.577,1.725 1.433,2.089 l -0.065,0.238 0.196,0.154 c -0.008,0.079 -0.02,0.153 -0.131,0.13 -0.316,0.801 0.29,1.534 0.392,2.351 0.334,2.724 -0.72,5.049 -2.605,5.879 l -0.065,-0.196 -0.196,-0.065 c 1.112,-0.723 2.346,-2.993 2.084,-5.356 -0.113,-1.012 -0.621,-2.612 -1.432,-2.743 l 0.065,-0.24 -0.196,-0.152 c 0.358,-0.966 -0.69,-2.252 -1.562,-3.396 -0.91,-1.196 -1.749,-2.636 -2.994,-2.743 l 0.065,-0.197 -0.196,-0.065 C 81.192,39.428 79.774,39.588 78.87,39.232 H 79 v -0.129 c 0.094,-0.03 0.267,-0.004 0.261,-0.131 -0.058,-1.212 -2.794,-1.593 -3.515,-2.482 0.229,-0.119 0.402,-0.293 0.521,-0.523 l 0.13,0.065 z m -25.517,5.225 c -0.007,-0.08 -0.019,-0.155 -0.13,-0.13 l 0.065,-0.197 -0.195,-0.064 c 0.241,-1.981 1.466,-2.972 3.125,-3.529 v 0.131 h 0.129 c 0.4,0.187 0.586,0.059 0.912,-0.131 l 0.13,0.131 0.13,-0.131 c 0.18,0.215 -0.111,0.768 0.261,1.046 h 0.13 l -0.065,0.065 0.065,0.067 c -0.506,1.857 -1.665,3.559 -4.297,2.873 l -0.064,-0.197 z m -3.775,2.873 c -0.03,-0.101 -0.004,-0.256 -0.13,-0.26 v -0.131 h -0.13 c 0.359,-0.292 0.795,-0.508 1.301,-0.653 l -0.065,0.197 0.195,0.064 c -0.071,0.581 -0.634,0.668 -1.04,0.915 v -0.132 z m -13.41,9.145 c -0.029,0.102 -0.109,0.151 -0.26,0.131 -0.48,1.324 -1.409,2.301 -2.864,2.09 -1.462,-0.215 -1.898,-2.929 0,-3.397 1.292,-0.318 1.888,0.595 2.994,0.783 l -0.065,0.24 z m 5.728,-3.005 c -0.336,0.402 -0.657,0.82 -1.301,0.914 L 38.081,50.95 37.86,50.857 c 0.369,-0.456 0.836,-0.815 1.563,-0.913 l -0.066,0.196 z m 2.865,-4.702 c 0.905,-0.485 1.889,-0.892 2.994,-1.176 l -0.065,0.195 0.195,-0.064 v 0.393 c 0.151,0.109 0.349,0.17 0.651,0.129 l -0.065,0.196 0.195,-0.066 c 0.219,1.364 0.738,2.581 0.131,3.528 -0.85,1.324 -2.946,0.994 -4.166,-0.261 l 0.065,-0.131 -0.065,-0.131 c -0.004,-0.787 0.222,-1.344 0.13,-2.22 l 0.065,-0.196 z m -6.509,2.22 c 0.738,-1.592 2.806,-2.006 4.556,-2.22 l -0.065,0.196 0.195,0.064 c -0.006,0.18 0.062,0.289 0.131,0.392 l -0.196,0.066 0.065,0.196 c -0.323,1.729 -1.245,4.044 -3.385,3.396 -0.784,-0.237 -0.761,-1.234 -1.431,-1.829 l 0.064,-0.13 z m -13.801,1.306 c -1.809,-0.193 -5.649,1.414 -5.728,-1.045 -0.027,-0.842 0.711,-1.629 1.563,-1.698 1.565,-0.127 1.894,1.635 3.124,2.091 0.418,0.154 0.715,-0.047 1.171,0.261 l -0.195,0.152 z m 11.717,-3.134 c -0.025,1.021 -1.209,0.876 -1.04,2.089 0.145,0.028 0.201,0.146 0.259,0.262 l -0.195,0.065 0.066,0.195 c -0.582,0.917 -1.532,2.117 -2.865,1.96 -0.847,-0.099 -1.059,-0.784 -1.693,-1.307 l 0.066,-0.194 0.064,-0.197 c 0.413,-1.372 1.582,-1.984 3.516,-1.828 0.517,-0.439 0.784,-1.128 1.692,-1.177 v 0.132 z m 6.249,-5.748 c -0.156,0.496 -0.36,0.945 -1.041,0.915 v -0.131 h -0.131 c 0.201,-0.452 0.469,-0.838 1.042,-0.915 v 0.131 z M 34.214,28.651 c 0.723,0.136 1.279,-0.353 1.433,0.262 l -0.196,0.153 0.066,0.239 c -0.472,-0.092 -1.079,-0.049 -1.433,-0.261 l 0.197,-0.152 z m -4.425,3.92 c 1.365,-0.649 3.376,-0.179 5.077,-0.261 0.953,-0.046 1.837,-0.497 2.343,0.261 -0.938,1.815 -3.817,-0.57 -5.337,0.783 -0.426,-0.277 -0.998,-0.37 -1.953,-0.392 l 0.064,-0.239 z M 23.8,33.094 c 0.46,-0.733 2.033,-1.694 2.473,-0.261 l -0.195,0.151 0.065,0.24 c -0.565,0.441 -1.622,0.133 -2.212,0.261 l 0.064,-0.24 z m -27.08,6.792 c -0.137,3.159 -5.21,3.713 -5.468,0.653 -0.177,-2.108 2.132,-3.413 4.036,-2.482 0.698,0.34 0.839,1.123 1.563,1.567 l -0.065,0.13 z M 3.751,37.534 C 3.302,37.955 2.609,38.132 1.797,38.188 L 1.863,37.992 1.667,37.927 c 0.521,-0.349 0.989,-0.75 1.954,-0.655 L 3.555,37.47 Z M 10.13,34.66 c 0.913,-0.303 2.386,-0.044 3.515,-0.13 l -0.064,0.24 0.194,0.152 C 12.57,35.586 10.85,35.731 9.349,36.098 L 9.414,35.901 9.219,35.837 c 0.274,-0.378 1.135,-0.166 1.172,-0.784 -0.08,-0.007 -0.154,-0.019 -0.131,-0.131 l 0.066,-0.195 z M -8.096,32.571 c 4.389,1.777 10.177,2.157 16.403,2.089 l -0.065,0.196 0.196,0.066 c -0.707,0.506 -2.242,0.21 -3.386,0.262 -2.034,0.092 -4.27,0.306 -6.119,0.13 -2.864,-0.272 -5.364,-1.429 -7.159,-2.352 l 0.175,-0.157 z m 2.994,-13.585 c -0.024,0.498 -0.185,0.86 -0.651,0.914 -0.342,-0.178 -0.361,-0.682 -0.651,-0.914 l 0.065,-0.132 0.065,-0.129 c 0.139,-0.296 0.818,-0.049 1.172,-0.13 L -5.167,18.79 Z M 57.127,11.019 C 57.451,10.396 56.901,9.971 56.347,9.843 56.403,9.308 56.227,9.006 56.087,8.667 55.767,8.552 55.336,8.549 55.306,8.146 L 55.482,7.985 55.436,7.752 c 2.143,0.725 3.942,1.794 6.119,2.482 0.857,-0.968 0.218,-2.43 1.302,-3.134 1.224,-0.796 3.984,0.096 5.728,-0.523 0.971,-0.346 0.82,-1.027 1.822,-0.784 0.482,0.127 0.399,0.819 0.521,1.307 0.055,0.568 0.727,0.717 0.391,1.305 -1.68,0.41 -3.687,1.022 -3.385,3.004 -0.417,0.192 -1.035,0.182 -0.911,0.915 0.413,0.35 1.317,0.635 2.344,0.915 0.828,0.227 2.012,0.671 2.733,0.522 0.701,-0.145 1.975,-2.073 2.734,-2.352 0.715,-0.261 2.196,-0.216 3.254,0 1.082,0.222 4.262,1.135 4.298,2.222 0.02,0.659 -0.844,0.999 -1.433,1.568 -0.556,0.535 -0.915,1.247 -1.562,1.567 -0.887,0.437 -2.006,0.418 -2.994,0.652 -0.401,-0.312 -0.745,-0.111 -1.173,-0.261 -1.24,-0.432 -2.23,-1.803 -3.514,-2.351 -0.804,-0.343 -1.962,-0.537 -2.995,-0.914 -0.99,-0.362 -1.928,-0.865 -2.864,-1.175 -0.767,-0.255 -1.543,-0.253 -2.213,-0.523 -1.249,-0.504 -2.633,-1.685 -3.776,-1.698 -0.945,-0.012 -1.724,1.048 -2.604,0.653 l 0.066,-0.196 z m 8.138,15.87 0.065,0.197 c -0.975,0.239 -1.976,0.454 -2.213,1.435 -0.881,0.006 -1.503,-0.313 -1.823,0.392 -0.069,1.884 2.534,1.65 3.125,0.524 1.505,0.067 5.124,0.294 4.166,-1.699 -1.091,-0.052 -2.33,-1.72 -3.125,-0.785 z m 2.799,4.114 h 0.651 c -0.036,-0.56 0.467,-0.577 0.911,-0.652 0.09,-0.568 -0.234,-0.723 -0.52,-0.914 -0.427,0.267 -1.138,0.25 -1.432,0.652 -0.05,0.486 0.527,0.342 0.39,0.914 m -6.965,-8.162 0.195,-0.067 c 0.102,0.289 0.807,-0.025 0.651,0.523 0.079,0.514 -0.901,-0.033 -0.781,0.522 0.235,1.069 1.435,0.895 2.214,1.176 1.229,0.444 2.436,1.459 4.036,1.307 0.47,-0.096 0.372,-0.76 0.911,-0.785 0.505,1.209 3.436,0.955 4.036,0 -0.406,-0.633 -0.315,-1.62 0.781,-1.436 0.721,0.263 0.178,1.031 0.651,1.436 1.61,0.04 2.53,0.771 4.165,0.785 l -0.064,0.13 0.064,0.131 c -0.21,1.731 1.552,2.787 3.646,2.35 0.41,-0.085 0.743,-0.616 1.171,-0.653 0.618,-0.052 0.947,0.466 1.433,0.391 l -0.065,0.241 0.195,0.152 c -0.787,0.691 -2.566,0.387 -3.775,0.654 0.412,0.793 2.348,1.059 2.863,0.26 0.64,-0.118 0.496,0.549 1.042,0.523 0.618,0.054 0.683,-0.446 1.302,-0.392 0.59,0.192 0.604,0.963 1.042,1.307 0.49,0.117 1.176,0.039 1.563,0.26 l -0.196,0.153 0.065,0.24 c -0.302,-0.042 -0.5,0.02 -0.651,0.131 0.581,0.808 2.004,0.774 2.734,1.436 l -0.196,0.153 0.065,0.238 c -5.492,-2.512 -12.669,-2.834 -19.268,-3.396 -0.502,0.106 -0.578,0.639 -0.911,0.914 -0.482,0.188 -0.877,-0.213 -1.171,0.262 0.515,1.442 2.033,1.879 3.385,2.482 0.509,0.076 0.755,-0.112 1.041,-0.262 0.446,0.251 0.608,0.785 1.041,1.046 0.796,0.029 1.237,0.413 1.823,0.653 l -0.065,0.131 0.065,0.13 c -0.74,1.043 -1.546,0.078 -2.864,-0.261 -0.794,-0.204 -1.721,-0.425 -2.604,-0.392 -1.463,0.052 -3.118,0.831 -4.167,0.653 -0.836,-0.142 -1.474,-0.988 -1.952,-1.175 -0.398,-0.096 -0.383,0.226 -0.781,0.13 -0.332,-0.631 -0.582,-0.026 -1.041,-0.262 0.145,-0.72 1.026,0.016 1.041,-0.913 -0.573,-0.893 -1.888,-1.636 -2.995,-1.567 l 0.065,-0.197 -0.065,-0.196 c 0.18,-0.395 -0.061,-0.467 0,-1.045 v -0.131 h -0.13 c 0.574,-1.129 -0.488,-1.665 -1.171,-1.96 -0.892,-0.153 -0.824,0.656 -1.432,0.786 -1.129,0.129 -0.735,-1.266 -1.302,-1.699 -0.766,0.552 0.021,2.116 0.781,2.351 l -0.065,0.196 0.195,-0.065 c 0.015,0.16 0.039,0.309 0.26,0.261 l -0.065,0.196 0.196,0.065 c -0.048,0.918 0.948,0.789 1.172,1.438 l -0.066,0.194 0.066,0.197 c -0.942,0.406 -2.188,0.504 -2.344,1.698 0.074,0.404 0.696,0.259 0.52,0.915 -1.131,-0.003 -0.493,1.766 -1.822,1.567 l -0.065,-0.196 -0.195,0.065 c 0.233,-1.384 -0.569,-1.454 -1.303,-1.96 -0.738,-0.51 -0.94,-1.056 -1.431,-0.782 v -0.131 h -0.131 c -1.329,-1.223 -3.39,-2.709 -4.817,-0.785 v -0.129 h -0.13 c -0.379,-0.414 -0.877,0.156 -0.781,0.652 h 0.131 v 0.131 h 0.13 c -0.588,0.736 -1.535,1.149 -2.343,2.351 -0.971,1.444 -1.153,3.582 -3.516,3.136 l 0.065,-0.198 -0.195,0.067 C 40.227,38.467 40.05,37.377 40.725,36.62 l 0.151,0.196 0.239,-0.065 v 0.261 c 1.045,1.261 2.434,-0.729 2.473,-1.959 -0.583,-0.282 -1.546,-0.63 -1.822,0.131 l -0.239,-0.066 -0.151,0.196 c -0.08,-0.006 -0.155,-0.019 -0.13,-0.13 -0.976,-0.681 -2.179,-1.196 -2.345,-2.613 -0.1,-0.87 0.392,-1.542 0.131,-2.482 -0.184,-0.251 -0.632,-0.236 -0.911,-0.391 l 0.064,-0.197 -0.064,-0.196 c 0,-0.13 0.106,-0.155 0.13,-0.261 -0.331,-0.543 -1.116,-0.619 -1.692,-0.784 -1.957,-0.556 -4.004,-1.008 -5.859,-1.567 -0.165,0.364 -0.321,0.645 -0.13,1.045 0.949,0.311 2.144,0.373 2.994,0.783 l -0.195,0.153 0.065,0.239 c -1.408,0.063 -2.216,-0.475 -3.385,-0.653 -0.865,0.418 -1.159,1.193 -1.953,1.438 -3.08,0.947 -3.607,-2.145 -4.556,-3.79 -2.24,-0.54 -3.172,-2.389 -5.468,-2.873 l 0.064,-0.194 -0.064,-0.196 c 0.537,-0.682 -0.5,-1.666 -0.652,-3.005 -0.171,-1.526 0.295,-2.27 0.392,-3.397 -1.312,-1.347 -0.602,-3.245 1.561,-3.136 0.352,-0.702 0.613,-2.009 1.042,-2.22 C 20.394,9.671 20.958,8.394 20.936,6.708 20.923,5.712 20.47,4.742 20.415,3.833 20.379,3.24 20.657,2.563 20.676,1.875 c 0.056,-2.079 -0.617,-4.137 -0.391,-5.878 0.407,-3.147 3.093,-3.906 6.249,-2.612 0.319,-0.42 0.526,-0.954 0.781,-1.438 1.337,-0.756 3.169,-0.432 3.385,1.045 0.114,0.785 -0.35,1.2 -0.521,2.091 l -0.177,0.157 0.047,0.234 c -1.066,-0.352 -2.061,-0.995 -3.255,-1.437 -0.956,-0.354 -2.276,-0.734 -3.124,-0.652 -2.809,0.266 -3.04,4.843 -2.473,8.097 0.137,0.796 0.615,1.394 0.65,2.091 0.035,0.692 -0.326,1.183 -0.391,1.698 -0.137,1.084 0.06,2.083 0,2.875 -0.089,1.189 -0.388,1.999 -0.65,2.873 -0.315,1.046 -0.743,1.644 -1.042,2.482 -0.147,0.409 -0.084,0.864 -0.261,1.305 -0.229,0.576 -0.795,0.939 -1.041,1.568 -0.358,0.91 -0.348,2.286 -0.26,3.135 0.196,1.906 1.556,3.631 2.604,4.049 0.659,0.263 1.726,0.309 2.604,0.523 0.898,0.218 1.768,0.398 2.603,0.522 1.761,0.263 3.362,0.988 4.946,1.437 1.695,0.481 3.481,0.824 5.209,1.176 0.918,0.187 1.804,0.243 2.733,0.39 0.908,0.146 1.761,0.568 2.605,0.654 1.813,0.183 1.93,-0.401 3.125,-0.783 1.404,-0.453 3.447,-0.42 4.035,-1.045 l 0.065,0.065 0.065,-0.065 c 1.519,0.581 4.38,0.461 6.249,0.261 l -0.065,0.196 0.195,-0.065 c 1.128,0.555 4.279,0.442 3.906,-0.916 10e-4,-0.914 -1.124,-0.7 -1.562,-1.175 l 0.195,-0.065 -0.065,-0.196 h 0.391 c 0.035,-0.297 -0.032,-0.491 -0.261,-0.522 l 0.065,-0.131 0.065,-0.13 c 0.278,-0.842 1.057,0.076 1.563,-0.261 0.194,-0.631 -0.598,-0.271 -0.521,-0.783 -0.155,-0.548 0.548,-0.235 0.651,-0.524 -0.184,-1.055 -0.473,-1.953 -1.041,-2.612 -0.476,-0.552 -1.256,-0.7 -1.693,-1.307 -1.538,-0.277 -3.22,-0.418 -4.557,-1.045 -0.491,-0.23 -0.819,-0.655 -1.302,-0.783 -0.172,-0.046 -0.337,0.145 -0.78,0.13 -0.765,-0.024 -1.219,-0.488 -1.563,0.132 0.304,1.876 0.026,3.59 -0.52,4.963 l -0.066,0.196 -0.065,0.196 C 46.058,21.951 44.5,21.512 43.328,20.685 l 0.065,-0.197 -0.065,-0.195 c 0.297,-1.159 0.673,-2.001 1.303,-2.613 0.161,-0.158 0.377,-0.56 0.52,-0.654 0.121,-0.079 0.387,0.062 0.52,0 0.068,-0.031 0.135,-0.337 0.261,-0.39 0.507,-0.22 1.146,-0.157 1.692,-0.393 0.334,-0.142 0.584,-0.518 0.911,-0.653 0.716,-0.294 1.587,-0.295 2.214,-0.652 0.343,-0.197 0.647,-0.597 1.041,-0.917 1.482,-1.19 2.736,-2.585 4.948,-2.741 l -0.066,0.196 0.196,-0.067 c 0.758,0.678 1.625,0.714 2.213,1.569 0.859,1.247 0.648,3.25 1.301,4.833 -0.288,0.462 -0.609,0.618 -0.65,1.175 -0.035,0.464 1.27,3.593 1.432,3.659 z m 69.586,-49.965 c 0.408,-0.061 0.582,0.114 0.521,0.522 h -0.521 z m -62.23,2.351 c 0.183,-0.035 0.148,-0.288 0.26,-0.392 0.464,-0.029 0.681,0.188 0.652,0.653 -0.293,0.278 -0.858,0.093 -0.912,-0.261 m 41.53,3.527 c 0.408,-0.06 0.416,0.279 0.39,0.652 h -0.39 c -0.167,-0.171 -0.167,-0.481 0,-0.652 m 19.528,-0.914 c -0.492,-4.356 5.148,-4.173 5.469,-0.915 0.231,2.362 -1.867,3.69 -3.385,3.658 -0.998,-0.758 -1.93,-1.395 -2.084,-2.743 m -7.681,2.743 c -0.04,-0.606 0.229,-0.903 0.782,-0.915 0.479,0.683 -0.264,1.547 -0.782,0.915 m 8.983,2.22 c 0.23,-0.116 0.381,-0.315 0.651,-0.392 0.28,0.242 0.661,0.382 0.522,1.045 -0.47,0.456 -1.295,0.202 -1.173,-0.653 m -8.071,2.612 c 0.173,-0.169 0.484,-0.172 0.521,0.132 -0.174,0.169 -0.485,0.171 -0.521,-0.132 m 7.811,0.393 c 0.531,-0.054 0.822,0.133 0.781,0.652 -0.341,0.933 -1.564,-0.044 -0.781,-0.652 m -15.232,0.652 c 0.365,0.164 0.43,0.536 0.26,0.915 -0.86,0.239 -1.037,-0.922 -0.26,-0.915 m -18.227,1.83 v 0.783 c -1.841,1.274 -1.538,-2.315 0,-0.783 m -69,1.437 c 0.167,-0.007 0.181,-0.168 0.39,-0.131 0.008,0.224 -0.1,0.335 -0.26,0.392 0.001,-0.132 -0.105,-0.156 -0.13,-0.261 m 63.532,0.261 c 0.408,-0.061 0.582,0.114 0.521,0.522 h -0.521 z m 37.105,-0.654 c 0.51,-0.075 0.755,0.113 1.041,0.262 0.361,2.249 -2.367,0.844 -1.041,-0.262 m -67.178,2.091 c -0.008,0.719 -1.414,1.095 -1.173,-0.393 0.599,-0.426 1.179,-0.1 1.173,0.393 m -26.689,0.914 c 0.146,-0.027 0.202,-0.146 0.26,-0.261 0.246,-0.029 0.288,0.147 0.521,0.129 0.042,0.304 -0.021,0.503 -0.13,0.654 -0.425,0.035 -0.626,-0.155 -0.651,-0.522 m 36.714,3.004 h 0.391 v 0.261 H 71.58 Z m -17.186,0.131 c 0.346,0.002 0.744,-0.049 0.912,0.13 0.355,1.731 -1.916,0.828 -0.912,-0.13 m 70.302,0.261 c 0.706,-0.924 2.258,-0.043 1.562,1.175 -0.734,0.6 -1.925,0.114 -1.562,-1.175 M 48.275,-3.48 c -0.151,1.336 -2.547,0.655 -1.431,-0.916 0.917,-0.359 1.502,0.285 1.431,0.916 m -8.462,0 c 0.703,0.084 0.993,0.934 0.52,1.698 -2.01,0.845 -1.942,-1.872 -0.52,-1.698 m 49.732,2.088 c -0.176,0.041 -0.249,0.187 -0.52,0.131 -0.098,-0.445 0.497,-0.509 0.52,-0.131 M 76.657,-1.13 c -0.36,1.644 -3.387,0.867 -3.125,-1.175 0.47,-0.619 1.648,-0.525 2.474,-0.785 0.221,0.685 0.796,1.298 0.651,1.96 m -35.672,0.131 c 0.619,-0.199 1.144,0.048 1.041,0.914 -0.645,0.729 -1.78,-0.183 -1.041,-0.914 m 72.385,0.653 c 0.409,-0.145 0.344,-0.061 0.651,0.13 0.022,0.326 -0.2,0.409 -0.391,0.523 -0.147,-0.158 -0.372,-0.237 -0.26,-0.653 m -5.598,-0.261 c -2.171,-0.493 -3.953,0.79 -5.337,0 -1.449,-0.826 -1.217,-3.564 0.39,-4.05 2.085,-0.631 3.709,1.47 4.165,3.136 0.354,0.08 0.61,0.258 0.782,0.522 l -0.065,0.196 z m 0.586,-0.065 0.065,-0.196 c 1.028,0.134 3.47,-0.751 3.906,0.522 -0.551,1.223 -3.704,0.641 -4.166,-0.261 z m 6.965,0.587 c 0.341,-0.037 0.56,0.049 0.521,0.392 -0.167,0.007 -0.18,0.168 -0.391,0.131 -0.041,-0.177 -0.186,-0.25 -0.13,-0.523 M 34.605,0.177 C 35.013,0.115 35.187,0.29 35.126,0.699 34.768,1.105 34.2,0.536 34.605,0.177 M 84.338,0.959 C 84.223,1.061 83.966,0.88 83.947,0.829 83.763,0.337 84.595,0.735 84.338,0.959 m -2.343,0.785 c 0.008,0.712 -1.043,0.969 -1.302,0 0.245,-0.978 1.294,-0.634 1.302,0 M 62.727,2.396 h -0.391 c -0.673,-0.946 1.063,-0.946 0.391,0 m 55.46,-0.783 c 0.532,-0.054 0.821,0.134 0.782,0.653 -0.252,0.884 -1.357,0.013 -0.782,-0.653 M 7.396,2.657 C 7.803,2.597 7.977,2.771 7.917,3.181 7.558,3.588 6.991,3.019 7.396,2.657 M 10.52,3.703 V 4.095 H 10.13 C 10.106,3.811 10.237,3.68 10.52,3.703 M -7.576,2.657 C -7.501,0.794 -4.762,1.078 -4.842,2.789 -4.882,3.653 -5.894,4.117 -6.535,3.964 -7.307,3.78 -7.603,3.359 -7.576,2.657 m 138.001,1.569 h 0.52 c -0.052,0.315 0.238,0.284 0.131,0.653 -0.151,0.109 -0.349,0.173 -0.651,0.131 -0.178,-0.167 -0.178,-0.618 0,-0.784 m -52.726,0 c -0.088,-0.343 0.595,-2.81 0.78,-3.005 0.476,-0.502 1.126,-0.389 1.693,0 0.882,1.537 -1.835,5.508 -2.473,3.005 m 41.79,-0.393 h 0.912 c 0.063,0.154 0.138,0.296 0.26,0.393 0.228,1.878 -2.298,0.733 -1.172,-0.393 M 53.613,5.271 V 5.01 c 0.079,-0.007 0.154,-0.02 0.13,-0.131 h 0.26 c 0.007,0.079 0.021,0.154 0.13,0.131 v 0.261 c -0.079,0.007 -0.153,0.019 -0.13,0.13 h -0.26 c -0.007,-0.08 -0.019,-0.155 -0.13,-0.13 m 35.542,0.391 h 0.261 v 0.262 h -0.261 z m 39.708,-0.391 c 0.11,0.152 0.171,0.35 0.13,0.653 -0.152,0.109 -0.349,0.172 -0.651,0.13 -0.156,-0.366 -0.075,-0.832 0.521,-0.783 m -118.603,0 c 0.23,-0.118 0.381,-0.317 0.651,-0.392 0.28,0.24 0.661,0.381 0.521,1.045 C 11.046,6.42 9.98,6.213 10.26,5.271 m 68.61,0.653 c 0.248,-0.056 0.327,-0.281 0.651,-0.262 0.223,0.167 0.512,0.271 0.521,0.653 -0.068,0.194 -0.193,0.33 -0.26,0.523 -0.712,0.103 -1.016,-0.2 -0.912,-0.914 m 39.838,0 c 0.532,-0.146 0.792,-0.027 1.172,0.262 0.406,2.301 -2.609,0.923 -1.172,-0.262 M 12.994,6.838 c 0.464,-0.029 0.681,0.188 0.651,0.653 -0.448,0.46 -1.11,-0.203 -0.651,-0.653 m 62.752,0 v 0.914 c -1.586,1.227 -1.586,-2.141 0,-0.914 M 59.862,6.054 c 1.693,-0.224 1.606,2.889 -0.26,2.092 -1.089,-0.468 -0.701,-1.964 0.26,-2.092 m 17.967,1.83 c 0.259,-0.133 0.205,-0.578 0.65,-0.524 0.193,0.069 0.329,0.194 0.521,0.262 0.123,1.039 -1.054,1.081 -1.171,0.262 m -28.512,0.13 c -0.157,1.299 -2.328,1.035 -3.125,0.261 0.182,-0.69 0.55,-1.191 1.042,-1.567 1.397,-0.158 2.185,0.471 2.083,1.306 m 26.95,1.175 c -0.397,-0.853 0.2,-1.55 0.91,-1.698 0.507,0.507 0.342,2.018 -0.651,1.829 C 76.498,9.218 76.417,9.167 76.267,9.189 M 37.991,8.405 c 0.485,-0.052 0.763,0.105 0.78,0.523 -0.293,0.878 -1.499,0.027 -0.78,-0.523 M 77.438,9.32 C 77.721,8.944 78.094,9.14 78.219,9.582 77.964,9.928 77.45,9.874 77.438,9.32 M 94.232,9.843 V 9.45 c 0.151,-0.109 0.349,-0.171 0.651,-0.13 -0.029,0.247 0.147,0.288 0.131,0.523 -0.167,0.178 -0.615,0.178 -0.782,0 M 28.356,9.582 c -0.02,-0.325 0.205,-0.405 0.261,-0.654 0.528,-0.051 0.907,0.049 0.911,0.522 -0.153,0.553 -0.914,0.676 -1.172,0.132 M 105.038,9.32 c 0.314,0.053 0.282,-0.238 0.65,-0.131 0.336,0.375 0.013,0.881 -0.39,0.915 -0.115,-0.232 -0.363,-0.333 -0.26,-0.784 M 69.626,9.582 c 0.605,-0.159 0.625,0.52 0.13,0.522 -0.04,-0.176 -0.184,-0.25 -0.13,-0.522 m -63.792,0 c 0.449,-0.103 0.572,0.121 0.651,0.391 -0.152,0.11 -0.349,0.173 -0.651,0.131 z m 12.758,0.522 h 0.26 v 0.261 h -0.26 z m 13.41,-0.392 c 0.005,0.568 -0.408,0.894 -1.043,0.784 -0.252,-0.045 -1.557,-1.763 -1.17,-1.96 0.904,0.318 2.203,0.23 2.213,1.176 m -5.208,0 c 0.218,-0.173 0.437,-0.346 0.912,-0.262 -0.003,0.308 0.223,0.386 0.13,0.784 -0.409,0.4 -1.117,0.245 -1.042,-0.522 m -8.722,0.784 h 0.261 v 0.261 h -0.261 z m 17.966,-0.392 c -0.005,0.902 -1.788,1.288 -1.693,-0.261 0.485,-0.902 1.697,-0.512 1.693,0.261 m 85.664,0.653 c -0.006,0.181 0.062,0.286 0.13,0.392 -0.176,0.04 -0.249,0.186 -0.52,0.131 -0.037,-0.342 0.047,-0.562 0.39,-0.523 m -5.468,-0.393 c 0.666,0.009 0.755,0.664 0.391,1.045 -0.906,0.194 -0.929,-0.811 -0.391,-1.045 m -67.959,0.655 h 0.651 c -0.006,0.179 0.061,0.287 0.13,0.39 -0.231,0.117 -0.33,0.364 -0.781,0.262 z m 65.355,0 c 0.503,-0.026 0.748,0.207 0.782,0.652 -0.33,0.986 -1.626,-0.085 -0.782,-0.652 M 85.12,5.141 c 1.138,0.136 2.176,1.323 2.473,2.088 1.248,3.231 -2.535,5.817 -5.468,5.095 -3.984,-2.202 -0.361,-7.587 2.995,-7.183 m -16.665,6.661 c 0.791,-0.076 0.713,0.688 0.13,0.783 -0.157,-0.202 -0.416,-0.508 -0.13,-0.783 M 15.338,9.45 c 0.573,0.174 1.258,1.048 0.91,2.221 -0.242,0.821 -1.185,1.128 -1.952,1.046 C 11.515,12.418 12.99,8.741 15.338,9.45 m 123.159,2.483 c 0.53,-0.054 0.821,0.132 0.78,0.652 -0.309,0.903 -1.505,-0.104 -0.78,-0.652 m -113.526,0.13 c 0.387,-0.495 1.453,-0.29 1.172,0.654 -0.386,0.496 -1.452,0.288 -1.172,-0.654 m 116.195,0.196 0.195,0.065 c -0.533,1.944 -2.872,-0.147 -1.302,-0.653 0.477,-0.152 0.937,0.021 1.171,0.392 z m -21.677,0.588 h 0.261 v 0.261 h -0.261 z M 104.517,9.712 c 1.425,0.278 1.216,4.095 -1.172,3.266 -1.981,-0.689 -0.264,-3.547 1.172,-3.266 m -57.934,3.005 c -0.007,0.166 -0.167,0.18 -0.13,0.39 -2.35,0.66 -0.3,-2.353 0.13,-0.39 m 75.9,0.261 c 0.151,-0.111 0.35,-0.172 0.651,-0.131 0.005,0.398 0.076,0.859 -0.39,0.784 -0.056,-0.249 -0.372,-0.237 -0.261,-0.653 m -60.538,0.391 h 0.261 v 0.262 h -0.261 z m -38.796,0.262 c 0.007,0.224 -0.1,0.335 -0.261,0.39 -0.186,-0.189 -0.19,-0.504 0.261,-0.39 m -1.823,0.13 c 0.171,-0.167 0.481,-0.167 0.651,0 0.022,0.328 -0.2,0.41 -0.391,0.522 -0.002,-0.26 -0.355,-0.165 -0.26,-0.522 m 95.95,0.522 h 0.26 c 0.145,0.189 0.14,0.32 -0.13,0.393 -0.007,-0.167 -0.168,-0.182 -0.13,-0.393 M 63.248,13.892 c 1.02,-0.043 0.985,1.711 -0.131,1.307 -0.818,-0.297 -0.59,-1.276 0.131,-1.307 m -24.867,0.653 c 0.424,-0.034 0.626,0.155 0.651,0.522 -0.032,0.187 -0.215,0.22 -0.261,0.392 -0.624,-0.033 -0.737,-0.538 -0.39,-0.914 m 87.877,0.783 c 0.26,-10e-4 0.166,-0.355 0.521,-0.261 0.523,0.136 0.576,0.702 0.261,1.045 -0.59,0.07 -0.851,-0.192 -0.782,-0.784 M 27.575,15.199 c 0.207,-1.062 2.386,-0.763 1.693,0.782 -0.875,0.661 -1.841,-0.022 -1.693,-0.782 m 83.061,0.913 c -0.263,-1.285 1.033,-1.372 1.432,-0.653 0.139,1.084 -0.949,1.195 -1.432,0.653 M 32.262,15.851 c 0.167,-0.721 1.394,-0.653 1.302,0.261 -0.101,0.029 -0.152,0.109 -0.13,0.262 -0.524,0.273 -1.126,0.055 -1.172,-0.523 m -4.947,-0.523 c 0.029,1.055 -1.423,1.827 -2.474,1.438 -2.882,-1.072 2.397,-4.189 2.474,-1.438 m 43.223,0.784 c 0.128,-0.514 0.813,-0.708 1.432,-0.261 0.291,1.921 -1.689,1.293 -1.432,0.261 m -85.665,0.654 c 0.35,-0.09 0.252,0.27 0.391,0.391 -0.176,0.042 -0.249,0.186 -0.521,0.131 v -0.262 c 0.073,-0.271 0.392,0.195 0.13,-0.26 m 123.42,0.391 c -0.103,-0.451 0.145,-0.551 0.261,-0.783 0.589,-0.07 0.849,0.191 0.78,0.783 -0.261,-0.03 -0.526,0.584 -0.78,0.131 0.308,-0.227 -0.146,0.097 -0.261,-0.131 M 80.302,16.636 c 0.321,-0.018 0.627,-0.02 0.781,0.13 0.107,0.368 -0.183,0.338 -0.13,0.652 -0.306,0.043 -0.489,0.207 -0.911,0.132 -0.077,-0.47 0.15,-0.632 0.26,-0.914 m -18.357,0.26 c 0.155,-0.15 0.461,-0.147 0.782,-0.13 0.155,0.388 0.035,0.444 -0.131,0.784 h -0.521 c -0.108,-0.153 -0.171,-0.35 -0.13,-0.654 m 61.059,0.522 c 0.131,0 0.155,-0.105 0.261,-0.13 -0.001,0.13 0.105,0.156 0.129,0.262 -0.13,0 -0.155,0.105 -0.26,0.13 0.001,-0.13 -0.105,-0.156 -0.13,-0.262 m -84.623,0.916 c -1.053,-0.054 -1.375,-1.668 -1.042,-2.875 1.954,-0.261 3.066,2.975 1.042,2.875 m 89.83,0 c 0.322,-0.019 0.628,-0.02 0.782,0.129 v 0.523 c -0.154,0.15 -0.46,0.148 -0.782,0.13 -0.116,-0.382 -0.116,-0.401 0,-0.782 m -27.6,0.782 v -0.262 c 0.08,-0.005 0.155,-0.018 0.131,-0.129 h 0.26 c 0.007,0.08 0.019,0.156 0.131,0.129 v 0.262 c -0.081,0.008 -0.155,0.02 -0.131,0.132 h -0.26 c -0.008,-0.08 -0.02,-0.156 -0.131,-0.132 m -45.826,0.262 c -0.017,-0.322 -0.019,-0.63 0.13,-0.783 0.464,-0.031 0.681,0.187 0.651,0.653 -0.338,0.166 -0.393,0.286 -0.781,0.13 m 39.708,-0.262 c 0.331,0.017 0.505,0.191 0.521,0.524 h -0.652 c -0.009,-0.229 0.03,-0.407 0.131,-0.524 m -6.9,0 c 0.101,-0.029 0.151,-0.109 0.13,-0.262 0.321,-0.016 0.628,-0.018 0.78,0.132 0.036,0.426 -0.153,0.629 -0.52,0.654 -0.19,-0.114 -0.412,-0.196 -0.39,-0.524 m -31.636,0.655 h 0.261 v 0.261 h -0.261 z m 33.849,0.39 V 19.9 c 0.08,-0.006 0.154,-0.019 0.13,-0.129 h 0.26 c 0.008,0.079 0.02,0.154 0.131,0.129 v 0.261 c -0.08,0.008 -0.154,0.021 -0.131,0.132 h -0.26 c -0.007,-0.081 -0.019,-0.155 -0.13,-0.132 m 60.538,-0.652 c 0.498,0.07 0.707,0.509 0.52,0.914 -0.154,0.151 -0.46,0.148 -0.781,0.13 -0.226,-0.437 -0.076,-0.833 0.261,-1.044 m -92.956,1.305 c -0.104,-0.79 0.598,-0.086 0,0 m 79.155,-0.653 c 0.259,-0.002 0.166,-0.355 0.521,-0.261 0.587,-0.018 0.587,0.63 0.392,1.046 -0.643,0.076 -1.003,-0.127 -0.913,-0.785 m -2.603,0.262 c 0.272,-0.075 0.372,-0.324 0.781,-0.262 0.328,0.425 0.019,1.084 -0.651,0.915 -0.11,-0.151 -0.172,-0.35 -0.13,-0.653 m -7.291,-0.652 c 0.951,-0.001 0.908,2.046 -0.26,1.567 -0.965,-0.397 -0.493,-1.567 0.26,-1.567 m -77.723,0.39 c 0.831,-0.136 1.178,0.213 1.042,1.046 -0.714,0.839 -1.863,-0.315 -1.042,-1.046 m 97.122,0.915 c 0.04,0.177 0.185,0.249 0.13,0.523 h -0.391 c -0.037,-0.298 0.031,-0.492 0.261,-0.523 m -70.824,0.653 c 0.032,0.186 0.215,0.22 0.261,0.392 -0.321,0.418 -0.804,-0.305 -0.261,-0.392 m 36.974,0 c 0.482,-0.091 0.575,0.207 0.521,0.654 -0.179,-0.006 -0.285,0.061 -0.39,0.13 -0.157,-0.203 -0.417,-0.509 -0.131,-0.784 m -14.321,0.392 c -0.005,0.181 0.062,0.287 0.131,0.392 -0.176,0.042 -0.248,0.186 -0.521,0.132 -0.037,-0.342 0.048,-0.563 0.39,-0.524 M 72.1,21.729 c 0.106,-1.058 1.91,-1.016 2.083,0.262 -0.501,1.179 -2.188,0.791 -2.083,-0.262 m -31.636,0.522 c 0.242,0.23 -0.034,0.405 -0.26,0.523 -0.205,-0.193 -0.146,-0.584 0.26,-0.523 m 102.72,0.262 h 0.26 c 0.145,0.188 0.14,0.319 -0.13,0.391 -0.008,-0.167 -0.167,-0.18 -0.13,-0.391 m -3.907,-0.262 c 0.262,-0.391 1.07,-0.232 1.694,-0.26 -0.206,0.664 -0.632,1.108 -1.433,1.175 -0.173,-0.219 -0.345,-0.437 -0.261,-0.915 m -48.82,0.784 v -0.39 c 0.151,-0.111 0.349,-0.173 0.651,-0.132 0.091,0.402 0.091,0.251 0,0.653 -0.302,0.043 -0.5,-0.02 -0.651,-0.131 m -44.916,0.131 c -0.114,0.101 -0.371,-0.08 -0.39,-0.131 -0.184,-0.493 0.647,-0.094 0.39,0.131 m 104.021,-0.131 v 0.523 c -0.501,0.103 -0.501,-0.625 0,-0.523 M 99.57,22.904 c 0.302,-0.04 0.5,0.022 0.651,0.131 v 0.393 C 99.827,23.753 99.258,23.34 99.57,22.904 m -1.432,0.131 c 0.246,-0.028 0.287,0.149 0.52,0.131 0.042,0.304 -0.02,0.501 -0.13,0.653 h -0.39 c -0.299,-0.287 -0.211,-0.434 0,-0.784 m -58.586,0.393 c 0.187,-0.032 0.221,-0.215 0.391,-0.262 0.032,0.187 0.215,0.22 0.261,0.392 -0.185,0.031 -0.22,0.215 -0.391,0.261 -0.031,-0.186 -0.214,-0.22 -0.261,-0.391 m 52.467,0.653 c -0.436,-0.136 -0.51,-0.777 -0.13,-1.046 0.755,-0.026 0.801,0.951 0.13,1.046 m -22.913,0.262 h 0.261 v 0.26 H 69.106 Z M -9.008,24.211 h 0.26 c 0,0.132 0.106,0.156 0.131,0.261 -0.166,0.007 -0.18,0.168 -0.391,0.131 z M 94.493,23.95 c 0.178,0.167 0.178,0.617 0,0.783 H 94.102 C 93.753,24.495 93.86,23.888 94.493,23.95 m -24.215,0.393 h 0.39 v 0.39 h -0.261 c -0.007,-0.166 -0.166,-0.18 -0.129,-0.39 m -22.263,0.26 c 0.227,-0.009 0.405,0.029 0.52,0.13 0.04,0.345 -0.179,0.43 -0.52,0.393 z m 68.349,0.261 c 0.166,-0.312 0.425,-0.532 0.912,-0.521 -0.016,0.55 -0.194,0.936 -0.651,1.044 -0.002,-0.259 -0.355,-0.166 -0.261,-0.523 m -39.838,0 h 0.521 c 0.037,0.342 -0.047,0.562 -0.39,0.523 -0.041,-0.177 -0.186,-0.249 -0.131,-0.523 m -31.245,0.523 c 0.332,0.016 0.505,0.19 0.52,0.521 -0.151,0.111 -0.349,0.173 -0.65,0.132 -0.042,-0.304 0.021,-0.502 0.13,-0.653 m 8.462,-0.131 c 0.381,-0.502 1.258,-0.423 1.302,0.391 -0.171,0.749 -1.565,0.704 -1.302,-0.391 m 60.018,1.697 c -0.085,-0.476 0.088,-0.694 0.26,-0.913 h 0.65 c 0.157,0.359 0.284,0.545 0.131,0.913 -0.189,0.193 -0.852,0.193 -1.041,0 m -19.399,-0.26 c 0.369,-0.136 0.543,-0.136 0.912,0 0.27,1.131 -1.181,1.131 -0.912,0 m -115.738,0.654 c 0.224,-0.008 0.334,0.1 0.391,0.259 -0.205,-0.011 -0.452,0.019 -0.391,-0.259 m 140.345,0 h 0.39 v 0.392 h -0.39 z m 20.308,0.13 c 0.344,-0.039 0.428,0.181 0.391,0.522 h -0.391 z m -14.84,0.261 c 0.379,-0.192 0.379,0.583 0,0.391 z m -44.655,0.13 c 0.166,-0.008 0.179,-0.167 0.39,-0.13 0.007,0.225 -0.1,0.334 -0.261,0.391 0,-0.13 -0.105,-0.155 -0.129,-0.261 m 64.573,0 c -0.011,0.358 0.216,0.263 0,0.523 -0.501,0.103 -0.501,-0.625 0,-0.523 m -27.6,0.653 c 0.016,-0.332 0.19,-0.505 0.521,-0.522 0.109,0.151 0.171,0.35 0.13,0.652 -0.302,0.042 -0.5,-0.02 -0.651,-0.13 M 65.33,27.868 c 0.18,0.212 0.461,0.321 0.391,0.783 -0.101,0.03 -0.151,0.111 -0.13,0.262 -1.076,0.699 -1.455,-1.145 -0.261,-1.045 m 70.433,1.045 v 0.524 c -0.668,0.168 -0.606,-0.64 0,-0.524 m -40.88,0.524 c -0.642,-0.229 -0.639,-1.323 -0.13,-1.699 1.018,-0.151 1.451,0.285 1.302,1.306 -0.45,0.22 -0.481,0.276 -1.172,0.393 M 63.507,28.783 c 0.773,-0.095 0.773,0.747 0,0.654 -0.167,-0.173 -0.167,-0.482 0,-0.654 m -1.432,0.522 c 0.247,0.028 0.288,-0.147 0.521,-0.13 0.179,0.166 0.179,0.616 0,0.783 h -0.39 c -0.109,-0.15 -0.172,-0.35 -0.131,-0.653 m 59.367,1.568 c -0.04,-0.344 0.181,-0.43 0.521,-0.392 v 0.522 c -0.227,0.01 -0.405,-0.029 -0.521,-0.13 m -8.723,0 v 0.652 h -0.651 c -0.092,-0.527 0.126,-0.745 0.651,-0.652 M 18.592,30.481 c 0.321,-0.018 0.628,-0.02 0.781,0.13 -0.006,0.181 0.062,0.287 0.13,0.392 -0.228,0.906 -1.499,0.365 -0.911,-0.522 m -5.207,-0.915 c 1.172,0.248 0.862,2.418 -0.521,2.09 -1.716,-0.406 -0.645,-2.337 0.521,-2.09 m -2.735,1.959 c 0.151,-0.109 0.35,-0.171 0.652,-0.129 0.167,0.782 -0.682,0.762 -0.652,0.129 m -17.706,0 c 0.342,-0.036 0.561,0.048 0.521,0.393 -0.166,0.008 -0.179,0.167 -0.39,0.131 -0.041,-0.177 -0.185,-0.251 -0.131,-0.524 m 130.841,0.262 c 0.193,0.067 0.329,0.193 0.521,0.262 v 0.653 c -0.826,0.947 -1.741,-0.774 -0.521,-0.915 M 7.657,32.962 c -0.06,-0.407 0.278,-0.417 0.65,-0.391 0.146,0.529 -0.4,0.646 -0.65,0.391 m 79.675,0.523 c 0.095,1.615 -2.096,0.67 -1.041,-0.391 0.559,-0.083 0.838,0.116 1.041,0.391 m -54.939,0.784 c 0.04,0.177 0.185,0.25 0.13,0.523 h -0.521 c -0.037,-0.341 0.047,-0.563 0.391,-0.523 m 26.428,1.045 c -0.041,-0.579 0.543,-1.025 1.041,-0.654 0.063,0.412 -0.186,0.511 -0.26,0.785 -0.321,0.017 -0.628,0.019 -0.781,-0.131 m -37.104,0.131 c -0.169,-0.516 0.477,-0.316 0.13,-0.653 0.492,-0.19 0.25,0.358 0.651,0.261 0.032,0.439 -0.484,0.675 -0.781,0.392 m 14.972,0.131 c -0.029,-0.248 0.146,-0.29 0.129,-0.523 0.302,-0.041 0.5,0.021 0.652,0.131 0.062,0.41 -0.163,0.534 -0.391,0.653 -0.034,-0.184 -0.286,-0.149 -0.39,-0.261 m 24.345,0 h 0.521 c 0.102,0.501 -0.624,0.501 -0.521,0 m -2.604,0 c 0.04,0.344 -0.181,0.428 -0.521,0.391 -0.105,-0.467 0.278,-0.649 0.521,-0.391 m 21.352,0 c -0.154,1.152 -2.863,1.071 -2.083,-0.784 0.883,-0.629 2.197,-0.078 2.083,0.784 m -43.614,0.261 c 1.354,0.195 -0.48,1.159 0,0 m 45.175,0.653 c -0.051,-0.531 0.049,-0.91 0.521,-0.914 0.417,0.017 0.574,0.296 0.522,0.782 -0.333,0.342 -0.761,0.245 -1.043,0.132 m 24.477,-1.176 c 0.537,0 1.162,0.586 0.78,1.437 -1.673,1.198 -2.294,-1.437 -0.78,-1.437 M 63.378,36.62 c 0.039,0.344 -0.18,0.43 -0.521,0.392 -0.107,-0.467 0.276,-0.649 0.521,-0.392 m 6.9,-0.262 c 0.174,-0.232 0.753,-0.403 1.041,-0.129 -0.006,0.178 0.061,0.287 0.13,0.391 -0.143,0.618 -1.364,0.783 -1.171,-0.262 M 53.354,36.49 c 0.281,0.298 0.046,0.816 -0.392,0.782 -0.241,-0.256 -0.194,-0.96 0.392,-0.782 m -18.097,0.782 c -0.115,0.102 -0.372,-0.079 -0.391,-0.129 -0.184,-0.494 0.648,-0.093 0.391,0.129 m 58.585,-1.043 c 0.173,0.218 0.345,0.437 0.26,0.914 -0.939,1.081 -1.85,-1.145 -0.26,-0.914 m 31.506,0.653 c 0.206,0.194 0.19,0.744 -0.261,0.652 -0.206,-0.194 -0.191,-0.744 0.261,-0.652 M 88.503,36.62 c 0.107,-0.932 0.443,-1.521 1.172,-1.567 2.169,-0.138 0.916,3.592 -1.041,1.959 l 0.065,-0.239 z m -0.065,0.24 0.196,0.152 c 0.017,0.973 -1.667,1.114 -1.302,-0.261 0.418,-0.231 0.657,-0.254 1.171,-0.131 z m -75.313,0.674 c 0.172,-0.169 0.484,-0.172 0.52,0.131 -0.173,0.17 -0.484,0.172 -0.52,-0.131 m 16.403,0.654 h 0.261 v 0.262 h -0.261 z m 105.844,-0.916 c 0.652,0.04 0.893,0.88 0.26,1.439 -1.557,0.154 -1.183,-1.491 -0.26,-1.439 m -29.293,0.393 c 0.234,-1.181 2.452,-0.436 1.432,0.915 -1.064,0.45 -1.564,-0.244 -1.432,-0.915 M 77.568,38.58 c -0.091,-0.452 0.457,-0.47 0.651,-0.262 0.091,0.453 -0.456,0.469 -0.651,0.262 m -13.8,-1.046 c 0.277,-1.445 2.629,-1.013 2.344,0.654 -0.1,0.583 -0.462,1.083 -1.432,0.784 -0.614,-0.189 -1.075,-0.585 -0.912,-1.438 m -3.516,0.654 c 0.821,-0.2 1.077,0.368 0.782,0.915 -0.77,0.15 -1.084,-0.36 -0.782,-0.915 m -2.603,0.13 c 0.315,-0.277 1.02,-0.154 0.912,0.393 -0.146,0.627 -1.122,0.419 -0.912,-0.393 m -20.57,0.523 h 0.261 v 0.262 H 37.079 Z M 21.066,38.45 c 0.567,1.148 -1.27,0.225 0,0 m 89.7,-1.96 c 1.661,0.177 1.992,2.244 0.781,3.004 h -1.432 c -0.756,-0.807 -1.627,-1.502 -2.213,-2.482 0.169,-0.953 1.886,-0.627 2.864,-0.522 m -27.991,2.482 c 0.272,0.259 0.005,0.556 -0.26,0.652 -0.206,-0.194 -0.19,-0.745 0.26,-0.652 m -6.9,0.522 c 0.199,-0.201 0.893,-0.232 0.782,0.26 -0.386,0.173 -0.643,0.117 -0.782,-0.26 m -48.43,0.13 c 0.501,-0.103 0.501,0.626 0,0.523 0.013,-0.357 -0.216,-0.262 0,-0.523 m 35.151,-0.261 c 0.002,0.26 0.356,0.165 0.261,0.523 -0.031,0.186 -0.214,0.22 -0.261,0.391 -0.774,0.008 -0.774,-0.922 0,-0.914 m 80.327,-1.96 c 0.2,-0.853 1.541,-1.699 2.343,-1.697 2.87,0.004 2.562,4.652 0.261,4.571 -1.857,0.387 -2.973,-1.295 -2.604,-2.874 m -95.689,2.613 h 0.26 c 0.146,0.189 0.141,0.319 -0.129,0.392 -0.008,-0.167 -0.168,-0.18 -0.131,-0.392 m 46.348,-0.913 c 1.082,-0.094 0.768,1.874 -0.261,1.305 -0.683,-0.378 -0.442,-1.245 0.261,-1.305 m -63.143,1.566 c -0.034,-0.426 0.154,-0.629 0.52,-0.653 0.229,0.12 0.454,0.244 0.392,0.653 -0.356,0.256 -0.556,0.256 -0.912,0 m 44.395,-0.261 c 0.302,-0.042 0.5,0.022 0.651,0.131 0.107,0.369 -0.183,0.339 -0.13,0.653 h -0.521 c -0.178,-0.166 -0.178,-0.617 0,-0.784 m -27.469,0.261 c 0.09,0.483 -0.207,0.579 -0.652,0.523 -0.015,-0.546 0.255,-0.712 0.652,-0.523 m 7.68,0.393 h 0.261 v 0.262 h -0.261 z m 41.922,-0.654 c 0.461,1.301 -1.817,1.798 -1.563,0.261 0.048,-0.286 0.199,-0.281 0.39,-0.653 0.559,-0.17 1.139,0.298 1.173,0.392 m -64.835,1.177 v -0.262 c 0.079,-0.008 0.154,-0.019 0.13,-0.131 h 0.261 c 0.007,0.08 0.019,0.155 0.13,0.131 v 0.262 c -0.079,0.007 -0.154,0.019 -0.13,0.13 h -0.261 c -0.007,-0.08 -0.019,-0.154 -0.13,-0.13 m 32.678,0.262 c 0.174,-0.234 0.753,-0.406 1.041,-0.132 v 0.653 c -0.409,0.399 -1.117,0.245 -1.041,-0.521 m -25.258,0.259 c 0.241,-0.513 1.06,-0.874 1.563,-0.391 0.242,0.943 -1.481,1.324 -1.563,0.391 m 37.365,0.393 c 0.302,-0.042 0.5,0.021 0.651,0.129 0.076,0.851 -1.09,0.451 -0.651,-0.129 m -5.858,-0.262 c 0.248,-0.055 0.327,-0.281 0.651,-0.261 0.295,0.095 0.389,0.392 0.521,0.652 -0.227,0.643 -1.423,0.749 -1.172,-0.391 m -39.187,0 c 0.254,0.357 0.254,0.557 0,0.914 -0.998,0.238 -0.998,-1.152 0,-0.914 M 5.313,41.453 c 1.32,-0.204 1.637,2.373 -0.13,1.698 -1.273,-0.485 -0.292,-1.632 0.13,-1.698 m 55.721,0.915 c 0.395,-0.178 1.073,-0.211 1.302,0.131 v 0.783 c -0.637,0.367 -1.544,0.022 -1.302,-0.914 m 20.44,1.044 c 0.246,0.029 0.287,-0.147 0.521,-0.13 0.027,0.147 0.144,0.203 0.26,0.262 0.054,0.658 -0.98,0.685 -0.781,-0.132 M 0.366,43.936 c 0.355,-0.095 0.261,0.259 0.521,0.261 -0.026,0.96 -1.191,0.149 -0.521,-0.261 m 77.463,-0.524 c 0.264,-1.029 2.358,-1.042 2.603,0.262 -0.444,1.549 -3.036,1.424 -2.603,-0.262 m -27.991,0.524 c 0.589,-0.07 0.85,0.191 0.781,0.784 -0.507,0.466 -1.282,-0.241 -0.781,-0.784 m -33.199,0.522 c 0.191,-0.768 1.489,-0.626 1.303,0.393 -0.102,0.028 -0.152,0.108 -0.13,0.259 -0.555,0.283 -1.214,0.042 -1.173,-0.652 m 8.072,0.652 c 0.224,-0.006 0.333,0.102 0.39,0.262 -0.204,-0.012 -0.451,0.018 -0.39,-0.262 m 12.368,-0.39 c 0.175,-0.234 0.753,-0.407 1.042,-0.131 0.351,1.109 -1.283,1.232 -1.042,0.131 m 39.968,0.522 c 0.227,-0.011 0.405,0.029 0.521,0.13 -0.016,0.332 -0.19,0.507 -0.521,0.523 -0.167,-0.171 -0.167,-0.482 0,-0.653 m -12.108,0.913 c -0.094,-0.355 0.26,-0.261 0.261,-0.522 0.571,-0.006 0.774,0.355 1.172,0.522 -0.708,-0.034 -0.972,0.446 -1.433,0 m -42.441,0.654 v 0.393 h -0.391 c -0.023,-0.285 0.107,-0.417 0.391,-0.393 m 4.688,2.612 c 0.168,0.175 0.17,0.487 -0.131,0.523 -0.17,-0.173 -0.172,-0.486 0.131,-0.523 m -8.984,1.178 c -0.115,0.099 -0.371,-0.083 -0.39,-0.133 -0.186,-0.491 0.647,-0.093 0.39,0.133 m 40.359,-0.133 c 0.09,-0.744 1.243,-1.033 1.821,-0.522 0.316,1.235 -1.708,1.609 -1.821,0.522 m 21.09,0.262 c -0.071,0.19 0.153,0.674 -0.13,0.653 -0.022,-0.378 -0.531,-0.596 0.13,-0.653 m -18.617,0.914 c 0.091,0.483 -0.206,0.577 -0.652,0.522 -0.166,-0.573 0.329,-0.831 0.652,-0.522 m 41.14,0 c 0.388,-0.509 1.263,-0.205 1.302,0.392 -0.367,0.397 -1.477,0.67 -1.302,-0.392 M 76.397,51.511 c 0.397,-0.094 0.474,0.135 0.78,0.131 v 0.784 c -0.73,0.601 -1.482,-0.439 -0.78,-0.915 m 28.055,0.718 0.065,-0.195 c 0.531,-0.387 1.42,-0.176 1.433,0.654 -0.58,0.434 -1.469,0.224 -1.694,-0.392 z m 11.262,1.373 v 0.13 c -0.329,0.575 -2.001,0.659 -1.693,-0.522 0.394,-0.894 1.687,-0.421 1.823,0.392 z m -42.051,0.652 c 0.13,0.436 -0.182,0.429 -0.521,0.392 -0.039,-0.343 0.18,-0.428 0.521,-0.392 M 2.97,54.515 C 3.834,52.172 7.933,54.074 6.355,56.346 6.03,56.812 4.94,57.256 4.011,56.867 3.062,56.583 2.671,55.325 2.97,54.515 m 49.992,2.09 c 0.056,0.907 -1.689,1.235 -1.432,-0.391 0.704,-0.507 1.397,-0.183 1.432,0.391 m 69.586,1.634 -0.195,-0.066 c 0.665,-0.821 -0.088,-1.186 -0.261,-2.089 -0.153,-0.804 0.165,-1.333 -0.39,-1.438 1.114,-0.22 1.165,-1.125 2.083,-1.305 3.067,-0.605 4.021,3.363 1.432,4.309 -0.488,-0.266 -1.404,0.155 -2.083,0.131 -0.131,0.261 -0.225,0.559 -0.52,0.654 z m -82.605,2.808 c -0.125,-3.078 4.661,-1.821 3.645,0.654 -0.346,0.845 -1.727,1.043 -2.212,0.913 -1.014,-0.271 -1.406,-0.896 -1.433,-1.567 m 9.504,2.481 c 0.529,-0.05 0.907,0.048 0.912,0.524 -0.099,0.337 -0.416,0.453 -0.912,0.391 -0.186,-0.173 -0.186,-0.74 0,-0.915 m 3.125,16.198 h 0.391 v -0.392 h -0.391 z"
             style="fill:#262626;fill-opacity:1;fill-rule:evenodd;stroke:none"
             id="path82"
             inkscape:connector-curvature="0" />
        </g>
      </g>
    </g>
  </g>
</svg>
