<?xml version="1.0" encoding="UTF-8" standalone="no"?>
<!-- Created with Inkscape (http://www.inkscape.org/) -->

<svg
   xmlns:dc="http://purl.org/dc/elements/1.1/"
   xmlns:cc="http://creativecommons.org/ns#"
   xmlns:rdf="http://www.w3.org/1999/02/22-rdf-syntax-ns#"
   xmlns:svg="http://www.w3.org/2000/svg"
   xmlns="http://www.w3.org/2000/svg"
   xmlns:sodipodi="http://sodipodi.sourceforge.net/DTD/sodipodi-0.dtd"
   xmlns:inkscape="http://www.inkscape.org/namespaces/inkscape"
   width="68.013283mm"
   height="47.873848mm"
   viewBox="0 0 68.013283 47.873848"
   version="1.1"
   id="svg3936"
   inkscape:version="0.92.2 2405546, 2018-03-11"
   sodipodi:docname="paint-big02.svg">
  <defs
     id="defs3930">
    <clipPath
       clipPathUnits="userSpaceOnUse"
       id="clipPath138">
      <path
         d="M 0,600 H 600 V 0 H 0 Z"
         id="path136"
         inkscape:connector-curvature="0" />
    </clipPath>
  </defs>
  <sodipodi:namedview
     id="base"
     pagecolor="#ffffff"
     bordercolor="#666666"
     borderopacity="1.0"
     inkscape:pageopacity="0.0"
     inkscape:pageshadow="2"
     inkscape:zoom="0.35"
     inkscape:cx="8.5714278"
     inkscape:cy="559.99998"
     inkscape:document-units="mm"
     inkscape:current-layer="layer1"
     showgrid="false"
     fit-margin-top="0"
     fit-margin-left="0"
     fit-margin-right="0"
     fit-margin-bottom="0"
     inkscape:window-width="3840"
     inkscape:window-height="2095"
     inkscape:window-x="0"
     inkscape:window-y="0"
     inkscape:window-maximized="1" />
  <metadata
     id="metadata3933">
    <rdf:RDF>
      <cc:Work
         rdf:about="">
        <dc:format>image/svg+xml</dc:format>
        <dc:type
           rdf:resource="http://purl.org/dc/dcmitype/StillImage" />
        <dc:title></dc:title>
      </cc:Work>
    </rdf:RDF>
  </metadata>
  <g
     inkscape:label="Layer 1"
     inkscape:groupmode="layer"
     id="layer1"
     transform="translate(-2.1306271e-7,-249.12615)">
    <g
       transform="matrix(0.35277777,0,0,-0.35277777,-73.43674,457.26517)"
       id="g132">
      <g
         id="g134"
         clip-path="url(#clipPath138)">
        <g
           id="g140"
           transform="translate(275.5537,473.2407)">
          <path
             d="m 0,0 c -0.027,-0.057 0.007,-0.095 0.063,-0.122 0.056,-0.029 0.135,0.024 0.164,0.081 L 0.354,0.208 C 0.327,0.152 0.265,0.142 0.208,0.17 0.152,0.199 0.137,0.28 0.164,0.337 Z M 22.11,4.309 21.861,4.238 21.542,4.164 C 21.495,4.152 21.446,4.103 21.457,4.056 c 0.011,-0.048 0.04,-0.081 0.087,-0.07 l 0.373,0.084 0.226,0.064 c 0.046,0.014 0.081,0.064 0.067,0.112 -0.013,0.046 -0.052,0.075 -0.1,0.063 M 31.033,9.483 30.177,8.815 28.916,7.798 C 28.878,7.767 28.877,7.714 28.907,7.675 c 0.031,-0.039 0.091,-0.041 0.13,-0.01 l 1.247,1.006 0.863,0.673 c 0.04,0.031 0.045,0.085 0.014,0.124 -0.03,0.039 -0.089,0.045 -0.128,0.015 m -2.29,-4.6 C 28.621,4.861 28.541,4.73 28.563,4.607 l 0.058,-0.329 0.036,-0.244 c 0.02,-0.124 0.135,-0.202 0.257,-0.183 0.124,0.02 0.207,0.142 0.188,0.265 L 29.066,4.341 29.002,4.713 C 28.98,4.837 28.867,4.905 28.743,4.883 M 29.168,2.25 C 29.046,2.222 28.97,2.098 28.997,1.976 29.136,1.377 29.21,0.894 29.236,0.406 29.242,0.28 29.349,0.184 29.475,0.189 c 0.126,0.008 0.222,0.115 0.214,0.241 -0.025,0.516 -0.102,1.026 -0.248,1.649 -0.028,0.124 -0.15,0.2 -0.273,0.171 m -54.477,17.389 c -0.195,-0.193 -0.454,-0.432 -0.711,-0.572 -0.04,-0.023 -0.054,-0.073 -0.033,-0.112 0.022,-0.041 0.072,-0.056 0.112,-0.035 0.276,0.151 0.545,0.399 0.748,0.599 0.033,0.032 0.033,0.085 0.001,0.118 -0.032,0.032 -0.085,0.032 -0.117,0.002 m -1.517,-1.144 c -0.75,-1.013 -1.699,-1.965 -2.706,-2.974 l -1.145,-1.161 c -1.821,-1.899 -3.137,-3.579 -4.141,-5.288 -1.038,-1.765 -2.304,-3.922 -0.906,-6.1 0.045,-0.068 0.134,-0.087 0.201,-0.044 0.067,0.044 0.086,0.134 0.044,0.202 -1.302,2.027 -0.085,4.098 0.891,5.761 1.012,1.722 2.315,3.386 4.121,5.267 l 1.14,1.157 c 1.014,1.017 1.973,1.976 2.735,3.007 0.048,0.064 0.035,0.156 -0.03,0.203 -0.065,0.049 -0.156,0.035 -0.204,-0.03 m 5.695,5.008 -1.216,-1.018 c -0.735,-0.595 -1.493,-1.21 -2.149,-1.918 -0.06,-0.066 -0.056,-0.17 0.01,-0.23 0.065,-0.061 0.168,-0.056 0.228,0.009 0.639,0.691 1.389,1.3 2.114,1.887 l 1.227,1.027 c 0.069,0.057 0.074,0.157 0.017,0.225 -0.056,0.07 -0.163,0.076 -0.231,0.018 m 131.064,0.185 -0.873,-0.439 c -0.091,-0.045 -0.118,-0.151 -0.072,-0.243 0.046,-0.092 0.166,-0.123 0.259,-0.078 l 0.412,0.207 0.463,0.233 c 0.092,0.046 0.117,0.152 0.07,0.244 -0.045,0.091 -0.167,0.122 -0.259,0.076 m -61.784,0.035 c -0.027,-0.039 -0.016,-0.092 0.022,-0.119 0.232,-0.162 0.433,-0.131 0.584,-0.084 0.045,0.013 0.07,0.061 0.057,0.106 -0.015,0.045 -0.062,0.071 -0.108,0.057 -0.116,-0.036 -0.257,-0.063 -0.436,0.061 -0.039,0.027 -0.092,0.017 -0.119,-0.021 m 66.854,2.846 c -0.156,-0.172 -0.376,-0.282 -0.608,-0.4 -0.256,-0.127 -0.52,-0.259 -0.707,-0.482 -0.062,-0.074 -0.053,-0.181 0.019,-0.243 0.072,-0.061 0.18,-0.052 0.242,0.02 0.144,0.169 0.364,0.281 0.597,0.398 0.252,0.126 0.512,0.257 0.71,0.475 0.064,0.07 0.059,0.179 -0.01,0.243 -0.071,0.064 -0.179,0.059 -0.243,-0.011 M 7.675,44.967 7.266,44.833 C 7.064,44.755 6.874,44.683 6.671,44.677 6.623,44.675 6.585,44.635 6.587,44.587 6.588,44.539 6.628,44.5 6.676,44.502 c 0.233,0.007 0.445,0.088 0.652,0.167 l 0.384,0.128 c 0.047,0.015 0.08,0.067 0.064,0.112 -0.015,0.047 -0.056,0.073 -0.101,0.058 m 57.962,28.917 c -0.208,-0.386 -0.36,-0.815 -0.505,-1.227 -0.016,-0.045 0.007,-0.096 0.052,-0.111 0.045,-0.015 0.093,0.01 0.11,0.053 0.144,0.407 0.291,0.828 0.494,1.202 0.022,0.042 0.007,0.094 -0.035,0.116 -0.041,0.023 -0.094,0.008 -0.116,-0.033 m -1.102,-2.417 -0.115,-0.254 -0.687,-1.58 c -0.021,-0.045 0.002,-0.096 0.047,-0.117 0.046,-0.02 0.102,0.005 0.122,0.051 l 0.684,1.57 0.116,0.253 c 0.022,0.047 0.001,0.101 -0.045,0.122 -0.046,0.021 -0.099,0.001 -0.122,-0.045 m 24.16,30.525 -0.817,-0.522 -0.344,-0.205 c -0.039,-0.024 -0.051,-0.075 -0.027,-0.114 0.023,-0.04 0.076,-0.052 0.115,-0.029 l 0.34,0.204 0.832,0.532 c 0.039,0.024 0.045,0.072 0.02,0.111 -0.024,0.039 -0.08,0.047 -0.119,0.023 m -59.503,-84.2 c -0.063,-0.002 -0.113,-0.055 -0.111,-0.119 0.008,-0.274 0.061,-0.659 0.431,-0.831 0.057,-0.026 0.125,-0.002 0.152,0.056 0.025,0.057 10e-4,0.125 -0.056,0.151 -0.2,0.093 -0.29,0.282 -0.298,0.631 -0.002,0.064 -0.055,0.114 -0.118,0.112 m 1.99,2.514 -0.744,-0.52 c -0.502,-0.329 -1.023,-0.67 -1.387,-1.18 -0.029,-0.04 -0.02,-0.095 0.02,-0.123 0.039,-0.029 0.094,-0.019 0.122,0.02 0.345,0.483 0.851,0.814 1.341,1.135 l 0.758,0.53 c 0.04,0.027 0.045,0.08 0.018,0.12 -0.029,0.039 -0.088,0.046 -0.128,0.018 m -3.441,-0.21 c -0.044,-0.039 -0.048,-0.105 -0.009,-0.149 0.332,-0.371 0.546,-0.749 0.632,-1.124 0.013,-0.056 0.07,-0.091 0.126,-0.078 0.057,0.013 0.092,0.07 0.079,0.127 -0.095,0.408 -0.324,0.818 -0.681,1.216 -0.037,0.043 -0.105,0.047 -0.147,0.008 m -4.993,3.364 c -0.084,-0.019 -0.136,-0.102 -0.118,-0.185 0.019,-0.084 0.102,-0.137 0.186,-0.118 1.129,0.256 2.303,-0.14 3.583,-1.211 0.066,-0.055 0.164,-0.047 0.217,0.02 0.055,0.065 0.047,0.163 -0.017,0.218 -1.342,1.122 -2.639,1.55 -3.851,1.276 m 2.685,-6.244 c -0.328,-0.068 -0.7,-0.068 -1.08,10e-4 -0.123,0.022 -0.24,-0.06 -0.262,-0.181 -0.023,-0.124 0.059,-0.242 0.181,-0.263 0.437,-0.08 0.87,-0.08 1.252,0.001 0.122,0.025 0.201,0.144 0.174,0.267 -0.024,0.122 -0.144,0.2 -0.265,0.175 m -5.206,2.103 c -0.075,-0.094 -0.016,-0.26 0.078,-0.338 l 0.344,-0.285 c 0.133,-0.137 0.284,-0.293 0.493,-0.385 -0.113,0.048 -0.162,0.18 -0.113,0.292 0.05,0.111 0.18,0.161 0.29,0.112 -0.129,0.057 -0.238,0.171 -0.355,0.289 l -0.474,0.377 c -0.094,0.077 -0.186,0.033 -0.263,-0.062 M 22,21.953 c -0.02,-0.07 0.01,-0.139 0.08,-0.158 l 0.258,-0.071 c 0.164,-0.036 0.319,-0.073 0.419,-0.185 0.048,-0.054 0.131,-0.059 0.185,-0.011 0.054,0.049 0.058,0.132 0.01,0.185 -0.155,0.176 -0.368,0.224 -0.556,0.268 l -0.224,0.061 C 22.102,22.061 22.019,22.023 22,21.953 m -2.723,0.834 c -0.01,-0.123 0.082,-0.204 0.207,-0.215 0.122,-0.01 0.231,0.109 0.243,0.233 l 0.043,0.53 c -0.009,-0.124 -0.115,-0.189 -0.239,-0.178 -0.122,0.01 -0.211,0.146 -0.2,0.27 z m 9.068,-4.449 -0.122,-0.081 c -0.256,-0.164 -0.52,-0.335 -0.803,-0.422 -0.046,-0.014 -0.072,-0.064 -0.06,-0.11 0.016,-0.048 0.065,-0.074 0.112,-0.06 0.306,0.095 0.582,0.273 0.845,0.443 l 0.124,0.08 c 0.04,0.026 0.053,0.081 0.027,0.123 -0.027,0.041 -0.081,0.053 -0.123,0.027 m -14.412,7.304 c -0.036,-0.016 -0.053,-0.058 -0.037,-0.095 0.091,-0.217 0.253,-0.4 0.412,-0.579 0.234,-0.263 0.456,-0.512 0.457,-0.855 0,-0.041 0.033,-0.073 0.072,-0.073 0.039,0 0.072,0.033 0.072,0.073 0,0.399 -0.251,0.68 -0.492,0.952 -0.158,0.178 -0.305,0.344 -0.387,0.538 -0.016,0.038 -0.059,0.055 -0.097,0.039 m 2.327,-2.777 c -0.037,-0.019 -0.052,-0.065 -0.033,-0.103 0.19,-0.387 0.582,-0.674 0.898,-0.905 0.033,-0.024 0.08,-0.017 0.105,0.018 0.025,0.033 0.018,0.08 -0.015,0.106 -0.303,0.221 -0.679,0.497 -0.852,0.849 -0.019,0.038 -0.065,0.054 -0.103,0.035 M 28.591,14.978 C 26.781,12.25 24.682,9.649 22.652,7.134 L 20.438,4.365 c -0.081,-0.1 -0.063,-0.244 0.037,-0.324 0.098,-0.081 0.246,-0.064 0.326,0.036 l 2.211,2.764 c 2.037,2.523 4.142,5.135 5.964,7.88 0.07,0.107 0.042,0.251 -0.066,0.322 -0.106,0.071 -0.251,0.042 -0.319,-0.065 M 20.128,4.076 19.632,3.618 19.065,3.12 C 18.974,3.041 18.936,2.882 19.016,2.79 c 0.08,-0.092 0.19,-0.123 0.281,-0.043 l 0.649,0.563 0.445,0.414 c 0.091,0.081 0.112,0.235 0.03,0.324 -0.083,0.09 -0.204,0.11 -0.293,0.028 M 18.812,2.708 c -4.47,-5.011 -9.757,-9.48 -15.714,-13.285 -0.066,-0.043 -0.085,-0.131 -0.043,-0.198 0.042,-0.066 0.13,-0.086 0.196,-0.044 5.979,3.819 11.286,8.305 15.773,13.335 0.053,0.059 0.048,0.15 -0.01,0.203 -0.059,0.053 -0.15,0.048 -0.202,-0.011 M -0.523,-1.098 c -0.125,-0.072 -0.224,-0.153 -0.329,-0.33 -0.032,-0.051 -0.015,-0.116 0.036,-0.147 0.05,-0.031 0.116,-0.015 0.147,0.036 0.084,0.139 0.154,0.196 0.254,0.255 0.051,0.03 0.068,0.096 0.039,0.147 -0.031,0.052 -0.097,0.07 -0.147,0.039 M -1.646,-2.615 C -1.871,-3.1 -2.185,-3.55 -2.486,-3.987 l -0.54,-0.812 c -0.028,-0.043 -0.015,-0.097 0.027,-0.125 0.043,-0.029 0.103,-0.014 0.13,0.028 l 0.533,0.805 c 0.308,0.442 0.624,0.9 0.856,1.399 0.022,0.046 0.002,0.1 -0.044,0.122 -0.045,0.022 -0.1,0.002 -0.122,-0.045 m -2.885,-4.177 c -0.211,-0.256 -0.361,-0.546 -0.507,-0.826 l -0.374,-0.645 c -0.045,-0.077 -0.026,-0.19 0.051,-0.235 0.077,-0.045 0.167,-0.032 0.213,0.045 l 0.397,0.683 c 0.145,0.279 0.282,0.541 0.471,0.772 0.057,0.069 0.047,0.171 -0.022,0.228 -0.069,0.058 -0.172,0.047 -0.229,-0.022 M 1.074,2.863 C 1.044,2.802 1.067,2.729 1.127,2.698 5.478,0.485 10.757,1.472 15.417,2.341 15.482,2.354 15.526,2.417 15.514,2.484 15.501,2.55 15.438,2.593 15.372,2.581 10.751,1.719 5.515,0.74 1.238,2.917 1.178,2.947 1.104,2.923 1.074,2.863 M 9.085,9.772 C 8.66,9.651 8.225,9.623 7.763,9.592 L 7.082,9.536 C 6.948,9.525 6.855,9.407 6.866,9.271 6.877,9.136 7.004,9.036 7.138,9.047 l 0.657,0.054 c 0.468,0.03 0.949,0.062 1.424,0.198 0.13,0.036 0.206,0.173 0.17,0.304 C 9.351,9.733 9.215,9.81 9.085,9.772 M 4.268,8.629 3.254,8.232 C 2.113,7.812 0.933,7.376 0.211,6.242 0.157,6.156 0.182,6.044 0.267,5.99 0.352,5.936 0.462,5.96 0.517,6.046 1.172,7.078 2.245,7.473 3.381,7.89 L 4.414,8.297 C 4.507,8.333 4.546,8.436 4.51,8.529 4.474,8.623 4.361,8.666 4.268,8.629 M -0.745,32.255 C -0.879,32.21 -0.95,32.058 -0.905,31.924 l 0.243,-0.732 c 0.045,-0.135 0.188,-0.201 0.322,-0.156 0.135,0.045 0.205,0.196 0.16,0.332 l -0.243,0.731 c -0.045,0.134 -0.188,0.202 -0.322,0.156 M -4.64,15.176 -4.773,15.157 -5.093,15.148 c -0.112,-0.004 -0.246,-0.092 -0.244,-0.205 0.002,-0.112 0.049,-0.197 0.161,-0.196 l 0.466,0.007 0.102,0.014 c 0.112,0.015 0.202,0.12 0.186,0.231 -0.016,0.111 -0.107,0.192 -0.218,0.177 M 7.11,34.026 5.719,31.77 C 5.036,30.697 4.33,29.588 3.732,28.429 3.675,28.318 3.72,28.181 3.83,28.124 c 0.109,-0.057 0.246,-0.014 0.304,0.098 0.587,1.14 1.287,2.24 1.965,3.304 L 7.5,33.799 c 0.066,0.106 0.03,0.24 -0.075,0.305 -0.108,0.067 -0.249,0.028 -0.315,-0.078 m 3.589,1.525 c -0.096,-0.03 -0.148,-0.142 -0.117,-0.239 l 0.546,-1.726 0.622,-1.933 c 0.03,-0.097 0.131,-0.142 0.229,-0.111 0.097,0.031 0.146,0.145 0.115,0.242 l -0.612,1.907 -0.553,1.747 c -0.031,0.097 -0.133,0.145 -0.23,0.113 M 5.289,25.774 5.028,25.391 4.567,24.758 C 4.537,24.718 4.54,24.654 4.58,24.625 4.619,24.595 4.67,24.597 4.7,24.637 l 0.479,0.655 0.256,0.376 c 0.028,0.042 0.018,0.1 -0.023,0.129 -0.041,0.028 -0.095,0.019 -0.123,-0.023 M 3.364,23.632 3.071,23.339 c -0.056,-0.058 -0.056,-0.15 0,-0.207 0.058,-0.058 0.151,-0.058 0.208,0 l 0.29,0.292 c 0.058,0.057 0.058,0.151 0,0.208 -0.057,0.057 -0.149,0.057 -0.205,0 m 40.627,11.167 c -0.017,-0.349 -0.207,-0.634 -0.408,-0.937 -0.154,-0.235 -0.317,-0.478 -0.408,-0.767 -0.033,-0.103 0.022,-0.213 0.125,-0.246 0.103,-0.035 0.213,0.023 0.246,0.126 0.076,0.237 0.216,0.447 0.363,0.67 0.221,0.333 0.45,0.677 0.472,1.135 0.006,0.108 -0.077,0.2 -0.186,0.206 -0.107,0.005 -0.199,-0.078 -0.204,-0.187 m -1.836,-3.092 c -0.193,-0.126 -0.306,-0.312 -0.417,-0.492 -0.094,-0.153 -0.184,-0.299 -0.313,-0.387 -0.074,-0.05 -0.093,-0.15 -0.044,-0.223 0.05,-0.074 0.149,-0.093 0.222,-0.043 0.188,0.126 0.299,0.309 0.408,0.485 0.095,0.156 0.185,0.304 0.319,0.39 0.074,0.049 0.095,0.148 0.046,0.223 -0.047,0.074 -0.147,0.095 -0.221,0.047 m -2.997,2.62 c -0.066,-0.014 -0.111,-0.078 -0.097,-0.144 0.037,-0.195 0.157,-0.304 0.266,-0.4 l 0.178,-0.212 c 0.044,-0.052 0.14,-0.089 0.191,-0.045 0.053,0.043 0.078,0.091 0.035,0.142 l -0.241,0.299 c -0.093,0.084 -0.167,0.149 -0.188,0.262 -0.013,0.067 -0.077,0.11 -0.144,0.098 m -41.08,2.828 c -0.014,-0.079 0.038,-0.153 0.116,-0.167 0.675,-0.114 1.319,-0.368 1.941,-0.613 l 1.102,-0.406 c 0.075,-0.028 0.15,0.013 0.177,0.088 0.027,0.074 -0.016,0.159 -0.091,0.186 l -1.085,0.399 c -0.634,0.25 -1.291,0.509 -1.995,0.63 -0.078,0.013 -0.152,-0.04 -0.165,-0.117 M 1.312,35.453 C 0.867,34.794 0.204,34.27 -0.436,33.764 l -0.412,-0.33 c -0.059,-0.047 -0.068,-0.133 -0.021,-0.193 0.048,-0.059 0.136,-0.068 0.194,-0.021 l 0.41,0.327 c 0.656,0.52 1.335,1.057 1.805,1.751 0.043,0.062 0.025,0.148 -0.037,0.19 -0.063,0.044 -0.148,0.027 -0.191,-0.035 m 13.5,4.455 c -0.12,-0.014 -0.207,-0.123 -0.192,-0.243 0.038,-0.343 -0.027,-0.68 -0.097,-1.034 l -0.098,-0.6 c -0.019,-0.119 0.062,-0.22 0.182,-0.239 0.119,-0.02 0.232,0.074 0.252,0.193 l 0.094,0.562 c 0.072,0.372 0.148,0.757 0.101,1.167 -0.013,0.121 -0.121,0.207 -0.242,0.194 m 1.565,-2.293 c -0.103,-0.466 -0.324,-0.898 -0.562,-1.356 l -0.492,-1.086 c -0.049,-0.108 0.006,-0.215 0.113,-0.264 0.107,-0.05 0.243,0.017 0.29,0.125 l 0.47,1.028 c 0.238,0.461 0.484,0.939 0.599,1.46 0.025,0.116 -0.046,0.23 -0.163,0.256 -0.115,0.026 -0.228,-0.047 -0.255,-0.163 m -43.783,3.826 c -0.038,-0.064 -0.018,-0.146 0.045,-0.184 2.276,-1.371 4.73,-2.498 7.102,-3.588 l 1.308,-0.602 c 0.066,-0.031 0.147,-0.002 0.177,0.066 0.03,0.067 0.002,0.148 -0.066,0.178 l -1.308,0.603 c -2.365,1.086 -4.812,2.211 -7.076,3.573 -0.063,0.038 -0.145,0.017 -0.182,-0.046 m 47.907,0.117 c -0.089,-0.025 -0.142,-0.119 -0.115,-0.208 0.157,-0.552 0.517,-0.963 0.865,-1.36 l 0.585,-0.752 c 0.057,-0.073 0.174,-0.103 0.247,-0.047 0.074,0.058 0.097,0.146 0.041,0.219 l -0.621,0.802 c -0.337,0.386 -0.658,0.751 -0.795,1.231 -0.026,0.089 -0.12,0.14 -0.207,0.115 m -7.407,0.588 C 12.937,41.64 12.593,41.237 12.229,40.81 l -0.425,-0.519 c -0.051,-0.064 -0.038,-0.151 0.024,-0.204 0.064,-0.051 0.16,-0.037 0.212,0.027 l 0.411,0.504 c 0.367,0.431 0.748,0.877 0.923,1.441 0.023,0.078 -0.02,0.16 -0.098,0.184 -0.077,0.025 -0.158,-0.019 -0.182,-0.097 m 12.839,1.368 c -0.172,-0.33 -0.359,-0.563 -0.57,-0.709 -0.09,-0.065 -0.112,-0.19 -0.049,-0.281 0.063,-0.091 0.189,-0.113 0.279,-0.05 0.264,0.186 0.491,0.464 0.694,0.852 0.051,0.098 0.014,0.22 -0.084,0.271 -0.099,0.052 -0.22,0.014 -0.27,-0.083 M 10.169,43.223 c -0.052,-0.043 -0.061,-0.119 -0.018,-0.173 0.041,-0.051 0.118,-0.06 0.17,-0.018 0.507,0.406 1.295,0.8 1.845,0.568 0.062,-0.027 0.133,0.003 0.16,0.066 0.025,0.061 -0.004,0.132 -0.066,0.158 -0.648,0.273 -1.505,-0.132 -2.091,-0.601 m 5.669,0.978 -0.082,-0.275 c -0.307,-1.001 -0.624,-2.037 -0.797,-3.111 -0.015,-0.094 0.049,-0.183 0.142,-0.198 0.093,-0.015 0.182,0.049 0.197,0.142 0.17,1.053 0.483,2.076 0.786,3.066 l 0.083,0.276 c 0.027,0.091 -0.023,0.187 -0.113,0.214 -0.091,0.029 -0.187,-0.023 -0.216,-0.114 m -1.491,-4.176 -0.451,-0.213 c -0.643,-0.308 -1.309,-0.626 -2.005,-0.803 -0.069,-0.017 -0.11,-0.087 -0.093,-0.155 0.017,-0.068 0.087,-0.11 0.155,-0.092 0.721,0.184 1.398,0.508 2.052,0.819 l 0.449,0.212 c 0.063,0.031 0.09,0.107 0.061,0.171 -0.031,0.063 -0.105,0.091 -0.168,0.061 m 2.277,5.105 c -0.057,-0.06 -0.044,-0.162 0.017,-0.219 l 0.862,-0.813 c 0.324,-0.332 0.66,-0.675 1.037,-0.947 0.068,-0.047 0.161,-0.032 0.208,0.036 0.049,0.067 0.033,0.16 -0.034,0.208 -0.358,0.256 -0.669,0.574 -0.998,0.912 l -0.892,0.838 c -0.059,0.057 -0.144,0.045 -0.2,-0.015 m 0.825,-4.221 C 16.85,40.848 16.262,40.682 15.695,40.521 l -0.453,-0.127 c -0.065,-0.019 -0.104,-0.086 -0.086,-0.153 0.018,-0.065 0.086,-0.103 0.15,-0.084 l 0.456,0.126 c 0.558,0.159 1.134,0.322 1.711,0.382 0.068,0.006 0.116,0.066 0.11,0.135 -0.007,0.068 -0.067,0.117 -0.134,0.109 m 7.822,1.105 c -0.031,-0.035 -0.027,-0.089 0.005,-0.12 0.348,-0.314 0.801,-0.41 1.24,-0.5 0.464,-0.098 0.903,-0.189 1.236,-0.521 0.032,-0.032 0.085,-0.032 0.117,0.001 0.034,0.032 0.033,0.086 0,0.119 -0.367,0.366 -0.851,0.467 -1.319,0.564 -0.436,0.091 -0.848,0.177 -1.161,0.462 -0.035,0.031 -0.088,0.028 -0.118,-0.005 m -2.647,-3.399 c -0.053,-0.046 -0.059,-0.126 -0.012,-0.179 l 0.23,-0.26 c 0.388,-0.439 0.787,-0.892 1.069,-1.4 0.032,-0.061 0.11,-0.085 0.172,-0.05 0.061,0.034 0.084,0.111 0.049,0.174 -0.293,0.531 -0.704,0.995 -1.1,1.445 l -0.227,0.259 c -0.047,0.052 -0.128,0.058 -0.181,0.011 m -1.417,9.87 C 20.785,47.392 20.289,46.309 19.81,45.262 l -0.59,-1.299 c -0.058,-0.129 -0.002,-0.279 0.127,-0.338 0.13,-0.059 0.281,0 0.34,0.128 l 0.587,1.295 c 0.483,1.054 0.981,2.143 1.41,3.252 0.05,0.132 -0.015,0.28 -0.146,0.332 -0.132,0.051 -0.28,-0.014 -0.331,-0.147 m -37.554,-7.401 c -0.153,-0.12 -0.218,-0.291 -0.275,-0.442 l -0.111,-0.241 c -0.022,-0.049 -0.007,-0.119 0.041,-0.143 0.049,-0.023 0.101,-0.013 0.125,0.036 l 0.128,0.278 c 0.053,0.139 0.103,0.27 0.213,0.357 0.042,0.033 0.05,0.094 0.018,0.137 -0.034,0.043 -0.096,0.051 -0.139,0.018 m 1.16,0.172 c -0.098,-0.051 -0.136,-0.171 -0.085,-0.269 0.79,-1.516 0.983,-2.891 0.573,-4.084 -0.036,-0.105 0.017,-0.219 0.122,-0.254 0.103,-0.036 0.217,0.019 0.252,0.124 0.448,1.302 0.249,2.782 -0.595,4.399 -0.051,0.097 -0.17,0.135 -0.267,0.084 m -3.4,-3.986 c -0.037,-0.064 -0.016,-0.145 0.048,-0.183 0.613,-0.352 1.3,-0.511 1.962,-0.666 l 0.621,-0.151 c 0.072,-0.018 0.145,0.026 0.164,0.098 0.017,0.071 -0.024,0.142 -0.096,0.159 l -0.629,0.153 c -0.644,0.151 -1.311,0.305 -1.89,0.639 -0.064,0.036 -0.145,0.014 -0.18,-0.049 m 1.415,2.249 -0.56,-0.882 c -0.296,-0.442 -0.603,-0.897 -0.83,-1.394 -0.021,-0.049 0,-0.105 0.049,-0.128 0.049,-0.022 0.106,0 0.129,0.048 0.218,0.482 0.519,0.931 0.811,1.365 l 0.569,0.894 c 0.028,0.046 0.013,0.101 -0.032,0.13 -0.045,0.029 -0.108,0.011 -0.136,-0.033 m -1.305,-2.019 -0.064,-10e-4 -0.385,-0.015 c -0.162,-0.006 -0.272,-0.143 -0.265,-0.307 0.006,-0.163 0.163,-0.289 0.326,-0.284 l 0.33,0.012 0.066,10e-4 c 0.164,0.002 0.294,0.136 0.292,0.301 -0.002,0.164 -0.136,0.295 -0.3,0.293 m -2.575,8.996 c -0.049,-1.641 1.226,-2.273 2.457,-2.886 0.61,-0.302 1.241,-0.615 1.678,-1.046 0.067,-0.068 0.178,-0.066 0.244,0.002 0.068,0.069 0.067,0.179 -0.002,0.247 -0.476,0.47 -1.131,0.795 -1.765,1.11 -1.187,0.59 -2.307,1.146 -2.264,2.564 0.002,0.095 -0.073,0.175 -0.169,0.178 -0.095,0.003 -0.175,-0.073 -0.179,-0.169 m 30.811,4.166 c -0.041,-0.068 -0.021,-0.156 0.047,-0.197 1.868,-1.148 4.198,-2.714 5.647,-4.644 0.047,-0.063 0.135,-0.077 0.198,-0.029 0.064,0.047 0.076,0.137 0.029,0.2 -1.478,1.97 -3.836,3.555 -5.725,4.716 C 9.887,50.75 9.8,50.729 9.759,50.662 m -41.119,8.094 -0.136,-0.21 c -0.128,-0.209 -0.25,-0.404 -0.423,-0.503 -0.106,-0.06 -0.144,-0.195 -0.084,-0.301 0.06,-0.107 0.195,-0.144 0.3,-0.084 0.271,0.155 0.437,0.42 0.582,0.655 l 0.123,0.193 c 0.065,0.103 0.04,0.244 -0.063,0.311 -0.102,0.065 -0.233,0.041 -0.299,-0.061 M -31.631,49.5 c -0.126,-0.035 -0.201,-0.166 -0.166,-0.293 0.309,-1.128 0.75,-2.216 1.177,-3.27 0.378,-0.936 0.769,-1.902 1.06,-2.878 0.037,-0.126 0.169,-0.197 0.295,-0.161 0.125,0.038 0.197,0.171 0.161,0.297 -0.298,0.999 -0.693,1.976 -1.077,2.922 -0.42,1.04 -0.857,2.115 -1.158,3.217 -0.035,0.126 -0.166,0.2 -0.292,0.166 m 62.953,9.723 c -0.89,-0.672 -1.751,-1.409 -2.584,-2.119 -1.081,-0.927 -2.199,-1.884 -3.39,-2.705 -0.045,-0.031 -0.056,-0.094 -0.026,-0.14 0.032,-0.046 0.094,-0.057 0.14,-0.025 1.199,0.826 2.321,1.787 3.407,2.716 0.83,0.709 1.688,1.444 2.573,2.112 0.044,0.034 0.053,0.097 0.02,0.142 -0.033,0.043 -0.096,0.053 -0.14,0.019 m -7.848,-7.894 c -0.047,-0.021 -0.068,-0.077 -0.046,-0.123 0.021,-0.045 0.075,-0.065 0.121,-0.044 0.118,0.053 0.276,0.075 0.466,0.064 0.051,-0.003 0.095,0.036 0.097,0.087 0.003,0.05 -0.036,0.092 -0.086,0.096 -0.221,0.013 -0.407,-0.015 -0.552,-0.08 m 6.513,2.258 -0.214,-0.581 -0.22,-0.585 c -0.034,-0.088 0.003,-0.207 0.092,-0.24 0.087,-0.035 0.18,-0.009 0.214,0.08 l 0.244,0.642 0.195,0.533 c 0.034,0.089 -0.005,0.204 -0.095,0.238 -0.09,0.033 -0.183,0.002 -0.216,-0.087 m -1.732,-3.972 c -0.233,-0.621 -0.558,-1.212 -0.872,-1.782 l -0.729,-1.429 c -0.038,-0.072 -0.005,-0.154 0.069,-0.191 0.073,-0.038 0.166,-10e-4 0.203,0.071 l 0.717,1.404 c 0.32,0.581 0.65,1.18 0.889,1.822 0.03,0.077 -0.01,0.164 -0.087,0.192 -0.077,0.028 -0.161,-0.012 -0.19,-0.087 m -3.384,-5.992 -0.078,-0.346 -0.022,-0.102 c -0.026,-0.124 0.052,-0.244 0.174,-0.27 0.123,-0.027 0.244,0.051 0.27,0.174 l 0.021,0.106 0.073,0.323 c 0.028,0.122 -0.047,0.251 -0.169,0.279 -0.123,0.028 -0.241,-0.042 -0.269,-0.164 m -4.372,-2.136 c -0.05,-0.026 -0.07,-0.089 -0.043,-0.139 0.026,-0.05 0.087,-0.07 0.138,-0.043 0.863,0.454 2.083,0.556 3.107,0.26 0.055,-0.015 0.112,0.017 0.127,0.07 0.017,0.055 -0.015,0.112 -0.07,0.128 -1.073,0.309 -2.352,0.202 -3.259,-0.276 m -25.724,11.4 c -0.059,-0.05 -0.065,-0.138 -0.015,-0.197 0.05,-0.059 0.138,-0.066 0.196,-0.017 3.018,2.583 6.971,1.551 10.792,0.051 0.072,-0.029 0.152,0.006 0.181,0.079 0.028,0.072 -0.007,0.152 -0.079,0.18 -3.902,1.532 -7.946,2.582 -11.075,-0.096 m 12.13,-0.279 c -0.067,-0.033 -0.093,-0.114 -0.06,-0.18 0.17,-0.34 0.516,-0.478 0.821,-0.601 l 0.122,-0.049 c 0.069,-0.028 0.149,0.006 0.176,0.074 0.029,0.069 -0.003,0.147 -0.072,0.175 l -0.127,0.051 c -0.273,0.11 -0.556,0.223 -0.679,0.47 -0.034,0.067 -0.115,0.093 -0.181,0.06 M 9.359,48.176 C 9.237,48.157 9.153,48.042 9.173,47.918 9.237,47.514 9.229,47.105 9.219,46.672 v -0.775 c 0,-0.125 0.1,-0.217 0.224,-0.217 0.124,0 0.224,0.111 0.225,0.236 l 0.001,0.746 c 0.01,0.435 0.019,0.883 -0.053,1.326 -0.018,0.125 -0.134,0.208 -0.257,0.188 m -0.14,-2.855 v -0.732 c 0,-0.124 0.1,-0.224 0.224,-0.224 0.124,0 0.225,0.1 0.225,0.224 v 0.732 c 0,0.123 -0.101,0.225 -0.225,0.225 -0.124,0 -0.224,-0.102 -0.224,-0.225 m -13.3,-7.234 c -0.002,-0.064 0.045,-0.116 0.107,-0.119 0.264,-0.013 0.495,-0.13 0.743,-0.252 l 0.39,-0.179 c 0.056,-0.027 0.117,0.002 0.142,0.058 0.026,0.057 -0.006,0.128 -0.063,0.154 l -0.369,0.169 c -0.255,0.128 -0.521,0.26 -0.831,0.275 -0.062,0.004 -0.116,-0.044 -0.119,-0.106 m -2.083,1.339 c -0.093,-0.033 -0.14,-0.137 -0.107,-0.231 0.195,-0.521 0.717,-0.757 1.062,-0.912 0.092,-0.041 0.197,-0.001 0.238,0.09 0.041,0.091 0.001,0.197 -0.089,0.238 -0.386,0.174 -0.744,0.359 -0.874,0.71 -0.033,0.093 -0.137,0.14 -0.23,0.105 M 5.766,44.239 1.202,42.52 -4.64,40.318 c -0.619,-0.231 -1.321,-0.49 -1.548,-1.023 -0.02,-0.048 0.002,-0.104 0.049,-0.124 0.048,-0.019 0.104,0.002 0.122,0.05 0.196,0.459 0.857,0.705 1.441,0.922 l 5.842,2.202 4.566,1.718 c 0.049,0.019 0.073,0.073 0.055,0.121 -0.018,0.048 -0.073,0.072 -0.121,0.055 m -13.48,-4.721 c -0.043,-0.125 0.024,-0.263 0.148,-0.306 0.276,-0.095 0.55,-0.108 0.815,-0.12 l 0.589,-0.066 c 0.13,-0.015 0.282,0.073 0.298,0.203 0.015,0.133 -0.046,0.246 -0.177,0.261 l -0.689,0.082 c -0.241,0.011 -0.469,0.021 -0.68,0.094 -0.124,0.043 -0.261,-0.023 -0.304,-0.148 m -7.285,2.163 c -0.01,-0.054 0.027,-0.106 0.081,-0.115 0.719,-0.122 1.45,-0.345 2.155,-0.56 0.65,-0.198 1.322,-0.405 1.997,-0.536 0.054,-0.011 0.107,0.025 0.117,0.078 0.011,0.054 -0.025,0.107 -0.078,0.117 -0.667,0.13 -1.333,0.334 -1.979,0.53 -0.711,0.219 -1.448,0.443 -2.178,0.567 -0.055,0.009 -0.106,-0.027 -0.115,-0.081 m -1.89,3.301 c -0.055,-0.011 -0.092,-0.052 -0.081,-0.107 l 0.159,-0.809 0.132,-0.589 c 0.013,-0.055 0.068,-0.096 0.124,-0.084 0.055,0.012 0.09,0.059 0.078,0.114 l -0.137,0.612 -0.154,0.769 c -0.01,0.056 -0.066,0.104 -0.121,0.094 m -2.209,3.974 c -0.029,-0.064 0.043,-0.151 0.107,-0.18 l 0.27,-0.126 0.384,-0.167 c 0.064,-0.028 0.098,0.012 0.126,0.077 0.028,0.064 -0.042,0.15 -0.105,0.18 l -0.26,0.123 -0.398,0.17 c -0.066,0.028 -0.095,-0.013 -0.124,-0.077 m -2.66,1.543 c -0.073,-0.002 -0.13,-0.064 -0.126,-0.138 0.002,-0.073 0.064,-0.131 0.137,-0.127 0.413,0.016 0.901,-0.173 1.036,-0.568 0.023,-0.07 0.098,-0.106 0.167,-0.083 0.07,0.024 0.106,0.1 0.083,0.169 -0.185,0.541 -0.802,0.767 -1.297,0.747 m -5.997,4.006 c -1.351,-0.165 -2.764,-0.23 -4.196,-0.193 -0.119,0.003 -0.217,-0.091 -0.221,-0.21 -0.002,-0.12 0.091,-0.218 0.21,-0.221 1.453,-0.036 2.886,0.028 4.258,0.196 0.119,0.015 0.203,0.123 0.189,0.241 -0.015,0.118 -0.123,0.202 -0.24,0.187 m -13.203,6.263 c -0.023,-0.142 0.073,-0.274 0.214,-0.297 1.86,-0.298 4.066,-0.608 6.306,-0.636 0.143,-0.002 0.259,0.111 0.261,0.255 0.002,0.143 -0.112,0.261 -0.255,0.263 -2.205,0.028 -4.388,0.335 -6.231,0.63 -0.141,0.023 -0.273,-0.074 -0.295,-0.215 m -2.73,-6.296 c -0.085,-0.078 -0.092,-0.212 -0.014,-0.299 4.195,-4.613 8.944,-8.49 14.118,-11.521 0.099,-0.059 0.229,-0.025 0.287,0.075 0.059,0.102 0.025,0.231 -0.075,0.29 -5.136,3.009 -9.853,6.858 -14.019,11.441 -0.077,0.087 -0.211,0.093 -0.297,0.014 m 15.896,-13.709 c -0.066,-0.034 -0.093,-0.117 -0.059,-0.184 1.09,-2.148 3.602,-5.785 6.103,-5.794 1.166,-0.006 2.166,0.783 2.974,2.341 0.035,0.066 0.008,0.15 -0.059,0.185 -0.067,0.034 -0.149,0.008 -0.184,-0.059 -0.755,-1.46 -1.673,-2.198 -2.73,-2.193 -2.374,0.009 -4.872,3.696 -5.861,5.643 -0.034,0.068 -0.117,0.095 -0.184,0.061 m 11.958,-4.67 -6.928,-2.949 c -3.646,-1.527 -7.416,-3.107 -11.006,-4.805 -0.072,-0.033 -0.104,-0.12 -0.069,-0.193 0.034,-0.072 0.12,-0.104 0.193,-0.069 3.583,1.695 7.351,3.274 10.995,4.8 l 6.931,2.95 c 0.073,0.032 0.107,0.115 0.075,0.19 -0.031,0.074 -0.117,0.107 -0.191,0.076 m -20.589,-8.798 -4.416,-2.01 -7.17,-3.23 c -0.115,-0.051 -0.17,-0.187 -0.118,-0.303 0.052,-0.115 0.183,-0.167 0.298,-0.116 l 7.179,3.233 4.414,2.009 c 0.113,0.053 0.165,0.188 0.113,0.303 -0.051,0.115 -0.185,0.167 -0.3,0.114 m 28.87,12.228 c -1.467,-1.128 -3.384,-1.752 -5.239,-2.355 l -1.561,-0.522 c -0.056,-0.02 -0.084,-0.079 -0.066,-0.135 0.019,-0.055 0.081,-0.084 0.136,-0.066 l 1.556,0.52 c 1.873,0.609 3.808,1.238 5.305,2.389 0.045,0.037 0.054,0.104 0.018,0.15 -0.034,0.047 -0.102,0.056 -0.149,0.019 m 3.455,-2.607 c -0.042,-0.072 -0.019,-0.165 0.052,-0.208 1.062,-0.642 1.688,-1.799 2.294,-2.92 l 0.13,-0.241 c 0.039,-0.073 0.131,-0.099 0.204,-0.06 0.073,0.04 0.1,0.132 0.061,0.205 l -0.131,0.24 c -0.595,1.102 -1.27,2.35 -2.403,3.034 -0.07,0.044 -0.163,0.022 -0.207,-0.05 m 2.37,-4.355 c -4.494,-3.744 -8.524,-8.083 -11.979,-12.898 -0.045,-0.065 -0.031,-0.155 0.034,-0.202 0.064,-0.046 0.154,-0.031 0.201,0.033 3.44,4.795 7.453,9.116 11.928,12.845 0.061,0.05 0.07,0.141 0.02,0.203 -0.051,0.062 -0.143,0.07 -0.204,0.019 m -13.009,-14.072 -0.33,-0.552 c -1.685,-2.819 -3.427,-5.734 -4.443,-8.976 -0.034,-0.105 0.025,-0.215 0.128,-0.248 0.104,-0.032 0.215,0.025 0.247,0.129 1.002,3.199 2.733,6.092 4.406,8.891 l 0.331,0.553 c 0.054,0.094 0.025,0.214 -0.068,0.271 -0.094,0.057 -0.215,0.026 -0.271,-0.068 m 7.674,-21.23 -0.359,-1.009 c -0.265,-0.709 -0.537,-1.442 -0.669,-2.237 -0.017,-0.103 0.052,-0.2 0.156,-0.218 0.103,-0.017 0.202,0.053 0.218,0.157 0.125,0.757 0.391,1.474 0.649,2.165 l 0.364,1.024 c 0.036,0.1 -0.019,0.205 -0.116,0.239 -0.098,0.035 -0.207,-0.023 -0.243,-0.121 m 0.939,-8.174 c -0.041,-0.064 -0.022,-0.148 0.04,-0.189 1.45,-0.954 3.393,-1.305 5.775,-1.045 0.075,0.007 0.129,0.075 0.122,0.15 -0.01,0.075 -0.077,0.129 -0.151,0.121 -2.286,-0.249 -4.221,0.097 -5.596,1.003 -0.064,0.041 -0.148,0.023 -0.19,-0.04 m 35.868,26.078 c -0.066,-0.02 -0.101,-0.088 -0.084,-0.154 0.256,-0.867 0.114,-1.78 -0.02,-2.664 L 29.511,11.4 c -0.01,-0.068 0.038,-0.126 0.105,-0.134 0.067,-0.009 0.13,0.042 0.139,0.109 l 0.127,0.932 c 0.139,0.911 0.284,1.852 0.015,2.773 -0.02,0.064 -0.088,0.102 -0.153,0.083 M 29.042,10.11 C 27.828,7.6 25.614,5.643 22.972,4.745 22.925,4.729 22.901,4.678 22.916,4.631 22.932,4.585 22.982,4.56 23.029,4.576 c 2.686,0.914 4.938,2.903 6.173,5.456 0.021,0.045 0.003,0.098 -0.041,0.12 -0.044,0.021 -0.097,0.002 -0.119,-0.042 M 54.689,52.773 C 51.963,47.616 48.874,41.77 45.257,36.532 c -0.072,-0.105 -0.046,-0.252 0.059,-0.325 0.106,-0.074 0.251,-0.047 0.326,0.059 3.63,5.26 6.727,11.118 9.461,16.288 0.059,0.113 0.016,0.255 -0.098,0.316 -0.113,0.06 -0.255,0.017 -0.316,-0.097 m -24.668,-13.3 c -0.042,-0.028 -0.052,-0.083 -0.027,-0.125 0.374,-0.574 0.61,-1.138 0.716,-1.722 0.01,-0.049 0.057,-0.081 0.105,-0.073 0.049,0.01 0.081,0.057 0.073,0.106 -0.113,0.61 -0.356,1.194 -0.742,1.788 -0.028,0.042 -0.083,0.054 -0.125,0.026 M 41.294,50.71 c -0.068,-0.04 -0.09,-0.131 -0.049,-0.2 l 0.076,-0.128 c 0.163,-0.28 0.349,-0.597 0.751,-0.67 0.078,-0.014 0.153,0.039 0.166,0.118 0.014,0.078 -0.038,0.153 -0.116,0.168 -0.27,0.047 -0.4,0.271 -0.552,0.53 l -0.08,0.135 c -0.04,0.068 -0.127,0.089 -0.196,0.047 m 25.672,40.609 -0.39,-1.022 c -0.051,-0.137 0.025,-0.268 0.161,-0.319 0.134,-0.052 0.293,0.037 0.346,0.173 l 0.181,0.475 0.208,0.55 c 0.05,0.136 -0.024,0.266 -0.16,0.317 -0.136,0.052 -0.294,-0.038 -0.346,-0.174 M 64.034,85.72 c -2.821,-3.695 -6.28,-6.929 -9.626,-10.058 -2.699,-2.523 -5.488,-5.133 -7.945,-7.98 -0.087,-0.101 -0.076,-0.253 0.025,-0.341 0.099,-0.088 0.252,-0.077 0.339,0.024 2.44,2.829 5.22,5.428 7.909,7.944 3.361,3.141 6.834,6.389 9.681,10.117 0.08,0.105 0.061,0.257 -0.045,0.338 -0.106,0.081 -0.258,0.062 -0.338,-0.044 M 41.798,62.106 40.368,60.333 38.656,58.184 c -0.08,-0.1 -0.058,-0.239 0.041,-0.319 0.099,-0.08 0.249,-0.057 0.328,0.043 l 1.699,2.13 1.438,1.787 c 0.081,0.099 0.062,0.24 -0.037,0.32 -0.099,0.081 -0.248,0.061 -0.327,-0.039 m -6.689,-8.209 -0.387,-0.432 c -0.268,-0.268 -0.546,-0.546 -0.656,-0.933 -0.023,-0.087 0.027,-0.178 0.114,-0.202 0.087,-0.025 0.178,0.026 0.203,0.113 0.085,0.304 0.321,0.539 0.571,0.787 l 0.427,0.48 c 0.059,0.068 0.04,0.156 -0.027,0.215 -0.067,0.062 -0.184,0.039 -0.245,-0.028 M 31.055,49.382 C 30.052,47.98 28.869,46.687 27.724,45.436 L 26.5,44.084 c -0.071,-0.079 -0.064,-0.2 0.015,-0.271 0.079,-0.073 0.202,-0.066 0.273,0.014 l 1.22,1.346 c 1.153,1.26 2.344,2.562 3.361,3.983 0.062,0.088 0.042,0.209 -0.044,0.272 -0.087,0.063 -0.209,0.042 -0.27,-0.046 m 0.833,6.005 c -0.11,-0.181 -0.098,-0.38 -0.087,-0.572 l 0.001,-0.27 c 0,-0.05 0.041,-0.101 0.091,-0.1 0.049,0 0.089,0.03 0.089,0.079 v 0.302 c -0.009,0.172 -0.018,0.334 0.061,0.467 0.025,0.043 0.011,0.099 -0.03,0.125 -0.044,0.026 -0.099,0.012 -0.125,-0.031 m 4.145,8.39 -0.115,-0.203 -0.098,-0.147 c -0.028,-0.042 -0.011,-0.092 0.031,-0.118 0.042,-0.029 0.103,-0.01 0.131,0.032 l 0.083,0.125 0.142,0.256 c 0.024,0.046 0.002,0.082 -0.043,0.107 -0.043,0.025 -0.105,-0.008 -0.131,-0.052 M 23.349,54.857 C 22.77,54.563 22.387,54.051 22.018,53.558 l -0.376,-0.485 c -0.067,-0.084 -0.056,-0.214 0.029,-0.281 0.086,-0.067 0.206,-0.058 0.271,0.028 l 0.389,0.5 c 0.344,0.458 0.698,0.932 1.195,1.185 0.098,0.05 0.135,0.169 0.086,0.266 -0.048,0.098 -0.167,0.136 -0.263,0.086 M 16.13,91.021 c -2.289,-7.486 -3.759,-13.404 -4.768,-19.188 -0.022,-0.122 0.059,-0.238 0.18,-0.26 0.123,-0.021 0.238,0.061 0.26,0.182 1.005,5.766 2.472,11.666 4.755,19.134 0.037,0.118 -0.031,0.244 -0.147,0.28 -0.119,0.037 -0.244,-0.03 -0.28,-0.148 M 11.018,69.929 C 9.939,63.167 9.352,57.535 9.168,52.203 9.164,52.078 9.262,51.972 9.387,51.968 c 0.125,-0.004 0.229,0.094 0.234,0.22 0.181,5.312 0.768,10.926 1.844,17.669 0.018,0.124 -0.065,0.24 -0.188,0.26 -0.124,0.02 -0.239,-0.065 -0.259,-0.188 m 96.539,46.46 c -4.733,-5.48 -11.041,-9.526 -17.142,-13.441 l -0.113,-0.072 c -0.042,-0.026 -0.053,-0.081 -0.028,-0.122 0.027,-0.04 0.08,-0.052 0.122,-0.025 l 0.112,0.072 c 6.112,3.92 12.432,7.974 17.181,13.472 0.031,0.038 0.027,0.093 -0.009,0.125 -0.036,0.032 -0.092,0.027 -0.123,-0.009 m -19.884,0.288 c -1.845,-4.324 -4.292,-8.495 -6.657,-12.528 -1.749,-2.982 -3.558,-6.064 -5.124,-9.208 l -0.028,-0.054 0.074,-0.18 c 0.027,-0.069 0.106,-0.103 0.175,-0.075 0.053,0.022 0.084,0.073 0.084,0.126 0,0.017 -0.003,0.034 -0.009,0.051 0,0 -0.014,0.032 -0.027,0.065 1.556,3.116 3.351,6.177 5.087,9.138 2.37,4.04 4.821,8.218 6.674,12.559 0.006,0.017 0.01,0.035 0.01,0.054 0,0.051 -0.032,0.102 -0.082,0.124 -0.068,0.029 -0.148,-0.003 -0.177,-0.072 M 75.955,94.849 75.314,94.129 74.718,93.46 c -0.053,-0.058 -0.046,-0.145 0.011,-0.197 0.058,-0.052 0.149,-0.045 0.2,0.013 l 0.593,0.663 0.647,0.727 c 0.052,0.058 0.044,0.145 -0.014,0.196 -0.057,0.053 -0.148,0.046 -0.2,-0.013 M 74.793,93.458 C 73.557,93.043 72.509,92.224 71.496,91.431 70.932,90.99 70.349,90.533 69.745,90.158 69.7,90.13 69.687,90.072 69.714,90.027 c 0.028,-0.044 0.087,-0.058 0.131,-0.03 0.611,0.38 1.199,0.84 1.766,1.284 1,0.783 2.035,1.593 3.243,1.997 0.049,0.017 0.075,0.071 0.059,0.12 -0.016,0.05 -0.07,0.077 -0.12,0.06 m -0.068,-0.044 c -0.975,-2.133 -2.037,-4.285 -3.066,-6.366 -1.762,-3.562 -3.581,-7.246 -5.027,-10.973 -0.022,-0.055 0.006,-0.119 0.061,-0.14 0.056,-0.022 0.12,0.006 0.14,0.062 1.442,3.717 3.262,7.396 5.02,10.955 1.029,2.082 2.091,4.235 3.069,6.371 0.024,0.055 0.002,0.119 -0.053,0.144 -0.056,0.025 -0.119,0.001 -0.144,-0.053 m 10.185,6.397 -3.701,-2.147 c -1.641,-0.974 -3.337,-1.979 -5.029,-2.855 -0.036,0.014 -0.084,0.034 -0.084,0.034 0.048,-0.02 0.07,-0.073 0.05,-0.12 -0.018,-0.047 -0.072,-0.07 -0.118,-0.05 l 0.161,-0.067 0.039,0.019 c 1.708,0.884 3.419,1.899 5.074,2.881 l 3.697,2.144 c 0.043,0.025 0.06,0.082 0.035,0.126 -0.025,0.044 -0.08,0.06 -0.124,0.035 m 18.258,-79.445 c -0.111,-0.004 -0.198,-0.098 -0.194,-0.21 0.005,-0.113 0.099,-0.199 0.212,-0.196 0.183,0.009 0.519,0.044 0.702,0.193 -0.086,-0.072 -0.215,-0.059 -0.284,0.028 -0.072,0.087 -0.059,0.215 0.027,0.286 -0.042,-0.034 -0.199,-0.09 -0.463,-0.101 m -34.116,5.496 -3.799,-0.326 -3.927,-0.332 c -0.117,-0.011 -0.209,-0.114 -0.198,-0.232 0.009,-0.117 0.108,-0.204 0.226,-0.195 l 3.939,0.335 3.786,0.324 c 0.116,0.01 0.208,0.113 0.197,0.231 -0.009,0.118 -0.107,0.205 -0.224,0.195 m 49.626,3.024 c -0.06,-0.044 -0.056,-0.114 -0.011,-0.174 0.044,-0.059 0.146,-0.057 0.204,-0.012 l 0.261,0.195 c -0.06,-0.045 -0.129,-0.023 -0.173,0.037 -0.046,0.059 -0.018,0.154 0.042,0.199 z m -48.749,8.156 c -0.032,-0.087 0.012,-0.184 0.099,-0.214 0.317,-0.117 0.64,-0.094 0.952,-0.07 l 0.393,0.017 c 0.093,0.005 0.173,0.082 0.17,0.175 -0.004,0.092 -0.071,0.164 -0.163,0.159 L 70.956,37.09 c -0.29,-0.021 -0.563,-0.041 -0.813,0.051 -0.087,0.031 -0.183,-0.013 -0.214,-0.099 M 0.259,0.271 0.188,0.053 c 2.56,0.576 -0.701,2.315 -0.147,0.293 z m 28.936,0.22 v -0.585 c -1.853,-0.72 -3.924,-1.531 -3.499,-3.802 0.292,-1.56 2.106,-2.174 4.082,-2.341 1.001,-1.773 0.414,-3.911 1.458,-5.118 1.113,-1.287 3.771,-1.114 4.082,0.292 0.388,1.753 -1.278,3.065 -2.187,3.509 -0.952,0.467 -1.817,0.177 -2.186,1.17 -0.347,0.936 0.483,2.334 0.291,3.511 -0.215,1.324 -1.643,2.191 -1.602,3.511 L 29.463,0.418 Z M 28.613,4.148 V 3.563 C 28.391,3.004 27.318,3.301 27.445,2.393 27.489,1.704 28.648,2.137 29.049,1.808 l 0.17,0.22 0.268,-0.074 c -0.174,1.095 -0.192,1.787 0.438,2.34 H 29.049 L 28.88,4.075 Z m 0.436,3.803 C 28.51,7.957 28.204,7.726 27.884,7.511 27.486,6.353 28.025,5.078 28.613,4.44 l 0.169,0.22 0.267,-0.072 C 28.896,5.452 29.053,6.8 29.195,7.804 L 28.978,7.732 Z M 31.09,9.413 V 9.268 c 0.54,0.14 0.82,0.542 1.167,0.877 -0.41,0.465 -0.358,1.396 -1.312,1.315 -0.66,-0.54 0.271,-1.036 0,-2.047 z M -35.82,3.124 c -0.051,-1.071 -0.408,-1.69 -0.291,-2.486 0.537,-3.671 7.014,-2.21 8.454,0.146 0.186,4.264 -5.151,3.266 -7.871,2.487 l -0.073,-0.22 z m 9.84,15.869 0.072,0.219 c -0.186,0.201 -0.687,0.201 -0.873,0 -0.169,-0.172 -0.166,-0.516 -0.147,-0.876 l 0.22,0.073 0.072,-0.22 c 0.471,0.113 0.762,0.405 0.875,0.878 z m 74.709,4.608 v -0.147 c 0.588,-0.444 1.597,-0.537 2.333,-0.145 -0.52,0.501 -0.402,1.644 -1.749,1.316 -0.237,-0.349 -0.525,-0.646 -0.73,-1.024 z M 10.392,45.979 c 0.258,0.082 0.605,0.075 0.727,0.292 -0.273,0.015 -1.062,-0.178 -0.727,-0.292 m 2.039,0.731 c 0.173,0.072 0.332,0.156 0.439,0.292 -0.196,0.024 -0.804,-0.228 -0.439,-0.292 m 52.771,25.889 v 0.145 c -0.388,-0.292 -0.86,-0.502 -0.729,-1.315 h 0.145 v -0.146 c 0.524,0.157 0.819,0.546 0.731,1.316 z M 19.721,23.162 c 0.346,0.31 0.029,1.191 -0.583,1.024 -0.415,-0.195 0.112,-0.65 0.145,-0.877 l 0.267,0.073 z m -3.353,-0.439 c 0.25,0.529 1.168,0.388 1.312,1.024 0.034,0.62 -0.303,0.866 -0.73,1.024 -0.902,0.085 -1.135,-1.147 -2.04,-0.585 l -0.073,-0.073 -0.073,0.073 c -0.734,-0.571 -0.23,-1.558 0.146,-2.194 0.917,-0.239 0.647,0.716 1.312,0.731 l 0.072,0.073 z m 4.226,-3.364 c -0.389,0.76 -0.215,1.62 0.292,2.194 0.601,-0.114 0.749,0.225 1.313,0.147 l -0.074,0.219 0.219,0.073 c -0.64,0.767 -2.479,-0.472 -2.623,0.878 l -0.219,-0.074 -0.219,0.074 c -0.607,-0.414 -1.828,-0.213 -2.186,-0.878 l 0.072,-0.073 -0.072,-0.073 c 0.438,-1.656 2.225,-1.961 3.353,-2.926 l -0.053,0.261 z m 3.938,-2.193 c -1.213,0.441 -2.179,1.129 -3.353,1.608 l 0.05,-0.262 -0.197,-0.176 c 0.603,-1.054 1.603,-1.708 3.352,-1.609 l -0.071,0.267 z m 2.913,0.731 c -0.183,0.552 -0.177,1.716 0.439,1.901 l -0.073,0.22 0.217,-0.074 c -0.101,0.932 0.618,1.039 0.73,1.756 -0.053,1.398 -1.613,1.298 -2.333,0.585 l 0.074,-0.221 -0.219,-0.072 c 1.274,-1.378 0.544,-4.217 -1.019,-4.826 l 0.218,-0.172 -0.074,-0.267 c 1.007,0.063 1.472,0.668 2.188,1.023 h -0.148 z m 1.896,-0.293 v 1.024 l -0.218,-0.073 0.072,0.219 c -0.253,-0.01 -0.453,0.033 -0.582,0.146 L 28.466,18.847 28.32,18.92 c 0.121,-0.413 -0.205,-0.378 -0.145,-0.731 l 0.219,0.073 -0.074,-0.219 c 0.102,-0.289 0.389,-0.39 0.729,-0.439 l 0.146,0.073 z M -1.417,-2.726 c 0.46,0.183 1.288,0.573 0.875,1.169 l -0.22,0.074 0.074,0.219 c -0.778,-0.049 -1.149,-0.505 -1.02,-1.462 l 0.145,0.073 z m -2.916,-4.388 c 1.065,0.248 1.521,1.107 1.604,2.341 l -0.218,-0.075 0.072,0.221 c -0.846,-0.468 -1.899,-0.727 -1.749,-2.195 l 0.219,-0.073 z M 9.078,9.268 h 0.875 c 0.975,-0.484 1.874,-1.793 3.499,-1.757 1.217,0.029 2.504,0.911 2.478,1.902 -0.024,0.936 -1.05,1.468 -1.749,1.609 C 11.744,11.515 10.612,9.595 8.933,9.706 L 9.151,9.535 Z M 4.268,8.244 C 5.438,8.385 6.54,8.597 7.33,9.121 L 7.11,9.292 7.184,9.559 C 6.196,10.301 4.661,9.47 4.268,8.682 L 4.341,8.463 Z m 1.021,17.258 c 1.152,-0.064 1.944,0.782 1.458,1.902 -1.122,0.393 -2.094,-0.58 -1.604,-1.756 l 0.218,0.074 z M 3.394,23.309 c 1.155,-0.196 1.794,0.613 1.457,1.462 L 4.632,24.698 4.706,24.917 C 3.907,24.791 3.175,24.6 3.248,23.601 L 3.467,23.528 Z M 39.4,33.693 c -0.5,-2.245 2.183,-2.145 2.332,-0.878 0.102,0.867 -1.142,1.699 -2.04,1.024 L 39.618,33.62 Z M 15.056,41.007 C 14.839,40.881 14.844,40.535 14.764,40.274 14.675,40.072 14.202,40.253 14.181,39.983 L 14.4,39.909 14.327,39.69 c 0.03,-0.165 0.161,-0.228 0.292,-0.292 l 0.218,0.292 0.219,-0.292 c 0.176,0.309 0.548,0.424 0.583,0.876 h -0.365 l 0.219,0.293 c -0.032,0.114 -0.005,0.289 -0.145,0.293 l -0.22,-0.073 z m -5.394,4.241 c -0.004,0.216 0.596,0.653 0,0.585 l -0.219,0.073 -0.218,0.073 c -0.098,-0.291 -0.503,-0.625 0,-0.731 l 0.218,0.073 z M -2.875,37.496 c 0.018,-0.422 -0.08,-0.957 0.146,-1.171 0.634,-0.1 0.807,0.264 1.021,0.586 l -0.074,0.219 0.219,0.073 c -0.315,0.318 -0.851,0.414 -1.312,0.586 l 0.073,-0.147 z m -8.018,3.071 c 0.772,-0.639 2.325,-0.495 3.061,-1.169 l 0.345,0.041 0.239,0.251 c -1.048,0.219 -1.342,2.344 -2.479,2.194 -0.66,-0.088 -0.57,-0.575 -1.02,-1.171 v -0.146 z m -6.123,2.194 c 0.12,-0.66 0.358,-1.202 0.584,-1.754 h 0.146 V 40.86 c 0.315,0.33 0.497,-0.121 1.02,0 l 0.171,0.22 0.267,-0.073 c -0.011,0.255 0.032,0.454 0.145,0.584 l -0.218,0.074 0.218,0.072 c -0.211,1.056 -1.504,1.026 -1.895,1.902 v -0.147 h -0.146 c 0.012,-0.254 -0.031,-0.455 -0.145,-0.585 l 0.073,-0.218 z m -3.789,7.02 c -0.251,-0.918 -0.36,-1.979 -0.292,-3.217 l 0.219,-0.073 0.218,-0.074 c -0.162,1.529 1.16,1.567 1.751,2.34 l -0.074,0.148 0.074,0.145 c -0.43,0.399 -0.986,0.671 -1.605,0.879 l -0.073,-0.22 z m -6.997,4.243 c 0.759,-0.042 1.645,-0.324 2.186,-0.147 0.497,-0.316 0.496,-0.765 1.604,-0.439 0.352,1.265 -0.938,1.219 -1.749,1.462 -1.041,0.313 -1.634,0.191 -2.188,-0.438 l 0.22,-0.17 z m -6.56,5.85 c 0.609,-0.791 1.075,-1.968 0.874,-3.071 -0.171,-0.946 -1.284,-1.39 -1.312,-2.195 0.119,-0.904 1.44,-0.603 1.896,-1.17 0.245,-1.606 0.555,-3.147 1.165,-4.388 l 0.171,0.219 0.267,-0.072 c -0.201,1.553 -0.801,2.705 -0.874,4.387 0.163,0.032 0.227,0.162 0.291,0.293 l -0.073,0.219 0.073,0.221 c -1.048,0.677 -0.554,2.884 0.292,3.363 l -0.219,0.171 0.072,0.269 c -0.964,-0.206 -0.71,1.619 0.147,1.315 0.168,-0.173 0.164,-0.517 0.145,-0.877 l 0.267,0.072 0.17,-0.218 c 0.679,0.487 1.387,0.948 1.604,1.901 -0.646,0.387 -1.587,-0.018 -2.333,0 -0.896,0.633 -0.68,1.69 -0.582,2.633 0.315,3.022 0.903,5.098 1.603,7.752 0.74,2.8 1.855,6.361 2.041,9.361 0.143,2.314 0.167,4.747 -0.729,5.996 -0.139,0.195 -0.954,0.995 -1.312,1.17 -0.547,0.267 -1.283,0.412 -2.041,0.146 -0.016,-0.178 -0.043,-0.346 -0.292,-0.292 -0.642,-2.913 2.173,-3.863 2.771,-5.851 0.24,-0.801 0.22,-2.25 0.146,-3.217 -0.198,-2.564 -1.083,-5.565 -1.75,-7.898 -0.233,-0.818 -0.701,-1.545 -0.875,-2.341 -0.288,-1.328 -0.384,-2.734 -0.583,-3.95 -0.197,-1.193 -0.04,-2.705 -1.166,-3.509 l 0.073,-0.219 z m -8.892,-5.412 c -0.417,1.19 -2.741,2.518 -2.77,3.95 -0.02,0.929 0.901,1.586 1.603,2.338 1.448,0.09 2.318,-0.403 3.79,-0.291 l -0.072,0.268 0.218,0.171 c -1.371,0.331 -2.89,0.512 -4.228,0.877 -1.486,1.61 -4.509,4.303 -7.288,2.34 -0.792,-3.83 2.297,-5 4.957,-5.85 0.929,-1.506 2.079,-2.789 3.207,-4.096 l 0.292,0.148 z m 15.743,-13.895 v 0.44 c 0.146,-10e-4 0.174,0.118 0.292,0.146 l -0.073,0.219 0.219,0.073 c 0,0.147 -0.118,0.173 -0.146,0.292 -0.133,1.034 0.919,1.353 1.458,1.902 1.704,1.739 3.161,4.224 4.081,6.582 l -0.072,0.146 -0.074,0.146 c -0.413,0.335 -0.903,0.267 -1.457,0.147 -0.716,-0.617 -0.273,-1.927 -0.584,-3.072 -0.175,-0.65 -1.337,-2.162 -1.894,-2.779 -0.962,-1.063 -2.475,-2.839 -3.353,-1.609 l -0.219,-0.073 -0.219,0.073 v -0.146 l 0.073,-0.22 -0.219,-0.073 c 0.836,-2.824 -2.763,-1.362 -4.518,-1.608 -1.044,-0.147 -2.265,-0.737 -2.478,-1.902 -0.547,-2.98 2.993,-3.085 4.373,-2.193 1.563,1.008 2.277,5.124 4.519,3.363 l 0.073,0.22 z M -47.919,22.139 c -3.355,-1.249 -6.957,-3.198 -10.205,-4.681 -1.129,-0.516 -2.501,-1.3 -3.499,-1.463 -1.805,-0.294 -3.939,0.159 -5.101,-1.316 -0.324,-0.412 -0.867,-1.416 -0.583,-2.487 0.346,-1.304 2.445,-1.575 3.644,-1.17 0.715,0.241 1.633,1.127 2.04,1.755 0.493,0.76 0.53,1.74 0.875,2.194 0.592,0.778 1.97,1.123 3.207,1.756 2.954,1.509 5.747,2.963 8.456,4.241 0.511,0.241 1.558,0.408 1.458,0.878 h -0.292 z m 14.287,6.288 c -1.193,-0.168 -2.451,-0.272 -2.917,-1.17 l 0.218,-0.17 -0.072,-0.268 c 1.696,-0.288 2.007,0.812 2.915,1.317 l -0.218,0.072 z m 19.386,8.338 v 0.146 l -0.266,-0.074 -0.171,0.221 c -0.354,-0.231 -0.622,-0.547 -1.312,-0.44 l 0.074,-0.219 -0.219,-0.074 c -10e-4,-0.146 0.118,-0.173 0.145,-0.291 l 0.22,-0.075 -0.073,-0.218 c 0.636,0.191 1.289,0.364 1.749,0.731 l -0.218,0.072 z m 10.496,0.146 c -0.122,0.317 -0.376,0.499 -0.291,1.024 h 0.145 l -0.072,0.146 0.072,0.146 c -0.409,0.174 -0.837,0.33 -1.311,0.439 l 0.073,-0.219 -0.219,-0.073 c 0.54,-0.239 0.336,-1.223 0.583,-1.756 0.305,-0.318 0.416,0.073 0.874,0 l -0.072,0.219 z m 2.042,-4.681 c 0.564,0.127 0.518,-0.357 0.874,-0.438 l 0.17,0.219 0.268,-0.073 c -0.007,0.481 -0.247,0.728 -0.146,1.315 l -0.22,0.075 0.074,0.218 c -0.465,-0.125 -0.451,0.231 -0.729,0.293 L -1.49,33.62 -1.708,33.693 c -0.018,-0.422 0.078,-0.958 -0.146,-1.17 L -1.635,32.45 Z M -14.391,18.189 c 0.655,0.171 0.963,0.691 1.021,1.463 l -0.219,-0.073 -0.073,0.219 c -0.663,-0.213 -1.032,-0.719 -1.166,-1.462 l 0.26,0.052 z m 8.6,-29.252 c -0.48,1.114 0.564,1.705 0.729,2.633 l -0.218,0.073 -0.073,0.219 c -0.794,-0.356 -0.718,-1.397 -1.603,-1.17 -0.969,0.247 -0.627,1.967 -0.73,3.364 l -0.218,-0.073 -0.219,0.073 c -0.864,-1.541 0.29,-3.09 0.437,-4.534 -1.464,-1.228 -3.95,-0.399 -4.227,-2.487 -0.208,-1.57 1.006,-2.277 2.332,-2.048 2.374,0.41 1.654,4.186 3.646,3.803 l -0.074,0.22 z m 9.039,0.585 c -1.778,0.028 -2.496,-1.006 -3.79,-1.463 l 0.218,-0.073 -0.072,-0.22 c 0.877,0.248 0.59,-0.674 1.312,-0.584 1.094,0.414 1.805,1.209 2.478,2.047 l -0.219,0.073 z M 18.992,3.124 C 18.301,3.192 18.775,2.997 18.701,2.539 l 0.217,0.073 0.074,-0.219 c 0.209,0.082 0.355,0.228 0.437,0.439 L 19.181,2.933 Z M 20.45,4.44 C 20.238,4.359 20.094,4.212 20.012,4.002 l 0.247,-0.103 0.191,-0.19 c 0.674,-0.11 0.594,0.166 0.436,0.585 L 20.619,4.221 Z m 9.037,7.02 C 29.015,11.252 28.833,10.752 28.904,9.999 l 0.219,0.072 -0.074,-0.219 c 1.493,-0.394 1.598,1.203 0.729,1.608 l -0.144,-0.072 z m 13.702,21.793 c -0.482,-0.44 -0.845,-1.003 -1.166,-1.607 l 0.219,-0.074 -0.073,-0.218 c 1.121,-0.055 1.35,-0.888 2.478,-1.024 0.686,-0.083 1.352,0.189 2.187,0.292 1.271,0.154 2.174,-0.039 2.625,0.584 1.114,1.546 -0.687,2.669 -1.896,2.487 -1.016,-0.152 -1.482,-1.225 -2.041,-1.316 -0.86,-0.141 -1.41,0.119 -1.895,0.585 v 0.146 L 43.36,33.035 Z m 11.808,19.161 c 0.863,1.285 1.508,2.679 2.334,4.242 0.737,1.399 1.173,3.449 2.186,4.387 0.494,0.46 1.252,0.488 1.749,0.879 1.231,0.97 1.89,2.868 1.02,4.681 -0.867,0.177 -1.487,1.067 -2.769,0.876 -1.761,-0.262 -2.07,-1.928 -1.895,-3.509 0.111,-1.013 0.991,-1.934 0.874,-2.779 -0.133,-0.971 -0.975,-0.905 -1.311,-1.609 -0.318,-0.142 0.605,-0.258 0.292,-0.878 -0.849,-2.025 -1.935,-3.813 -2.771,-5.85 l 0.19,-0.19 z m -12.828,9.361 c 0.113,0.034 0.288,0.005 0.293,0.147 0.704,-0.025 0.782,-0.677 1.602,-0.585 0.399,0.506 -0.144,1.046 0,1.754 1.382,0.955 2.355,2.319 2.77,4.242 l -0.189,0.19 -0.102,0.249 C 45.837,67.068 44.769,66.724 43.918,66.163 43.281,64.707 42.576,63.317 41.732,62.067 L 41.98,61.965 Z M 26.717,46.564 c -0.763,-0.892 -1.766,-1.543 -1.894,-3.072 l 0.267,0.073 0.171,-0.219 c 0.17,0.042 0.605,0.644 0.583,0 l 0.265,0.073 0.171,-0.219 c 0.257,0.133 0.451,0.328 0.584,0.585 l -0.22,0.17 0.073,0.269 h -0.292 c 0.038,0.889 0.474,1.378 0.584,2.193 L 26.79,46.345 Z m 2.917,5.997 C 28.874,51.811 28.5,50.675 28.175,49.49 l 0.219,0.072 0.072,-0.219 c 0.695,0.767 1.329,1.592 1.459,2.925 l -0.22,0.073 z M 15.348,45.979 C 14.766,44.807 13.716,44.105 12.14,43.932 l 0.072,-0.219 -0.218,0.072 c 0.277,-0.787 -0.384,-1.576 -1.312,-1.609 -0.121,0.317 -0.376,0.5 -0.29,1.024 L 10.245,43.127 10.099,43.2 c -0.146,0 -0.173,0.118 -0.291,0.146 -0.089,0.351 0.183,1.062 -0.146,1.171 L 9.443,44.589 9.225,44.663 C 8.927,44.425 9.231,43.583 8.933,43.346 8.269,43.264 8.026,43.605 7.33,43.492 5.902,42.606 5.903,40.674 5.143,39.251 4.429,37.914 3.181,37.054 2.081,36.179 1.909,36.348 1.566,36.345 1.207,36.325 L 1.279,36.106 1.061,36.034 C 1.094,35.92 1.064,35.745 1.207,35.741 v -0.439 l 0.219,0.073 0.073,-0.219 C 1.984,35.204 2.146,35.58 2.81,35.448 3.583,34.698 2.541,33.969 1.937,33.253 1.245,32.44 0.798,31.355 -0.251,31.499 l -0.17,-0.219 -0.267,0.074 c 0.166,-1.4 -1.073,-2.762 -2.041,-4.097 -0.802,-1.107 -1.676,-2.485 -2.624,-3.51 -1.001,-1.082 -2.224,-1.791 -2.77,-2.925 -1.421,-2.95 0.143,-5.758 3.061,-6.143 l -0.072,0.268 0.219,0.171 c -0.222,0.411 -1.04,0.224 -1.167,0.731 0.367,1.47 1.414,2.827 1.895,4.534 0.453,1.602 0.392,3.917 2.187,4.388 1.22,-1.09 -0.209,-2.446 -0.583,-3.803 -0.677,-2.463 0.138,-4.973 2.624,-4.826 2.468,0.145 2.95,3.348 4.81,3.51 -0.1,-1.68 -1.878,-2.097 -3.206,-3.364 -0.484,-0.461 -0.757,-1.176 -1.312,-1.756 -0.457,-0.474 -1.16,-0.838 -1.605,-1.316 -0.679,-0.731 -1.042,-1.751 -1.749,-2.194 -1.046,-0.657 -2.816,-0.698 -3.352,-1.754 -0.916,-1.806 0.269,-4.563 0.291,-6.436 0.045,-3.69 -3.916,-5.178 -7.288,-4.974 -4.935,0.299 -7.802,5.203 -5.687,11.117 l -0.266,-0.073 -0.17,0.219 c -1.478,-3.484 -1.476,-8.28 0.875,-10.531 1.697,-1.625 4.602,-2.272 7.289,-2.048 1.412,0.118 2.772,0.902 4.226,0.585 l 0.219,0.073 0.073,-0.219 c 0.114,0.032 0.169,0.123 0.146,0.293 2.752,1.432 6.229,2.134 6.269,6.289 C 0.446,3.628 0.331,2.731 1.061,2.685 L 1.184,2.807 1.353,2.832 C 0.439,3.381 -0.306,5.078 0.624,6.195 L 0.364,6.143 0.188,6.342 c -0.589,-0.629 -0.881,-1.555 -1.46,-2.194 -1.014,0.415 -1.661,1.511 -1.749,2.633 -0.214,2.731 1.001,3.863 2.479,5.118 1.283,1.092 1.914,2.164 3.352,2.488 1.086,1.983 2.315,3.514 3.937,5.118 0.591,0.586 1.411,0.993 1.895,1.609 0.316,0.402 0.4,1.031 0.729,1.463 1.069,1.409 2.69,2.745 4.519,2.925 l 0.072,0.074 0.073,-0.074 v 0.293 c 1.099,1.334 1.652,3.219 3.353,3.949 0.991,-0.121 1.977,0.067 2.916,0 2.551,-0.181 5.508,-1.816 8.016,-2.048 1.06,-0.097 1.743,0.089 2.334,-0.439 v -0.585 c 1.731,-0.553 1.01,-3.568 1.165,-5.704 -0.207,-0.279 -0.45,-0.523 -0.729,-0.732 h 0.146 v -0.145 c 0.287,-0.703 -1.018,-2.805 -1.749,-2.925 l 0.073,-0.22 -0.219,0.074 c 0.117,-1.143 -0.676,-1.372 -0.875,-2.195 l 0.316,0.025 0.267,-0.171 c 0.29,0.002 0.186,0.4 0.585,0.292 l 0.144,0.073 0.147,-0.073 c 0.345,2.238 1.795,3.367 2.915,4.827 4.758,0.102 6.482,3.247 9.622,4.973 0.765,1.576 -0.242,4.18 -0.73,5.851 l -0.219,0.073 0.073,0.219 c -0.112,-0.033 -0.287,-0.003 -0.291,-0.146 -1.002,0.728 -2.477,1.243 -3.499,1.17 -0.619,0.234 -0.829,0.888 -0.583,1.608 0.436,0.294 1.338,0.736 1.895,0.44 l 0.073,0.219 0.219,-0.073 c 0.426,1.573 3.271,1.587 4.518,0.732 v -0.147 l 0.269,0.073 0.169,-0.22 c 1.068,1.096 1.989,-1.674 3.062,-0.146 0.29,1.511 -1.779,0.654 -1.749,1.901 l -0.22,0.074 0.073,0.219 c -2.08,0.553 -4.081,1.514 -6.414,1.317 -1.409,-0.12 -2.668,-0.801 -4.227,-0.732 -0.477,-0.038 -0.422,0.455 -0.73,0.586 -0.677,-0.588 -1.784,-0.746 -2.915,-0.878 -0.282,0.156 -0.204,0.673 -0.437,0.878 v -0.147 h -0.145 v -0.293 c -1.452,-0.322 -2.13,0.971 -2.917,1.756 0.202,1.525 1.651,0.776 2.332,0.146 v 0.147 h 0.147 c 0.401,1.069 -0.564,1.038 -0.582,2.047 1.382,2.273 3.435,4.529 5.538,6.143 0.747,0.573 1.441,1.418 2.187,1.755 1.175,0.531 2.632,0.331 3.936,1.024 l 0.073,0.219 0.218,-0.073 c 0.06,0.965 0.389,1.659 0.583,2.487 1.004,1.228 3.099,1.2 4.81,1.608 0.791,0.188 1.346,0.839 2.042,0.585 0.479,0.787 1.66,0.871 2.478,1.317 0.525,-0.066 0.706,-0.375 1.166,-0.147 0.321,0.322 -0.144,0.598 0,1.171 0.868,0.991 1.926,1.012 2.332,2.048 0.715,1.815 -0.782,4.598 -0.582,5.557 0.159,0.764 1.669,1.75 2.478,2.633 0.952,1.04 1.891,2.053 2.479,2.779 0.802,0.995 1.643,1.944 2.186,3.072 0.578,1.201 0.623,2.518 0.875,4.388 0.159,1.184 1.107,1.971 1.749,2.925 1.641,2.436 3.249,5.212 4.228,7.898 0.25,0.333 0.701,0.466 0.873,0.877 -0.526,-0.138 -0.203,0.577 -0.291,0.878 0.302,0.543 0.577,1.77 0.729,2.78 0.137,0.919 0.629,2.508 -0.582,2.631 -1.322,-0.43 -1.502,-3.27 -2.188,-4.826 l 0.268,0.074 0.171,-0.22 c 0.619,0.451 0.264,1.879 1.31,1.902 0.237,-0.833 -0.143,-1.943 -0.437,-2.78 -0.284,-0.812 -0.648,-2.012 -1.457,-2.194 -0.39,0.827 0.29,1.461 0.292,2.341 l -0.269,-0.073 -0.17,0.219 c -1.076,-1.358 -1.718,-3.151 -2.623,-4.68 l 0.189,-0.19 0.103,-0.249 c 0.665,0.355 0.862,1.18 1.749,1.316 0.665,-0.323 -0.042,-1.105 -0.146,-1.316 -1.115,-2.265 -2.922,-4.126 -4.518,-5.85 -0.651,-0.702 -1.601,-1.429 -2.041,-2.195 -0.889,-1.54 -0.138,-3.278 -0.585,-5.265 -0.214,-0.957 -1.341,-1.969 -2.185,-2.925 -0.878,-0.993 -1.81,-1.989 -2.479,-2.779 -1.73,-2.048 -3.374,-3.899 -5.248,-5.119 -0.421,-2.065 -2.92,-2.044 -4.228,-3.219 -0.164,-1.691 -1.677,-3.842 -3.206,-3.803 -1.434,0.038 -2.442,1.807 -2.333,3.951 l -0.267,-0.075 -0.17,0.22 c -0.868,-0.689 -1.315,-1.802 -2.624,-2.048 0.348,-0.98 -0.627,-1.641 -1.021,-2.34 l 0.219,-0.073 -0.073,-0.22 c 1.06,-0.219 0.303,-1.779 -0.583,-1.754 0.033,0.276 -0.164,0.322 -0.146,0.584 l -0.218,0.074 -0.074,0.22 c -1,-0.8 -1.86,-1.741 -3.497,-1.902 -0.175,-0.807 0.463,-0.802 0.291,-1.609 l 0.267,0.072 0.17,-0.219 c 0.957,0.096 1.83,-0.546 1.895,-1.169 0.107,-1.034 -1.778,-2.371 -2.623,-3.364 -1.201,-1.409 -2.018,-2.605 -2.77,-3.364 h -0.147 l 0.074,-0.22 -0.218,0.074 c -0.835,-1.699 -1.664,-3.402 -3.646,-3.949 l 0.074,-0.221 -0.218,0.074 c -0.134,-0.744 -0.7,-1.054 -1.168,-1.463 -0.532,10e-4 -0.213,0.859 -0.873,0.731 -0.449,-0.262 -0.185,-0.986 0,-1.315 0.426,-0.765 1.683,-0.907 1.894,-1.902 0.605,-2.852 -3.248,-1.408 -5.83,-1.463 -0.439,0.683 0.04,1.091 0.291,1.609 1.034,2.136 3.287,3.152 4.082,5.266 h 0.583 l -0.073,0.145 0.073,0.147 c 0.553,1.346 1.403,2.395 2.623,3.071 l -0.072,0.22 0.219,-0.073 c -0.012,0.254 0.032,0.454 0.144,0.584 l -0.217,0.172 0.073,0.267 c -0.179,0.017 -0.345,0.044 -0.291,0.293 l -0.269,-0.073 -0.169,0.219 c -0.398,-0.43 -0.672,-0.983 -1.02,-1.462 h -0.147 l 0.073,-0.219 -0.218,-0.074 c -0.126,-0.995 -0.814,-1.426 -1.312,-2.048 h -0.293 l 0.074,-0.219 -0.218,-0.073 v -0.292 c -0.205,-0.039 -0.167,-0.321 -0.292,-0.44 -1.4,0.059 -1.938,0.982 -3.353,1.024 -0.152,1.344 0.959,2.13 2.187,1.61 l 0.218,0.256 0.072,0.328 h -0.582 c -0.668,0.483 -0.636,1.378 -0.291,2.195 l -0.267,-0.074 -0.171,0.22 c -0.3,-0.04 -0.137,-0.545 -0.437,-0.586 H 18.553 L 18.627,43.273 18.409,43.2 c 0.35,-1.025 -0.407,-1.965 -1.167,-2.34 l 0.219,-0.073 -0.073,-0.22 c 0.262,-1.068 -0.845,-1.961 -1.02,-3.071 l 0.218,0.072 0.219,-0.072 c 1.116,-0.19 2.041,-0.972 2.041,-1.755 0,-0.5 -0.902,-1.448 -1.458,-2.048 -0.677,-0.729 -1.529,-1.473 -2.187,-1.024 -0.458,0.941 0.495,1.618 0.584,2.487 l -0.261,-0.053 -0.176,0.199 c -1.129,-0.299 -0.189,1.746 -0.438,2.779 l -0.267,-0.074 -0.171,0.22 C 13.708,37.697 12.845,38.011 12.723,37.203 12.581,36.252 13.77,36.448 14.181,35.595 14.042,34.807 14,33.923 14.035,32.962 13.437,32.539 13.055,31.898 12.14,31.792 l -0.218,-0.073 -0.219,0.073 c 0.76,-2.018 -0.241,-4.18 -1.604,-4.973 C 9.828,24.742 8.301,23.996 7.039,22.87 6.015,21.957 5.229,20.919 4.122,20.383 3.37,20.765 3.238,22.332 3.394,23.162 l -0.219,0.074 0.073,0.218 c -1.361,1.074 0.656,3.493 0.874,4.682 l -0.189,0.189 -0.102,0.249 c -1.072,-0.505 -1.837,1.121 -1.75,2.048 0.115,1.213 3.139,4.595 4.958,3.364 v -0.147 l 0.266,0.073 0.171,-0.219 c 0.695,0.861 1.961,1.152 3.206,1.463 l 0.073,0.219 0.219,-0.073 c -0.075,1.636 0.189,2.931 1.166,3.511 l -0.218,0.072 0.072,0.22 c -0.314,0.314 -0.074,0.817 0.146,1.024 l -0.218,0.073 0.072,0.219 c -1.261,0.393 0.501,2.558 1.021,1.609 l 0.218,0.073 0.074,-0.219 c 0.895,0.709 1.401,1.812 2.186,2.633 0.163,-0.031 0.227,-0.163 0.292,-0.293 l 0.218,-0.073 0.073,-0.219 c 0.237,0.249 0.241,0.734 0.584,0.877 l 0.072,0.219 0.218,-0.072 v 0.146 c -0.179,1.272 1.012,1.679 1.603,2.193 0.71,0.618 1.307,1.23 1.897,1.902 0.36,0.019 0.702,0.021 0.874,-0.147 0.059,-0.352 -0.266,-0.318 -0.145,-0.731 l 0.267,0.074 0.169,-0.22 c 0.698,1.006 0.801,2.609 2.041,3.071 h -0.145 v 0.146 c -0.004,1.662 1.379,1.933 2.041,2.927 h -0.147 v 0.145 h -0.291 c 0.003,1.363 0.448,2.281 1.458,2.634 0.071,2.866 2.59,5.786 5.103,3.947 0.051,-0.831 0.035,-1.596 -0.439,-1.9 h 0.146 v -0.147 c 0.346,-1.982 -1.388,-3.853 -1.457,-5.412 l 0.218,-0.072 0.073,-0.22 c 1.045,0.489 0.363,1.809 1.603,2.048 h 0.147 v -0.147 c 0.652,1.019 0.253,2.792 0.583,4.389 0.737,1.112 1.797,1.902 3.06,2.485 0.299,0.286 0.228,0.943 0.438,1.317 h -0.146 v 0.147 c -0.341,-0.047 -0.547,-0.232 -1.02,-0.147 -1.947,1.531 -0.949,6.12 -4.373,5.85 -0.739,-0.058 -1.762,-0.708 -2.188,-1.316 -0.821,-1.174 -0.565,-2.646 -0.875,-4.68 -0.51,-3.366 -3.068,-6.88 -4.225,-8.483 l 0.218,-0.073 -0.073,-0.22 c 0.071,-0.172 0.156,-0.331 0.291,-0.438 -0.213,-1.152 -1.205,-1.521 -1.894,-2.194 -0.539,0.454 0.339,0.72 0.291,1.17 l -0.261,-0.053 -0.177,0.199 C 20.73,52.669 20.625,51.408 19.429,51.244 19.28,49.443 17.91,48.868 17.533,47.295 16.794,47.013 16.579,46.207 15.639,46.125 l -0.074,-0.219 z m 1.165,44.756 c 0.477,1.357 1.133,3.11 1.75,5.119 0.558,1.819 0.763,3.988 1.458,5.559 0.709,1.605 2.545,2.696 1.603,4.972 -0.258,0.623 -1.595,1.815 -2.915,1.463 -0.483,-0.129 -1.087,-1.015 -1.167,-1.316 -0.503,-1.883 1.128,-3.585 1.311,-4.826 0.27,-1.812 -0.596,-3.979 -1.02,-5.559 -0.516,-1.936 -1.137,-3.603 -1.457,-5.266 l 0.267,0.074 z M 11.412,69.672 c 0.498,0.53 0.632,1.333 0.437,2.196 l -0.267,-0.074 -0.17,0.22 c -0.407,-0.469 -0.5,-1.253 -0.438,-2.194 l 0.267,0.073 z M 7.621,51.83 c 0.443,-0.612 1.193,-0.57 1.457,-1.463 0.233,-0.78 -0.292,-1.764 0.147,-2.632 l 0.169,0.22 0.268,-0.074 v 2.486 h 0.291 l -0.072,0.219 0.218,0.074 C 9.8,51.043 9.592,51.515 9.662,52.268 L 9.394,52.195 9.225,52.414 C 9.087,51.885 8.257,51.891 7.767,52.122 l 0.073,-0.22 z m -1.894,0.878 c 0.41,-0.125 0.597,-0.473 1.165,-0.44 l 0.073,0.22 0.219,-0.074 C 7.242,53.083 7.576,53.945 6.892,54.169 6.022,54.264 5.875,53.631 5.727,53 L 5.799,52.854 Z M -5.134,52.78 -5.207,53 c -1.126,-0.58 -2.17,-1.528 -3.645,-1.17 -1.088,0.263 -1.41,1.706 -2.333,2.047 -2.357,-1.305 0.734,-3.593 3.353,-3.071 1.37,0.272 2.185,1.467 2.77,1.755 z m -34.185,-71.595 c 0.045,0.385 -0.201,0.48 -0.583,0.439 -0.119,-0.523 0.31,-0.726 0.583,-0.439 m 47.67,13.748 c -0.2,-0.656 0.586,-0.71 0.874,-0.439 -0.046,0.549 -0.489,0.594 -0.874,0.439 M -52.147,2.1 c 0.214,-0.322 0.387,-0.684 1.021,-0.585 0.142,0.15 0.288,0.296 0.438,0.439 0.156,0.93 -1.563,1.318 -1.459,0.146 m 24.928,1.024 h 0.291 v 0.292 h -0.291 z M -38.298,2.978 c 0.045,0.197 0.207,0.279 0.146,0.585 h -0.583 c -0.128,-0.469 0.224,-0.458 0.437,-0.585 M 2.081,3.124 C 2.986,3.094 3.272,3.685 3.248,4.588 2.435,5.538 1.594,3.91 2.081,3.124 M 13.89,6.487 h 0.438 V 6.78 H 13.89 Z M -12.058,7.22 c 0.344,-0.294 0.975,-0.386 1.457,-0.147 0.033,0.114 0.004,0.289 0.146,0.293 0.253,1.57 -2.336,1.128 -1.603,-0.146 m -6.123,1.17 h -0.583 c -0.115,-0.564 0.698,-0.564 0.583,0 m 10.349,0.146 c -0.186,0.008 -0.201,0.187 -0.436,0.146 -0.227,-0.36 0.495,-0.43 0.436,-0.146 M -26.344,7.511 c 0.007,-0.577 0.299,-0.869 0.874,-0.876 0.589,0.384 0.701,1.245 1.166,1.755 -0.69,1.132 -1.329,-0.672 -2.04,-0.879 M 84.007,9.413 C 83.98,9.63 83.654,9.547 83.423,9.559 83.112,9.021 84.166,8.9 84.007,9.413 M 36.776,9.268 c 0.258,-0.129 0.426,-0.464 0.729,-0.147 0.141,0.538 -0.717,0.581 -0.729,0.147 m -64.287,0.877 c 0.353,-0.24 0.709,-0.373 1.167,-0.146 0.348,1.219 -1.393,1.336 -1.167,0.146 m 33.091,0.73 c 0.187,-0.199 0.689,-0.199 0.875,0 C 6.428,11.288 6.201,11.5 5.727,11.46 5.68,11.263 5.519,11.181 5.58,10.875 M 2.957,10.729 C 2.915,10.063 3.543,9.582 4.56,9.999 c 0.033,0.113 0.004,0.288 0.146,0.293 0.15,1.543 -1.691,1.386 -1.749,0.437 m 33.964,0.293 h 0.584 c 0.067,0.458 -0.127,0.653 -0.584,0.585 z m 2.187,0.877 h 0.584 c 0.114,0.563 -0.699,0.563 -0.584,0 m 14.87,0.733 h 0.291 c 0.227,0.359 -0.496,0.43 -0.438,0.145 0.09,-0.007 0.173,-0.022 0.147,-0.145 M -6.519,12.339 c 0.002,0.29 0.397,0.186 0.291,0.585 -0.173,0.168 -0.515,0.165 -0.875,0.146 -0.109,-0.549 0.165,-0.713 0.584,-0.731 m 43.44,0.731 c 0.067,0.456 -0.311,0.468 -0.729,0.439 -0.163,-0.592 0.449,-0.723 0.729,-0.439 m 56.853,0.439 c -0.1,-0.394 0.301,-0.283 0.437,-0.439 0.046,0.198 0.208,0.28 0.145,0.586 -0.252,0.01 -0.453,-0.034 -0.582,-0.147 M -38.298,13.363 c 0.208,-0.036 0.246,-0.241 0.437,-0.293 0.047,0.198 0.208,0.28 0.147,0.586 -0.334,0.04 -0.548,-0.036 -0.584,-0.293 m 141.839,0.438 c -0.187,0.009 -0.203,0.188 -0.437,0.147 -0.226,-0.361 0.495,-0.43 0.437,-0.147 m -7.872,0 c -0.148,-0.44 0.325,-0.259 0.582,-0.292 v 0.439 c -0.254,0.011 -0.453,-0.033 -0.582,-0.147 m -2.915,0.293 h 0.292 v 0.293 H 92.754 Z M 17.242,13.656 c 0.195,-0.297 0.974,-0.442 1.311,-0.147 v 0.732 c -0.5,0.358 -1.414,0.122 -1.311,-0.585 m -41.838,-0.293 c 0.661,-0.329 1.56,-0.137 1.313,0.878 -0.553,0.714 -1.996,0.088 -1.313,-0.878 m 98.836,1.024 c 0.043,0.384 -0.202,0.48 -0.584,0.438 -0.117,-0.523 0.311,-0.726 0.584,-0.438 m -23.178,0.584 c -0.047,-0.893 1.059,-1.106 1.603,-0.584 0.243,1.305 -1.273,1.361 -1.603,0.584 M 5.58,16.581 C 5.406,15.649 6.675,15.427 6.747,16.288 6.701,16.732 5.923,16.881 5.58,16.581 M 18.409,15.41 c 0.696,0.081 1.192,0.364 1.312,1.024 -0.548,1.066 -1.885,-0.151 -1.312,-1.024 m 47.814,1.317 c 0.331,-0.041 0.548,0.035 0.583,0.293 -0.198,0.045 -0.28,0.207 -0.583,0.146 z m -96.941,-0.146 c 0.114,-0.033 0.169,-0.123 0.146,-0.293 h 0.729 c 0.032,0.113 0.004,0.288 0.145,0.293 -0.016,0.371 -0.211,0.567 -0.582,0.585 -0.214,-0.128 -0.463,-0.219 -0.438,-0.585 m 10.641,0.439 c -0.016,0.373 -0.487,0.289 -0.873,0.292 -0.349,-0.816 0.943,-1.035 0.873,-0.292 m 77.115,-0.439 c 0.428,0.011 0.822,0.053 0.729,0.585 -0.123,0.217 -0.367,0.314 -0.729,0.292 -0.199,-0.187 -0.199,-0.691 0,-0.877 m 26.24,0.731 c 0.008,0.251 -0.112,0.374 -0.291,0.438 -0.21,-0.213 -0.215,-0.565 0.291,-0.438 M 58.496,16.873 c 0.359,-0.02 0.703,-0.022 0.876,0.147 v 0.584 c -0.652,0.464 -1.547,-0.188 -0.876,-0.731 m -3.644,1.316 h -0.729 c -0.294,-0.953 1.023,-0.953 0.729,0 m 43.003,-4.388 c 2.547,0.065 2.88,3.616 0.437,4.535 -1.518,-0.269 -2.572,-0.127 -3.936,-0.147 1.278,-1.484 0.972,-4.453 3.499,-4.388 m -17.492,4.388 c -0.306,-0.391 1.558,-1.339 1.603,-0.146 -0.212,0.352 -1.225,0.42 -1.603,0.146 m -19.243,0 c -0.066,-0.457 0.312,-0.467 0.729,-0.439 v 0.586 c -0.338,0.046 -0.56,-0.024 -0.729,-0.147 m -33.383,0.147 h 0.291 c 0.228,0.358 -0.494,0.43 -0.435,0.145 0.088,-0.007 0.172,-0.021 0.144,-0.145 m -43.44,-1.024 c 0.08,0.583 0.08,0.44 0,1.024 -2.54,1.798 -2.126,-2.824 0,-1.024 m 59.185,0.585 c -0.81,2.286 -4.835,0.914 -3.353,-1.755 1.688,-1.38 3.958,0.044 3.353,1.755 m 64.433,1.462 c 0.146,0.488 -0.203,0.48 -0.584,0.439 -0.044,-0.385 0.201,-0.48 0.584,-0.439 M 40.129,19.212 c 0.443,-0.005 0.959,-0.084 0.874,0.44 -0.016,0.373 -0.487,0.289 -0.874,0.292 -0.103,-0.45 -0.103,-0.281 0,-0.732 m 31.633,0.586 c -0.243,0.195 -0.489,0.388 -1.021,0.293 -0.188,-0.544 0.863,-0.581 1.021,-0.293 M 51.645,19.652 c 0.18,-0.588 1.475,-0.819 1.895,-0.293 0.042,0.754 -1.722,1.089 -1.895,0.293 M 21.47,20.091 c -0.119,-0.774 0.712,-0.888 1.021,-0.439 0.057,0.547 -0.663,0.754 -1.021,0.439 m -42.858,-0.879 c 0.432,-0.554 1.626,-0.322 1.311,0.732 -0.501,0.487 -1.585,0.364 -1.311,-0.732 m 89.214,1.171 c 0.008,0.545 -0.649,0.422 -1.167,0.439 0.024,-0.616 0.717,-0.646 1.167,-0.439 m -84.404,0.292 c -0.016,0.374 -0.488,0.29 -0.874,0.293 -0.349,-0.816 0.944,-1.035 0.874,-0.293 m 78.719,-1.316 c 1.166,0.147 1.817,0.81 2.332,1.609 -0.41,0.221 -0.911,0.354 -1.604,0.292 0.23,-1.107 -0.723,-1.03 -0.728,-1.901 m -13.995,2.633 v -0.585 c 0.113,-0.033 0.289,-0.005 0.292,-0.147 0.519,-0.033 0.762,0.211 0.729,0.732 -0.195,0.209 -0.827,0.209 -1.021,0 m 2.333,0.293 H 49.75 c -0.232,-0.775 0.963,-0.775 0.729,0 M 9.808,19.944 c 0.164,-0.031 0.227,-0.162 0.291,-0.292 1.302,0.059 1.341,1.384 1.895,2.194 -1.143,1.578 -2.184,-0.554 -2.186,-1.902 m 20.991,3.218 c 0.147,0.001 0.175,-0.119 0.291,-0.146 0,0.147 0.119,0.174 0.146,0.293 -0.146,-0.001 -0.173,0.118 -0.291,0.145 0.001,-0.146 -0.118,-0.173 -0.146,-0.292 m -37.902,0.147 h 0.438 v 0.292 h -0.438 z m 85.716,-2.341 c 0.396,2.789 -3.266,3.577 -4.518,1.755 -0.631,-0.918 -0.338,-2.015 -0.439,-3.364 1.923,-1.302 4.689,-0.28 4.957,1.609 m -10.787,2.926 c -0.473,-1.142 1.356,-1.266 1.457,-0.147 -0.198,0.326 -1.101,0.431 -1.457,0.147 M 99.459,22.87 c 0.058,-1.711 3.44,-1.599 2.624,0.731 -0.977,0.92 -2.668,0.577 -2.624,-0.731 m -112.538,1.024 c -0.11,0.377 -0.464,0.508 -1.02,0.439 -0.587,-0.835 0.911,-1.471 1.02,-0.439 m 125.805,1.462 c 0.025,0.319 -0.121,0.465 -0.439,0.439 -0.026,-0.32 0.12,-0.466 0.439,-0.439 m -93.443,0.877 c 0.064,-0.513 0.308,-0.62 0.729,-0.438 0.051,0.63 -0.363,0.564 -0.729,0.438 m 5.393,0.293 v -0.438 c 0.223,-0.225 1,-0.261 0.876,0.293 -0.125,0.279 -0.64,0.396 -0.876,0.145 m 4.958,0.439 c -0.935,0.168 -0.321,-0.446 0,0 M 7.913,26.381 c 0.532,-0.594 1.665,-0.09 1.165,0.731 -0.54,0.261 -1.411,0.212 -1.165,-0.731 m -25.074,0 c 0.699,-0.069 1.143,0.118 1.166,0.731 -0.567,0.425 -1.155,-0.138 -1.166,-0.731 m 126.679,0.876 h 0.292 c -0.001,0.147 0.118,0.175 0.145,0.293 -0.187,0.008 -0.202,0.188 -0.437,0.146 z m -83.822,0.439 c -0.933,0.169 -0.32,-0.446 0,0 m 82.219,0 v 0.44 h -0.438 c -0.028,-0.32 0.12,-0.467 0.438,-0.44 M 64.473,27.257 c 0.216,0.173 0.652,0.127 0.584,0.585 -0.525,1.215 -2.128,-0.394 -0.584,-0.585 M 7.621,27.404 c 0.058,0.38 0.434,0.44 0.438,0.877 C 7.861,28.327 7.78,28.489 7.476,28.427 7.308,28.001 7.255,27.563 7.621,27.404 m 61.518,-1.902 c 0.205,-0.764 1.799,-1.306 2.332,-0.438 0.031,1.336 -1.744,1.335 -2.479,0.731 l 0.073,-0.147 z m -7.8,-0.512 -0.073,0.22 c -0.843,1.574 -1.558,2.663 -3.207,3.071 -3.815,0.946 -5.161,-2.427 -3.79,-5.558 1.225,-0.673 2.749,-1.045 4.81,-0.877 0.644,1.109 1.436,2.07 2.334,2.925 z m 38.703,3.584 c -0.196,0.046 -0.277,0.209 -0.583,0.146 -0.11,-0.498 0.558,-0.571 0.583,-0.146 m -79.01,0.146 c -0.211,-0.08 -0.753,0.171 -0.728,-0.146 0.212,0.08 0.753,-0.171 0.728,0.146 m -3.06,-0.584 c 0.473,-1.003 1.619,-0.081 1.749,0.584 -0.751,-0.027 -1.723,0.169 -1.749,-0.584 m -31.198,-0.294 c 0.083,-0.484 0.509,-0.826 1.459,-0.73 1.288,1.738 -1.732,2.353 -1.459,0.73 m 128.866,1.902 h 0.292 v 0.292 h -0.292 z m -2.479,0.292 c 0.008,0.252 -0.111,0.376 -0.291,0.439 -0.208,-0.214 -0.214,-0.566 0.291,-0.439 m -45.919,1.17 h 0.292 c 0.228,0.36 -0.495,0.431 -0.436,0.148 0.088,-0.01 0.172,-0.023 0.144,-0.148 M 8.059,30.768 c 0.238,-1.42 2.932,-1.128 2.04,0.878 -0.965,0.914 -2.217,0.173 -2.04,-0.878 m -17.494,1.17 h 0.438 v 0.439 h -0.438 z m 129.886,-1.902 c 0.75,-0.538 1.389,-1.458 2.623,-1.462 1.042,-0.003 1.737,0.6 2.333,1.316 v 1.902 c -0.997,2.401 -5.416,1.402 -4.956,-1.756 m -8.455,3.51 c 0.257,-0.128 0.426,-0.463 0.73,-0.145 0.138,0.537 -0.717,0.581 -0.73,0.145 M -7.54,33.839 v -0.586 c 0.173,-0.168 0.516,-0.165 0.875,-0.145 0.329,0.578 -0.3,1.061 -0.875,0.731 m 19.971,1.025 c -0.037,-0.478 0.173,-0.704 0.584,-0.732 0.186,0.008 0.202,0.187 0.437,0.145 v 0.587 c -0.195,0.208 -0.825,0.208 -1.021,0 m 49.127,0.731 c -0.901,-0.624 0.757,-1.587 0.875,-0.439 -0.133,0.306 -0.431,0.445 -0.875,0.439 m 56.56,0 c 0.565,-0.763 0.754,0.581 0,0 m -27.26,-4.389 c 0.965,-0.095 2.504,0.591 2.77,1.609 0.53,2.028 -1.002,3.37 -3.207,2.926 -2.452,-0.716 -1.728,-4.319 0.437,-4.535 m -28.134,4.828 c -0.019,-0.362 -0.022,-0.705 0.145,-0.878 0.628,-0.046 1.178,-0.01 1.167,0.585 -0.039,0.487 -0.952,0.58 -1.312,0.293 m 37.755,0.438 h 0.438 v 0.293 h -0.438 z m -33.381,0.586 c -0.265,-0.801 1.137,-0.801 0.874,0 -0.545,0.013 -0.416,0.163 -0.874,0 m 6.997,-0.293 c -0.013,0.425 -1.603,1.133 -1.604,-0.147 0.384,-0.753 1.621,-0.492 1.604,0.147 m -4.01,0.218 0.219,0.075 c -0.212,0.44 -0.883,0.259 -1.021,-0.147 0.155,-0.105 0.672,-0.572 0.876,-0.146 z m -24.272,2.853 c -0.015,0.374 -0.487,0.29 -0.875,0.293 -0.555,-0.586 0.876,-1.16 0.875,-0.293 m -8.746,0.293 h -0.583 c -0.114,-0.564 0.698,-0.564 0.583,0 M -1.417,39.983 c -0.017,0.372 -0.488,0.29 -0.875,0.291 -0.349,-0.816 0.945,-1.035 0.875,-0.291 M 26.28,39.836 c 0.953,-0.09 0.804,0.921 -0.146,0.731 -0.046,-0.339 0.024,-0.561 0.146,-0.731 m 81.78,-4.095 c 3.516,-0.296 3.769,5.863 -0.291,4.972 -2.577,-0.564 -2.155,-4.767 0.291,-4.972 m -60.789,7.02 c 0.195,-0.19 0.543,-0.193 0.583,0.146 -0.193,0.191 -0.541,0.194 -0.583,-0.146 m -12.39,0.146 c 0.686,-0.055 1.251,0.013 1.166,0.732 -0.392,1.056 -2.133,0.043 -1.166,-0.732 M -9.435,44.37 h 0.438 v 0.292 h -0.438 z m 9.331,-0.292 c 0.404,-0.354 0.903,-0.315 1.165,0.146 0.06,0.822 -1.371,0.758 -1.165,-0.146 m 30.029,1.317 c 0.187,-0.203 0.633,-0.145 1.02,-0.147 -0.033,0.276 0.164,0.322 0.145,0.585 -0.273,-0.008 -0.309,0.113 -0.145,0.292 -0.615,0.18 -1.178,0.199 -1.02,-0.73 m -45.191,0 c -1.207,-3.146 3.422,-3.67 3.644,-1.171 0.133,1.473 -1.236,1.743 -2.04,2.633 -0.301,-0.723 -1.108,-0.937 -1.604,-1.462 m 3.791,1.315 h 0.291 v 0.292 h -0.291 z m 46.647,0.292 c -0.032,-0.616 0.273,-0.895 0.729,-1.023 0.321,0.117 0.581,0.293 0.583,0.731 -0.04,0.488 -0.952,0.582 -1.312,0.292 M 1.207,45.979 c 0.381,0.153 0.477,0.595 0.438,1.17 -0.35,0.187 -0.537,0.534 -1.166,0.439 -0.391,-0.653 0.006,-1.602 0.728,-1.609 m -13.412,1.609 c -0.169,0.122 -0.39,0.193 -0.729,0.147 -0.255,-0.655 0.772,-0.527 0.729,-0.147 m -4.227,0.438 c -0.491,0.445 -0.443,-0.54 0,0 m -0.729,0.293 c -0.129,0.113 -0.415,-0.089 -0.437,-0.146 -0.206,-0.551 0.725,-0.105 0.437,0.146 m 93.588,-0.584 c -0.496,0.59 -1.951,1.075 -3.061,1.022 -1.013,-0.046 -2.209,-1.226 -2.333,-2.486 -0.249,-2.537 1.886,-3.11 2.915,-4.973 0.225,-0.406 0.244,-1.089 0.439,-1.608 0.209,-0.564 0.506,-0.969 0.582,-1.463 0.217,-1.384 -0.74,-2.683 1.603,-2.632 0.91,2.258 -1.537,3.471 -1.603,5.703 1.316,1.7 3.336,4.202 1.458,6.437 m -32.363,0.584 c 0.068,0.457 -0.311,0.469 -0.728,0.438 -0.163,-0.591 0.447,-0.722 0.728,-0.438 M 24.24,48.612 c -0.16,-0.57 0.867,-0.587 0.874,-0.146 -0.114,0.033 -0.17,0.122 -0.146,0.291 -0.338,0.048 -0.559,-0.023 -0.728,-0.145 m -9.476,3.51 c 0.112,-0.033 0.288,-0.004 0.292,-0.146 0.41,0.027 0.621,0.254 0.583,0.732 -0.352,-0.061 -0.317,0.266 -0.729,0.146 -0.122,-0.17 -0.192,-0.392 -0.146,-0.732 M -0.688,49.49 c -0.482,0.979 -0.527,2.395 -1.166,3.218 -1.551,0.397 -2.741,-0.521 -2.624,-1.61 0.141,-1.324 2.182,-1.473 3.206,-2.048 0.208,-0.569 0.74,-1.439 1.605,-0.877 0.229,1.01 -0.726,0.833 -1.021,1.317 m 78.573,2.924 c 0.033,-1.267 1.86,-1.267 1.894,0 -0.18,0.782 -1.712,0.782 -1.894,0 m -51.313,0 c 0.34,0.05 0.627,0.15 0.728,0.44 C 27.103,52.9 27.021,53.062 26.717,53 26.75,52.723 26.554,52.677 26.572,52.414 m -47.669,1.463 c -0.129,0.113 -0.416,-0.089 -0.437,-0.146 -0.206,-0.551 0.725,-0.106 0.437,0.146 m 11.516,-0.146 c 0.008,0.251 -0.111,0.375 -0.291,0.438 -0.209,-0.213 -0.214,-0.566 0.291,-0.438 m 57.727,0.731 c -0.275,-0.032 -0.321,0.164 -0.583,0.146 -0.204,-0.65 0.669,-0.792 0.583,-0.146 m -4.664,3.95 h 0.436 v 0.438 h -0.436 z m 45.773,1.608 c 0.343,0.003 0.429,-0.251 0.875,-0.146 0.032,0.114 0.004,0.289 0.145,0.293 -0.019,0.467 -0.331,0.643 -0.875,0.583 -0.122,-0.168 -0.192,-0.39 -0.145,-0.73 m -64.579,1.023 c 0.096,-0.543 0.906,-0.532 1.168,-0.145 0.067,0.81 -1.118,0.957 -1.168,0.145 m 1.312,1.61 c 0.435,-0.174 0.495,-0.041 0.876,0.146 -0.028,0.412 -0.254,0.623 -0.73,0.585 -0.122,-0.17 -0.194,-0.392 -0.146,-0.731 m 63.85,0 c -1.613,-0.575 -2.984,-0.676 -4.374,-0.438 -2,0.34 -4.335,-0.063 -4.518,-2.195 -0.29,-3.374 4.467,-3.86 5.976,-1.024 0.417,0.784 0.278,1.321 0.728,2.487 1.73,1.19 5.539,-0.596 5.832,2.048 -1.397,0.637 -2.346,-0.416 -3.644,-0.878 m -53.062,1.462 c 0.279,0.063 0.627,0.053 0.583,0.44 -0.381,0.04 -0.628,-0.055 -0.583,-0.44 m 10.934,0.586 c -0.027,0.216 -0.354,0.134 -0.584,0.145 -0.311,-0.537 0.742,-0.658 0.584,-0.145 m 41.982,-0.293 c 0.104,-0.608 1.221,-0.811 1.604,-0.293 v 0.586 c -0.243,0.697 -1.758,0.855 -1.604,-0.293 m -38.484,0.586 c 0.196,-0.047 0.277,-0.209 0.582,-0.148 0.111,0.5 -0.556,0.571 -0.582,0.148 m -17.785,7.75 c -0.134,0.256 -0.455,0.323 -0.874,0.294 -0.35,-0.817 0.944,-1.036 0.874,-0.294 m -4.957,0.879 v -0.439 c 1.057,-0.756 1.057,1.195 0,0.439 m 23.471,1.023 c 0.186,-0.008 0.201,-0.187 0.437,-0.146 0.008,0.252 -0.111,0.375 -0.292,0.439 0,-0.147 -0.118,-0.173 -0.145,-0.293 m 21.574,0.439 c -0.126,-0.889 1.189,-0.941 1.02,0 -0.194,0.209 -0.825,0.209 -1.02,0 m -23.47,-0.146 h 0.583 c 0.031,0.478 -0.684,0.577 -0.583,0 M 27.884,82.69 c 1.925,0.389 3.191,-0.801 3.061,-2.339 -0.227,-2.677 -5.126,-2.799 -4.811,0.585 0.063,0.681 0.543,1.512 1.75,1.754"
             style="fill:#262626;fill-opacity:1;fill-rule:nonzero;stroke:none"
             id="path142"
             inkscape:connector-curvature="0" />
        </g>
      </g>
    </g>
  </g>
</svg>
