<?xml version="1.0" encoding="UTF-8" standalone="no"?>
<!-- Created with Inkscape (http://www.inkscape.org/) -->

<svg
   xmlns:dc="http://purl.org/dc/elements/1.1/"
   xmlns:cc="http://creativecommons.org/ns#"
   xmlns:rdf="http://www.w3.org/1999/02/22-rdf-syntax-ns#"
   xmlns:svg="http://www.w3.org/2000/svg"
   xmlns="http://www.w3.org/2000/svg"
   xmlns:sodipodi="http://sodipodi.sourceforge.net/DTD/sodipodi-0.dtd"
   xmlns:inkscape="http://www.inkscape.org/namespaces/inkscape"
   width="61.305767mm"
   height="44.42392mm"
   viewBox="0 0 61.305767 44.42392"
   version="1.1"
   id="svg4536"
   inkscape:version="0.92.2 2405546, 2018-03-11"
   sodipodi:docname="paint11.svg">
  <defs
     id="defs4530">
    <clipPath
       clipPathUnits="userSpaceOnUse"
       id="clipPath18">
      <path
         d="M 0,600 H 600 V 0 H 0 Z"
         id="path16"
         inkscape:connector-curvature="0" />
    </clipPath>
  </defs>
  <sodipodi:namedview
     id="base"
     pagecolor="#ffffff"
     bordercolor="#666666"
     borderopacity="1.0"
     inkscape:pageopacity="0.0"
     inkscape:pageshadow="2"
     inkscape:zoom="0.35"
     inkscape:cx="8.5714314"
     inkscape:cy="560.00001"
     inkscape:document-units="mm"
     inkscape:current-layer="layer1"
     showgrid="false"
     fit-margin-top="0"
     fit-margin-left="0"
     fit-margin-right="0"
     fit-margin-bottom="0"
     inkscape:window-width="3840"
     inkscape:window-height="2095"
     inkscape:window-x="0"
     inkscape:window-y="0"
     inkscape:window-maximized="1" />
  <metadata
     id="metadata4533">
    <rdf:RDF>
      <cc:Work
         rdf:about="">
        <dc:format>image/svg+xml</dc:format>
        <dc:type
           rdf:resource="http://purl.org/dc/dcmitype/StillImage" />
        <dc:title></dc:title>
      </cc:Work>
    </rdf:RDF>
  </metadata>
  <g
     inkscape:label="Layer 1"
     inkscape:groupmode="layer"
     id="layer1"
     transform="translate(7.3726902e-7,-252.57608)">
    <g
       transform="matrix(0.35277777,0,0,-0.35277777,-146.83327,300.52779)"
       id="g12">
      <g
         id="g14"
         clip-path="url(#clipPath18)">
        <g
           id="g20"
           transform="translate(525.8613,69.0391)">
          <path
             d="m 0,0 -0.145,-0.097 -0.051,-0.032 c -0.098,-0.061 -0.126,-0.19 -0.064,-0.288 0.061,-0.098 0.191,-0.126 0.289,-0.064 l 0.049,0.029 0.166,0.112 c 0.098,0.064 0.117,0.188 0.053,0.284 C 0.234,0.041 0.097,0.063 0,0 M -7.857,-0.254 C -7.93,-0.34 -7.918,-0.465 -7.833,-0.536 l 1.681,-1.381 1.474,-1.21 c 0.085,-0.07 0.213,-0.06 0.285,0.026 0.07,0.086 0.059,0.211 -0.026,0.281 l -1.482,1.215 -1.673,1.376 c -0.085,0.07 -0.213,0.06 -0.283,-0.025 m -43.215,19.487 c -0.031,-0.026 -0.034,-0.074 -0.006,-0.103 l 0.068,-0.076 0.2,-0.238 c 0.027,-0.032 0.078,-0.039 0.11,-0.012 0.032,0.026 0.038,0.069 0.011,0.101 l -0.209,0.249 -0.069,0.075 c -0.026,0.029 -0.075,0.033 -0.105,0.004 M 34.81,1.848 c -0.104,0 -0.191,0.086 -0.193,0.191 0.004,-0.338 0.051,-0.67 0.099,-0.99 0.06,-0.418 0.118,-0.812 0.083,-1.214 -0.01,-0.105 0.067,-0.197 0.174,-0.207 0.103,-0.009 0.198,0.068 0.207,0.175 0.038,0.446 -0.025,0.879 -0.085,1.301 C 35.048,1.426 35.003,1.729 35.001,2.041 35.003,1.936 34.918,1.85 34.81,1.848 M 19.229,19.821 c -0.026,-0.059 0.002,-0.127 0.063,-0.151 2.85,-1.158 4.858,-2.407 6.323,-3.934 0.043,-0.046 0.117,-0.047 0.164,-0.003 0.046,0.044 0.048,0.119 0.002,0.163 -1.487,1.55 -3.521,2.819 -6.402,3.988 -0.061,0.025 -0.126,-0.003 -0.15,-0.063 m -8.637,2.805 c -0.077,0.014 -0.153,-0.04 -0.166,-0.118 -0.013,-0.078 0.04,-0.154 0.117,-0.166 0.301,-0.052 0.601,-0.162 0.89,-0.268 0.364,-0.133 0.744,-0.27 1.138,-0.301 0.077,-0.005 0.147,0.055 0.153,0.133 0.005,0.081 -0.053,0.151 -0.134,0.157 -0.354,0.026 -0.695,0.15 -1.058,0.283 -0.302,0.11 -0.615,0.226 -0.94,0.28 M 0.556,27.174 C 0.457,27.188 0.344,27.129 0.327,27.031 0.311,26.934 0.354,26.848 0.45,26.83 l 0.381,-0.064 c -0.096,0.017 -0.174,0.111 -0.158,0.208 0.016,0.097 0.096,0.165 0.192,0.15 z m -104.074,29.78 -0.287,0.04 -0.285,0.043 c -0.098,0.013 -0.176,-0.056 -0.19,-0.153 -0.016,-0.099 0.064,-0.191 0.162,-0.206 l 0.243,-0.037 0.346,-0.046 c 0.098,-0.013 0.168,0.057 0.183,0.156 0.013,0.097 -0.076,0.189 -0.172,0.203 m 6.587,-3.749 c -0.022,-0.059 0.002,-0.126 0.063,-0.15 l 1.406,-0.569 0.657,-0.254 c 0.061,-0.023 0.129,0.006 0.152,0.067 0.024,0.059 -0.006,0.126 -0.065,0.15 l -0.661,0.255 -1.394,0.564 c -0.061,0.024 -0.133,-0.002 -0.158,-0.063 m -7.752,3.082 c -0.042,-0.086 -0.005,-0.19 0.081,-0.232 0.914,-0.443 1.862,-0.803 2.78,-1.15 l 1.454,-0.564 c 0.089,-0.035 0.192,0.008 0.226,0.098 0.036,0.089 -0.005,0.189 -0.096,0.224 l -1.461,0.567 c -0.908,0.344 -1.851,0.702 -2.751,1.139 -0.087,0.041 -0.191,0.005 -0.233,-0.082 m 10.796,-4.24 c -0.038,0.006 -0.074,-0.021 -0.081,-0.058 -0.006,-0.039 0.021,-0.075 0.059,-0.08 0.345,-0.057 0.645,-0.195 0.965,-0.34 l 0.328,-0.145 c 0.036,-0.017 0.077,10e-4 0.093,0.036 0.014,0.035 -0.002,0.078 -0.039,0.093 l -0.325,0.144 c -0.312,0.143 -0.635,0.289 -1,0.35 M -0.188,-0.119 C -1.601,-0.511 -3,-0.924 -4.072,-1.922 c 0.806,-0.673 1.348,0.479 2.232,0.218 0.689,0.337 1.24,0.92 1.924,1.266 l -0.168,0.132 z m -100.218,54.468 c 0.593,-1.342 2.053,-0.956 3.594,-1.37 l -0.009,0.181 0.183,0.01 c -1.195,0.598 -2.103,2.225 -3.674,1.516 l 0.007,-0.184 z m -3.583,2.696 c -1.005,0.851 -2.47,1.302 -3.69,1.038 -0.683,0.021 -0.645,1.191 -1.197,0.458 -0.14,-0.378 0.3,-0.935 0.722,-1.289 0.925,-0.775 2.367,-1.266 3.627,-1.262 l 0.001,0.222 0.204,0.084 c -0.199,0.338 0.196,0.214 0.349,0.384 l -0.13,0.176 z M -45.71,-9.751 c -0.323,-0.478 -0.595,0.007 0,0 m 4.799,4.198 c 0.145,-0.084 -0.045,-0.2 -0.174,-0.192 -0.64,-0.809 -0.374,-0.115 0.174,0.192 M -60.569,8.176 c 0.283,0.1 -0.959,-0.348 0,0 M -7.295,-5.236 c -0.534,-1.418 -2.005,-2.308 -3.304,-3.172 -0.477,-0.318 -1.203,-0.697 -1.893,-1.156 -0.617,-0.41 -1.27,-1.087 -1.781,-1.187 -1.506,-0.294 -3.513,0.654 -5.379,1.03 -0.994,0.2 -2.014,0.255 -3,0.482 -0.179,0.4 -0.742,0.587 -1.073,0.904 -0.16,0.572 0.116,1.329 0.423,1.931 -0.115,0.671 -0.809,0.943 -0.628,1.624 0.284,1.068 3.67,1.612 4.777,1.551 1.459,-0.081 2.012,-0.892 3.226,-1.389 3.008,-1.233 6.467,-0.824 8.632,-0.618 M -34.737,5.253 c -0.579,-0.865 -1.367,-1.364 -2.515,-1.223 -0.036,1.317 1.317,1.551 2.515,1.223 m 1.782,1.187 c -0.225,-0.664 -0.74,-0.808 -1.482,-0.548 0.249,0.622 0.921,0.482 1.482,0.548 M 0.123,-0.17 0.227,-0.356 c 0.67,0.139 1.01,-0.422 1.216,-0.825 -0.138,-1.365 -1.456,-1.322 -2.243,-1.54 -1.274,-0.353 -2.688,-0.932 -3.748,-0.032 l -0.002,-0.22 -0.204,-0.085 c -0.011,-0.131 0.076,-0.208 0.161,-0.285 -2.005,-0.847 -4.923,-0.952 -7.205,-0.748 -0.415,0.315 0.803,0.416 0.874,0.96 -0.34,1.286 -1.784,0.779 -2.666,0.387 -0.439,0.067 -0.683,0.245 -0.686,0.556 -0.665,-0.172 -1.436,-0.814 -2.314,-0.074 0.123,1.697 2.296,1.246 3.789,1.468 1.617,0.239 3.539,0.743 4.911,0.308 l 0.186,0.104 0.213,0.025 c 0.058,0.099 -0.087,0.173 -0.049,0.255 0.489,1.049 2.731,0.81 4.048,0.669 0.609,0.145 1.004,0.672 1.172,1.601 0.91,0.521 3.382,0.787 4.877,1.041 C 2.587,3.215 2.636,3.181 2.668,3.178 5.283,2.899 4.781,1.036 3.671,-0.118 3.278,-0.527 2.771,-0.998 2.239,-0.922 2.334,-0.398 2.698,0.277 2.566,0.674 1.832,1.899 0.707,0.292 -0.045,-0.038 Z m -19.748,10.701 c -0.599,-1.113 -1.638,-1.442 -2.512,-2.067 -1.034,0.153 -1.361,0.873 -1.2,1.303 0.302,0.808 2.924,0.71 3.712,0.764 m -31.124,8.33 -0.153,0.103 c -0.465,-0.536 -0.765,-0.404 -0.11,0.031 l -0.009,0.183 0.151,-0.103 c 0.039,0.155 0.121,0.232 0.208,0.305 0.164,-0.078 0.007,-0.267 -0.095,-0.337 z m 34.641,-6.545 c -0.4,-1.074 -1.745,-0.468 -2.693,-0.569 -0.851,-0.173 -1.814,-0.284 -2.773,-0.427 -0.844,-0.125 -1.903,-0.523 -2.535,-0.01 0.692,0.784 1.993,1.336 3.198,1.512 1.39,0.204 3.095,0.183 4.803,-0.506 M 33.243,-1.318 c -0.469,-0.674 -1.437,-0.702 -2.166,-0.838 -3.819,-0.713 -8.358,-0.753 -12.514,-1.185 -1.674,-0.175 -3.398,-0.527 -4.992,-0.166 0.358,0.607 1.192,0.558 1.768,0.71 2.945,0.78 5.911,1.587 9.032,2.526 1.26,0.379 2.541,0.908 3.712,0.765 1.79,-0.219 3.457,-1.101 5.16,-1.812 m 1.746,1.137 -0.19,0.114 c -0.022,-0.075 -0.042,-0.15 -0.063,-0.224 -1.658,0.144 -2.713,1.423 -4.567,1.767 0.115,0.925 1.596,0.592 2.581,0.6 0.714,0.006 1.46,0.264 1.883,-0.167 L 34.81,2.04 34.999,1.927 c 0.03,0.112 0.062,0.223 0.094,0.335 2.3,0.431 5.481,-0.708 8.33,-1.256 0.095,-0.522 -0.281,-1.428 -0.759,-1.839 -0.602,-0.521 -4.25,-1.205 -5.13,-1.09 -1.425,0.19 -2.498,1.067 -2.367,1.872 z m -50.242,13.825 c -1.936,-0.191 -4.232,0.988 -7.121,2.123 -1.921,0.754 -5.866,2.06 -5.326,3.789 0.211,0.675 0.634,0.606 1.096,0.897 0.427,0.27 0.697,0.632 1.176,0.755 0.852,-0.385 1.754,-0.199 2.634,-0.5 0.564,-0.191 0.944,-0.659 1.471,-0.773 1.041,-0.229 2.206,0.846 3.636,0.061 0.684,-0.375 1.309,-2.332 1.687,-3.006 0.591,-1.054 1.57,-1.878 0.747,-3.346 M 50.966,4.673 c 0.077,-4.672 -5.454,-2.598 -8.429,-2.094 0.631,1.358 2.457,0.346 3.764,0.511 0.63,0.081 0.977,0.362 1.479,0.549 0.277,0.907 0.548,1.822 1.27,1.935 0.732,-0.248 1.414,-0.524 1.916,-0.901 M -15.7,21.488 c -0.753,-0.222 -1.611,-0.262 -2.245,-0.696 -1.148,0.02 -2.072,0.711 -3.13,0.881 -0.531,0.084 -0.988,-0.186 -1.497,-0.181 -0.657,0.003 -1.377,0.271 -2.075,0.341 -1.69,0.17 -3.931,0.03 -5.602,1.094 0.508,0.569 1.446,0.878 2.369,1.141 1.693,0.482 3.489,0.781 5.547,0.853 1.339,0.047 2.628,0.303 3.876,-0.366 0.544,-0.292 1.351,-0.799 1.936,-1.269 0.538,-0.431 1.244,-1.071 0.821,-1.798 m -39.764,16.849 c -0.23,-1.323 -0.912,-1.844 -1.616,-2.32 -1.635,0.283 -2.947,-0.004 -4.691,0.475 -0.168,0.628 -0.065,1.128 -0.263,1.641 -0.579,1.515 -2.436,2.064 -3.967,3.045 0.017,0.136 0.081,0.193 0.176,0.193 3.285,-0.73 7.074,-1.991 10.361,-3.034 M 57.86,3.457 c 0.091,1.108 0.824,2.216 -0.172,2.823 -1.56,0.951 -3.603,-0.793 -5.004,-0.643 -1.186,0.127 -2.489,1.021 -3.786,1.547 -0.355,0.143 -0.787,0.185 -1.118,0.314 -0.56,0.218 -0.928,0.656 -1.438,0.886 -1.962,0.888 -4.091,0.662 -5.925,1.667 0.521,0.623 1.553,0.483 2.439,0.519 1.777,0.076 3.38,0.159 5.357,0.183 0.904,0.011 1.946,0.251 2.68,0.092 0.433,-0.096 0.872,-0.484 1.388,-0.633 0.592,-0.169 1.307,-0.203 1.883,-0.167 1.578,0.097 3.172,1.358 4.414,0.688 0.906,-0.489 1.461,-4.294 0.524,-6.296 C 58.899,4.006 58.469,3.293 57.86,3.457 M 25.698,15.816 25.516,15.809 c -0.864,0.064 -1.685,0.313 -2.491,0.579 -1.35,0.444 -3.814,1.19 -4.504,1.991 -0.696,0.801 -0.156,2.462 -1.098,2.962 -0.771,0.406 -1.159,0.044 -1.754,-0.232 -1.121,-0.519 -1.78,-1.06 -3.221,-0.299 -0.643,0.339 -1.382,0.874 -1.727,1.57 l -0.154,0.103 -0.006,0.184 c -0.7,0.157 -1.343,1.118 -1.381,1.956 0.912,0.134 1.919,-0.533 2.936,-0.706 0.453,-0.076 0.986,0.025 1.437,-0.041 3.273,-0.481 6.643,-1.574 10.104,-2.239 4.016,-0.771 8.489,-1.695 12.018,-2.293 0.119,-0.059 0.138,-0.173 0.16,-0.286 -0.945,-1.663 -3.374,-2.845 -5.278,-3.339 -1.209,-0.314 -3.801,-0.87 -4.869,0.282 z m -97.744,33.455 c 0.258,-1.36 -2.415,-3.787 -3.752,-3.046 -0.57,0.315 -0.223,0.976 -0.661,1.512 -0.583,0.249 -1.287,0.552 -1.98,0.677 -0.6,0.108 -1.34,-0.213 -1.484,0.297 -0.423,0.557 0.425,1.31 -0.485,1.704 -0.591,0.256 -1.137,-0.624 -1.594,-0.517 -1.012,0.237 -0.815,1.888 0.295,2.33 0.936,-0.102 0.936,-0.73 1.518,-1.03 1.795,0.104 6.952,-0.427 8.143,-1.927 M 46.722,16.599 c 0.069,-1.418 -1.747,-1.42 -3.087,-1.544 -1.469,-0.134 -1.819,-0.231 -2.285,0.883 -0.242,0.578 -0.417,1.084 -0.168,1.978 0.8,0.259 1.718,-0.332 2.633,-0.499 1.041,-0.191 2.27,-0.032 2.907,-0.818 m 9.228,-2.353 c 0.053,-0.746 -0.643,-0.811 -1.129,-1.01 -0.712,-0.291 -1.599,-0.673 -2.486,-0.265 0.591,1.443 2.264,2.749 3.615,1.275 M -80.691,53.269 c 0.39,1.484 1.576,1.554 2.51,2.068 1.416,0.035 2.559,-0.149 3.781,0.142 1.648,0.396 3.043,1.658 4.742,2.286 0.261,0.095 0.538,0.258 0.827,0.37 1.901,0.735 3.582,-0.739 5.096,-2.035 0.772,-0.662 2.229,-1.658 1.942,-2.959 -0.31,-1.401 -2.29,-1.578 -3.66,-1.865 -0.667,-0.14 -1.392,-0.299 -2.071,-0.503 -0.648,-0.196 -1.487,-0.6 -1.958,-0.535 -0.642,0.088 -1.079,0.693 -1.696,0.838 -0.6,0.143 -1.234,-0.283 -1.865,-0.199 -0.869,0.115 -2.085,0.658 -3.097,0.991 -1.595,0.525 -3.094,0.982 -4.551,1.401 M 0.849,26.945 0.735,26.757 c 0.496,-0.193 1.263,-0.235 1.533,-0.554 -0.909,-2.794 -6.996,-1.272 -7.037,1.136 0.405,0.84 1.445,0.261 2.311,0.074 1.035,-0.225 2.162,-0.501 2.97,-0.594 l -0.009,0.183 0.103,0.151 c 0.053,0.031 -0.034,0.192 -0.081,0.145 0.573,0.574 1.756,0.105 2.549,0.488 1.633,0.788 1.618,3.422 0.605,4.293 -2.427,2.085 -5.072,-0.033 -7.272,-0.127 -0.8,-0.034 -1.55,0.144 -2.25,0.151 -0.669,0.005 -1.472,-0.256 -1.962,0.31 -0.186,0.95 0.621,0.678 0.807,1.582 0.158,0.767 -0.451,1.47 -0.629,1.624 -2.073,1.814 -5.967,0.063 -7.578,0.925 -0.542,0.292 -0.837,1.078 -0.773,1.545 0.136,1 1.162,1.171 1.411,2.014 0.297,1 -0.54,1.188 -0.154,2.456 5.631,-0.458 11.391,-1.72 17.269,-2.927 0.681,-0.57 0.511,-1.517 0.806,-2.277 0.25,-0.648 0.806,-1.028 1.106,-1.637 -0.247,-2.053 -0.028,-3.846 1.519,-4.89 0.367,0.496 0.516,1.767 0.469,2.522 -0.075,1.227 -1.001,2.126 -1.32,3.024 0.272,0.97 -0.187,1.527 -0.043,2.425 0.429,0.274 0.813,-0.042 1.293,-0.122 4.503,-0.756 8.851,-2.49 13.126,-3.932 12.759,-4.305 23.921,-10.152 32.394,-16.466 -0.576,-0.745 -1.452,-0.597 -2.182,-0.47 -1.531,0.263 -3.69,0.887 -4.981,1.159 -0.125,0.025 -0.349,-0.119 -0.509,-0.099 -0.378,0.049 -0.75,0.164 -1.15,0.202 -0.703,0.069 -1.496,-0.008 -2.138,0.119 -0.63,0.124 -1.165,0.511 -1.755,0.615 -0.497,0.087 -0.988,-0.125 -1.469,-0.07 -1.012,0.118 -2.092,0.643 -3.129,0.88 -3.219,0.735 -6.819,1.2 -10.311,1.934 -3.566,0.75 -7.196,1.121 -10.421,1.967 -0.572,0.149 -1.166,0.474 -1.756,0.613 -1.418,0.333 -2.936,0.201 -4.326,0.492 -2.452,0.513 -4.721,1.13 -7.053,1.501 z m -76.218,34.958 c -0.032,-0.731 -0.623,-1.096 -1.031,-1.52 -0.33,-0.345 -0.901,-1.253 -1.526,-1.138 -0.704,0.129 -1.537,0.992 -2.526,1.313 -1.532,0.496 -3.085,0.131 -3.83,0.956 -0.036,1.248 0.919,1.853 1.618,2.319 2.25,-0.218 5.005,-1.182 7.295,-1.93 m 35.439,-8.638 c 0.431,-0.859 0.801,-2.26 1.163,-3.584 0.548,-2.003 1.294,-4.519 -1.03,-5.378 -1.24,0.69 -1.847,1.687 -3.355,1.787 -1.621,0.11 -2.471,-1.956 -3.867,-2.168 -0.331,0.348 -0.753,0.643 -1.183,0.935 -0.109,0.383 -0.491,0.995 -0.961,0.873 -0.159,0.002 -0.233,-0.147 -0.399,-0.128 -0.426,-0.867 0.457,-0.999 0.517,-1.592 0.612,0.238 1.08,0.027 1.564,-0.442 -0.773,-1.249 -1.615,-2.376 -3.002,-2.532 -0.697,0.08 -0.242,0.807 -0.818,0.954 -0.611,0.138 -0.704,-0.646 -1.176,-0.755 -1.326,0.175 -3.002,0.784 -3.444,-0.237 -0.334,-0.771 0.504,-0.933 0.455,-1.816 -1.344,-0.127 -2.707,0.567 -4.169,1.05 -2.308,0.765 -4.678,1.285 -6.324,2.382 0.453,1.183 1.61,1.764 2.462,2.323 0.898,0.59 1.85,1.243 2.943,1.463 0.84,1.205 1.967,1.719 3.595,2.488 0.921,0.435 2.102,0.985 2.96,1.096 0.4,0.052 0.938,-0.075 1.437,-0.042 0.84,0.056 3.038,0.715 3.954,0.335 1.08,-0.446 1.07,-1.899 2.116,-2.765 0.821,-0.68 2.03,-0.873 3.321,-1.054 1.414,-0.199 3.004,-0.727 3.57,0.685 0.383,0.958 -0.111,1.935 -0.521,2.437 -1.471,1.804 -5.713,1.905 -7.509,3.317 -0.763,0.6 -1.338,3.045 0.257,3.064 0.028,0 0.089,-0.021 0.113,-0.032 2.296,-1.121 5.603,-1.681 7.331,-2.664 m -63.593,3.509 -0.116,-0.189 c 1.288,-1.28 3.146,-0.373 4.598,-0.81 0.577,-0.173 0.981,-0.679 1.582,-0.806 0.52,-0.111 1.103,0.145 1.722,0.119 1.023,-0.046 2.065,-0.581 3.049,-0.738 0.927,-0.146 1.971,0.166 2.715,-0.641 0.021,-1.128 -0.849,-2.049 -1.377,-2.749 -0.354,-1.657 0.108,-2.871 0.528,-4.129 0.258,-0.777 0.468,-1.603 0.757,-2.022 0.301,-0.434 1.011,-1.099 1.65,-1.427 2.169,-1.12 2.996,-0.488 4.352,0.463 0.615,0.433 1.25,1.049 2.002,1.126 1.096,0.111 1.661,-0.328 3,-0.482 1.292,-1.822 0.221,-3.107 -1.304,-4.217 -0.715,-0.517 -1.675,-0.908 -2.355,-1.507 -3.003,-2.65 -1.584,-8.113 2.712,-7.517 2.864,0.398 4.22,4.106 5.919,6.899 0.872,0.383 1.614,0.536 2.836,0.649 0.768,0.072 1.728,0.163 2.28,-0.037 0.775,-0.283 1.456,-1.331 2.368,-1.872 2.711,-1.607 6.032,-1.44 9.13,-1.844 0.314,-1.117 0.233,-1.998 0.699,-3.091 0.553,-1.3 2.621,-2.698 2.249,-4.01 -0.212,-0.747 -1.528,-1.424 -2.242,-1.54 -1.117,-0.179 -2.745,0.101 -3.845,0.478 -0.787,0.271 -1.392,0.922 -2.11,1.076 -0.845,0.183 -1.857,-0.384 -2.805,-0.538 -1.619,-0.263 -3.778,0.082 -5.964,0.23 -3.967,0.269 -8.389,0.86 -12.332,1.176 -2.249,0.18 -4.381,0.046 -6.078,0.261 -0.801,0.103 -1.216,0.434 -1.821,0.393 -0.803,-0.055 -1.883,-0.882 -2.352,-1.51 -0.517,-0.69 -0.608,-1.618 -1.044,-1.997 -0.372,-0.324 -0.87,-0.246 -1.898,-0.313 -0.796,0.935 -1.161,2.11 -2.195,2.911 -1.766,0.735 -3.253,0.413 -3.776,-0.99 -0.444,-1.194 0.087,-2.235 0.954,-3.042 1.961,-1.06 3.332,0.157 4.544,0.291 0.708,0.078 1.363,-0.212 1.914,-0.057 0.04,0.012 0.308,0.276 0.459,0.353 0.808,0.417 1.14,1.086 1.555,2.097 1.493,-0.108 2.786,0.725 3.998,0.925 0.772,0.126 1.814,-0.001 2.872,-0.083 2.047,-0.16 3.995,-0.249 6.045,-0.374 3.138,-0.192 5.96,-0.507 9.078,-0.743 2.144,-0.161 4.4,0.005 6.126,-0.516 0.762,-0.232 1.494,-0.795 2.285,-0.884 0.757,-0.085 1.455,0.452 2.326,0.552 0.917,0.105 1.702,-0.038 2.552,-0.356 -0.489,-1.398 -1.89,-2.028 -2.987,-2.898 -1.051,-0.837 -2.016,-1.851 -3.066,-2.757 -1.008,-0.868 -2.048,-1.792 -3.066,-2.756 -0.998,-0.945 -2.205,-2.028 -2.938,-3.153 -0.795,-1.224 -1.143,-2.804 -1.814,-4.314 -0.657,-1.477 -1.82,-2.785 -2.934,-3.999 -1.809,-1.97 -3.5,-4.159 -4.292,-7.114 0.533,-0.728 1.353,-0.7 1.998,-1.044 1.19,-0.636 2.118,-1.763 3.312,-2.379 1.082,-0.559 2.609,-0.938 3.831,-0.957 0.502,-0.006 1.019,0.286 1.592,0.518 0.454,0.184 1.038,0.329 1.37,0.58 1.727,1.301 2.467,3.765 3.499,6.01 0.547,1.191 1.132,2.176 1.869,3.213 1.262,1.785 2.646,3.567 4.218,5.568 1.67,2.13 3.716,4.461 5.618,6.259 1.146,1.084 2.686,2.743 3.942,2.872 1.197,0.122 2.608,-0.411 3.546,-1.12 1.59,0.79 3.481,0.264 5.692,0.089 1.169,-0.092 2.449,-0.166 3.512,-0.383 1.076,-0.222 2.08,-0.732 3.128,-0.88 1.39,-0.198 2.832,0.361 4.114,0.049 0.585,-0.143 1.21,-0.486 1.837,-0.758 1.331,-0.577 2.65,-1.117 3.898,-1.578 0.611,-0.226 1.438,-0.281 1.806,-0.871 -0.627,-0.599 -1.387,-0.385 -2.247,-0.693 -0.995,-0.358 -1.922,-1.335 -2.881,-1.241 -0.868,0.085 -1.593,0.747 -2.425,0.804 -0.85,0.055 -1.738,-0.544 -2.006,-1.125 -0.706,-1.529 0.629,-2.326 0.125,-3.413 -0.3,-0.652 -2.013,-0.805 -2.929,-0.985 -1.606,-0.316 -2.818,-1.014 -4.544,-0.29 -0.955,0.94 -0.499,2.816 -1.61,3.709 -0.49,0.394 -1.347,0.82 -2.347,0.66 -0.825,-0.134 -1.83,-0.975 -2.13,-1.572 -0.242,-0.479 -0.105,-1.268 -0.342,-2.075 -0.215,-0.725 -0.766,-1.363 -0.821,-2.061 -0.107,-1.38 1.228,-2.817 3.123,-3.049 0.373,-0.045 0.615,0.166 1.02,0.197 0.399,0.03 0.832,-0.133 1.179,-0.09 0.672,0.08 1.396,0.58 2.232,0.216 -0.391,-2.955 -2.072,-5.164 -3.781,-7.017 -1.2,-1.299 -2.67,-2.735 -3.941,-3.717 -0.473,-0.365 -1.065,-0.645 -1.493,-1.026 -0.482,-0.431 -0.92,-1.238 -1.492,-1.873 -1.546,-1.713 -3.595,-3.597 -4.426,-5.87 -0.8,-2.203 -0.538,-4.272 0.311,-5.756 0.295,-0.515 1.25,-1.634 1.636,-1.907 3.395,-2.405 7.159,-0.472 9.004,1.568 0.553,0.613 1.297,1.298 1.473,2.239 0.381,-0.433 0.524,0.336 0.603,0.434 0.707,0.856 1.228,1.576 1.873,2.368 1.687,2.065 3.286,4.188 5.24,5.762 1.884,1.522 3.421,3.217 6.272,2.578 0.487,-0.11 1.066,-0.487 1.645,-0.582 0.445,-0.073 0.961,0.133 1.466,0.07 2.329,-0.291 5.161,-1.343 7.39,-1.596 -1.135,-1.6 -2.571,-2.876 -3.921,-4.084 -0.693,-0.62 -1.395,-1.213 -2.081,-1.826 -0.683,-0.611 -1.386,-1.215 -2.083,-1.827 -2.068,-1.821 -4.078,-3.999 -5.922,-6.053 -0.582,-0.647 -1.387,-1.255 -1.921,-2.113 -2.129,-3.425 -0.83,-7.391 2.379,-8.266 1.244,-0.34 2.716,-0.019 3.954,0.335 1.006,0.288 2.668,0.806 3.15,1.767 0.265,0.528 0.285,1.626 0.722,2.571 0.874,1.889 2.385,3.611 3.789,5.327 2.665,3.256 5.687,6.067 8.542,8.934 1.28,1.286 3.506,3.237 4.947,3.434 0.466,0.063 1.129,-0.092 1.768,-0.136 0.601,-0.042 1.266,-0.12 1.883,-0.169 1.267,-0.098 2.557,0.085 3.574,-0.159 1.35,-0.324 2.523,-0.937 2.709,0.203 0.278,1.685 -2.662,0.62 -3.334,0.575 -0.849,-0.056 -1.916,0.053 -2.872,0.083 -1.104,0.037 -2.316,-0.036 -2.634,0.5 1.602,2.411 4.209,3.202 6.603,4.174 0.61,0.249 1.184,0.579 1.798,0.82 0.66,0.262 1.391,0.389 1.989,0.648 0.708,0.305 1.29,1.005 2.038,1.236 1.352,0.42 3.041,0.175 4.542,0.29 0.336,0.026 0.676,0.173 1.02,0.195 1.221,0.082 2.39,0.269 3.463,-0.128 -0.502,-1.457 -1.736,-2.264 -2.713,-3.217 -0.91,-0.885 -1.751,-1.921 -2.876,-2.93 -0.476,-0.429 -1.082,-0.734 -1.558,-1.25 -0.449,-0.491 -0.787,-1.112 -1.315,-1.681 -1.054,-1.13 -2.436,-1.808 -2.634,-3.359 -0.142,-1.115 0.686,-2.235 1.845,-2.449 1.584,-0.293 3.065,1.689 4.054,2.84 0.93,1.081 1.747,1.984 2.699,2.738 0.238,0.186 0.617,0.702 0.972,0.451 -0.064,0.682 0.676,0.968 1.111,1.376 1.385,1.3 2.65,2.654 4.242,3.511 1.123,0.602 2.618,1.077 4.044,1.515 2.223,0.683 4.408,1.432 6.714,0.284 -2.332,-5.463 -6.459,-9.646 -9.939,-14.33 -2.757,-3.709 -6.123,-8.718 -8.894,-12.333 -0.469,-0.611 -0.905,-1.411 -1.319,-1.681 -0.651,-0.426 -1.64,-0.308 -2.324,-0.553 -0.551,-0.195 -1.304,-0.539 -1.831,-0.932 -0.757,-0.564 -1.016,-1.395 -1.841,-2.255 -0.676,-0.705 -1.608,-1.225 -2.335,-1.876 -1.875,-1.677 -3.395,-4.302 -5.158,-5.907 -0.861,-0.782 -1.511,-1.212 -2.128,-2.417 -1.61,-3.142 0.625,-5.977 3.464,-4.833 1.59,0.64 3.218,2.825 4.751,4.454 1.646,1.748 3.011,3.639 4.78,4.564 0.668,0.096 1.456,0.081 2.041,0.392 2.919,1.547 2.294,6.313 1.605,8.713 4.508,5.912 8.7,12.158 13.114,17.901 2.664,3.468 5.506,7.123 7.222,11.958 2.003,0.456 4.482,0.065 6.6,0.314 0.563,-0.9 3.188,-1.53 3.186,-2.824 -0.002,-0.855 -1.074,-1.725 -1.792,-2.512 -0.69,-0.755 -1.611,-1.394 -2.064,-2.192 -0.281,-0.497 -0.307,-1.219 -0.615,-1.758 -0.679,-1.193 -1.62,-1.579 -1.711,-2.653 -0.059,-0.695 0.476,-1.414 1.108,-1.638 0.916,-0.325 1.279,0.131 1.817,0.454 1.03,0.619 1.954,1.145 1.772,2.877 0.744,0.797 1.451,1.531 2.175,2.163 0.708,0.615 1.418,1.4 2.419,1.733 0.744,0.246 2.189,0.437 3.189,0.187 0.477,-0.119 0.918,-0.507 1.387,-0.632 0.58,-0.151 1.462,-0.228 1.996,-0.199 1.199,0.067 2.698,0.723 2.94,2.309 -1.446,2.393 -5.402,1.123 -8.172,1.816 -1.148,0.72 -2.493,1.169 -3.579,1.851 -1.06,0.664 -2.126,1.314 -2.785,2.109 0.948,1.602 3.048,1.265 4.507,1.869 1.512,0.627 2.737,1.827 4.263,2.298 1.168,0.361 2.531,0.228 3.68,0.654 0.664,0.247 1.196,1.002 1.987,1.492 0.605,0.372 1.405,0.453 1.911,0.789 0.737,0.489 1.231,1.317 1.746,1.921 0.225,0.573 0.512,1.239 0.901,1.918 -0.217,0.851 -0.128,1.874 -0.172,2.822 -0.474,0.071 -0.185,0.612 -0.258,0.796 -0.034,0.084 -0.259,0.103 -0.305,0.205 -0.211,0.499 -0.433,0.643 -0.275,1.164 0.31,1.007 2.205,0.916 2.913,1.351 0.319,0.198 0.754,0.556 0.843,0.849 0.215,0.704 -0.301,1.136 -0.567,1.847 -0.782,0.249 -1.873,0.805 -3.179,1.135 -2.113,0.535 -4.446,1.045 -5.937,1.187 -1.259,0.652 -2.176,1.747 -3.168,2.459 -1.179,0.848 -2.462,1.421 -3.504,2.553 -0.629,-0.13 -0.581,0.445 -1.229,0.344 -0.547,0.603 -1.012,0.967 -1.742,1.094 -0.949,0.962 -2.315,1.501 -3.486,2.187 -1.161,0.679 -2.33,1.4 -3.611,1.738 -0.22,0.298 -0.473,0.526 -0.769,0.698 -0.912,0.534 -2.088,0.987 -3.195,1.501 -4.863,2.269 -8.982,3.943 -13.388,5.575 -0.892,0.331 -1.865,0.572 -2.761,0.896 -2.538,0.92 -4.896,1.78 -7.985,2.486 -1.886,0.433 -4.257,0.54 -5.315,1.254 -1.457,0.982 -0.998,2.969 -1.564,4.3 -0.225,0.521 -0.718,0.907 -1.028,1.494 -0.453,0.856 -0.766,1.979 -1.21,2.994 -0.446,1.026 -0.991,2.074 -1.32,3.024 -0.433,1.251 -0.374,3.3 -2.232,3.642 -1.438,-1.693 0.28,-3.334 0.961,-4.732 0.401,-0.822 0.822,-1.906 1.239,-2.882 0.455,-1.06 1.132,-2.043 1.352,-2.912 0.156,-0.612 0.064,-1.338 0.312,-1.897 0.373,-0.838 1.847,-1.336 1.477,-2.465 -0.66,-0.468 -1.467,0.083 -2.106,0.231 -3.643,0.844 -7.687,1.486 -11.236,2.073 -1.496,0.247 -3.034,0.116 -4.324,0.492 -1.06,0.309 -2.15,0.95 -3.083,1.47 -0.945,0.529 -1.725,1.24 -2.48,1.904 0.194,0.352 -0.144,0.278 -0.24,0.429 -0.672,1.052 -0.861,2.67 -1.706,3.374 -1.042,0.869 -2.773,0.948 -4.294,1.449 -1.23,0.404 -2.523,0.912 -3.771,1.18 -1.056,0.228 -2.193,0.304 -3.223,0.545 -0.876,0.204 -1.661,0.553 -2.458,0.69 -0.546,0.096 -1.096,0 -1.658,0.106 -1.685,0.319 -2.686,1.109 -4.123,1.642 -1.886,0.698 -4.191,1.137 -6.083,1.951 -0.927,0.399 -1.798,1.24 -3.053,1.582 -1.146,0.312 -2.459,0.178 -3.733,0.446 -2.477,0.521 -4.763,1.689 -7.186,1.9 -0.928,0.081 -1.782,-0.084 -2.646,0.02 -1.76,0.215 -3.659,1.265 -5.204,1.223 -1.165,-0.032 -2.677,-1.008 -3.743,-0.876 -0.926,0.113 -2.587,0.893 -4.185,1.418 -1.485,0.485 -3.2,0.66 -4.392,1.112 -0.86,0.328 -1.642,1.17 -2.779,1.265 -0.623,0.05 -1.53,-0.27 -1.878,-0.679 -1.711,-2.007 1.032,-4.089 1.188,-5.64 0.067,-0.673 -0.095,-2.29 -0.276,-2.697 -0.421,-0.937 -2.296,-2.194 -3.053,-2.276 -0.353,-0.039 -1.312,0.076 -1.882,0.168 -0.611,0.097 -1.772,0.251 -2.154,0.485 -0.625,0.382 -0.229,1.311 -1.028,1.494 -0.641,0.147 -0.985,-0.929 -1.718,-0.964 -0.264,-0.013 -0.744,0.42 -1.199,0.458 -0.546,0.045 -1.176,-0.413 -1.673,-0.374 -0.884,0.07 -1.679,0.675 -2.537,0.834 -0.795,0.149 -1.314,-0.102 -1.978,-0.168 z M -13.418,-58.75 c -0.02,-0.073 -0.041,-0.147 -0.062,-0.222 0.226,-0.252 0.436,0.286 0.206,0.303 -0.027,-0.066 -0.053,-0.127 -0.144,-0.081 m 4.143,4.866 c 1.855,-0.387 2.83,3.412 0.066,3.238 -1.839,-0.116 -1.671,-2.904 -0.066,-3.238 m -17.215,13.403 c 0.334,-0.15 0.524,-0.043 0.572,0.322 -0.149,0.042 -0.299,0.084 -0.447,0.125 -0.042,-0.15 -0.084,-0.298 -0.125,-0.447 m 22.666,-5.167 c 0.073,-0.021 0.148,-0.041 0.222,-0.063 0.021,0.074 0.043,0.148 0.064,0.224 -0.075,0.02 -0.149,0.042 -0.225,0.063 -0.02,-0.075 -0.041,-0.149 -0.061,-0.224 m -19.053,6.443 c 2.54,-0.702 4.104,4.133 0.635,4.403 -2.549,0.198 -2.877,-3.784 -0.635,-4.403 m -29.727,15.231 c -0.55,-0.414 0.614,-0.333 0,0 m -24.912,8.332 c 0.425,-0.154 0.721,-0.018 0.891,0.594 -0.502,1.561 -1.991,-0.196 -0.891,-0.594 m 4.849,0.084 c 0.041,0.149 0.083,0.297 0.124,0.448 -0.109,0.031 -0.223,0.063 -0.334,0.094 -0.113,-0.284 -0.194,-0.549 0.21,-0.542 M 1.047,-36.044 c 0.124,-0.243 0.224,-0.501 0.688,-0.554 1.042,0.461 -0.428,1.82 -0.688,0.554 m -62.734,22.224 c 0.025,0.171 -0.242,0.176 -0.416,0.236 -0.354,-0.344 0.427,-0.664 0.416,-0.236 m -20.74,5.589 c 0.322,-0.067 0.531,0.06 0.605,0.433 -0.32,0.068 -0.531,-0.06 -0.605,-0.433 m 82.54,-22.123 c 0.103,-0.256 0.113,-0.566 0.546,-0.635 1.033,0.263 -0.085,1.721 -0.546,0.635 m -88.376,25.815 c -0.095,-0.274 0.077,-0.396 0.067,-0.622 0.383,-0.18 0.577,-0.022 0.845,0.004 0.259,0.669 -0.53,1.063 -0.912,0.618 m 6.818,-1.917 c 0.368,-0.046 0.157,-0.415 0.608,-0.413 0.059,0.119 0.172,0.139 0.287,0.161 0.476,0.814 -0.876,1.194 -0.895,0.252 m 46.451,-10.649 c -0.181,-0.291 0.076,-0.334 -0.045,-0.592 0.431,-0.205 0.668,-0.072 0.716,0.402 -0.282,0.03 -0.186,0.274 -0.528,0.27 -0.026,-0.067 -0.054,-0.128 -0.143,-0.08 m -29.572,8.917 c -0.136,-0.392 -0.003,-0.629 0.402,-0.716 0.131,0.103 0.232,0.258 0.27,0.527 -0.102,0.193 -0.487,0.302 -0.672,0.189 m -5.06,1.302 c 0.184,-0.147 0.357,-0.302 0.608,-0.412 0.153,0.117 0.28,0.285 0.46,0.353 0.046,0.434 -0.17,0.72 -0.738,0.81 -0.192,-0.1 -0.247,-0.454 -0.33,-0.751 m -13.75,4.71 c -1.28,0.53 -1.992,-2.564 -0.34,-2.919 1.069,0.302 1.046,2.628 0.34,2.919 m -7.381,2.92 c -0.851,0.366 -1.566,-0.956 -0.632,-1.39 0.513,-0.239 0.759,0.158 1.116,0.531 -0.257,0.464 -0.17,0.723 -0.484,0.859 M -6.045,-22.23 c 0.043,0.148 0.085,0.297 0.127,0.447 -0.112,0.031 -0.224,0.062 -0.335,0.094 -0.113,-0.284 -0.196,-0.549 0.208,-0.541 m -79.58,20.205 c 0.085,0.156 -0.053,0.713 0.059,1.068 0.158,0.509 0.487,0.717 0.505,0.943 0.095,1.14 -1.219,1.626 -1.788,0.503 -0.186,-0.37 0.006,-0.756 -0.09,-1.18 -0.114,-0.501 -0.529,-0.753 -0.489,-1.31 0.689,-1.022 1.493,-0.588 1.803,-0.024 M 30.108,-33.481 c 1.216,-0.14 1.534,2.224 0.006,2.168 -1.529,-0.055 -1.119,-2.041 -0.006,-2.168 m -23.512,9.023 c 0.279,-0.161 0.281,0.17 0.429,0.241 -0.237,0.089 -0.38,0.008 -0.429,-0.241 m 36.78,-9.015 c 0.245,-0.103 0.429,-0.091 0.51,0.097 -0.245,0.104 -0.429,0.092 -0.51,-0.097 m -18.325,-7.27 c -0.846,-0.903 -2.464,-1.9 -2.553,-3.502 -0.049,-0.889 0.672,-1.825 1.857,-1.971 1.022,-0.125 1.861,0.904 2.959,1.944 0.707,0.667 2.021,1.792 2.798,2.227 0.694,0.389 1.671,0.513 2.166,0.839 0.753,0.498 1.301,1.315 1.969,1.858 0.323,0.262 0.722,0.507 1.066,0.785 0.375,0.304 0.785,0.752 1.096,0.898 0.818,0.383 1.997,0.303 2.562,0.968 2.18,2.565 -0.802,6.396 -3.543,4.977 -0.762,-0.393 -0.949,-1.182 -1.636,-1.953 -0.547,-0.613 -1.465,-1.159 -2.399,-2.099 -0.733,-0.738 -1.451,-1.949 -2.319,-2.243 -0.898,-0.302 -1.361,0.252 -2.504,0.102 -0.532,-1.403 -0.764,-2.024 -1.519,-2.83 m -27.627,20.552 c -0.02,-0.506 0.68,-0.789 1.117,-0.314 0.204,1.177 -1.084,1.197 -1.117,0.314 m 36.447,-9.766 c 1.462,-0.254 1.966,2.631 -0.041,2.424 -1.478,-0.154 -1.149,-2.217 0.041,-2.424 M -91.637,9.192 c 0.074,-0.02 0.148,-0.042 0.223,-0.062 0.021,0.075 0.042,0.149 0.062,0.224 -0.073,0.021 -0.148,0.042 -0.222,0.062 -0.021,-0.074 -0.041,-0.149 -0.063,-0.224 M 38.127,-28.982 c 1.401,-0.332 1.947,2.21 0.293,2.33 -1.859,0.134 -1.125,-2.133 -0.293,-2.33 m -41.538,13.971 c 0.47,1.143 -1.956,1.297 -1.163,-0.277 0.714,-0.259 0.995,-0.135 1.163,0.277 m -39.058,12.067 c 0.301,-0.193 0.316,-0.198 0.67,-0.189 0.139,0.391 0.004,0.63 -0.401,0.717 -0.131,-0.104 -0.231,-0.259 -0.269,-0.528 m 83.058,-23.715 c 0.038,-0.463 0.621,-0.827 1.327,-0.856 2.154,1.42 -1.529,3.283 -1.327,0.856 m -38.102,12.04 c 0.285,-0.114 0.492,-0.096 0.542,0.208 -0.141,0.047 -0.115,0.187 -0.304,0.206 -0.078,-0.141 -0.219,-0.167 -0.238,-0.414 m -22.292,7.352 c 0.383,-0.382 0.935,-0.566 1.372,-0.265 0.797,1.571 -1.713,2.04 -1.372,0.265 m -33.68,11.038 c 0.141,-0.413 1.049,-0.649 1.1,0.053 -0.018,0.615 -1.04,0.982 -1.1,-0.053 m 98.583,-29.407 c 0.273,0.04 1.102,0.419 1.142,1.488 0.025,0.691 -0.621,1.205 -1.203,1.302 -2.414,0.411 -1.823,-3.066 0.061,-2.79 m -57.254,19.837 c -0.416,-0.852 0.886,-1.381 1.167,-0.569 -0.08,0.49 -0.73,1.054 -1.167,0.569 m 55.943,-15.489 c 0.08,0.038 0.556,0.543 0.618,0.912 0.124,0.73 -0.489,1.297 -1.201,1.302 -2.067,0.018 -0.732,-2.826 0.583,-2.214 M -77.008,15.329 c 0.191,-0.059 0.312,0.006 0.399,0.13 -0.178,0.039 -0.384,0.124 -0.399,-0.13 M -53.297,8.3 c 0.273,-0.091 0.535,-0.167 0.703,-0.076 0.004,0.285 -0.004,0.562 -0.289,0.684 -0.291,0.069 -0.328,-0.311 -0.414,-0.608 m -44.789,13.559 c 0.382,-0.222 0.599,0.425 0.269,0.528 -0.129,-0.104 -0.231,-0.259 -0.269,-0.528 M -9.255,-1.912 c 0.346,-0.439 0.702,-0.582 1.309,-0.488 1.104,1.322 -1.492,2.328 -1.309,0.488 M -44.88,9.07 c 0.119,-0.059 0.14,-0.174 0.161,-0.287 0.401,-0.152 0.623,0.011 0.797,0.259 -0.064,0.519 -0.818,0.952 -0.958,0.028 m -49.709,15.786 c 0.33,-0.199 0.399,0.074 0.54,0.208 -0.14,0.081 -0.169,0.221 -0.416,0.24 -0.041,-0.15 -0.083,-0.298 -0.124,-0.448 m 53.255,-13.044 c -0.251,0.109 -0.4,0.348 -0.672,0.189 -0.083,-0.205 0.059,-0.282 -0.014,-0.479 0.397,-0.201 0.581,-0.027 0.686,0.29 m 5.154,-0.966 c 0.047,-0.225 0.099,-0.449 0.465,-0.494 0.059,0.119 0.172,0.139 0.287,0.161 0.003,0.285 -0.004,0.562 -0.291,0.684 -0.19,-0.051 -0.402,-0.067 -0.461,-0.351 m -0.991,0.759 c 0.073,-0.021 0.15,-0.042 0.223,-0.062 0.02,0.074 0.042,0.149 0.064,0.224 -0.075,0.02 -0.149,0.042 -0.224,0.062 -0.021,-0.075 -0.042,-0.149 -0.063,-0.224 m -7.433,4.021 c 0.361,-0.14 0.683,-0.211 0.844,0.004 0.027,0.358 -0.087,0.641 -0.513,0.746 -0.241,-0.233 -0.393,-0.362 -0.331,-0.75 M 59.677,-11.525 c 0.147,-0.278 0.4,-0.15 0.671,-0.189 0.109,0.375 0.012,0.635 -0.116,0.877 -0.169,-0.254 -0.428,-0.352 -0.555,-0.688 M -92.879,35.229 c 0.076,-0.021 0.15,-0.042 0.225,-0.063 0.046,0.143 0.185,0.114 0.204,0.304 -0.11,0.031 -0.223,0.063 -0.334,0.094 -0.032,-0.112 -0.063,-0.223 -0.095,-0.335 m 69.521,-16.534 c 0.074,-0.02 0.147,-0.041 0.222,-0.061 0.022,0.074 0.042,0.148 0.063,0.223 -0.073,0.021 -0.149,0.041 -0.223,0.062 -0.02,-0.074 -0.041,-0.148 -0.062,-0.224 m -39.779,12.514 c -0.013,-0.556 0.767,-1.027 1.392,-0.633 0.694,1.67 -1.361,1.787 -1.392,0.633 m -10.832,4.37 c -0.709,-0.775 0.293,-1.679 1.013,-1.127 0.292,0.732 -0.257,1.271 -1.013,1.127 m 4.343,-0.858 c -0.073,-0.261 -0.147,-0.522 -0.219,-0.783 0.278,-0.459 0.642,-0.512 1.198,-0.457 0.546,0.93 -0.263,1.577 -0.979,1.24 m -23.211,13.521 c -0.187,-0.365 0.279,-0.512 0.494,-0.381 0.188,0.366 -0.277,0.512 -0.494,0.381 M 14.967,21.187 c -0.249,-0.002 -0.695,0.344 -0.814,0.108 0.251,10e-4 0.697,-0.345 0.814,-0.108 M -92.482,50.796 c 0.011,-0.183 0.086,-0.329 0.098,-0.511 0.442,-0.171 0.791,-0.178 0.908,0.228 -0.349,0.265 0.126,0.41 -0.034,0.733 -0.5,0.163 -0.761,-0.1 -0.972,-0.45 M 9.588,26.075 c -0.21,-0.463 0.467,-0.501 0.479,-0.013 -0.192,0.062 -0.354,0.073 -0.479,0.013 M -98.096,58.283 c 0.08,-0.47 0.673,-0.584 1.007,-0.283 0.291,0.768 -0.876,1.194 -1.007,0.283 m -11.545,3.97 c 0.253,-0.108 0.099,-0.446 0.465,-0.492 0.236,-0.032 0.304,0.24 0.54,0.209 0.255,0.792 -0.814,1.163 -1.005,0.283 m 10.744,1.321 c 0.148,-0.043 0.297,-0.084 0.447,-0.127 0.113,0.284 0.093,0.493 -0.212,0.542 -0.077,-0.14 -0.217,-0.169 -0.235,-0.415 m 4.794,1.185 c 0.348,1.402 -1.764,0.705 -0.909,-0.228 -0.291,-0.04 -0.468,-0.284 -0.555,-0.688 0.079,-0.552 0.983,-0.672 1.181,-0.091 0.036,0.304 -0.239,0.432 -0.146,0.765 0.237,-0.089 0.381,-0.007 0.429,0.242 m 5.045,2.077 c -0.091,-0.271 -0.168,-0.533 -0.075,-0.702 0.355,-0.131 0.574,-0.019 0.684,0.29 -0.051,0.191 -0.069,0.402 -0.354,0.463 -0.049,-0.08 -0.13,-0.106 -0.255,-0.051 M 31.455,36.932 c -0.166,-0.321 -0.41,-0.502 -0.827,-0.37 -0.023,0.113 -0.043,0.227 -0.16,0.286 0.136,0.872 0.779,0.524 0.987,0.084"
             style="fill:#262626;fill-opacity:1;fill-rule:nonzero;stroke:none"
             id="path22"
             inkscape:connector-curvature="0" />
        </g>
      </g>
    </g>
  </g>
</svg>
