<?xml version="1.0" encoding="UTF-8" standalone="no"?>
<!-- Created with Inkscape (http://www.inkscape.org/) -->

<svg
   xmlns:dc="http://purl.org/dc/elements/1.1/"
   xmlns:cc="http://creativecommons.org/ns#"
   xmlns:rdf="http://www.w3.org/1999/02/22-rdf-syntax-ns#"
   xmlns:svg="http://www.w3.org/2000/svg"
   xmlns="http://www.w3.org/2000/svg"
   xmlns:sodipodi="http://sodipodi.sourceforge.net/DTD/sodipodi-0.dtd"
   xmlns:inkscape="http://www.inkscape.org/namespaces/inkscape"
   width="64.793549mm"
   height="56.284664mm"
   viewBox="0 0 64.793549 56.284664"
   version="1.1"
   id="svg4468"
   inkscape:version="0.92.2 2405546, 2018-03-11"
   sodipodi:docname="paint10.svg">
  <defs
     id="defs4462">
    <clipPath
       clipPathUnits="userSpaceOnUse"
       id="clipPath30">
      <path
         d="M 0,600 H 600 V 0 H 0 Z"
         id="path28"
         inkscape:connector-curvature="0" />
    </clipPath>
  </defs>
  <sodipodi:namedview
     id="base"
     pagecolor="#ffffff"
     bordercolor="#666666"
     borderopacity="1.0"
     inkscape:pageopacity="0.0"
     inkscape:pageshadow="2"
     inkscape:zoom="0.35"
     inkscape:cx="8.5714286"
     inkscape:cy="560"
     inkscape:document-units="mm"
     inkscape:current-layer="layer1"
     showgrid="false"
     fit-margin-top="0"
     fit-margin-left="0"
     fit-margin-right="0"
     fit-margin-bottom="0"
     inkscape:window-width="3840"
     inkscape:window-height="2095"
     inkscape:window-x="0"
     inkscape:window-y="0"
     inkscape:window-maximized="1" />
  <metadata
     id="metadata4465">
    <rdf:RDF>
      <cc:Work
         rdf:about="">
        <dc:format>image/svg+xml</dc:format>
        <dc:type
           rdf:resource="http://purl.org/dc/dcmitype/StillImage" />
        <dc:title></dc:title>
      </cc:Work>
    </rdf:RDF>
  </metadata>
  <g
     inkscape:label="Layer 1"
     inkscape:groupmode="layer"
     id="layer1"
     transform="translate(0,-240.71534)">
    <g
       transform="matrix(0.35277777,0,0,-0.35277777,-73.081337,301.20991)"
       id="g24">
      <g
         id="g26"
         clip-path="url(#clipPath30)">
        <g
           id="g32"
           transform="translate(271.7637,87.6465)">
          <path
             d="m 0,0 c -0.06,-0.021 -0.091,-0.086 -0.071,-0.145 0.186,-0.544 0.509,-0.958 0.852,-1.393 l 0.076,-0.098 c 0.039,-0.05 0.111,-0.058 0.161,-0.018 0.049,0.039 0.058,0.11 0.02,0.159 L 0.961,-1.397 C 0.631,-0.977 0.319,-0.579 0.145,-0.071 0.125,-0.012 0.06,0.021 0,0 M 3.879,-3.545 C 3.816,-3.585 3.797,-3.669 3.837,-3.732 4.049,-4.063 4.396,-4.214 4.733,-4.359 L 5.324,-4.676 C 5.39,-4.711 5.492,-4.7 5.528,-4.634 5.563,-4.567 5.559,-4.499 5.493,-4.463 L 4.84,-4.11 c -0.313,0.135 -0.608,0.262 -0.774,0.523 -0.04,0.064 -0.124,0.082 -0.187,0.042 m 43.35,27.259 c -0.033,-0.033 -0.034,-0.086 0,-0.119 l 0.212,-0.213 c 0.265,-0.262 0.539,-0.533 0.681,-0.855 0.019,-0.042 0.068,-0.062 0.112,-0.043 0.042,0.019 0.063,0.069 0.042,0.112 -0.153,0.35 -0.439,0.633 -0.715,0.907 l -0.21,0.21 c -0.034,0.033 -0.088,0.034 -0.122,10e-4 m -11.093,11.49 c -0.043,-0.025 -0.059,-0.08 -0.034,-0.123 l 0.05,-0.083 0.124,-0.261 c 0.022,-0.046 0.081,-0.079 0.127,-0.057 0.045,0.021 0.07,0.061 0.049,0.106 l -0.144,0.304 -0.046,0.08 c -0.026,0.043 -0.082,0.059 -0.126,0.034 m -5.624,5.841 c -0.053,-0.014 -0.081,-0.067 -0.068,-0.119 0.05,-0.178 0.185,-0.298 0.303,-0.405 0.109,-0.099 0.214,-0.192 0.242,-0.318 0.012,-0.052 0.064,-0.085 0.116,-0.074 0.051,0.013 0.084,0.064 0.073,0.115 -0.041,0.188 -0.174,0.307 -0.302,0.422 -0.108,0.096 -0.211,0.188 -0.246,0.313 -0.015,0.051 -0.067,0.082 -0.118,0.066 m -72.208,17.97 c -0.02,-0.071 0.021,-0.143 0.091,-0.162 1.253,-0.347 2.535,-0.818 3.775,-1.275 l 3.141,-1.091 c 0.068,-0.024 0.138,0.014 0.162,0.081 0.024,0.07 -0.017,0.146 -0.085,0.168 l -3.128,1.089 c -1.245,0.457 -2.531,0.93 -3.796,1.28 -0.069,0.02 -0.141,-0.022 -0.16,-0.09 m -8.463,2.999 c -0.068,-0.018 -0.108,-0.085 -0.09,-0.153 0.017,-0.067 0.085,-0.106 0.152,-0.09 0.25,0.065 0.457,-0.039 0.697,-0.162 0.224,-0.113 0.456,-0.231 0.74,-0.206 0.069,0.007 0.119,0.069 0.113,0.136 -0.007,0.069 -0.067,0.119 -0.136,0.113 -0.212,-0.018 -0.402,0.078 -0.605,0.18 -0.248,0.127 -0.53,0.271 -0.871,0.182 m -6.094,2.13 c -0.037,-0.064 -0.015,-0.145 0.049,-0.182 0.643,-0.366 1.351,-0.623 2.047,-0.744 0.073,-0.013 0.141,0.036 0.154,0.108 0.013,0.073 -0.036,0.142 -0.108,0.154 -0.666,0.116 -1.344,0.363 -1.96,0.714 -0.064,0.035 -0.145,0.013 -0.182,-0.05 M 73.31,12.749 c -0.112,-0.01 -0.194,-0.109 -0.184,-0.221 0.01,-0.111 0.108,-0.194 0.22,-0.183 2.204,0.195 4.39,0.133 6.323,-0.181 0.11,-0.018 0.214,0.057 0.232,0.168 0.019,0.11 -0.056,0.215 -0.167,0.233 -1.964,0.319 -4.187,0.382 -6.424,0.184 m -4.143,0.879 c -0.096,-0.086 -0.103,-0.232 -0.016,-0.326 0.653,-0.717 1.684,-0.898 2.701,-0.985 0.127,-0.011 0.238,0.082 0.25,0.209 0.01,0.127 -0.083,0.241 -0.211,0.251 -0.923,0.079 -1.853,0.237 -2.399,0.835 -0.086,0.094 -0.232,0.102 -0.325,0.016 m 22.591,3.209 c -0.007,-0.079 0.033,-0.146 0.111,-0.151 l 0.482,-0.04 c 0.287,-0.005 0.584,-0.011 0.709,-0.179 0.046,-0.065 0.138,-0.077 0.202,-0.03 0.064,0.047 0.076,0.137 0.029,0.202 -0.211,0.281 -0.595,0.289 -0.935,0.295 l -0.423,0.032 c -0.079,0.007 -0.169,-0.05 -0.175,-0.129 m -11.243,0.356 c -0.02,-0.152 0.069,-0.29 0.223,-0.309 l 0.447,-0.057 0.451,-0.062 c 0.154,-0.021 0.325,0.081 0.346,0.234 0.022,0.154 -0.056,0.291 -0.211,0.313 l -0.537,0.076 -0.385,0.048 c -0.154,0.018 -0.316,-0.087 -0.334,-0.243 m -31.709,2.424 c -0.083,-0.067 -0.097,-0.19 -0.029,-0.274 0.756,-0.932 1.883,-1.553 2.788,-2.051 0.095,-0.051 0.213,-0.018 0.265,0.077 0.052,0.095 0.018,0.213 -0.076,0.265 -0.876,0.481 -1.966,1.082 -2.675,1.955 -0.068,0.084 -0.19,0.096 -0.273,0.028 m -28.547,0.485 c -0.049,-0.146 0.047,-0.308 0.192,-0.359 l 0.428,-0.144 c 0.282,-0.108 0.574,-0.217 0.908,-0.229 0.153,-0.005 0.282,0.115 0.287,0.269 0.005,0.153 -0.115,0.281 -0.268,0.287 -0.243,0.008 -0.479,0.096 -0.73,0.192 l -0.484,0.162 c -0.145,0.05 -0.284,-0.033 -0.333,-0.178 m -3.653,1.155 c -0.049,-0.152 -0.213,-0.233 -0.364,-0.183 l 0.364,-0.121 c 0.152,-0.051 0.315,0.031 0.365,0.183 0.051,0.15 -0.032,0.313 -0.182,0.363 l -0.364,0.122 c 0.15,-0.051 0.233,-0.213 0.181,-0.364 m -77.088,8.974 c -0.013,-0.086 0.047,-0.167 0.134,-0.178 l 2.373,-0.332 3.997,-0.579 c 0.087,-0.012 0.17,0.048 0.182,0.134 0.013,0.087 -0.045,0.167 -0.131,0.179 l -4.004,0.579 -2.372,0.332 c -0.086,0.012 -0.167,-0.048 -0.179,-0.135 m 14.181,-2.124 c -0.012,-0.099 0.057,-0.188 0.156,-0.201 13.74,-1.707 27.531,-4.141 40.867,-6.496 9.704,-1.713 19.738,-3.484 29.598,-4.944 0.098,-0.014 0.189,0.054 0.203,0.152 0.016,0.098 -0.052,0.189 -0.15,0.203 -9.855,1.461 -19.887,3.231 -29.588,4.945 -13.341,2.355 -27.137,4.79 -40.885,6.497 -0.099,0.013 -0.189,-0.057 -0.201,-0.156 M 22.707,13.918 c -0.153,0 -0.278,-0.125 -0.278,-0.279 0,-0.154 0.125,-0.278 0.278,-0.278 h 0.364 c 0.153,0 0.278,0.124 0.278,0.278 0,0.154 -0.125,0.279 -0.278,0.279 z M 17.915,7.087 C 17.813,7.055 17.755,6.946 17.787,6.844 17.819,6.741 17.928,6.685 18.03,6.717 c 0.395,0.123 0.814,0.124 1.152,0.002 0.1,-0.035 0.212,0.016 0.247,0.117 0.037,0.102 -0.015,0.212 -0.117,0.248 -0.415,0.15 -0.924,0.15 -1.397,0.003 M -3.836,6.356 -4.312,6.228 -4.926,6.055 C -5.104,6.005 -5.159,5.838 -5.11,5.66 -5.061,5.482 -4.83,5.395 -4.651,5.442 l 0.467,0.127 0.628,0.178 c 0.178,0.051 0.231,0.217 0.181,0.395 -0.049,0.177 -0.283,0.263 -0.461,0.214 M 6.674,7.479 C 6.522,7.477 6.403,7.35 6.408,7.196 6.413,7.046 6.54,6.926 6.691,6.931 9.909,7.028 13.33,7.097 16.669,6.749 16.82,6.734 16.956,6.844 16.971,6.994 16.987,7.146 16.877,7.281 16.727,7.297 13.353,7.647 9.911,7.58 6.674,7.479 M 21.051,6.925 C 21.038,6.814 21.131,6.713 21.242,6.702 L 22.557,6.553 C 23.479,6.42 24.434,6.281 25.311,6.526 25.417,6.557 25.48,6.667 25.45,6.773 25.42,6.881 25.309,6.942 25.202,6.913 24.407,6.69 23.497,6.823 22.614,6.95 L 21.259,7.103 C 21.149,7.114 21.063,7.034 21.051,6.925 m -7.78,-15.776 c -0.049,-0.081 0.019,-0.208 0.102,-0.257 l 0.389,-0.24 0.521,-0.308 c 0.083,-0.048 0.147,-10e-4 0.196,0.081 0.05,0.082 -0.019,0.208 -0.101,0.258 l -0.396,0.243 -0.514,0.303 c -0.083,0.049 -0.147,0.003 -0.197,-0.08 m 2.779,-1.796 c -0.063,-0.056 -0.069,-0.153 -0.012,-0.215 1.035,-1.156 2.213,-2.207 3.353,-3.226 1.056,-0.944 2.149,-1.92 3.113,-2.967 0.057,-0.062 0.154,-0.066 0.216,-0.008 0.061,0.056 0.065,0.154 0.008,0.214 -0.973,1.059 -2.072,2.039 -3.135,2.99 -1.133,1.011 -2.305,2.058 -3.328,3.201 -0.056,0.062 -0.152,0.067 -0.215,0.011 m 10.658,-10.235 c -0.142,-0.103 -0.174,-0.303 -0.07,-0.444 1.145,-1.57 2.39,-3.123 3.595,-4.624 1.224,-1.524 2.49,-3.101 3.653,-4.699 0.102,-0.142 0.302,-0.173 0.444,-0.071 0.142,0.104 0.173,0.303 0.069,0.446 -1.171,1.61 -2.44,3.192 -3.669,4.722 -1.201,1.495 -2.442,3.042 -3.578,4.599 -0.103,0.142 -0.302,0.174 -0.444,0.071 m 67.007,6.594 -0.086,-0.194 c -0.147,-0.338 -0.298,-0.687 -0.577,-0.829 -0.136,-0.067 -0.191,-0.233 -0.121,-0.368 0.067,-0.135 0.232,-0.19 0.368,-0.123 0.458,0.232 0.657,0.694 0.834,1.101 l 0.081,0.184 c 0.061,0.139 -0.001,0.304 -0.139,0.366 -0.138,0.061 -0.299,0.002 -0.36,-0.137 m -3.841,35.526 -0.991,-0.089 c -3.183,-0.278 -6.789,-0.594 -9.339,-2.573 -0.111,-0.087 -0.131,-0.248 -0.045,-0.359 0.087,-0.112 0.247,-0.132 0.358,-0.045 2.431,1.887 5.958,2.195 9.07,2.468 l 0.995,0.089 c 0.141,0.012 0.243,0.137 0.231,0.277 -0.013,0.141 -0.138,0.245 -0.279,0.232 M 66.883,16.592 c -0.151,-0.054 -0.23,-0.22 -0.176,-0.37 0.054,-0.152 0.22,-0.231 0.37,-0.177 2.904,1.031 5.991,1.093 9.162,1.066 0.16,-0.001 0.291,0.128 0.293,0.288 0.001,0.161 -0.128,0.292 -0.288,0.293 -3.224,0.027 -6.367,-0.037 -9.361,-1.1 m -22.687,5.65 c -0.024,-0.099 0.037,-0.2 0.136,-0.223 0.542,-0.134 0.988,-0.462 1.46,-0.809 0.441,-0.324 0.896,-0.659 1.443,-0.827 0.097,-0.03 0.201,0.024 0.231,0.121 0.03,0.098 -0.025,0.201 -0.122,0.23 -0.488,0.151 -0.898,0.453 -1.333,0.773 -0.481,0.353 -0.977,0.719 -1.591,0.869 -0.099,0.024 -0.198,-0.035 -0.224,-0.134 m -6.354,4.418 c -0.051,-0.09 -0.02,-0.203 0.068,-0.254 1.661,-0.951 3.022,-1.768 4.151,-2.884 0.072,-0.073 0.19,-0.072 0.262,0.002 0.072,0.072 0.072,0.19 -0.002,0.262 -1.161,1.148 -2.542,1.978 -4.226,2.943 -0.088,0.05 -0.202,0.02 -0.253,-0.069 m -47.91,31.989 c -0.091,-0.115 -0.071,-0.282 0.043,-0.372 9.644,-7.608 20.26,-14.327 30.528,-20.825 l 9.708,-6.19 c 0.123,-0.078 0.288,-0.043 0.366,0.08 0.079,0.123 0.044,0.286 -0.079,0.363 l -9.713,6.193 c -10.256,6.491 -20.861,13.203 -30.482,20.794 -0.115,0.091 -0.281,0.071 -0.371,-0.043 m -49.858,3.955 c -0.04,-0.081 -0.008,-0.181 0.073,-0.22 7.791,-3.912 15.859,-7.589 23.66,-11.146 5.496,-2.504 11.178,-5.093 16.741,-7.754 0.081,-0.04 0.179,-0.005 0.218,0.077 0.04,0.082 0.005,0.18 -0.077,0.219 -5.565,2.661 -11.249,5.252 -16.746,7.758 -7.798,3.554 -15.863,7.23 -23.649,11.138 -0.081,0.042 -0.18,0.009 -0.22,-0.072 m 0.136,2.515 c -0.023,-0.056 0.014,-0.123 0.07,-0.145 l 0.3,-0.12 c 0.227,-0.101 0.461,-0.206 0.752,-0.156 0.06,0.01 0.1,0.067 0.089,0.126 -0.01,0.06 -0.067,0.101 -0.127,0.09 -0.224,-0.038 -0.419,0.049 -0.625,0.141 l -0.326,0.13 c -0.056,0.021 -0.111,-0.009 -0.133,-0.066 m 57.916,8.349 c -0.077,-0.079 -0.076,-0.206 0.003,-0.283 l 8.23,-8.023 c 6.475,-6.266 13.169,-12.747 19.295,-19.429 0.076,-0.083 0.202,-0.087 0.284,-0.012 0.083,0.074 0.088,0.202 0.013,0.284 -6.134,6.691 -12.833,13.176 -19.312,19.446 l -8.227,8.02 c -0.079,0.077 -0.208,0.076 -0.286,-0.003 M 8.252,-5.836 c -0.055,-0.089 -0.027,-0.205 0.062,-0.26 0.342,-0.211 0.701,-0.351 1.037,-0.472 0.098,-0.036 0.206,0.015 0.241,0.113 0.035,0.099 -0.015,0.207 -0.113,0.242 -0.367,0.132 -0.672,0.257 -0.967,0.438 -0.089,0.055 -0.205,0.027 -0.26,-0.061 m 86.775,22.052 c -0.014,-0.083 0.04,-0.163 0.124,-0.178 1.971,-0.353 4.029,-0.292 6.019,-0.231 l 2.565,0.047 c 0.085,0.001 0.157,0.071 0.155,0.155 -0.001,0.084 -0.068,0.152 -0.153,0.15 l -2.577,-0.046 c -1.973,-0.059 -4.015,-0.122 -5.955,0.227 -0.083,0.014 -0.163,-0.041 -0.178,-0.124 M -27.879,53.778 c -0.044,-0.082 -0.028,-0.174 0.052,-0.218 l 0.455,-0.247 c 0.211,-0.101 0.41,-0.196 0.553,-0.339 0.066,-0.067 0.172,-0.067 0.237,-10e-4 0.067,0.065 0.067,0.172 0.001,0.237 -0.184,0.185 -0.419,0.297 -0.646,0.405 l -0.41,0.222 c -0.082,0.045 -0.198,0.023 -0.242,-0.059 M 0.765,-1.564 c 0.538,-1.345 1.474,-2.29 3.278,-2.369 L 3.952,-3.659 4.225,-3.75 v 1.274 c -1.286,0.172 -1.964,0.95 -3.278,1.092 v -0.18 z m -0.728,1.456 h 0.182 c 0.356,0.409 0.158,1.37 0,1.82 C -0.21,1.708 -0.317,2.026 -0.874,1.896 -1.747,1.094 -0.894,-0.186 0.037,-0.29 Z m 28.771,42.79 c -0.164,0.245 -0.878,0.953 -0.729,0.729 0.381,-0.571 0.843,-0.901 0.729,-0.729 m -60.272,12.746 c 1.203,-0.316 -1.474,0.466 0,0 m -12.929,4.552 c 1.454,-0.472 -1.214,0.548 0,0 M 71.779,12.273 c 0.468,-0.807 1.252,-0.294 1.822,0.183 l -0.273,0.09 0.092,0.273 h -1.641 l 0.092,-0.273 z M -45.85,28.297 c -2.54,0.616 -4.918,1.394 -8.193,1.274 l 0.09,-0.272 -0.272,-0.092 c 2.211,-1.004 5.226,-1.206 8.194,-1.455 l -0.092,0.334 z M 22.797,13.912 c -1.01,1.788 -1.925,-1.552 0,-0.546 l -0.09,0.273 z M -4.697,6.083 c -2.38,0.391 -3.621,-1.539 -5.645,-2.186 -1.805,-0.576 -8.664,-0.623 -8.922,-2.548 -0.112,-0.829 1.328,-2.07 1.82,-2.369 2.098,-1.27 6.551,-1.698 8.377,0 0.709,1.587 0.007,3.183 0.728,4.371 0.797,1.313 2.757,1.104 3.823,2.185 L -4.789,5.748 Z M 6.774,7.539 C 5.866,7.784 4.314,7.386 4.043,8.268 2.881,7.661 1.445,7.661 0.037,7.357 -1.323,7.063 -2.824,6.762 -3.969,6.265 L -3.696,6.053 -3.787,5.719 C -0.27,6.207 3.704,6.239 6.956,6.993 L 6.683,7.206 Z M 18.064,7.175 C 17.928,7.586 17.043,7.246 16.606,7.357 L 16.698,7.023 16.425,6.812 c 0.456,-0.618 1.365,-0.618 1.821,0 l -0.273,0.09 z M 21.523,6.993 C 21.232,7.491 21.614,7.77 21.159,8.268 20.033,8.361 20.475,6.888 19.156,7.175 l 0.091,-0.273 -0.273,-0.09 c 0.261,-0.409 0.585,-0.751 0.91,-1.093 0.785,0.003 0.671,0.907 1.458,0.909 L 21.25,6.902 Z m -7.83,-15.842 c -0.005,0.662 -0.535,0.801 -1.274,0.729 0.065,-0.662 0.43,-1.027 1.092,-1.093 L 13.42,-8.94 Z m 2.732,-2.003 c 0.557,0.377 0.013,1.182 0.181,2.186 -1.169,0.198 -1.57,-0.372 -2.366,-0.547 l 0.091,-0.273 -0.274,-0.09 c 0.426,-0.789 0.859,-1.57 2.185,-1.457 l -0.091,0.272 z M 27.168,-21.23 c -0.299,1.946 -1.78,2.71 -2.731,4.005 -0.323,-0.37 -1.169,0.278 -1.64,0.365 l -0.181,-0.091 -0.183,0.091 c -0.064,-0.908 -0.5,-1.442 -0.364,-2.549 0.618,-1.629 2.99,-1.503 4.735,-2.003 l 0.091,0.272 z m 66.099,6.008 c -0.997,-0.035 -2.302,0.239 -2.185,-0.91 0.281,-1.337 2.272,-0.588 2.366,0.363 l -0.272,0.213 z M 75.969,17.189 c 1.426,-0.334 3.364,-0.155 4.916,-0.364 l -0.091,0.335 0.272,0.212 c -0.392,0.336 -1.288,0.169 -1.092,1.092 l -0.273,-0.09 -0.091,0.272 c -0.807,-0.65 -1.741,-1.173 -3.46,-0.911 l 0.091,-0.333 z m -28.953,3.279 c 0.473,-0.559 1.001,-1.064 1.822,-1.275 l 0.09,0.273 0.273,-0.091 c -0.05,0.618 0.142,1.476 -0.182,1.821 -0.92,0.192 -1.041,-0.415 -1.822,-0.364 l 0.092,-0.273 z m -5.098,3.277 c -0.089,-0.999 0.127,-1.693 0.546,-2.184 0.864,-0.077 1.489,0.087 2.003,0.363 l -0.091,0.273 0.272,0.091 c -0.502,0.832 -1.498,1.173 -2.366,1.64 L 42.19,23.654 Z M -9.614,58.706 c -0.689,1.114 -1.932,1.195 -2.731,2.367 -0.58,0.851 -0.588,2.082 -1.275,2.913 -1.562,1.89 -5.353,2.561 -6.009,-0.181 -0.71,-2.968 3.254,-4.793 6.92,-3.825 1.037,-0.54 1.775,-1.38 2.913,-1.82 l -0.065,0.324 z m -50.074,4.006 c -0.887,0.302 -1.397,2.019 0,2.184 v 0.183 h 0.182 c -1.414,0.537 -3.361,2.041 -5.098,1.093 0.173,-2.739 3.27,-2.558 4.916,-3.824 l -0.091,0.181 z M 20.431,20.285 c -0.754,0.945 -2.453,0.947 -3.825,1.276 l 0.092,-0.334 -0.273,-0.214 c 0.01,-0.111 0.027,-0.215 0.181,-0.181 -0.08,-3.833 2.574,-2.7 4.007,-1.094 l -0.091,0.275 z m 53.17,-27.678 c -0.874,0.012 -2.845,0.406 -3.824,0.911 0.189,2.377 4.968,1.528 3.824,-0.911 m 10.561,-2.003 c -0.803,1.597 0.579,2.106 0.547,3.643 -0.027,1.249 -1.131,2.014 -1.094,3.095 0.124,3.572 5.41,1.929 7.83,0.911 2.988,-1.259 5.08,-3.245 8.376,-4.735 1.916,-0.865 3.693,-1.372 3.643,-2.914 -0.062,-1.913 -2.305,-2.403 -4.371,-1.819 -3.121,0.879 -3.871,5.056 -7.101,2.913 -0.058,-0.039 0.289,-0.256 0,-0.364 -0.232,-0.087 -1.486,-1.298 -2.185,-1.457 -1.986,-0.453 -3.467,0.746 -5.645,0.727 m 3.642,19.848 C 88.135,8.163 84.638,7.813 82.523,7.175 80.851,6.672 77.609,5.652 75.786,6.628 c -0.194,0.105 -0.237,-0.142 -0.547,0 -0.931,0.43 -2.501,1.348 -2.73,2.55 1.053,1.043 3.632,1.438 5.643,1.639 3.265,0.327 6.565,0.188 9.652,-0.365 m -63.458,6.193 -0.091,-0.184 c 0.636,-1.186 -0.424,-2.243 -1.275,-2.549 l 0.091,-0.273 -0.091,-0.273 c 0.405,-0.749 1.48,-0.826 2.003,-1.457 -0.227,-1.086 0.843,-1.583 0.911,-2.549 0.07,-1.007 -0.483,-1.599 -0.911,-2.548 L 25.256,6.72 25.166,6.447 c 0.96,-0.752 0.171,-1.745 1.457,-2.368 0.835,-0.405 1.966,0.216 2.912,0 0.881,-0.2 1.76,-0.577 1.639,-1.639 -0.129,-1.145 -1.395,-0.666 -1.82,-1.82 0.764,-0.811 1.951,-0.392 2.914,-0.546 3.01,-0.481 5.934,-1.464 7.647,-3.095 0.161,-0.665 -0.322,-0.971 0,-1.276 0.75,-0.022 1.14,0.318 2.003,0.183 2.31,-1.083 4.37,-2.837 3.641,-5.462 -0.269,-0.972 -1.713,-2.374 -2.731,-3.643 -0.99,-1.235 -2.385,-2.168 -3.278,-3.277 -0.911,-1.134 -1.546,-2.663 -2.366,-3.277 -0.659,-0.495 -2.155,-0.615 -2.186,-1.457 0.981,-1.935 4.651,-1.852 6.556,-1.092 1.077,0.429 2.238,1.858 3.094,2.913 0.901,1.105 1.413,3.173 2.915,2.73 -1.535,-3.41 -4.324,-7.489 -6.192,-11.289 -1.102,-2.245 -1.395,-5.213 -4.916,-4.553 -0.785,0.733 -1.342,1.694 -2.185,2.368 l -0.128,-0.31 -0.236,-0.236 c 0.365,-1.052 1.259,-2.267 2.003,-3.642 0.768,-1.421 1.398,-2.945 2.913,-2.73 1.61,0.226 1.867,3.683 2.732,5.826 2.231,5.531 4.862,9.54 7.647,14.02 0.643,1.034 1.026,2.219 1.639,2.732 1.723,1.441 3.212,0.654 4.916,0.181 0.439,0.744 -0.308,0.9 -0.182,1.823 0.64,1.604 2.072,2.417 4.189,2.548 0.674,1.174 0.631,3.577 2.549,4.005 1.703,0.381 3.417,-0.485 4.734,-0.91 5.108,-1.646 11.1,-2.913 16.752,-3.824 4.321,-0.695 8.401,-0.926 9.833,-3.823 l 0.333,0.091 0.213,-0.273 c 0.907,1.958 4.643,1.962 6.919,1.092 0.435,-0.166 0.637,-0.655 1.093,-0.91 0.418,-0.234 1.031,-0.332 1.457,-0.546 2.524,-1.274 5.609,-3.341 8.558,-3.643 5.095,-0.519 8.912,3.977 5.645,7.649 -1.27,1.425 -3.692,1.644 -6.192,2.367 -0.154,2.134 -1.324,3.635 -0.91,5.28 0.304,1.206 1.926,1.788 1.457,3.46 -1.915,2.129 -5.012,0.58 -7.648,0.181 -3.377,-0.511 -6.843,-0.082 -10.014,-0.181 -0.389,0.693 -1.113,1.047 -1.094,2.002 0.029,1.337 2.051,2.269 2.913,3.097 1.686,1.613 3.147,4.473 5.645,5.462 0.866,0.343 1.951,0.228 2.732,0.546 2.245,0.913 4.026,3.128 6.009,4.006 0.849,1.939 -0.194,3.414 -1.64,4.188 -3.967,2.127 -14.04,2.021 -19.482,1.821 l 0.273,-0.213 -0.091,-0.334 c 6.153,0.083 11.736,-0.401 16.206,-2.003 0.487,-1.475 0.077,-2.334 0,-3.824 -1.118,-0.649 -3.056,-2.515 -4.553,-2.549 -0.92,-0.02 -1.26,0.514 -2.002,0.911 -0.606,0.324 -1.477,0.428 -1.822,1.092 -2.219,-0.382 -4.21,0.997 -5.826,1.821 -0.009,0.251 0.086,0.4 0.182,0.548 l -0.091,0.18 0.091,0.183 c -3.768,-0.632 -6.633,0.114 -10.38,0.364 l 0.092,-0.333 -0.273,-0.214 C 85.561,15.86 91.066,15.66 94.359,13.366 93.571,9.955 89.684,11.669 86.165,11.909 81.819,12.205 77.368,11.814 74.329,10.999 72.596,10.534 71.129,9.631 69.777,9.36 68.12,9.028 65.928,9.307 64.679,9.725 c -1.058,0.353 -3.148,1.913 -3.096,3.277 0.058,1.545 1.837,2.412 3.642,2.185 1.702,-0.213 2.322,-2.099 4.005,-2.003 l 0.091,0.273 0.275,-0.091 c 0.071,1.772 -2.072,1.328 -2.368,2.731 l -0.248,0.221 0.066,0.327 c -0.579,-0.029 -0.801,-0.415 -1.457,-0.365 -0.719,1.466 -1.385,2.984 -2.366,4.188 0.206,0.764 1.027,0.913 0.727,2.184 -0.555,0.608 -0.864,0.342 -1.638,0.729 -1.591,-0.545 -1.025,-2.385 -2.185,-3.096 -1.272,-0.778 -2.447,0.336 -4.189,0.364 -1.121,0.019 -1.954,-0.63 -3.095,-0.545 -0.637,-0.577 -0.508,-1.92 -1.275,-2.369 l 0.091,-0.272 -0.272,-0.091 c -10e-4,-0.183 0.146,-0.216 0.181,-0.364 0.074,-1.57 -1.317,-2.327 -2.367,-2.367 -1.626,-0.061 -2.451,1.425 -3.278,2.184 -1.039,-0.32 -1.444,-1.958 -2.731,-1.456 0.325,2.883 -0.521,5.017 -3.824,4.735 -1.126,-0.756 -0.078,-3.684 -1.821,-3.824 -0.647,0.021 -0.733,0.602 -0.728,1.275 -0.484,0.002 -1.039,-0.07 -1.274,0.18 -0.899,0.89 -0.262,2.059 -0.183,3.097 0.052,0.672 -0.248,1.334 -0.181,2.003 0.176,1.79 1.564,2.728 2.913,3.459 l -0.091,0.273 0.272,0.091 c 0.124,1.062 0.125,1.462 -0.181,2.368 -1.743,0.867 -3.614,1.607 -5.099,2.731 -0.831,0.102 -0.77,-0.687 -1.639,-0.547 -0.429,0.057 -0.338,0.633 -0.91,0.547 l -0.092,-0.273 -0.272,0.091 V 31.21 C 29.31,30.708 28.6,30.144 28.625,28.844 c -0.639,-0.515 -1.41,-0.896 -2.002,-1.457 -0.275,-1.2 -0.362,-2.131 -1.276,-2.367 -2.28,-0.587 -3.205,3.475 -4.005,4.916 -3.042,0.394 -2.794,4.654 -5.645,4.552 -2.593,-0.092 -2.11,-3.694 -3.824,-5.281 -2.989,1.262 -6.445,2.055 -9.469,3.277 -0.143,0.751 0.28,0.935 0.182,1.64 -1.935,2.475 -4.879,3.666 -8.376,4.552 -4.843,1.227 -9.501,3.708 -13.656,5.28 l 0.065,-0.324 -0.248,-0.221 c 1.92,-1.055 4.47,-2.333 7.102,-3.642 3.313,-1.649 7.511,-3.134 6.555,-7.83 1.804,-2.054 4.55,-3.023 7.101,-4.371 1.227,-0.647 2.387,-1.407 3.642,-2.003 1.269,-0.6 2.971,-0.792 3.642,-2.184 0.026,0.398 0.459,0.39 0.911,0.364 2.255,-1.021 4.406,-2.148 7.101,-2.732 l -0.091,0.335 0.272,0.213 c -0.999,1.066 -2.309,1.15 -3.823,1.638 -5.11,1.646 -9.413,4.422 -13.657,6.919 0.209,0.894 1.31,1.812 2.003,1.639 2.938,-0.731 8.021,-2.619 11.108,-3.46 0.153,-0.211 0.24,-0.487 0.182,-0.91 0.68,0.016 0.519,0.204 1.092,0 0.964,-1.161 2.156,-2.095 2.914,-3.459 3.229,0.172 5.755,-1.257 5.644,-3.824 -0.182,0 -0.215,-0.148 -0.364,-0.183 l 0.092,-0.273 0.09,-0.273 c 1.145,-0.493 2.412,-0.867 2.368,-2.55 z m -26.075,56.682 0.309,0.128 c -0.913,1.316 -2.451,2.571 -3.642,4.37 -0.727,1.099 -1.024,2.481 -1.82,3.459 -0.896,1.101 -3.037,2.569 -4.37,2.55 -1.634,-0.021 -2.648,-1.283 -2.368,-2.913 0.569,-3.305 4.595,-3.143 7.284,-4.37 2.136,-0.976 2.846,-2.719 4.37,-3.46 z M 20.794,-74.4 c -0.021,-0.731 0.561,-1.493 2.003,-1.275 1.487,2.014 -1.943,3.265 -2.003,1.275 m -2.002,8.74 c 0.25,-0.478 0.668,-0.788 1.457,-0.729 1.418,1.266 -1.475,2.743 -1.457,0.729 m 50.621,7.83 c -0.009,0.251 0.086,0.399 0.183,0.546 -0.271,0.095 -0.459,0.269 -0.73,0.364 -0.353,-0.351 -0.189,-1.114 0.547,-0.91 m -53.716,0.546 c 0.389,-0.4 0.883,-0.694 1.82,-0.546 0.256,0.351 0.481,0.732 0.547,1.274 -0.377,1.203 -2.848,1.31 -2.367,-0.728 m -4.371,10.015 c 0.034,-1.232 1.969,-2.046 2.914,-0.729 0.442,2.929 -2.965,2.574 -2.914,0.729 m 10.561,6.918 c 0.138,-0.467 0.582,-0.631 1.275,-0.545 0.041,0.142 0.005,0.359 0.182,0.365 0.026,0.895 -1.428,1.307 -1.457,0.18 m -13.838,0.547 c 0.141,-0.041 0.359,-0.005 0.364,-0.181 1.371,0.01 2.286,1.632 1.457,2.731 -1.596,0.181 -2.356,-1.176 -1.821,-2.55 m 48.071,3.824 c 0.083,0.569 -0.389,0.582 -0.909,0.546 -0.205,-0.736 0.559,-0.9 0.909,-0.546 m 0.911,0.546 c 0.05,0.415 -0.044,0.686 -0.364,0.729 -0.287,-0.27 -0.203,-0.814 0.364,-0.729 m -28.223,1.639 h 0.91 c 0.04,0.142 0.005,0.359 0.181,0.364 0.014,0.62 -0.535,0.679 -0.909,0.91 -0.528,-0.35 -0.597,-0.76 -0.182,-1.274 m 36.235,2.186 c -0.008,0.251 0.085,0.399 0.182,0.546 -0.348,0.078 -0.329,0.52 -0.911,0.364 -0.076,-0.622 0.055,-1.038 0.729,-0.91 m -12.747,1.091 c 0.056,0.481 -0.252,0.598 -0.728,0.547 -0.137,-0.641 0.476,-0.814 0.728,-0.547 m -31.502,-0.181 c 0.195,-0.855 1.885,-1.252 2.368,-0.364 0.2,2.781 -2.734,1.982 -2.368,0.364 m 26.222,1.457 c -0.149,-0.964 0.889,-1.106 1.275,-0.547 0.071,0.682 -0.828,0.939 -1.275,0.547 m -37.875,0.546 c -0.066,-0.896 0.598,-1.264 1.275,-0.91 0.236,0.938 -0.683,1.369 -1.275,0.91 m 47.526,-0.365 c 0.038,0.205 0.202,0.285 0.364,0.365 -0.024,0.583 -0.413,0.801 -1.093,0.728 -0.29,-0.582 0.024,-1.032 0.729,-1.093 M 1.494,-29.606 c 0.047,0.255 0.399,0.208 0.546,0.364 v 0.91 c -1.341,1.466 -2.489,-1.294 -0.546,-1.274 m 99.602,1.456 c 0.247,-0.057 0.348,-0.258 0.728,-0.182 0.138,0.621 -0.695,0.71 -0.728,0.182 m -23.671,0.182 c 0.246,0.421 0.731,0.604 0.546,1.457 -1.522,2.434 -3.892,-1.822 -0.546,-1.457 m -23.854,1.639 c 0.084,0.57 -0.158,0.812 -0.728,0.727 -0.084,-0.569 0.159,-0.812 0.728,-0.727 m -52.988,1.274 c -0.275,-1.027 0.832,-1.356 1.457,-0.91 0.275,1.027 -0.832,1.357 -1.457,0.91 m -20.576,1.639 h 0.364 v 0.364 h -0.364 z m 110.711,-1.82 c 0.442,-2.077 4.301,-2.407 4.552,0.181 0.183,1.898 -1.36,3.076 -3.278,2.367 -1.309,-0.482 -1.53,-1.353 -1.274,-2.548 m -95.78,3.277 c -0.055,-0.479 0.253,-0.598 0.729,-0.546 0.051,0.476 -0.067,0.783 -0.546,0.728 -0.011,-0.112 -0.028,-0.216 -0.183,-0.182 m 35.144,2.73 c -0.16,0.141 -0.52,-0.111 -0.547,-0.18 -0.257,-0.688 0.906,-0.132 0.547,0.18 m -11.108,-0.18 h 0.364 v 0.363 h -0.364 z m 41.699,-3.643 c 0.367,-4.067 7.039,-4.307 7.465,-0.181 0.337,3.253 -2.057,4.564 -4.188,4.187 -2.128,-0.375 -3.504,-1.491 -3.277,-4.006 m -10.926,4.735 h 0.547 c 0.051,0.416 -0.044,0.684 -0.364,0.729 -0.058,-0.247 -0.26,-0.349 -0.183,-0.729 m 45.705,1.092 c 0.241,-0.236 0.677,-0.24 0.728,0.182 -0.242,0.236 -0.677,0.241 -0.728,-0.182 m -42.609,2.003 c -0.348,0.077 -0.329,0.521 -0.911,0.365 -0.206,-1.016 0.777,-1.057 0.911,-0.365 m 1.638,-1.274 c 0.54,-0.012 0.438,0.07 0.911,0.364 -0.036,3.504 -3.298,-0.314 -0.911,-0.364 m 34.233,2.731 c 0.033,-0.765 0.691,-1.103 1.093,-0.547 0.044,0.613 -0.676,0.942 -1.093,0.547 m -56.629,-1.092 c 0.039,0.204 0.202,0.283 0.364,0.364 0.087,0.572 -0.26,0.711 -0.364,1.093 h -1.092 c -0.405,-0.788 0.066,-1.574 1.092,-1.457 m 46.978,1.457 c 0.243,-0.238 0.678,-0.241 0.729,0.181 -0.242,0.237 -0.678,0.24 -0.729,-0.181 m -39.331,0.181 c 0.039,-0.817 1.24,-1.217 2.003,-0.727 0.041,0.14 0.005,0.358 0.183,0.363 0.059,1.268 -2.039,1.809 -2.186,0.364 m 27.86,0.91 h 0.546 c 0.034,0.398 -0.149,0.58 -0.546,0.547 z m -63.913,0.183 c -0.15,-1.103 0.803,-1.512 1.638,-1.093 0.37,1.423 -0.953,1.746 -1.638,1.093 m 33.322,2.55 c -0.376,-1.412 1.313,-1.855 2.004,-1.094 0.224,1.331 -1.222,1.847 -2.004,1.094 M 5.864,-9.941 c 0.233,-0.249 0.859,-0.249 1.092,0 -0.123,0.423 -0.328,0.765 -0.91,0.728 0.04,-0.345 -0.205,-0.401 -0.182,-0.728 M 6.41,-7.21 C 6.715,-7.451 7.02,-7.692 7.684,-7.573 7.708,-7.125 7.712,-6.696 7.502,-6.482 6.822,-6.408 6.434,-6.627 6.41,-7.21 m 15.842,1.093 c -0.044,-0.612 0.676,-0.941 1.092,-0.546 0.041,0.345 -0.205,0.402 -0.182,0.727 -0.422,0.059 -0.699,-0.029 -0.91,-0.181 M 9.414,-6.391 9.141,-6.482 c 0.219,-0.872 1.058,-1.127 2.185,-1.091 -0.176,0.975 -0.842,1.463 -2.002,1.456 z m 4.279,0.82 c -0.659,-0.86 1.066,-0.242 0,0 m 1.821,0.547 c -0.073,-0.995 1.234,-1.466 1.821,-0.729 0.083,1.3 -1.226,1.51 -1.821,0.729 m 19.484,-0.729 c 0.903,-0.523 2.061,0.068 2.368,0.729 -0.583,0.449 -1.121,0.944 -2.185,0.91 -0.368,-0.242 -0.55,-1.218 -0.183,-1.639 m -4.369,1.092 c -0.57,0.22 -0.456,1.123 -1.457,0.911 -0.903,-2.418 -4.784,-3.211 -5.099,-6.373 -0.273,-2.74 1.927,-4.727 4.552,-4.37 3.063,0.416 3.955,4.564 6.556,5.28 -0.288,1.047 -0.386,2.286 -0.728,3.277 -1.224,0.476 -2.306,1.095 -3.824,1.275 m -13.84,0.911 c 0.01,0.313 -0.14,0.467 -0.364,0.546 -0.26,-0.266 -0.268,-0.704 0.364,-0.546 m -8.376,0.364 c 0.314,-0.01 0.467,0.14 0.546,0.365 -0.286,-0.018 -0.631,0.023 -0.546,-0.365 m 12.2,0.546 c -1.091,-0.184 -1.101,-1.448 -1.093,-2.731 0.385,-0.161 0.538,-0.554 1.093,-0.546 0.829,0.506 1.467,3.059 0,3.277 m 8.922,0 c 0.454,-0.153 0.977,-0.238 1.639,-0.181 2.343,2.278 -3.36,3.654 -1.639,0.181 m -8.376,0 c 1.021,-0.389 3.434,-0.217 3.278,1.639 -0.876,1.753 -4.445,0.715 -3.278,-1.639 m -8.922,1.093 c 0.08,-0.526 0.384,-0.83 0.91,-0.911 0.866,0.531 2.017,0.775 2.367,1.821 -0.745,1.403 -2.758,0.063 -3.277,-0.91 m 14.749,0.727 c 0.838,2.37 -2.638,0.325 0,0 M 9.87,0.802 c -0.147,-1.103 0.834,-0.122 0,0 m 2.185,0.547 c -0.097,-0.826 0.267,-1.189 1.092,-1.094 0.21,0.217 0.207,0.644 0.182,1.094 -0.243,0.259 -1.031,0.259 -1.274,0 m 8.739,0 c 0.085,0.57 -0.157,0.812 -0.728,0.727 -0.084,-0.569 0.159,-0.812 0.728,-0.727 m 4.007,0.91 C 24.835,1.3 25.815,0.92 26.44,1.53 26.645,2.77 25.196,3.115 24.801,2.259 M 8.049,2.805 H 8.595 V 3.17 H 8.049 Z M 0.401,2.987 C 1.065,2.869 1.371,3.11 1.676,3.351 1.716,3.695 1.47,3.753 1.494,4.079 1.259,4.331 0.702,4.26 0.219,4.262 -0.04,3.702 0.137,3.443 0.401,2.987 m 22.396,1.092 v 0.365 c -0.336,0.604 -0.887,-0.547 0,-0.365 M 4.407,3.351 C 4.409,3.713 4.904,3.583 4.771,4.079 4.633,4.549 4.19,4.712 3.496,4.626 3.144,3.949 3.511,3.285 4.407,3.351 m 18.937,5.827 c 0.449,-0.024 0.878,-0.028 1.093,0.182 0.191,1.741 -2.314,0.946 -1.093,-0.182 m -0.911,2.367 c 0.344,-0.444 0.912,-0.671 1.276,-0.182 0.048,0.593 -0.216,0.876 -0.729,0.91 -0.267,-0.158 -0.577,-0.271 -0.547,-0.728 m -24.217,0.547 c 0.055,0.48 -0.252,0.596 -0.728,0.546 -0.149,-0.652 0.387,-0.905 0.728,-0.546 m 10.561,0.91 c -0.144,-0.701 0.872,-0.701 0.728,0 -0.496,-0.017 -0.366,0.304 -0.728,0 m 11.289,1.639 h 0.364 v 0.364 h -0.364 z m -36.781,0 c 0.241,-0.237 0.677,-0.24 0.728,0.181 -0.242,0.238 -0.678,0.241 -0.728,-0.181 m 33.321,0.728 c 0.51,0.938 -0.865,0.447 0,0 m 33.506,5.28 c 0.159,0.375 -0.473,0.818 -0.547,0.364 0.26,-0.043 0.307,-0.299 0.547,-0.364 M 6.41,21.924 h 0.728 c 0.153,0.212 0.24,0.488 0.182,0.911 -0.215,0.21 -0.643,0.206 -1.092,0.182 C 6.204,22.568 6.2,22.14 6.41,21.924 m 11.107,0.364 c 0.243,-0.259 1.032,-0.259 1.275,0 0.056,0.725 -0.35,0.985 -1.092,0.911 -0.153,-0.211 -0.24,-0.488 -0.183,-0.911 m 39.696,1.821 c 0.092,-1.161 1.144,-1.994 2.185,-1.638 0.189,0.478 0.218,1.118 0.182,1.821 -0.502,0.688 -2.113,0.778 -2.367,-0.183 M 9.688,26.841 c 0.681,-0.139 1.359,-0.29 1.456,0.546 -0.212,1.01 -2.249,0.488 -1.456,-0.546 m -2.186,1.456 h 0.365 c -0.001,0.183 0.147,0.218 0.182,0.364 -0.233,0.01 -0.252,0.234 -0.547,0.183 z m 34.78,0.364 c 0.159,0.375 -0.472,0.818 -0.547,0.365 0.26,-0.044 0.307,-0.3 0.547,-0.365 M 24.983,28.115 c 0.003,0.362 0.498,0.232 0.364,0.729 -0.137,0.469 -0.58,0.633 -1.274,0.547 -0.352,-0.678 0.014,-1.341 0.91,-1.276 m -86.128,2.366 c -0.265,-0.097 -0.941,0.214 -0.91,-0.18 0.264,0.099 0.941,-0.214 0.91,0.18 m -1.093,0.184 c -0.264,-0.101 -0.94,0.212 -0.91,-0.184 0.265,0.101 0.941,-0.21 0.91,0.184 m -1.456,0.181 c -1.166,0.212 -0.4,-0.555 0,0 m 69.74,4.552 c 0.031,0.456 -0.28,0.57 -0.546,0.729 -0.515,-0.438 0.179,-1.172 0.546,-0.729 m 0.91,0.729 H 7.32 v 0.364 H 6.956 Z m -17.845,7.648 c 0.057,0.246 0.26,0.347 0.182,0.728 h -0.545 c -0.052,-0.414 0.044,-0.685 0.363,-0.728 m 67.373,5.644 c -0.04,-0.344 0.205,-0.4 0.183,-0.728 0.422,-0.058 0.698,0.03 0.91,0.182 0.043,0.612 -0.677,0.94 -1.093,0.546 m -81.029,2.004 h 0.728 c 0.085,0.57 -0.158,0.812 -0.728,0.727 z m -3.096,2.002 c -1.846,-0.208 -2.516,0.761 -3.277,1.638 1.307,0.941 3.048,-0.177 3.46,-1.274 l -0.273,-0.091 z"
             style="fill:#262626;fill-opacity:1;fill-rule:nonzero;stroke:none"
             id="path34"
             inkscape:connector-curvature="0" />
        </g>
      </g>
    </g>
  </g>
</svg>
