<?xml version="1.0" encoding="UTF-8" standalone="no"?>
<!-- Created with Inkscape (http://www.inkscape.org/) -->

<svg
   xmlns:dc="http://purl.org/dc/elements/1.1/"
   xmlns:cc="http://creativecommons.org/ns#"
   xmlns:rdf="http://www.w3.org/1999/02/22-rdf-syntax-ns#"
   xmlns:svg="http://www.w3.org/2000/svg"
   xmlns="http://www.w3.org/2000/svg"
   xmlns:sodipodi="http://sodipodi.sourceforge.net/DTD/sodipodi-0.dtd"
   xmlns:inkscape="http://www.inkscape.org/namespaces/inkscape"
   width="47.183292mm"
   height="65.01078mm"
   viewBox="0 0 47.183292 65.01078"
   version="1.1"
   id="svg4431"
   inkscape:version="0.92.2 2405546, 2018-03-11"
   sodipodi:docname="paint-big09.svg">
  <defs
     id="defs4425">
    <clipPath
       clipPathUnits="userSpaceOnUse"
       id="clipPath54">
      <path
         d="M 0,600 H 600 V 0 H 0 Z"
         id="path52"
         inkscape:connector-curvature="0" />
    </clipPath>
  </defs>
  <sodipodi:namedview
     id="base"
     pagecolor="#ffffff"
     bordercolor="#666666"
     borderopacity="1.0"
     inkscape:pageopacity="0.0"
     inkscape:pageshadow="2"
     inkscape:zoom="0.35"
     inkscape:cx="-356.54901"
     inkscape:cy="1999.9979"
     inkscape:document-units="mm"
     inkscape:current-layer="layer1"
     showgrid="false"
     inkscape:window-width="3840"
     inkscape:window-height="2095"
     inkscape:window-x="0"
     inkscape:window-y="0"
     inkscape:window-maximized="1" />
  <metadata
     id="metadata4428">
    <rdf:RDF>
      <cc:Work
         rdf:about="">
        <dc:format>image/svg+xml</dc:format>
        <dc:type
           rdf:resource="http://purl.org/dc/dcmitype/StillImage" />
        <dc:title></dc:title>
      </cc:Work>
    </rdf:RDF>
  </metadata>
  <g
     inkscape:label="Layer 1"
     inkscape:groupmode="layer"
     id="layer1"
     transform="translate(-96.604783,-612.98866)">
    <g
       transform="matrix(0.35277777,0,0,-0.35277777,-64.350563,726.02361)"
       id="g48">
      <g
         id="g50"
         clip-path="url(#clipPath54)">
        <g
           id="g56"
           transform="translate(567.5186,213.3818)">
          <path
             d="m 0,0 c -0.159,-0.06 -0.24,-0.238 -0.181,-0.396 2.395,-6.429 4.196,-13.158 5.938,-19.665 l 2.519,-9.163 c 0.045,-0.164 0.212,-0.255 0.376,-0.21 0.163,0.045 0.258,0.219 0.214,0.383 L 6.351,-19.9 C 4.604,-13.38 2.799,-6.638 0.395,-0.181 0.335,-0.022 0.158,0.059 0,0 m -5.049,14.885 v -0.376 c 0,-0.064 0.052,-0.115 0.114,-0.115 0.064,0 0.116,0.051 0.116,0.115 v 0.376 c 0,0.062 -0.052,0.113 -0.116,0.113 -0.062,0 -0.114,-0.051 -0.114,-0.113 m -56.469,63.088 c -0.083,-0.007 -0.143,-0.08 -0.134,-0.162 0.029,-0.312 0.168,-0.577 0.302,-0.832 0.12,-0.227 0.232,-0.442 0.257,-0.669 0.01,-0.083 0.084,-0.143 0.166,-0.133 0.081,0.009 0.141,0.083 0.131,0.167 -0.031,0.284 -0.163,0.534 -0.289,0.774 -0.127,0.241 -0.246,0.468 -0.27,0.72 -0.007,0.083 -0.082,0.144 -0.163,0.135 m 8.014,-60.931 -0.485,-1.262 -0.375,-0.954 c -0.059,-0.151 0.016,-0.318 0.168,-0.377 0.149,-0.059 0.323,0.021 0.382,0.171 l 0.369,0.94 0.495,1.288 c 0.057,0.15 -0.021,0.314 -0.171,0.371 -0.151,0.057 -0.325,-0.026 -0.383,-0.177 m 3.638,20.902 c -0.029,-0.117 0.049,-0.203 0.165,-0.231 0.117,-0.03 0.24,0.075 0.27,0.192 l 0.083,0.324 c -0.03,-0.116 -0.143,-0.17 -0.26,-0.141 -0.117,0.029 -0.183,0.164 -0.155,0.281 z m 4.378,-2.923 -0.442,-1.307 c -0.38,-1.097 -0.772,-2.23 -0.999,-3.411 -0.032,-0.166 0.075,-0.326 0.241,-0.359 0.166,-0.032 0.326,0.077 0.358,0.244 0.219,1.137 0.602,2.25 0.976,3.325 l 0.446,1.321 c 0.054,0.159 -0.032,0.329 -0.194,0.383 -0.158,0.054 -0.333,-0.037 -0.386,-0.196 m -5.518,3.103 c -0.058,-0.028 -0.083,-0.099 -0.056,-0.157 0.468,-0.974 0.88,-2.004 1.279,-3.001 0.678,-1.696 1.378,-3.451 2.37,-4.974 0.036,-0.054 0.108,-0.069 0.163,-0.034 0.054,0.035 0.069,0.109 0.034,0.164 -0.979,1.503 -1.677,3.245 -2.35,4.932 -0.4,0.999 -0.813,2.035 -1.284,3.015 -0.028,0.059 -0.098,0.083 -0.156,0.055 m -11.444,0.064 c -0.146,-0.007 -0.257,-0.131 -0.249,-0.277 0.014,-0.304 -0.091,-0.598 -0.203,-0.908 -0.106,-0.294 -0.216,-0.599 -0.234,-0.938 -0.008,-0.146 0.104,-0.268 0.249,-0.276 0.145,-0.009 0.269,0.103 0.277,0.248 0.013,0.261 0.105,0.517 0.202,0.786 0.125,0.346 0.255,0.704 0.233,1.115 -0.008,0.145 -0.131,0.257 -0.275,0.25 m -26.7,3.528 c -0.129,-0.008 -0.227,-0.118 -0.218,-0.247 l 0.129,-1.886 0.244,-4.104 c 0.008,-0.128 0.118,-0.23 0.247,-0.222 0.128,0.007 0.227,0.113 0.219,0.242 l -0.245,4.117 -0.128,1.882 c -0.009,0.129 -0.12,0.228 -0.248,0.218 m 25.497,4.633 c -0.12,-0.136 -0.11,-0.344 0.027,-0.466 0.358,-0.32 0.603,-0.743 0.862,-1.222 0.087,-0.161 0.287,-0.22 0.446,-0.133 0.161,0.087 0.219,0.287 0.132,0.448 -0.29,0.535 -0.565,1.008 -1.003,1.4 -0.136,0.121 -0.343,0.108 -0.464,-0.027 m 2.512,-4.254 c -0.13,-0.006 -0.231,-0.116 -0.225,-0.246 0.02,-0.465 -0.144,-0.873 -0.32,-1.307 l -0.038,-0.094 c -0.047,-0.12 0.01,-0.259 0.132,-0.308 0.12,-0.049 0.259,0.01 0.307,0.131 l 0.038,0.094 c 0.185,0.46 0.377,0.938 0.352,1.504 -0.005,0.13 -0.116,0.232 -0.246,0.226 m -3.025,-3.253 -0.376,-0.494 c -0.471,-0.603 -0.957,-1.226 -1.046,-2.079 -0.017,-0.161 0.099,-0.302 0.259,-0.32 0.158,-0.016 0.301,0.1 0.316,0.26 0.073,0.687 0.488,1.218 0.928,1.779 l 0.391,0.517 c 0.095,0.128 0.066,0.303 -0.061,0.4 -0.128,0.098 -0.315,0.065 -0.411,-0.063 m 8.494,9.589 c -0.06,-0.029 -0.091,-0.092 -0.062,-0.154 l 0.798,-1.758 c 0.402,-0.821 0.818,-1.669 1.064,-2.54 0.018,-0.064 0.085,-0.101 0.149,-0.083 0.064,0.019 0.101,0.085 0.083,0.15 -0.253,0.891 -0.673,1.748 -1.079,2.579 l -0.792,1.74 c -0.027,0.061 -0.101,0.092 -0.161,0.066 m 3.055,-10.039 -0.497,-1.311 c -0.066,-0.175 0.029,-0.342 0.203,-0.407 0.173,-0.068 0.377,0.047 0.443,0.221 l 0.233,0.608 0.265,0.704 c 0.067,0.175 -0.031,0.339 -0.204,0.408 -0.174,0.067 -0.378,-0.051 -0.443,-0.223 m -8.316,0.147 c -0.131,-0.098 -0.16,-0.284 -0.062,-0.416 0.452,-0.616 0.76,-1.311 1.086,-2.047 l 0.064,-0.145 c 0.067,-0.151 0.241,-0.219 0.391,-0.151 0.149,0.068 0.217,0.242 0.15,0.393 l -0.064,0.143 c -0.324,0.734 -0.66,1.492 -1.151,2.159 -0.096,0.131 -0.281,0.161 -0.414,0.064 m 2.155,14.603 c -0.162,-0.312 -0.208,-0.636 -0.253,-0.951 l -0.055,-0.346 c -0.026,-0.16 0.081,-0.324 0.242,-0.351 0.161,-0.026 0.312,0.072 0.337,0.234 l 0.062,0.381 c 0.038,0.276 0.075,0.537 0.19,0.757 0.075,0.146 0.02,0.325 -0.125,0.401 -0.144,0.076 -0.322,0.019 -0.398,-0.125 m 12.429,3.569 c -0.03,-0.084 0.015,-0.18 0.1,-0.208 0.834,-0.298 1.568,-0.901 1.966,-1.612 0.044,-0.078 0.142,-0.107 0.222,-0.063 0.079,0.045 0.106,0.143 0.062,0.224 -0.434,0.776 -1.234,1.435 -2.141,1.759 -0.085,0.03 -0.179,-0.013 -0.209,-0.1 m -9.765,6.67 -0.652,-1.206 c -0.54,-1.074 -1.098,-2.186 -2.171,-2.703 -0.07,-0.034 -0.098,-0.117 -0.065,-0.186 0.033,-0.069 0.116,-0.098 0.186,-0.065 1.158,0.559 1.737,1.713 2.297,2.829 l 0.641,1.183 c 0.036,0.068 0.015,0.16 -0.053,0.197 -0.066,0.036 -0.146,0.017 -0.183,-0.049 m -16.073,2.205 -0.07,-0.015 c -0.289,-0.06 -0.649,-0.133 -0.906,-0.452 -0.122,-0.149 -0.099,-0.37 0.051,-0.492 0.149,-0.121 0.369,-0.099 0.491,0.052 0.093,0.115 0.253,0.154 0.504,0.205 l 0.074,0.015 c 0.189,0.039 0.31,0.224 0.271,0.414 -0.04,0.19 -0.226,0.312 -0.415,0.273 m 0.006,-0.197 c -0.08,-0.037 -0.115,-0.132 -0.079,-0.213 0.197,-0.435 0.322,-0.896 0.452,-1.383 l 0.45,-1.394 c 0.027,-0.084 0.112,-0.115 0.195,-0.087 0.084,0.026 0.124,0.132 0.098,0.216 l -0.434,1.349 c -0.129,0.478 -0.261,0.974 -0.471,1.432 -0.036,0.082 -0.131,0.115 -0.211,0.08 m 0.046,0.534 -0.074,-0.103 -0.25,-0.354 c -0.131,-0.186 -0.077,-0.428 0.108,-0.559 0.184,-0.132 0.45,-0.074 0.581,0.113 l 0.221,0.312 0.077,0.106 c 0.135,0.181 0.094,0.439 -0.088,0.574 -0.183,0.134 -0.441,0.093 -0.575,-0.089 m 4.549,1.019 c -0.128,-0.059 -0.183,-0.212 -0.124,-0.339 0.061,-0.129 0.211,-0.184 0.34,-0.125 0.301,0.139 0.63,0.117 0.978,0.092 l 0.827,0.012 c 0.139,0.002 0.21,0.115 0.209,0.255 -0.001,0.142 -0.161,0.251 -0.3,0.25 l -0.698,-0.006 c -0.38,0.027 -0.811,0.058 -1.232,-0.139 m 6.91,-3.143 c -0.117,-0.058 -0.164,-0.198 -0.105,-0.317 0.574,-1.161 1.078,-2.42 1.68,-4.211 0.042,-0.125 0.176,-0.191 0.3,-0.149 0.123,0.041 0.189,0.177 0.148,0.3 -0.612,1.811 -1.121,3.09 -1.706,4.27 -0.058,0.118 -0.2,0.166 -0.317,0.107 m 1.329,-4.411 -0.014,-0.681 -0.012,-0.58 c -0.005,-0.262 0.199,-0.505 0.46,-0.511 0.26,-0.006 0.474,0.172 0.479,0.434 l 0.028,1.256 c 0.005,0.26 -0.2,0.507 -0.461,0.512 -0.26,0.006 -0.474,-0.17 -0.48,-0.43 m 0.368,-1.149 -0.293,-0.135 c -0.395,-0.173 -0.842,-0.371 -1.073,-0.807 -0.044,-0.082 -0.013,-0.183 0.07,-0.227 0.081,-0.044 0.183,-0.012 0.226,0.07 0.176,0.332 0.533,0.49 0.912,0.656 l 0.308,0.142 c 0.085,0.038 0.117,0.136 0.079,0.221 -0.039,0.084 -0.144,0.12 -0.229,0.08 m -1.59,-0.73 c -0.161,0 -0.29,-0.13 -0.29,-0.291 0,-0.158 0.129,-0.29 0.29,-0.29 h 0.372 c 0.16,0 0.289,0.132 0.289,0.29 0,0.161 -0.129,0.291 -0.289,0.291 z m 0.326,-0.122 c -0.093,-0.025 -0.147,-0.122 -0.121,-0.214 0.164,-0.61 0.508,-1.878 1.628,-2.091 0.094,-0.019 0.184,0.043 0.204,0.138 0.017,0.093 -0.044,0.185 -0.139,0.203 -0.797,0.152 -1.124,0.975 -1.359,1.841 -0.025,0.093 -0.12,0.148 -0.213,0.123 m -6.684,7.842 c -0.026,-0.057 -0.004,-0.125 0.053,-0.151 0.356,-0.169 0.658,-0.448 0.951,-0.716 0.406,-0.372 0.826,-0.758 1.408,-0.885 0.062,-0.013 0.122,0.025 0.135,0.087 0.014,0.061 -0.026,0.122 -0.087,0.134 -0.52,0.114 -0.901,0.463 -1.304,0.832 -0.304,0.281 -0.62,0.571 -1.004,0.752 -0.057,0.027 -0.125,0.004 -0.152,-0.053 m 2.976,-2.438 c -0.077,-0.011 -0.13,-0.092 -0.118,-0.171 l 0.158,-1.059 0.049,-0.026 c 1.476,-1.04 2.374,-2.815 3.166,-4.381 0.035,-0.069 0.121,-0.096 0.189,-0.061 0.051,0.024 0.079,0.074 0.079,0.125 0,0.022 -0.006,0.045 -0.016,0.064 -0.757,1.499 -1.702,3.353 -3.205,4.44 -0.01,0.067 -0.144,0.959 -0.144,0.959 -0.011,0.078 -0.081,0.122 -0.158,0.11 m 3.263,-5.501 c -0.108,-0.177 -0.197,-0.252 -0.326,-0.327 -0.065,-0.039 -0.087,-0.123 -0.049,-0.188 0.04,-0.067 0.124,-0.088 0.189,-0.049 0.159,0.092 0.284,0.196 0.421,0.421 0.04,0.065 0.019,0.149 -0.046,0.19 -0.065,0.04 -0.149,0.018 -0.189,-0.047 m 1.189,-8.445 -0.281,-1.336 c -0.209,-1.048 -0.425,-2.134 -0.827,-3.124 -0.051,-0.124 0.007,-0.267 0.131,-0.317 0.125,-0.05 0.267,0.008 0.317,0.133 0.42,1.034 0.64,2.142 0.854,3.213 l 0.278,1.32 c 0.027,0.131 -0.055,0.265 -0.187,0.293 -0.131,0.027 -0.258,-0.051 -0.285,-0.182 m 7.644,19.539 -0.311,-0.937 c -0.058,-0.173 0.032,-0.369 0.204,-0.426 0.172,-0.056 0.357,0.03 0.413,0.202 l 0.312,0.936 c 0.056,0.173 -0.033,0.366 -0.206,0.425 -0.172,0.058 -0.355,-0.028 -0.412,-0.2 m -27.786,-8.447 c -2.549,-2.49 -4.72,-5.322 -6.278,-8.191 -0.082,-0.149 -0.026,-0.336 0.121,-0.417 0.15,-0.082 0.336,-0.026 0.418,0.123 1.529,2.816 3.66,5.598 6.167,8.043 0.122,0.119 0.124,0.315 0.007,0.436 -0.119,0.122 -0.314,0.125 -0.435,0.006 m 21.117,8.804 c -0.192,-0.515 -0.057,-0.991 0.063,-1.409 l 0.138,-0.666 c 0.03,-0.148 0.18,-0.284 0.329,-0.255 0.146,0.03 0.247,0.133 0.218,0.281 l -0.16,0.79 c -0.11,0.387 -0.205,0.721 -0.076,1.068 0.053,0.142 -0.018,0.299 -0.16,0.352 -0.141,0.054 -0.299,-0.018 -0.352,-0.161 m -1.902,-3.633 c -0.149,-0.023 -0.253,-0.164 -0.228,-0.313 0.022,-0.151 0.163,-0.253 0.313,-0.231 1.247,0.195 2.52,-0.153 3.749,-0.489 l 0.243,-0.067 c 0.147,-0.039 0.298,0.048 0.338,0.194 0.039,0.147 -0.047,0.299 -0.194,0.339 l -0.242,0.065 c -1.285,0.353 -2.616,0.715 -3.979,0.502 m -4.83,1.75 c -0.047,-0.113 -0.013,-0.235 0.099,-0.282 l 0.645,-0.271 0.654,-0.285 c 0.112,-0.048 0.267,-0.011 0.316,0.102 0.05,0.111 0.023,0.23 -0.088,0.278 l -0.732,0.324 -0.583,0.245 c -0.113,0.046 -0.264,0.003 -0.311,-0.111 m -5.785,-0.67 -0.571,-0.103 -0.256,-0.059 c -0.189,-0.044 -0.32,-0.237 -0.278,-0.425 0.044,-0.19 0.218,-0.312 0.407,-0.267 l 0.3,0.068 0.428,0.08 c 0.192,0.037 0.365,0.226 0.329,0.417 -0.034,0.191 -0.168,0.323 -0.359,0.289 m -0.491,13.751 c -1.816,-4.465 -2.291,-8.375 -1.412,-11.619 l 0.009,-0.036 0.025,-0.026 c 0.574,-0.601 0.689,-1.434 0.8,-2.24 l 0.033,-0.234 0.163,-0.196 c 0.051,-0.062 0.142,-0.071 0.203,-0.02 0.034,0.029 0.052,0.071 0.052,0.112 0,0.032 -0.01,0.064 -0.033,0.091 0,0 -0.085,0.102 -0.112,0.134 -0.008,0.052 -0.02,0.152 -0.02,0.152 -0.115,0.836 -0.241,1.694 -0.846,2.359 -0.275,1.024 -0.415,2.117 -0.415,3.275 0,2.436 0.607,5.161 1.819,8.14 0.008,0.017 0.012,0.035 0.012,0.055 0,0.056 -0.034,0.11 -0.091,0.134 -0.073,0.029 -0.157,-0.006 -0.187,-0.081 m -2.201,11.933 c -0.049,-0.104 -0.006,-0.229 0.096,-0.279 2.001,-0.975 2.74,-3.082 3.453,-5.118 l 0.432,-1.192 c 0.038,-0.107 0.155,-0.16 0.264,-0.121 0.109,0.04 0.163,0.163 0.124,0.272 l -0.427,1.179 c -0.742,2.116 -1.51,4.304 -3.664,5.355 -0.104,0.05 -0.227,0.007 -0.278,-0.096 m 3.8,-6.367 -0.066,-0.212 c 0.066,0.212 0.293,0.34 0.504,0.274 0.211,-0.066 0.333,-0.28 0.269,-0.492 l 0.041,0.137 c 0.063,0.212 -0.045,0.464 -0.256,0.53 -0.212,0.064 -0.425,-0.024 -0.492,-0.237 m 4.414,5.886 c -0.683,-0.819 -1.246,-1.768 -1.789,-2.686 -0.683,-1.156 -1.389,-2.352 -2.335,-3.259 -0.047,-0.047 -0.049,-0.123 -0.003,-0.173 0.045,-0.048 0.124,-0.05 0.171,-0.002 0.969,0.929 1.685,2.139 2.376,3.309 0.538,0.909 1.095,1.851 1.768,2.653 0.043,0.052 0.035,0.129 -0.016,0.173 -0.05,0.043 -0.128,0.035 -0.172,-0.015 m -11.826,-1.012 c -3.216,-2.169 -4.754,-5.888 -5.834,-9.24 -0.018,-0.062 0.014,-0.128 0.075,-0.147 0.061,-0.021 0.127,0.013 0.147,0.073 1.067,3.317 2.586,6.991 5.742,9.12 0.053,0.036 0.068,0.108 0.031,0.162 -0.036,0.054 -0.108,0.068 -0.161,0.032 m -8.071,-19.94 c -0.245,-0.601 -0.488,-1.251 -0.519,-1.968 -0.006,-0.158 0.116,-0.291 0.274,-0.298 0.156,-0.006 0.288,0.115 0.295,0.273 0.026,0.627 0.25,1.222 0.476,1.777 0.06,0.146 -0.008,0.314 -0.154,0.373 -0.145,0.059 -0.312,-0.011 -0.372,-0.157 m -5.417,-29.073 c -3.429,-10.029 -4.594,-21.527 -3.37,-33.248 0.012,-0.119 0.117,-0.206 0.236,-0.193 0.119,0.013 0.204,0.119 0.192,0.238 -1.217,11.659 -0.059,23.093 3.35,33.064 0.037,0.112 -0.021,0.236 -0.135,0.274 -0.112,0.039 -0.235,-0.021 -0.273,-0.135 m 12.939,-25.095 c -0.145,-0.047 -0.225,-0.203 -0.177,-0.349 0.379,-1.179 0.652,-2.183 0.864,-3.157 0.032,-0.15 0.18,-0.245 0.327,-0.213 0.15,0.033 0.244,0.18 0.212,0.331 -0.214,0.993 -0.494,2.013 -0.878,3.21 -0.047,0.144 -0.203,0.225 -0.348,0.178 m 27.907,28.212 c -0.104,-0.033 -0.162,-0.143 -0.131,-0.249 0.07,-0.224 0.098,-0.452 0.086,-0.677 -0.007,-0.11 0.076,-0.204 0.185,-0.211 0.109,-0.007 0.203,0.076 0.209,0.186 0.017,0.274 -0.017,0.55 -0.101,0.821 -0.033,0.104 -0.144,0.163 -0.248,0.13 m -5.362,4.727 c -0.093,-0.106 -0.084,-0.27 0.022,-0.363 1.426,-1.268 2.277,-3.153 2.795,-4.461 0.053,-0.133 0.202,-0.198 0.334,-0.146 0.132,0.054 0.196,0.203 0.143,0.336 -0.536,1.358 -1.424,3.317 -2.93,4.656 -0.108,0.095 -0.269,0.084 -0.364,-0.022 m -3.327,3.841 c -0.026,-0.088 0.024,-0.181 0.112,-0.207 0.747,-0.225 0.982,-0.969 1.193,-1.846 0.02,-0.09 0.111,-0.145 0.2,-0.123 0.09,0.021 0.145,0.111 0.123,0.201 -0.18,0.755 -0.429,1.792 -1.421,2.089 -0.089,0.026 -0.18,-0.024 -0.207,-0.114 m -0.04,2.54 c -0.187,-0.007 -0.328,-0.206 -0.322,-0.395 l 0.029,-0.833 c -0.011,-0.483 -0.021,-0.982 0.177,-1.485 0.069,-0.174 0.268,-0.26 0.441,-0.19 0.173,0.07 0.259,0.267 0.19,0.441 -0.149,0.373 -0.139,0.785 -0.13,1.219 l -0.037,0.96 c -0.008,0.187 -0.16,0.29 -0.348,0.283 m -0.296,2.794 c -0.165,-0.06 -0.248,-0.242 -0.187,-0.406 0.256,-0.7 0.224,-1.52 0.194,-2.315 l -0.014,-0.404 c -0.006,-0.174 0.13,-0.319 0.305,-0.324 0.174,-0.006 0.32,0.132 0.326,0.308 l 0.014,0.397 c 0.03,0.815 0.066,1.74 -0.233,2.557 -0.06,0.164 -0.241,0.248 -0.405,0.187 m 16.454,-4.779 c -0.074,-0.052 -0.09,-0.157 -0.037,-0.231 4.259,-5.884 6.058,-13.005 7.534,-19.794 0.019,-0.091 0.108,-0.147 0.198,-0.128 0.089,0.021 0.145,0.109 0.126,0.198 -1.484,6.824 -3.292,13.983 -7.59,19.919 -0.054,0.075 -0.156,0.091 -0.231,0.036 m 0.891,26.232 c -3.758,-3.763 -8.192,-8.943 -9.132,-15.652 -0.019,-0.139 0.077,-0.266 0.213,-0.285 0.138,-0.018 0.265,0.076 0.283,0.215 0.919,6.562 5.286,11.659 8.99,15.366 0.098,0.098 0.098,0.258 0.001,0.356 -0.098,0.098 -0.256,0.099 -0.355,0 m -5.001,-2.24 -0.192,-0.099 -0.161,-0.075 c -0.09,-0.045 -0.125,-0.149 -0.082,-0.237 0.043,-0.091 0.154,-0.127 0.243,-0.084 l 0.148,0.07 0.245,0.129 c 0.087,0.045 0.103,0.142 0.058,0.229 -0.046,0.088 -0.172,0.112 -0.259,0.067 m -5.459,-7.134 c -0.578,-0.635 -1.057,-1.457 -1.348,-2.318 -0.035,-0.102 0.021,-0.214 0.123,-0.249 0.102,-0.035 0.213,0.02 0.248,0.123 0.274,0.808 0.724,1.584 1.266,2.178 0.074,0.081 0.068,0.206 -0.012,0.279 -0.081,0.073 -0.204,0.068 -0.277,-0.013 M -15.15,-2.729 c -0.101,-0.025 -0.163,-0.125 -0.14,-0.224 0.176,-0.756 0.3,-1.504 0.369,-2.225 0.01,-0.101 0.101,-0.177 0.203,-0.168 0.102,0.011 0.177,0.103 0.167,0.204 -0.071,0.738 -0.198,1.501 -0.377,2.273 -0.023,0.099 -0.124,0.162 -0.222,0.14 m -16.055,5.812 -0.003,-0.72 c -0.008,-1.799 -0.016,-3.66 0.095,-5.47 0.006,-0.074 0.069,-0.13 0.142,-0.125 0.075,0.004 0.131,0.067 0.126,0.141 -0.109,1.803 -0.102,3.658 -0.096,5.453 l 0.003,0.72 c 0,0.074 -0.06,0.135 -0.133,0.135 -0.074,10e-4 -0.134,-0.061 -0.134,-0.134 m 15.218,1.923 c -0.019,-0.075 0.023,-0.167 0.097,-0.187 0.075,-0.018 0.147,0.012 0.164,0.086 l 0.102,0.406 c -0.019,-0.075 -0.098,-0.135 -0.172,-0.117 -0.075,0.019 -0.124,0.08 -0.105,0.157 z m -60.014,5.299 c -0.108,-0.017 -0.183,-0.121 -0.168,-0.23 l 0.014,-0.094 0.089,-0.407 c 0.022,-0.106 0.121,-0.152 0.228,-0.129 0.108,0.024 0.168,0.151 0.146,0.257 l -0.071,0.332 -0.014,0.106 c -0.016,0.107 -0.116,0.179 -0.224,0.165 m 72.552,-0.3 c -0.161,-0.048 -0.327,0.046 -0.373,0.205 0.258,-0.896 0.602,-1.802 0.936,-2.678 0.469,-1.23 0.952,-2.501 1.203,-3.761 0.034,-0.163 0.192,-0.268 0.356,-0.235 0.163,0.033 0.268,0.191 0.235,0.355 -0.26,1.309 -0.754,2.603 -1.23,3.856 -0.331,0.865 -0.671,1.76 -0.923,2.631 0.048,-0.16 -0.045,-0.327 -0.204,-0.373 m -12.928,0.024 c -0.051,-0.769 0.055,-1.527 0.157,-2.258 l 0.031,-0.226 c 0.018,-0.133 0.141,-0.227 0.273,-0.208 0.132,0.018 0.226,0.142 0.206,0.274 l -0.03,0.228 c -0.1,0.706 -0.201,1.438 -0.155,2.158 0.009,0.135 -0.092,0.25 -0.225,0.258 -0.133,0.009 -0.248,-0.092 -0.257,-0.226 m -87.04,-18.842 c -0.104,2.989 -4.558,4.949 -6.722,2.999 -0.021,-0.02 -0.642,-1.256 -0.933,-2.062 -0.537,-1.493 0.162,-2.816 0.56,-3.746 2.942,-2.091 7.222,-0.867 7.095,2.809 M 8.57,-29.138 8.228,-29.043 c 0.064,-2.428 0.994,-3.983 1.494,-5.808 1.169,-4.266 1.95,-7.812 2.987,-12.175 0.826,-3.478 1.788,-8.635 2.614,-12.364 0.354,-1.597 0.982,-3.294 0.746,-4.308 -0.24,-1.036 -2.078,-2.139 -2.799,-2.996 -0.949,-1.13 -1.796,-2.46 -1.869,-3.936 -0.251,-5.176 6.393,-8.695 9.709,-5.244 2.745,2.855 0.873,7.765 -1.306,9.928 -0.887,0.88 -1.968,1.319 -2.428,2.435 -0.476,1.157 -0.464,2.855 -0.746,4.308 -1.37,7.07 -3.227,13.909 -5.04,20.232 -1.034,3.597 -1.511,7.569 -2.802,10.115 z M -64.584,82.977 c -0.647,0.975 -1.161,2.081 -2.428,2.436 -0.385,-0.55 -1.106,-0.764 -0.932,-1.874 0.19,-0.185 0.378,-0.37 0.559,-0.562 1.47,-0.139 2.046,1.459 2.801,0 M -89.042,35.583 c -0.109,-0.672 0.217,-0.906 0.374,-1.312 0.465,-0.074 0.552,1.17 0.186,1.312 l -0.28,-0.095 z m 27.445,5.058 c -0.763,-0.607 -2.249,-0.492 -2.427,-1.686 l 0.093,-0.281 0.093,-0.28 c 0.515,0.492 1.027,-0.072 1.12,-0.563 l 0.281,0.093 0.28,-0.093 c 0.371,0.175 0.888,0.609 1.306,0.187 l 0.094,0.28 0.093,0.282 c -0.026,0.723 -0.631,0.866 -0.559,1.687 l -0.281,0.092 z m -1.121,3.934 c 0.11,-0.609 -0.127,-0.873 -0.185,-1.311 -0.272,-0.29 -0.956,-0.165 -1.494,-0.189 -0.066,-0.938 0.835,-0.908 1.307,-1.309 0.851,-0.107 0.789,0.705 1.68,0.561 v -0.561 l 0.279,0.091 0.28,-0.091 c 0.308,0.815 0.683,1.562 0.747,2.621 l -0.279,-0.093 -0.095,0.281 c -0.752,-0.396 -1.366,0.17 -1.867,0.563 l -0.13,-0.321 z m -1.306,21.542 c 0.195,-1.258 -0.293,-1.83 -0.747,-2.435 l 0.28,-0.094 -0.28,-0.094 c 0.218,-0.281 0.233,-0.765 0.56,-0.936 l 0.28,0.092 0.28,-0.092 c -0.177,2.113 2.41,2.269 2.987,0.749 l 0.095,0.281 0.279,-0.094 c -0.024,0.462 -0.028,0.903 0.186,1.124 l -0.279,0.219 0.093,0.343 c -1.724,-0.106 -2.222,1.018 -3.548,1.311 l 0.095,-0.28 z m -1.681,0.374 h 0.747 l -0.093,0.281 0.093,0.282 c 0,0.935 -0.652,0.291 -0.934,0 l 0.282,-0.219 z M -77.279,12.917 c -0.091,-0.902 0.33,-1.292 0.933,-1.499 0.442,0.537 -0.017,1.37 -0.374,1.686 l -0.217,-0.281 z m 30.431,17.609 c -0.239,-0.011 -0.258,-0.241 -0.56,-0.188 l 0.095,-0.281 -0.283,0.094 c 0.671,-1.18 0.022,-2.586 0.374,-3.934 -1.714,-2.322 -4.03,-4.36 -2.799,-7.867 1.079,-3.079 7.926,-5.051 10.081,-2.248 0.778,1.01 0.641,2.933 0,4.121 -1.778,3.288 -7.921,4.712 -6.348,10.115 l -0.343,-0.094 z m -5.788,14.049 c 0.06,-0.434 -0.03,-0.72 -0.186,-0.936 -0.586,-0.089 -0.494,0.504 -0.934,0.56 v -0.186 h -0.186 c -0.109,-0.392 -0.463,-0.535 -0.373,-1.124 1.544,-0.665 2.517,-2.72 1.679,-4.684 l 0.342,0.093 0.219,-0.28 c 0.371,0.002 0.237,0.511 0.746,0.376 0.091,-0.222 0.199,-0.426 0.374,-0.563 v 0.187 h 0.186 c -0.13,0.466 0.798,0.794 0.934,0.376 l 0.28,-0.096 0.093,-0.28 c 0.146,0.043 0.218,0.158 0.187,0.376 0.952,-0.419 2.277,-0.463 3.36,-0.751 0.225,-0.835 0.479,-1.643 0.374,-2.809 l 0.343,0.093 0.218,-0.281 c 0.6,0.396 0.833,1.164 1.12,1.874 -0.188,0.873 -1.254,0.865 -1.307,1.874 1.246,3.351 -0.963,6.095 -4.481,5.245 l -0.187,-0.095 -0.186,0.095 c -1.048,-0.734 -1.863,0.373 -2.054,1.123 l -0.219,-0.281 z m -4.854,6.556 h -0.933 c -0.029,0.22 0.032,0.532 -0.187,0.562 l -0.187,0.093 -0.186,0.094 c -0.289,-0.958 -0.411,-2.086 -0.56,-3.185 l 0.279,0.094 0.281,-0.094 c 0.144,0.042 0.216,0.158 0.186,0.374 1.265,1.114 2.887,0.742 3.174,-0.935 v 0.187 h 0.186 c 0.041,0.211 0.208,0.292 0.374,0.374 l -0.093,0.344 0.28,0.218 c -0.459,0.976 -1.695,1.171 -2.24,2.06 l -0.093,-0.28 z m 16.243,28.286 c 1.337,0.499 1.689,1.484 3.174,1.498 1.035,0.011 1.748,-0.896 2.988,-1.311 2.992,-0.999 7.374,-0.575 7.841,2.248 0.442,2.682 -2.263,3.764 -3.921,3.935 -5.08,0.518 -7.263,-3.964 -10.643,-5.996 l 0.319,-0.131 z M -52.075,70.05 c 1.056,-0.219 0.136,-1.094 0.186,-1.873 l 0.342,0.094 0.218,-0.282 c 1.109,1.838 1.427,4.039 2.428,5.809 0.681,1.202 2.037,1.934 2.24,3.372 l -0.28,0.092 0.093,0.281 c -2.108,0.026 -2.494,-2.074 -3.36,-3.559 -0.816,-1.397 -1.605,-2.533 -2.055,-3.558 l 0.281,-0.095 z m -0.934,-11.052 h 0.56 c 1.028,-1.716 2.304,-3.182 4.481,-3.746 0.917,-0.774 1.242,-2.804 0.56,-4.121 -4.59,-2.82 -6.86,3.064 -5.601,7.867 m 8.867,-4.027 -0.28,0.093 v -0.748 c -1.233,-0.645 -2.401,0.951 -1.866,2.059 h 0.187 l -0.093,0.282 0.279,0.094 c -1.183,0.437 -2.934,1.657 -1.866,3.184 1.823,-0.668 3.134,-1.85 4.667,-2.81 0.077,-0.826 -0.05,-1.447 -0.373,-1.873 h -0.561 z m -32.204,5.714 c 0.972,-0.048 0.95,-2.149 0.372,-2.624 -1.005,0.025 -1.757,2.447 -0.372,2.624 m -1.121,18.357 c -0.187,-3.434 -0.238,-6.439 0.373,-10.865 0.3,-2.164 1.236,-5.823 -0.932,-5.619 -1.078,0.1 -3.237,5.88 -3.922,7.117 -0.423,0.765 -1.301,1.692 -1.493,2.81 -0.682,3.954 3.132,10.575 5.974,6.557 m 6.068,0.844 -0.093,-0.282 c 4.02,-1.129 1.304,-7.752 1.867,-11.989 -0.434,-0.564 -0.931,-1.063 -1.493,-1.498 l 0.093,-0.281 -0.093,-0.28 c 1.311,-0.014 1.515,-2.422 0.373,-2.811 h -0.373 l -0.095,-0.281 -0.279,0.094 c 0.228,-0.854 -0.512,-0.736 -0.374,-1.499 0.289,-0.334 1.121,-0.124 1.306,-0.562 0.335,-1.586 -0.134,-3.31 -0.373,-4.87 -0.903,-0.43 -2.066,-0.075 -2.613,0.748 -0.31,0.469 -1.452,4.876 -1.12,6.37 0.292,1.314 1.412,1.44 2.054,2.06 l -0.281,0.094 -0.092,0.281 c -0.612,-0.011 -0.714,-0.533 -1.494,-0.375 -1.064,0.745 -0.993,2.375 -1.121,3.747 -0.32,3.453 -0.446,7.515 -0.374,11.239 0.701,1.347 3.576,1.867 4.295,0.188 v -0.188 z m 1.788,5.298 -0.388,0.041 c 0.782,-4.366 -4.796,-1.342 -5.228,1.311 -0.337,2.077 0.793,3.869 1.681,5.057 v 0.187 h 0.187 c -0.011,0.24 -0.24,0.26 -0.187,0.562 -0.008,3.917 2.3,4.743 3.921,7.118 1.713,2.511 2.587,6.841 -0.747,7.495 -3.446,0.673 -6.061,-3.191 -6.161,-6.183 -0.071,-2.175 1.173,-4.045 1.12,-5.994 -0.054,-2.018 -1.07,-2.989 -2.054,-4.496 h 0.188 v -0.187 c 2.283,-2.106 -1.164,-4.675 -2.241,-5.807 -1.799,-1.895 -2.224,-3.983 -2.988,-3.934 -0.462,0.029 -0.388,-0.039 -0.373,0.75 h -0.186 v 0.185 c -0.037,-1.619 -2.183,-0.732 -2.988,-0.56 -0.713,0.152 -1.504,0.613 -2.427,0.375 -2.746,-0.714 -1.647,-4.657 -0.373,-6.183 1.202,-1.44 3.676,-2.148 3.361,-4.684 l 0.343,0.094 0.216,-0.281 h 0.561 c 1.139,-0.944 1.688,-2.645 2.613,-4.308 1.026,-1.844 2.901,-3.68 2.054,-5.807 l 0.279,-0.218 -0.092,-0.344 c 1.818,0.397 2.608,-2.748 2.613,-3.371 0.01,-1.048 -1.57,-4.903 -2.053,-5.62 -0.699,-1.036 -2.215,-1.735 -2.24,-2.623 -0.04,-1.35 2.18,-2.263 2.987,-3.184 1.063,-1.216 1.933,-2.645 1.306,-4.683 -4.887,-0.849 -10.283,4.259 -6.16,8.242 -0.496,1.437 -2.286,1.578 -2.242,3.559 l -0.341,-0.094 -0.217,0.281 c -1.974,-0.901 -2.083,1.349 -2.428,3.559 -0.27,1.727 -0.744,3.683 -0.747,4.683 -0.005,1.966 2.723,3.469 3.36,5.058 0.422,1.049 0.352,2.188 0.373,3.372 l -0.341,-0.094 -0.217,0.281 c -0.453,-0.107 0.087,-1.212 -0.561,-1.124 -2.095,0.713 -0.786,3.553 -2.427,4.87 -1.808,1.453 -4.466,-0.036 -4.854,-1.685 -0.873,-3.714 2.327,-5.512 3.174,-8.805 0.248,-0.965 0.101,-2.456 0.186,-3.558 0.215,-2.804 1.102,-5.107 1.494,-7.306 -0.416,-1.185 -1.337,-2.223 -2.241,-3.56 -0.862,-1.275 -1.314,-2.849 -2.427,-3.558 -0.844,-0.539 -2.498,-1.056 -3.734,-0.749 -2.922,0.724 -2.897,7.801 -7.468,6.93 -2.645,-0.505 -1.807,-4.898 -1.12,-5.995 0.922,-1.468 3.348,-2.741 5.414,-2.996 4.266,-0.525 8.246,3.092 9.523,0 l 0.279,0.093 0.094,-0.281 c 0.261,0.286 0.69,0.809 1.12,0.375 l 0.279,0.094 0.281,-0.094 v 0.376 c 0.888,0.673 1.8,1.302 2.8,1.123 0.92,-0.166 1.367,-1.454 2.24,-2.248 1.88,-1.711 4.14,-2.534 7.095,-2.247 2.299,-1.75 0.414,-5.096 0,-7.868 -0.149,-0.999 0.025,-1.946 -0.187,-2.81 -0.328,-1.345 -1.242,-2.39 -1.493,-3.373 -3.023,-0.625 -3.48,-3.028 -5.228,-5.057 -1.076,-1.25 -2.883,-1.974 -3.733,-2.998 -2.294,-2.758 -1.509,-8.356 -6.162,-8.99 0.077,0.451 -0.34,0.406 -0.186,0.935 l -0.28,-0.093 -0.28,-0.093 c 0.072,-1.363 0.563,-2.308 0.373,-3.934 0.388,-0.86 1.26,-1.234 1.494,-2.248 0.963,0.721 1.994,0.603 2.8,1.124 1.114,0.72 1.369,2.106 2.427,3.746 0.757,1.175 2.144,2.094 2.614,2.998 1.044,2.011 1.295,4.593 2.987,5.619 0.918,0.557 2.307,0.639 3.548,0.376 l 0.216,0.28 0.343,-0.094 c 0.794,1.709 1.644,2.375 1.681,3.934 0.052,2.229 -2.714,5.063 -0.188,6.931 1.081,-0.414 1.603,-1.39 1.681,-2.81 2.364,-1.803 2.035,-5.621 2.988,-9.554 0.515,-2.126 1.277,-5.735 3.546,-5.619 1.11,0.057 1.737,1.617 2.801,1.874 1.758,0.422 3.672,-0.749 5.602,-0.375 1.624,0.313 2.145,1.88 3.919,1.31 0.552,1.072 1.42,1.823 1.681,3.184 l -0.333,-0.065 -0.226,0.254 c -1.812,0.838 -1.307,1.943 -2.241,3.183 -0.529,0.702 -1.965,1.77 -2.8,2.062 -2.02,0.706 -4.89,-0.087 -4.855,2.247 0.017,1.049 1.157,1.441 2.24,2.248 1.433,1.067 2.515,2.669 4.294,2.435 1.168,-0.154 3.683,-2.918 4.295,-4.683 0.713,-2.058 0.174,-3.564 -0.187,-5.619 l 0.341,0.093 0.219,-0.281 c 1.821,2.922 1.092,6.276 -0.56,8.43 -0.729,0.951 -2.4,1.727 -2.428,2.809 -0.018,0.752 1.357,2.158 2.055,2.997 1.681,2.029 2.238,2.914 1.493,6.182 l -0.342,-0.094 -0.218,0.283 c -1.718,-0.595 -4.952,-3.491 -6.347,-0.938 l -0.219,-0.28 -0.342,0.093 v -0.562 c -0.6,-0.449 -2.034,-0.561 -2.613,0 v 0.562 l -0.343,-0.093 -0.217,0.28 c -0.338,-0.705 -1.265,-0.584 -1.868,-0.187 v 0.187 l -0.342,-0.093 -0.219,0.281 c -0.994,-0.117 -1.615,0.905 -1.119,1.685 -0.216,0.158 -0.5,0.248 -0.933,0.189 -0.438,1.058 -0.857,2.136 -0.747,3.746 1.517,1.171 1.608,5.317 4.667,3.745 l 0.243,0.245 0.318,0.131 c -0.376,0.809 -1.527,0.841 -2.241,1.31 -1.107,2.506 1.92,3.808 0.747,5.809 -2.021,-0.306 -3.8,-1.419 -4.854,0.561 0.013,1.36 -0.054,2.802 0.559,3.559 -0.285,2.264 -0.345,5.811 0.561,7.493 h 1.493 v 0.187 h 0.187 c -0.494,0.438 -0.853,0.453 -0.56,1.311 l -0.28,0.22 0.093,0.343 c -0.314,0.073 -0.893,0.202 -1.12,0.561 -0.346,0.549 -0.229,7.12 0,8.43 0.059,0.337 0.239,0.543 0.374,0.749 1.928,-0.016 3.375,-1.833 5.041,-3.185 2.011,-1.632 4.028,-2.893 4.48,-5.057 l 0.341,0.094 0.22,-0.281 c 1.585,0.464 3.464,-2.333 2.052,-3.747 h -0.372 l 0.093,-0.344 -0.28,-0.217 c 0.259,-0.116 0.029,-0.722 0.373,-0.75 h 0.186 v -0.188 c 0.33,0.169 0.546,0.453 0.934,0.563 2.221,-1.314 0.71,-4.084 0.56,-6.369 -0.274,-4.157 0.642,-7.956 4.295,-8.056 1.606,-0.043 2.843,1.504 4.48,1.125 0.911,-0.212 1.565,-1.885 2.241,-3.185 0.556,-1.071 1.799,-2.727 1.679,-3.746 -0.13,-1.135 -1.302,-1.017 -1.306,-2.061 3.153,-2.74 4.941,-6.776 6.907,-10.864 1.442,-2.998 2.869,-6.178 3.734,-9.368 0.995,-1.133 1.398,-2.831 2.055,-4.307 1.879,-4.228 4.429,-9.508 5.414,-14.049 0.288,-1.328 0.065,-4.039 1.867,-3.746 0.473,1.403 -0.323,2.921 -0.747,4.12 -2.362,6.676 -4.497,13.118 -7.095,19.294 -1.057,2.514 -2.621,4.909 -3.173,7.494 -0.285,1.328 -0.017,2.574 -0.56,3.746 l -0.187,-0.094 -0.186,0.094 c -1.08,-0.489 -1.791,2.507 -2.429,3.933 -1.524,3.414 -2.711,5.792 -4.294,8.993 -1.168,2.361 -3.586,5.008 -0.932,6.555 h 0.373 l -0.094,0.281 0.28,-0.092 v 0.373 c 3.291,2.942 6.231,-2.245 5.041,-6.182 0.672,0.066 0.9,0.287 1.494,0 1.85,-1.938 3.673,-3.37 4.481,-5.994 0.324,-1.053 0.134,-2.233 0.561,-3.372 1.338,-3.578 8.783,-4.043 7.84,1.687 -0.501,3.041 -3.021,2.942 -4.48,5.246 -0.899,1.418 -0.474,2.729 -0.748,4.681 -0.173,1.243 -1.66,2.3 -2.612,3.185 -0.811,0.752 -2.063,2.376 -2.802,2.435 -0.937,0.076 -2.008,-1.342 -3.174,-1.311 -1.012,0.026 -2.367,0.518 -2.427,2.06 -0.039,1.009 1.377,2.213 2.054,2.81 1.057,0.933 1.791,1.577 2.613,2.248 1.359,1.108 4.322,3.693 5.975,3.934 3.466,0.503 7.577,-3.651 10.455,-1.311 0.263,0.212 0.774,0.779 0.933,1.498 0.613,2.751 -1.55,4.63 -3.36,5.059 -4.469,1.054 -6.548,-1.763 -9.147,-3.561 -1.918,-1.323 -4.854,-2.962 -6.349,-4.307 -0.788,-0.709 -2.026,-2.204 -2.613,-2.811 -0.534,-0.553 -1.785,-2.166 -3.362,-2.059 -1.219,0.082 -2.55,1.683 -4.293,2.622 -1.968,1.06 -5.078,1.505 -4.107,3.934 l -0.343,-0.095 -0.218,0.282 c -1.696,-0.028 -0.936,1.952 -0.746,2.998 l -0.342,-0.095 -0.218,0.281 c -0.188,0.001 -0.223,-0.152 -0.374,-0.186 -0.491,-0.057 -0.613,0.259 -0.56,0.748 l -0.281,-0.093 -0.092,0.281 c -1.551,-0.69 -2.506,1.411 -3.548,2.435 -1.181,1.161 -2.402,1.886 -2.987,2.809 -0.328,0.296 -0.245,1.004 -0.561,1.312 0.112,-0.487 -0.074,-0.675 -0.559,-0.562 -3.224,3.072 -8.442,4.143 -8.215,10.678 z M -0.92,-62.013 c 0.01,0.323 -0.144,0.481 -0.374,0.562 -0.267,-0.273 -0.273,-0.725 0.374,-0.562 m 10.269,8.43 h 0.373 v 0.374 H 9.349 Z M -0.92,-46.09 h 0.56 v 0.375 h -0.56 z m -2.987,5.245 c 0.01,0.322 -0.144,0.481 -0.373,0.562 -0.268,-0.274 -0.275,-0.725 0.373,-0.562 m -4.667,19.482 c 0.577,-0.398 1.916,-0.262 1.679,0.749 -0.271,0.986 -2.157,0.652 -1.679,-0.749 m -29.872,1.499 v -0.563 c 1.353,-0.968 1.353,1.531 0,0.563 m 25.764,0.561 h -0.747 c -0.147,-0.721 0.894,-0.721 0.747,0 m -98.016,2.811 c 0.237,-0.256 0.913,-0.29 0.932,0.186 -0.238,0.256 -0.914,0.289 -0.932,-0.186 m 14.375,1.873 c 0.279,-0.298 1.064,-0.275 0.933,0.374 -0.464,0.028 -0.905,0.035 -0.933,-0.374 m 40.14,2.622 c 0.127,-0.146 1.113,-0.488 0.934,0.187 -0.078,0.416 -1.023,0.179 -0.934,-0.187 m 13.816,-0.376 c 0.179,-0.733 1.532,-1.069 2.054,-0.373 v 0.936 c -0.565,0.722 -2.029,0.36 -2.054,-0.563 m -20.723,5.246 c 0.364,-0.219 1.044,-0.614 1.493,-0.187 0.107,0.687 -1.424,0.803 -1.493,0.187 m 48.354,1.968 -0.186,0.092 c -0.533,-0.349 -0.564,-1.767 0.373,-1.686 0.041,0.148 0.156,0.219 0.373,0.189 -0.032,0.53 0.161,1.285 -0.373,1.311 z m -74.119,3.091 c 0.008,-0.565 1.325,-0.544 1.121,0.187 -0.186,0.457 -1.139,0.502 -1.121,-0.187 m 36.033,0.749 c 0.128,-0.146 1.112,-0.489 0.933,0.187 -0.077,0.416 -1.023,0.179 -0.933,-0.187 m -51.342,0.187 v -0.749 c 0.597,0.025 1.428,-0.185 1.307,0.562 -0.004,0.544 -1.056,0.442 -1.307,0.187 m 88.868,0.936 c 0.03,0.131 -0.065,1.09 -0.187,0.562 -0.163,-0.713 0.101,-0.938 0.187,-0.562 M -71.305,1.49 c 0.249,-0.268 1.057,-0.268 1.306,0 V 2.238 C -70.63,2.56 -71.412,2.415 -71.305,1.49 m 19.79,1.312 c -0.357,0.079 -0.338,0.535 -0.934,0.374 -0.676,-0.846 0.741,-1.209 0.934,-0.374 m 20.536,-5.902 -0.186,0.095 c -0.108,-0.331 0.226,-1.101 -0.187,-1.125 -3.203,-1.296 -4.574,2.536 -7.655,2.062 -1.291,-0.2 -2.431,-1.143 -2.24,-2.999 0.212,-2.058 2.738,-2.261 4.294,-3.371 2.036,-1.452 2.722,-3.857 5.041,-4.121 2.252,-0.256 4.138,1.149 4.48,2.622 0.851,3.651 -1.995,4.339 -3.36,5.995 v 0.749 z m -34.726,6.276 h 0.374 c 0.01,0.239 0.239,0.26 0.186,0.562 h -0.56 z m 49.85,1.78 -0.188,0.094 c -0.407,-0.801 -0.244,-2.438 0.56,-2.622 0.122,0.726 0.488,2.205 -0.186,2.622 z m -57.317,1.405 h -1.121 c -0.762,-0.921 1.526,-1.509 1.121,0 m 9.708,2.248 c 0.494,0.002 1.099,-0.105 1.119,0.374 -0.364,0.497 -1.102,0.419 -1.119,-0.374 m -12.416,1.03 -0.279,0.094 c -0.043,-0.669 0.268,-0.98 0.932,-0.937 0.199,0.497 0.14,1.065 -0.559,1.123 z m 44.901,-0.843 c 0.388,1.013 0.438,1.825 -0.373,2.434 -0.836,-0.78 -0.477,-1.922 0.373,-2.434 m -8.961,2.06 h 0.561 v 0.374 h -0.561 z m -4.482,-0.186 c -1.537,2.413 -6.215,2.585 -7.28,-0.189 -0.399,-1.037 -0.345,-2.597 -0.187,-3.372 0.449,-2.18 3.332,-3.426 4.667,-4.681 0.637,0.734 1.299,1.443 2.8,1.31 -0.343,2.785 1.573,4.465 0,6.932 m 39.208,5.806 c 0.183,0.742 0.259,1.36 -0.187,1.874 -1.875,0.038 -0.787,-1.726 0.187,-1.874 m -82.147,2.81 c -0.045,-0.711 1.164,-0.711 1.12,0 -0.079,0.417 -0.991,0.147 -1.12,0 m 1.679,0.749 c 0.279,-0.297 1.065,-0.273 0.934,0.375 -0.462,0.027 -0.906,0.034 -0.934,-0.375 m 69.546,-10.021 0.281,-0.095 c 0.423,0.2 0.07,1.178 0.186,1.686 2.786,1.969 5.398,3.752 3.921,6.932 -1.621,3.487 -9.463,3.417 -8.589,-2.435 0.449,-3.004 4.224,-2.805 3.92,-6.183 z m -42.1,15.454 c -0.165,0.143 -0.534,-0.115 -0.561,-0.188 -0.265,-0.706 0.929,-0.134 0.561,0.188 m 49.848,-0.563 c 0.24,-0.256 0.882,-0.256 1.12,0 v 0.75 c -0.524,0.226 -1.19,0.108 -1.12,-0.75 m -45.368,1.312 v -0.562 c 0.661,-0.101 0.962,0.158 1.12,0.562 -0.238,0.257 -0.881,0.257 -1.12,0 m 44.62,2.248 v -0.749 c 0.548,-0.169 0.575,-0.169 1.121,0 v 0.749 c -0.239,0.256 -0.881,0.256 -1.121,0 m -79.346,0.374 c 0.249,-0.267 1.058,-0.267 1.307,0 v 0.75 c -0.632,0.319 -1.413,0.176 -1.307,-0.75 m 8.962,1.312 c 0.606,-0.588 2.042,-0.478 2.053,0.562 -0.254,1.104 -2.326,0.917 -2.053,-0.562 m 68.706,2.061 c 0.126,-0.56 0.742,-0.629 1.493,-0.563 -0.005,0.441 0.322,0.551 0.185,1.123 -0.508,0.498 -1.579,0.332 -1.678,-0.56 m -72.067,3.933 c 0.59,0.034 1.114,0.131 1.12,0.75 -0.475,1.384 -2.564,-0.134 -1.12,-0.75 m 16.056,6.369 c 0.21,-0.04 0.291,-0.207 0.374,-0.374 0.357,0.078 0.804,0.067 0.746,0.561 -0.257,0.53 -0.93,0.295 -1.12,-0.187 m -16.803,8.617 h 0.561 v 0.562 h -0.374 c -0.009,-0.239 -0.239,-0.259 -0.187,-0.562 m 68.892,0.375 c 0.507,-0.373 1.796,-0.276 1.68,0.561 -0.252,1.081 -2.465,0.487 -1.68,-0.561 m -34.539,2.622 h 0.374 v 0.375 h -0.374 z m -56.197,3.372 c -0.163,-0.857 1.474,-0.749 1.121,0.188 -0.461,0.024 -0.9,0.028 -1.121,-0.188 m 48.729,0.561 c 0.604,-0.106 0.938,0.056 1.12,0.376 0.109,0.982 -0.886,0.86 -1.12,1.498 -0.085,-0.862 -0.615,-1.217 0,-1.874 m 42.755,1.686 c 0.608,-0.048 0.897,0.224 0.932,0.75 -0.219,0.217 -0.659,0.213 -1.12,0.188 -0.207,-0.589 -0.088,-0.496 0.188,-0.938 m -0.934,3.747 c -0.161,-0.708 0.835,-0.663 1.119,-0.375 0.161,0.709 -0.835,0.662 -1.119,0.375 m -0.561,4.683 c -1.64,1.309 -1.123,-1.679 0,0 m -84.388,1.498 c 0.534,-0.035 1.019,-0.023 0.934,0.562 -0.469,0.162 -1,0.246 -0.934,-0.562 m 83.642,4.309 c 1.109,-0.134 1.109,1.072 0,0.937 -0.241,-0.246 -0.241,-0.691 0,-0.937 m -27.072,12.364 c -0.622,2.515 -5.341,2.32 -5.788,-0.186 -0.485,-2.724 1.809,-3.392 3.922,-3.934 1.212,1.375 2.321,2.285 1.866,4.12 m 5.602,12.924 h 0.746 c 0.146,-0.72 -0.894,-0.72 -0.746,0"
             style="fill:#262626;fill-opacity:1;fill-rule:nonzero;stroke:none"
             id="path58"
             inkscape:connector-curvature="0" />
        </g>
      </g>
    </g>
  </g>
</svg>
