<?xml version="1.0" encoding="UTF-8" standalone="no"?>
<!-- Created with Inkscape (http://www.inkscape.org/) -->

<svg
   xmlns:dc="http://purl.org/dc/elements/1.1/"
   xmlns:cc="http://creativecommons.org/ns#"
   xmlns:rdf="http://www.w3.org/1999/02/22-rdf-syntax-ns#"
   xmlns:svg="http://www.w3.org/2000/svg"
   xmlns="http://www.w3.org/2000/svg"
   xmlns:sodipodi="http://sodipodi.sourceforge.net/DTD/sodipodi-0.dtd"
   xmlns:inkscape="http://www.inkscape.org/namespaces/inkscape"
   width="64.793762mm"
   height="40.71788mm"
   viewBox="0 0 64.793762 40.71788"
   version="1.1"
   id="svg4159"
   inkscape:version="0.92.2 2405546, 2018-03-11"
   sodipodi:docname="paint-big05.svg">
  <defs
     id="defs4153">
    <clipPath
       clipPathUnits="userSpaceOnUse"
       id="clipPath102">
      <path
         d="M 0,600 H 600 V 0 H 0 Z"
         id="path100"
         inkscape:connector-curvature="0" />
    </clipPath>
  </defs>
  <sodipodi:namedview
     id="base"
     pagecolor="#ffffff"
     bordercolor="#666666"
     borderopacity="1.0"
     inkscape:pageopacity="0.0"
     inkscape:pageshadow="2"
     inkscape:zoom="0.35"
     inkscape:cx="8.5714298"
     inkscape:cy="560.00001"
     inkscape:document-units="mm"
     inkscape:current-layer="layer1"
     showgrid="false"
     fit-margin-top="0"
     fit-margin-left="0"
     fit-margin-right="0"
     fit-margin-bottom="0"
     inkscape:window-width="3840"
     inkscape:window-height="2095"
     inkscape:window-x="0"
     inkscape:window-y="0"
     inkscape:window-maximized="1" />
  <metadata
     id="metadata4156">
    <rdf:RDF>
      <cc:Work
         rdf:about="">
        <dc:format>image/svg+xml</dc:format>
        <dc:type
           rdf:resource="http://purl.org/dc/dcmitype/StillImage" />
        <dc:title></dc:title>
      </cc:Work>
    </rdf:RDF>
  </metadata>
  <g
     inkscape:label="Layer 1"
     inkscape:groupmode="layer"
     id="layer1"
     transform="translate(3.1956902e-7,-256.28212)">
    <g
       transform="matrix(0.35277777,0,0,-0.35277777,-74.288981,412.26273)"
       id="g96">
      <g
         id="g98"
         clip-path="url(#clipPath102)">
        <g
           id="g104"
           transform="translate(315.0938,372.3594)">
          <path
             d="M 0,0 C -0.012,-0.048 0.006,-0.091 0.053,-0.105 L 0.262,-0.158 0.66,-0.304 c 0.047,-0.017 0.121,-0.005 0.138,0.041 0.017,0.047 0.015,0.088 -0.031,0.105 L 0.296,0.02 0.122,0.063 C 0.072,0.075 0.012,0.049 0,0 m -11.892,0.233 c -0.024,-0.045 -0.005,-0.102 0.038,-0.127 l 3.085,-1.73 2.341,-1.341 c 0.044,-0.025 0.099,-0.008 0.123,0.035 0.026,0.044 0.008,0.102 -0.036,0.126 l -2.336,1.338 -3.094,1.736 c -0.043,0.024 -0.096,0.006 -0.121,-0.037 M 6.909,0.911 C 6.896,0.874 6.916,0.831 6.953,0.819 L 7.053,0.781 7.379,0.676 C 7.416,0.665 7.449,0.687 7.462,0.725 7.474,0.762 7.446,0.804 7.409,0.816 L 7.102,0.916 7,0.954 C 6.963,0.967 6.924,0.948 6.909,0.911 m -19.907,0.002 c -0.015,-0.04 0.007,-0.086 0.047,-0.1 l 0.1,-0.038 0.327,-0.104 c 0.041,-0.014 0.078,0.011 0.09,0.052 0.014,0.04 -0.016,0.086 -0.057,0.099 l -0.305,0.1 -0.103,0.037 c -0.04,0.016 -0.084,-0.006 -0.099,-0.046 m -7.025,12.334 c -0.04,-0.078 -0.01,-0.172 0.066,-0.213 1.066,-0.556 2.252,-0.666 3.398,-0.772 l 0.833,-0.082 c 0.087,-0.009 0.166,0.053 0.173,0.141 0.01,0.086 -0.051,0.163 -0.137,0.172 l -0.841,0.084 c -1.166,0.107 -2.27,0.21 -3.281,0.736 -0.076,0.042 -0.172,0.011 -0.211,-0.066 m -9.718,2.477 c -0.02,-0.064 0.019,-0.134 0.082,-0.153 l 1.481,-0.464 c 1.455,-0.474 2.959,-0.964 4.399,-0.938 0.068,0.002 0.12,0.058 0.119,0.124 -0.002,0.068 -0.056,0.121 -0.122,0.119 -1.401,-0.026 -2.885,0.459 -4.321,0.926 l -1.49,0.467 c -0.063,0.018 -0.128,-0.018 -0.148,-0.081 m 6.472,-1.5 c -0.042,-0.024 -0.053,-0.078 -0.028,-0.119 0.23,-0.364 0.613,-0.428 0.984,-0.489 0.266,-0.044 0.516,-0.086 0.708,-0.231 0.037,-0.03 0.091,-0.023 0.12,0.015 0.028,0.038 0.021,0.093 -0.016,0.121 -0.226,0.173 -0.51,0.22 -0.784,0.266 -0.349,0.057 -0.678,0.111 -0.866,0.411 -0.025,0.04 -0.078,0.052 -0.118,0.026 m -13.124,3.436 c -0.009,-0.049 0.042,-0.096 0.089,-0.106 l 0.316,-0.064 c -0.048,0.01 -0.066,0.052 -0.056,0.1 0.01,0.048 0.07,0.075 0.117,0.065 l -0.382,0.076 c -0.047,0.009 -0.073,-0.024 -0.084,-0.071 m 1.877,-0.438 c -0.038,-0.05 -0.028,-0.12 0.021,-0.158 0.276,-0.21 0.608,-0.295 0.929,-0.377 l 0.223,-0.061 c 0.058,-0.015 0.121,0.02 0.136,0.08 0.017,0.06 -0.018,0.121 -0.077,0.136 l -0.227,0.061 c -0.314,0.08 -0.609,0.156 -0.848,0.339 -0.049,0.038 -0.119,0.029 -0.157,-0.02 m 72.314,-1.024 c -0.996,-0.802 -1.845,-1.79 -2.666,-2.744 -1.012,-1.175 -2.058,-2.39 -3.378,-3.253 -0.054,-0.036 -0.069,-0.109 -0.034,-0.164 0.035,-0.054 0.108,-0.07 0.163,-0.034 1.347,0.881 2.404,2.109 3.427,3.297 0.814,0.946 1.656,1.924 2.635,2.715 0.051,0.039 0.059,0.115 0.019,0.165 -0.041,0.051 -0.114,0.059 -0.166,0.018 M 32.639,9.073 c -0.011,-0.047 0.019,-0.092 0.065,-0.103 0.419,-0.092 0.783,-0.253 1.08,-0.473 0.039,-0.029 0.093,-0.021 0.121,0.017 0.029,0.039 0.021,0.093 -0.017,0.121 -0.317,0.237 -0.703,0.407 -1.147,0.504 -0.046,0.011 -0.093,-0.02 -0.102,-0.066 m -39.997,11.45 c -0.048,0 -0.088,-0.04 -0.088,-0.088 0,-0.049 0.04,-0.088 0.088,-0.088 h 0.278 c 0.049,0 0.088,0.039 0.088,0.088 0,0.048 -0.039,0.088 -0.088,0.088 z m -37.705,0.379 c -0.026,-0.071 0.019,-0.152 0.089,-0.178 l 1.885,-0.709 c 0.744,-0.307 1.512,-0.623 2.296,-0.829 0.071,-0.019 0.146,0.024 0.166,0.097 0.019,0.073 -0.025,0.147 -0.099,0.166 -0.764,0.203 -1.525,0.515 -2.26,0.819 l -1.909,0.716 c -0.071,0.027 -0.139,-0.014 -0.168,-0.082 m -6.367,2.785 c -0.021,-0.051 0.007,-0.114 0.058,-0.136 l 2.119,-0.919 2.055,-0.896 c 0.052,-0.022 0.108,0.002 0.131,0.055 0.021,0.051 -0.006,0.113 -0.057,0.136 l -2.045,0.89 -2.131,0.925 c -0.051,0.023 -0.108,-0.003 -0.13,-0.055 m -5.859,2.993 -0.3,-0.017 0.062,-0.144 1.61,-0.785 1.042,-0.54 c 0.069,-0.036 0.149,-0.007 0.186,0.063 0.035,0.07 0.002,0.158 -0.066,0.194 l -1.027,0.531 -1.587,0.773 z m 5.943,2.106 c -0.062,-0.006 -0.108,-0.06 -0.104,-0.122 0.006,-0.062 0.061,-0.109 0.123,-0.103 0.257,0.022 0.502,-0.051 0.763,-0.127 0.06,-0.017 0.123,0.017 0.14,0.077 0.017,0.061 -0.017,0.124 -0.077,0.14 -0.269,0.08 -0.545,0.162 -0.845,0.135 m -18.034,3.702 c -0.025,-0.05 -0.006,-0.11 0.046,-0.134 3.696,-1.846 7.32,-3.64 10.997,-5.309 0.051,-0.023 0.111,-0.001 0.134,0.05 0.023,0.052 0,0.112 -0.051,0.135 -3.673,1.668 -7.295,3.46 -10.99,5.305 -0.051,0.025 -0.111,0.004 -0.136,-0.047 M 37.35,-3.562 c -0.011,-0.058 0.026,-0.115 0.085,-0.126 2.092,-0.411 4.242,-1.464 6.322,-2.484 l 1.934,-0.929 c 0.053,-0.025 0.116,-0.003 0.142,0.051 0.025,0.054 0.001,0.118 -0.052,0.144 l -1.929,0.927 c -2.092,1.026 -4.255,2.086 -6.376,2.501 -0.058,0.013 -0.115,-0.025 -0.126,-0.084 m 9.918,-3.978 c -0.067,-0.1 -0.046,-0.229 0.052,-0.295 l 1.248,-0.831 c 0.583,-0.371 1.187,-0.756 1.719,-1.2 0.092,-0.075 0.229,-0.063 0.305,0.029 0.076,0.092 0.063,0.229 -0.028,0.305 -0.554,0.462 -1.169,0.854 -1.765,1.232 l -1.225,0.815 c -0.099,0.067 -0.24,0.045 -0.306,-0.055 m 4.05,-3.119 c -0.101,-0.082 -0.118,-0.228 -0.038,-0.33 l 0.667,-0.838 c 0.786,-0.983 1.599,-1.998 2.259,-3.077 0.068,-0.111 0.212,-0.145 0.322,-0.077 0.111,0.067 0.146,0.212 0.077,0.323 -0.675,1.104 -1.498,2.132 -2.292,3.125 l -0.665,0.834 c -0.081,0.102 -0.228,0.12 -0.33,0.04 m 6.785,-16.832 -0.843,-0.302 c -0.771,-0.288 -1.498,-0.559 -2.284,-0.612 -0.122,-0.008 -0.212,-0.112 -0.204,-0.234 0.008,-0.121 0.113,-0.213 0.234,-0.204 0.849,0.057 1.64,0.352 2.406,0.638 l 0.828,0.296 c 0.114,0.041 0.178,0.169 0.138,0.283 -0.041,0.115 -0.162,0.176 -0.275,0.135 m -26.894,17.176 c -0.082,-0.002 -0.148,-0.07 -0.146,-0.152 0,-0.084 0.07,-0.149 0.153,-0.147 5.462,0.114 12.059,-2.723 16.412,-5.416 1.801,-1.115 3.281,-2.293 4.4,-3.503 0.056,-0.06 0.151,-0.064 0.21,-0.007 0.061,0.056 0.065,0.149 0.009,0.211 -1.137,1.229 -2.639,2.426 -4.463,3.554 -4.388,2.716 -11.048,5.577 -16.575,5.46 m 14.484,-18.599 c -0.02,-0.138 0.077,-0.267 0.215,-0.287 1.675,-0.241 3.39,-0.238 5.051,-0.236 h 0.413 c 0.14,0 0.253,0.114 0.253,0.255 0,0.14 -0.113,0.254 -0.253,0.254 h -0.414 c -1.642,-0.003 -3.339,-0.005 -4.979,0.23 -0.138,0.019 -0.266,-0.077 -0.286,-0.216 M 25.201,0.421 C 25.15,0.417 25.11,0.373 25.114,0.321 c 0.003,-0.052 0.049,-0.091 0.1,-0.087 0.36,0.025 0.692,-0.077 1.044,-0.184 l 0.317,-0.092 c 0.05,-0.015 0.1,0.014 0.115,0.063 0.014,0.051 -0.017,0.103 -0.066,0.117 L 26.313,0.23 C 25.959,0.337 25.596,0.448 25.201,0.421 M 22.937,0.963 C 22.645,0.792 22.302,0.812 21.938,0.833 21.626,0.851 21.304,0.869 21.002,0.759 20.956,0.743 20.933,0.692 20.949,0.646 c 0.017,-0.045 0.068,-0.069 0.114,-0.053 0.266,0.096 0.558,0.08 0.866,0.063 0.374,-0.022 0.759,-0.045 1.096,0.154 0.043,0.024 0.057,0.078 0.033,0.121 -0.026,0.043 -0.079,0.057 -0.121,0.032 M 11.985,-1.914 c -0.02,-0.052 0.005,-0.111 0.056,-0.134 l 1.4,-0.577 c 5.172,-2.146 11.608,-4.818 16.765,-1.25 0.046,0.031 0.058,0.095 0.026,0.142 -0.032,0.045 -0.094,0.057 -0.141,0.025 -5.068,-3.504 -11.445,-0.856 -16.571,1.271 l -1.403,0.578 c -0.052,0.022 -0.111,-0.004 -0.132,-0.055 m 5.098,3.803 C 16.065,1.677 15.066,1.357 14.101,1.048 l -2.18,-0.652 c -0.139,-0.041 -0.228,-0.191 -0.186,-0.33 0.041,-0.139 0.178,-0.221 0.316,-0.18 l 2.209,0.66 c 0.953,0.307 1.938,0.621 2.928,0.828 0.143,0.029 0.234,0.168 0.205,0.31 -0.03,0.142 -0.168,0.233 -0.31,0.205 m 1.673,2.767 C 18.498,4.563 18.177,4.564 17.876,4.658 17.798,4.683 17.715,4.639 17.689,4.561 17.665,4.482 17.71,4.398 17.788,4.375 c 0.36,-0.114 0.75,-0.113 1.067,0.002 0.079,0.027 0.118,0.113 0.09,0.19 -0.027,0.077 -0.113,0.118 -0.189,0.089 m -5.033,0.473 c -0.03,-0.04 -0.021,-0.098 0.019,-0.127 0.04,-0.03 0.097,-0.022 0.126,0.019 0.255,0.347 0.765,0.283 1.23,0.174 0.048,-0.011 0.097,0.02 0.107,0.068 0.013,0.05 -0.017,0.099 -0.066,0.11 C 14.796,5.454 14.082,5.62 13.723,5.129 M 17.648,5.078 C 17.57,5.053 17.526,4.97 17.551,4.891 c 0.024,-0.078 0.107,-0.122 0.186,-0.098 0.301,0.095 0.621,0.096 0.879,0.002 0.078,-0.027 0.162,0.014 0.191,0.091 0.027,0.076 -0.015,0.161 -0.09,0.19 -0.319,0.114 -0.707,0.115 -1.069,0.002 m -55.122,-9.173 c -0.027,-0.031 -0.019,-0.078 0.011,-0.104 l 1.595,-1.322 c -0.03,0.025 -0.032,0.069 -0.007,0.1 0.026,0.031 0.073,0.032 0.105,0.007 l -1.606,1.331 c -0.03,0.026 -0.074,0.02 -0.098,-0.012 m -12.577,5.054 -0.105,-0.002 c -0.077,-0.001 -0.14,-0.067 -0.138,-0.144 0.002,-0.078 0.066,-0.139 0.144,-0.138 l 0.105,0.003 c 0.733,0.016 1.564,0.036 2.307,-0.071 0.077,-0.011 0.148,0.043 0.159,0.12 0.011,0.076 -0.043,0.148 -0.119,0.158 -0.767,0.111 -1.611,0.092 -2.353,0.074 m 37.33,3.167 c -0.014,-0.041 0.006,-0.085 0.046,-0.102 l 0.756,-0.295 c 1.576,-0.614 3.207,-1.25 4.819,-1.662 0.042,-0.011 0.085,0.014 0.095,0.057 0.012,0.041 -0.014,0.084 -0.057,0.095 -1.602,0.41 -3.228,1.045 -4.8,1.657 l -0.756,0.295 c -0.041,0.015 -0.087,-0.004 -0.103,-0.045 M 1.231,1.145 1.018,1.112 0.664,1.049 C 0.546,1.029 0.48,0.921 0.501,0.802 0.521,0.685 0.646,0.609 0.764,0.629 L 1.078,0.684 1.31,0.72 C 1.427,0.738 1.501,0.848 1.483,0.966 1.465,1.083 1.348,1.163 1.231,1.145 M 7.745,-0.783 C 3.982,-1.829 0.102,-2.751 -3.788,-3.525 c -0.134,-0.027 -0.221,-0.158 -0.194,-0.292 0.026,-0.135 0.156,-0.222 0.29,-0.195 3.903,0.775 7.795,1.701 11.57,2.75 0.131,0.037 0.208,0.174 0.173,0.306 -0.037,0.132 -0.174,0.21 -0.306,0.173 m -13.23,-2.616 c -0.053,-0.036 -0.116,-0.035 -0.152,0.019 l 0.253,-0.375 c 0.037,-0.053 0.124,-0.099 0.177,-0.063 0.053,0.035 0.083,0.074 0.048,0.128 l -0.303,0.465 c 0.035,-0.054 0.03,-0.139 -0.023,-0.174 m -9.044,-0.243 c -0.019,-0.119 0.054,-0.227 0.173,-0.246 l 0.232,-0.037 0.312,-0.054 c 0.118,-0.02 0.244,0.056 0.263,0.173 0.022,0.118 -0.043,0.227 -0.161,0.247 l -0.353,0.063 -0.215,0.033 c -0.117,0.019 -0.234,-0.061 -0.251,-0.179 m -2.989,5.319 -0.187,-0.409 c 0.038,0.084 0.141,0.129 0.225,0.091 0.084,-0.038 0.125,-0.129 0.086,-0.213 l 0.155,0.345 c 0.037,0.084 0.014,0.207 -0.071,0.245 -0.084,0.039 -0.17,0.026 -0.208,-0.059 m -16.384,-1.813 c -0.014,-0.055 0.007,-0.11 0.064,-0.124 l 0.3,-0.074 c -0.055,0.014 -0.1,0.072 -0.086,0.128 0.015,0.056 0.06,0.092 0.116,0.078 l -0.256,0.064 c -0.055,0.015 -0.124,-0.016 -0.138,-0.072 m -10.824,0.859 c -0.038,-0.116 0.024,-0.241 0.14,-0.279 l 0.278,-0.092 c 0.115,-0.039 0.24,0.023 0.278,0.138 0.038,0.116 -0.024,0.241 -0.139,0.28 l -0.279,0.093 c -0.115,0.037 -0.24,-0.024 -0.278,-0.14 M -60.04,-5.021 c -0.014,-0.14 0.122,-0.264 0.259,-0.279 l 0.63,-0.07 0.263,-0.044 c 0.136,-0.024 0.26,0.07 0.283,0.206 0.024,0.138 -0.074,0.269 -0.209,0.292 l -0.248,0.041 -0.739,0.078 c -0.138,0.015 -0.224,-0.087 -0.239,-0.224 m 44.516,7.668 c -0.046,-0.052 -0.043,-0.132 0.009,-0.18 0.443,-0.402 0.999,-0.446 1.536,-0.488 l 0.745,-0.099 c 0.069,-0.009 0.147,0.037 0.156,0.106 0.01,0.07 -0.026,0.131 -0.095,0.14 l -0.786,0.106 c -0.519,0.041 -1.007,0.079 -1.386,0.424 -0.053,0.046 -0.132,0.042 -0.179,-0.009 m 32.553,10.057 c -0.11,-0.076 -0.126,-0.243 -0.051,-0.354 l 0.151,-0.226 0.054,-0.085 c 0.072,-0.114 0.219,-0.146 0.333,-0.074 0.112,0.07 0.143,0.221 0.074,0.333 l -0.051,0.081 -0.189,0.278 c -0.075,0.111 -0.211,0.121 -0.321,0.047 M -1.915,11.658 c -0.011,-0.069 0.035,-0.133 0.103,-0.144 l 4,-0.615 6.298,-0.991 c 0.069,-0.01 0.134,0.036 0.145,0.105 0.011,0.069 -0.035,0.132 -0.103,0.143 l -6.303,0.992 -3.996,0.614 c -0.07,0.01 -0.134,-0.036 -0.144,-0.104 M 4.749,9.275 C 4.744,9.199 4.793,9.132 4.87,9.125 l 1.207,-0.1 C 6.814,8.982 7.512,8.943 8.184,8.713 8.256,8.688 8.336,8.727 8.361,8.8 8.386,8.873 8.348,8.953 8.274,8.978 7.565,9.221 6.816,9.263 6.094,9.304 L 4.907,9.403 C 4.83,9.409 4.756,9.353 4.749,9.275 M 10.686,5.958 C 10.094,5.36 9.403,4.909 8.673,4.432 L 8.51,4.324 C 8.369,4.233 8.329,4.044 8.421,3.904 8.512,3.763 8.7,3.723 8.84,3.815 l 0.163,0.107 c 0.726,0.474 1.476,0.964 2.113,1.609 0.117,0.119 0.116,0.312 -10e-4,0.43 -0.119,0.118 -0.311,0.118 -0.429,-0.003 M -7.41,10.529 C -7.461,10.47 -7.455,10.38 -7.395,10.329 -5.701,8.881 -3.76,7.632 -1.883,6.423 -0.41,5.477 1.112,4.496 2.507,3.426 2.568,3.378 2.657,3.39 2.705,3.452 2.753,3.515 2.74,3.604 2.678,3.652 1.275,4.729 -0.253,5.713 -1.73,6.663 c -1.869,1.203 -3.801,2.447 -5.48,3.883 -0.061,0.051 -0.15,0.043 -0.2,-0.017 m 0.03,-0.008 c -0.047,-0.042 -0.05,-0.116 -0.007,-0.162 0.043,-0.046 0.116,-0.048 0.161,-0.005 0.198,0.181 0.379,0.241 0.449,0.258 C -3.779,10.112 -0.514,9.705 3.765,9.29 3.827,9.283 3.883,9.33 3.89,9.393 3.895,9.456 3.849,9.511 3.786,9.518 -0.486,9.932 -3.748,10.339 -6.786,10.837 -6.939,10.808 -7.152,10.732 -7.38,10.521 m -2.007,0.903 c -0.035,-0.121 0.033,-0.249 0.155,-0.283 0.326,-0.098 0.609,-0.267 0.908,-0.448 l 0.95,-0.473 c 0.112,-0.056 0.219,0.003 0.275,0.115 0.056,0.113 -0.021,0.264 -0.133,0.319 l -0.859,0.432 c -0.309,0.187 -0.631,0.378 -1.013,0.492 -0.12,0.036 -0.247,-0.034 -0.283,-0.154 m -0.527,0.846 c -0.079,-0.067 -0.109,-0.156 -0.043,-0.235 l 0.332,-0.4 0.287,-0.356 c 0.065,-0.08 0.205,-0.131 0.287,-0.067 0.08,0.065 0.117,0.145 0.054,0.226 l -0.365,0.466 -0.268,0.315 c -0.067,0.079 -0.206,0.118 -0.284,0.051 m 0.099,-0.043 c -0.056,-0.013 -0.09,-0.067 -0.079,-0.123 0.013,-0.054 0.068,-0.09 0.123,-0.077 1.34,0.301 2.793,0.099 4.2,-0.098 0.879,-0.122 1.787,-0.248 2.666,-0.255 0.056,0 0.102,0.046 0.102,0.103 0,0.056 -0.045,0.102 -0.101,0.102 -0.866,0.006 -1.767,0.131 -2.639,0.253 -1.425,0.199 -2.896,0.405 -4.272,0.095 m -1.529,0.598 c -0.052,-0.114 0.017,-0.255 0.13,-0.305 l 0.635,-0.289 0.712,-0.317 c 0.114,-0.052 0.227,0.006 0.279,0.121 0.05,0.113 -0.02,0.254 -0.134,0.304 l -1.342,0.605 c -0.114,0.051 -0.229,-0.006 -0.28,-0.119 m 3.765,5.853 c -0.048,-0.108 0.002,-0.232 0.108,-0.28 l 1.191,-0.531 3.018,-1.306 c 0.108,-0.046 0.226,0.005 0.274,0.113 0.046,0.108 -0.009,0.233 -0.116,0.281 l -3.003,1.299 -1.194,0.532 c -0.106,0.047 -0.23,0 -0.278,-0.108 M 5.232,13.118 C 5.213,13.001 5.277,12.891 5.395,12.87 l 0.354,-0.062 0.214,-0.033 c 0.117,-0.019 0.233,0.062 0.252,0.179 0.018,0.119 -0.056,0.229 -0.173,0.247 L 5.809,13.237 5.496,13.291 C 5.379,13.312 5.254,13.235 5.232,13.118 m 11.855,26.373 -0.784,-0.525 c -0.75,-0.48 -1.528,-0.976 -1.954,-1.807 -0.021,-0.04 -0.004,-0.09 0.036,-0.11 0.041,-0.022 0.09,-0.005 0.11,0.034 0.406,0.792 1.164,1.276 1.897,1.744 l 0.793,0.531 c 0.038,0.027 0.044,0.076 0.02,0.113 -0.026,0.038 -0.08,0.047 -0.118,0.02 M -7.129,22.969 c -0.104,-0.09 -0.116,-0.244 -0.027,-0.349 0.4,-0.47 0.917,-0.803 1.323,-1.042 0.117,-0.07 0.269,-0.03 0.338,0.089 0.068,0.117 0.028,0.27 -0.089,0.337 -0.373,0.22 -0.846,0.525 -1.197,0.938 -0.088,0.103 -0.245,0.116 -0.348,0.027 m 0.775,-2.108 c -0.003,-0.059 0.052,-0.112 0.111,-0.116 l 0.222,-0.015 0.373,0.022 c 0.058,0.004 0.069,0.048 0.066,0.106 -0.003,0.06 -0.087,0.099 -0.147,0.097 l -0.267,-0.008 -0.252,0.016 c -0.06,0.003 -0.102,-0.042 -0.106,-0.102 M 4.728,16.075 c -0.06,-0.013 -0.097,-0.072 -0.086,-0.13 0.012,-0.06 0.07,-0.099 0.129,-0.086 2.898,0.601 5.891,0.323 8.213,-0.76 0.055,-0.026 0.12,-10e-4 0.146,0.053 0.026,0.056 10e-4,0.12 -0.054,0.147 -2.363,1.102 -5.406,1.386 -8.348,0.776 M 4.278,14.663 C 4.253,14.556 4.319,14.448 4.425,14.422 5.127,14.255 5.804,13.901 6.459,13.56 6.556,13.508 6.675,13.547 6.727,13.645 6.777,13.742 6.738,13.863 6.643,13.914 5.965,14.266 5.267,14.631 4.518,14.811 4.41,14.836 4.304,14.77 4.278,14.663 m -27.311,10.788 c -0.045,-0.126 0.02,-0.264 0.145,-0.31 2.8,-1.006 5.567,-2.295 8.245,-3.543 l 4.685,-2.13 c 0.12,-0.055 0.259,0.002 0.314,0.123 0.055,0.121 -0.003,0.267 -0.125,0.322 l -4.671,2.122 c -2.687,1.253 -5.466,2.548 -8.285,3.561 -0.125,0.046 -0.263,-0.019 -0.308,-0.145 m -9.795,4.256 c -0.03,-0.078 0.001,-0.163 0.079,-0.193 l 1.375,-0.546 c 1.016,-0.374 1.975,-0.728 2.766,-1.388 0.063,-0.054 0.158,-0.044 0.211,0.02 0.053,0.064 0.045,0.16 -0.019,0.213 -0.831,0.693 -1.859,1.073 -2.854,1.439 l -1.356,0.536 c -0.077,0.032 -0.172,-0.004 -0.202,-0.081 m -0.525,-0.811 c -0.045,-0.06 -0.034,-0.146 0.027,-0.192 0.812,-0.621 1.502,-1.096 2.237,-1.544 0.065,-0.039 0.149,-0.019 0.189,0.047 0.039,0.064 0.019,0.148 -0.046,0.187 -0.726,0.443 -1.41,0.915 -2.216,1.528 -0.06,0.046 -0.146,0.035 -0.191,-0.026 m 15.408,-11.133 c -0.066,-0.082 -0.054,-0.202 0.028,-0.27 0.937,-0.763 1.966,-1.459 2.961,-2.132 1.27,-0.862 2.585,-1.752 3.687,-2.77 0.078,-0.071 0.199,-0.067 0.27,0.011 0.071,0.077 0.066,0.199 -0.011,0.271 -1.124,1.037 -2.45,1.936 -3.733,2.805 -0.987,0.67 -2.008,1.362 -2.934,2.114 -0.081,0.066 -0.201,0.053 -0.268,-0.029 m 6.758,-4.952 c -0.549,-0.333 -1.221,-0.29 -1.932,-0.246 l -1.21,0.002 c -0.05,0 -0.079,-0.04 -0.079,-0.091 0,-0.051 0.053,-0.091 0.102,-0.091 l 1.175,-0.003 c 0.709,-0.044 1.442,-0.091 2.039,0.271 0.043,0.026 0.058,0.082 0.031,0.126 -0.026,0.044 -0.082,0.058 -0.126,0.032 m -3.664,-0.731 c -0.012,-0.064 0.038,-0.129 0.103,-0.142 l 1.864,-0.367 c 1.266,-0.297 2.576,-0.603 3.743,-0.328 0.065,0.015 0.104,0.079 0.089,0.143 -0.015,0.063 -0.079,0.104 -0.142,0.089 -1.114,-0.263 -2.396,0.037 -3.636,0.328 l -1.89,0.372 c -0.064,0.013 -0.118,-0.03 -0.131,-0.095 m -14.112,-1.306 c -0.025,-0.057 0.002,-0.122 0.058,-0.147 4.09,-1.742 8.725,-3.715 13.226,-5.447 0.057,-0.023 0.123,0.006 0.144,0.064 0.022,0.058 -0.005,0.123 -0.064,0.145 -4.497,1.731 -9.13,3.704 -13.218,5.445 -0.057,0.024 -0.121,-0.003 -0.146,-0.06 m -5.185,1.958 c -0.04,-0.116 0.023,-0.243 0.138,-0.28 l 0.279,-0.093 c 0.115,-0.038 0.238,0.024 0.278,0.14 0.038,0.115 -0.023,0.242 -0.139,0.279 l -0.278,0.094 c -0.115,0.038 -0.238,-0.024 -0.278,-0.14 m -33.129,8.174 c -0.004,-0.119 0.073,-0.216 0.191,-0.22 l 3.757,-0.093 c 0.119,-0.003 0.236,0.09 0.238,0.209 0.004,0.119 -0.073,0.217 -0.191,0.219 l -3.757,0.093 c -0.119,0.004 -0.235,-0.089 -0.238,-0.208 m 37.813,-10.599 c -0.036,-0.065 -0.013,-0.147 0.051,-0.183 l 3.852,-2.15 7.701,-4.273 c 0.065,-0.036 0.145,-0.013 0.182,0.052 0.035,0.065 0.011,0.147 -0.054,0.184 l -7.699,4.272 -3.851,2.15 c -0.064,0.036 -0.146,0.012 -0.182,-0.052 m -23.032,2.391 c -0.019,-0.102 0.048,-0.201 0.15,-0.221 6.728,-1.327 13.309,-3.359 19.675,-5.322 4.777,-1.475 9.717,-2.999 14.692,-4.218 0.101,-0.024 0.202,0.037 0.226,0.139 0.025,0.101 -0.037,0.203 -0.138,0.227 -4.963,1.216 -9.898,2.739 -14.671,4.212 -6.374,1.967 -12.965,4.001 -19.712,5.333 -0.102,0.019 -0.201,-0.048 -0.222,-0.15 M -72.843,1.692 c -0.098,-0.078 -0.113,-0.223 -0.033,-0.321 2.95,-3.676 7.705,-5.075 11.898,-6.308 l 1.122,-0.331 c 0.121,-0.035 0.249,0.033 0.284,0.155 0.036,0.12 -0.033,0.248 -0.154,0.283 l -1.123,0.333 c -4.332,1.273 -8.811,2.59 -11.672,6.155 -0.08,0.098 -0.224,0.114 -0.322,0.034 m 12.916,-6.681 -0.113,-0.378 c 0.023,0.078 0.109,0.134 0.187,0.111 0.077,-0.023 0.124,-0.095 0.102,-0.172 l 0.095,0.32 c 0.024,0.079 -0.014,0.178 -0.092,0.2 -0.079,0.024 -0.154,-0.002 -0.179,-0.081 m 72.329,-14.38 c -0.05,-0.089 -0.019,-0.202 0.071,-0.255 l 3.725,-2.148 c 6.34,-3.687 13.528,-7.867 20.564,-9.745 4.442,-1.186 10.646,-1.972 14.973,1.011 0.084,0.058 0.107,0.174 0.048,0.259 -0.057,0.084 -0.173,0.106 -0.258,0.048 -4.212,-2.904 -10.301,-2.124 -14.669,-0.958 -6.987,1.865 -14.151,6.032 -20.471,9.708 l -3.731,2.15 c -0.09,0.051 -0.201,0.02 -0.252,-0.07 m 39.376,9.105 c -0.051,-0.083 -0.024,-0.192 0.06,-0.242 3.027,-1.834 6.479,-4.061 9.14,-7.291 0.062,-0.076 0.173,-0.086 0.248,-0.025 0.075,0.063 0.086,0.174 0.023,0.249 -2.695,3.274 -6.178,5.52 -9.229,7.37 -0.083,0.05 -0.193,0.023 -0.242,-0.061 M 33.429,0.387 C 33.396,0.314 33.427,0.229 33.499,0.197 37.62,-1.679 41.979,-3.75 46,-6.631 c 0.064,-0.047 0.153,-0.032 0.2,0.033 0.046,0.064 0.031,0.155 -0.033,0.2 -4.042,2.897 -8.416,4.975 -12.55,6.856 -0.071,0.032 -0.157,0 -0.188,-0.071 M 29.513,1.892 C 29.42,1.888 29.35,1.808 29.354,1.714 29.358,1.621 29.439,1.549 29.531,1.555 30.28,1.597 31.017,1.231 31.729,0.878 l 0.933,-0.429 c 0.085,-0.039 0.176,0.002 0.213,0.087 0.04,0.085 -0.007,0.189 -0.092,0.228 L 31.878,1.181 C 31.127,1.554 30.35,1.94 29.513,1.892 m 2.216,4.329 C 31.713,6.133 31.771,6.049 31.858,6.033 37.902,4.92 43.911,4.278 48.99,3.796 49.079,3.788 49.158,3.853 49.167,3.943 49.177,4.032 49.11,4.111 49.021,4.12 43.948,4.602 37.948,5.244 31.918,6.352 31.829,6.368 31.745,6.31 31.729,6.221 m 0.695,0.727 C 32.109,6.915 31.855,6.813 31.624,6.626 31.539,6.558 31.525,6.432 31.594,6.347 c 0.069,-0.085 0.194,-0.099 0.279,-0.03 0.172,0.138 0.355,0.211 0.593,0.236 0.109,0.011 0.187,0.109 0.176,0.218 -0.011,0.11 -0.11,0.188 -0.218,0.177 M 25.116,7.25 c -0.018,-0.128 0.08,-0.248 0.208,-0.267 l 1.883,-0.272 1.591,-0.239 c 0.128,-0.019 0.24,0.07 0.259,0.198 0.018,0.127 -0.076,0.247 -0.203,0.266 L 27.283,7.174 25.37,7.449 C 25.243,7.468 25.135,7.377 25.116,7.25 m -9.728,6.659 c -0.006,-0.111 -0.1,-0.196 -0.21,-0.19 0.169,-0.009 0.308,-0.107 0.471,-0.222 0.173,-0.122 0.371,-0.26 0.628,-0.29 -0.11,0.013 -0.187,0.113 -0.175,0.224 0.013,0.11 0.113,0.188 0.222,0.175 -0.158,0.018 -0.291,0.112 -0.446,0.221 -0.186,0.131 -0.398,0.278 -0.682,0.292 0.112,-0.005 0.197,-0.099 0.192,-0.21 m -17.201,7.949 c -0.093,-0.011 -0.158,-0.096 -0.146,-0.189 0.013,-0.092 0.097,-0.157 0.189,-0.146 3.64,0.476 8.17,1.067 12.035,-0.782 0.083,-0.04 0.183,-0.004 0.224,0.079 0.039,0.086 0.004,0.186 -0.081,0.226 C 6.455,22.938 1.87,22.34 -1.813,21.858 M 19.17,40.667 c -0.068,-0.03 -0.101,-0.109 -0.071,-0.178 0.03,-0.069 0.109,-0.1 0.177,-0.072 3.915,1.687 8.578,3.361 13.472,2.993 0.074,-0.006 0.14,0.05 0.145,0.124 0.005,0.075 -0.05,0.141 -0.124,0.147 -4.954,0.372 -9.654,-1.314 -13.599,-3.014 m 15.547,-3.431 c -0.376,-0.498 -0.815,-0.973 -1.304,-1.416 -0.105,-0.097 -0.114,-0.259 -0.017,-0.366 0.094,-0.105 0.257,-0.114 0.363,-0.019 0.512,0.465 0.973,0.966 1.368,1.489 0.086,0.114 0.063,0.275 -0.05,0.361 -0.113,0.087 -0.274,0.065 -0.36,-0.049 m -8.208,-1.55 c -0.094,-0.052 -0.128,-0.167 -0.078,-0.262 0.049,-0.093 0.167,-0.129 0.26,-0.077 1.48,0.799 3.783,1.249 5.398,-0.118 0.081,-0.068 0.202,-0.059 0.27,0.022 0.069,0.082 0.058,0.203 -0.022,0.272 -1.764,1.492 -4.242,1.02 -5.828,0.163 m 5.339,-1.308 -0.446,-0.396 -0.261,-0.196 C 31.028,33.7 31.017,33.549 31.1,33.436 c 0.085,-0.113 0.254,-0.128 0.365,-0.042 l 0.233,0.173 0.565,0.518 c 0.102,0.093 0.072,0.212 -0.021,0.316 -0.094,0.104 -0.29,0.07 -0.394,-0.023 m 1.542,0.167 C 33.309,34.478 33.298,34.357 33.365,34.276 36.71,30.256 35.834,23.38 35.014,19.639 34.291,16.348 33.143,13.911 31.601,12.396 29.788,10.617 26.766,9.309 23.514,8.896 23.409,8.883 23.335,8.787 23.349,8.682 c 0.012,-0.105 0.109,-0.18 0.213,-0.166 3.332,0.422 6.437,1.77 8.306,3.606 1.595,1.568 2.78,4.068 3.519,7.434 0.835,3.811 1.721,10.821 -1.728,14.965 -0.069,0.082 -0.188,0.092 -0.269,0.024 m -116.252,5.916 c -0.032,-0.041 -0.025,-0.099 0.016,-0.13 3.592,-2.845 7.581,-4.991 11.01,-6.714 0.046,-0.023 0.101,-0.004 0.124,0.042 0.023,0.046 0.005,0.102 -0.041,0.125 -3.42,1.719 -7.399,3.859 -10.979,6.692 -0.039,0.032 -0.098,0.025 -0.13,-0.015 m 12.132,13.967 c -0.034,-0.027 -0.04,-0.076 -0.012,-0.11 1.534,-1.93 3.126,-3.809 4.735,-5.589 0.029,-0.032 0.078,-0.035 0.111,-0.006 0.031,0.029 0.033,0.079 0.005,0.111 -1.607,1.777 -3.198,3.654 -4.73,5.582 -0.026,0.033 -0.075,0.039 -0.109,0.012 m 41.684,-55.21 c -0.004,-0.065 0.066,-0.119 0.13,-0.123 l 1.112,-0.071 c 0.064,-0.003 0.1,0.045 0.104,0.109 0.004,0.065 -0.064,0.12 -0.129,0.124 l -0.521,0.035 -0.594,0.034 c -0.064,0.004 -0.098,-0.044 -0.102,-0.108 m 18.505,2.236 c -0.005,-0.067 0.037,-0.124 0.103,-0.13 l 1.145,-0.087 c 0.687,-0.029 1.397,-0.059 2.027,-0.323 0.062,-0.027 0.132,0.003 0.159,0.065 0.025,0.062 -0.003,0.132 -0.066,0.159 -0.67,0.281 -1.401,0.311 -2.109,0.341 l -1.12,0.085 c -0.067,0.005 -0.133,-0.043 -0.139,-0.11 m 4.297,0.355 c -0.048,0 -0.086,-0.038 -0.086,-0.085 0,-0.047 0.038,-0.086 0.086,-0.086 h 0.277 c 0.047,0 0.086,0.039 0.086,0.086 0,0.047 -0.039,0.085 -0.086,0.085 z m -5.999,-0.004 c -0.007,-0.046 -0.002,-0.083 0.047,-0.089 l 0.532,-0.074 0.128,-0.004 c 0.047,-10e-4 0.087,0.037 0.088,0.084 0.001,0.048 -0.035,0.086 -0.083,0.087 l -0.131,0.003 -0.46,0.059 c -0.047,0.005 -0.115,-0.019 -0.121,-0.066 m -26.76,23.596 c -0.018,-0.108 0.054,-0.208 0.16,-0.225 0.549,-0.092 1.095,-0.275 1.623,-0.453 l 0.157,-0.052 c 0.102,-0.035 0.213,0.02 0.247,0.124 0.035,0.102 -0.022,0.212 -0.124,0.248 l -0.157,0.053 c -0.542,0.182 -1.102,0.371 -1.682,0.467 -0.108,0.018 -0.208,-0.056 -0.224,-0.162 m 15.222,-11.11 -0.07,-0.21 c -0.022,-0.303 0.495,-0.063 0.697,-0.139 l -0.07,0.209 0.209,-0.07 c 0.075,0.494 -0.118,0.72 -0.418,0.838 -0.14,-0.278 -0.615,-0.22 -0.556,-0.698 z m -12.177,3.281 h -0.139 c 0.225,-0.607 1.045,-1.147 1.67,-0.558 v 0.139 h 0.139 c -0.108,0.451 -0.351,0.765 -0.696,0.978 -0.427,-0.036 -0.625,-0.303 -0.974,-0.419 z M 33.628,8.636 C 33.559,7.916 33.819,7.524 34.463,7.519 35.268,7.8 34.798,9.1 33.767,8.775 l 0.069,-0.209 z m -1.949,1.536 c -0.824,-0.129 -1.348,0.309 -1.949,0 -0.635,-0.247 -0.591,-1.175 -1.252,-1.397 1.527,-0.326 2.701,0.533 4.314,0.14 l -0.068,0.14 0.068,0.139 c -0.109,0.494 -0.99,0.217 -0.834,0.978 l -0.14,-0.07 z m 6.193,5.933 0.069,-0.208 c 2.001,1.703 2.659,-1.084 4.872,-0.978 0.484,0.023 1.501,0.391 1.809,0.838 1.615,2.351 -1.499,3.613 -3.341,2.932 -0.594,-0.219 -0.909,-1.005 -1.53,-1.396 -0.659,-0.415 -1.366,-0.25 -1.949,-0.977 z m -88.373,12.429 -0.209,-0.07 c 0.213,-0.723 1.491,-0.938 1.948,-0.279 -0.421,0.381 -1.009,0.979 -1.809,0.559 z m 96.653,-57.32 c -3.586,0.871 -6.468,0.793 -9.184,2.373 -1.581,0.92 -2.614,2.516 -4.315,3.072 -1.154,0.377 -2.609,0.594 -3.896,0.279 0.44,-1.501 1.141,-2.611 2.087,-3.351 1.435,-1.125 3.135,-1.059 5.427,-1.256 3.082,-0.267 6.559,-1.709 9.743,-1.537 l -0.07,0.256 z M 0.782,1.096 H -0.47 C -1.203,1.675 -2.274,2.787 -3.67,2.631 -6.41,2.327 -5.753,-1.558 -2.696,-1 c 0.59,0.109 0.845,0.58 1.253,0.839 0.454,0.291 1.019,0.28 0.973,0.698 0.424,0.087 1.199,-0.179 1.392,0.139 L 0.714,0.839 Z m 6.96,-2.375 c 2.146,0.965 2.548,-0.396 4.314,-0.837 l 0.024,0.163 0.114,0.117 c -0.347,0.44 -1.051,0.525 -0.972,1.396 0.218,0.245 0.745,0.182 0.972,0.418 l -0.208,0.163 0.07,0.256 C 11.054,0.866 10.098,-0.035 9.134,0.676 8.626,0.576 8.491,0.018 7.881,0.397 7.864,-0.005 7.957,-0.518 7.742,-0.72 7.657,-0.728 7.576,-0.741 7.603,-0.859 l 0.208,-0.163 z m -21.85,-2.233 c -0.398,0.915 -2.009,1.496 -2.923,0.698 -0.181,-1.868 1.871,-2.231 2.784,-1.118 l -0.07,0.256 z m -30.339,3.909 c 0.025,-0.207 0.336,-0.128 0.556,-0.139 0.603,-1.091 0.858,-1.983 1.67,-2.514 0.842,-0.55 1.745,-0.218 2.784,-0.698 0.73,-0.338 0.907,-1.199 1.53,-1.536 0.243,-0.01 0.433,0.032 0.557,0.139 l -0.069,0.21 0.209,-0.069 c 0.164,1.282 -1.245,0.985 -1.531,1.814 -0.034,0.918 0.096,1.672 0.417,2.235 0.57,0.013 1.14,0.027 1.531,-0.14 0.537,-0.252 0.24,-1.342 0.835,-1.535 0.732,0.009 0.6,0.887 0.974,1.255 0.519,-0.007 0.88,0.142 1.253,0.28 l -0.069,0.14 0.069,0.139 c -0.936,0.273 -1.61,0.805 -2.087,1.537 -0.844,0.053 -0.594,-0.988 -1.253,-1.118 -1.253,-0.171 -2.233,0.469 -3.062,0.279 0.133,0.436 -0.742,0.528 -1.114,0.559 -0.951,0.081 -2.239,-0.432 -3.061,-0.419 l 0.069,-0.255 z m -3.479,0.279 c 0.5,-0.312 0.702,-0.105 0.974,-0.698 0.906,0.069 1.652,0.297 2.505,0.419 l -0.07,0.257 0.209,0.162 c -0.743,1.588 0.451,5.844 -2.367,4.888 -0.82,-1.085 -0.516,-3.298 -0.974,-4.748 h -0.139 l 0.07,-0.21 z m 44.534,15.919 c 0.398,-2.824 3.559,-3.1 6.541,-2.932 0.579,-0.025 0.517,-0.691 0.835,-0.978 0.635,-0.078 0.867,0.248 1.531,0.14 l -0.07,0.255 0.209,0.163 C 5.29,13.67 4.377,13.545 4.402,14.361 h 0.139 l -0.07,0.256 0.209,0.162 c -0.157,0.263 -0.539,0.298 -0.696,0.559 -0.279,0.285 -0.036,0.371 0.139,0.559 -1.192,-0.174 -1.405,1.398 -2.366,1.955 -0.786,0.455 -1.523,0.312 -2.505,0.697 -0.963,-0.382 -1.692,-1.001 -2.505,-1.535 l 0.069,-0.256 z m -6.68,2.933 c 0.678,-0.53 1.215,-1.202 2.505,-1.118 l 0.181,0.182 0.236,0.097 c -0.477,0.872 -1.696,0.999 -2.783,1.257 l 0.069,-0.257 z m -22.964,9.355 v 0.14 c 0.201,0.078 0.34,0.218 0.418,0.419 l -0.07,0.209 0.209,0.07 c -0.353,1.265 -1.816,0.731 -2.922,1.117 -1.107,0.386 -1.676,2.204 -3.063,1.396 -0.204,-1.616 1.475,-1.293 2.367,-1.674 1.053,-0.453 1.723,-1.935 2.923,-1.956 l -0.07,0.209 z m 15.448,-11.171 c -1.104,1.359 -2.96,1.963 -4.174,3.212 -0.102,0.427 0.24,0.41 0.138,0.838 -0.423,0.384 -0.559,-0.367 -1.252,-0.14 -0.942,0.619 -0.925,3.003 0.14,3.491 l -0.07,0.256 0.209,0.163 c -0.03,0.157 -0.154,0.218 -0.279,0.279 -0.138,0.838 -0.282,1.672 -0.557,2.374 -0.925,0.139 -1.22,0.719 -1.948,0.698 -0.979,-0.028 -2.164,-1.509 -3.061,-0.978 l -0.07,-0.208 -0.21,0.069 v -0.279 c -0.789,-0.549 -1.241,0.147 -2.365,0 l 0.07,-0.21 -0.21,-0.07 c 0.319,-1.19 1.304,-1.164 1.671,-2.094 0.234,-0.593 0.006,-1.247 0.139,-1.676 0.429,-1.371 1.605,-2.045 3.061,-2.234 1.035,-0.134 1.39,0.202 2.367,0 1.532,-0.316 3.439,-2.117 4.175,-3.072 0.819,-0.062 1.314,-0.449 1.949,-0.697 l 0.07,0.208 z m -49.266,3.351 c -10.48,0.979 -21.98,-2.375 -31.035,0.559 -0.914,2.22 -2.24,4.709 -5.567,4.05 -2.312,-1.919 -0.486,-5.163 2.227,-5.446 0.943,-0.099 1.944,0.286 2.922,0.278 1.674,-0.011 3.432,-0.581 5.289,-0.697 8.469,-0.529 18.344,1.066 26.024,0.838 l -0.069,0.255 z m 33.123,-8.238 c -2.322,1.085 -5.441,2.326 -7.933,3.351 -0.859,0.354 -2.079,0.814 -2.505,1.258 -1.08,1.119 -0.737,2.996 -2.366,3.211 -1.307,0.172 -2.201,-0.936 -3.201,-0.978 -1.067,0.326 -1.921,0.865 -2.922,1.257 -0.839,1.378 -2.19,3.692 -4.176,3.211 -1.586,-0.383 -0.689,-2.239 -1.252,-3.631 -2.211,-0.03 -3.39,1.826 -5.288,0.559 l 0.07,-0.256 -0.21,-0.162 c 0.624,-0.379 0.791,-0.733 1.531,-0.838 0.698,-0.099 1.379,0.292 2.087,0.278 0.964,-0.016 2.084,-0.549 3.202,-0.836 2.315,-0.598 4.486,-0.878 6.54,-1.537 1.063,-0.341 2.048,-0.875 3.062,-1.117 2.286,-0.546 4.399,-0.914 6.403,-1.676 2.027,-0.77 3.736,-1.936 5.566,-2.653 0.551,-0.181 0.284,0.46 0.835,0.28 0.023,-0.163 0.22,-0.151 0.418,-0.14 l -0.07,0.256 z m 4.592,-2.513 c -0.2,0.245 -0.127,0.318 0.279,0.278 v 0.14 h 0.138 c -1.552,0.816 -3.227,1.509 -5.009,2.095 l 0.069,-0.256 -0.208,-0.163 c 1.546,-0.776 2.972,-1.672 4.593,-2.374 l -0.07,0.21 z m 11.134,-7.401 c 0.567,-0.85 1.359,-0.827 2.645,-0.559 l -0.07,0.21 0.208,-0.07 c 0.866,2.342 -1.564,2.914 -2.643,1.536 l 0.07,-0.21 -0.21,-0.069 v -0.42 l 0.07,-0.209 z M -72.421,1.515 c -1.979,2.934 0.144,6.846 1.948,8.657 3.862,3.874 12.352,3.682 18.232,2.234 l -0.07,0.256 0.209,0.163 c -0.433,0.483 -1.176,0.447 -1.81,0.559 -1.901,0.336 -4.151,0.744 -6.262,0.837 -4.757,0.21 -7.674,-0.775 -10.299,-3.072 -2.602,-2.278 -5.309,-6.888 -2.226,-9.914 v 0.28 z m 12.387,-6.843 c -0.771,0.007 -1.008,-0.873 -0.697,-1.535 0.328,-0.046 0.523,-0.221 0.974,-0.14 0.6,0.255 0.5,1.398 0,1.675 l -0.139,-0.07 z m 72.786,-13.964 c -1.721,1.086 -3.107,2.258 -4.593,3.352 -0.617,0.454 -1.254,0.689 -1.531,1.256 -0.342,0.701 -0.199,1.641 -0.556,2.374 -0.831,1.706 -3.003,2.176 -4.454,3.212 -1.085,-0.82 -1.347,-2.465 -2.506,-3.212 -3.109,0.71 -6.764,1.831 -9.741,2.654 -2.1,0.579 -3.517,0.865 -4.871,1.815 -0.444,0.312 -1.296,0.598 -0.974,1.256 0.567,0.665 1.794,0.552 2.783,0.699 1.074,0.158 2.201,0.281 3.062,0.558 1.17,-0.569 2.287,-0.388 3.34,-0.698 2.614,-0.768 3.853,-3.776 7.099,-3.351 0.998,0.73 0.637,2.484 0,3.351 -1.157,0.978 -3.47,-0.049 -3.899,1.675 0.81,-0.159 0.276,-0.067 0.558,0.419 l -0.209,0.163 0.07,0.257 c -0.458,-0.044 -1.141,-0.323 -1.531,0 l -0.07,-0.21 -0.208,0.07 c -0.649,-0.618 -2.273,-0.269 -3.48,-0.419 -0.73,-0.091 -1.24,-0.456 -1.81,-0.419 -1.138,0.075 -2.041,1.198 -3.061,0.978 l 0.069,-0.257 -0.208,-0.163 c 2.095,-1.426 -1.535,-1.592 -2.783,-1.815 -0.557,0.447 -0.232,1.212 -0.417,1.815 -0.243,0.784 -0.887,1.182 -0.976,1.816 -0.168,1.215 0.717,1.989 0.835,3.351 l -0.248,-0.05 -0.169,0.19 c -0.733,-0.428 -1.172,-1.15 -1.669,-1.815 -1.249,-0.253 -2.105,0.048 -2.923,0.558 -1.21,-0.089 -0.982,-1.621 -2.366,-1.536 0.771,-0.559 -0.389,-1.398 -0.417,-2.374 -0.028,-0.96 0.85,-1.747 0.417,-2.652 -0.44,-0.023 -0.84,-0.007 -0.974,0.279 -1.07,-0.759 -2.816,-0.484 -4.454,-0.559 -1.453,-0.067 -2.925,-0.331 -4.175,0 -0.519,0.456 -0.523,1.431 -1.53,1.396 v -0.139 h -0.14 c 0.206,-0.353 0.492,-0.624 0.557,-1.118 -1.713,-0.548 -4.876,-0.277 -6.82,-0.139 -0.538,0.019 -0.549,0.567 -0.974,0.698 -1.575,-0.721 -2.54,0.279 -4.036,1.117 -0.888,0.497 -2.311,1.043 -2.784,1.676 -0.718,0.963 -0.819,2.795 -0.139,3.909 0.085,0.009 0.166,0.021 0.139,0.14 h -0.139 v 0.14 c -0.408,0.394 -0.206,0.145 -0.695,0.559 -1.534,-0.826 -4.085,0.459 -5.15,-0.419 0.441,-2.456 0.791,-4.48 2.645,-5.306 1.543,-0.689 4.257,-0.033 4.453,-2.096 -0.944,0.166 -1.716,-0.163 -2.645,0.141 -0.536,0.175 -0.74,0.75 -1.251,0.837 -0.697,0.12 -1.298,-0.308 -1.949,-0.279 -0.819,0.036 -1.595,0.64 -2.505,0.698 -0.675,0.044 -1.169,-0.254 -1.669,0 l 0.068,-0.256 -0.208,-0.163 c 0.487,-0.231 0.865,-0.997 1.531,-1.116 0.636,-0.115 1.529,0.429 2.366,0.279 0.574,-0.104 1.11,-0.763 1.669,-0.838 0.587,-0.08 1.217,0.25 1.81,0.279 1.037,0.051 2.46,-0.412 3.896,-0.559 0.989,-0.1 2.121,0.18 2.784,0 0.697,-0.189 0.95,-0.829 1.392,-1.116 1.602,0.071 3.355,-0.664 4.175,-1.816 0.167,-0.587 -0.226,-0.612 -0.278,-0.978 0.739,-1.215 0.298,-3.068 1.112,-4.188 0.599,-0.824 2.026,-1.307 3.062,-0.978 1.264,0.401 1.77,3.115 3.062,3.211 0.516,0.038 1.247,-0.565 1.67,-0.698 1.456,-0.454 2.756,-0.533 3.897,-1.116 0.883,-0.453 1.485,-1.303 2.227,-1.537 0.767,-0.241 1.694,-0.051 2.644,-0.279 1.199,-0.287 2.473,-1.059 3.758,-1.535 2.715,-1.01 5.349,-1.729 8.072,-2.654 1.48,-0.504 2.948,-1.326 4.035,-1.397 0.668,-0.042 1.335,-0.199 1.948,0.698 -0.599,2.915 -6.683,1.102 -7.375,3.631 -0.331,1.206 0.703,2.585 0.139,3.77 -0.513,1.08 -2.036,1.074 -3.34,1.257 -0.983,-0.934 -0.778,-3.741 -2.506,-4.049 -0.483,-0.087 -1.55,0.325 -2.365,0.558 -0.76,0.219 -1.896,0.466 -2.366,0.698 -0.816,0.403 -1.258,1.337 -2.087,1.536 -0.601,0.144 -1.312,-0.095 -1.948,0 -1.001,0.15 -2.526,0.91 -3.62,1.397 -2.526,1.123 -4.167,1.45 -5.01,3.491 -1.966,-0.517 -4.69,0.086 -5.427,1.676 2.425,0.604 4.728,-0.257 7.097,-0.14 0.303,0.015 0.699,0.247 0.974,0.279 0.684,0.077 1.46,-0.036 2.228,0 2.104,0.096 4.479,0.618 5.983,0.419 1.271,-0.169 2.428,-1.517 3.619,-1.675 0.729,-0.098 1.515,0.226 2.227,0.139 0.64,-0.079 1.205,-0.585 1.81,-0.698 0.543,-0.102 1.133,0.078 1.67,0 1.024,-0.149 2.103,-0.775 3.2,-1.118 3.525,-1.099 6.893,-1.72 10.437,-2.513 1.033,-1.568 2.092,-2.603 3.898,-3.072 0.91,-0.236 1.924,-0.13 3.062,-0.419 1.057,-0.269 2.274,-1.046 3.34,-1.536 1.186,-0.545 2.213,-1.274 3.201,-1.675 l -0.05,0.249 z m 42.309,-9.076 c -0.994,0.534 -0.01,1.41 0.137,2.514 0.46,3.419 -1.571,4.966 -2.783,6.562 l -0.277,-0.139 -0.28,-0.139 c 0.486,-0.8 2.068,-2.199 2.367,-4.19 0.373,-2.482 -0.487,-5.519 -2.922,-5.166 l 0.069,-0.256 -0.21,-0.163 c 0.213,-0.196 0.602,-0.517 0.279,-0.839 l 0.189,-0.169 -0.049,-0.249 c 1.236,0.574 1.911,1.712 3.617,1.816 l -0.208,0.161 z m 5.844,10.613 c 0.4,-1.093 1.416,-2.013 1.531,-3.631 0.15,-2.138 -1.293,-4.902 -3.063,-4.748 -1.307,0.114 -2.023,2.491 -2.365,4.189 -0.644,3.21 -0.992,5.635 -2.504,7.401 l -0.098,-0.237 -0.181,-0.181 c 0.467,-1.217 1.168,-2.621 1.53,-4.33 0.363,-1.704 0.333,-3.544 0.836,-5.027 0.407,-1.203 1.583,-2.079 1.392,-3.211 l 0.188,-0.17 -0.049,-0.249 c 2.443,0.444 5.482,-4.093 8.35,-1.257 -0.011,2.736 -3.435,2.047 -4.315,3.91 2.093,2.132 0.962,6.297 -0.973,7.82 l -0.071,-0.21 z m -10.716,7.959 c 0.234,-0.557 0.665,-0.916 1.114,-1.257 l 0.162,0.21 0.255,-0.07 c -0.008,0.241 0.107,0.357 0.278,0.418 l -0.07,0.141 -0.07,0.139 c -0.342,0.308 -0.712,0.589 -1.252,0.698 l -0.18,-0.181 z m -4.592,2.793 c 0.477,-0.358 1.035,-0.637 1.67,-0.838 l 0.181,0.181 0.236,0.098 c -0.429,0.548 -0.981,0.97 -1.67,1.256 l 0.07,-0.209 -0.21,-0.07 c 0.03,-0.175 0.218,-0.285 -0.139,-0.278 v -0.14 z m 3.34,10.752 C 48.962,3.542 49.272,3.62 49.492,3.608 50.699,1.592 53.058,0.439 54.643,2.631 55.123,4.903 53.254,5.613 51.72,5.284 50.555,5.035 50.008,3.574 48.937,4.167 l 0.07,-0.209 z M 32.514,6.541 c 0.59,-0.4 1.587,-0.013 1.392,0.838 C 33.296,7.698 32.75,7.282 32.375,6.96 l 0.069,-0.21 z m -3.896,0 c 1.01,-0.289 2.128,-0.471 3.34,-0.558 l -0.07,0.209 0.209,0.07 v 0.14 L 31.749,6.471 31.818,6.82 C 30.644,6.712 29.871,7.008 28.757,6.96 l 0.069,-0.256 z m -12.525,6.702 c 0.264,-0.384 0.59,-0.71 0.972,-0.977 l 0.098,0.237 0.182,0.182 c -0.124,0.51 0.246,0.744 0,0.978 -0.307,0.308 -0.569,-0.139 -1.115,0 L 16.3,13.406 Z M 26.6,0.048 l 0.069,-0.07 c 0.34,-0.755 0.072,-1.744 -0.418,-2.094 -0.479,-0.061 -0.779,0.054 -1.113,0.139 -0.368,0.608 -0.466,1.487 -0.834,2.095 0.014,0.171 0.041,0.331 0.277,0.279 -0.386,0.264 -0.703,0.598 -0.695,1.257 0.829,1.609 3.785,0 2.643,-1.536 z M 25.138,5.563 C 23.576,3.232 20.637,6.257 19.571,7.1 c -0.1,0.381 0.277,0.281 0.279,0.558 2.469,0.562 4.03,-0.977 5.288,-2.095 M 10.107,20.785 c 1.622,-1.216 4.004,-2.992 3.48,-5.447 H 13.03 v -0.14 h -0.139 c 0.51,-0.336 0.863,-0.648 0.835,-1.256 -0.115,-2.51 -6.111,-0.868 -7.237,0 l 0.07,-0.21 -0.07,-0.209 v -0.28 H 5.933 L 6.002,12.988 5.793,12.825 C 6.01,12.461 7.224,12.503 6.907,12.406 7.597,11.749 8.996,11.803 8.854,10.312 8.678,10.303 8.662,10.132 8.438,10.172 l 0.07,-0.14 -0.07,-0.14 C 8.437,9.752 8.55,9.727 8.576,9.614 8.6,9.263 8.363,9.176 8.159,9.055 L 8.229,8.846 8.021,8.775 C 7.54,7.396 5.76,7.321 4.541,6.681 4.246,5.998 3.545,5.726 3.288,5.004 4.133,3.473 6.699,3.619 8.021,4.447 c 1.054,0.66 1.511,2.644 2.643,1.815 0.055,-0.199 0.168,-0.235 0,-0.419 L 10.9,5.746 11.082,5.563 c 1.154,0.738 4.194,2.07 5.428,0.559 C 16.434,5.501 15.857,5.38 15.117,5.424 V 5.284 H 14.979 C 15.476,4.819 14.245,4.73 14.005,5.004 v 0.141 l -0.209,-0.07 0.069,0.209 C 13.197,4.885 12.448,4.564 12.194,3.749 11.212,3.552 9.958,2.947 8.854,3.329 V 3.888 L 8.675,4.07 8.576,4.307 C 7.834,4.22 7.145,3.121 6.211,2.911 4.875,2.61 3.747,3.097 2.732,3.608 L 2.592,3.539 2.453,3.608 C 2.453,3.469 2.34,3.443 2.313,3.329 0.59,3.943 -2.435,3.993 -3.531,5.145 c -0.761,0.799 -0.662,2.238 -1.392,2.653 -0.868,0.494 -2.223,0.06 -3.34,0.139 -2.117,0.151 -5.117,2.511 -7.237,1.118 -0.666,-0.893 0.023,-2.862 -0.139,-3.631 v -0.14 h -0.139 c 0.898,-0.588 1.965,-1.008 3.201,-1.256 l -0.069,0.07 0.069,0.069 v 0.28 c 2.076,1.011 4.279,-0.448 6.401,-0.559 0.736,-0.038 1.512,0.227 2.227,0.14 C -2.837,3.891 -1.596,3.202 -0.47,2.911 0.733,2.6 2.479,2.774 2.871,1.515 2.265,1.377 1.547,1.353 1.063,1.096 L 1.27,0.932 1.201,0.676 c 2.132,0.009 3.045,1.058 4.592,0.978 0.188,0.136 0.181,0.471 0.418,0.559 0.8,0.21 1.604,0.076 2.505,0.139 1.375,0.096 2.712,0.481 3.897,0.838 2.122,0.639 3.204,1.798 5.288,1.117 l -0.07,0.21 0.209,0.069 c 0.001,0.14 -0.112,0.166 -0.139,0.279 l -0.209,0.071 0.071,0.209 c -0.2,0.033 -0.237,0.23 -0.418,0.279 0.245,1.007 2.384,0.896 2.365,-0.279 -0.273,-0.278 -0.794,-0.089 -1.113,0 L 18.667,4.936 18.458,4.865 C 18.457,4.725 18.57,4.7 18.597,4.586 L 18.806,4.517 18.735,4.307 C 19.196,4.116 19.756,4.027 19.85,3.47 19.438,2.55 17.363,2.411 16.927,1.933 c -0.024,-0.026 0.019,-0.11 0,-0.139 L 17.136,1.631 17.065,1.375 c 1.627,0.361 4.881,1.967 5.707,-0.559 l 0.209,0.07 -0.07,-0.21 c 0.437,-0.68 0.633,-1.599 1.114,-2.233 0.077,-0.579 -0.99,-0.473 -0.557,-0.979 0.202,-0.413 0.543,0.185 0.974,0 0.441,-0.741 0.852,-1.682 1.67,-1.674 0.892,0.006 0.971,1.005 1.67,1.535 1.02,-0.095 1.765,-0.464 2.227,-1.117 h 0.139 v -0.14 c 1.637,0.389 4.081,-1.559 5.985,-1.257 0.487,0.078 1.69,0.414 1.531,1.677 l -0.209,-0.07 0.069,0.209 c -0.965,0.778 -2.448,0.778 -3.618,1.396 -0.463,0.245 -0.791,0.813 -1.253,0.977 -0.576,0.206 -1.11,0.101 -1.67,0 -0.894,0.36 -1.662,1.589 -1.391,2.654 l -0.07,0.07 -0.07,0.07 c -0.733,0.648 -0.938,1.507 -1.531,2.234 -0.896,1.1 -2.201,1.716 -2.783,2.932 h 0.279 l -0.07,0.256 0.209,0.163 c -0.673,0.302 -1.429,0.521 -2.367,0.558 -0.336,0.267 -0.213,0.996 -0.834,0.978 -1.664,0.007 -2.456,0.887 -3.479,1.536 0.02,1.138 -0.831,1.402 -1.393,1.955 l -0.097,-0.238 -0.181,-0.181 c -0.865,-1.08 -2.653,0.595 -2.226,1.676 h 0.278 l -0.069,0.255 0.208,0.163 c -0.745,0.742 -0.475,2.109 -0.834,3.072 -0.708,1.889 -2.467,3.041 -4.038,3.91 l -0.188,-0.17 z m -16.004,0.837 c 0.015,-0.347 0.26,-0.432 0,-0.698 l 0.209,-0.07 -0.07,-0.209 c 0.215,-0.29 0.405,0.134 0.418,0.14 1.198,0.545 1.62,-0.927 2.504,-0.839 0.63,0.064 1.064,0.776 1.253,1.676 l -0.209,0.07 0.07,0.209 c -1.446,0.481 -2.805,-0.837 -4.036,0.14 l 0.05,-0.249 z m 20.32,15.499 v 0.14 c -0.905,-0.437 -2.047,-0.115 -3.48,0 -8.072,0.647 -20.97,1.298 -21.85,-6.423 -0.478,-4.188 1.782,-6.598 3.757,-8.238 l 0.181,0.181 0.238,0.097 c -0.204,0.265 -0.668,0.687 -0.279,1.117 -0.501,-0.023 -0.873,0.169 -1.253,0.559 -1.008,1.032 -1.902,4.113 -1.67,5.865 0.536,4.052 5.335,6.089 10.715,6.424 4.188,0.261 8.833,-0.16 12.388,-0.559 0.47,0.007 0.603,-0.326 0.835,-0.559 0.61,0.774 1.476,-0.235 2.225,0.14 0.781,-0.208 1.299,-1.556 2.505,-1.955 1.52,-0.502 3.307,0.027 3.62,1.256 0.337,1.327 -0.592,2.285 -1.253,2.514 0.304,-0.106 -0.469,-0.131 -0.417,-0.14 -0.796,0.132 -1.768,0.163 -2.367,0 -0.696,-0.188 -1.229,-0.772 -1.808,-0.837 -0.77,-0.087 -1.383,0.24 -1.948,0.418 z m 16.7,-3.35 c -0.97,-0.6 -1.976,-1.209 -3.062,-1.815 -0.995,-0.556 -2.317,-1.45 -3.34,-1.677 -1.311,-0.29 -3.143,0.313 -4.733,-0.139 -2.333,-0.664 -4.127,-4.135 -0.695,-4.748 3.495,-0.624 5.004,2.531 6.124,4.05 1.038,0.494 1.971,1.095 2.922,1.675 0.446,0.338 0.49,0.17 0.974,0 -0.17,1.24 1.749,1.344 2.227,2.374 l -0.236,0.097 z m 2.366,2.094 c -0.275,-0.191 -0.796,-0.134 -1.114,-0.28 l -0.162,-0.208 -0.255,0.069 c -0.018,-0.403 0.076,-0.914 -0.14,-1.117 l 0.237,-0.099 0.181,-0.181 c 0.333,0.085 0.634,0.201 1.113,0.139 l 0.163,0.211 0.255,-0.07 v 1.117 l -0.181,0.182 z m -0.731,7.68 -0.244,-0.14 c 1.981,-0.223 3.557,-1.522 3.479,-3.49 -0.043,-1.11 -0.823,-1.711 -1.253,-2.654 l 0.182,-0.181 0.098,-0.237 c 1.095,1.18 2.126,2.428 1.948,4.886 -0.693,1.401 -2.252,1.931 -4.176,2.094 z m -115.547,-3.142 0.208,-0.07 c 0.079,1.178 0.653,1.859 0.835,2.932 -1.916,0.375 -2.383,2.098 -4.592,1.257 -1.063,-0.405 -1.575,-1.8 -1.531,-2.652 0.12,-2.305 3.026,-3.075 5.15,-1.676 z m 19.275,5.515 c 0.171,0.464 -0.488,0.796 -0.557,0.56 0.284,-0.087 0.04,-0.707 0.557,-0.56 m -1.531,1.816 c -0.068,0.102 -0.596,0.682 -0.417,0.419 0.234,-0.342 0.513,-0.56 0.417,-0.419 m -5.636,6.633 0.208,-0.071 c 0.311,1.346 0.87,2.359 0.279,3.352 -0.328,0.55 -1.618,1.192 -2.227,1.117 -2.78,-0.339 -2.221,-5.289 1.53,-4.469 0.032,-0.108 0.118,-0.161 0.28,-0.139 z m 45.996,-99.911 c 2.405,-0.604 4.208,2.093 2.783,3.911 -0.392,0.5 -1.38,0.923 -2.505,0.697 -2.487,-0.497 -2.195,-4.125 -0.278,-4.608 m 0.417,16.618 c 0.162,-0.117 0.373,-0.184 0.696,-0.139 0.687,0.914 -0.903,1.382 -0.696,0.139 m -3.339,0.418 c 0.198,-0.033 0.233,-0.23 0.417,-0.278 0.034,0.199 0.229,0.234 0.278,0.418 -0.199,0.034 -0.235,0.23 -0.418,0.28 -0.032,-0.2 -0.229,-0.236 -0.277,-0.42 m 1.669,3.491 c 0.108,-0.031 0.275,-0.004 0.279,-0.139 0.446,0.018 0.612,0.317 0.557,0.837 -0.163,0.118 -0.374,0.184 -0.697,0.14 -0.159,-0.165 -0.157,-0.494 -0.139,-0.838 m -5.706,0.28 c 0.355,0.017 0.54,0.203 0.557,0.558 -0.383,0.435 -0.99,-0.174 -0.557,-0.558 m 11.69,4.328 c 0.476,0.036 0.724,0.299 0.697,0.839 -0.551,0.678 -1.403,-0.305 -0.697,-0.839 m 16.005,3.072 v -0.279 c 0.343,-0.217 0.41,0.474 0.14,0.419 -0.008,-0.085 -0.022,-0.165 -0.14,-0.14 m -1.948,0.419 h 0.278 v 0.28 h -0.278 z m 0,0.698 c 0.374,-0.299 0.74,-0.299 1.114,0 0.359,1.273 -1.474,1.273 -1.114,0 m 20.876,1.536 c -0.011,0.455 -0.179,0.752 -0.556,0.838 -0.178,-0.218 0.006,-0.922 0.556,-0.838 m -41.335,0.838 h 0.28 v 0.279 h -0.28 z m -17.813,-0.698 c 0.519,-0.056 0.817,0.112 0.835,0.558 -0.118,0.301 -0.342,0.495 -0.835,0.42 -0.199,-0.186 -0.199,-0.791 0,-0.978 m 111.059,2.095 c -0.186,-0.829 0.996,-0.673 0.696,0.139 -0.323,0.045 -0.535,-0.022 -0.696,-0.139 m -92.689,-0.419 c 0.323,-0.045 0.534,0.022 0.697,0.139 0.145,0.87 -0.867,0.542 -0.697,-0.139 m 4.732,1.257 c -0.371,0.822 -1.498,0.122 -0.974,-0.699 0.673,-0.117 0.937,0.177 0.974,0.699 m 52.05,-0.14 c 0.264,0.032 0.307,-0.158 0.557,-0.14 0.19,0.178 0.19,0.66 0,0.838 h -0.417 c -0.117,-0.162 -0.184,-0.375 -0.14,-0.698 m -1.253,0.838 c -0.005,-0.193 0.067,-0.307 0.14,-0.419 0.366,-0.042 0.456,0.193 0.417,0.559 -0.242,0.009 -0.433,-0.031 -0.557,-0.14 m -70.837,-0.14 h 0.277 c 0,0.141 0.114,0.166 0.141,0.28 -0.179,0.006 -0.193,0.179 -0.418,0.139 z m 8.907,0.28 c -0.012,0.381 0.231,0.28 0,0.558 -0.536,0.11 -0.536,-0.669 0,-0.558 m -11.969,0.139 c 0.156,-0.029 0.217,-0.154 0.278,-0.279 0.568,-0.058 0.878,0.142 0.836,0.698 -0.244,0.637 -1.244,0.431 -1.114,-0.419 m 66.941,0.978 h 0.278 v 0.279 h -0.278 z m -44.813,-0.698 h 0.696 c 0.16,0.165 0.157,0.493 0.14,0.837 -0.581,0.456 -1.271,-0.237 -0.836,-0.837 m -8.768,0.418 c 0.117,0.162 0.184,0.374 0.139,0.698 h -0.695 c 0.078,-0.34 0.119,-0.718 0.556,-0.698 m -15.448,1.118 c -0.235,0.884 -1.984,0.871 -1.669,-0.699 0.764,-0.87 1.903,-0.182 1.669,0.699 m -9.186,0.838 h 0.697 c 0.239,0.225 0.346,0.584 0.278,1.117 -0.873,0.614 -1.669,-0.517 -0.975,-1.117 m 77.519,0.837 c 0.322,-0.045 0.535,0.022 0.696,0.14 v 0.418 c -0.42,0.349 -1.03,-0.093 -0.696,-0.558 m -5.288,0.978 c 0.239,-0.009 0.358,0.107 0.417,0.279 -0.219,-0.014 -0.481,0.018 -0.417,-0.279 m -71.256,1.116 c 0.277,-0.29 0.594,-0.004 0.696,0.28 -0.277,0.29 -0.595,0.004 -0.696,-0.28 M 2.592,-4.21 C 3.017,-4.413 3.304,-4.235 3.288,-3.652 3.101,-3.607 3.021,-3.453 2.732,-3.512 2.614,-3.675 2.548,-3.887 2.592,-4.21 m -29.922,0.418 c 0.476,-0.104 0.544,0.534 0.14,0.559 -0.044,-0.189 -0.199,-0.267 -0.14,-0.559 m -18.788,0.559 c -0.449,-0.971 0.87,-1.68 1.671,-1.397 0.404,0.925 -0.845,1.706 -1.671,1.397 m 21.155,1.954 c -0.891,0.161 -0.306,-0.426 0,0 m 10.298,-0.418 c 0.121,-0.204 0.208,-0.443 0.557,-0.419 0.204,0.121 0.441,0.209 0.417,0.559 -0.121,0.203 -0.207,0.442 -0.556,0.418 -0.204,-0.121 -0.441,-0.209 -0.418,-0.558 M -27.816,-0.859 -27.886,-1 c 0.233,-1.153 1.744,-0.837 2.227,-0.139 -0.408,0.057 -0.451,0.478 -0.697,0.699 -0.698,0.096 -1.123,-0.084 -1.53,-0.28 z m 29.712,0.558 c -0.89,0.162 -0.305,-0.427 0,0 m -34.235,0 c -0.892,0.162 -0.306,-0.427 0,0 M 14.84,-0.72 v 0.559 c -0.536,0.11 -0.536,-0.669 0,-0.559 m -77.797,0.698 c 0.108,-0.031 0.162,-0.116 0.139,-0.279 0.623,-0.113 0.773,0.248 0.835,0.698 -0.497,0.323 -0.821,0.232 -0.974,-0.419 m 68.89,1.397 c 0.906,-0.456 0.564,0.399 0,0 m -19.902,0 c 0.906,-0.456 0.565,0.399 0,0 m -38.133,1.117 c 0.347,0.211 0.637,0.478 0.696,0.978 -0.698,1.562 -2.509,-0.769 -0.696,-0.978 m -7.236,1.536 c 0.325,-1.162 2.683,-0.99 2.226,0.976 -0.878,1.184 -2.558,0.203 -2.226,-0.976 m 12.107,1.815 c -0.276,0.002 -0.177,0.381 -0.557,0.279 -0.103,-0.309 0.513,-0.576 0.557,-0.279 m -2.505,0.279 h 0.557 V 6.681 C -49.615,6.746 -49.8,6.559 -49.736,6.122 m 8.489,0 c 0.414,-0.529 1.552,-0.309 1.253,0.698 -0.412,0.53 -1.552,0.309 -1.253,-0.698 m -25.468,0.28 c 1.783,-0.606 0.184,2.041 0,0 m 4.732,0.977 c 0.317,-0.038 0.523,0.033 0.557,0.279 -0.199,0.034 -0.236,0.23 -0.418,0.279 -0.043,-0.188 -0.198,-0.266 -0.139,-0.558 M 5.515,7.798 H 5.933 V 8.217 H 5.515 Z M -52.102,7.379 c 0.204,-0.308 0.369,-0.654 0.975,-0.559 1.311,0.808 -0.875,2.22 -0.975,0.559 m 10.438,0.698 c 0.519,-0.056 0.817,0.112 0.834,0.559 -0.117,0.301 -0.341,0.494 -0.834,0.419 -0.198,-0.186 -0.198,-0.791 0,-0.978 m -22.685,0 c 1.046,0.031 1.271,2.272 -0.139,1.955 -1.391,-0.312 -0.782,-1.983 0.139,-1.955 m -2.645,2.653 c 0.14,0 0.166,-0.112 0.279,-0.14 0,0.14 0.112,0.167 0.139,0.28 -0.139,0 -0.166,0.113 -0.278,0.14 0,-0.14 -0.113,-0.167 -0.14,-0.28 m 89.627,-0.418 c 0.51,-0.264 1.113,-0.078 1.114,0.558 -0.106,0.359 -0.445,0.484 -0.975,0.419 -0.191,-0.18 -0.137,-0.607 -0.139,-0.977 M -58.92,8.357 c 1.425,0.425 1.24,3.294 -0.837,2.792 -2.13,-0.514 -0.928,-3.319 0.837,-2.792 m 20.179,1.955 c 0.107,-0.031 0.275,-0.004 0.277,-0.14 1.039,0.123 1.598,0.725 1.531,1.955 -0.928,1.126 -2.507,-0.46 -1.808,-1.815 m 6.958,2.094 c 0.496,-0.032 0.728,0.201 0.696,0.699 -0.199,0.032 -0.234,0.229 -0.417,0.279 -0.308,-0.128 -0.624,-0.614 -0.279,-0.978 m 23.52,1.536 h 0.557 c 0.039,0.365 -0.051,0.601 -0.418,0.559 -0.044,-0.189 -0.198,-0.267 -0.139,-0.559 m -28.252,0.977 c 0.039,0.319 -0.033,0.525 -0.278,0.559 -0.219,-0.207 -0.155,-0.624 0.278,-0.559 m 29.226,0.279 c 0.343,-0.447 0.859,0.326 0.279,0.42 -0.034,-0.2 -0.229,-0.236 -0.279,-0.42 m 3.758,-0.139 c 0.189,0.178 0.215,0.685 -0.139,0.698 -0.332,-0.094 -0.431,-0.775 0.139,-0.698 m -10.438,2.513 c -0.006,-0.192 0.066,-0.306 0.139,-0.419 0.349,-0.023 0.435,0.215 0.557,0.419 -0.183,0.179 -0.512,0.179 -0.696,0 m -19.624,0 c 0.185,-0.181 0.519,-0.184 0.557,0.14 -0.185,0.182 -0.517,0.184 -0.557,-0.14 m 14.892,1.677 h 0.556 c 0.022,0.346 -0.071,0.579 -0.277,0.697 0.104,-0.429 -0.48,-0.17 -0.279,-0.697 m -1.809,1.396 c 0.515,-0.098 0.615,0.22 0.556,0.698 -0.665,0.1 -0.73,-0.301 -0.556,-0.698 m 12.109,0.838 h 0.417 v 0.418 h -0.417 z m -36.743,0.418 c 0.591,-0.128 0.701,0.228 0.836,0.559 -0.265,0.06 -0.252,0.399 -0.696,0.28 -0.16,-0.165 -0.159,-0.495 -0.14,-0.839 m 24.077,0.839 c 0.424,-0.203 0.712,-0.025 0.696,0.559 -0.295,0.277 -0.861,0.043 -0.696,-0.559 m -17.397,-2.236 c 0.527,0.199 0.992,1.684 0.975,2.514 -0.013,0.618 -0.195,1.297 -0.695,1.536 -1.565,-0.649 -1.052,-2.874 -0.28,-4.05 m 115.513,4.329 c 2.675,-0.136 3.084,4.618 -0.417,3.771 -2.309,-0.56 -1.619,-3.667 0.417,-3.771 M -37.21,24.694 c -0.415,-2.873 1.209,-5.456 3.34,-5.445 2.409,0.011 4.804,3.512 2.923,6.562 -1.269,0.253 -2.034,0.897 -3.202,0.698 -1.101,-0.187 -1.821,-1.161 -2.922,-1.396 l 0.069,-0.256 z m -1.601,0.675 0.208,0.163 c -0.193,0.271 -0.72,0.208 -0.974,0.418 -0.197,0.826 -0.663,1.383 -0.835,2.235 -0.869,0.292 -1.652,0.669 -2.505,0.977 -1.198,0.096 -3.337,-0.659 -3.758,-1.955 -0.494,-1.531 0.436,-3.728 2.089,-4.049 2.973,-0.577 3.165,1.942 5.845,1.955 z m -14.404,3.514 c 0.389,-0.341 0.785,-0.221 1.113,0.14 -0.334,0.13 -0.369,0.561 -0.974,0.419 0.031,-0.265 -0.157,-0.309 -0.139,-0.559 m 6.958,0.279 c -0.263,1.225 -2.674,0.177 -1.252,-0.977 1.055,-0.155 1.367,0.444 1.252,0.977 m -13.5,1.676 c 0.075,-0.589 1.336,-0.584 1.254,0.14 -0.076,0.864 -1.305,0.826 -1.254,-0.14 m 82.529,1.118 h 0.279 c -10e-4,0.14 0.112,0.165 0.138,0.278 -0.177,0.008 -0.192,0.18 -0.417,0.141 z m 0.556,0.139 h 0.419 v 0.419 h -0.419 z m -70.977,-0.419 c 0.157,-0.03 0.217,-0.155 0.279,-0.279 0.567,-0.058 0.878,0.143 0.835,0.698 -0.243,0.637 -1.244,0.431 -1.114,-0.419 m -3.2,0.558 c 0.406,-0.205 0.406,0.625 0,0.419 z m 75.291,1.537 c 0.14,0 0.166,-0.113 0.279,-0.141 -0.001,0.141 0.112,0.167 0.138,0.28 -0.139,-10e-4 -0.165,0.113 -0.278,0.139 0.001,-0.14 -0.112,-0.165 -0.139,-0.278 m -78.771,0.977 v -0.28 c 0.085,-0.008 0.164,-0.021 0.14,-0.139 h 0.277 c 0.008,0.085 0.021,0.165 0.14,0.139 v 0.28 c -0.085,0.007 -0.164,0.021 -0.14,0.14 h -0.277 c -0.008,-0.085 -0.021,-0.166 -0.14,-0.14 m 69.864,0.279 v 0.419 h -0.418 c -0.024,-0.304 0.114,-0.445 0.418,-0.419 m -85.311,-0.698 c 0.366,0.578 -0.199,1.239 -0.418,1.675 -1.612,0.162 -0.555,-1.914 0.418,-1.675 m 38.689,1.536 h 0.278 c 0.156,0.201 0.15,0.342 -0.138,0.419 -0.008,-0.178 -0.18,-0.193 -0.14,-0.419 m 6.124,0 c 0.116,0.161 0.184,0.374 0.138,0.698 h -0.556 c -0.172,-0.404 -0.071,-0.637 0.418,-0.698 m 31.591,2.513 c 0.207,-0.22 0.622,-0.155 0.557,0.28 -0.317,0.038 -0.523,-0.034 -0.557,-0.28 m -64.714,1.676 c 0.008,0.24 -0.107,0.358 -0.278,0.419 -0.199,-0.203 -0.205,-0.54 0.278,-0.419 m -2.645,2.932 c 0.007,0.241 -0.107,0.358 -0.277,0.419 -0.2,-0.204 -0.205,-0.54 0.277,-0.419 m -18.648,0.279 h 0.417 v 0.28 h -0.417 z m 0.696,2.095 c 0.38,-0.273 0.594,-0.273 0.973,0 0.057,0.522 -0.11,0.82 -0.556,0.838 -0.192,-0.226 -0.493,-0.344 -0.417,-0.838 M 71.344,69.657 c 0.159,0.452 0.156,-0.375 0.137,-0.558 -0.159,-0.453 -0.157,0.375 -0.137,0.558"
             style="fill:#262626;fill-opacity:1;fill-rule:evenodd;stroke:none"
             id="path106"
             inkscape:connector-curvature="0" />
        </g>
      </g>
    </g>
  </g>
</svg>
