<?xml version="1.0" encoding="UTF-8" standalone="no"?>
<!-- Created with Inkscape (http://www.inkscape.org/) -->

<svg
   xmlns:dc="http://purl.org/dc/elements/1.1/"
   xmlns:cc="http://creativecommons.org/ns#"
   xmlns:rdf="http://www.w3.org/1999/02/22-rdf-syntax-ns#"
   xmlns:svg="http://www.w3.org/2000/svg"
   xmlns="http://www.w3.org/2000/svg"
   xmlns:sodipodi="http://sodipodi.sourceforge.net/DTD/sodipodi-0.dtd"
   xmlns:inkscape="http://www.inkscape.org/namespaces/inkscape"
   width="38.194775mm"
   height="64.793663mm"
   viewBox="0 0 38.194775 64.793663"
   version="1.1"
   id="svg4196"
   inkscape:version="0.92.2 2405546, 2018-03-11"
   sodipodi:docname="paint06.svg">
  <defs
     id="defs4190">
    <clipPath
       clipPathUnits="userSpaceOnUse"
       id="clipPath78">
      <path
         d="M 0,600 H 600 V 0 H 0 Z"
         id="path76"
         inkscape:connector-curvature="0" />
    </clipPath>
  </defs>
  <sodipodi:namedview
     id="base"
     pagecolor="#ffffff"
     bordercolor="#666666"
     borderopacity="1.0"
     inkscape:pageopacity="0.0"
     inkscape:pageshadow="2"
     inkscape:zoom="0.35"
     inkscape:cx="8.5714292"
     inkscape:cy="560"
     inkscape:document-units="mm"
     inkscape:current-layer="layer1"
     showgrid="false"
     fit-margin-top="0"
     fit-margin-left="0"
     fit-margin-right="0"
     fit-margin-bottom="0"
     inkscape:window-width="3840"
     inkscape:window-height="2095"
     inkscape:window-x="0"
     inkscape:window-y="0"
     inkscape:window-maximized="1" />
  <metadata
     id="metadata4193">
    <rdf:RDF>
      <cc:Work
         rdf:about="">
        <dc:format>image/svg+xml</dc:format>
        <dc:type
           rdf:resource="http://purl.org/dc/dcmitype/StillImage" />
        <dc:title></dc:title>
      </cc:Work>
    </rdf:RDF>
  </metadata>
  <g
     inkscape:label="Layer 1"
     inkscape:groupmode="layer"
     id="layer1"
     transform="translate(1.7264009e-7,-232.20634)">
    <g
       transform="matrix(0.35277777,0,0,-0.35277777,-62.009029,363.26711)"
       id="g72">
      <g
         id="g74"
         clip-path="url(#clipPath78)">
        <g
           id="g80"
           transform="translate(241.5645,316.458)">
          <path
             d="m 0,0 -0.331,-1.002 -0.231,-0.682 c -0.029,-0.087 0.018,-0.182 0.106,-0.21 0.088,-0.029 0.183,0.019 0.212,0.106 l 0.23,0.677 0.334,1.014 C 0.349,-0.01 0.3,0.081 0.212,0.11 0.125,0.139 0.029,0.087 0,0 m -32.804,7.976 c -0.12,-0.058 -0.321,-0.157 -0.374,-0.398 -0.02,-0.094 0.038,-0.185 0.132,-0.205 0.092,-0.02 0.184,0.038 0.204,0.131 0.015,0.068 0.068,0.104 0.189,0.163 0.086,0.041 0.12,0.145 0.079,0.23 -0.042,0.086 -0.145,0.121 -0.23,0.079 m 11.97,-89.625 c -0.654,-0.633 -0.871,-1.458 -1.08,-2.254 l -0.387,-1.206 c -0.047,-0.146 0.022,-0.332 0.17,-0.378 0.145,-0.047 0.289,0.003 0.338,0.15 l 0.417,1.292 c 0.199,0.757 0.387,1.472 0.929,1.996 0.109,0.107 0.113,0.283 0.006,0.393 -0.108,0.11 -0.284,0.113 -0.393,0.007 m -4.045,12.796 -0.124,-0.718 c -0.078,-0.512 -0.149,-0.995 -0.405,-1.443 -0.084,-0.148 -0.033,-0.338 0.115,-0.423 0.148,-0.084 0.338,-0.032 0.422,0.116 0.314,0.548 0.398,1.113 0.479,1.659 l 0.118,0.678 c 0.029,0.168 -0.081,0.342 -0.249,0.372 -0.169,0.028 -0.327,-0.073 -0.356,-0.241 m -6.324,5.129 c -0.333,-0.397 -0.355,-0.872 -0.377,-1.331 l -0.086,-0.713 c -0.014,-0.116 0.061,-0.253 0.176,-0.267 0.116,-0.015 0.214,0.034 0.228,0.149 l 0.104,0.812 c 0.019,0.407 0.036,0.792 0.278,1.08 0.075,0.089 0.063,0.223 -0.027,0.297 -0.089,0.074 -0.223,0.062 -0.296,-0.027 m -4.056,2.255 c -0.077,-0.155 -0.015,-0.343 0.14,-0.422 l 0.562,-0.282 c -0.154,0.078 -0.216,0.268 -0.139,0.422 0.077,0.156 0.266,0.219 0.421,0.141 l -0.561,0.28 c -0.155,0.079 -0.346,0.017 -0.423,-0.139 m 23.938,9.826 c -0.226,-0.078 -0.345,-0.325 -0.268,-0.552 0.074,-0.209 0.074,-0.454 0.075,-0.715 l 0.11,-0.964 c 0.028,-0.236 0.222,-0.319 0.459,-0.293 0.237,0.025 0.391,0.325 0.367,0.563 l -0.067,0.696 c -0.001,0.305 -0.002,0.651 -0.123,0.998 -0.078,0.226 -0.326,0.347 -0.553,0.267 m -0.387,-4.523 c -0.364,-0.462 -0.531,-0.99 -0.692,-1.502 -0.189,-0.596 -0.367,-1.159 -0.848,-1.537 -0.138,-0.108 -0.161,-0.309 -0.053,-0.446 0.108,-0.137 0.307,-0.162 0.446,-0.053 0.634,0.498 0.851,1.183 1.061,1.846 0.149,0.477 0.292,0.928 0.585,1.298 0.108,0.138 0.084,0.338 -0.053,0.446 -0.138,0.109 -0.338,0.086 -0.446,-0.052 m 0.578,12.561 c -0.162,-0.025 -0.274,-0.177 -0.249,-0.34 0.223,-1.46 0.223,-3.126 0,-4.693 -0.024,-0.163 0.089,-0.314 0.253,-0.337 0.163,-0.023 0.315,0.09 0.338,0.253 0.235,1.647 0.235,3.329 0,4.867 -0.025,0.163 -0.178,0.275 -0.342,0.25 m -8.936,-1.062 -0.16,-1.031 c -0.045,-0.515 -0.087,-1 -0.367,-1.422 -0.085,-0.129 -0.05,-0.302 0.079,-0.387 0.128,-0.085 0.301,-0.05 0.386,0.079 0.357,0.539 0.408,1.119 0.458,1.681 l 0.14,0.927 c 0.023,0.151 -0.074,0.328 -0.226,0.351 -0.151,0.023 -0.286,-0.046 -0.31,-0.198 m 5.283,-11.338 c -0.147,-0.024 -0.243,-0.175 -0.217,-0.321 l 0.172,-1.015 c 0.09,-0.603 0.181,-1.226 0.4,-1.831 0.049,-0.14 0.203,-0.211 0.344,-0.161 0.138,0.05 0.211,0.204 0.16,0.344 -0.2,0.553 -0.284,1.123 -0.372,1.725 l -0.18,1.052 c -0.025,0.147 -0.161,0.233 -0.307,0.207 m 10.178,21.632 c -0.138,-0.07 -0.194,-0.239 -0.124,-0.378 0.159,-0.316 0.201,-0.672 0.244,-1.05 0.063,-0.552 0.129,-1.121 0.571,-1.612 0.104,-0.115 0.281,-0.125 0.396,-0.021 0.116,0.104 0.125,0.283 0.021,0.398 -0.321,0.357 -0.372,0.794 -0.429,1.3 -0.048,0.409 -0.096,0.832 -0.301,1.238 -0.069,0.139 -0.239,0.194 -0.378,0.125 m 0.125,-3.751 c -0.072,-0.278 0.112,-0.453 0.39,-0.528 0.278,-0.077 0.582,0.197 0.661,0.474 l 0.224,0.792 c -0.078,-0.277 -0.358,-0.415 -0.636,-0.341 -0.279,0.076 -0.437,0.384 -0.366,0.664 z m 0.469,0.162 c -1.236,-0.37 -2.234,-1.103 -3.197,-1.812 -0.831,-0.611 -1.617,-1.189 -2.543,-1.553 -0.102,-0.04 -0.152,-0.154 -0.112,-0.257 0.041,-0.102 0.155,-0.151 0.257,-0.112 0.974,0.384 1.817,1.004 2.632,1.603 0.937,0.689 1.907,1.402 3.076,1.753 0.105,0.031 0.165,0.142 0.133,0.246 -0.031,0.104 -0.141,0.164 -0.246,0.132 m -24.053,-7.791 -0.681,-0.505 -0.285,-0.181 c -0.076,-0.049 -0.089,-0.143 -0.042,-0.22 0.05,-0.075 0.159,-0.091 0.234,-0.043 l 0.26,0.164 0.743,0.555 c 0.072,0.053 0.07,0.14 0.015,0.212 -0.053,0.072 -0.172,0.073 -0.244,0.018 m 1.336,12.813 c -0.067,-0.023 -0.12,-0.006 -0.178,0.005 0.021,0.039 0.046,0.087 0.046,0.087 0,0 -0.083,-0.057 -0.086,-0.059 -0.057,0.023 -0.124,0.031 -0.151,0.102 0,0 0.032,-0.085 0.062,-0.165 -0.323,-0.228 -4.711,-3.317 -4.711,-3.317 l -3.692,-2.583 c -0.085,-0.06 -0.13,-0.154 -0.13,-0.251 0,-0.062 0.018,-0.124 0.056,-0.178 0.098,-0.139 0.293,-0.173 0.432,-0.075 l 3.687,2.579 5.08,3.577 -0.057,0.115 -0.184,0.595 c 0.05,-0.161 -0.016,-0.378 -0.174,-0.432 m -0.832,3.094 v -0.562 c 0,-0.095 0.077,-0.172 0.172,-0.172 0.095,0 0.172,0.077 0.172,0.172 v 0.562 c 0,0.095 -0.077,0.173 -0.172,0.173 -0.095,0 -0.172,-0.078 -0.172,-0.173 m 2.189,-9.077 c -0.737,-0.858 -0.55,-2.061 -0.399,-3.028 l 0.046,-0.307 c 0.026,-0.167 0.183,-0.284 0.35,-0.259 0.167,0.026 0.282,0.18 0.258,0.347 l -0.049,0.314 c -0.138,0.885 -0.295,1.889 0.258,2.534 0.111,0.129 0.096,0.322 -0.033,0.432 -0.127,0.111 -0.322,0.096 -0.431,-0.033 m 36.065,12.619 c -4.4,-3.871 -9.419,-7.581 -14.517,-10.729 -0.106,-0.065 -0.139,-0.203 -0.073,-0.31 0.065,-0.105 0.203,-0.138 0.309,-0.072 5.119,3.16 10.16,6.887 14.578,10.773 0.092,0.083 0.102,0.225 0.02,0.318 -0.082,0.093 -0.224,0.102 -0.317,0.02 m -11.984,9.599 c -0.115,-0.18 -0.063,-0.42 0.117,-0.535 0.913,-0.59 1.928,-1.061 2.909,-1.516 1.476,-0.686 3.003,-1.395 4.203,-2.517 0.156,-0.146 0.401,-0.138 0.547,0.018 0.146,0.156 0.137,0.401 -0.018,0.546 -1.292,1.207 -2.875,1.942 -4.406,2.653 -1.001,0.466 -1.947,0.906 -2.817,1.466 -0.18,0.115 -0.419,0.064 -0.535,-0.115 m 7.312,-4.196 c -0.932,-1.892 -2.617,-3.219 -4.247,-4.504 -1.494,-1.177 -3.039,-2.395 -4.037,-4.056 -0.057,-0.095 -0.027,-0.219 0.07,-0.276 0.095,-0.058 0.219,-0.027 0.275,0.068 0.96,1.598 2.477,2.793 3.942,3.947 1.664,1.312 3.386,2.668 4.359,4.642 0.05,0.101 0.009,0.221 -0.092,0.27 -0.1,0.049 -0.22,0.008 -0.27,-0.091 m 3.984,-4.038 c -1.554,-0.766 -3.195,-1.464 -4.781,-2.139 -2.011,-0.855 -4.09,-1.739 -6.049,-2.785 -0.147,-0.077 -0.201,-0.259 -0.124,-0.405 0.077,-0.146 0.26,-0.201 0.405,-0.124 1.937,1.036 4.003,1.913 6.002,2.762 1.595,0.679 3.242,1.379 4.812,2.153 0.149,0.074 0.21,0.253 0.137,0.402 -0.074,0.148 -0.253,0.21 -0.402,0.136 m -35.115,3.653 c -0.07,-0.139 -0.005,-0.312 0.134,-0.382 l 0.505,-0.255 0.623,-0.309 c 0.139,-0.07 0.296,-0.006 0.365,0.132 0.068,0.139 10e-4,0.313 -0.139,0.383 l -0.586,0.29 -0.535,0.271 c -0.138,0.069 -0.297,0.009 -0.367,-0.13 M -26.138,-0.9 c -0.306,-0.086 -0.481,-0.416 -0.396,-0.722 l 0.47,-1.679 0.756,-2.56 c 0.09,-0.306 0.401,-0.452 0.707,-0.363 0.305,0.091 0.47,0.438 0.38,0.744 l -0.729,2.477 -0.482,1.716 c -0.085,0.307 -0.4,0.473 -0.706,0.387 m -1.278,8.934 c -0.107,-0.013 -0.187,-0.106 -0.187,-0.212 0,-0.009 0.001,-0.018 0.002,-0.028 0.159,-1.21 0.471,-2.433 0.772,-3.615 0.431,-1.685 0.876,-3.426 0.876,-5.146 0,-0.042 -0.001,-0.084 -0.002,-0.125 -0.063,-0.075 -0.191,-0.223 -0.191,-0.223 -0.034,-0.04 -0.051,-0.09 -0.051,-0.14 0,-0.06 0.025,-0.12 0.074,-0.163 0.091,-0.077 0.227,-0.066 0.304,0.023 l 0.291,0.341 0.002,0.077 c 0.038,1.844 -0.432,3.683 -0.886,5.462 -0.299,1.17 -0.608,2.38 -0.762,3.565 -0.016,0.117 -0.124,0.2 -0.242,0.184 m -2.471,1.725 c -0.138,-0.061 -0.201,-0.222 -0.14,-0.361 0.683,-1.557 1.135,-3.228 1.572,-4.844 0.565,-2.087 1.148,-4.245 2.235,-6.145 0.074,-0.131 0.242,-0.177 0.373,-0.101 0.132,0.075 0.178,0.242 0.102,0.374 -1.052,1.838 -1.6,3.867 -2.181,6.015 -0.444,1.635 -0.9,3.327 -1.601,4.921 -0.06,0.139 -0.222,0.202 -0.36,0.141 m 7.129,15.248 c -1.89,-0.885 -3.32,-2.532 -4.582,-3.986 -0.128,-0.147 -0.112,-0.37 0.035,-0.497 0.147,-0.128 0.368,-0.112 0.497,0.035 1.274,1.469 2.594,2.988 4.348,3.81 0.177,0.083 0.253,0.292 0.17,0.468 -0.083,0.176 -0.293,0.252 -0.468,0.17 m 4.505,-19.678 c -0.099,-10e-4 -0.177,-0.081 -0.176,-0.179 0.015,-2.21 0.544,-4.415 1.055,-6.548 0.465,-1.937 0.946,-3.94 1.053,-5.969 0.005,-0.098 0.089,-0.173 0.186,-0.168 0.098,0.005 0.174,0.089 0.168,0.187 -0.109,2.061 -0.593,4.08 -1.061,6.033 -0.508,2.113 -1.032,4.299 -1.046,6.468 -0.002,0.097 -0.081,0.176 -0.179,0.176 m -5.884,-11.26 c -0.167,-0.067 -0.248,-0.256 -0.181,-0.423 0.067,-0.168 0.257,-0.25 0.425,-0.183 2.517,1.009 5.409,0.596 7.548,-1.078 0.142,-0.111 0.348,-0.086 0.458,0.056 0.111,0.142 0.086,0.348 -0.055,0.458 -2.321,1.817 -5.461,2.266 -8.195,1.17 m -6.357,-108.64 c -0.092,-0.007 -0.161,-0.087 -0.154,-0.18 0.041,-0.52 0.263,-0.798 0.6,-1.216 0.057,-0.073 0.162,-0.084 0.236,-0.026 0.072,0.058 0.083,0.164 0.025,0.235 -0.351,0.439 -0.494,0.631 -0.525,1.033 -0.008,0.092 -0.089,0.161 -0.182,0.154 m 20.667,58.187 c -0.247,-0.082 -0.381,-0.349 -0.298,-0.595 0.86,-2.597 1.85,-5.229 2.807,-7.772 l 0.571,-1.521 c 0.092,-0.245 0.364,-0.369 0.607,-0.277 0.244,0.092 0.368,0.362 0.276,0.606 l -0.573,1.524 c -0.953,2.535 -1.938,5.156 -2.794,7.735 -0.082,0.248 -0.349,0.382 -0.596,0.3 m 4.641,-24.013 c -1.849,-15.201 -3.111,-31.29 -3.751,-47.82 -0.007,-0.211 0.157,-0.388 0.368,-0.397 0.212,-0.007 0.389,0.157 0.398,0.368 0.639,16.509 1.899,32.576 3.745,47.756 0.026,0.21 -0.124,0.401 -0.334,0.427 -0.209,0.025 -0.401,-0.125 -0.426,-0.334 m 1.199,42.596 c -0.193,-0.018 -0.336,-0.189 -0.317,-0.383 0.74,-7.964 0.62,-16.654 -0.384,-28.174 -0.016,-0.194 0.126,-0.364 0.32,-0.381 0.193,-0.016 0.364,0.127 0.38,0.32 1.009,11.565 1.128,20.293 0.383,28.301 -0.017,0.192 -0.189,0.335 -0.382,0.317 m 19.431,12.107 c -0.151,-0.222 -0.129,-0.497 0.094,-0.649 l 0.551,-0.377 0.169,-0.106 c 0.227,-0.144 0.53,-0.077 0.674,0.15 0.143,0.227 0.078,0.526 -0.148,0.669 l -0.179,0.112 -0.451,0.304 c -0.222,0.152 -0.559,0.119 -0.71,-0.103 m -7.896,5.113 c -0.265,-0.151 -0.357,-0.487 -0.208,-0.752 0.419,-0.736 1.115,-1.163 1.728,-1.539 l 0.61,-0.395 c 0.256,-0.164 0.617,-0.105 0.783,0.15 0.165,0.256 0.114,0.583 -0.142,0.747 l -0.674,0.436 c -0.549,0.337 -1.068,0.656 -1.345,1.145 -0.152,0.265 -0.487,0.357 -0.752,0.208 M 32.67,-3.019 c -8.746,-3.237 -17.645,-9.578 -25.059,-17.855 -0.102,-0.115 -0.093,-0.293 0.022,-0.396 0.116,-0.103 0.293,-0.093 0.396,0.022 7.354,8.21 16.174,14.498 24.836,17.704 0.145,0.053 0.218,0.214 0.165,0.36 -0.054,0.144 -0.215,0.219 -0.36,0.165 M 6.227,-20.139 c -0.471,0 -0.876,-0.382 -0.875,-0.853 0,-0.47 0.357,-0.852 0.828,-0.852 h 0.523 l 0.933,-0.05 c 0.468,-0.025 1.001,0.313 1.029,0.781 0.028,0.468 -0.193,0.852 -0.661,0.884 l -1.327,0.091 z M 16.956,26.704 C 10.454,19.198 5.171,11.029 0.807,1.73 0.756,1.622 0.802,1.492 0.911,1.442 1.02,1.391 1.148,1.437 1.199,1.546 c 4.347,9.262 9.608,17.399 16.085,24.874 0.078,0.09 0.068,0.227 -0.023,0.306 -0.091,0.078 -0.227,0.068 -0.305,-0.022 m 4.233,-1.316 C 16.284,10.114 6.613,-3.624 -1.265,-13.886 c -0.151,-0.198 -0.114,-0.48 0.083,-0.631 0.197,-0.151 0.479,-0.114 0.632,0.082 7.921,10.32 17.649,24.142 22.596,39.548 0.076,0.237 -0.054,0.49 -0.291,0.565 -0.236,0.077 -0.489,-0.053 -0.566,-0.29 m -34.031,-39.976 c -0.199,-0.04 -0.327,-0.233 -0.287,-0.432 0.039,-0.198 0.232,-0.327 0.43,-0.287 2.785,0.557 5.567,0.262 7.631,-0.809 0.179,-0.093 0.401,-0.023 0.493,0.157 0.094,0.179 0.024,0.4 -0.155,0.494 -2.21,1.146 -5.167,1.465 -8.112,0.877 m -12.82,7.531 c -2.048,-1.289 -3.824,-3.652 -5.133,-6.834 -0.04,-0.097 0.006,-0.209 0.102,-0.248 0.098,-0.04 0.209,0.007 0.249,0.103 0.891,2.168 2.481,5.083 4.984,6.659 0.089,0.055 0.115,0.172 0.061,0.261 -0.057,0.089 -0.174,0.115 -0.263,0.059 m -2.517,-19.13 c -0.079,-0.049 -0.106,-0.153 -0.056,-0.233 0.237,-0.389 0.289,-0.834 0.345,-1.306 0.056,-0.462 0.112,-0.939 0.355,-1.361 0.047,-0.081 0.151,-0.108 0.232,-0.062 0.081,0.046 0.109,0.151 0.063,0.232 -0.21,0.36 -0.26,0.783 -0.313,1.23 -0.057,0.488 -0.118,0.992 -0.393,1.444 -0.049,0.079 -0.154,0.104 -0.233,0.056 m 0.48,-3.193 c -0.739,-0.059 -1.373,-0.358 -1.985,-0.648 -0.563,-0.265 -1.094,-0.517 -1.673,-0.57 -0.206,-0.018 -0.358,-0.201 -0.339,-0.406 0.019,-0.206 0.201,-0.358 0.406,-0.339 0.711,0.065 1.329,0.357 1.926,0.638 0.577,0.273 1.122,0.531 1.725,0.58 0.206,0.017 0.359,0.198 0.343,0.403 -0.017,0.206 -0.197,0.36 -0.403,0.342 m -4.643,-1.952 c -1.091,-0.957 -2.562,-1.839 -4.142,-2.484 -0.136,-0.056 -0.2,-0.211 -0.145,-0.347 0.056,-0.136 0.211,-0.201 0.347,-0.146 1.631,0.668 3.156,1.583 4.291,2.577 0.11,0.096 0.121,0.264 0.025,0.375 -0.097,0.11 -0.264,0.122 -0.376,0.025 m -3.739,6.328 c -0.058,-0.368 -0.189,-0.654 -0.387,-1.089 l -0.097,-0.213 c -0.093,-0.204 -0.002,-0.442 0.202,-0.536 0.204,-0.093 0.445,-0.001 0.538,0.203 l 0.094,0.209 c 0.21,0.459 0.376,0.821 0.451,1.3 0.035,0.221 -0.116,0.429 -0.338,0.464 -0.22,0.035 -0.428,-0.116 -0.463,-0.338 m -0.433,-37.771 -0.171,-0.09 -0.545,-0.344 0.042,-0.112 c -0.125,-6.782 0.439,-13.632 0.984,-20.257 0.401,-4.867 0.815,-9.901 0.953,-14.863 0.003,-0.152 0.13,-0.271 0.281,-0.267 0.149,0.004 0.266,0.126 0.266,0.274 v 0.007 c -0.138,4.98 -0.553,10.02 -0.954,14.895 -0.493,5.983 -1,12.152 -1,18.276 0,0.595 0.006,1.189 0.015,1.781 0.084,0.049 0.207,0.122 0.207,0.122 l 0.184,0.097 c 0.093,0.049 0.144,0.142 0.144,0.236 0,0.045 -0.011,0.089 -0.033,0.132 -0.069,0.133 -0.24,0.182 -0.373,0.113 m 2.089,-0.758 c -0.18,-0.005 -0.322,-0.155 -0.317,-0.336 0.029,-0.973 0.412,-1.841 1.207,-2.736 0.119,-0.134 0.326,-0.148 0.461,-0.028 0.135,0.12 0.147,0.325 0.028,0.461 -0.697,0.785 -1.017,1.5 -1.042,2.322 -0.006,0.181 -0.157,0.323 -0.337,0.317 m 5.964,-9.803 c -1.389,-3.949 -1.972,-8.324 -2.537,-12.554 l -0.706,-4.916 c -0.019,-0.132 0.072,-0.26 0.206,-0.28 0.132,-0.018 0.255,0.068 0.274,0.202 l 0.708,4.931 c 0.562,4.204 1.142,8.553 2.515,12.455 0.044,0.128 -0.023,0.267 -0.149,0.31 -0.127,0.046 -0.267,-0.022 -0.311,-0.148 m -0.362,-39.256 -0.164,-1.048 c -0.076,-0.609 -0.147,-1.183 -0.387,-1.731 -0.038,-0.087 0.002,-0.191 0.089,-0.228 0.089,-0.039 0.191,0.001 0.228,0.089 0.261,0.594 0.34,1.221 0.416,1.826 l 0.158,1.017 c 0.014,0.095 -0.049,0.193 -0.143,0.209 -0.095,0.014 -0.182,-0.04 -0.197,-0.134 m -9.811,51.455 c -0.622,-0.006 -1.007,-0.056 -1.21,-0.162 -0.095,-0.048 -0.132,-0.164 -0.084,-0.259 0.049,-0.093 0.164,-0.131 0.259,-0.084 0.1,0.052 0.36,0.114 1.039,0.121 0.107,0 0.192,0.087 0.191,0.194 -10e-4,0.106 -0.088,0.191 -0.195,0.19 m -3.578,-2.548 c -0.68,-0.811 -1.536,-1.571 -2.474,-2.199 -0.123,-0.083 -0.156,-0.251 -0.073,-0.374 0.083,-0.123 0.251,-0.157 0.374,-0.074 0.979,0.656 1.874,1.451 2.586,2.299 0.096,0.115 0.081,0.285 -0.032,0.381 -0.115,0.095 -0.285,0.081 -0.381,-0.033 m -4.819,-4.225 c -0.713,-1.478 -2.005,-2.583 -3.253,-3.653 l -0.928,-0.809 c -0.159,-0.138 -0.17,-0.372 -0.034,-0.53 0.137,-0.158 0.381,-0.17 0.539,-0.034 l 0.915,0.797 c 1.308,1.121 2.659,2.28 3.443,3.899 0.091,0.188 0.011,0.415 -0.176,0.506 -0.188,0.09 -0.415,0.01 -0.506,-0.176 m -2.898,20.049 c -0.614,-0.128 -1.104,-0.518 -1.578,-0.895 -0.392,-0.31 -0.797,-0.632 -1.269,-0.802 -0.136,-0.048 -0.205,-0.199 -0.157,-0.334 0.05,-0.136 0.199,-0.207 0.334,-0.158 0.553,0.199 0.992,0.548 1.416,0.886 0.446,0.353 0.867,0.688 1.36,0.791 0.141,0.029 0.232,0.168 0.203,0.31 -0.029,0.141 -0.168,0.231 -0.309,0.202 m 1.066,7.185 c -0.366,-0.691 -0.795,-1.34 -1.458,-1.395 -0.157,-0.013 -0.274,-0.151 -0.261,-0.308 0.013,-0.156 0.151,-0.272 0.308,-0.26 0.936,0.079 1.474,0.863 1.915,1.698 0.074,0.138 0.02,0.311 -0.119,0.384 -0.139,0.074 -0.312,0.02 -0.385,-0.119 M 12.75,54.585 12.633,54.552 C -1.491,50.658 -5.763,35.039 -5.051,21.721 c 0.008,-0.162 0.146,-0.286 0.307,-0.277 0.161,0.009 0.286,0.146 0.277,0.308 C -5.166,34.843 -1,50.186 12.788,53.988 l 0.117,0.033 c 1.369,0.378 2.919,0.794 4.647,-0.106 0.463,-0.823 0.66,-1.673 0.66,-2.541 0,-1.838 -0.833,-3.751 -1.647,-5.621 l -0.797,-1.918 c -0.015,-0.035 -0.022,-0.072 -0.022,-0.107 0,-0.114 0.071,-0.219 0.184,-0.266 0.149,-0.062 0.325,0.017 0.386,0.168 l 0.787,1.89 c 1.21,2.779 2.581,5.929 0.923,8.769 l -0.042,0.07 -0.071,0.039 c -1.97,1.07 -3.666,0.601 -5.163,0.187 m -37.749,-94.129 c 0.63,0.307 0.494,1.38 1.125,1.688 -0.174,0.668 -1.226,0.46 -0.844,1.685 -0.833,-0.506 -1.459,-1.654 -0.842,-2.81 l 0.421,-0.141 z m 15.742,-17.428 c -0.42,1.267 -0.899,2.475 -1.406,3.655 l -0.327,-0.422 -0.516,0.14 c -0.383,-0.741 -0.332,-1.917 -0.562,-2.81 l 0.61,0.047 -0.048,-0.61 c 0.866,0.198 0.54,0.198 1.406,0 l 0.421,0.141 z m 4.779,-8.995 c -0.536,-0.527 -0.707,-0.031 -1.406,0 l -0.421,-0.141 -0.422,0.141 c 2.586,-3.047 -0.044,-6.69 0.281,-10.401 0.123,-1.396 1.346,-2.932 1.125,-4.217 l 0.515,0.141 0.328,-0.422 c 2.628,0.629 5.118,1.496 5.622,3.655 1.208,5.17 -5.457,6.039 -5.06,10.963 l -0.422,-0.141 z m 20.52,39.355 c 3.459,-2.163 6.551,-4.696 11.245,-5.622 1.538,-2.245 3.229,-6.624 5.621,-7.591 4.567,-1.845 9.171,1.506 8.995,5.342 -0.3,6.586 -9.958,5.707 -14.898,3.654 -3.456,1.51 -6.617,3.314 -10.12,4.778 l -0.365,-0.365 z m -6.465,3.654 c 0.501,-0.377 0.869,-1.628 0.281,-2.249 h 0.281 v -0.281 c -0.063,-0.533 0.317,-0.62 0.281,-1.124 l 0.422,0.14 0.14,-0.422 c 0.906,1.118 3.06,1.493 4.498,0.562 l 0.366,0.366 0.477,0.196 c -1.501,2.173 0.423,2.356 1.406,3.374 0.618,0.64 1.847,1.583 0.843,1.967 -2.909,-0.647 -4.971,-4.392 -8.433,-1.967 l -0.14,-0.421 z m 23.331,19.395 c 1.562,-4.036 -4.264,-7.084 -0.843,-10.4 5.622,-0.989 7.284,5.777 6.746,10.963 -1.503,1.096 -4.275,0.664 -6.184,0 l 0.141,-0.282 z M 21.945,24.829 c 0.779,0.757 0.884,3.771 0,4.497 -2.773,0.243 -3.889,-1.171 -5.06,-2.53 l 0.235,-0.234 0.046,-0.328 c 0.865,1.174 3.304,0.997 3.937,-0.281 v -0.844 l 0.515,0.141 z m -44.413,-0.563 h 0.281 c 1.43,-0.03 2.494,-0.175 3.091,-0.562 0.752,-0.487 1.77,-2.496 1.968,-3.654 0.723,-4.205 -1.967,-5.134 -2.81,-7.59 -1.165,-3.382 0.14,-5.05 1.405,-7.309 h 0.282 v -0.28 c 2.42,0.73 5.516,3.709 4.778,8.432 -0.183,1.167 -1.35,2.505 -1.687,3.936 -0.642,2.72 -0.295,5.122 -1.124,6.465 -1.297,2.097 -5.621,2.781 -6.746,1.125 l 0.421,-0.141 z M -29.497,9.368 c 2.023,2.756 3.246,6.312 2.811,11.525 l -0.42,-0.141 -0.142,0.422 c -3.036,0.055 -2.268,3.916 -5.34,3.935 -1.475,-1.173 0.162,-2.409 0.281,-4.216 0.144,-2.193 -1.322,-4.645 -1.124,-7.028 0.171,-2.067 1.36,-2.566 1.686,-4.497 h 1.687 l 0.281,0.14 z m -2.529,-41.322 c 0.332,0.137 0.638,0.3 0.843,0.561 l -0.14,0.422 0.14,0.423 c -0.558,0.003 -0.358,0.766 -1.124,0.563 0.203,-0.86 -0.288,-1.026 -0.281,-1.688 l 0.422,0.141 z m 0.281,-33.733 c -0.327,-0.235 -0.754,-0.37 -1.405,-0.28 l -0.142,-0.422 -0.42,0.141 c 0.315,-1.184 1.719,-1.279 1.967,-2.53 -0.132,1.163 1.315,0.747 1.968,1.125 0.039,1.163 -1.808,0.439 -1.406,1.966 l -0.281,-0.14 z m 8.011,43.712 -0.421,-0.14 c 0.06,-0.316 0.311,-0.438 0.562,-0.562 -0.053,-0.417 -0.679,-0.258 -1.125,-0.281 v 1.124 l -0.14,0.422 0.421,0.141 c -0.803,2.381 -2.029,4.34 -1.967,7.588 0.353,0.116 0.574,0.363 0.563,0.844 0.744,0.004 1.654,-0.156 1.686,0.562 0.218,-0.063 0.555,-0.008 0.562,-0.281 0.759,-3.014 3.442,-7.172 0.843,-9.557 -0.44,0.12 -0.24,0.885 -1.124,0.562 z m -4.919,-90.936 c 0.167,2.095 1.409,4.587 1.686,7.308 0.276,2.683 -0.93,5.988 1.126,7.59 5.549,-0.082 7.176,2.174 6.464,6.184 -0.392,2.211 -3.102,3.659 -2.248,6.466 l -0.421,0.14 -0.141,0.421 c -0.15,-1.898 -1.487,-3.187 -3.373,-2.529 -0.648,5.271 -0.438,12.032 0.842,16.305 l -0.421,-0.141 -0.141,0.421 c -1.464,-0.152 -1.428,1.196 -1.406,2.53 0.333,0.323 0.994,0.319 1.687,0.281 v -0.843 l 0.423,-0.141 0.139,-0.422 c 0.322,1.523 2.182,1.045 3.374,0.563 0.935,-2.858 -0.415,-5.896 -0.281,-8.714 0.074,-1.573 0.878,-3.145 0.281,-4.217 l 0.421,-0.141 -0.139,-0.421 c 5.977,-0.252 9.158,2.977 9.275,7.309 0.106,3.941 -3.385,8.501 -2.53,12.368 0.238,1.072 0.811,1.656 1.406,2.812 l -0.422,0.327 0.141,0.516 c -0.49,-0.022 -0.875,0.062 -1.125,0.28 l -0.14,-0.421 -0.422,0.141 c 0.34,-2.332 -1.346,-3.282 -2.811,-3.093 -2.649,0.343 -3.541,7.107 -3.092,11.525 0.158,1.56 1.139,2.527 0.563,3.373 l -0.422,-0.14 -0.141,0.421 c -2.175,-0.304 -0.663,4.017 0.281,1.968 l 0.422,0.141 0.14,-0.421 c 0.328,0.047 0.306,0.443 0.281,0.843 1.101,-0.279 1.633,0.621 2.249,0 2.32,-3.17 0.404,-8.854 2.249,-12.368 l 0.141,0.421 0.421,-0.14 c 0.636,2.081 -0.098,5.531 1.125,7.027 1.392,-0.2 1.075,-2.111 1.686,-3.092 l 0.329,0.421 0.514,-0.14 v 3.654 l -0.421,-0.14 -0.14,0.421 c -2.062,-0.049 -2.339,4.132 0,3.936 l 0.14,0.422 0.421,-0.141 c -0.092,1.217 0.388,1.861 1.124,2.249 l -0.14,0.281 -0.14,0.281 c -0.344,4.092 2.327,5.168 4.498,6.747 0.282,0 0.334,-0.228 0.561,-0.283 l 0.282,0.142 0.281,-0.142 c -0.019,2.831 2.279,3.343 3.935,4.499 l -0.422,0.14 0.141,0.422 c -0.49,-0.021 -0.874,0.063 -1.124,0.281 l -0.422,-0.14 -0.141,0.421 c -2.271,-1.765 -4.207,0.984 -4.497,3.092 -0.529,3.832 2.825,9.138 5.903,8.714 l -0.14,0.422 0.421,0.141 v 2.249 l -0.365,0.365 -0.197,0.477 c -0.894,-0.885 -2.209,-1.351 -3.655,-1.686 l -0.139,-0.422 -0.422,-0.14 c 1.738,-5.661 -8.85,-6.049 -7.309,0.562 l -0.141,0.421 0.141,0.423 c -2.485,1.169 -2.398,4.911 -3.373,7.589 l -0.142,-0.422 -0.42,-0.14 v -1.687 c -2.298,-0.278 -7.673,0.146 -7.028,2.811 l -0.422,0.141 0.141,0.421 c -0.06,0.316 -0.312,0.438 -0.563,0.562 l -0.327,-0.421 -0.516,0.14 v -0.843 c -0.395,-0.073 -0.32,-0.617 -0.561,-0.843 h 0.281 v -0.281 h 0.561 c 1.186,-1.763 -1.048,-2.245 -1.405,-2.811 -0.748,-1.19 -0.873,-2.557 -1.687,-3.654 -1.052,-0.166 -1.597,-0.847 -2.249,0 h -0.28 v 0.28 c -1.427,-3.384 -2.277,-5.912 -3.655,-8.994 2.509,1.078 4.726,-2.177 6.184,-3.935 v 0.28 h 0.281 c 0.65,-0.287 0.583,-1.292 0.562,-2.249 h -0.28 l 0.14,-0.421 -0.422,0.14 c 10e-4,-0.282 -0.227,-0.334 -0.281,-0.562 l 0.422,-0.328 -0.141,-0.515 h 0.282 l 0.14,0.421 0.14,-0.421 c 0.74,-0.083 0.222,1.09 1.125,0.843 0.749,-0.783 0.582,-2.22 0.282,-3.373 0.015,-0.297 0.36,-0.221 0.281,0.281 0.842,-0.025 0.298,-0.477 0.842,-1.406 0.644,-1.098 2.539,-2.333 2.811,-3.653 0.602,-2.92 -2,-7.528 -3.373,-4.217 l -0.14,-0.422 -0.421,0.141 c 0.083,-1.534 -0.868,-1.575 0,-2.531 -0.411,-1.43 -1.839,-3.137 -3.093,-2.81 0.015,0.358 0.361,0.389 0.281,0.843 h -0.281 v 0.281 c -3.87,-0.664 -5.718,3.075 -5.903,7.027 l -0.422,0.141 0.141,0.422 h -0.843 c -0.062,0.219 -0.236,0.327 -0.563,0.281 -0.568,1.336 -0.277,3.44 0.563,4.217 l -0.422,0.14 0.14,0.421 c -0.015,0.172 -0.041,0.333 -0.281,0.282 -0.085,2.421 0.336,4.553 0.844,7.027 l -0.515,-0.14 -0.329,0.421 c -2.109,-2.346 -3.089,1.065 -5.622,0.281 -1.67,-0.517 -2.179,-3.302 -1.687,-5.623 0.301,-1.41 1.296,-1.856 1.687,-2.809 1.459,-3.552 -1.808,-4.738 -3.654,-6.185 0.842,-4.009 -2.658,-4.395 -2.53,-7.027 0.044,-0.885 1.426,-2.746 2.53,-3.374 1.037,-0.589 2.623,-0.364 3.654,-0.843 3.16,-1.465 5.318,-4.742 3.936,-7.87 0.306,-1.289 1.594,-1.593 1.405,-3.374 l 0.422,-0.141 -0.141,-0.422 c 1.244,-0.213 0.224,1.839 1.687,1.406 l -0.141,0.422 c 0,0 0.421,0.14 2.108,1.265 -0.036,-0.9 -0.637,-1.237 -1.687,-1.125 l 0.142,-0.422 -0.422,-0.14 c 0.386,-0.889 0.062,-0.94 0,-1.967 l 0.422,0.14 0.421,-0.14 c 0.75,0.296 2.602,2.154 2.53,0 l 0.422,0.14 -0.141,-0.42 c 0.897,-0.242 0.869,0.441 1.406,0.561 2.212,-2.314 1.99,-6.275 1.124,-9.839 l 0.422,0.14 -0.14,-0.422 h 0.843 c 1.298,-3.69 0.169,-9.035 -0.563,-12.367 -0.52,-2.374 -1.336,-5.795 -3.092,-4.497 l -0.281,-0.142 -0.281,0.142 c 0.366,-2.233 0.896,-6.089 -0.843,-8.152 -0.592,-0.878 -1.559,0.246 -1.687,-0.844 -0.615,-3.705 -0.342,-8.455 0.563,-11.526 1.451,-0.327 3.514,-0.045 4.778,-0.562 v -0.843 h 0.281 z m -1.264,-2.951 -0.423,0.14 c 0.216,-0.815 0.445,-1.617 1.125,-1.967 0.434,0.408 0.247,1.439 0.281,2.249 h -0.281 v 0.28 c -0.359,-0.015 -0.389,-0.361 -0.843,-0.28 z m -2.671,18.693 h 0.562 v 0.562 h -0.562 z m -27.267,8.433 c 0.003,0.559 0.768,0.358 0.562,1.125 -0.387,-0.013 -0.618,0.132 -0.842,0.28 0.153,-0.408 -0.329,-1.452 0.28,-1.405 m 27.548,6.184 c -0.003,0.411 0.107,2.3 -0.281,1.406 0.003,-0.413 -0.107,-2.301 0.281,-1.406 m -25.861,3.655 c 0.015,0.17 0.042,0.332 0.281,0.28 -0.032,0.344 -0.085,0.666 -0.562,0.562 0.043,-0.331 -0.049,-0.798 0.281,-0.842 m 2.249,-3.374 c -0.914,1.667 0.699,2.978 1.405,3.935 1.347,-0.967 0.377,-4.247 -1.405,-3.935 m 5.06,10.12 c -1.154,-0.535 -1.908,-1.467 -3.374,-1.688 0.299,0.014 0.713,-0.131 0.281,-0.28 -0.574,-0.269 -1.112,-0.574 -1.686,-0.843 -0.134,-1.912 -2.341,-3.496 -2.249,-5.904 0.056,-1.487 1.734,-2.379 1.124,-4.216 5.665,0.425 5.534,6.647 6.185,12.087 l -0.381,0.342 z m 6.464,6.464 c -0.904,0.454 -1.863,0.233 -2.53,-0.28 -0.434,-0.408 -0.247,-1.439 -0.28,-2.249 l 0.515,0.141 0.328,-0.421 c 0.867,0.631 1.617,1.381 2.248,2.248 l -0.421,0.14 z m 4.639,4.217 0.14,0.282 c -1.634,-0.24 -2.572,-1.176 -2.811,-2.811 l 0.422,0.14 0.14,-0.42 c 1.071,0.521 2.012,1.172 2.249,2.528 z m -21.505,9.558 h 0.563 v 1.124 h -0.563 z m 8.574,2.108 0.141,0.422 c -3.687,-2.157 -4.392,3.284 -6.747,5.622 -2.246,2.229 -6.935,2.456 -6.465,-2.53 0.2,-2.129 2.405,-3.576 3.935,-5.06 0.481,0.455 0.109,1.766 1.125,1.687 0.593,-1 0.923,-2.263 1.968,-2.811 3.139,-0.142 4.84,1.156 6.465,2.53 z m 95.153,9.979 c -0.034,0.468 0.153,2.546 -0.281,1.687 0.033,-0.467 -0.154,-2.547 0.281,-1.687 m -68.87,3.935 c 0.076,0.384 -0.174,1.097 -0.282,0.563 -0.076,-0.383 0.175,-1.097 0.282,-0.563 M -2.23,-6.654 c 0.225,0.525 0.47,1.029 0.563,1.686 -0.86,-0.204 -0.827,0.485 -1.687,0.281 -0.007,-1.038 0.126,-1.936 1.124,-1.967 m -26.141,0.842 c 0.734,-0.079 1.208,0.103 1.123,0.844 -0.358,0.015 -0.389,0.36 -0.843,0.281 -0.088,-0.38 -0.4,-0.537 -0.28,-1.125 m -17.71,-0.562 c 0.846,0.284 0.498,-0.626 0.562,-1.124 -0.494,0.067 -0.641,0.483 -0.562,1.124 m 9.838,9.839 c -2.51,-0.489 -5.091,0.291 -7.027,-0.562 -2.05,-0.905 -4.622,-4.174 -5.06,-6.185 -0.102,-0.466 -0.111,-1.239 0,-1.968 0.268,-1.755 0.521,-4.126 0.843,-5.621 0.17,-0.788 0.889,-1.729 1.125,-2.53 1.057,-3.587 1.146,-7.792 3.654,-8.995 1.872,-0.025 2.837,1.656 3.936,3.092 0.985,1.286 2.45,2.735 3.092,4.216 1.811,4.183 2.363,11.731 0.843,16.023 -0.359,1.109 0.818,0.68 0.843,1.405 -1.612,-0.487 -1.059,1.189 -2.249,1.125 m -3.373,9.557 c 0.451,0.783 -1.214,0.777 -1.124,0.281 0.531,0.064 0.619,-0.316 1.124,-0.281 m 56.22,30.64 C 15.775,39.883 12.484,36.212 10.701,31.856 9.204,28.198 8.849,24.514 5.923,22.298 4.777,21.432 3.315,21.267 1.987,20.612 c -1.117,4.6 0.751,7.702 3.373,10.119 1.301,1.199 3.073,1.658 4.217,2.811 3.086,3.111 3.687,7.136 6.184,10.683 l 0.281,-0.493 z"
             style="fill:#262626;fill-opacity:1;fill-rule:nonzero;stroke:none"
             id="path82"
             inkscape:connector-curvature="0" />
        </g>
      </g>
    </g>
  </g>
</svg>
