<?xml version="1.0" encoding="UTF-8" standalone="no"?>
<!-- Created with Inkscape (http://www.inkscape.org/) -->

<svg
   xmlns:dc="http://purl.org/dc/elements/1.1/"
   xmlns:cc="http://creativecommons.org/ns#"
   xmlns:rdf="http://www.w3.org/1999/02/22-rdf-syntax-ns#"
   xmlns:svg="http://www.w3.org/2000/svg"
   xmlns="http://www.w3.org/2000/svg"
   xmlns:sodipodi="http://sodipodi.sourceforge.net/DTD/sodipodi-0.dtd"
   xmlns:inkscape="http://www.inkscape.org/namespaces/inkscape"
   width="64.793465mm"
   height="40.809841mm"
   viewBox="0 0 64.793465 40.809841"
   version="1.1"
   id="svg4635"
   inkscape:version="0.92.2 2405546, 2018-03-11"
   sodipodi:docname="paint-big12.svg">
  <defs
     id="defs4629">
    <clipPath
       clipPathUnits="userSpaceOnUse"
       id="clipPath18">
      <path
         d="M 0,600 H 600 V 0 H 0 Z"
         id="path16"
         inkscape:connector-curvature="0" />
    </clipPath>
  </defs>
  <sodipodi:namedview
     id="base"
     pagecolor="#ffffff"
     bordercolor="#666666"
     borderopacity="1.0"
     inkscape:pageopacity="0.0"
     inkscape:pageshadow="2"
     inkscape:zoom="0.35"
     inkscape:cx="-391.84137"
     inkscape:cy="265.69238"
     inkscape:document-units="mm"
     inkscape:current-layer="layer1"
     showgrid="false"
     inkscape:window-width="3840"
     inkscape:window-height="2095"
     inkscape:window-x="0"
     inkscape:window-y="0"
     inkscape:window-maximized="1" />
  <metadata
     id="metadata4632">
    <rdf:RDF>
      <cc:Work
         rdf:about="">
        <dc:format>image/svg+xml</dc:format>
        <dc:type
           rdf:resource="http://purl.org/dc/dcmitype/StillImage" />
        <dc:title></dc:title>
      </cc:Work>
    </rdf:RDF>
  </metadata>
  <g
     inkscape:label="Layer 1"
     inkscape:groupmode="layer"
     id="layer1"
     transform="translate(-105.94255,-178.32127)">
    <g
       transform="matrix(0.35277777,0,0,-0.35277777,-37.402865,225.62637)"
       id="g12">
      <g
         id="g14"
         clip-path="url(#clipPath18)">
        <g
           id="g20"
           transform="translate(453.541,53.8359)">
          <path
             d="m 0,0 c -0.021,-0.063 0.012,-0.132 0.076,-0.152 3.963,-1.346 8.462,-2.477 13.369,-3.363 0.065,-0.01 0.128,0.034 0.14,0.099 0.011,0.065 -0.032,0.128 -0.098,0.141 C 8.592,-2.394 4.104,-1.266 0.153,0.075 0.09,0.098 0.021,0.064 0,0 M 0.103,0.261 0.094,0.192 0.053,-0.005 C 0.044,-0.042 0.061,-0.099 0.099,-0.107 0.137,-0.116 0.168,-0.11 0.176,-0.071 L 0.234,0.176 0.242,0.242 C 0.247,0.28 0.22,0.316 0.18,0.321 0.142,0.326 0.106,0.3 0.103,0.261 M -0.831,0.151 C -0.84,0.107 -0.804,0.063 -0.76,0.054 l 0.404,-0.083 0.464,-0.092 C 0.151,-0.129 0.186,-0.099 0.195,-0.054 0.203,-0.01 0.166,0.035 0.121,0.044 L -0.314,0.13 -0.741,0.217 c -0.046,0.01 -0.081,-0.021 -0.09,-0.066 m 103.549,29.003 c -0.015,-0.033 -0.001,-0.071 0.032,-0.087 0.718,-0.32 1.4,-0.843 1.948,-1.265 0.029,-0.021 0.069,-0.016 0.09,0.012 0.023,0.03 0.018,0.07 -0.012,0.091 -0.553,0.426 -1.242,0.954 -1.973,1.283 -0.032,0.013 -0.071,0 -0.085,-0.034 M 99.634,31.33 C 99.6,31.283 99.615,31.214 99.662,31.18 l 0.458,-0.334 0.703,-0.481 c 0.049,-0.033 0.105,-0.015 0.137,0.033 0.033,0.048 0.012,0.122 -0.037,0.154 l -0.674,0.462 -0.472,0.343 c -0.047,0.036 -0.108,0.022 -0.143,-0.027 m -3.954,2.557 c -0.04,-0.067 -0.021,-0.15 0.044,-0.19 l 0.604,-0.367 c 0.472,-0.28 0.918,-0.545 1.344,-0.896 0.058,-0.048 0.145,-0.04 0.194,0.019 0.048,0.061 0.039,0.148 -0.019,0.195 -0.442,0.364 -0.917,0.647 -1.377,0.92 l -0.599,0.365 c -0.065,0.04 -0.152,0.019 -0.191,-0.046 M 81.768,43.972 c -0.049,-0.039 -0.057,-0.113 -0.016,-0.161 0.236,-0.29 0.53,-0.532 0.813,-0.765 l 0.69,-0.628 c 0.047,-0.043 0.127,-0.048 0.171,-10e-4 0.042,0.048 0.046,0.111 0,0.155 l -0.714,0.651 c -0.274,0.227 -0.56,0.463 -0.783,0.734 -0.04,0.049 -0.113,0.056 -0.161,0.015 m 7.957,-6.133 c -0.063,-0.093 -0.042,-0.214 0.048,-0.277 l 0.907,-0.611 1.21,-0.843 c 0.09,-0.062 0.226,-0.046 0.29,0.045 0.063,0.092 0.051,0.209 -0.04,0.274 l -1.242,0.864 -0.888,0.6 c -0.093,0.062 -0.223,0.041 -0.285,-0.052 M 76.709,37.402 c -0.083,-0.034 -0.129,-0.133 -0.095,-0.217 0.035,-0.083 0.123,-0.124 0.207,-0.091 l 0.241,0.1 c -0.083,-0.034 -0.182,0.004 -0.217,0.087 -0.034,0.084 0.001,0.178 0.085,0.212 z m -3.494,2.732 c -0.039,-0.05 -0.029,-0.121 0.019,-0.158 l 0.068,-0.052 c 0.355,-0.277 0.722,-0.561 0.942,-0.957 0.03,-0.055 0.099,-0.073 0.153,-0.043 0.054,0.03 0.075,0.099 0.044,0.153 -0.243,0.436 -0.628,0.736 -1.002,1.026 l -0.065,0.05 c -0.051,0.039 -0.121,0.031 -0.159,-0.019 m -3.766,3.094 c -0.021,-0.027 -0.017,-0.066 0.009,-0.086 l 0.7,-0.551 c 0.43,-0.325 0.874,-0.662 1.256,-1.065 -0.023,0.026 -0.022,0.066 0.002,0.088 0.025,0.025 0.063,0.023 0.088,-0.002 -0.39,0.409 -0.837,0.749 -1.272,1.08 l -0.694,0.544 c -0.027,0.023 -0.068,0.019 -0.089,-0.008 M 83.337,-10.1 c -0.036,-0.065 -0.013,-0.147 0.053,-0.184 0.839,-0.464 1.776,-0.822 2.682,-1.169 l 1.712,-0.688 c 0.069,-0.028 0.153,0.004 0.179,0.073 0.028,0.07 0,0.147 -0.069,0.174 l -1.725,0.695 c -0.94,0.359 -1.826,0.697 -2.648,1.152 -0.065,0.036 -0.148,0.012 -0.184,-0.053 M 61.49,-1.734 c -0.053,-0.027 -0.075,-0.092 -0.049,-0.147 0.027,-0.054 0.092,-0.076 0.146,-0.05 0.1,0.05 0.21,0.007 0.339,-0.044 l 0.298,-0.082 c 0.057,-0.015 0.094,0.022 0.11,0.079 0.017,0.058 -0.039,0.123 -0.097,0.138 l -0.232,0.069 c -0.154,0.061 -0.328,0.129 -0.515,0.037 m 3.502,-2.152 c -0.08,-0.045 -0.108,-0.147 -0.062,-0.229 0.352,-0.622 0.828,-1.163 1.289,-1.689 l 0.987,-1.217 c 0.059,-0.072 0.173,-0.094 0.245,-0.035 0.071,0.059 0.09,0.155 0.032,0.227 l -1.012,1.248 c -0.45,0.512 -0.913,1.041 -1.249,1.634 -0.046,0.08 -0.148,0.108 -0.23,0.061 M 45.82,-1.614 45.764,-2.221 c 0,0 -0.024,-0.318 -0.03,-0.397 -1.082,-1.132 -2.89,-1.077 -4.227,-0.822 -0.113,0.021 -0.222,-0.053 -0.244,-0.166 -0.021,-0.114 0.053,-0.224 0.167,-0.245 1.457,-0.278 3.449,-0.332 4.655,0.986 l 0.048,0.052 -0.001,0.035 0.086,1.043 c 0.01,0.114 -0.068,0.256 -0.181,0.267 -0.114,0.011 -0.207,-0.031 -0.217,-0.146 m 3.508,-1.967 c -0.23,-0.105 -0.366,-0.202 -0.44,-0.318 -0.06,-0.095 -0.034,-0.22 0.061,-0.28 0.095,-0.06 0.219,-0.033 0.279,0.062 0.01,0.014 0.058,0.073 0.265,0.166 0.102,0.045 0.148,0.165 0.102,0.267 -0.046,0.103 -0.165,0.148 -0.267,0.103 m 1.111,0.587 c -0.039,-0.077 -0.009,-0.173 0.069,-0.214 0.902,-0.468 1.915,-0.788 2.895,-1.097 l 0.704,-0.224 c 0.083,-0.027 0.174,0.018 0.2,0.101 0.027,0.085 -0.019,0.174 -0.103,0.2 l -0.706,0.226 c -0.967,0.306 -1.967,0.621 -2.845,1.076 -0.077,0.04 -0.173,0.011 -0.214,-0.068 m 12.135,-9.29 c -0.096,-0.049 -0.205,-0.028 -0.255,0.069 l 0.113,-0.218 c 0.049,-0.094 0.177,-0.155 0.273,-0.105 0.096,0.05 0.143,0.145 0.094,0.24 l -0.15,0.293 c 0.05,-0.097 0.021,-0.229 -0.075,-0.279 M 59.902,-0.796 C 59.829,-0.859 59.816,-0.968 59.88,-1.041 l 0.076,-0.089 0.16,-0.21 c 0.06,-0.076 0.182,-0.112 0.259,-0.054 0.077,0.059 0.105,0.148 0.048,0.226 l -0.202,0.27 -0.07,0.08 c -0.061,0.073 -0.174,0.086 -0.249,0.022 m 1.168,-1.465 c -0.082,-0.047 -0.111,-0.152 -0.065,-0.234 0.322,-0.574 0.711,-1.118 1.086,-1.645 0.466,-0.651 0.948,-1.324 1.293,-2.048 0.041,-0.085 0.142,-0.122 0.227,-0.081 0.086,0.04 0.122,0.143 0.081,0.229 -0.358,0.751 -0.848,1.438 -1.323,2.101 -0.37,0.518 -0.753,1.054 -1.065,1.612 -0.047,0.083 -0.152,0.112 -0.234,0.066 m -22.019,3.22 c -0.009,-0.062 0.034,-0.117 0.095,-0.124 0.966,-0.126 1.915,-0.521 2.831,-0.901 0.997,-0.416 2.027,-0.844 3.113,-0.953 0.062,-0.005 0.116,0.04 0.123,0.103 0.006,0.061 -0.04,0.115 -0.102,0.121 C 44.059,-0.69 43.043,-0.268 42.063,0.14 41.133,0.528 40.17,0.927 39.175,1.058 39.114,1.065 39.058,1.021 39.051,0.959 M 38.938,0.423 C 38.843,0.386 38.794,0.284 38.831,0.188 l 0.075,-0.186 0.108,-0.344 c 0.031,-0.098 0.141,-0.193 0.238,-0.163 0.099,0.03 0.162,0.094 0.133,0.192 l -0.137,0.461 -0.065,0.165 c -0.039,0.095 -0.151,0.149 -0.245,0.11 m -3.132,2.238 c -0.022,-0.037 -0.009,-0.085 0.029,-0.104 0.514,-0.294 1.076,-0.528 1.51,-0.7 0.039,-0.016 0.085,0.002 0.099,0.043 0.017,0.041 -0.004,0.085 -0.043,0.101 -0.427,0.17 -0.985,0.401 -1.49,0.689 -0.036,0.021 -0.085,0.009 -0.105,-0.029 m 1.928,-1.122 c -0.073,-0.495 0.108,-0.962 0.285,-1.414 0.13,-0.337 0.266,-0.686 0.292,-1.038 0.003,-0.057 0.052,-0.099 0.107,-0.095 0.057,0.004 0.098,0.052 0.094,0.11 -0.028,0.382 -0.168,0.746 -0.306,1.097 -0.174,0.446 -0.338,0.868 -0.271,1.31 0.007,0.055 -0.031,0.108 -0.085,0.116 -0.056,0.008 -0.108,-0.031 -0.116,-0.086 m 20.909,2.315 c -0.074,-0.049 -0.092,-0.148 -0.042,-0.22 0.632,-0.933 1.361,-1.815 2.065,-2.667 0.617,-0.745 1.253,-1.516 1.819,-2.314 0.052,-0.071 0.152,-0.088 0.223,-0.037 0.071,0.051 0.088,0.151 0.037,0.223 -0.574,0.807 -1.214,1.581 -1.833,2.332 -0.701,0.847 -1.424,1.722 -2.049,2.642 -0.049,0.073 -0.148,0.091 -0.22,0.041 M 40.958,3.681 C 40.918,3.654 40.906,3.6 40.933,3.559 41.295,3.004 42.039,2.843 42.557,2.971 42.604,2.983 42.632,3.032 42.62,3.078 42.609,3.127 42.561,3.156 42.513,3.144 42.05,3.027 41.386,3.188 41.08,3.656 41.054,3.697 40.999,3.708 40.958,3.681 m 1.405,0.335 C 42.282,4.001 42.227,3.931 42.241,3.848 L 42.389,3.023 C 42.373,3.105 42.427,3.19 42.508,3.206 42.59,3.22 42.666,3.173 42.681,3.092 L 42.539,3.887 C 42.524,3.969 42.445,4.03 42.363,4.016 M 43.691,2.311 43.576,2.264 C 43.54,2.25 43.523,2.209 43.536,2.173 43.552,2.138 43.591,2.119 43.627,2.134 l 0.304,0.122 c 1.017,-0.319 2.051,-0.773 3.049,-1.209 1.301,-0.569 2.646,-1.158 4.048,-1.443 0.037,-0.008 0.075,0.016 0.082,0.054 0.007,0.039 -0.017,0.075 -0.053,0.082 -1.389,0.283 -2.726,0.869 -4.02,1.435 -1.003,0.439 -2.04,0.892 -3.11,1.213 C 43.882,2.386 43.691,2.311 43.691,2.311 m -1.277,0.793 c -0.025,-0.067 0.008,-0.144 0.074,-0.168 0.206,-0.08 0.348,-0.236 0.498,-0.4 0.158,-0.174 0.32,-0.351 0.565,-0.457 0.065,-0.028 0.142,0.003 0.171,0.068 0.028,0.068 -0.003,0.144 -0.07,0.171 C 43.46,2.4 43.323,2.551 43.178,2.71 43.014,2.891 42.844,3.078 42.581,3.179 42.515,3.205 42.438,3.171 42.414,3.104 m 3.477,-4.778 c 0,-0.07 0.056,-0.129 0.127,-0.129 0.795,-0.005 1.5,-0.31 2.248,-0.635 l 1.24,-0.481 c 0.065,-0.026 0.13,0.011 0.155,0.077 0.026,0.065 -0.016,0.143 -0.082,0.168 l -1.212,0.472 c -0.737,0.32 -1.5,0.651 -2.348,0.655 -0.07,10e-4 -0.128,-0.056 -0.128,-0.127 m -0.931,0.883 c -0.064,-0.077 -0.037,-0.206 0.041,-0.27 l 0.7,-0.573 0.196,-0.179 c 0.075,-0.067 0.19,-0.061 0.258,0.015 0.067,0.076 0.06,0.193 -0.015,0.26 l -0.193,0.176 -0.747,0.61 c -0.078,0.064 -0.177,0.04 -0.24,-0.039 M 43.617,2.107 C 43.566,2.098 43.52,2.132 43.51,2.184 c 0.094,-0.541 0.431,-0.991 0.758,-1.425 0.393,-0.526 0.766,-1.023 0.741,-1.661 -0.003,-0.052 0.038,-0.096 0.089,-0.098 0.05,-10e-4 0.094,0.038 0.096,0.09 0.029,0.705 -0.381,1.252 -0.778,1.78 C 44.09,1.307 43.779,1.719 43.693,2.216 43.702,2.164 43.668,2.115 43.617,2.107 M 57.28,3.178 C 57.199,3.14 57.162,3.044 57.2,2.961 c 0.25,-0.553 0.615,-1.039 0.969,-1.51 0.369,-0.494 0.72,-0.959 0.952,-1.496 0.036,-0.084 0.131,-0.122 0.214,-0.085 0.082,0.035 0.121,0.132 0.084,0.214 -0.247,0.572 -0.625,1.076 -0.99,1.563 -0.343,0.457 -0.698,0.929 -0.933,1.45 -0.037,0.082 -0.134,0.118 -0.216,0.081 M 56.014,0.583 C 55.989,0.525 56.023,0.457 56.08,0.434 l 1.132,-0.458 c 0.561,-0.245 1.142,-0.497 1.763,-0.645 0.06,-0.016 0.121,0.023 0.135,0.084 0.015,0.061 -0.023,0.121 -0.084,0.135 -0.601,0.144 -1.172,0.392 -1.724,0.633 L 56.154,0.646 C 56.097,0.67 56.035,0.641 56.014,0.583 M 53.39,6.127 53.049,5.995 C 52.89,5.961 52.708,5.921 52.57,5.769 52.527,5.722 52.53,5.648 52.578,5.604 c 0.047,-0.043 0.121,-0.041 0.164,0.007 0.088,0.097 0.213,0.124 0.357,0.157 l 0.439,0.179 c 0.06,0.025 0.058,0.074 0.033,0.132 C 53.548,6.14 53.449,6.151 53.39,6.127 M 29.193,7.406 C 29.141,7.381 29.111,7.335 29.139,7.282 l 0.174,-0.36 c 0.08,-0.127 0.156,-0.248 0.166,-0.392 0.006,-0.058 0.057,-0.101 0.116,-0.097 0.058,0.005 0.102,0.057 0.097,0.115 -0.016,0.196 -0.108,0.344 -0.197,0.487 L 29.343,7.34 c -0.027,0.052 -0.097,0.093 -0.15,0.066 M 46.668,4.942 c -0.099,0 -0.188,-0.08 -0.188,-0.177 0,-0.099 0.072,-0.178 0.169,-0.178 h 0.288 l 0.481,-0.033 c 0.099,-0.006 0.217,0.061 0.225,0.159 0.006,0.099 -0.033,0.177 -0.129,0.184 L 46.927,4.943 Z M 42.19,7.261 C 42.154,7.213 42.163,7.146 42.21,7.109 42.778,6.669 43.441,6.356 44.082,6.053 44.712,5.756 45.362,5.449 45.9,5.027 45.947,4.99 46.015,4.998 46.051,5.046 46.087,5.092 46.078,5.159 46.032,5.196 45.476,5.633 44.813,5.945 44.175,6.248 43.543,6.546 42.891,6.854 42.341,7.28 42.294,7.317 42.226,7.308 42.19,7.261 M 45.918,4.77 C 45.385,4.555 44.806,4.488 44.246,4.422 43.609,4.349 42.951,4.272 42.336,3.984 42.271,3.955 42.243,3.878 42.273,3.813 42.304,3.748 42.381,3.721 42.445,3.75 c 0.576,0.27 1.186,0.341 1.83,0.416 0.578,0.067 1.174,0.136 1.74,0.362 0.065,0.027 0.097,0.103 0.071,0.168 -0.026,0.068 -0.102,0.1 -0.168,0.074 M 41.534,4.144 C 41.493,4.021 41.577,3.884 41.7,3.842 l 0.254,-0.085 0.396,-0.12 c 0.124,-0.038 0.225,0.038 0.263,0.162 0.037,0.124 -0.058,0.262 -0.182,0.3 L 42.118,4.197 41.813,4.298 C 41.689,4.339 41.574,4.267 41.534,4.144 M 39.348,7.513 C 39.301,7.488 39.281,7.431 39.307,7.382 39.586,6.838 40.002,6.369 40.405,5.918 40.909,5.353 41.43,4.769 41.665,4.04 c 0.017,-0.051 0.07,-0.078 0.121,-0.061 0.05,0.016 0.077,0.07 0.062,0.12 -0.248,0.767 -0.783,1.367 -1.299,1.948 -0.396,0.442 -0.804,0.9 -1.072,1.424 -0.025,0.048 -0.082,0.065 -0.129,0.042 M 41.67,4.255 41.503,4.182 C 41.269,4.084 41.004,3.974 40.836,3.72 40.775,3.626 40.801,3.499 40.894,3.438 c 0.093,-0.063 0.22,-0.038 0.282,0.056 0.098,0.151 0.285,0.23 0.483,0.312 l 0.184,0.08 c 0.101,0.044 0.144,0.162 0.099,0.264 -0.045,0.104 -0.17,0.149 -0.272,0.105 M 38.965,3.729 C 38.962,3.62 39.039,3.53 39.148,3.526 l 0.64,-0.021 C 40.195,3.499 40.58,3.493 40.967,3.414 41.073,3.392 41.177,3.461 41.199,3.567 41.22,3.674 41.151,3.778 41.046,3.8 40.622,3.887 40.202,3.894 39.794,3.899 L 39.173,3.92 C 39.065,3.924 38.967,3.838 38.965,3.729 M 31.142,5.885 C 31.098,5.884 31.064,5.848 31.065,5.804 c 10e-4,-0.043 0.038,-0.077 0.081,-0.076 0.991,0.027 2.017,-0.269 3.012,-0.555 0.828,-0.238 1.685,-0.485 2.517,-0.544 0.044,-0.004 0.081,0.029 0.083,0.071 0.004,0.045 -0.029,0.082 -0.071,0.085 -0.818,0.059 -1.666,0.303 -2.485,0.539 -1.007,0.289 -2.047,0.588 -3.06,0.561 M 29.479,6.617 C 29.438,6.559 29.449,6.476 29.509,6.433 29.76,6.25 30.031,6.16 30.295,6.071 c 0.277,-0.092 0.539,-0.179 0.766,-0.366 0.055,-0.047 0.138,-0.038 0.184,0.018 0.046,0.055 0.038,0.139 -0.017,0.186 -0.264,0.217 -0.562,0.317 -0.85,0.413 -0.256,0.084 -0.498,0.165 -0.714,0.324 -0.06,0.042 -0.141,0.029 -0.185,-0.029 m 6.682,0.421 C 36.056,6.995 36,6.893 36.043,6.787 L 36.368,5.99 36.695,5.172 c 0.042,-0.105 0.168,-0.177 0.273,-0.135 0.105,0.043 0.163,0.141 0.121,0.246 l -0.35,0.881 -0.305,0.744 c -0.043,0.106 -0.168,0.173 -0.273,0.13 M 28.393,6.604 C 28.335,6.582 28.308,6.517 28.33,6.46 c 0.023,-0.059 0.087,-0.086 0.144,-0.064 0.16,0.065 0.333,0.041 0.515,0.014 0.206,-0.029 0.417,-0.059 0.636,0.026 0.059,0.021 0.087,0.085 0.064,0.143 -0.02,0.057 -0.085,0.086 -0.142,0.065 C 29.38,6.58 29.206,6.604 29.021,6.631 28.817,6.659 28.606,6.688 28.393,6.604 m 2.674,-0.795 c -0.01,-0.366 0.241,-0.539 0.463,-0.692 0.189,-0.13 0.367,-0.253 0.405,-0.48 0.006,-0.041 0.044,-0.07 0.086,-0.063 0.041,0.006 0.069,0.045 0.063,0.086 -0.048,0.292 -0.271,0.447 -0.469,0.582 -0.217,0.151 -0.406,0.279 -0.396,0.562 0.002,0.042 -0.031,0.077 -0.072,0.078 -0.043,0.002 -0.078,-0.031 -0.08,-0.073 m -4.142,1.51 c -0.068,-0.048 -0.084,-0.141 -0.037,-0.21 0.174,-0.25 0.415,-0.45 0.666,-0.549 0.077,-0.031 0.165,0.006 0.195,0.084 0.03,0.078 -0.008,0.165 -0.085,0.196 -0.197,0.077 -0.391,0.238 -0.531,0.441 -0.047,0.069 -0.14,0.085 -0.208,0.038 M 28.209,6.197 C 28.12,6.159 28.081,6.055 28.12,5.967 28.207,5.771 28.35,5.634 28.488,5.501 l 0.286,-0.347 c 0.062,-0.073 0.195,-0.121 0.268,-0.061 0.073,0.061 0.108,0.134 0.049,0.208 L 28.729,5.754 C 28.609,5.868 28.496,5.976 28.438,6.107 28.4,6.196 28.296,6.236 28.209,6.197 M 17.588,6.092 C 17.507,6.016 17.504,5.887 17.582,5.805 c 0.363,-0.384 0.777,-0.762 1.334,-0.927 0.108,-0.032 0.222,0.029 0.254,0.138 0.03,0.107 -0.03,0.22 -0.139,0.252 -0.466,0.139 -0.83,0.474 -1.155,0.817 -0.077,0.082 -0.206,0.086 -0.288,0.007 m 53.191,1.07 c -0.046,-0.057 -0.037,-0.14 0.02,-0.185 5.603,-4.543 10.964,-9.083 14.972,-14.673 0.042,-0.06 0.124,-0.074 0.183,-0.03 0.06,0.042 0.073,0.125 0.03,0.184 -4.027,5.616 -9.402,10.169 -15.019,14.724 -0.057,0.046 -0.14,0.037 -0.186,-0.02 M 65.59,-3.387 c -0.027,-0.071 -0.107,-0.108 -0.178,-0.08 l 11.994,-4.63 c 0.073,-0.027 0.154,0.008 0.181,0.08 0.027,0.073 -0.007,0.153 -0.079,0.18 L 65.51,-3.206 c 0.071,-0.029 0.107,-0.109 0.08,-0.181 m -2.222,1.101 c -0.05,-0.083 -0.025,-0.191 0.057,-0.241 0.229,-0.142 0.418,-0.329 0.533,-0.533 0.048,-0.084 0.154,-0.113 0.237,-0.065 0.084,0.048 0.114,0.153 0.066,0.238 -0.144,0.253 -0.375,0.487 -0.655,0.658 -0.082,0.05 -0.188,0.025 -0.238,-0.057 M 35.925,10.18 C 35.85,10.032 35.854,9.815 35.859,9.624 c 0,-0.039 0.034,-0.071 0.074,-0.07 0.039,10e-4 0.07,0.034 0.07,0.074 -0.004,0.173 -0.01,0.371 0.049,0.486 0.019,0.035 0.005,0.078 -0.031,0.097 -0.035,0.018 -0.079,0.004 -0.096,-0.031 m -1.848,3.145 c -0.029,-0.037 -0.023,-0.09 0.013,-0.12 0.429,-0.35 0.861,-0.823 1.253,-1.372 0.027,-0.038 0.081,-0.047 0.118,-0.019 0.038,0.027 0.046,0.08 0.019,0.118 -0.4,0.56 -0.845,1.047 -1.284,1.405 -0.036,0.028 -0.09,0.023 -0.119,-0.012 M 73.643,14.4 c -0.016,-0.069 0.025,-0.137 0.094,-0.153 1.564,-0.367 2.967,-1.173 4.452,-2.025 l 1.98,-1.09 c 0.06,-0.033 0.135,-0.009 0.168,0.053 0.034,0.062 0.007,0.141 -0.055,0.175 l -1.967,1.082 C 76.88,13.267 75.396,14.12 73.794,14.494 73.726,14.511 73.658,14.468 73.643,14.4 M 27.807,9.442 C 27.78,9.415 27.781,9.371 27.809,9.345 27.887,9.27 27.892,9.166 27.896,9.049 l 0.076,-0.327 c 0.007,-0.036 0.035,-0.038 0.072,-0.031 0.036,0.009 0.051,0.066 0.044,0.103 l -0.055,0.26 c -0.006,0.129 -0.012,0.275 -0.13,0.389 -0.026,0.026 -0.069,0.026 -0.096,-10e-4 m -8.509,6.002 c -0.081,-0.055 -0.103,-0.166 -0.047,-0.248 0.798,-1.183 1.784,-2.291 2.738,-3.36 l 0.75,-0.847 c 0.066,-0.073 0.179,-0.081 0.252,-0.014 0.073,0.064 0.081,0.175 0.016,0.25 l -0.752,0.849 c -0.946,1.061 -1.925,2.159 -2.711,3.322 -0.055,0.082 -0.165,0.104 -0.246,0.048 m 8.221,0.741 c -0.044,-0.06 -0.029,-0.144 0.03,-0.187 l 0.807,-0.577 c 1.283,-0.921 2.493,-1.789 3.818,-2.554 0.062,-0.037 0.143,-0.015 0.18,0.049 0.038,0.063 0.014,0.145 -0.048,0.181 -1.315,0.758 -2.52,1.624 -3.794,2.539 l -0.811,0.58 c -0.058,0.042 -0.141,0.028 -0.182,-0.031 m 9.012,-5.794 c -0.039,-0.052 -0.029,-0.122 0.021,-0.162 l 0.392,-0.298 0.641,-0.509 c 0.05,-0.039 0.127,-0.034 0.166,0.016 0.04,0.049 0.036,0.12 -0.015,0.159 l -0.654,0.518 -0.388,0.297 c -0.051,0.038 -0.125,0.029 -0.163,-0.021 m -3.058,7.337 -0.625,-0.059 c -0.43,-0.022 -0.874,-0.045 -1.28,-0.272 -0.094,-0.052 -0.13,-0.171 -0.077,-0.268 0.053,-0.094 0.172,-0.128 0.268,-0.075 0.326,0.182 0.707,0.202 1.11,0.223 l 0.674,0.064 c 0.107,0.01 0.17,0.103 0.16,0.212 -0.009,0.108 -0.122,0.184 -0.23,0.175 m -6.077,3.082 c -0.042,-0.033 -0.045,-0.094 -0.013,-0.135 l 0.262,-0.337 c 0.177,-0.239 0.361,-0.486 0.621,-0.663 0.042,-0.029 0.1,-0.018 0.129,0.025 0.029,0.043 0.018,0.101 -0.025,0.13 -0.233,0.157 -0.399,0.382 -0.574,0.619 l -0.274,0.349 c -0.031,0.04 -0.086,0.043 -0.126,0.012 m 23.364,3.024 c -0.028,-0.093 0.024,-0.19 0.117,-0.217 0.445,-0.132 0.971,-0.3 1.477,-0.532 0.087,-0.04 0.19,-0.002 0.231,0.087 0.039,0.088 10e-4,0.19 -0.086,0.231 -0.53,0.243 -1.093,0.421 -1.523,0.547 -0.092,0.029 -0.189,-0.024 -0.216,-0.116 M 61.331,18.08 c -0.108,-0.06 -0.24,-0.055 -0.379,-0.049 L 60.724,18.03 c -0.039,0 -0.066,-0.032 -0.066,-0.072 0.002,-0.04 0.04,-0.07 0.08,-0.07 h 0.208 c 0.153,-0.006 0.309,-0.013 0.453,0.065 0.036,0.02 0.048,0.063 0.029,0.099 -0.019,0.035 -0.062,0.047 -0.097,0.028 m -9.398,7.063 c -0.051,-0.091 -0.04,-0.192 0.05,-0.241 l 0.835,-0.466 0.679,-0.361 c 0.092,-0.048 0.223,-0.023 0.271,0.069 0.048,0.09 0.031,0.196 -0.061,0.245 l -0.729,0.388 -0.768,0.424 c -0.091,0.051 -0.228,0.032 -0.277,-0.058 M 40.197,26.365 C 40.105,26.289 40.095,26.151 40.172,26.06 l 0.635,-0.755 c 1.55,-1.844 3.155,-3.752 4.56,-5.737 0.069,-0.096 0.204,-0.12 0.302,-0.05 0.097,0.069 0.121,0.205 0.051,0.302 -1.415,1.999 -3.026,3.913 -4.583,5.765 l -0.634,0.755 c -0.077,0.091 -0.214,0.102 -0.306,0.025 m 9.344,-12.201 c -0.076,-0.043 -0.104,-0.142 -0.062,-0.219 0.523,-0.934 1.159,-1.815 1.775,-2.668 0.613,-0.85 1.248,-1.73 1.763,-2.656 0.043,-0.077 0.14,-0.104 0.217,-0.061 0.078,0.043 0.105,0.141 0.061,0.218 -0.523,0.941 -1.163,1.828 -1.783,2.687 -0.61,0.845 -1.241,1.718 -1.754,2.637 -0.042,0.077 -0.14,0.105 -0.217,0.062 m -4.753,13.079 c -0.077,-0.056 -0.109,-0.141 -0.055,-0.22 l 0.247,-0.347 0.183,-0.243 c 0.058,-0.077 0.177,-0.107 0.254,-0.049 0.077,0.057 0.102,0.152 0.045,0.228 l -0.213,0.286 -0.204,0.283 c -0.057,0.078 -0.18,0.119 -0.257,0.062 M 65.617,10.89 c -0.071,-0.092 -0.083,-0.201 0.009,-0.275 l 0.249,-0.198 0.154,-0.113 c 0.094,-0.07 0.246,-0.066 0.317,0.027 0.069,0.096 0.069,0.212 -0.024,0.281 l -0.213,0.162 -0.169,0.128 c -0.091,0.074 -0.251,0.079 -0.323,-0.012 M 66.071,9.582 C 65.234,9.227 64.333,8.958 63.462,8.698 62.687,8.467 61.886,8.228 61.132,7.93 61.047,7.896 61.004,7.798 61.038,7.713 c 0.033,-0.086 0.13,-0.128 0.216,-0.095 0.74,0.293 1.534,0.53 2.303,0.759 0.88,0.264 1.789,0.535 2.643,0.897 0.085,0.035 0.125,0.133 0.09,0.217 -0.036,0.086 -0.134,0.127 -0.219,0.091 m -16.286,5.012 c -0.058,-0.057 -0.06,-0.151 -0.004,-0.21 1.346,-1.412 2.611,-3.071 3.834,-4.677 l 0.308,-0.403 c 0.05,-0.066 0.142,-0.079 0.208,-0.028 0.064,0.05 0.077,0.143 0.027,0.207 l -0.307,0.405 c -1.229,1.61 -2.498,3.277 -3.856,4.701 -0.057,0.06 -0.15,0.062 -0.21,0.005 m -4.1,12.796 c -0.031,-0.03 -0.038,-0.071 -0.009,-0.101 l 0.139,-0.155 0.136,-0.167 c 0.027,-0.032 0.086,-0.065 0.119,-0.039 0.032,0.025 0.051,0.046 0.027,0.078 l -0.175,0.233 -0.126,0.139 c -0.027,0.03 -0.08,0.04 -0.111,0.012 m 10.838,2.161 c -0.009,-0.097 -0.11,-0.165 -0.207,-0.155 l 0.381,-0.042 c 0.098,-0.01 0.162,0.061 0.173,0.159 0.011,0.098 -0.082,0.187 -0.18,0.198 l -0.31,0.035 c 0.097,-0.011 0.155,-0.097 0.143,-0.195 m -3.128,-2.81 c -0.037,-0.101 0.043,-0.221 0.146,-0.257 l 0.75,-0.263 0.373,-0.152 c 0.101,-0.042 0.209,0.009 0.25,0.11 0.041,0.1 -0.011,0.217 -0.113,0.259 l -0.356,0.145 -0.828,0.287 c -0.101,0.036 -0.186,-0.025 -0.222,-0.129 m -37.81,12.658 c -0.093,-0.075 -0.103,-0.215 -0.027,-0.308 l 0.687,-0.847 0.931,-1.126 c 0.076,-0.092 0.207,-0.097 0.298,-0.021 0.092,0.077 0.099,0.219 0.023,0.311 l -0.914,1.106 -0.697,0.859 c -0.075,0.092 -0.208,0.102 -0.301,0.026 m -2.736,3.363 c -0.084,-0.049 -0.112,-0.158 -0.062,-0.241 0.371,-0.626 0.942,-1.128 1.353,-1.439 0.077,-0.059 0.186,-0.044 0.245,0.033 0.058,0.078 0.043,0.19 -0.034,0.247 -0.387,0.291 -0.921,0.762 -1.263,1.339 -0.049,0.083 -0.156,0.11 -0.239,0.061 m -2.622,0.716 C 10.132,43.446 10.08,43.343 10.11,43.247 l 0.063,-0.184 c -0.032,0.094 0.02,0.201 0.115,0.23 0.096,0.032 0.197,-0.02 0.231,-0.115 l -0.062,0.185 c -0.031,0.096 -0.135,0.147 -0.23,0.115 m 0.544,4.177 c -0.039,-0.039 -0.037,-0.102 0.002,-0.139 1.997,-1.904 4.602,-3.162 7.123,-4.375 l 0.92,-0.445 c 0.049,-0.024 0.108,-0.004 0.131,0.045 0.024,0.049 0.004,0.108 -0.045,0.132 l -0.921,0.446 c -2.506,1.208 -5.098,2.457 -7.071,4.339 -0.039,0.038 -0.102,0.036 -0.139,-0.003 M 7.349,48.613 C 7.293,48.563 7.278,48.49 7.328,48.435 l 0.526,-0.583 0.511,-0.573 c 0.05,-0.055 0.147,-0.075 0.203,-0.023 0.055,0.049 0.071,0.12 0.021,0.177 L 8.044,48.045 7.55,48.591 C 7.5,48.647 7.403,48.665 7.349,48.613 m 15.016,1.816 c -0.035,-0.04 -0.031,-0.099 0.006,-0.135 0.493,-0.44 1.041,-0.854 1.628,-1.225 0.044,-0.028 0.103,-0.014 0.13,0.031 0.027,0.044 0.015,0.103 -0.03,0.129 -0.578,0.366 -1.118,0.772 -1.601,1.206 -0.04,0.035 -0.099,0.031 -0.133,-0.006 m -11.27,-2.294 c -0.027,-0.085 0.023,-0.173 0.107,-0.199 l 0.404,-0.123 0.995,-0.266 c 0.085,-0.023 0.16,0.03 0.182,0.114 0.023,0.085 -0.04,0.176 -0.124,0.198 l -0.96,0.258 -0.41,0.125 c -0.083,0.025 -0.17,-0.022 -0.194,-0.107 m -2.283,1.19 C 8.765,49.246 8.791,49.144 8.87,49.097 l 0.891,-0.53 c -0.079,0.048 -0.107,0.151 -0.06,0.23 0.047,0.079 0.15,0.106 0.229,0.058 L 9.04,49.384 C 8.961,49.432 8.858,49.405 8.812,49.325 m -17,12.926 c -0.058,-0.082 -0.038,-0.195 0.043,-0.252 3.504,-2.461 6.754,-5.373 9.897,-8.189 l 1.069,-0.957 c 0.074,-0.067 0.187,-0.06 0.254,0.015 0.066,0.074 0.06,0.189 -0.014,0.255 L 1.992,54.08 c -3.151,2.823 -6.408,5.742 -9.93,8.215 -0.081,0.058 -0.193,0.037 -0.25,-0.044 m -0.928,-0.425 c -0.007,-0.252 0.079,-0.47 0.162,-0.681 l 0.128,-0.388 c 0.02,-0.062 0.091,-0.109 0.153,-0.088 0.062,0.02 0.098,0.073 0.078,0.137 l -0.139,0.425 c -0.079,0.199 -0.153,0.384 -0.147,0.588 0.002,0.066 -0.049,0.12 -0.114,0.122 -0.066,0.002 -0.119,-0.05 -0.121,-0.115 M -8.1,58.797 C -8.154,58.783 -8.188,58.73 -8.175,58.676 l 0.492,-2.061 c 0.327,-1.328 0.664,-2.703 0.891,-4.068 0.01,-0.056 0.062,-0.094 0.117,-0.084 0.056,0.009 0.094,0.061 0.084,0.117 -0.228,1.373 -0.566,2.751 -0.894,4.084 l -0.492,2.057 c -0.013,0.054 -0.068,0.09 -0.123,0.076 M 0.418,43.529 C 0.391,43.505 0.388,43.463 0.41,43.436 1.181,42.527 2.062,41.712 2.914,40.926 3.756,40.148 4.628,39.343 5.371,38.46 5.395,38.432 5.436,38.429 5.463,38.452 5.49,38.476 5.494,38.517 5.47,38.544 4.723,39.434 3.848,40.242 3.001,41.023 2.152,41.807 1.274,42.617 0.51,43.521 0.487,43.549 0.446,43.552 0.418,43.529 m 135.57,-28.8 C 122.784,6.415 109.763,-1.415 95.628,-5.863 c -0.097,-0.031 -0.149,-0.133 -0.119,-0.23 0.03,-0.095 0.132,-0.149 0.228,-0.119 14.175,4.461 27.22,12.303 40.445,20.631 0.085,0.053 0.11,0.166 0.057,0.251 -0.053,0.086 -0.166,0.111 -0.251,0.059 M 58.029,29.283 c -0.033,-0.091 -0.023,-0.174 0.068,-0.207 l 0.493,-0.184 0.136,-0.032 c 0.093,-0.021 0.194,0.036 0.215,0.13 0.023,0.095 -0.031,0.19 -0.125,0.212 l -0.151,0.036 -0.375,0.134 c -0.092,0.033 -0.228,0.004 -0.261,-0.089 m -32.693,18.58 c -0.024,-0.054 0,-0.119 0.055,-0.143 0.326,-0.147 0.582,-0.394 0.853,-0.655 0.229,-0.221 0.466,-0.451 0.751,-0.613 0.052,-0.03 0.118,-0.012 0.148,0.04 0.029,0.053 0.011,0.117 -0.041,0.148 -0.262,0.149 -0.479,0.359 -0.709,0.582 -0.272,0.261 -0.553,0.533 -0.915,0.695 -0.054,0.024 -0.118,0 -0.142,-0.054 M -4.183,76.114 c -0.03,-0.05 -0.015,-0.112 0.032,-0.141 l 2.314,-1.472 c 6.618,-4.19 15.681,-9.927 22.207,-17.285 1.943,-2.193 4.192,-5.044 4.326,-7.666 0.003,-0.057 0.052,-0.102 0.109,-0.098 0.056,0.002 0.1,0.052 0.096,0.109 -0.137,2.685 -2.413,5.575 -4.378,7.791 C 13.978,64.731 4.9,70.479 -1.728,74.674 l -2.312,1.471 c -0.049,0.03 -0.112,0.017 -0.143,-0.031 M 8.568,52.512 c -0.035,-0.044 -0.026,-0.11 0.018,-0.146 0.045,-0.035 0.11,-0.027 0.145,0.018 2.373,3.02 6.536,2.54 12.725,-1.47 0.048,-0.032 0.112,-0.017 0.144,0.031 0.03,0.048 0.016,0.113 -0.032,0.144 -6.296,4.078 -10.547,4.544 -13,1.423 m -19.265,14.317 c -0.079,-0.014 -0.133,-0.091 -0.119,-0.172 0.064,-0.359 0.206,-0.711 0.342,-1.052 0.202,-0.501 0.392,-0.973 0.349,-1.455 -0.008,-0.081 0.051,-0.153 0.132,-0.16 0.081,-0.008 0.153,0.053 0.161,0.134 0.051,0.552 -0.162,1.081 -0.367,1.593 -0.132,0.326 -0.268,0.663 -0.326,0.993 -0.015,0.081 -0.091,0.134 -0.172,0.119 m -1.978,-7.305 c -0.063,-0.042 -0.08,-0.127 -0.039,-0.191 1.99,-3.029 3.655,-5.252 5.401,-7.208 0.05,-0.057 0.138,-0.062 0.194,-0.011 0.057,0.051 0.062,0.138 0.011,0.196 -1.735,1.943 -3.393,4.157 -5.376,7.175 -0.042,0.063 -0.127,0.081 -0.191,0.039 m 6.56,-8.746 C -6.15,50.746 -6.156,50.691 -6.124,50.655 l 2.97,-3.413 1.933,-2.201 c 0.032,-0.036 0.088,-0.04 0.124,-0.008 0.036,0.032 0.041,0.087 0.009,0.123 l -1.936,2.202 -2.966,3.411 c -0.032,0.036 -0.088,0.042 -0.125,0.009 m 5.18,-11.915 c -1.752,-0.816 -3.971,-1.045 -6.6,-0.68 -0.088,0.011 -0.172,-0.051 -0.183,-0.141 -0.013,-0.09 0.049,-0.173 0.14,-0.185 2.69,-0.373 4.972,-0.134 6.781,0.708 0.082,0.039 0.117,0.136 0.079,0.219 -0.038,0.081 -0.136,0.117 -0.217,0.079 m 8.378,-1.808 c -0.031,-0.031 -0.032,-0.08 -0.002,-0.112 1.333,-1.379 3.105,-2.648 5.269,-3.776 0.038,-0.02 0.085,-0.006 0.104,0.033 0.02,0.038 0.005,0.085 -0.033,0.105 -2.149,1.121 -3.908,2.382 -5.228,3.748 -0.031,0.03 -0.08,0.031 -0.11,0.002 m 8.584,-1.836 c -0.071,-0.034 -0.101,-0.121 -0.067,-0.194 1.192,-2.521 2.941,-4.708 4.633,-6.825 l 1.036,-1.304 c 0.05,-0.061 0.142,-0.073 0.204,-0.024 0.063,0.051 0.073,0.141 0.023,0.203 l -1.038,1.309 c -1.68,2.101 -3.42,4.275 -4.596,6.766 -0.035,0.072 -0.121,0.103 -0.195,0.069 M 29.667,17.503 27.936,17.31 c -0.111,-0.013 -0.178,-0.111 -0.165,-0.223 0.011,-0.11 0.125,-0.19 0.236,-0.177 l 1.73,0.193 c 0.111,0.012 0.179,0.111 0.165,0.222 -0.011,0.111 -0.125,0.191 -0.235,0.178 m -8.535,3.369 c -0.054,-0.083 -0.029,-0.193 0.053,-0.246 1.299,-0.844 2.528,-1.849 3.674,-2.804 0.076,-0.063 0.188,-0.052 0.25,0.023 0.063,0.075 0.053,0.188 -0.022,0.251 -1.155,0.963 -2.393,1.974 -3.708,2.829 -0.084,0.053 -0.193,0.029 -0.247,-0.053 M 8.066,29.981 C 7.998,29.894 8.013,29.767 8.1,29.698 c 1.727,-1.359 3.628,-2.531 5.464,-3.665 2.224,-1.372 4.522,-2.791 6.524,-4.546 0.084,-0.073 0.211,-0.064 0.283,0.021 0.072,0.083 0.065,0.21 -0.018,0.284 -2.028,1.776 -4.34,3.204 -6.578,4.584 -1.828,1.128 -3.717,2.294 -5.427,3.639 -0.087,0.068 -0.214,0.052 -0.282,-0.034 m 3.059,-4.485 c -0.072,-0.067 -0.076,-0.181 -0.009,-0.251 2.277,-2.442 4.316,-5.234 6.289,-7.934 l 0.196,-0.269 c 0.058,-0.078 0.17,-0.095 0.248,-0.037 0.078,0.058 0.096,0.169 0.039,0.249 l -0.197,0.267 c -1.978,2.708 -4.025,5.509 -6.315,7.966 -0.068,0.073 -0.18,0.076 -0.251,0.009 M 8.22,27.688 c -0.026,-0.057 -0.001,-0.125 0.057,-0.15 0.369,-0.167 0.696,-0.417 1.01,-0.659 l 0.629,-0.452 c 0.051,-0.037 0.116,-0.021 0.153,0.03 0.037,0.051 0.019,0.126 -0.032,0.163 L 9.426,27.061 C 9.101,27.31 8.763,27.569 8.37,27.745 8.313,27.772 8.245,27.746 8.22,27.688 M -6.026,21.511 c -0.023,-0.112 0.046,-0.219 0.155,-0.241 l 1.499,-0.308 c 0.111,-0.023 0.223,0.047 0.245,0.157 0.023,0.111 -0.044,0.218 -0.154,0.24 l -1.5,0.309 c -0.112,0.022 -0.223,-0.047 -0.245,-0.157 m 7.539,-2.513 c -0.063,-0.065 -0.06,-0.172 0.008,-0.234 0.643,-0.609 1.402,-1.103 2.136,-1.581 0.722,-0.47 1.467,-0.956 2.092,-1.544 0.067,-0.063 0.172,-0.06 0.234,0.007 0.063,0.066 0.059,0.172 -0.007,0.234 -0.647,0.609 -1.405,1.103 -2.139,1.581 -0.722,0.471 -1.468,0.957 -2.09,1.545 -0.067,0.062 -0.172,0.059 -0.234,-0.008 m 16.514,-8.219 -0.836,-0.241 c -0.729,-0.236 -1.419,-0.46 -2.155,-0.17 -0.057,0.024 -0.126,-0.005 -0.146,-0.064 -0.025,-0.059 0.005,-0.125 0.063,-0.148 0.813,-0.318 1.573,-0.074 2.308,0.164 l 0.814,0.236 c 0.061,0.017 0.103,0.082 0.086,0.143 -0.017,0.06 -0.073,0.098 -0.134,0.08 M 9.91,12.197 C 9.896,12.161 9.914,12.12 9.95,12.105 l 0.66,-0.256 2.278,-0.957 c 0.036,-0.016 0.081,0 0.096,0.036 0.015,0.038 0.002,0.079 -0.035,0.093 l -2.287,0.959 -0.659,0.258 C 9.967,12.253 9.924,12.235 9.91,12.197 M 6.29,8.377 C 6.276,8.253 6.366,8.141 6.491,8.126 7.211,8.044 7.947,8.058 8.659,8.07 9.467,8.085 10.304,8.1 11.095,7.973 11.219,7.952 11.335,8.037 11.354,8.162 11.376,8.287 11.291,8.403 11.166,8.425 10.335,8.558 9.479,8.543 8.651,8.527 7.953,8.515 7.231,8.502 6.542,8.579 6.417,8.594 6.305,8.504 6.29,8.377 m 36.791,-18.896 c -0.124,-0.044 -0.188,-0.18 -0.145,-0.304 l 1.46,-4.167 c 0.044,-0.124 0.179,-0.189 0.303,-0.146 0.125,0.044 0.189,0.18 0.146,0.304 l -1.462,4.168 c -0.043,0.124 -0.179,0.188 -0.302,0.145 m 1.08,0.712 c -0.084,-0.091 -0.076,-0.235 0.017,-0.318 2.397,-2.164 4.971,-4.431 7.76,-6.281 0.105,-0.068 0.245,-0.04 0.313,0.064 0.069,0.105 0.041,0.245 -0.063,0.314 -2.764,1.834 -5.324,4.089 -7.709,6.239 -0.092,0.084 -0.235,0.076 -0.318,-0.018 m 21.397,0.977 c -0.099,-0.054 -0.135,-0.176 -0.082,-0.274 0.49,-0.907 1.057,-1.782 1.607,-2.627 l 1.066,-1.687 c 0.06,-0.094 0.186,-0.126 0.28,-0.066 0.093,0.059 0.124,0.18 0.064,0.275 l -1.074,1.698 c -0.545,0.839 -1.107,1.706 -1.59,2.599 -0.053,0.099 -0.175,0.135 -0.271,0.082 m 4.634,-1.392 c -0.083,-0.076 -0.088,-0.207 -0.013,-0.29 l 1.284,-1.427 c 0.974,-1.093 1.978,-2.223 3.062,-3.258 0.081,-0.077 0.21,-0.074 0.288,0.008 0.078,0.081 0.074,0.21 -0.007,0.287 -1.073,1.024 -2.073,2.148 -3.039,3.234 l -1.288,1.433 c -0.077,0.084 -0.204,0.088 -0.287,0.013 m 20.124,-3.312 c -0.056,-0.033 -0.079,-0.102 -0.045,-0.159 l 1.6,-2.794 c 1.858,-3.11 3.778,-6.326 3.462,-9.988 -0.006,-0.065 0.043,-0.123 0.108,-0.128 0.066,-0.005 0.123,0.042 0.129,0.109 0.324,3.738 -1.617,6.987 -3.494,10.13 l -1.595,2.782 c -0.032,0.058 -0.107,0.081 -0.165,0.048 m 33.777,-14.129 c -0.021,-0.045 0.005,-0.101 0.051,-0.121 l 1.645,-0.736 1.584,-0.71 c 0.044,-0.02 0.093,0.001 0.112,0.047 0.021,0.045 -0.004,0.102 -0.049,0.12 l -1.57,0.706 -1.661,0.741 c -0.045,0.021 -0.092,-0.003 -0.112,-0.047 M 90.47,-13.125 c -0.028,-0.077 0.011,-0.16 0.088,-0.188 9.596,-3.454 18.754,-7.568 27.31,-11.485 0.073,-0.034 0.16,-0.001 0.194,0.072 0.032,0.074 0.001,0.161 -0.073,0.193 -8.561,3.921 -17.725,8.038 -27.334,11.496 -0.075,0.028 -0.158,-0.012 -0.185,-0.088 m -1.171,0.536 c -0.046,-0.086 -0.011,-0.193 0.075,-0.24 l 0.561,-0.305 c 0.085,-0.046 0.187,-0.012 0.233,0.073 0.047,0.086 0.012,0.195 -0.074,0.242 l -0.56,0.302 c -0.086,0.046 -0.188,0.014 -0.235,-0.072 m -2.131,3.481 c -0.041,-0.021 -0.057,-0.071 -0.036,-0.111 0.184,-0.368 0.436,-0.697 0.681,-1.014 0.257,-0.335 0.521,-0.68 0.702,-1.067 0.018,-0.04 0.067,-0.058 0.108,-0.038 0.041,0.019 0.059,0.067 0.039,0.109 -0.188,0.401 -0.458,0.753 -0.72,1.094 -0.239,0.313 -0.487,0.635 -0.665,0.99 -0.02,0.041 -0.069,0.057 -0.109,0.037 M 6.895,28.352 C 6.86,28.271 6.771,28.23 6.689,28.265 L 6.91,28.171 c 0.082,-0.032 0.182,0.003 0.215,0.085 0.034,0.082 0.003,0.173 -0.079,0.206 l -0.241,0.102 c 0.081,-0.034 0.123,-0.13 0.09,-0.212 M -1.391,50.07 c -0.029,-0.037 -0.018,-0.091 0.017,-0.12 l 0.092,-0.075 0.157,-0.107 c 0.038,-0.026 0.068,-0.006 0.095,0.03 0.024,0.036 -0.002,0.098 -0.039,0.122 l -0.105,0.078 -0.106,0.088 c -0.035,0.028 -0.081,0.018 -0.111,-0.016 m 42.52,-0.694 c -0.08,-0.073 -0.087,-0.197 -0.013,-0.278 0.916,-1.011 1.791,-2.088 2.639,-3.129 1.12,-1.375 2.276,-2.798 3.549,-4.097 0.075,-0.079 0.199,-0.08 0.275,-0.002 0.078,0.075 0.079,0.199 0.003,0.276 -1.259,1.287 -2.411,2.702 -3.523,4.071 -0.851,1.045 -1.73,2.126 -2.655,3.145 -0.072,0.08 -0.196,0.086 -0.275,0.014 M 65.371,30.301 c -0.054,-0.101 -0.017,-0.226 0.084,-0.28 2.079,-1.12 4.263,-2.191 6.373,-3.225 l 2.176,-1.069 c 0.102,-0.051 0.225,-0.008 0.277,0.093 0.05,0.103 0.008,0.226 -0.093,0.278 l -2.178,1.07 c -2.109,1.032 -4.287,2.101 -6.36,3.218 -0.1,0.053 -0.225,0.016 -0.279,-0.085 m 10.267,-5.077 c -0.05,-0.115 0.003,-0.246 0.116,-0.295 5.813,-2.518 11.875,-4.65 17.737,-6.711 3.669,-1.29 7.463,-2.624 11.132,-4.032 0.115,-0.044 0.244,0.014 0.288,0.127 0.043,0.117 -0.015,0.246 -0.13,0.29 -3.674,1.41 -7.471,2.745 -11.142,4.037 -5.855,2.058 -11.909,4.187 -17.709,6.699 -0.113,0.05 -0.244,-0.003 -0.292,-0.115 m 53.554,-55.122 c -0.669,0.333 -0.304,-0.287 0,0 M 13.466,-3.395 13.264,-3.511 c 1.104,-0.357 2.532,-0.392 3.924,-0.463 0.626,-0.716 1.412,-0.879 1.958,-1.735 0.417,-0.65 0.662,-1.834 1.04,-2.778 0.405,-1.015 0.98,-1.971 1.038,-2.778 0.087,-1.217 -0.55,-2.273 -0.347,-3.471 0.167,-0.984 1.081,-2.313 2.077,-2.547 0.649,-0.153 1.871,0.154 2.076,0.346 1.629,1.532 0.007,4.03 -0.923,4.747 -0.544,0.419 -1.303,0.487 -1.73,0.925 -0.529,0.545 -0.895,1.822 -1.269,2.661 -0.836,1.876 -1.197,3.354 -1.846,5.093 -1.629,0.483 -3.963,-0.124 -5.767,0.348 z m 91.156,31.249 c 0.185,-1.351 1.475,-1.373 2.308,-2.083 0.687,-0.588 1.2,-1.832 2.19,-1.274 0.433,1.258 -1.069,1.423 -1.845,1.968 -0.791,0.556 -1.201,1.669 -2.538,1.506 V 27.854 Z M 82.014,43.827 c 0.082,1.287 -0.748,2.241 -1.961,1.85 -0.621,-1.059 0.425,-2.105 1.73,-1.966 l 0.058,0.173 z m 8.074,-6.019 c -0.563,0.551 -0.927,1.172 -1.615,1.62 -0.621,0.403 -1.457,0.455 -1.96,0.926 -0.761,0.712 -0.506,1.522 -1.384,1.967 -0.463,0.235 -1.332,0.136 -1.732,0.348 l -0.056,-0.174 -0.174,0.059 c 0.278,-1.457 0.968,-2.503 2.769,-2.431 1.195,-0.924 2.096,-2.141 3.806,-2.547 l 0.15,0.151 z m 5.767,-3.82 c -0.667,1.376 -2.234,1.848 -3.691,2.43 l -0.15,-0.149 -0.196,-0.081 c 1.139,-1.056 2.078,-2.314 4.037,-2.547 l -0.057,0.173 z m 4.038,-2.663 c -0.382,0.776 -1.091,1.221 -2.077,1.39 L 97.76,32.542 97.586,32.483 c 0.512,-0.682 1.14,-1.248 2.191,-1.388 l -0.057,0.174 z m 2.883,-2.197 h 0.116 c -0.19,0.426 -0.365,0.869 -0.577,1.272 -0.544,0.034 -0.817,0.338 -1.5,0.233 L 100.873,30.458 100.7,30.4 c 0.076,-1.081 0.777,-1.535 2.076,-1.388 z m -28.607,9.953 c -0.356,-1.049 -1.423,-1.428 -1.845,-2.314 -0.434,-0.916 -0.529,-3.288 -0.115,-4.284 0.324,-0.781 1.515,-1.457 1.96,-2.545 0.366,-0.895 0.24,-1.449 0.809,-1.967 0.633,-0.004 0.704,0.396 1.267,0.462 1.913,0.225 5.614,-2.327 5.999,0.463 0.15,1.088 -0.769,2.215 -1.5,3.24 -1.13,1.586 -2.098,2.694 -2.884,4.167 -0.142,-0.242 -0.335,-0.435 -0.577,-0.578 0.121,0.341 0.585,0.339 0.462,0.925 -0.169,0.494 -0.533,0.076 -0.807,0.463 l -0.173,0.135 0.057,0.212 c -0.713,0.674 -1.888,0.882 -2.423,1.736 l -0.057,-0.174 z m -2.883,2.546 c -0.177,-1.411 0.877,-1.589 1.961,-1.735 l 0.058,0.171 0.173,-0.056 c -0.12,0.497 -0.226,1.008 -0.462,1.389 -0.52,0.206 -0.959,0.594 -1.616,0.346 l 0.059,-0.174 z m -1.789,1.562 0.174,-0.058 c -0.687,1.074 -1.573,1.66 -2.999,2.314 -0.502,0.232 -0.987,0.393 -1.385,0.697 -0.404,0.307 -0.656,0.783 -1.038,1.04 -0.388,0.261 -1.077,0.249 -1.499,0.464 -0.556,0.28 -1.087,0.955 -1.73,1.273 -0.765,0.377 -1.68,0.405 -2.307,0.809 -0.527,0.34 -0.81,1.052 -1.385,1.389 -0.661,0.388 -1.227,0.337 -1.961,0.578 -0.337,0.557 -0.249,1.595 -0.115,2.316 0.19,0.503 0.917,0.468 0.808,1.272 -1.591,0.411 -4.281,-0.067 -4.153,-1.851 0.114,-1.61 1.969,-1.624 2.999,-2.315 0.69,-0.462 0.894,-1.201 1.499,-1.505 0.533,-0.265 1.122,-0.09 1.847,-0.346 0.855,-0.304 1.482,-1.185 2.307,-1.62 0.468,-0.249 1.045,-0.331 1.499,-0.58 0.469,-0.258 0.802,-0.667 1.268,-0.924 0.671,-0.373 1.449,-0.465 2.077,-0.811 1.242,-0.686 2.591,-2.154 4.152,-2.315 z m 66.962,-76.674 c -0.295,-0.091 -0.53,0.452 -0.692,0.114 0.344,-10e-4 0.392,-0.301 0.692,-0.346 z M 48.907,-3.858 c -0.65,-0.032 -1.451,-0.431 -1.153,-1.041 0.736,-0.428 1.291,0.323 1.499,0.81 l -0.195,0.081 z m 11.19,2.662 c 0.152,-0.619 0.608,-0.934 0.923,-1.389 l 0.134,0.174 0.212,-0.059 c -0.029,0.338 0.217,0.401 0.345,0.58 l -0.173,0.058 0.058,0.174 c -0.325,0.214 -0.76,0.317 -1.154,0.462 L 60.27,-1.255 Z m -1.27,0.579 c 0.249,-0.251 0.674,-0.327 1.038,-0.463 l 0.151,0.151 0.196,0.08 c -0.224,0.393 -0.444,0.789 -0.808,1.042 L 59.271,0.02 59.059,0.077 c 0.008,-0.201 -0.026,-0.36 -0.116,-0.463 L 59.001,-0.56 Z M 45.908,4.476 c 0.307,0.001 0.659,-0.044 0.809,0.115 l -0.059,0.174 0.059,0.173 C 46.555,5.123 46.319,5.233 46.023,5.285 L 45.966,5.112 45.792,5.17 V 4.706 L 45.966,4.648 Z M 28.49,5.98 c -0.008,0.202 0.027,0.359 0.115,0.463 l -0.172,0.058 0.057,0.173 c -0.226,0.159 -0.658,0.111 -0.923,0.231 l 0.042,-0.206 -0.157,-0.14 c 0.183,-0.282 0.413,-0.512 0.694,-0.695 l 0.133,0.173 z m 35.413,-8.912 c 0.246,-0.524 0.601,-0.941 1.038,-1.272 l 0.135,0.173 0.211,-0.058 c -0.017,0.287 0.182,0.359 0.232,0.578 l -0.058,0.174 0.173,0.058 c -0.388,0.229 -0.852,0.381 -1.385,0.464 l -0.14,-0.159 z m -1.5,1.736 v -0.462 c -0.115,0 -0.136,-0.094 -0.23,-0.115 l 0.057,-0.175 -0.172,-0.058 c 0.421,-0.27 0.956,-0.43 1.5,-0.579 l -0.041,0.206 0.155,0.141 c -0.177,0.517 -0.625,0.761 -0.922,1.158 L 62.615,-1.255 Z M 45.332,19.753 c 0.164,-1.014 -1.092,-0.604 -1.154,-1.389 0.091,-0.527 0.718,-0.515 1.154,-0.695 0.47,-0.608 0.796,-1.362 1.269,-1.968 1.739,0.744 2.063,-1.012 2.883,-1.851 l 0.135,0.173 0.211,-0.057 c 0.019,0.136 -0.018,0.328 0.116,0.347 l -0.057,0.174 0.057,0.173 c -0.182,0.614 -1.073,0.919 -0.693,1.736 -0.297,0.436 -0.683,0.284 -0.922,0.811 -0.337,0.74 0.214,1.935 -0.347,2.43 -0.525,0.243 -1.835,-0.314 -2.306,0.232 L 45.543,19.694 Z M 12.688,47.53 c 0.402,-0.261 1.11,-0.537 1.614,-0.348 -0.075,0.849 -0.798,1.05 -1.154,1.621 -0.177,-0.324 -0.156,-0.847 -0.576,-0.926 l 0.057,-0.174 z m -3,1.041 c 0.238,-0.456 0.584,-0.804 1.039,-1.041 l 0.115,0.057 0.115,-0.057 c 0.123,0.108 0.036,0.426 0.347,0.347 l -0.059,0.212 0.174,0.134 c -0.495,0.276 -1.056,0.485 -1.615,0.696 l 0.041,-0.207 z m -17.649,10.07 c 0.128,1.13 -0.102,1.901 -0.691,2.314 L -8.71,60.78 -8.883,60.84 c -0.42,-0.989 0.302,-1.656 0.693,-2.199 l 0.115,0.057 z M 80.226,11.246 80.053,11.188 C 79.792,9.79 77.38,10.75 76.477,11.072 c -1.583,0.566 -3.362,1.155 -2.538,3.241 l -0.173,0.058 0.057,0.174 c -0.238,0.764 -0.676,1.327 -1.153,1.851 -2.419,-0.112 -4.327,2.569 -3.115,4.514 1.072,-0.275 2.166,-0.528 3,-1.041 -0.2,-1.107 -0.123,-1.98 0.692,-1.969 0.85,0.013 0.472,0.857 1.152,1.274 1.774,-0.397 5.038,-1.763 6.922,-2.546 0.783,-0.326 1.695,-0.548 2.307,-0.927 0.432,-0.265 0.902,-1.04 1.615,-1.504 0.54,-0.35 1.277,-0.465 1.499,-0.81 0.161,-0.249 0.276,-0.831 0.232,-1.158 -0.101,-0.741 -4.461,-1.74 -5.306,-1.62 -0.727,0.104 -0.854,0.646 -1.5,0.81 z m -21.629,17.65 c 0.96,-0.328 2.191,-0.876 2.999,-1.158 0.413,-0.142 0.909,-0.074 1.269,-0.231 0.675,-0.293 1.94,-1.334 1.731,-2.315 -0.169,-0.783 -1.722,-1.249 -2.654,-1.273 -0.759,-0.02 -1.345,0.368 -2.191,0.695 -1.677,0.648 -3.622,1.399 -5.075,1.851 l 0.057,-0.212 -0.173,-0.135 c 1.802,-1.008 4.086,-1.532 5.999,-2.43 -0.023,-0.826 -0.508,-1.189 -1.038,-1.504 -2.368,0.288 -3.904,1.407 -5.769,2.198 L 53.603,24.231 53.407,24.15 c 0.447,-0.624 -0.54,-0.65 -1.039,-0.693 l 0.058,-0.213 -0.173,-0.136 c 0.288,-0.481 0.775,-0.763 1.268,-1.041 2.416,0.541 3.556,-1.588 5.883,-0.809 0.839,-0.786 1.985,-1.86 1.846,-3.241 h 0.116 V 17.9 h 0.46 c 1.123,-1.46 6.056,-2.058 7.498,-3.934 0.475,-0.616 0.688,-1.607 0.462,-2.083 -0.426,-0.901 -2.68,-2.325 -3.461,-1.274 l -0.149,-0.15 -0.196,-0.081 c 0.225,-0.317 0.225,-0.493 0,-0.811 l 0.156,-0.14 -0.04,-0.206 c 0.325,0.058 0.489,0.279 0.806,0.346 1.437,-0.756 2.373,-2.016 3.923,-2.662 l 0.058,0.174 0.172,-0.058 c -0.018,0.683 0.492,0.881 0.807,1.505 0.466,0.919 0.422,1.627 1.154,1.737 0.695,0.102 1.506,-0.754 2.307,-1.042 0.941,-0.339 1.874,-0.282 2.537,-0.811 0.766,0.533 1.718,0.33 2.769,0.463 0.65,0.083 1.272,0.34 1.73,0.232 1.629,-0.387 1.575,-3.637 4.037,-3.357 0.566,0.065 1.31,0.532 1.385,1.505 0.086,1.131 -0.923,1.489 -0.577,2.777 0.354,1.32 3.653,1.116 3.46,3.01 -0.107,1.059 -1.425,1.211 -2.536,1.505 -0.78,1.185 -2.28,1.647 -4.154,1.734 0.049,0.222 0.331,0.211 0.231,0.579 -0.645,0.081 0.071,-0.486 -0.462,-0.462 -3.725,1.436 -8.612,3.53 -12.804,4.746 -1.857,0.538 -2.543,0.66 -3.806,1.736 -1.046,0.891 -1.75,1.305 -1.499,2.893 -0.301,1.169 -1.727,1.419 -2.308,2.083 -0.443,0.507 -0.304,1.339 -1.038,1.621 -1.194,-0.257 -2.254,-0.692 -3.575,-0.231 l 0.058,-0.214 z m -1.96,0.463 c 0.449,-0.205 1.032,-0.275 1.615,-0.347 l -0.058,0.212 0.172,0.135 c -0.394,0.843 -0.932,0.801 -1.729,0.347 l 0.056,-0.174 z m -60.79,46.872 c 0.004,0.351 -0.58,0.112 -0.577,0.464 0.156,2.441 -3.274,4.736 -4.731,2.894 -0.125,-0.161 -0.308,-0.524 -0.345,-0.696 -0.48,-2.231 2.461,-3.69 4.845,-2.546 0.245,-0.177 0.514,-0.332 0.808,-0.461 l 0.056,0.173 z M 23.991,49.034 c 0.206,-0.758 0.39,-1.538 1.5,-1.388 l -0.057,0.173 0.173,0.058 c -0.163,0.646 -0.663,0.954 -0.692,1.735 L 24.8,49.555 24.685,49.612 c -0.18,-0.168 -0.229,-0.466 -0.694,-0.346 l 0.059,-0.117 z m -2.537,1.852 c 0.15,-0.429 0.559,-0.599 1.038,-0.695 l -0.057,0.174 0.172,-0.058 c -0.092,0.562 -0.438,0.872 -1.153,0.81 l 0.059,-0.115 z M 2.769,52.853 c 1.252,-1.79 2.966,-3.119 4.613,-4.513 l 0.057,0.173 0.174,-0.058 c -0.064,0.876 0.841,0.922 1.384,0.579 L 8.955,49.24 9.112,49.381 C 8.861,50.383 8.298,51.438 8.766,52.506 L 8.65,52.447 8.535,52.506 C 7.359,51.75 6.894,53.936 5.536,54.126 4.233,54.31 4.299,53.542 2.884,53.201 L 2.94,52.988 Z m -13.267,13.773 c -0.515,1.616 0.749,2.553 0.577,4.051 -0.12,1.045 -1.28,2.333 -2.423,2.315 -1.45,-0.023 -2.137,-1.629 -1.614,-3.125 0.508,-1.455 2.812,-1.746 3.113,-3.241 l 0.174,0.058 z m -1.961,-7.06 c -1.106,1.412 -1.716,4.09 0.461,4.399 1.095,-0.139 1.648,-0.817 2.537,-1.158 0.111,-0.315 0.188,-0.662 0.348,-0.926 l 0.115,-0.059 0.115,-0.057 c 0.152,0.304 0.379,0.355 0.693,0.232 l 0.149,0.149 0.196,0.083 c -0.615,0.694 -1.759,0.857 -1.961,1.966 l -0.173,-0.058 -0.057,0.175 c -0.131,-0.025 -0.18,-0.129 -0.231,-0.233 -1.262,0.111 -3.553,1.893 -4.383,0.348 -0.924,-1.717 1.604,-4.268 1.961,-5.208 l 0.09,0.19 z m 6.575,-8.912 c 0.05,0.937 -0.743,1.03 -0.691,1.968 l -0.115,-0.059 -0.117,0.059 c -0.164,-0.028 -0.194,-0.19 -0.346,-0.231 L -7.21,52.216 -7.384,52.158 c 0.555,-0.447 0.493,-1.512 1.384,-1.62 l -0.057,0.174 z m 4.96,-12.152 c 0.386,-0.002 0.77,0 0.693,0.462 -0.087,0.432 -0.745,0.162 -0.808,-0.115 l 0.173,-0.135 z M 8.419,29.938 C 7.64,30.427 8.299,31.61 7.958,32.6 7.445,34.086 5.063,34.358 4.959,32.6 4.851,30.764 7.152,30.492 8.073,29.706 l 0.151,0.15 z M 21.454,20.91 c -0.243,0.45 -0.769,0.616 -1.153,0.926 L 20.22,21.639 20.07,21.488 c 0.089,-0.505 -0.311,-0.902 0,-1.273 0.645,-0.107 0.603,0.475 1.269,0.348 l -0.058,0.212 z m -10.035,4.399 c -0.058,0.906 -0.575,1.351 -1.5,1.387 L 9.977,26.523 9.804,26.465 c 0.101,-0.785 0.563,-1.209 1.384,-1.273 l 0.057,0.173 z M -5.653,21.604 c -8.652,2.487 -19.896,2.233 -29.761,3.705 -1.481,0.22 -3.113,0.314 -3.922,0.924 -0.692,0.524 -0.988,1.558 -1.615,2.2 -0.184,0.189 -0.531,0.457 -0.807,0.695 -0.935,0.806 -4.057,2.467 -5.191,0.578 -0.55,-0.919 -0.121,-2.607 0.346,-3.241 1.471,-1.993 4.052,-1.588 7.152,-1.851 1.294,-0.11 2.624,-0.443 4.037,-0.58 1.404,-0.135 2.874,-0.137 4.384,-0.23 8.51,-0.532 18.591,-1.089 25.261,-2.546 l -0.057,0.212 z m 7.498,-2.778 c -0.074,0.917 0.635,1.739 0.23,2.662 -0.752,1.715 -3.301,0.302 -4.96,0.696 -0.449,0.106 -1.153,0.848 -1.961,1.388 -4.937,3.304 -9.399,6.174 -14.303,9.259 -2.884,1.814 -6.023,3.748 -8.997,5.208 -0.593,0.291 -1.036,0.628 -1.616,0.925 -1.944,1 -4.938,2.904 -7.382,2.778 -2.586,-0.132 -4.564,-1.869 -4.383,-4.86 0.568,-1.241 1.42,-1.8 2.653,-1.62 0.981,0.142 1.992,1.435 2.423,2.198 0.568,1.01 0.823,2.599 1.615,2.778 0.729,0.165 2.628,-1.023 3.574,-1.505 7.024,-3.569 13.177,-7.505 19.495,-11.458 1.476,-0.922 3.444,-1.646 3.922,-3.241 h 1.27 c 0.44,-0.623 4.317,-2.161 2.19,-2.662 L -4.327,21.161 -4.5,21.025 c 0.553,-0.146 0.677,-0.377 0.692,-0.694 0.037,-0.755 -1.314,-0.536 -1.153,-1.389 0.739,-0.679 1.438,0.236 2.307,0.348 1.341,0.173 2.783,-0.534 4.152,-0.579 l 0.136,0.174 z m 17.764,-3.587 v 0.231 c 0.759,1.071 3.881,0.988 5.767,1.158 1.196,0.106 1.694,-0.226 2.307,-0.694 l -0.057,0.172 0.173,0.058 v 0.464 c 0.118,0.113 0.233,0.228 0.347,0.348 l -0.174,0.133 0.058,0.213 c -1.354,-0.162 -2.233,0.152 -2.885,0.695 L 24.974,17.958 24.8,18.017 c 0.43,-1.204 -0.938,-0.895 -2.538,-1.041 -1.811,-0.167 -3.634,-0.696 -4.384,0.346 l -0.134,-0.174 -0.212,0.059 v -0.349 c -0.394,-0.716 -1.374,-0.616 -2.191,-0.694 -0.827,-0.077 -1.734,-0.123 -2.653,-0.23 -2.556,-0.3 -5.254,-1.282 -6.691,0 L 5.862,15.759 5.651,15.818 C 5.534,14.179 3.378,15.028 1.96,14.891 1.634,14.49 0.8,14.622 0.691,14.197 c -2.464,0.155 -5.36,-0.985 -8.536,-0.926 -1.732,0.033 -3.154,0.603 -4.614,0.462 -2.709,-0.258 -4.099,-1.975 -5.422,-3.586 1.313,-0.255 2.611,-0.983 4.038,-1.042 2.983,-0.125 5.383,2.156 8.306,2.893 2.314,0.585 4.863,1.04 6.921,1.273 0.397,0.045 0.885,-0.073 1.268,0 0.685,0.129 1.332,0.513 2.076,0.695 1.104,0.269 2.74,0.812 3.576,0.116 0.274,0.23 0.622,0.559 1.038,0.693 0.973,0.318 2.657,0.35 4.269,0.579 2.134,0.303 4.724,1.032 5.651,-0.231 l 0.135,0.174 z M 15.11,10.263 c -0.393,0.773 -1.086,0.999 -2.192,0.809 v -0.115 h -0.115 c 0.574,-0.383 1.237,-1.535 2.192,-0.81 v 0.116 z M 6.574,8.526 C 6.566,8.597 6.557,8.662 6.458,8.642 6.507,9.423 6.388,10.037 6.113,10.494 5.03,11.146 4.252,10.411 3.574,9.915 2.878,9.404 2.024,8.993 1.498,8.41 2.557,7.769 5.158,8.078 6.574,8.179 L 6.516,8.353 Z m 37.834,-23.379 c 0.948,-3.255 2.231,-6.758 3.231,-10.185 0.343,-1.176 0.971,-2.597 0.924,-3.587 -0.03,-0.586 -0.612,-1.504 -0.694,-2.314 -0.229,-2.294 1.208,-5.293 3.461,-4.284 2.149,0.965 0.851,4.573 -0.23,5.671 -0.556,0.566 -1.258,0.802 -1.616,1.39 -0.505,0.828 -0.747,2.191 -1.153,3.355 -1.185,3.399 -2.387,7.18 -3.575,10.071 l -0.135,-0.174 z m 0.115,4.977 c -0.3,0.721 -1.623,1.144 -2.305,2.314 -0.26,0.445 -0.341,1.126 -0.577,1.737 -0.335,0.866 -0.941,1.679 -0.116,1.967 l -0.057,0.212 0.173,0.135 c -1.624,0.262 -1.631,2.144 -2.307,3.357 l -0.135,-0.173 -0.211,0.057 c 0.048,-0.396 -0.036,-0.659 -0.462,-0.579 l -0.116,-0.057 -0.115,0.057 c -0.21,-2.184 2.746,-1.791 2.192,-3.934 -0.907,-0.099 -1.435,0.829 -1.961,1.504 -0.476,0.611 -0.916,1.352 -1.5,1.967 -0.525,0.554 -2.873,2.034 -2.998,2.778 -0.144,0.848 0.794,1.98 1.845,1.043 v 0.115 h 0.115 c 0.064,0.477 0.471,0.607 1.038,0.578 C 37.322,2.664 37.849,3.043 37.834,2.16 37.682,1.877 37.405,2.288 37.373,2.045 V 1.93 h -0.116 c 0.104,-0.205 0.425,-0.192 0.462,-0.464 l 0.115,0.057 0.115,-0.057 c 0.64,-0.13 0.51,-1.03 0.924,-1.389 l 0.134,0.174 0.212,-0.058 c -0.016,0.286 -0.018,0.558 0.115,0.695 l -0.173,0.057 0.058,0.175 c -0.076,0.153 -0.247,0.215 -0.462,0.231 -0.065,0.669 -0.571,0.892 -0.462,1.735 0.219,0.245 0.567,0.358 0.924,0.464 l -0.058,0.174 0.058,0.173 c -0.425,0.229 -0.99,0.318 -1.5,0.462 -0.296,0.282 -0.424,0.733 -0.693,1.042 L 36.893,5.228 36.681,5.285 C 36.718,5.018 36.662,4.841 36.565,4.706 h 0.116 V 4.591 c 0.94,-1.374 -2.076,-0.895 -3,-0.81 -0.437,0.449 -1.079,0.692 -1.615,1.042 L 32.009,4.648 31.836,4.706 C 30.819,3.963 29.695,4.996 29.067,5.401 L 28.933,5.228 28.721,5.285 C 28.619,3.683 25.533,4.322 23.991,4.476 21.847,4.688 20.034,4.986 18.916,5.285 L 18.974,5.073 18.801,4.938 c 0.999,-0.565 2.631,-0.712 3.922,-0.926 1.278,-0.21 2.601,-0.415 3.807,-0.694 2.466,-0.57 4.58,-0.725 6.46,-2.546 0.774,-0.751 1.334,-1.632 2.075,-2.43 1.478,-1.59 2.977,-2.894 4.614,-4.4 0.845,-0.776 1.835,-1.302 2.307,-2.197 0.461,-0.87 0.523,-1.877 1.038,-2.663 l 0.135,0.175 0.212,-0.059 c -0.012,0.513 0.207,0.795 0.807,0.695 l 0.15,0.15 z m 17.88,-2.431 c 0.504,-1.979 1.716,-3.811 1.269,-6.366 -1.02,-0.592 -1.931,-1.359 -3.23,-1.388 -1.508,-0.033 -3.084,0.973 -4.498,1.736 -1.487,0.803 -2.85,1.664 -3.923,2.314 l 0.042,-0.205 -0.156,-0.141 c 0.948,-1.061 2.566,-1.955 4.153,-2.893 1.544,-0.915 3.169,-1.867 4.844,-2.199 2.213,-0.44 3.617,0.625 3.806,2.43 0.252,2.388 -1.138,5.169 -1.96,6.829 l -0.135,-0.174 z m 5.768,-1.157 c 0.342,-1.432 2.058,-2.711 2.077,-4.166 0.009,-0.665 -0.614,-1.395 -0.693,-2.084 -0.182,-1.613 0.648,-3.39 1.845,-3.818 1.551,-0.556 3.024,0.523 3.231,1.504 0.244,1.149 -0.281,2.707 -1.153,3.471 -0.573,0.503 -1.518,0.532 -2.192,1.042 -0.636,0.483 -0.949,1.473 -1.385,2.2 -0.466,0.779 -0.938,1.51 -1.499,2.199 l -0.081,-0.197 z m 27.224,-12.847 c -0.261,-0.473 -0.83,-1.104 -1.616,-1.157 -1.345,-0.09 -2.391,1.234 -3.345,1.737 -1.436,0.754 -2.994,1.214 -4.498,2.082 -4.076,2.351 -8.372,5.855 -11.19,8.796 l -0.081,-0.196 -0.149,-0.151 c 2.685,-3.388 8,-7.347 11.997,-10.185 1.486,-1.056 3.1,-2.302 4.728,-2.662 1.905,-0.423 4.461,-0.411 4.384,1.621 l -0.174,-0.058 z m 22.377,1.504 c 2.061,-1.095 3.824,-2.49 6.46,-3.008 l -0.057,0.115 0.057,0.116 c -1.659,1.499 -4.128,2.186 -6.344,3.125 l 0.041,-0.206 z m -27.915,11.691 c 0.071,-0.316 0.228,-0.543 0.461,-0.696 l 0.058,0.175 0.174,-0.058 c -0.006,0.159 0.054,0.254 0.114,0.347 l -0.058,0.172 0.058,0.175 c -0.215,0.092 -0.422,0.193 -0.691,0.231 l 0.041,-0.207 z m -1.384,1.851 v -0.231 c -0.179,-0.167 -0.45,-0.243 -0.692,-0.348 l 0.058,-0.174 -0.173,-0.057 c 0.456,-0.429 1.083,-0.688 1.846,-0.811 l -0.058,0.213 0.173,0.136 c -0.293,0.516 -0.589,1.029 -1.039,1.388 v -0.116 z M 55.482,-0.617 C 55.297,-0.815 55,-0.904 54.56,-0.849 c -0.847,1.124 0.924,1.562 0.922,0.232 M 33.509,17.535 33.45,17.322 c 2.836,1.065 3.004,-1.899 4.499,-3.009 0.03,-0.022 0.226,-0.113 0.231,-0.116 1.45,-0.685 3.428,-1.167 4.96,-2.083 1.31,-0.784 3.514,-1.819 3.23,-3.704 -1.827,0.236 -4.291,-0.361 -6.228,0 -1.115,0.208 -1.685,1.187 -2.538,1.274 L 37.661,9.509 37.488,9.451 c 0.133,-0.136 0.131,-0.408 0.116,-0.693 -0.606,-0.731 -2.309,0.556 -2.423,0.809 -0.141,0.313 -0.175,0.776 0.116,1.042 0.394,0.049 0.347,-0.346 0.576,-0.462 h 0.115 V 10.03 c 0.137,0.134 0.408,0.131 0.693,0.117 l -0.059,0.173 0.174,0.058 c -0.298,0.703 -0.757,1.247 -1.384,1.62 v -0.115 h -0.115 v -0.232 c -0.944,-0.494 -1.657,0.651 -1.269,1.505 h 0.116 v 0.115 h 0.115 c -0.693,1.316 -2.473,2.143 -2.423,3.82 l -0.174,0.135 0.059,0.212 h -0.346 c -0.539,0.424 -1,0.927 -0.923,1.967 0.166,0.066 0.281,0.181 0.346,0.348 0.762,-0.443 3.162,-1.105 2.537,-2.084 z m 15.63,9.509 c -1.284,-0.221 -2.421,0.931 -3.692,1.505 -1.05,0.474 -3.329,0.667 -2.653,2.198 1.264,0.004 3.606,-0.968 5.19,-1.735 0.833,-0.403 1.919,-0.82 1.155,-1.968 M 28.03,29.59 c -0.093,-1.305 -1.852,-1.526 -1.384,-3.008 1.552,-0.941 2.252,1.167 3.806,1.04 0.865,-0.07 1.376,-1.043 2.076,-1.735 1.812,-1.789 4.597,-3.609 5.652,-5.672 -0.704,-0.757 -1.055,-2.312 -2.076,-2.43 -0.729,-0.086 -2.808,1.435 -3.576,1.852 -1.373,0.746 -2.694,1.2 -3.576,1.735 -1.22,1.899 -2.841,4.646 -4.498,6.945 -0.434,0.601 -1.537,1.693 -1.5,2.2 0.042,0.582 0.894,1.124 1.615,1.158 1.299,0.06 2.577,-1.58 3.461,-2.085 m -10.694,7.673 -0.148,-0.15 v -0.578 c -1.21,-1.223 -3.477,2.475 -1.617,2.546 l 0.151,0.149 0.195,0.083 c -0.408,0.44 -0.112,1.272 0.347,1.503 1.828,-0.403 2.83,-1.633 3.806,-2.892 -0.193,-0.887 -0.649,-1.511 -1.499,-1.736 -0.606,0.202 -0.646,0.971 -1.154,1.272 z m 78.347,-43.301 0.057,0.213 c -1.249,-0.338 -2.75,-0.722 -4.383,-1.157 -1.614,-0.431 -4.38,-1.637 -5.421,-0.463 l -0.058,-0.174 -0.173,0.057 v -0.347 c -0.512,-0.552 -1.445,-0.6 -2.308,-0.695 -0.902,-0.096 -2.018,-0.297 -2.883,-0.23 -1.224,0.093 -2.205,0.882 -3.115,1.041 l 0.058,-0.174 -0.174,-0.057 c 0.483,-1.345 -2.428,-0.683 -3.805,-0.58 -1.459,0.112 -3.554,0.046 -4.383,0.349 -0.837,0.305 -1.174,1.27 -1.616,1.504 l -0.134,-0.174 -0.212,0.059 V -7.33 c -1.36,-0.95 -2.889,0.445 -3.461,1.39 l -0.134,-0.174 -0.212,0.056 V -6.52 c -0.513,-0.631 -1.362,0.074 -2.306,0 -1.481,1.023 -2.53,2.541 -3.577,4.167 -0.659,1.024 -1.685,2.072 -1.383,2.777 h 0.115 L 56.117,0.541 56.06,0.655 C 54.721,1.013 54.285,2.004 53.752,3.202 53.379,4.043 52.758,4.894 52.83,5.633 l -0.174,0.057 0.058,0.174 c -0.974,-0.272 -1.981,0.42 -1.846,1.041 0.221,1.014 3.12,0.185 2.423,-0.809 L 53.465,6.037 53.407,5.864 c 1.85,-0.42 2.619,-1.923 3.806,-3.01 l 0.135,0.175 0.211,-0.058 v 0.115 c 0.064,0.487 0.696,0.584 1.038,0.464 l 0.135,0.174 0.211,-0.059 c 0.592,1.566 2.444,1.869 2.423,4.051 L 61.193,7.774 61.25,7.948 C 60.538,8.169 59.681,8.87 58.943,8.989 57.208,9.27 54.848,8.218 54.214,9.451 L 54.041,9.394 53.867,9.451 C 53.938,8.996 53.609,8.939 53.291,8.873 L 53.156,8.7 52.945,8.758 C 53.041,8.431 52.782,8.458 52.83,8.179 51.745,7.917 50.182,8.135 48.907,8.063 c -1.349,1.263 -2.156,2.831 -3.229,4.398 -0.539,0.788 -1.153,1.472 -1.5,2.314 -0.395,0.959 -0.393,2.089 -0.922,3.01 -0.807,1.402 -2.472,1.418 -3.693,2.315 -0.858,0.631 -0.858,1.703 -1.959,1.736 0.244,0.938 -1.459,1.188 -1.5,2.083 -0.028,0.605 0.607,0.727 1.384,1.39 0.55,0.467 0.867,1.186 1.269,1.387 0.725,0.367 1.099,-0.497 1.5,-0.693 l 0.08,0.196 0.15,0.151 v 0.346 c 0.44,0.533 0.963,0.039 1.499,0.117 0.631,0.089 1.233,0.71 1.732,0.694 0.478,-0.017 0.48,-0.338 1.038,-0.578 l 0.134,0.173 0.212,-0.058 c -0.033,0.264 0.027,0.435 0.23,0.463 -0.036,0.272 -0.547,0.068 -0.462,0.464 0.09,0.025 0.134,0.096 0.116,0.23 0.444,-0.422 1.841,-0.44 1.499,-1.272 -0.158,-0.006 -0.254,0.053 -0.345,0.115 l -0.117,-0.059 -0.115,0.059 c 0.035,-0.305 -0.159,-0.38 -0.461,-0.348 l -0.134,-0.173 -0.211,0.059 c -0.239,-4.135 3.117,-4.667 4.96,-6.713 0.09,-0.67 -0.167,-0.99 -0.116,-1.621 0.034,-0.236 0.312,-0.227 0.346,-0.463 0.658,-0.264 1.108,0.45 1.729,0.463 0.578,0.011 0.444,-0.257 0.693,-0.348 0.308,-0.112 0.736,-0.03 0.923,-0.115 0.931,-0.427 1.861,-1.284 2.884,-1.851 0.537,-0.298 1.078,-0.532 1.616,-0.811 2.577,-1.342 5.213,-3.296 7.497,-4.514 l 0.15,0.151 0.196,0.08 c -1.783,1.602 -4.073,2.762 -6,4.051 -1.463,0.982 -2.793,2.035 -4.382,2.894 -0.615,0.333 -1.259,0.668 -1.846,1.041 -0.582,0.373 -1.034,0.919 -1.615,1.274 -1.154,0.706 -2.692,0.947 -3.344,2.315 0.82,0.18 1.374,0.627 1.845,1.157 h 0.346 l -0.058,0.212 0.174,0.135 c -1.472,0.827 -0.154,2.081 1.037,0.927 l -0.04,0.206 0.156,0.14 c 0.287,0.599 0.696,1.077 1.384,1.273 l -0.057,0.212 0.172,0.136 c -0.665,0.177 -0.862,0.76 -1.384,1.158 -1.203,0.917 -3.195,1.373 -3.575,2.546 0.204,0.921 1.442,-0.052 2.191,0 0.409,-0.877 0.525,-1.868 1.499,-1.968 0.91,-0.095 1.22,0.623 1.961,1.041 0.71,-0.021 1.145,-0.318 1.961,-0.231 l -0.056,0.212 0.172,0.135 c -0.748,0.52 -1.718,0.339 -2.654,0.579 -0.402,0.103 -0.733,0.486 -1.153,0.578 -0.406,0.09 -0.843,-0.062 -1.269,0 -0.668,0.099 -1.348,0.507 -2.076,0.695 -2.27,0.584 -5.131,0.554 -6.113,2.314 0.104,0.59 1.318,0.067 1.152,0.926 -0.251,0.492 -0.773,0.135 -1.152,0.348 0.098,0.947 -0.788,0.906 -1.27,1.272 -0.584,0.044 -0.798,-0.891 -1.268,-0.578 -0.172,0.943 0.587,0.955 0.577,1.736 -1.387,0.904 -2.783,-0.04 -3.807,0 -0.46,0.134 0.222,0.812 -0.462,0.81 -0.23,0.135 -0.77,-0.298 -1.268,0 -1.469,1.35 -1.465,3.33 -2.538,4.861 -0.753,1.075 -1.852,1.288 -3.231,1.968 -1.072,0.528 -1.791,1.383 -2.998,1.504 l 0.057,-0.173 -0.172,-0.058 C 26.92,45.236 25.751,44.755 24.8,44.636 23.742,44.505 22.815,45.069 21.916,45.1 20.028,45.161 20.16,43.55 19.031,42.899 h -0.23 l 0.058,-0.115 -0.058,-0.115 c -0.199,-0.635 -0.557,-0.461 -1.038,-0.348 -0.261,0.062 -0.608,0.346 -0.923,0.463 -2.234,0.828 -4.612,1.803 -5.883,2.778 -0.453,1.011 -0.899,2.029 -2.422,1.968 L 8.478,47.355 8.304,47.414 c -0.033,-0.902 0.719,-1.568 0.346,-2.43 -1.756,0.079 -4.182,0.178 -6.113,0.231 0.036,0.744 0.424,1.131 0.347,1.735 -0.236,1.809 -2.951,1.732 -3.115,0.116 -0.081,-0.779 0.716,-1.351 0.46,-2.082 -0.43,-0.29 -1.116,-0.011 -1.384,0.231 V 45.1 h -0.116 v -0.233 c -0.566,-0.553 -1.649,-0.729 -2.652,-1.04 -0.886,-0.277 -1.83,-0.523 -2.767,-0.928 -1.493,-0.641 -4.31,-1.817 -3.923,-3.586 0.237,-1.086 1.749,-1.297 3.114,-1.505 l -0.058,0.213 0.173,0.134 c -0.401,0.292 -1.227,0.156 -1.384,0.694 -0.138,0.451 -0.216,1.079 0,1.621 0.284,0.708 2.11,1.585 3.577,2.199 2.138,0.894 4.388,1.687 5.652,0.693 v 0.117 h 0.115 v 0.348 c 0.633,0.71 2.274,0.743 3.692,0.809 1.432,0.066 3.243,0.103 4.267,-0.232 0.766,-0.251 1.135,-1.015 1.615,-1.273 l 0.134,0.175 0.212,-0.059 v 0.464 c 1.094,0.693 1.67,-0.777 2.307,-1.273 l 0.135,0.172 0.21,-0.056 c 0.095,1.473 2.217,0.111 3,-0.233 1.712,-0.753 2.905,-1.16 4.268,-1.967 0.561,-0.333 1.21,-0.693 1.73,-1.041 1.076,-0.722 1.877,-1.83 2.999,-2.546 1.218,-0.78 2.764,-0.787 4.038,-1.389 1.745,-0.827 2.712,-2.141 4.152,-2.895 0.257,-0.761 1.114,-0.739 1.154,-1.504 0.06,-1.182 -1.347,-1.027 -2.653,-1.158 -0.777,-0.076 -1.531,-0.395 -2.076,-0.346 -0.815,0.072 -1.643,0.877 -2.193,1.272 -0.852,0.616 -1.571,1.058 -2.076,1.389 -0.288,1.98 -0.539,3.708 -2.075,4.861 -0.563,0.423 -1.356,0.61 -1.962,1.042 -1.934,1.379 -3.956,4.788 -7.152,3.357 h -0.115 l 0.058,-0.174 -0.173,-0.058 c -0.504,-1.437 0.539,-2.701 0.345,-3.819 -0.51,-0.451 -1.444,-0.108 -1.96,0.115 0.44,1.734 1.079,3.558 -0.23,4.745 -0.515,0.468 -1.249,0.434 -1.731,1.042 L 10.361,43.074 10.15,43.131 C 9.944,42.316 9.063,41.928 8.766,41.049 8.451,40.119 8.761,39.042 8.304,38.039 7.086,37.975 6.043,38.084 5.421,38.618 V 38.502 H 5.306 C 4.856,37.863 3.854,38.116 2.998,38.039 0.805,37.84 -2.258,37.271 -2.77,35.609 c -0.588,-1.914 1.153,-3.002 2.193,-3.588 0.956,-0.54 2.274,-1.379 3.461,-0.579 0.043,0.583 -0.835,0.244 -0.924,0.694 -0.459,0.081 -0.234,0.846 -0.808,0.811 -2.246,-1.519 -3.775,1.994 -1.844,3.356 1.23,0.869 7.035,1.663 8.189,0.579 v 0.115 h 0.116 c 0.199,0.532 1.033,0.358 1.959,0.232 2.507,-0.343 5.876,-0.518 6.345,-2.199 l 0.173,0.058 0.174,-0.058 c 0.025,0.09 0.003,0.228 0.115,0.232 0.184,0.658 1.69,0.049 2.077,-0.232 0.372,-0.271 0.648,-0.958 1.037,-1.506 0.363,-0.509 0.788,-0.958 1.153,-1.388 1.627,-1.916 2.915,-3.877 4.269,-5.903 0.72,-1.076 1.789,-2.007 1.731,-3.125 -1.202,-0.532 -1.916,0.745 -2.539,1.506 -0.703,0.859 -1.534,1.726 -2.191,2.43 l -0.173,-0.059 -0.174,0.059 v -0.231 c -1.082,-0.786 -2.858,-0.31 -2.998,-1.852 -0.219,-2.395 2.491,-1.445 4.383,-1.62 2.366,-0.22 3.394,-1.837 4.383,-2.662 l 0.115,0.057 0.115,-0.057 c 0.208,1.083 1.506,-0.079 0.923,-0.81 h -0.23 l 0.058,-0.116 -0.058,-0.116 c 0.419,-0.737 1.333,-0.978 1.385,-2.083 -0.071,-0.006 -0.137,-0.017 -0.116,-0.116 l 0.173,-0.135 -0.057,-0.212 h 0.807 c 0.507,-0.641 2.746,-3.082 1.73,-3.935 l 0.057,-0.174 -0.173,-0.058 c 0.218,-0.337 0.961,-0.404 1.384,-0.926 0.145,-0.177 -0.023,-0.269 0.115,-0.579 0.38,-0.845 1.779,-2.049 0.809,-2.893 C 32.461,8.396 29.446,8.123 28.03,8.873 V 8.758 H 27.914 C 27.386,8.27 26.671,8.052 26.184,8.294 c -0.385,0.192 -0.446,0.959 -0.808,1.505 -0.707,1.07 -1.757,1.071 -2.422,1.505 l -0.08,-0.197 -0.151,-0.15 c 0.186,-0.601 0.475,-2.016 0,-2.547 C 22.156,8.26 21.116,8.549 20.531,8.758 20.23,8.626 20.256,8.388 19.84,8.294 19.515,8.222 19.077,8.275 18.801,8.41 c -0.013,0.926 0.604,1.459 0.345,2.43 -0.324,0.243 -1.015,0.077 -1.268,-0.114 l 0.174,-0.059 -0.059,-0.173 C 18.158,10.467 18.188,10.302 18.34,10.263 18.356,9.368 17.785,8.667 17.071,8.526 16.502,8.414 15.918,8.787 15.226,8.758 14.757,8.738 14.332,8.466 13.842,8.41 c -0.961,-0.109 -1.896,0.083 -2.77,0 L 11.13,8.198 10.957,8.063 c 2.166,-0.18 4.31,-0.382 6.114,-0.926 0.169,-0.487 0.152,-1.158 0.576,-1.389 l 0.082,0.197 0.149,0.151 c 0.012,0.217 -0.11,0.255 -0.115,0.463 -0.025,1.197 1.07,1.172 2.077,1.157 0.859,-0.014 1.879,0.188 2.883,0.116 1.657,-0.119 3.416,-0.715 4.153,-0.811 l 0.135,0.174 0.211,-0.058 v 0.116 c 0.188,0.919 1.506,0.105 1.961,-0.116 l 0.057,0.175 0.174,-0.059 v 0.231 c 1.198,0.726 3.669,0.177 5.42,0.348 0.503,-0.308 0.977,-0.643 1.27,-1.158 L 36.239,6.848 36.45,6.79 c -0.124,1.389 2.436,1.3 2.884,0.463 l 0.058,0.174 0.171,-0.058 c 0.7,1.129 2.007,-0.115 2.77,-0.348 l -0.058,0.174 0.174,-0.058 v 0.232 c 0.026,0.089 0.001,0.229 0.114,0.232 0.041,0.101 0.239,0.21 0.346,0.231 0.412,0.077 3.474,0.042 4.038,0 C 47.962,7.755 48.682,6.171 48.216,5.17 47.959,5.08 47.766,4.927 47.407,4.938 L 47.466,4.727 47.293,4.591 c 1.818,-0.917 3.496,-2.584 3.575,-4.861 l 0.174,-0.057 -0.174,-0.059 c 0.202,-0.838 -0.321,-1.795 -0.922,-2.199 h -0.462 l 0.058,-0.212 -0.173,-0.135 c 0.083,-0.354 -0.118,-0.422 -0.116,-0.695 l 0.157,-0.14 -0.041,-0.207 c 0.521,0.135 0.653,0.656 1.269,0.695 l -0.058,0.212 0.173,0.135 c 0.375,1.324 1.157,2.337 2.423,1.62 0.773,-0.437 1.295,-1.82 1.038,-2.892 h -0.115 l 0.057,-0.175 0.058,-0.173 c 0.099,-0.172 0.291,-0.249 0.577,-0.231 1.078,-0.738 1.153,-2.533 1.384,-4.051 0.303,-1.998 1.003,-3.955 2.999,-4.282 1.614,-0.265 2.288,0.938 3.229,0.809 l 0.081,0.198 0.151,0.15 c -0.236,1.395 -1.434,3.378 -0.577,4.745 1.596,-0.212 2.818,-0.799 3.461,-1.969 l 0.133,0.175 0.212,-0.057 c 0.127,0.941 1.748,0.714 2.538,0.346 0.974,-0.454 1.423,-1.731 1.846,-1.851 l 0.08,0.196 0.151,0.15 c 0.086,1.457 2.27,0.627 4.152,0.463 1.188,-0.103 2.457,-0.239 3.691,-0.23 2.209,0.014 3.903,0.462 5.075,-0.349 l 0.059,0.175 0.172,-0.059 c 0.293,1.21 1.889,1.116 3.346,1.159 0.024,-0.131 0.128,-0.181 0.23,-0.233 v 0.115 h 0.115 c 0.196,0.606 1.137,0.712 1.961,0.928 2.284,0.595 4.863,1.399 6.575,2.082 z M 68.518,-19.714 h 0.577 c 0.551,0.923 -1.203,1.023 -0.577,0 m 25.723,11.343 c 0.104,0.339 0.104,0.355 0,0.694 h -0.578 c -0.09,-0.515 0.109,-0.74 0.578,-0.694 m -46.14,0.347 c 0.295,0.41 0.011,1.039 -0.462,1.042 -0.251,-0.475 0.016,-0.937 0.462,-1.042 m -25.609,6.251 c 0.196,1.29 -2.242,1.868 -1.961,-0.233 0.532,-0.768 1.827,-0.657 1.961,0.233 M -2.539,0.424 c 0.251,-0.065 0.945,-0.277 1.153,0 -0.255,0.093 -0.288,0.406 -0.46,0.579 h -0.693 z m 21.34,0.231 h 0.461 C 19.295,0.958 19.221,1.153 18.916,1.12 18.881,0.962 18.752,0.897 18.801,0.655 m 80.976,7.524 c 0.053,0.362 -0.099,0.517 -0.461,0.463 -0.054,-0.363 0.1,-0.517 0.461,-0.463 M 10.496,9.567 C 10.461,9.264 10.655,9.188 10.957,9.221 10.989,9.523 10.915,9.718 10.611,9.684 10.605,9.613 10.594,9.547 10.496,9.567 m 17.071,1.39 c 0.034,0.303 -0.042,0.497 -0.345,0.462 -0.033,-0.302 0.042,-0.497 0.345,-0.462 m 24.454,3.009 c 0.041,-0.491 0.656,-0.73 0.924,-0.348 0.089,0.724 -0.695,0.849 -0.924,0.348 m 1.5,2.198 c -0.012,-0.398 0.233,-0.538 0.693,-0.463 0.183,0.573 -0.399,0.725 -0.693,0.463 m -2.537,1.043 c -0.179,-0.727 0.638,-0.862 0.923,-0.464 0.026,0.219 -0.131,0.256 -0.115,0.464 -0.154,0.164 -0.653,0.164 -0.808,0 m -2.191,0 c 0.201,-0.283 0.695,-0.273 1.037,-0.116 0.399,1.143 -1.337,1.263 -1.037,0.116 m 63.673,6.481 c 0.046,-1.091 1.292,-1.753 2.307,-1.158 -0.07,1.023 -1.446,1.309 -2.307,1.158 m 7.844,0.462 c -0.039,0.094 -0.306,0.14 -0.347,0 -0.075,-0.267 0.451,-0.251 0.347,0 m -9.921,-0.693 c 0.342,-0.082 0.503,-0.346 1.039,-0.231 1.176,1.344 -1.943,2.222 -1.039,0.231 M 6.746,28.414 6.92,28.549 C 6.804,28.818 6.523,28.922 6.113,28.896 6.118,28.438 6.349,28.207 6.805,28.201 Z M -9.69,33.063 c 0.065,-0.453 0.856,-0.453 0.922,0 -0.127,0.421 -0.879,0.71 -0.922,0 m 80.053,-0.232 c 0.067,0.376 -0.078,0.539 -0.115,0.81 -1.633,0.725 -1.101,-1.847 0.115,-0.81 m -24.685,2.431 c -0.633,-0.125 -0.705,-1.07 -0.115,-1.506 0.419,-0.035 0.75,0.019 1.038,0.116 0.451,0.809 -0.325,1.508 -0.923,1.39 M 1.268,35.03 C 1.254,35.325 1.101,35.478 0.807,35.493 0.493,35.121 0.926,34.796 1.268,35.03 m 45.449,2.894 h 0.23 v 0.231 h -0.23 z m 35.642,2.777 c -0.556,-0.41 0.087,-1.226 0.693,-0.809 0.099,0.6 -0.182,0.821 -0.693,0.809 m -60.905,5.903 c -0.039,0.092 -0.306,0.14 -0.346,0 -0.076,-0.269 0.451,-0.25 0.346,0 m 10.151,-0.462 c 0.155,-0.207 0.667,-0.36 0.923,-0.118 0.313,0.984 -1.135,1.092 -0.923,0.118 m -1.038,0.231 c 0.463,-0.043 0.844,0.002 0.923,0.346 -0.132,0.994 -1.676,0.473 -0.923,-0.346 m -1.962,0.809 c 0.278,0.047 0.251,-0.21 0.578,-0.116 0.265,0.324 0.063,0.921 -0.462,0.811 -0.132,-0.138 -0.13,-0.41 -0.116,-0.695 m 5.884,0.925 h 0.345 v 0.232 h -0.345 z m -11.188,-0.23 c 0.323,0.021 0.49,0.201 0.46,0.578 -0.357,1.028 -1.595,-0.432 -0.46,-0.578 m -24.398,1.967 -0.058,-0.116 c -0.147,-1.048 0.92,-1.804 1.731,-1.157 0.189,1.233 -0.847,1.235 -1.731,1.389 z M 104.507,14.313 c 0.503,-0.256 0.874,-0.807 1.5,-1.042 0.576,-0.214 1.226,-0.167 1.845,-0.347 0.639,-0.186 1.364,-0.524 2.077,-0.81 0.674,-0.271 1.476,-0.52 2.075,-0.81 0.66,-0.319 1.17,-0.894 1.846,-1.157 0.471,-0.184 1.016,-0.19 1.5,-0.348 0.377,-0.123 0.806,-0.635 1.269,-0.348 0.178,-0.551 0.806,-0.904 1.385,-1.157 1.283,-0.562 3.458,-0.877 4.498,-0.115 0.978,0.717 1.502,3.749 1.037,5.671 -0.473,1.963 -1.778,2.608 -3.921,2.546 -2.043,-1.229 -1.86,-4.692 -4.038,-5.787 -0.899,0.927 -2.154,0.852 -3.461,1.274 -0.598,0.192 -1.221,0.562 -1.845,0.81 -0.707,0.281 -1.446,0.419 -2.076,0.694 -1.038,0.452 -1.762,1.488 -3.345,1.158 l -0.151,-0.15 z M 73.939,25.771 c 0.263,-0.353 -0.127,-1.362 0.46,-1.389 0.639,-0.404 0.972,0.49 1.5,0.579 l -0.057,0.175 -0.058,0.173 c -0.496,0.35 -1.054,0.638 -1.729,0.809 l 0.041,-0.207 z M 47.293,41.858 c 2.124,-2.866 4.577,-5.329 7.959,-6.945 1.683,-0.803 3.472,-1.478 5.19,-2.313 1.673,-0.812 3.222,-1.942 4.961,-2.547 l 0.15,0.151 0.196,0.081 c -1.416,1.008 -3.178,1.672 -4.613,2.662 0.008,0.736 -0.149,1.336 -0.577,1.62 -0.642,0.423 -1.464,-0.148 -2.307,0 -0.697,0.121 -1.902,1.127 -2.77,1.736 -2.831,1.992 -5.921,3.484 -7.959,5.902 l -0.081,-0.196 z m -6.033,7.373 0.15,0.15 c -0.064,0.621 -0.576,1.312 -1.268,0.926 -0.096,-0.867 0.615,-0.926 1.037,-1.273 z m -18.075,1.423 c -0.047,-0.433 0.524,-0.596 0.806,-0.347 0.074,0.591 -0.583,0.682 -0.806,0.347 m -25.147,0.232 c 0.082,0.622 -0.269,0.809 -0.692,0.926 -0.098,-0.639 0.228,-0.851 0.692,-0.926 m 72.094,0.463 c 0.049,-0.345 0.304,-0.754 1.268,-0.695 1.493,1.203 -1.52,2.499 -1.268,0.695 m -73.593,1.852 c -0.109,-0.689 0.306,-0.849 0.691,-1.043 0.005,0.382 0.195,0.577 0.116,1.043 -0.154,0.165 -0.654,0.165 -0.807,0 m 41.18,-1.158 c 0.44,-0.057 0.736,0.033 0.923,0.231 -0.034,0.74 -0.236,1.307 -0.808,1.505 h -0.23 c -0.098,-0.489 -0.282,-1.433 0.115,-1.736 m -50.524,1.62 c 0.08,0.429 -0.182,0.512 -0.577,0.463 -0.147,-0.509 0.291,-0.736 0.577,-0.463 m 37.95,0.928 c 0.036,0.304 -0.16,0.378 -0.46,0.346 -0.095,-0.416 0.245,-0.575 0.46,-0.346 m -29.53,0 c 0.241,-0.069 0.33,-0.288 0.693,-0.233 0.048,0.221 0.33,0.209 0.231,0.579 -0.179,0.505 -1.113,0.437 -0.924,-0.346 m 66.211,-0.35 c 0.352,-0.109 0.465,-0.459 1.039,-0.346 0.353,0.225 0.54,0.615 0.576,1.157 -0.705,0.661 -2.033,0.437 -1.615,-0.811 m -4.498,0.811 c 0.221,-0.356 0.915,-0.46 1.385,-0.232 0.025,0.09 0.003,0.228 0.114,0.232 0.262,1.219 -1.863,1.5 -1.499,0 m -51.215,2.43 c -0.68,-1.092 1.032,-2.336 1.96,-1.157 0.457,1.537 -1.43,2.008 -1.96,1.157 m -23.301,-3.587 c 1.542,-0.506 2.942,0.324 2.999,1.736 0.075,1.865 -1.72,2.814 -3.576,3.124 -0.955,-0.661 -1.271,-1.964 -1.961,-2.892 0.827,-0.326 1.518,-1.634 2.538,-1.968 m 13.842,5.788 c -0.124,-0.649 0.71,-0.74 0.807,-0.232 -0.106,0.255 -0.508,0.519 -0.807,0.232 m 47.986,2.892 c 0.306,0.002 0.658,-0.044 0.807,0.115 -0.005,0.161 0.055,0.255 0.116,0.348 -0.271,0.839 -1.697,0.314 -0.923,-0.463 m -27.569,2.894 h 0.23 v -0.231 h -0.23 z"
             style="fill:#262626;fill-opacity:1;fill-rule:nonzero;stroke:none"
             id="path22"
             inkscape:connector-curvature="0" />
        </g>
      </g>
    </g>
  </g>
</svg>
