<?xml version="1.0" encoding="UTF-8" standalone="no"?>
<!-- Created with Inkscape (http://www.inkscape.org/) -->

<svg
   xmlns:dc="http://purl.org/dc/elements/1.1/"
   xmlns:cc="http://creativecommons.org/ns#"
   xmlns:rdf="http://www.w3.org/1999/02/22-rdf-syntax-ns#"
   xmlns:svg="http://www.w3.org/2000/svg"
   xmlns="http://www.w3.org/2000/svg"
   xmlns:sodipodi="http://sodipodi.sourceforge.net/DTD/sodipodi-0.dtd"
   xmlns:inkscape="http://www.inkscape.org/namespaces/inkscape"
   width="68.013496mm"
   height="32.309879mm"
   viewBox="0 0 68.013496 32.309879"
   version="1.1"
   id="svg3879"
   inkscape:version="0.92.2 2405546, 2018-03-11"
   sodipodi:docname="paint-big01.svg">
  <defs
     id="defs3873">
    <clipPath
       clipPathUnits="userSpaceOnUse"
       id="clipPath150">
      <path
         d="M 0,600 H 600 V 0 H 0 Z"
         id="path148"
         inkscape:connector-curvature="0" />
    </clipPath>
  </defs>
  <sodipodi:namedview
     id="base"
     pagecolor="#ffffff"
     bordercolor="#666666"
     borderopacity="1.0"
     inkscape:pageopacity="0.0"
     inkscape:pageshadow="2"
     inkscape:zoom="0.35"
     inkscape:cx="8.5714286"
     inkscape:cy="559.99999"
     inkscape:document-units="mm"
     inkscape:current-layer="layer1"
     showgrid="false"
     fit-margin-top="0"
     fit-margin-left="0"
     fit-margin-right="0"
     fit-margin-bottom="0"
     inkscape:window-width="3840"
     inkscape:window-height="2095"
     inkscape:window-x="0"
     inkscape:window-y="0"
     inkscape:window-maximized="1" />
  <metadata
     id="metadata3876">
    <rdf:RDF>
      <cc:Work
         rdf:about="">
        <dc:format>image/svg+xml</dc:format>
        <dc:type
           rdf:resource="http://purl.org/dc/dcmitype/StillImage" />
        <dc:title></dc:title>
      </cc:Work>
    </rdf:RDF>
  </metadata>
  <g
     inkscape:label="Layer 1"
     inkscape:groupmode="layer"
     id="layer1"
     transform="translate(0,-264.69012)">
    <g
       transform="matrix(0.35277777,0,0,-0.35277777,-3.5279596,472.82876)"
       id="g144">
      <g
         id="g146"
         clip-path="url(#clipPath150)">
        <g
           id="g152"
           transform="translate(149.4634,501.5654)">
          <path
             d="m 0,0 c -0.05,-0.034 -0.068,-0.094 -0.036,-0.146 l 0.415,-0.623 c -0.033,0.051 -0.025,0.127 0.026,0.161 0.051,0.034 0.115,0.027 0.149,-0.024 L 0.158,-0.039 C 0.125,0.012 0.052,0.035 0,0 m -39.824,45.218 c -0.056,-0.044 -0.069,-0.119 -0.025,-0.174 l 0.626,-0.782 c 0.294,-0.344 0.572,-0.668 0.783,-1.032 0.035,-0.062 0.114,-0.083 0.174,-0.047 0.061,0.036 0.082,0.114 0.047,0.176 -0.222,0.384 -0.52,0.733 -0.81,1.07 l -0.611,0.764 c -0.044,0.055 -0.129,0.07 -0.184,0.025 m -57.956,24.53 c -0.055,-0.025 -0.078,-0.089 -0.054,-0.143 0.151,-0.33 0.457,-0.498 0.752,-0.66 0.277,-0.151 0.539,-0.294 0.663,-0.558 0.026,-0.054 0.09,-0.077 0.144,-0.052 0.053,0.026 0.076,0.091 0.051,0.144 -0.155,0.328 -0.46,0.495 -0.755,0.656 -0.277,0.152 -0.538,0.295 -0.659,0.559 -0.025,0.055 -0.088,0.079 -0.142,0.054 m 69.997,-32.462 c -0.094,-0.057 -0.125,-0.178 -0.069,-0.273 3.581,-6.038 16.659,-9.153 25.519,-7.804 0.107,0.018 0.183,0.119 0.166,0.227 -0.016,0.109 -0.118,0.183 -0.225,0.167 -8.739,-1.331 -21.615,1.704 -25.12,7.613 -0.055,0.095 -0.178,0.126 -0.271,0.07 M 5.188,38.439 4.702,38.118 4.569,38.024 C 4.458,37.947 4.428,37.792 4.507,37.678 4.583,37.566 4.737,37.538 4.85,37.616 l 0.135,0.093 0.458,0.304 c 0.114,0.075 0.155,0.236 0.079,0.349 -0.075,0.115 -0.219,0.152 -0.334,0.077 m -85.231,0.473 c -0.043,-0.162 0.052,-0.327 0.212,-0.37 l 0.484,-0.129 c 1.251,-0.334 2.544,-0.679 3.66,-1.318 0.145,-0.083 0.328,-0.032 0.41,0.112 0.082,0.145 0.033,0.33 -0.112,0.412 -1.184,0.678 -2.516,1.033 -3.803,1.377 l -0.482,0.129 c -0.16,0.042 -0.326,-0.053 -0.369,-0.213 m 33.724,4.41 -0.995,-0.756 c -0.578,-0.413 -1.176,-0.841 -1.65,-1.391 -0.061,-0.071 -0.053,-0.177 0.017,-0.238 0.071,-0.062 0.176,-0.054 0.238,0.017 0.447,0.52 1.028,0.936 1.59,1.338 l 1.017,0.772 c 0.075,0.056 0.082,0.157 0.026,0.23 -0.056,0.075 -0.169,0.084 -0.243,0.028 m 2.476,5.631 c -0.102,-0.032 -0.158,-0.14 -0.127,-0.243 0.082,-0.266 0.101,-0.56 0.12,-0.871 0.034,-0.559 0.069,-1.137 0.496,-1.601 0.072,-0.079 0.193,-0.084 0.272,-0.011 0.079,0.071 0.083,0.194 0.011,0.273 -0.333,0.363 -0.363,0.849 -0.394,1.363 -0.019,0.32 -0.04,0.65 -0.136,0.962 -0.032,0.103 -0.14,0.159 -0.242,0.128 m 2.46,-0.501 -0.08,-0.214 c -0.076,-0.211 -0.122,-0.339 -0.285,-0.53 -0.085,-0.102 -0.073,-0.254 0.029,-0.341 0.102,-0.087 0.254,-0.075 0.341,0.028 0.217,0.257 0.288,0.452 0.369,0.678 l 0.075,0.2 c 0.046,0.125 -0.015,0.269 -0.14,0.316 -0.124,0.048 -0.263,-0.012 -0.309,-0.137 m -1.084,-1.492 -0.255,-0.059 -0.653,-0.202 c -0.192,-0.06 -0.245,-0.242 -0.187,-0.435 0.059,-0.194 0.318,-0.283 0.511,-0.225 l 0.483,0.143 0.294,0.068 c 0.196,0.046 0.306,0.241 0.259,0.439 -0.046,0.197 -0.255,0.317 -0.452,0.271 m 14.663,-9.509 c -0.185,-0.068 -0.28,-0.273 -0.212,-0.458 0.067,-0.186 0.272,-0.281 0.456,-0.214 1.083,0.397 2.259,0.271 3.504,0.137 0.692,-0.075 1.407,-0.151 2.105,-0.13 0.196,0.007 0.35,0.172 0.345,0.369 -0.007,0.197 -0.171,0.352 -0.368,0.346 -0.648,-0.021 -1.308,0.051 -2.006,0.125 -1.271,0.137 -2.585,0.278 -3.824,-0.175 m -2.213,0.816 c -0.117,-0.22 -0.036,-0.492 0.182,-0.611 0.634,-0.343 1.291,-0.699 1.996,-0.963 0.233,-0.087 0.492,0.032 0.578,0.265 0.086,0.233 -0.031,0.493 -0.264,0.58 -0.647,0.241 -1.275,0.583 -1.883,0.911 -0.218,0.118 -0.49,0.036 -0.609,-0.182 m -3.95,6.774 c -0.068,-0.045 -0.09,-0.133 -0.045,-0.202 l 1.595,-2.445 c 0.956,-1.407 1.944,-2.862 2.641,-4.393 0.033,-0.075 0.122,-0.108 0.197,-0.074 0.076,0.034 0.108,0.123 0.074,0.199 -0.707,1.555 -1.703,3.02 -2.664,4.437 l -1.588,2.43 c -0.045,0.07 -0.14,0.093 -0.21,0.048 m 4.154,-6.69 c -0.513,-0.307 -1.096,-0.213 -1.713,-0.116 -0.552,0.09 -1.12,0.182 -1.697,0.007 -0.177,-0.054 -0.276,-0.241 -0.223,-0.417 0.053,-0.177 0.24,-0.277 0.416,-0.224 0.428,0.13 0.9,0.054 1.398,-0.025 0.675,-0.11 1.44,-0.232 2.161,0.2 0.159,0.095 0.211,0.3 0.116,0.459 -0.094,0.159 -0.298,0.211 -0.458,0.116 m -17.484,1.836 c -0.038,-0.155 0.056,-0.311 0.21,-0.349 2.245,-0.556 4.614,-0.824 6.904,-1.084 2.328,-0.264 4.735,-0.537 6.985,-1.112 0.154,-0.038 0.31,0.054 0.35,0.208 0.039,0.155 -0.054,0.311 -0.208,0.35 -2.288,0.585 -4.715,0.86 -7.063,1.128 -2.272,0.256 -4.622,0.523 -6.831,1.069 -0.154,0.04 -0.309,-0.056 -0.347,-0.21 m 1.686,2.257 c -0.173,-0.299 -0.422,-0.535 -0.686,-0.783 -0.265,-0.251 -0.539,-0.51 -0.728,-0.838 -0.035,-0.061 -0.014,-0.137 0.046,-0.171 0.059,-0.034 0.135,-0.015 0.169,0.045 0.171,0.298 0.42,0.533 0.684,0.781 0.266,0.251 0.54,0.51 0.731,0.841 0.034,0.059 0.014,0.136 -0.046,0.171 -0.059,0.034 -0.135,0.014 -0.17,-0.046 m 2.147,4.015 c -0.127,-0.352 -0.374,-0.629 -0.637,-0.924 -0.295,-0.331 -0.6,-0.674 -0.748,-1.146 -0.044,-0.142 0.035,-0.292 0.175,-0.337 0.141,-0.045 0.291,0.034 0.335,0.176 0.114,0.361 0.368,0.647 0.637,0.95 0.284,0.32 0.578,0.649 0.741,1.1 0.049,0.139 -0.021,0.291 -0.161,0.343 -0.139,0.05 -0.291,-0.021 -0.342,-0.162 m 11.868,5.013 c -0.284,-0.1 -0.51,-0.179 -0.766,-0.481 -0.107,-0.127 -0.092,-0.317 0.034,-0.425 0.126,-0.108 0.316,-0.092 0.423,0.034 0.152,0.178 0.25,0.213 0.508,0.303 0.157,0.056 0.239,0.227 0.185,0.385 -0.055,0.157 -0.226,0.239 -0.384,0.184 m -70.047,0.022 c -0.072,-0.127 -0.028,-0.289 0.099,-0.362 7.474,-4.26 14.58,-7.261 21.723,-9.175 0.141,-0.038 0.286,0.046 0.323,0.188 0.039,0.141 -0.046,0.286 -0.187,0.324 -7.099,1.902 -14.164,4.886 -21.598,9.124 -0.126,0.073 -0.288,0.028 -0.36,-0.099 m -12.223,9.37 c -0.074,-0.092 -0.023,-0.251 0.069,-0.327 l 0.443,-0.363 c 0.166,-0.166 0.338,-0.338 0.572,-0.45 0.107,-0.052 0.237,-0.007 0.288,0.101 0.052,0.108 0.006,0.238 -0.101,0.289 -0.169,0.08 -0.307,0.219 -0.455,0.367 l -0.55,0.441 c -0.093,0.075 -0.191,0.036 -0.266,-0.058 m 88.411,-4.453 c -0.156,-0.056 -0.351,-0.123 -0.394,-0.31 -0.016,-0.074 0.031,-0.127 0.099,-0.155 0.07,-0.028 0.156,0.019 0.196,0.083 0.018,0.031 0.141,0.074 0.199,0.094 0.079,0.027 0.122,0.115 0.094,0.193 -0.028,0.08 -0.114,0.122 -0.194,0.095 m -7.039,-3.201 -0.951,-0.207 -0.506,-0.137 c -0.171,-0.046 -0.288,-0.226 -0.241,-0.397 0.045,-0.17 0.204,-0.276 0.374,-0.23 l 0.554,0.149 0.818,0.183 c 0.173,0.038 0.325,0.215 0.288,0.387 -0.039,0.173 -0.164,0.289 -0.336,0.252 m -0.742,-15.15 c -0.077,-0.06 -0.09,-0.172 -0.029,-0.249 9.771,-12.332 24.266,-21.21 40.814,-24.999 0.095,-0.022 0.19,0.038 0.212,0.134 0.021,0.096 -0.037,0.19 -0.133,0.212 -16.471,3.77 -30.895,12.604 -40.616,24.873 -0.061,0.078 -0.172,0.091 -0.248,0.029 M 1.711,30.525 c -0.135,-0.183 -0.097,-0.442 0.085,-0.579 5.097,-3.802 9.597,-7.321 13.052,-11.88 0.138,-0.181 0.397,-0.216 0.579,-0.079 0.18,0.138 0.215,0.398 0.077,0.581 C 11.984,23.212 7.436,26.769 2.289,30.61 2.106,30.747 1.847,30.708 1.711,30.525 M 2.826,41.112 C 2.688,41.077 2.605,40.935 2.641,40.797 2.802,40.167 2.88,39.504 2.956,38.866 l 0.083,-0.675 c 0.018,-0.142 0.147,-0.24 0.288,-0.222 0.141,0.017 0.241,0.15 0.224,0.291 L 3.468,38.927 C 3.391,39.583 3.31,40.262 3.141,40.925 3.105,41.063 2.965,41.147 2.826,41.112 m -10.68,21.735 c -3.019,-2.386 -6.912,-4.314 -11.575,-5.73 -0.169,-0.052 -0.263,-0.231 -0.213,-0.4 0.052,-0.169 0.23,-0.265 0.398,-0.214 4.738,1.44 8.703,3.405 11.786,5.84 0.138,0.109 0.161,0.311 0.052,0.45 -0.109,0.139 -0.309,0.163 -0.448,0.054 m 0.871,0.415 c -0.074,-0.116 -0.044,-0.266 0.071,-0.34 l 1.056,-0.676 c 1.701,-1.062 3.459,-2.163 3.949,-4.25 0.047,-0.822 0.019,-1.723 -0.007,-2.593 -0.065,-2.141 -0.132,-4.353 0.95,-6.348 0.065,-0.121 0.216,-0.165 0.336,-0.099 0.121,0.065 0.165,0.216 0.099,0.336 -1.018,1.878 -0.952,4.022 -0.89,6.095 0.027,0.883 0.054,1.794 0,2.681 -0.541,2.328 -2.389,3.483 -4.176,4.6 l -1.042,0.667 c -0.115,0.073 -0.274,0.043 -0.346,-0.073 m -83.033,1.457 c -0.075,-0.089 -0.064,-0.222 0.024,-0.299 0.606,-0.519 1.348,-0.827 2.065,-1.124 0.828,-0.344 1.611,-0.668 2.157,-1.287 0.078,-0.088 0.21,-0.095 0.297,-0.018 0.087,0.077 0.096,0.211 0.018,0.297 -0.61,0.692 -1.475,1.051 -2.311,1.399 -0.687,0.284 -1.397,0.579 -1.953,1.055 -0.088,0.076 -0.22,0.065 -0.297,-0.023 m -22.746,-2.198 -0.453,-0.079 -0.339,-0.053 c -0.171,-0.026 -0.279,-0.185 -0.252,-0.356 0.027,-0.172 0.196,-0.287 0.367,-0.261 l 0.311,0.049 0.513,0.09 c 0.17,0.03 0.264,0.188 0.235,0.359 -0.03,0.171 -0.212,0.281 -0.382,0.251 m -8.278,8.421 -0.52,-1.112 c -0.394,-0.829 -0.802,-1.685 -1.103,-2.552 -0.033,-0.096 0.017,-0.204 0.114,-0.236 0.096,-0.033 0.203,0.018 0.235,0.114 0.294,0.848 0.697,1.695 1.087,2.514 l 0.523,1.12 c 0.044,0.093 0.003,0.201 -0.089,0.244 -0.093,0.043 -0.204,10e-4 -0.247,-0.092 m 11.848,-18.189 c -0.096,-0.167 -0.037,-0.38 0.129,-0.477 8.564,-4.919 16.351,-9.248 24.918,-12.408 0.181,-0.067 0.38,0.025 0.448,0.206 0.065,0.182 -0.027,0.382 -0.207,0.448 -8.517,3.144 -16.276,7.457 -24.812,12.361 -0.168,0.095 -0.38,0.037 -0.476,-0.13 m 10.408,-10.437 c -0.02,-0.133 0.071,-0.257 0.204,-0.277 4.414,-0.667 8.98,-1.358 13.267,-3.425 0.121,-0.057 0.266,-0.007 0.323,0.115 0.058,0.121 0.008,0.266 -0.113,0.324 -4.353,2.098 -8.955,2.795 -13.405,3.468 -0.133,0.021 -0.256,-0.072 -0.276,-0.205 m 32.259,-20.48 c -3.643,-1.286 -8.408,-1.399 -13.071,-0.31 -0.11,0.025 -0.22,-0.044 -0.246,-0.155 -0.026,-0.111 0.043,-0.221 0.153,-0.248 4.737,-1.104 9.585,-0.986 13.3,0.325 0.107,0.037 0.163,0.155 0.126,0.262 -0.038,0.108 -0.155,0.164 -0.262,0.126 m -7.514,9.487 c -0.478,-0.215 -0.981,-0.346 -1.514,-0.485 l -0.871,-0.243 c -0.191,-0.054 -0.292,-0.249 -0.239,-0.44 0.053,-0.192 0.262,-0.301 0.453,-0.247 l 0.838,0.233 c 0.538,0.141 1.095,0.286 1.626,0.526 0.181,0.081 0.262,0.293 0.181,0.474 -0.081,0.183 -0.293,0.262 -0.474,0.182 m -3.809,0.82 v -0.608 c 0,-0.064 0.052,-0.117 0.116,-0.117 0.065,0 0.117,0.053 0.117,0.117 v 0.608 c 0,0.065 -0.052,0.117 -0.117,0.117 -0.064,0 -0.116,-0.052 -0.116,-0.117 m 0.254,-3.894 c -0.088,-0.036 -0.131,-0.136 -0.095,-0.225 l 0.028,-0.07 c 0.136,-0.336 0.289,-0.715 0.173,-1.019 -0.034,-0.09 0.01,-0.189 0.098,-0.224 0.089,-0.034 0.188,0.011 0.223,0.1 0.165,0.431 -0.024,0.897 -0.175,1.272 l -0.029,0.07 c -0.035,0.089 -0.135,0.131 -0.223,0.096 m -1.739,-5.113 c -0.305,-0.676 -0.485,-1.219 -0.584,-1.761 -0.027,-0.152 0.073,-0.298 0.225,-0.326 0.151,-0.027 0.296,0.073 0.324,0.226 0.091,0.495 0.259,0.997 0.544,1.63 0.063,0.141 0.001,0.307 -0.139,0.371 -0.141,0.063 -0.307,0 -0.37,-0.14 m -7.378,-0.791 c -0.038,-0.16 0.073,-0.324 0.233,-0.362 l 1.769,-0.414 c 1.699,-0.428 3.456,-0.872 5.125,-0.538 0.162,0.032 0.267,0.19 0.234,0.352 -0.032,0.162 -0.189,0.267 -0.351,0.236 -1.537,-0.308 -3.227,0.118 -4.862,0.531 l -1.8,0.42 c -0.161,0.038 -0.311,-0.064 -0.348,-0.225 m 14.247,13.951 c -0.054,-0.103 -0.014,-0.231 0.089,-0.286 6.85,-3.61 14.277,-5.773 22.709,-6.613 0.117,-0.011 0.22,0.074 0.231,0.191 0.012,0.117 -0.073,0.221 -0.189,0.233 -8.376,0.834 -15.754,2.982 -22.553,6.565 -0.104,0.055 -0.232,0.014 -0.287,-0.09 m 7.983,3.954 -2.079,-0.508 c -2.073,-0.493 -4.218,-1.002 -6.227,-1.866 -0.175,-0.074 -0.256,-0.277 -0.181,-0.453 0.075,-0.174 0.278,-0.256 0.452,-0.181 1.955,0.84 4.069,1.342 6.114,1.827 l 2.092,0.512 c 0.185,0.044 0.294,0.23 0.249,0.416 -0.045,0.185 -0.235,0.298 -0.42,0.253 m 8.905,-2.104 c -1.431,-0.818 -3.317,-1.359 -5.602,-1.603 -0.078,-0.008 -0.135,-0.079 -0.127,-0.157 0.009,-0.079 0.079,-0.136 0.157,-0.127 2.326,0.248 4.247,0.8 5.714,1.639 0.068,0.039 0.092,0.127 0.053,0.196 -0.039,0.068 -0.126,0.093 -0.195,0.052 M 1.864,33.091 C 1.745,32.699 1.51,32.333 1.282,31.98 L 1.17,31.804 c -0.035,-0.057 -0.02,-0.133 0.038,-0.17 0.058,-0.037 0.133,-0.019 0.169,0.038 l 0.112,0.174 C 1.725,32.214 1.97,32.594 2.1,33.02 2.118,33.085 2.083,33.154 2.018,33.174 1.953,33.194 1.884,33.157 1.864,33.091 M 12.766,27.225 C 12.684,27.098 12.72,26.93 12.845,26.847 25.619,18.473 35.473,11.548 44.795,4.395 c 0.119,-0.091 0.289,-0.068 0.381,0.051 0.09,0.119 0.068,0.291 -0.051,0.382 -9.334,7.161 -19.197,14.093 -31.982,22.475 -0.126,0.083 -0.294,0.047 -0.377,-0.078 M 2.61,33.378 c -0.09,-0.172 -0.024,-0.384 0.147,-0.474 1.544,-0.813 3.058,-1.748 4.522,-2.653 1.275,-0.787 2.593,-1.602 3.93,-2.335 0.17,-0.093 0.382,-0.031 0.476,0.139 0.092,0.171 0.03,0.384 -0.14,0.476 C 10.224,29.257 8.913,30.066 7.646,30.85 6.172,31.76 4.648,32.702 3.082,33.526 2.911,33.616 2.699,33.55 2.61,33.378 M 3.896,48.255 C 3.843,48.14 3.894,48.004 4.008,47.952 5.567,47.234 6.843,45.777 7.337,44.148 7.607,43.258 7.758,41.915 6.94,40.575 6.874,40.467 6.907,40.327 7.015,40.261 c 0.108,-0.067 0.248,-0.033 0.314,0.074 0.718,1.176 0.872,2.542 0.445,3.947 -0.531,1.75 -1.902,3.316 -3.575,4.086 -0.115,0.053 -0.251,0.002 -0.303,-0.113 m -14.321,16.5 c -0.04,-0.045 -0.036,-0.113 0.009,-0.153 0.259,-0.234 0.572,-0.409 0.874,-0.578 l 0.254,-0.145 c 0.052,-0.03 0.12,-0.012 0.15,0.04 0.029,0.053 0.013,0.119 -0.04,0.149 l -0.259,0.146 c -0.291,0.163 -0.592,0.332 -0.834,0.55 -0.045,0.04 -0.114,0.036 -0.154,-0.009 m 3.81,-0.648 -0.235,-0.431 -0.092,-0.157 c -0.084,-0.148 -0.033,-0.337 0.114,-0.422 0.148,-0.086 0.337,-0.034 0.423,0.115 l 0.089,0.153 0.258,0.474 c 0.081,0.15 0.019,0.324 -0.13,0.406 -0.149,0.082 -0.345,0.012 -0.427,-0.138 m -30.002,10.947 c -0.036,-0.171 0.073,-0.337 0.242,-0.374 l 0.152,-0.032 0.441,-0.099 c 0.17,-0.039 0.347,0.065 0.386,0.235 0.038,0.17 -0.058,0.336 -0.228,0.374 l -0.471,0.107 -0.148,0.032 c -0.169,0.036 -0.338,-0.072 -0.374,-0.243 m 0.119,3.34 -0.039,-0.019 -0.03,-0.031 c -0.333,-0.347 -0.708,-0.772 -0.963,-1.292 -0.056,-0.116 -0.008,-0.257 0.108,-0.315 0.115,-0.057 0.255,-0.008 0.313,0.108 0.216,0.442 0.53,0.803 0.841,1.13 0.356,0.159 0.773,0.181 1.28,0.056 -10e-4,-0.001 -0.002,-0.001 -0.002,-0.002 0,-0.015 0.11,-0.116 0.11,-0.116 0.101,-0.114 0.238,-0.27 0.476,-0.287 0.129,-0.008 0.24,0.09 0.248,0.219 0.009,0.13 -0.09,0.242 -0.218,0.251 -0.04,0.002 -0.081,0.043 -0.155,0.128 l -0.304,0.25 c -0.669,0.169 -1.201,0.138 -1.665,-0.08 m 4.335,-19.074 c -0.594,-0.899 -1.308,-1.752 -1.998,-2.576 -0.882,-1.054 -1.794,-2.144 -2.486,-3.361 -0.085,-0.151 -0.033,-0.341 0.116,-0.426 0.15,-0.085 0.34,-0.034 0.425,0.116 0.664,1.169 1.558,2.237 2.422,3.268 0.701,0.839 1.427,1.705 2.04,2.635 0.095,0.144 0.055,0.337 -0.088,0.432 -0.144,0.095 -0.337,0.056 -0.431,-0.088 m -12.801,-7.109 c -0.053,-0.037 -0.067,-0.111 -0.03,-0.165 0.261,-0.38 0.454,-0.768 0.592,-1.187 0.02,-0.062 0.087,-0.095 0.148,-0.074 0.063,0.02 0.096,0.087 0.076,0.149 -0.145,0.44 -0.348,0.847 -0.621,1.246 -0.037,0.053 -0.111,0.067 -0.165,0.031 m -69.175,26.92 c -1.7,-0.324 -3.205,-1.591 -4.601,-3.872 l -1.424,-2.474 -0.35,-0.618 c -0.047,-0.082 -0.018,-0.186 0.063,-0.233 0.082,-0.046 0.185,-0.018 0.232,0.064 l 0.35,0.619 1.42,2.465 c 1.342,2.193 2.773,3.408 4.374,3.714 2.727,0.521 5.636,-1.667 8.716,-3.983 1.327,-0.999 2.699,-2.032 4.101,-2.877 0.08,-0.048 0.185,-0.022 0.233,0.059 0.048,0.08 0.022,0.186 -0.058,0.234 -1.386,0.835 -2.752,1.863 -4.073,2.857 -3.141,2.363 -6.107,4.595 -8.983,4.045 m 6.793,4.553 c -0.142,-0.364 -0.381,-0.665 -0.633,-0.986 l -0.574,-0.827 c -0.038,-0.056 -0.017,-0.118 0.038,-0.156 0.056,-0.04 0.139,-0.013 0.178,0.043 l 0.547,0.789 c 0.254,0.319 0.516,0.65 0.67,1.048 0.025,0.062 -0.006,0.133 -0.068,0.158 -0.063,0.024 -0.133,-0.007 -0.158,-0.069 m -5.444,-7.851 c 0.057,0.305 0.87,0.855 0.405,1.014 -0.057,-0.304 -0.869,-0.854 -0.405,-1.014 m 67.894,-31.424 c -0.782,-0.027 -0.797,-0.823 -1.415,-1.013 l 0.101,-0.203 -0.101,-0.204 c 0.188,-0.216 0.746,-0.063 0.606,-0.608 h 0.202 v -0.202 c 0.694,0.384 0.803,1.357 1.212,2.027 l -0.303,0.102 z m 3.232,3.446 c -0.422,-0.251 -0.759,-0.589 -1.01,-1.013 l 0.303,-0.237 -0.101,-0.371 c 0.815,-0.253 1.02,-0.805 2.021,-0.406 0.254,0.27 -0.598,1.147 -0.808,1.623 l -0.304,0.1 z m -66.882,4.867 c -3.433,2.569 -7.818,4.184 -10.912,7.095 0.548,2.768 3.919,-0.319 5.254,-1.216 4.062,-2.729 8.844,-5.84 12.528,-7.501 l 0.263,0.263 0.344,0.142 c -2.756,1.779 -6.909,4.377 -9.902,6.488 -0.861,0.607 -3.645,2.053 -2.627,2.432 l -0.101,0.304 0.303,0.102 c -0.224,0.636 -0.094,0.535 0.202,1.014 l -0.303,0.236 0.101,0.372 c -1.916,0.326 -3.757,-0.414 -5.253,0.202 -1.491,0.615 -2.822,3.562 -3.637,4.663 l -0.203,-0.101 -0.201,0.101 c -3.3,-0.782 -5.485,0.863 -7.679,1.622 -1.534,0.531 -2.998,0.532 -4.445,0.811 -2.429,0.469 -4.724,1.154 -4.647,-2.027 1.456,-1.741 2.876,0.947 4.647,1.216 1.776,0.27 6.574,-1.698 6.871,-2.838 0.476,-1.842 -2.28,-4.891 -2.022,-6.285 0.4,-2.161 2.546,-1.006 4.042,-0.609 3.386,0.902 5.059,-0.334 7.274,-1.621 3.279,-1.904 6.084,-3.506 9.496,-5.271 l 0.263,0.263 z m 9.9,-10.138 c -1.351,-0.008 -1.736,0.478 -2.625,1.014 -0.5,0.3 -0.363,-0.029 -0.809,0.203 0.163,-0.084 -0.146,0.521 -0.404,0.608 -2.738,0.923 -5.268,-0.969 -4.85,-4.663 0.878,-0.829 0.887,-1.357 1.617,-1.621 4.042,-1.474 4.902,4.186 7.274,3.852 l -0.101,0.303 z m 24.652,-11.961 c 1.942,0.54 3.568,-0.664 4.85,0.203 -1.209,0.779 -3.691,1.515 -5.051,0.405 l 0.302,-0.236 z m -3.233,-2.636 v 0.812 c 0.345,0.465 0.749,0.869 1.212,1.215 l -0.302,0.237 0.101,0.372 c -0.679,0.197 -1.008,0.746 -1.415,1.216 l -0.101,-0.304 -0.101,0.304 c -1.222,-0.781 -2.17,0.318 -3.637,0.405 -2.258,0.136 -4.82,-0.633 -5.052,-2.838 -0.234,-2.233 1.682,-3.442 3.436,-3.446 1.819,-0.004 3.489,1.759 5.455,1.825 l 0.101,0.304 z m -1.616,-5.271 c 0.935,1.089 2.186,1.862 1.819,4.258 l -0.304,-0.101 -0.101,0.303 c -1.044,-1.048 -1.895,-2.287 -2.02,-4.258 l 0.37,0.103 z m 29.299,6.69 c 0.437,-0.741 1.941,-0.395 1.818,0.608 -0.549,0.451 -1.622,0.126 -2.02,-0.201 l 0.101,-0.204 z m -23.035,8.515 c -0.73,-0.379 -2.114,-0.615 -3.031,-0.202 l 0.072,-0.362 -0.274,-0.246 c 1.064,-0.555 2.516,-0.72 3.637,-1.217 l -0.101,0.304 0.303,0.102 c -0.086,0.386 -0.577,0.367 -0.404,1.013 l -0.274,0.247 z M 14.914,18.053 c 0.101,-0.844 0.707,-1.182 0.808,-2.027 C 14.936,15.209 13.494,13.687 12.085,13.188 10.766,12.721 9.287,13.142 7.64,13.391 L 7.588,12.984 7.235,12.782 c 3.168,-0.838 8.458,-2.619 9.699,0.81 0.566,1.564 -0.411,3.815 -1.616,5.069 L 15.176,18.318 Z M 44.617,4.47 c 3.182,-0.994 2.216,-8.673 7.071,-7.502 2.498,0.603 2.03,5.26 -0.605,6.285 -1.03,0.4 -2.017,0.034 -3.436,0 -0.723,0.626 -1.501,1.198 -2.425,1.623 L 44.96,4.611 Z M 11.075,27.987 c 0.422,-0.589 1.217,-0.804 1.818,-1.216 l 0.101,0.304 0.101,0.304 c -0.064,0.476 -0.319,0.762 -0.202,1.42 -0.65,0.044 -0.854,-0.359 -1.616,-0.203 l 0.101,-0.372 z M 4.811,38.125 C 4.193,37.978 4.074,38.332 3.598,38.326 l -0.303,-0.1 -0.303,0.1 V 37.313 C 2.422,36.465 1.409,36.064 0.972,35.084 1.001,34.167 1.678,33.9 1.779,33.056 h 0.203 v -0.203 c 0.384,0.379 0.507,0.022 1.01,0 l -0.072,0.362 0.274,0.246 c -0.723,1.901 0.548,3.301 1.617,4.055 L 4.709,37.82 Z M 4.407,48.261 c -0.317,0.496 -1.884,1.057 -2.021,0 0.072,-0.672 1.165,-0.319 1.818,-0.406 L 4.103,48.16 Z m -5.457,0.811 v -0.608 c -1.221,-1.051 -3.309,-0.016 -4.445,-1.013 0.094,-0.714 0.47,-1.347 1.011,-1.826 0.513,-0.454 1.606,-0.319 1.212,-0.811 1.444,-0.175 3.097,-1.214 4.042,-1.216 0.111,0 0.229,-0.164 0,-0.202 0.914,-0.569 1.141,-1.829 1.818,-2.636 l 0.303,0.101 0.303,-0.101 c -0.009,0.279 0.096,0.445 0.202,0.608 1.042,-0.47 2.04,-1.74 1.616,-3.042 l 0.303,-0.1 -0.101,-0.305 h 0.405 c 2.162,-1.76 2.545,-7.041 6.466,-6.487 1.935,0.273 2.594,2.897 1.818,4.663 -1.099,2.502 -5.45,2.194 -6.466,4.46 L 7.134,40.455 7.033,40.76 C 6.773,40.729 6.755,40.526 6.427,40.557 5.156,40.678 3.304,42.936 2.386,44.206 1.097,45.99 0.393,48.318 -0.646,49.478 l -0.1,-0.304 z m -5.051,14.597 c 0.673,0.646 1.153,1.737 0.809,2.839 -2.224,1.79 -4.745,-1.263 -6.871,-0.811 -0.883,0.804 0.074,2.118 -0.202,2.837 -4.297,1.07 -4.856,-4.205 -1.616,-4.662 1.332,-0.188 2.516,0.933 3.637,0.608 v 0.203 h 0.201 c 0.735,1.251 3.703,1.514 3.436,-0.811 l 0.371,0.101 z M -7.515,62.25 c 0.299,0.106 0.509,0.3 0.808,0.405 l -0.068,0.473 0.472,-0.067 v 0.405 l -0.37,-0.101 -0.237,0.304 C -7.407,63 -8.368,63.93 -7.92,62.858 l 0.263,-0.263 z m -28.491,12.976 c -0.509,0.367 -0.888,0.866 -1.01,1.621 l -0.303,0.101 -0.101,0.305 c -0.756,-1.202 -2.738,-1.172 -3.233,-2.636 1.325,-0.6 2.894,0.165 4.445,0 l -0.101,0.371 z m 4.243,-16.422 c 1.482,2.225 3.196,3.461 5.455,4.865 1.035,0.643 2.517,1.829 3.436,1.622 2.065,-0.464 2.696,-8.04 -0.202,-8.312 -0.521,-0.048 0.278,-0.349 0,-0.811 -0.926,-0.132 -1.548,-1.024 -2.425,-0.608 v 0.608 l -0.202,-0.102 -0.202,0.102 c -2.142,-0.149 -2.978,0.892 -4.243,0.608 -1.237,-0.277 -2.154,-1.612 -2.627,-3.649 l 0.303,-0.237 -0.101,-0.371 c 0.585,-0.09 0.921,-0.428 1.01,-1.014 l 0.102,-0.305 0.101,-0.303 c 4.859,1.138 7.597,4.406 12.325,5.676 l -0.302,0.237 0.1,0.372 h -0.606 c -0.92,0.913 -0.347,2.018 -0.202,3.041 0.55,3.868 -1.598,6.043 -3.232,8.311 -0.792,1.098 -1.443,2.423 -2.628,3.042 -0.488,0.256 -0.273,-0.28 -0.809,-0.203 -0.322,0.046 -0.8,0.54 -1.01,0.608 -3.025,0.981 -4.719,2.894 -8.081,3.245 l 0.1,-0.372 -0.303,-0.237 c 1.49,-0.871 3.745,-0.972 4.648,-2.432 0.265,-1.96 -0.65,-3.521 -0.405,-5.88 0.173,-1.67 1.241,-3.085 1.01,-4.46 -0.176,-1.055 -1.309,-1.417 -1.414,-2.433 l 0.263,-0.264 z M -66.922,48.666 c 1.079,-0.677 0.918,-2.684 0.203,-3.649 -4.06,-0.866 -4.431,5.035 -0.203,3.649 m 0.809,2.231 V 49.68 c -0.526,-0.379 -1.929,-0.284 -2.223,0.203 -0.05,1.455 1.46,2.01 2.223,1.014 m -19.499,11.251 -0.304,0.102 c -1.825,-0.546 -5.488,0.062 -8.688,0.203 -6.308,0.277 -12.766,0.353 -18.387,0 l 0.302,-0.237 -0.101,-0.371 c 6.68,0.014 15.522,-0.063 22.227,-0.609 5.138,-0.418 11.129,-0.928 15.155,-2.635 1.719,-0.729 4.316,-2.341 4.445,-2.839 0.873,-3.349 -3.983,-2.792 -6.061,-3.446 -1.935,-0.608 -2.309,-1.786 -3.435,-2.838 0.859,-1.67 1.209,-2.786 2.828,-3.65 1.955,-1.044 4.761,0.071 5.052,-2.027 -0.667,-0.701 -2.29,-1.255 -3.637,-1.42 -1.218,-0.147 -2.492,0.024 -3.638,0.203 l 0.102,-0.372 -0.303,-0.235 c -0.307,-1.559 -2.633,-2.182 -4.042,-1.42 l 0.073,-0.362 -0.275,-0.246 V 39.34 c -0.234,-0.17 -0.541,-0.267 -1.01,-0.202 l 0.101,-0.305 -0.303,-0.101 c -0.306,-1.147 -2.379,-2.461 -3.839,-2.635 -2.221,-0.264 -4.767,0.756 -4.85,-1.621 -0.049,-1.414 1.353,-1.019 1.617,-2.839 -3.182,-4.981 1.059,-9.531 6.264,-9.732 l -0.101,0.372 0.303,0.236 c -3.25,1.11 -6.444,2.72 -6.264,6.487 0.094,1.992 3.08,5.633 4.243,6.489 1.434,1.055 4.29,2.137 5.86,2.027 0.869,-0.061 1.388,-0.965 2.424,-0.81 1.039,0.512 -0.921,1.332 0.203,1.823 l -0.101,0.304 0.101,0.305 c -0.043,0.227 -0.224,0.315 -0.404,0.405 1.028,2.354 5.223,1.494 8.284,1.825 2.56,0.276 6.419,2.394 7.072,-1.217 l 0.304,-0.236 -0.102,-0.372 c 2.675,0.615 4.833,-0.097 6.466,-0.607 0.781,-0.245 2.177,0.01 2.223,-1.015 l 0.303,0.102 -0.101,-0.304 c 2.791,0.845 5.483,2.187 8.689,2.027 l -0.101,0.372 0.303,0.236 v 0.406 h -0.202 v 0.202 c -0.493,-0.383 -1.199,-0.559 -1.616,0 v 0.204 l -0.304,-0.102 0.101,0.304 c -0.621,0.03 -0.909,-0.713 -1.414,-0.202 -0.598,1.202 0.827,1.597 1.414,2.23 0.711,1.382 1.112,3.073 1.414,4.865 0.595,0.541 2.592,0.567 3.435,0.203 l 0.101,0.304 0.304,-0.102 c 0.549,0.451 1.622,0.126 2.02,-0.202 l 0.303,-0.101 0.102,-0.305 c 2.93,2.634 5.882,1.615 9.092,0.406 2.837,-1.069 5.386,-2.156 7.881,-3.244 1.449,-0.632 3.028,-1.748 3.839,-1.622 0.112,0 0.23,-0.164 0,-0.202 1.278,-0.88 2.852,-1.464 4.244,-2.23 0.377,-1.098 -0.034,-2.141 -0.405,-3.041 -1.533,-0.558 -3.767,-0.41 -5.658,-0.609 l 0.102,-0.371 -0.304,-0.237 c 4.305,0.122 9.308,-1.081 12.528,0.608 1.131,-0.459 2.529,-1.588 4.446,-2.839 2.528,-1.649 5.902,-2.819 2.828,-5.068 l 0.101,-0.203 0.101,-0.202 c 1.611,-1.191 2.338,0.881 4.041,0.81 l 0.263,0.264 0.344,0.142 c -0.235,0.509 -0.805,0.679 -0.808,1.419 l -0.303,-0.101 0.1,0.304 c -2.026,0.396 -3.613,1.907 -5.253,3.042 -2.679,1.849 -5.667,3.355 -7.477,5.676 -6.308,1.51 -10.245,5.398 -16.165,7.298 -0.52,0.492 -0.524,1.501 -1.212,1.825 -1.13,-0.039 -2.784,-0.666 -3.031,0.608 v 0.406 l -0.37,-0.102 -0.236,0.305 c -1.247,-0.598 -2.51,0.533 -1.212,1.216 l -0.304,0.236 0.102,0.372 c -1.047,-0.176 -1.618,-0.639 -2.223,0.203 v 0.203 l -0.37,-0.102 -0.236,0.304 c -1.411,-1.18 -5.222,-0.271 -7.679,1.014 -0.859,0.45 -1.426,1.383 -2.222,1.825 -2.251,1.248 -7.518,1.986 -7.274,-1.419 0.248,-3.47 6.144,-1.657 8.891,-3.042 v 0.203 h 0.201 c 0.915,0.107 1.32,-0.298 1.213,-1.216 -0.352,-0.016 -0.629,0.045 -0.809,0.203 v -0.203 h -0.202 c -0.305,-0.834 -2.613,-1.509 -3.839,-1.419 -0.793,0.057 -1.589,0.837 -2.424,1.013 -4.288,0.906 -9.997,-1.366 -13.337,0.811 -0.729,1.43 -1.772,2.547 -2.626,3.852 -2.953,1.385 -5.085,3.307 -8.285,4.46 -3.187,1.149 -7.325,1.899 -10.507,2.839 z m -21.621,21.491 -0.101,-0.305 c 2.255,0.304 4.147,2.48 3.031,4.259 -0.199,0.317 -1.394,0.993 -2.425,0.81 -1.894,-0.338 -2.248,-3.429 -0.808,-4.865 z M 17.136,17.851 c 0.925,-0.077 1.052,0.647 0.809,1.216 -0.832,0.155 -1.273,-0.691 -0.809,-1.216 m -48.09,4.257 c -0.259,0.011 -0.281,0.261 -0.607,0.203 -0.314,-0.499 0.686,-0.596 0.607,-0.203 m -25.461,4.055 c 0.59,-0.299 0.59,0.907 0,0.608 z m -28.288,22.301 c 0.644,-0.174 0.625,0.319 1.011,0.406 -0.025,0.515 -0.295,0.785 -0.808,0.81 -0.245,-0.315 -0.647,-0.789 -0.203,-1.216 m 5.052,7.907 c -1.165,-3.906 3.728,-3.483 4.243,-1.622 0.604,2.182 -0.751,3.313 -2.627,2.838 -1.033,-0.262 -1.539,-0.957 -1.616,-1.216 m -35.765,7.703 c -0.341,0.551 0.32,0.95 -0.404,1.217 -0.434,-0.433 -0.076,-1.104 0.404,-1.217 m 98.403,3.042 c -0.017,0.553 0.338,0.407 0,0.811 -0.777,0.159 -0.777,-0.971 0,-0.811 M 6.628,66.913 c 0.227,-0.043 0.316,-0.225 0.405,-0.405 1.002,-0.06 1.473,0.413 1.415,1.419 -0.728,0.708 -2.009,0.314 -1.82,-1.014 m -122.448,1.825 c -0.056,0.355 0.569,1.011 0,1.216 0.055,-0.355 -0.569,-1.012 0,-1.216 M 7.821,63.243 8.246,63.264 c 1.461,-1.642 2.522,-3.687 4.041,-5.271 1.692,-0.626 2.868,-0.445 4.042,-1.42 2.299,-1.91 2.547,-7.049 -0.203,-7.703 -2.43,-0.58 -4.38,1.385 -5.051,3.852 -0.395,1.447 0.11,3.172 -0.203,4.663 -0.44,2.105 -2.698,3.755 -3.435,5.676 z"
             style="fill:#262626;fill-opacity:1;fill-rule:nonzero;stroke:none"
             id="path154"
             inkscape:connector-curvature="0" />
        </g>
      </g>
    </g>
  </g>
</svg>
