<?xml version="1.0" encoding="UTF-8" standalone="no"?>
<!-- Created with Inkscape (http://www.inkscape.org/) -->

<svg
   xmlns:dc="http://purl.org/dc/elements/1.1/"
   xmlns:cc="http://creativecommons.org/ns#"
   xmlns:rdf="http://www.w3.org/1999/02/22-rdf-syntax-ns#"
   xmlns:svg="http://www.w3.org/2000/svg"
   xmlns="http://www.w3.org/2000/svg"
   xmlns:sodipodi="http://sodipodi.sourceforge.net/DTD/sodipodi-0.dtd"
   xmlns:inkscape="http://www.inkscape.org/namespaces/inkscape"
   width="64.793434mm"
   height="43.914482mm"
   viewBox="0 0 64.793434 43.914482"
   version="1.1"
   id="svg4363"
   inkscape:version="0.92.2 2405546, 2018-03-11"
   sodipodi:docname="paint-big08.svg">
  <defs
     id="defs4357">
    <clipPath
       clipPathUnits="userSpaceOnUse"
       id="clipPath66">
      <path
         d="M 0,600 H 600 V 0 H 0 Z"
         id="path64"
         inkscape:connector-curvature="0" />
    </clipPath>
  </defs>
  <sodipodi:namedview
     id="base"
     pagecolor="#ffffff"
     bordercolor="#666666"
     borderopacity="1.0"
     inkscape:pageopacity="0.0"
     inkscape:pageshadow="2"
     inkscape:zoom="0.35"
     inkscape:cx="8.5714271"
     inkscape:cy="559.99999"
     inkscape:document-units="mm"
     inkscape:current-layer="layer1"
     showgrid="false"
     inkscape:window-width="3840"
     inkscape:window-height="2095"
     inkscape:window-x="0"
     inkscape:window-y="0"
     inkscape:window-maximized="1" />
  <metadata
     id="metadata4360">
    <rdf:RDF>
      <cc:Work
         rdf:about="">
        <dc:format>image/svg+xml</dc:format>
        <dc:type
           rdf:resource="http://purl.org/dc/dcmitype/StillImage" />
        <dc:title></dc:title>
      </cc:Work>
    </rdf:RDF>
  </metadata>
  <g
     inkscape:label="Layer 1"
     inkscape:groupmode="layer"
     id="layer1"
     transform="translate(-3.8270737e-7,-253.08552)">
    <g
       transform="matrix(0.35277777,0,0,-0.35277777,-82.241598,355.57215)"
       id="g60">
      <g
         id="g62"
         clip-path="url(#clipPath66)">
        <g
           id="g68"
           transform="translate(309.9912,207.6523)">
          <path
             d="m 0,0 c -0.274,-0.116 -0.408,-0.359 -0.525,-0.574 -0.082,-0.15 -0.16,-0.289 -0.271,-0.364 -0.074,-0.052 -0.094,-0.156 -0.043,-0.23 0.051,-0.075 0.153,-0.097 0.229,-0.043 0.175,0.119 0.275,0.302 0.373,0.477 0.1,0.184 0.195,0.358 0.365,0.43 0.084,0.034 0.122,0.132 0.088,0.217 C 0.181,-0.004 0.084,0.035 0,0 m 13.474,0.946 c -0.011,-0.047 0.017,-0.094 0.064,-0.107 0.447,-0.112 0.865,-0.27 1.207,-0.454 0.043,-0.023 0.096,-0.007 0.118,0.036 0.025,0.043 0.008,0.099 -0.035,0.12 C 14.38,0.782 13.902,0.929 13.582,1.012 13.533,1.023 13.485,0.993 13.474,0.946 M 7.846,8.084 C 7.554,7.942 7.3,7.726 7.055,7.516 L 6.605,7.154 C 6.565,7.123 6.557,7.062 6.588,7.023 6.618,6.983 6.672,6.975 6.711,7.005 L 7.174,7.377 C 7.421,7.589 7.653,7.787 7.925,7.921 7.971,7.942 7.989,7.997 7.967,8.043 7.945,8.088 7.892,8.108 7.846,8.084 m 52.476,14.935 c -0.05,-0.006 -0.085,-0.051 -0.079,-0.101 0.007,-0.051 0.052,-0.086 0.101,-0.08 0.666,0.082 1.183,-0.323 1.682,-0.715 l 0.246,-0.191 c 0.041,-0.032 0.096,-0.023 0.127,0.018 0.031,0.039 0.022,0.097 -0.017,0.128 l -0.244,0.19 c -0.529,0.414 -1.075,0.842 -1.816,0.751 m -67.084,7.677 c -0.042,-0.044 -0.04,-0.111 0.004,-0.153 0.285,-0.273 0.623,-0.496 0.951,-0.713 0.391,-0.257 0.761,-0.5 1.036,-0.818 0.039,-0.045 0.107,-0.05 0.152,-0.011 0.046,0.039 0.05,0.108 0.011,0.153 -0.294,0.34 -0.695,0.603 -1.08,0.858 -0.321,0.211 -0.651,0.427 -0.92,0.688 -0.044,0.041 -0.112,0.039 -0.154,-0.004 M 56.136,26.387 55.717,26.07 55.524,25.926 c -0.042,-0.03 -0.05,-0.088 -0.019,-0.13 0.03,-0.041 0.089,-0.049 0.131,-0.019 l 0.191,0.144 0.422,0.318 c 0.041,0.032 0.048,0.089 0.018,0.131 -0.032,0.04 -0.089,0.048 -0.131,0.017 M -3.661,34.07 c -0.036,-0.024 -0.046,-0.071 -0.021,-0.105 l 0.957,-1.335 0.273,-0.362 c 0.026,-0.035 0.074,-0.041 0.109,-0.016 0.035,0.026 0.041,0.074 0.016,0.109 L -2.6,32.723 -3.551,34.05 c -0.026,0.034 -0.077,0.046 -0.11,0.02 M 28.479,-4.041 C 28.418,-4.059 28.383,-4.124 28.4,-4.186 l 0.04,-0.137 0.479,-0.145 0.099,-0.027 c 0.061,-0.018 0.126,0.019 0.143,0.081 0.002,0.01 0.003,0.02 0.003,0.031 0,0.051 -0.032,0.098 -0.085,0.112 l -0.1,0.028 c 0,0 -0.271,0.081 -0.351,0.105 -0.002,0.007 -0.004,0.017 -0.004,0.017 -0.019,0.062 -0.083,0.099 -0.145,0.08 M 13.264,-5.039 13.024,-5.201 12.53,-5.558 c -0.126,-0.09 -0.133,-0.248 -0.042,-0.375 0.09,-0.125 0.287,-0.137 0.414,-0.046 l 0.425,0.303 0.283,0.194 c 0.127,0.086 0.145,0.251 0.059,0.378 -0.087,0.129 -0.276,0.152 -0.405,0.065 m -2.356,0.802 c -0.038,-0.025 -0.049,-0.076 -0.025,-0.114 0.153,-0.243 0.354,-0.441 0.55,-0.631 0.197,-0.192 0.381,-0.375 0.523,-0.6 0.024,-0.038 0.075,-0.05 0.114,-0.025 0.039,0.023 0.05,0.074 0.026,0.115 -0.153,0.24 -0.353,0.437 -0.548,0.629 -0.189,0.182 -0.383,0.374 -0.527,0.6 -0.023,0.039 -0.074,0.051 -0.113,0.026 m 38.946,2.596 c -0.113,-0.085 -0.135,-0.246 -0.05,-0.358 0.413,-0.55 0.935,-1.01 1.441,-1.454 l 0.557,-0.502 c 0.104,-0.094 0.269,-0.088 0.363,0.016 0.095,0.105 0.089,0.264 -0.016,0.358 l -0.568,0.511 c -0.486,0.428 -0.988,0.871 -1.371,1.38 -0.084,0.112 -0.244,0.134 -0.356,0.049 M 28.476,-0.295 27.992,-0.489 C 26.981,-0.891 25.938,-1.306 25.147,-2.084 25.11,-2.121 25.11,-2.183 25.146,-2.22 c 0.038,-0.037 0.098,-0.038 0.136,-10e-4 0.763,0.752 1.787,1.159 2.78,1.554 l 0.486,0.194 c 0.049,0.021 0.072,0.077 0.053,0.126 -0.02,0.048 -0.077,0.073 -0.125,0.052 M 27.219,1.864 25.734,0.937 c -0.672,-0.39 -1.367,-0.792 -1.973,-1.31 -0.047,-0.042 -0.054,-0.113 -0.012,-0.16 0.039,-0.048 0.111,-0.053 0.159,-0.013 0.59,0.503 1.276,0.9 1.94,1.286 l 1.503,0.94 c 0.053,0.032 0.063,0.097 0.03,0.151 -0.032,0.054 -0.109,0.066 -0.162,0.033 M 16.108,-6.479 c -0.425,-0.186 -0.67,-0.599 -0.883,-0.964 l -0.103,-0.172 c -0.041,-0.07 -0.02,-0.162 0.049,-0.203 0.07,-0.042 0.159,-0.02 0.2,0.048 l 0.105,0.176 c 0.202,0.343 0.411,0.698 0.749,0.844 0.074,0.032 0.108,0.119 0.077,0.193 -0.032,0.076 -0.118,0.11 -0.194,0.078 m -1.015,-0.825 c -0.214,0 -0.387,-0.173 -0.387,-0.388 0,-0.214 0.173,-0.389 0.387,-0.389 h 0.154 c 0.213,0 0.387,0.175 0.387,0.389 0,0.215 -0.174,0.388 -0.387,0.388 z M 1.13,1.663 1.042,1.531 0.893,1.26 C 0.867,1.215 0.892,1.175 0.938,1.148 0.983,1.123 1.051,1.159 1.076,1.204 L 1.197,1.417 1.299,1.571 C 1.328,1.616 1.312,1.669 1.268,1.698 1.223,1.727 1.158,1.707 1.13,1.663 M 11.06,-6.364 10.663,-6.57 C 10.344,-6.743 10.043,-6.905 9.706,-6.971 9.647,-6.982 9.609,-7.038 9.62,-7.097 c 0.012,-0.058 0.068,-0.094 0.125,-0.085 0.37,0.071 0.7,0.249 1.02,0.422 l 0.386,0.202 c 0.054,0.028 0.078,0.093 0.05,0.147 -0.027,0.052 -0.089,0.075 -0.141,0.047 m 1.827,0.452 C 12.84,-5.944 12.826,-6.01 12.859,-6.058 13.24,-6.619 13.8,-6.974 14.341,-7.315 l 0.689,-0.462 c 0.049,-0.031 0.117,-0.021 0.15,0.028 0.032,0.048 0.023,0.109 -0.025,0.141 l -0.703,0.471 c -0.547,0.345 -1.063,0.671 -1.42,1.197 -0.032,0.047 -0.096,0.06 -0.145,0.028 m 2.107,-1.683 c -0.54,-0.551 -0.916,-1.184 -1.279,-1.798 -0.361,-0.609 -0.702,-1.185 -1.197,-1.698 -0.053,-0.054 -0.052,-0.143 0.003,-0.196 0.054,-0.053 0.143,-0.052 0.196,0.003 0.517,0.536 0.882,1.153 1.236,1.749 0.354,0.599 0.722,1.219 1.239,1.746 0.053,0.055 0.053,0.143 -0.002,0.196 -0.054,0.054 -0.141,0.053 -0.196,-0.002 m -2.433,-3.434 c -0.963,-0.349 -1.751,-1.054 -2.514,-1.735 -0.43,-0.384 -0.875,-0.783 -1.335,-1.097 -0.077,-0.053 -0.098,-0.158 -0.045,-0.234 0.052,-0.077 0.157,-0.096 0.232,-0.045 0.48,0.328 0.933,0.733 1.372,1.125 0.738,0.66 1.501,1.343 2.404,1.67 0.087,0.032 0.131,0.128 0.099,0.216 -0.031,0.087 -0.127,0.132 -0.213,0.1 m -25.922,-1.241 c -0.022,-0.13 0.068,-0.254 0.199,-0.275 3.227,-0.519 6.448,-1.373 9.564,-2.198 l 1.761,-0.465 c 0.129,-0.033 0.259,0.042 0.293,0.172 0.033,0.128 -0.044,0.261 -0.172,0.294 l -1.759,0.465 c -3.129,0.827 -6.361,1.683 -9.611,2.207 -0.13,0.02 -0.254,-0.069 -0.275,-0.2 m -4.401,1.082 c -0.024,-0.105 0.033,-0.208 0.139,-0.231 l 1.619,-0.366 c 0.769,-0.153 1.497,-0.299 2.2,-0.553 0.101,-0.037 0.212,0.015 0.25,0.116 0.036,0.103 -0.015,0.215 -0.117,0.252 -0.731,0.265 -1.507,0.42 -2.257,0.57 l -1.591,0.358 c -0.106,0.024 -0.219,-0.04 -0.243,-0.146 m 8.996,4.217 -2.061,-0.81 -1.615,-0.624 c -0.117,-0.046 -0.17,-0.175 -0.126,-0.291 0.045,-0.117 0.178,-0.174 0.296,-0.129 l 1.604,0.621 2.079,0.817 c 0.115,0.046 0.167,0.174 0.121,0.29 -0.045,0.117 -0.181,0.171 -0.298,0.126 m -6.726,-2.319 -1.216,-0.357 -1.213,-0.352 c -0.11,-0.033 -0.166,-0.147 -0.135,-0.256 0.033,-0.111 0.156,-0.173 0.265,-0.14 l 1.19,0.346 1.243,0.365 c 0.11,0.033 0.165,0.145 0.133,0.256 -0.032,0.11 -0.156,0.17 -0.267,0.138 m -17.947,-0.149 c -0.026,-0.125 0.044,-0.245 0.168,-0.271 l 1.133,-0.238 0.867,-0.174 c 0.124,-0.025 0.251,0.054 0.276,0.18 0.025,0.125 -0.05,0.246 -0.174,0.27 l -0.884,0.177 -1.105,0.231 c -0.124,0.026 -0.255,-0.05 -0.281,-0.175 m -4.108,0.867 c -0.025,-0.108 0.047,-0.215 0.153,-0.238 l 0.734,-0.164 c 0.564,-0.131 1.148,-0.268 1.748,-0.301 0.11,-0.005 0.203,0.079 0.209,0.188 0.006,0.109 -0.078,0.203 -0.187,0.209 -0.567,0.03 -1.107,0.157 -1.679,0.292 l -0.747,0.166 c -0.107,0.023 -0.209,-0.045 -0.231,-0.152 m 0.059,8.124 c -0.007,-0.074 0.048,-0.138 0.122,-0.146 1.42,-0.126 2.807,-0.232 4.159,-0.154 0.074,0.004 0.13,0.069 0.127,0.142 -0.005,0.075 -0.068,0.131 -0.142,0.127 -1.335,-0.078 -2.711,0.027 -4.121,0.153 -0.074,0.007 -0.138,-0.048 -0.145,-0.122 m 10.102,0.718 c -0.063,0 -0.114,-0.051 -0.114,-0.116 0,-0.061 0.051,-0.113 0.114,-0.113 h 0.46 c 0.063,0 0.114,0.052 0.114,0.113 0,0.065 -0.051,0.116 -0.114,0.116 z M -43.783,0.235 c -0.043,-0.079 -0.016,-0.176 0.062,-0.22 0.402,-0.229 0.832,-0.237 1.249,-0.246 0.274,-0.007 0.534,-0.013 0.784,-0.077 0.085,-0.022 0.173,0.03 0.195,0.116 0.022,0.087 -0.029,0.173 -0.115,0.197 -0.286,0.072 -0.577,0.079 -0.857,0.086 -0.394,0.008 -0.766,0.016 -1.098,0.204 -0.077,0.045 -0.175,0.018 -0.22,-0.06 M 9.757,9.545 9.353,9.236 C 9.171,9.076 9.001,8.925 8.78,8.86 8.731,8.846 8.703,8.796 8.717,8.747 8.731,8.698 8.782,8.67 8.831,8.684 9.091,8.76 9.286,8.93 9.475,9.098 L 9.847,9.384 C 9.888,9.415 9.905,9.48 9.876,9.521 9.845,9.562 9.797,9.576 9.757,9.545 M 5.64,6.416 4.734,5.62 C 3.94,4.942 3.119,4.245 2.548,3.309 2.507,3.24 2.527,3.151 2.596,3.109 2.663,3.068 2.752,3.089 2.795,3.157 3.341,4.054 4.146,4.738 4.921,5.398 L 5.837,6.205 C 5.897,6.257 5.899,6.346 5.847,6.406 5.795,6.467 5.699,6.468 5.64,6.416 M 20.696,8.529 C 20.571,8.389 20.403,8.31 20.227,8.226 19.993,8.117 19.752,8.003 19.61,7.74 19.586,7.694 19.603,7.637 19.648,7.611 c 0.047,-0.024 0.104,-0.007 0.129,0.039 0.112,0.207 0.315,0.303 0.53,0.404 0.186,0.088 0.38,0.177 0.53,0.347 0.035,0.039 0.032,0.099 -0.006,0.134 -0.039,0.035 -0.1,0.031 -0.135,-0.006 m -19.338,5.9 C 1.322,14.296 1.391,14.162 1.522,14.125 L 1.698,14.077 1.925,14 c 0.127,-0.042 0.34,-0.021 0.388,0.104 0.046,0.125 0.061,0.221 -0.061,0.273 L 1.823,14.56 1.672,14.602 C 1.54,14.638 1.395,14.562 1.358,14.429 m 39.19,2.303 c -0.236,-0.327 -0.574,-0.557 -0.933,-0.801 -0.309,-0.211 -0.629,-0.429 -0.893,-0.721 -0.072,-0.078 -0.066,-0.199 0.012,-0.271 0.079,-0.072 0.2,-0.066 0.271,0.013 0.233,0.259 0.521,0.454 0.825,0.661 0.37,0.253 0.751,0.512 1.028,0.894 0.062,0.087 0.043,0.206 -0.042,0.268 -0.086,0.062 -0.205,0.043 -0.268,-0.043 M -1.806,15.355 c -0.047,-0.153 -0.218,-0.238 -0.373,-0.191 l 1.863,-0.57 c 0.154,-0.047 0.304,0.044 0.351,0.197 0.047,0.154 -0.051,0.319 -0.205,0.367 l -1.817,0.557 c 0.153,-0.046 0.228,-0.206 0.181,-0.36 m 16.517,4.991 c -0.02,-0.042 0,-0.091 0.043,-0.111 0.58,-0.251 1.027,-0.764 1.424,-1.281 0.027,-0.036 0.079,-0.043 0.116,-0.016 0.037,0.029 0.043,0.081 0.015,0.118 -0.411,0.535 -0.875,1.066 -1.49,1.333 -0.043,0.017 -0.09,-10e-4 -0.108,-0.043 m 3.938,6.289 c -0.007,-0.068 0.038,-0.13 0.107,-0.139 l 0.119,-0.013 c 0.14,-0.014 0.285,-0.028 0.449,-0.125 0.06,-0.034 0.136,-0.014 0.171,0.046 0.035,0.059 0.015,0.137 -0.045,0.172 -0.211,0.123 -0.399,0.142 -0.551,0.157 l -0.107,0.011 c -0.069,0.009 -0.135,-0.04 -0.143,-0.109 m -0.236,-2.36 C 18.089,24.12 17.91,24.11 17.797,24.243 c -0.047,0.053 -0.127,0.06 -0.18,0.013 -0.054,-0.046 -0.059,-0.127 -0.013,-0.18 0.287,-0.333 0.729,-0.121 0.917,-0.032 0.064,0.03 0.091,0.106 0.061,0.17 -0.03,0.065 -0.106,0.092 -0.169,0.061 m -50.584,10.502 c -0.213,-0.681 -0.106,-1.368 -0.003,-2.032 l 0.085,-0.612 c 0.019,-0.141 0.15,-0.247 0.291,-0.228 0.14,0.02 0.239,0.141 0.22,0.283 l -0.088,0.636 c -0.098,0.633 -0.191,1.233 -0.014,1.798 0.042,0.136 -0.033,0.281 -0.169,0.323 -0.136,0.042 -0.28,-0.033 -0.322,-0.168 m 18.705,-11.461 c -0.045,-0.019 -0.065,-0.071 -0.045,-0.115 l 0.06,-0.141 0.83,-0.29 c 0.046,-0.017 0.101,0.006 0.116,0.053 0.004,0.011 0.006,0.021 0.006,0.031 0,0.037 -0.019,0.066 -0.055,0.08 0,0 -0.712,0.249 -0.766,0.267 -0.003,0.008 -0.031,0.07 -0.031,0.07 -0.018,0.045 -0.071,0.066 -0.115,0.045 m 3.841,-1.617 c -0.084,-0.015 -0.142,-0.097 -0.126,-0.182 0.039,-0.218 0.18,-0.347 0.295,-0.452 l 0.177,-0.203 c 0.056,-0.065 0.176,-0.108 0.243,-0.052 0.063,0.055 0.096,0.119 0.041,0.184 l -0.251,0.305 c -0.109,0.099 -0.177,0.167 -0.197,0.272 -0.015,0.085 -0.097,0.143 -0.182,0.128 m 0.487,0.426 c -0.024,-0.044 -0.008,-0.099 0.035,-0.121 0.532,-0.285 1.114,-0.46 1.676,-0.629 l 0.486,-0.148 c 0.047,-0.013 0.098,0.013 0.113,0.059 0.014,0.048 -0.011,0.098 -0.059,0.111 l -0.488,0.15 c -0.555,0.167 -1.128,0.337 -1.643,0.613 -0.044,0.024 -0.098,0.007 -0.12,-0.035 m 0.998,-5.378 c -0.044,-0.126 -0.18,-0.196 -0.308,-0.152 l 0.308,-0.103 c 0.126,-0.043 0.264,0.026 0.306,0.154 0.042,0.127 -0.026,0.264 -0.153,0.307 l -0.307,0.104 c 0.128,-0.043 0.195,-0.181 0.154,-0.31 m -15.202,3.202 c -0.026,-0.137 0.064,-0.272 0.202,-0.298 0.652,-0.122 1.303,-0.322 1.932,-0.516 0.815,-0.249 1.657,-0.508 2.532,-0.614 0.14,-0.017 0.267,0.083 0.282,0.222 0.018,0.141 -0.081,0.268 -0.22,0.283 -0.831,0.101 -1.651,0.354 -2.445,0.597 -0.643,0.198 -1.309,0.402 -1.986,0.529 -0.138,0.026 -0.271,-0.064 -0.297,-0.203 m -3.646,2.329 c -0.083,-0.102 -0.075,-0.245 0.027,-0.328 l 0.394,-0.32 0.512,-0.436 c 0.1,-0.086 0.267,-0.09 0.352,0.01 0.085,0.101 0.091,0.235 -0.009,0.32 l -0.566,0.486 -0.368,0.297 c -0.102,0.082 -0.26,0.074 -0.342,-0.029 m -2.094,8.079 c -0.024,-0.088 0.029,-0.182 0.119,-0.207 1.063,-0.287 2.119,-0.746 3.139,-1.193 1.128,-0.49 2.293,-0.999 3.461,-1.269 0.09,-0.02 0.18,0.037 0.201,0.126 0.021,0.09 -0.036,0.181 -0.127,0.203 -1.136,0.262 -2.288,0.765 -3.401,1.249 -1.032,0.451 -2.099,0.916 -3.185,1.212 -0.091,0.023 -0.182,-0.031 -0.207,-0.121 m 11.664,-4.883 c -0.046,-0.085 -0.008,-0.196 0.077,-0.241 l 1.272,-0.694 c 0.596,-0.344 1.213,-0.698 1.859,-0.953 0.089,-0.035 0.191,0.009 0.226,0.1 0.035,0.088 -0.008,0.191 -0.099,0.226 -0.621,0.245 -1.201,0.578 -1.813,0.932 l -1.293,0.704 c -0.085,0.046 -0.183,0.011 -0.229,-0.074 m -14.616,9.273 c -0.026,-0.06 0.002,-0.13 0.06,-0.156 2.492,-1.099 4.77,-2.823 6.973,-4.491 l 2.762,-2.037 c 0.052,-0.039 0.123,-0.025 0.162,0.027 0.038,0.053 0.025,0.129 -0.028,0.167 l -2.755,2.03 c -2.213,1.678 -4.502,3.411 -7.018,4.521 -0.06,0.026 -0.13,0 -0.156,-0.061 m -0.458,1.427 c -0.177,-0.068 -0.243,-0.314 -0.177,-0.491 l 0.181,-0.483 0.267,-0.677 c 0.07,-0.176 0.243,-0.212 0.419,-0.143 0.177,0.069 0.239,0.319 0.172,0.495 l -0.2,0.521 -0.242,0.629 c -0.069,0.177 -0.243,0.216 -0.42,0.149 m 31.04,1.561 c -0.105,-0.047 -0.152,-0.17 -0.105,-0.274 0.152,-0.339 0.348,-0.593 0.584,-0.753 0.094,-0.065 0.225,-0.042 0.288,0.055 0.065,0.093 0.04,0.224 -0.054,0.289 -0.172,0.117 -0.319,0.312 -0.439,0.58 -0.047,0.103 -0.169,0.151 -0.274,0.103 m 1.253,-9.048 c -0.048,-0.025 -0.114,0.009 -0.138,0.057 l 0.171,-0.34 c 0.024,-0.048 0.072,-0.049 0.121,-0.024 0.048,0.023 0.057,0.102 0.033,0.151 l -0.136,0.276 c 0.024,-0.051 -0.001,-0.096 -0.051,-0.12 m -10.595,5.131 c -0.041,-0.081 -0.018,-0.175 0.062,-0.217 l 1.435,-0.737 c 0.689,-0.329 1.402,-0.669 2.058,-1.144 0.073,-0.053 0.176,-0.037 0.228,0.036 0.053,0.074 0.036,0.178 -0.037,0.23 -0.679,0.493 -1.405,0.84 -2.108,1.176 l -1.409,0.724 c -0.082,0.041 -0.188,0.014 -0.229,-0.068 m -13.152,20.053 c -0.093,-0.049 -0.128,-0.162 -0.081,-0.255 0.819,-1.594 1.622,-3.29 2.398,-4.93 l 2.326,-4.794 c 0.045,-0.094 0.157,-0.13 0.251,-0.084 0.092,0.045 0.13,0.162 0.085,0.256 l -2.321,4.784 c -0.777,1.642 -1.582,3.341 -2.403,4.941 -0.048,0.093 -0.163,0.13 -0.255,0.082 m 10.685,-7.56 c -0.038,-0.034 -0.044,-0.092 -0.01,-0.132 2.677,-3.159 5.333,-6.55 7.893,-10.073 0.03,-0.042 0.088,-0.05 0.129,-0.02 0.041,0.03 0.051,0.089 0.02,0.131 -2.563,3.525 -5.221,6.919 -7.9,10.083 -0.035,0.04 -0.093,0.044 -0.132,0.011 m -10.092,10.474 c -0.045,-0.059 -0.034,-0.144 0.025,-0.19 2.805,-2.148 5.382,-4.787 7.257,-7.433 0.043,-0.062 0.127,-0.075 0.189,-0.033 0.06,0.044 0.074,0.129 0.031,0.189 -1.889,2.668 -4.487,5.329 -7.314,7.494 -0.058,0.044 -0.143,0.033 -0.188,-0.027 m -1.095,-0.387 c -0.187,-0.302 -0.109,-0.598 -0.04,-0.859 0.055,-0.204 0.102,-0.381 0.03,-0.544 -0.034,-0.077 0,-0.166 0.078,-0.201 0.076,-0.034 0.166,0 0.2,0.078 0.115,0.262 0.047,0.52 -0.013,0.746 -0.062,0.231 -0.116,0.43 0.004,0.62 0.043,0.072 0.021,0.165 -0.05,0.21 -0.072,0.043 -0.165,0.023 -0.209,-0.05 m -6.295,-14.085 c -0.083,-0.077 -0.089,-0.204 -0.014,-0.288 0.075,-0.083 0.203,-0.089 0.286,-0.014 2.698,2.456 5.953,0.508 8.824,-1.21 0.919,-0.55 1.787,-1.071 2.612,-1.44 0.102,-0.046 0.222,0 0.268,0.102 0.046,0.103 0,0.223 -0.102,0.269 -0.804,0.36 -1.662,0.873 -2.57,1.417 -2.992,1.792 -6.384,3.822 -9.304,1.164 m -1.129,-2.223 c -0.339,-0.785 -0.4,-1.619 -0.461,-2.426 -0.043,-0.585 -0.087,-1.189 -0.239,-1.756 -0.031,-0.112 0.035,-0.227 0.147,-0.258 0.111,-0.029 0.226,0.037 0.257,0.149 0.162,0.604 0.208,1.229 0.252,1.833 0.061,0.808 0.118,1.571 0.427,2.293 0.047,0.106 -0.002,0.23 -0.108,0.275 -0.107,0.047 -0.23,-0.002 -0.275,-0.11 m -28.981,13.594 c -0.032,-0.063 -0.008,-0.138 0.053,-0.17 8.123,-4.264 17.154,-10.411 25.707,-16.345 l 0.635,-0.454 c 0.74,-0.542 1.229,-0.902 2.074,-0.986 0.07,-0.007 0.131,0.042 0.138,0.112 0.007,0.069 -0.043,0.131 -0.112,0.137 -0.779,0.08 -1.221,0.403 -1.954,0.939 l -0.638,0.46 c -8.56,5.936 -17.599,12.089 -25.733,16.36 -0.063,0.033 -0.137,0.008 -0.17,-0.053 m 29.659,-23.626 c -0.114,-0.014 -0.195,-0.117 -0.18,-0.231 0.259,-2.103 1.413,-3.985 2.53,-5.804 l 0.252,-0.412 c 0.06,-0.096 0.186,-0.128 0.284,-0.068 0.097,0.06 0.127,0.188 0.068,0.284 l -0.252,0.414 c -1.093,1.78 -2.224,3.622 -2.472,5.637 -0.015,0.114 -0.117,0.194 -0.23,0.18 m 4.574,-9.329 c -0.06,0 -0.108,-0.047 -0.108,-0.108 0,-0.06 0.048,-0.109 0.108,-0.109 h 0.614 c 0.06,0 0.108,0.049 0.108,0.109 0,0.061 -0.048,0.108 -0.108,0.108 z m 10.632,-2.428 c -0.05,-0.144 0.026,-0.299 0.166,-0.35 0.494,-0.173 1.005,-0.245 1.497,-0.316 0.446,-0.064 0.867,-0.123 1.273,-0.251 0.143,-0.044 0.296,0.036 0.342,0.18 0.045,0.144 -0.036,0.297 -0.18,0.342 -0.448,0.141 -0.91,0.206 -1.357,0.271 -0.489,0.07 -0.952,0.136 -1.395,0.291 -0.142,0.05 -0.297,-0.027 -0.346,-0.167 m -22.367,5.052 c -0.036,-0.129 0.073,-0.272 0.204,-0.309 l 0.407,-0.115 0.512,-0.142 c 0.13,-0.036 0.229,0.049 0.265,0.179 0.036,0.129 -0.075,0.27 -0.204,0.308 l -0.407,0.117 -0.513,0.139 c -0.129,0.036 -0.228,-0.047 -0.264,-0.177 m 4.908,-1.389 c -0.033,-0.127 0.04,-0.259 0.169,-0.293 l 0.266,-0.071 c 0.324,-0.085 0.63,-0.164 0.909,-0.319 0.117,-0.063 0.263,-0.021 0.327,0.095 0.063,0.117 0.021,0.264 -0.096,0.327 -0.33,0.183 -0.681,0.275 -1.02,0.363 l -0.258,0.068 c -0.127,0.034 -0.262,-0.04 -0.297,-0.17 m -4.766,10.889 c -0.013,-0.137 0.086,-0.258 0.221,-0.272 1.215,-0.118 2.42,-0.466 3.583,-0.802 l 1.132,-0.319 c 0.131,-0.036 0.263,0.042 0.3,0.173 0.037,0.13 -0.043,0.268 -0.173,0.305 l -1.122,0.316 c -1.186,0.342 -2.413,0.694 -3.672,0.819 -0.136,0.015 -0.256,-0.087 -0.269,-0.22 m -9.505,-1.218 c -0.049,-0.05 -0.049,-0.13 0,-0.179 l 0.307,-0.308 c 0.048,-0.047 0.128,-0.047 0.176,0 0.049,0.049 0.049,0.128 0,0.179 l -0.306,0.308 c -0.049,0.049 -0.128,0.049 -0.177,0 m 7.55,-9.915 c -0.113,-0.099 -0.126,-0.27 -0.03,-0.384 0.16,-0.187 0.378,-0.33 0.589,-0.455 0.129,-0.078 0.295,-0.034 0.37,0.094 0.076,0.128 0.034,0.295 -0.094,0.371 -0.234,0.139 -0.366,0.239 -0.454,0.343 -0.096,0.114 -0.267,0.127 -0.381,0.031 M -57.886,-7.3 -58.354,-7.578 -59.09,-8.009 c -0.105,-0.064 -0.143,-0.202 -0.081,-0.308 0.063,-0.11 0.197,-0.145 0.304,-0.083 l 0.741,0.436 0.465,0.276 c 0.108,0.063 0.144,0.202 0.081,0.308 -0.064,0.108 -0.199,0.143 -0.306,0.08 m 3.163,17.165 c -0.543,-0.227 -1.015,-0.623 -1.433,-0.974 l -0.049,-0.042 c -0.041,-0.035 -0.047,-0.098 -0.012,-0.141 0.035,-0.041 0.097,-0.047 0.141,-0.012 l 0.049,0.041 c 0.425,0.358 0.866,0.728 1.381,0.943 0.052,0.021 0.075,0.08 0.054,0.132 -0.021,0.05 -0.08,0.075 -0.131,0.053 m 4.192,1.821 c -0.176,-0.172 -0.407,-0.227 -0.652,-0.285 -0.219,-0.05 -0.444,-0.103 -0.642,-0.245 -0.041,-0.03 -0.05,-0.088 -0.021,-0.13 0.029,-0.043 0.088,-0.052 0.13,-0.022 0.167,0.12 0.365,0.166 0.576,0.217 0.259,0.06 0.526,0.122 0.739,0.332 0.037,0.036 0.038,0.094 0.002,0.131 -0.037,0.037 -0.097,0.038 -0.132,0.002 m -6.986,-4.081 c -0.416,-0.468 -0.776,-1.002 -1.124,-1.518 -0.345,-0.509 -0.7,-1.036 -1.099,-1.482 -0.035,-0.039 -0.033,-0.1 0.007,-0.136 0.039,-0.035 0.102,-0.033 0.137,0.008 0.408,0.453 0.767,0.986 1.114,1.502 0.346,0.51 0.702,1.039 1.11,1.498 0.036,0.039 0.032,0.101 -0.008,0.136 -0.04,0.036 -0.101,0.033 -0.137,-0.008 m -3.274,-4.919 c -0.433,-0.798 -0.778,-1.654 -1.112,-2.481 l -0.122,-0.303 c -0.03,-0.074 0.006,-0.159 0.079,-0.187 0.073,-0.03 0.158,0.005 0.188,0.078 l 0.121,0.303 c 0.331,0.82 0.673,1.669 1.098,2.453 0.038,0.069 0.013,0.158 -0.057,0.195 -0.07,0.039 -0.157,0.013 -0.195,-0.058 m -2.028,-4.584 c -0.122,-0.258 -0.26,-0.552 -0.278,-0.857 -0.007,-0.128 0.092,-0.24 0.22,-0.248 0.129,-0.008 0.24,0.092 0.247,0.221 0.013,0.214 0.126,0.452 0.234,0.684 0.055,0.117 0.006,0.256 -0.111,0.312 -0.117,0.056 -0.257,0.007 -0.312,-0.112 m -1.245,-4.195 -0.082,-0.358 -0.023,-0.112 c -0.028,-0.131 0.055,-0.258 0.184,-0.286 0.128,-0.026 0.255,0.055 0.281,0.184 l 0.025,0.115 0.075,0.337 c 0.029,0.129 -0.049,0.264 -0.177,0.293 -0.129,0.029 -0.255,-0.045 -0.283,-0.173 m 17.997,2.503 c -0.056,-0.068 -0.045,-0.17 0.024,-0.226 1.112,-0.906 2.169,-1.714 3.228,-2.468 0.072,-0.051 0.173,-0.034 0.224,0.038 0.052,0.072 0.035,0.172 -0.038,0.225 -1.055,0.75 -2.104,1.553 -3.212,2.455 -0.069,0.057 -0.17,0.045 -0.226,-0.024 m 7.984,-10.096 -0.792,-0.309 c -0.465,-0.169 -0.946,-0.344 -1.368,-0.62 -0.042,-0.029 -0.053,-0.085 -0.025,-0.128 0.027,-0.042 0.085,-0.055 0.126,-0.027 0.404,0.266 0.874,0.436 1.329,0.601 l 0.807,0.315 c 0.047,0.018 0.066,0.071 0.047,0.118 -0.019,0.048 -0.076,0.069 -0.124,0.05 m 6.375,1.526 -1.84,-0.309 c -0.083,-0.012 -0.135,-0.09 -0.12,-0.172 0.014,-0.082 0.094,-0.135 0.176,-0.123 l 1.839,0.309 c 0.082,0.014 0.134,0.09 0.121,0.173 -0.014,0.081 -0.094,0.136 -0.176,0.122 m 12.127,1.786 -0.617,-0.105 -0.603,-0.1 c -0.131,-0.022 -0.249,-0.148 -0.228,-0.28 0.021,-0.131 0.115,-0.224 0.245,-0.204 l 0.691,0.112 0.544,0.096 c 0.131,0.022 0.244,0.15 0.221,0.281 -0.023,0.132 -0.123,0.221 -0.253,0.2 m 32.158,-0.686 c -0.069,-0.022 -0.109,-0.097 -0.087,-0.168 0.106,-0.33 0.012,-0.661 -0.089,-1.012 -0.097,-0.348 -0.201,-0.706 -0.122,-1.094 0.015,-0.072 0.085,-0.119 0.157,-0.105 0.072,0.016 0.119,0.085 0.103,0.158 -0.064,0.324 0.024,0.635 0.118,0.968 0.108,0.374 0.217,0.761 0.086,1.167 -0.022,0.07 -0.096,0.109 -0.166,0.086 m 2.548,3.458 c -0.05,-0.066 -0.036,-0.161 0.031,-0.211 0.923,-0.689 2.018,-0.921 3.076,-1.147 0.68,-0.144 1.384,-0.293 2.016,-0.564 0.077,-0.033 0.165,0.003 0.198,0.081 0.033,0.077 -0.003,0.165 -0.08,0.197 -0.66,0.283 -1.377,0.436 -2.071,0.583 -1.026,0.219 -2.088,0.444 -2.957,1.093 -0.068,0.049 -0.163,0.036 -0.213,-0.032 m 1.711,0.236 c -0.023,-0.048 0.005,-0.081 0.054,-0.106 0.048,-0.024 0.116,0.022 0.14,0.07 l 0.139,0.271 c -0.024,-0.049 -0.077,-0.057 -0.127,-0.032 -0.048,0.023 -0.061,0.093 -0.037,0.142 z m 19.489,-6.48 c -0.234,-0.131 -0.411,-0.316 -0.583,-0.497 -0.158,-0.165 -0.308,-0.322 -0.492,-0.428 -0.085,-0.047 -0.114,-0.155 -0.066,-0.239 0.047,-0.085 0.154,-0.114 0.238,-0.067 0.229,0.131 0.405,0.314 0.574,0.49 0.161,0.17 0.312,0.328 0.499,0.433 0.085,0.047 0.115,0.154 0.068,0.239 -0.046,0.085 -0.154,0.115 -0.238,0.069 m 5.854,1.102 c -0.116,-0.101 -0.135,-0.268 -0.035,-0.383 l 0.17,-0.198 0.054,-0.06 c 0.103,-0.115 0.278,-0.124 0.391,-0.021 0.113,0.103 0.124,0.276 0.022,0.39 l -0.056,0.063 -0.149,0.173 c -0.1,0.114 -0.282,0.134 -0.397,0.036 M 39.605,2.182 C 39.507,2.167 39.438,2.076 39.452,1.978 39.466,1.879 39.557,1.81 39.655,1.823 c 2.318,0.328 4.636,-0.611 6.797,-1.676 0.089,-0.044 0.196,-0.007 0.24,0.083 0.044,0.09 0.007,0.198 -0.082,0.242 -2.105,1.037 -4.585,2.051 -7.005,1.71 m 12.05,21.644 c -0.767,-0.539 -1.582,-1.035 -2.371,-1.513 -1.17,-0.711 -2.379,-1.445 -3.466,-2.34 -0.066,-0.055 -0.076,-0.154 -0.021,-0.221 0.055,-0.067 0.153,-0.077 0.22,-0.022 1.069,0.881 2.269,1.61 3.429,2.315 0.793,0.48 1.612,0.979 2.389,1.524 0.07,0.05 0.088,0.148 0.039,0.219 -0.051,0.069 -0.146,0.087 -0.219,0.038 M 19.291,23.714 c -0.052,-0.011 -0.084,-0.063 -0.073,-0.114 0.191,-0.892 0.515,-1.761 0.829,-2.602 l 0.477,-1.331 c 0.018,-0.049 0.073,-0.077 0.122,-0.06 0.049,0.018 0.076,0.07 0.058,0.12 l -0.479,1.337 c -0.312,0.835 -0.633,1.699 -0.822,2.577 -0.011,0.051 -0.061,0.085 -0.112,0.073 M 0.687,35.19 c -0.059,-0.036 -0.076,-0.114 -0.04,-0.173 0.545,-0.866 1.31,-1.613 2.05,-2.335 0.938,-0.915 1.907,-1.862 2.389,-3.031 0.026,-0.065 0.1,-0.096 0.164,-0.07 0.064,0.026 0.095,0.102 0.067,0.166 -0.5,1.217 -1.489,2.183 -2.444,3.116 C 2.144,33.575 1.39,34.311 0.86,35.152 0.823,35.211 0.745,35.228 0.687,35.19 m -5.651,5.831 c -0.05,-0.066 -0.035,-0.162 0.031,-0.21 0.327,-0.244 0.596,-0.549 0.881,-0.872 0.375,-0.425 0.762,-0.864 1.285,-1.141 0.074,-0.039 0.164,-0.011 0.204,0.062 0.038,0.074 0.01,0.165 -0.063,0.203 -0.475,0.253 -0.827,0.652 -1.2,1.076 -0.283,0.321 -0.575,0.652 -0.928,0.914 -0.067,0.049 -0.161,0.035 -0.21,-0.032 m -33.119,34.676 c -0.08,-0.064 -0.093,-0.18 -0.03,-0.26 6.745,-8.509 14.618,-16.207 22.231,-23.651 3.041,-2.975 6.189,-6.052 9.22,-9.138 0.072,-0.074 0.189,-0.074 0.261,-0.002 0.074,0.072 0.075,0.189 0.002,0.261 -3.034,3.091 -6.181,6.168 -9.226,9.146 -7.604,7.435 -15.467,15.125 -22.198,23.614 -0.064,0.08 -0.18,0.094 -0.26,0.03 M -64.559,-25.128 c -0.236,-0.068 -0.414,-0.207 -0.586,-0.338 l -0.361,-0.236 c -0.099,-0.065 -0.157,-0.215 -0.093,-0.315 0.065,-0.099 0.167,-0.144 0.266,-0.081 l 0.45,0.288 c 0.147,0.113 0.286,0.22 0.445,0.268 0.114,0.033 0.179,0.152 0.146,0.267 -0.034,0.114 -0.153,0.18 -0.267,0.147 m 59.879,9.778 c -0.019,-0.08 0.029,-0.16 0.109,-0.179 0.54,-0.129 1.019,-0.365 1.572,-0.678 0.072,-0.039 0.161,-0.015 0.201,0.057 0.041,0.071 0.015,0.161 -0.056,0.202 -0.576,0.325 -1.076,0.569 -1.648,0.707 -0.079,0.018 -0.158,-0.03 -0.178,-0.109 M 13.959,3.649 c -0.061,-0.033 -0.081,-0.11 -0.047,-0.17 0.095,-0.166 0.234,-0.23 0.383,-0.297 l 0.129,-0.059 c 0.062,-0.029 0.139,-0.004 0.168,0.058 0.028,0.061 0.005,0.135 -0.057,0.164 l -0.139,0.064 c -0.145,0.065 -0.215,0.1 -0.269,0.194 -0.032,0.059 -0.109,0.08 -0.168,0.046 M -6.343,31.486 c -0.053,-0.066 -0.041,-0.161 0.025,-0.214 0.816,-0.655 1.805,-1.127 2.49,-1.408 0.079,-0.032 0.168,0.006 0.198,0.084 0.032,0.079 -0.004,0.168 -0.083,0.198 -0.666,0.274 -1.627,0.733 -2.416,1.365 -0.065,0.052 -0.161,0.042 -0.214,-0.025 m 8.77,8.957 C 2.356,40.393 2.325,40.32 2.375,40.25 L 2.58,39.96 2.628,39.905 c 0.058,-0.064 0.159,-0.073 0.225,-0.015 0.064,0.058 0.072,0.155 0.014,0.221 L 2.814,40.171 2.66,40.382 C 2.61,40.451 2.497,40.494 2.427,40.443 M 66.342,58.335 63.995,56.49 c -1.592,-1.285 -3.239,-2.615 -4.99,-3.576 -0.103,-0.056 -0.141,-0.185 -0.084,-0.288 0.056,-0.104 0.184,-0.141 0.287,-0.085 1.785,0.98 3.446,2.322 5.052,3.619 l 2.334,1.834 c 0.093,0.071 0.113,0.209 0.04,0.301 -0.071,0.093 -0.2,0.112 -0.292,0.04 M 14.786,0.463 14.556,0.541 c 0.064,-0.805 0.706,-0.967 1.381,-0.77 0.159,0.838 -0.692,1.269 -1.227,0.922 z m 43.323,21.773 c 0.899,-0.204 -0.554,-0.727 0,0 m 2.225,0.692 0.229,0.078 c -1.13,0.191 -2.002,0.932 -3.067,0.768 -2.254,-0.344 -2.538,-4.145 0,-4.308 2.115,-0.136 2.288,1.87 3.067,3.387 z M -3.54,28.391 c 0.915,-0.773 -0.343,0.289 0,0 m 59.732,-2.078 -0.076,-0.23 h 0.307 c 3.884,-2.607 7.571,2.624 4.754,5.078 -0.728,0.634 -1.92,0.175 -2.913,1.077 -0.476,-0.628 -1.288,-0.336 -1.841,-0.77 -1.439,-1.128 -1.169,-3.811 -0.46,-5.231 z M 13.176,-5.922 v 0.154 h -0.46 v 0.46 h -0.768 l 0.078,-0.23 -0.23,0.078 c -0.261,-0.354 -0.568,-0.662 -0.92,-0.925 l 0.229,-0.076 -0.076,-0.23 c 0.842,-0.025 1.052,0.586 1.993,0.462 l -0.076,0.231 z m -21.93,-1.539 c 1.943,0.706 2.302,-1.044 3.374,-1.848 0.622,-0.464 1.556,-0.869 2.3,-0.921 3.462,-0.249 6.684,3.308 4.601,6.155 -1.082,1.478 -3.028,1.989 -4.601,1.846 C -6.383,-2.531 -6.69,-5.854 -8.907,-7 l 0.229,-0.179 z m -6.747,-2.308 c 1.214,-0.766 2.817,-0.057 3.22,0.923 l -0.076,0.231 0.076,0.231 c -0.375,0.494 -0.769,0.973 -1.38,1.231 -1.117,-0.264 -1.55,-1.215 -1.994,-2.156 l 0.231,-0.178 z m -17.79,8.925 c 0.699,-0.697 0.05,-1.885 0.154,-2.771 0.123,-1.049 0.803,-2.123 1.84,-2.307 0.866,-0.155 2.253,0.036 2.608,1.384 0.419,1.602 -0.744,2.112 -0.308,3.847 0.474,0.398 1.603,0.135 1.841,0.769 l -0.23,0.076 0.076,0.232 c -2.102,-0.323 -4.498,0.101 -6.134,-0.923 l 0.23,-0.076 z m -8.587,0.615 c 1.391,-0.549 3.065,-1.291 4.601,-0.462 l -0.078,0.231 0.23,0.076 c -1.266,0.909 -2.754,0.713 -4.601,0.462 l 0.078,-0.23 z m 41.405,14.925 c 0.631,-0.291 1.39,-0.453 2.147,-0.614 l -0.076,0.282 0.23,0.178 C 1.463,14.74 1.391,15.232 1.214,15.619 0.841,15.328 0.456,15.047 -0.319,15.158 l 0.077,-0.282 z m -8.894,6.309 c 0.004,-0.887 0.815,-1.462 1.38,-0.923 0,0.718 -0.358,1.077 -1.073,1.077 l -0.076,-0.23 z m 0.46,1.077 c -0.473,0.295 -0.947,0.588 -1.38,0.924 -0.866,-0.255 -2.039,0.652 -2.301,0 v -0.153 h -0.153 c 0.921,-0.617 1.983,-1.09 3.068,-1.54 l 0.076,0.23 0.23,-0.076 c -0.008,0.263 0.118,0.394 0.307,0.461 v 0.154 z m -13.495,6.155 c 0,-0.155 -0.124,-0.183 -0.154,-0.307 l 0.23,-0.078 -0.076,-0.231 c 0.678,-0.446 1.089,-1.164 1.533,-1.846 1.452,0.504 2.217,-0.656 3.68,-0.616 l -0.075,0.232 0.23,0.077 c -1.418,1.296 -3.722,1.701 -5.215,2.923 l 0.077,-0.231 z m 6.287,21.079 c -1.152,-0.919 -1.225,-3.228 0.307,-3.692 0.985,-0.298 1.564,0.258 2.607,0.462 v 0.153 h 0.154 c -0.223,0.7 -0.33,1.518 -0.614,2.155 -0.831,0.191 -1.063,0.984 -2.147,0.922 l -0.153,-0.076 z m -8.128,6.771 c 0.368,0.142 0.407,0.619 1.074,0.462 l -0.077,0.154 0.077,0.154 c -0.286,0.414 -0.839,0.729 -1.38,0.461 0.001,-0.275 -0.413,-0.895 0,-1.076 l 0.229,0.076 z m 0.614,-2.308 c -0.049,0.516 -0.159,0.97 -0.46,1.231 l -0.231,-0.077 -0.076,0.231 c -0.25,-0.57 -1.125,-0.512 -1.074,-1.385 0.266,-0.4 1.019,-0.311 1.688,-0.306 l -0.077,0.23 z m -7.975,-14.003 c 0.366,0.249 0.983,0.246 1.38,0.462 0.049,0.717 -0.306,1.028 -0.306,1.694 l -0.077,0.23 -0.077,0.231 c -0.313,-0.111 -0.607,-0.482 -0.92,-0.155 0.341,-0.761 -0.384,-1.344 -0.307,-2.306 l 0.231,0.076 z m 0.614,-10.153 c 0.326,0.543 1.246,0.491 2.146,0.46 l -0.076,0.23 0.231,0.079 c -0.415,0.916 -1.947,0.713 -2.762,1.23 -0.264,0.094 0.013,0.73 -0.306,0.77 l -0.077,-0.232 -0.229,0.078 c -0.561,-1.065 0.407,-1.383 0.612,-2.463 l 0.282,0.078 z m 4.447,-7.387 c -0.466,0.66 -0.871,1.383 -1.687,1.692 l -0.186,-0.208 -0.273,0.054 c 0.329,-0.848 0.763,-1.591 1.686,-1.846 l 0.199,0.2 z m 3.681,-2.154 c -0.61,0.876 -1.958,1.01 -2.913,1.538 l -0.108,-0.261 -0.2,-0.2 c 0.007,-0.212 -0.072,-0.338 -0.153,-0.462 l 0.23,-0.076 -0.077,-0.231 c 0.881,-0.321 1.788,-1.353 3.068,-0.77 l -0.078,0.282 z m 7.361,-1.693 c -0.374,1.136 -2.216,1.368 -3.221,0.616 l 0.077,-0.232 0.076,-0.23 c 0.58,-0.523 1.841,-1.089 2.914,-0.615 l -0.076,0.281 z m 7.361,-1.385 c -0.331,0.284 -1.085,0.142 -0.92,0.924 -1.162,-0.804 -2.382,10e-4 -3.987,0 l 0.076,-0.282 -0.23,-0.179 c 1.51,-0.437 3.199,-0.691 4.907,-0.925 l -0.076,0.283 z m -24.077,4.309 c -0.045,-0.66 0.213,-1.016 0.46,-1.385 1.242,0.138 2.293,0.469 3.374,0.769 -0.212,1.377 -2.116,1.059 -3.68,1.077 l 0.076,-0.282 z m -5.214,1.54 c 0.845,-1 2.771,-0.915 4.294,-1.233 l -0.077,0.282 0.23,0.18 c -1.47,0.372 -2.448,1.235 -4.293,1.231 l 0.075,-0.282 z m -2.301,-1.233 c -1.151,1.156 0.3,2.066 1.687,1.386 l -0.076,0.282 0.23,0.179 c -0.41,0.815 -1.643,0.668 -2.454,1.077 -0.365,0.185 -1.009,0.889 -1.686,1.384 -2.183,1.6 -6.711,5.496 -1.994,6.77 1.709,0.463 4.242,0.127 6.134,-0.152 l -0.077,0.282 0.23,0.179 c -2.113,0.786 -4.763,1.057 -6.441,0.461 -1.468,-0.522 -2.401,-1.318 -3.22,-2 l 0.075,-0.231 -0.229,0.077 c -0.059,-0.709 -0.558,-0.979 -1.226,-1.077 -0.852,0.689 -0.108,1.895 0.153,2.77 -0.337,0.739 -0.306,1.847 -0.921,2.308 -1.424,0.606 -2.633,-0.42 -2.76,-1.539 -0.156,-1.368 0.867,-2.363 1.534,-3.231 0.483,-0.629 0.989,-1.421 1.226,-1.692 0.425,-0.485 1.519,-1.045 2.148,-1.693 1.937,-1.999 2.345,-4.801 3.834,-5.386 0.815,-0.32 1.86,0.106 2.453,0 0.433,-0.076 0.676,-0.614 0.921,-0.461 l 0.199,0.2 z M -50.467,11.465 c 0.41,-0.642 1.318,-0.144 1.38,0.462 -0.198,0.786 -1.603,0.5 -1.533,-0.308 h 0.153 z M -54.76,9.618 c 1.635,0.29 2.573,0.396 3.22,1.539 l -0.23,-0.076 0.076,0.23 c -1.244,0.309 -2.385,-0.633 -3.066,-1.385 l 0.076,-0.154 z m -2.761,-2.306 c 1.048,-0.026 1.456,0.589 1.533,1.537 l -0.153,-0.077 -0.152,0.077 c -0.601,0.236 -1.571,-0.33 -1.381,-1.385 l 0.23,0.078 z m -3.068,-4.925 c 0.865,0.324 1.353,1.095 1.074,2.154 h -0.152 v 0.154 c -0.485,-0.181 -0.854,-0.478 -1.228,-0.769 -0.039,-0.707 -0.163,-0.744 0,-1.386 l 0.231,0.077 z m -1.84,-4.616 c 0.635,0.337 0.883,1.064 0.768,2.154 l -0.231,-0.077 -0.077,0.23 c -0.801,-0.155 -1.286,-1.325 -0.919,-2.153 l 0.281,0.077 z m -1.226,-4.156 c 0.525,1.065 1.169,2.008 1.072,3.695 l -0.28,-0.078 -0.179,0.231 c -0.819,-0.768 -1.125,-2.051 -1.074,-3.692 l 0.282,0.076 z m 4.754,-1.537 c -2.146,-0.366 -4.717,-1.487 -4.754,1.385 l -0.281,-0.077 -0.18,0.229 c -0.819,-0.653 -0.919,-2.819 -0.459,-3.845 1.86,-0.863 5.168,0.047 5.827,1.846 l -0.23,0.18 z m 21.776,-0.616 c -0.736,1.812 -2.725,3.53 -5.367,2.461 -0.034,0.12 -0.129,0.18 -0.307,0.155 l 0.076,-0.231 -0.23,-0.076 c 0.4,-1.6 0.901,-3.359 2.302,-3.694 1.757,-0.422 2.271,0.524 3.374,1.077 l -0.078,0.231 z m 4.141,-0.771 c -0.139,0.58 -0.388,1.049 -0.766,1.387 -0.633,-0.084 -0.928,-0.507 -1.228,-0.924 l 0.078,-0.23 -0.078,-0.233 c 0.504,-0.262 1.181,-0.352 1.841,-0.46 l -0.077,0.282 z m -7.207,-5.23 c -0.949,0.709 -2.156,-0.5 -1.228,-1.232 0.981,-0.163 1.159,0.48 1.381,1.079 h -0.153 z m 6.747,2.154 c -1.415,-0.03 -4.136,-0.045 -4.755,-1.385 h 0.154 v -0.154 c 1.356,-0.269 1.844,0.395 2.607,0.616 0.94,0.273 1.829,-0.006 2.147,0.616 l -0.229,0.076 z m 12.728,1.847 c -2.214,0.086 -3.656,1.767 -6.134,1.077 -0.296,0.215 -0.938,0.084 -0.766,0.769 -0.597,-0.655 -0.96,-0.578 -1.687,-0.769 -0.883,-0.233 -1.07,-0.36 -1.994,-0.154 l 0.076,-0.282 -0.23,-0.18 c 0.444,-0.428 1.689,-0.05 1.534,-1.076 0.003,-1.029 -1.716,-0.33 -1.994,-1.077 l 0.231,-0.079 -0.077,-0.229 c 0.938,-0.427 1.555,0.056 2.3,0.153 1.659,0.217 3.316,-0.487 4.754,-0.307 1.628,0.202 2.583,1.709 4.141,1.691 l -0.23,0.181 z m 3.221,-0.463 c -0.049,0.21 -0.219,0.295 -0.152,0.616 l -0.209,0.187 0.055,0.275 c -0.585,-0.182 -1.331,-0.204 -1.841,-0.462 l 0.076,-0.23 0.078,-0.231 c 0.568,-0.302 1.17,-0.569 1.993,-0.615 l -0.077,0.23 z m 4.448,-1.076 c -0.179,0.13 -0.411,0.203 -0.768,0.154 l 0.078,-0.231 -0.078,-0.231 c -0.191,-0.468 -0.117,-0.598 0.154,-0.923 0.567,-0.107 0.382,0.54 0.614,0.77 l -0.077,0.229 z M 8.729,-13.77 c -1.136,0.121 -2.087,-0.771 -3.22,-0.922 -0.901,-0.121 -1.924,0.324 -3.069,0.307 -1.563,-0.024 -2.881,-0.964 -4.293,-0.307 l 0.077,-0.283 -0.23,-0.18 c 2.237,-0.468 2.72,-2.763 4.907,-2.616 0.694,0.047 1.437,0.668 2.301,1.078 1.838,0.871 3.239,1.018 3.833,2.769 L 8.805,-14 Z m 11.348,4.461 c -0.108,-0.565 -0.306,-1.209 0.153,-1.537 0.876,-0.313 1.597,1.6 1.228,1.537 -0.528,-0.065 -0.86,0.062 -1.228,0.156 l 0.077,-0.232 z m 15.183,-5.383 c -0.354,-0.211 -0.857,-0.271 -0.768,-0.924 0.459,-0.384 1.034,0.102 1.074,0.616 l -0.23,0.076 z m 7.053,1.384 c 0.566,-1.097 1.894,-1.359 2.455,-2.769 0.288,-0.726 0.105,-1.698 0.46,-2.463 0.68,-1.466 2.357,-2.894 4.14,-2.615 2.325,0.362 2.49,3.807 0.307,5.078 -1.321,0.767 -2.917,0.564 -4.294,0.922 -0.864,0.723 -1.508,1.668 -2.607,2.155 l -0.2,-0.2 z M 19.157,26.391 c 0.144,-1.17 -0.495,-1.555 -0.921,-2.154 l 0.231,-0.078 -0.076,-0.231 c 0.369,0.064 0.333,-0.281 0.766,-0.154 0.035,-0.119 0.004,-0.302 0.154,-0.307 v 0.154 h 0.153 c 0.736,0.372 0.327,1.535 0.46,2.77 -0.271,-0.043 -0.475,0.723 -0.613,0.306 l 0.077,-0.23 z m 9.355,-30.544 0.153,-0.076 v 0.306 h 0.461 v -0.306 h -0.154 l 0.076,-0.154 -0.076,-0.155 c 2.05,-1.043 2.662,-3.222 5.368,-2.462 1.409,0.397 2.268,3.077 4.139,2.462 0.735,-0.24 1.078,-1.458 1.075,-2.462 -0.008,-2.062 -1.428,-4.374 -3.221,-4.308 -1.575,0.058 -1.661,1.608 -2.914,2.616 -0.923,0.744 -2.424,1.011 -3.833,1.692 -0.679,0.328 -1.342,0.888 -1.994,1.232 -0.697,0.367 -1.926,0.625 -1.994,1.385 -0.157,1.75 1.842,0.349 2.76,0.154 z m 23.464,0.385 h -0.307 c 0.977,-2.323 6.993,-5.058 2.607,-6.77 -2.111,0.918 -4.087,2.179 -6.134,3.231 -2.08,1.068 -4.333,1.805 -6.134,3.232 0.53,0.841 2.013,1.084 3.22,1.538 1.522,0.572 3.572,1.189 4.6,0.462 l 0.179,0.23 0.281,-0.077 c 0.232,1.352 2.352,1.843 3.682,1.693 0.512,-0.058 1.226,-0.61 2.146,-0.923 0.758,-0.258 1.617,-0.203 2.301,-0.462 0.617,-0.234 1.335,-0.886 1.993,-1.231 1.798,-0.941 2.861,-1.284 3.374,-2.769 2.385,1.271 4.969,-2.227 4.754,-4.001 -0.236,-1.94 -3.5,-2.995 -4.908,-3.693 -5.045,2.118 -7.694,6.639 -11.654,9.848 z M 38.173,0.541 c 0.037,-1.165 -0.574,-1.681 -1.533,-1.848 -0.215,0.656 -0.653,0.427 -0.766,0.923 -0.298,1.294 1.487,2.152 2.299,0.925 M 27.285,1.771 V 1.618 c 1.031,0.413 2.301,0.026 2.453,-0.925 -0.364,-0.454 -1.183,-0.453 -1.38,-1.077 h 0.154 v -0.153 c 0.97,-0.554 1.116,0.611 1.994,0.615 1.572,-0.733 1.185,-2.971 -0.307,-3.384 -1.373,-0.382 -2.406,0.376 -3.22,0.616 -0.649,0.189 -1.413,-0.12 -1.535,0.461 v 0.154 l -0.229,-0.078 0.076,0.231 c -0.79,0.132 -0.979,0.863 -1.227,1.538 l -0.229,-0.076 0.076,0.231 c -1.14,0.986 -1.143,2.905 -0.307,3.54 1.112,0.84 4.137,-0.504 3.528,-1.54 z m -41.1,7.54 c 0.132,-0.492 -0.241,-0.476 -0.306,-0.769 -0.27,0.036 -0.349,0.265 -0.307,0.614 0.137,0.12 0.347,0.167 0.613,0.155 M 9.802,9.465 V 9.311 c 0.838,-0.063 1.066,0.696 1.841,0.77 1.206,0.113 2.676,-0.864 3.527,-1.385 0.151,-1.087 -1.386,-2.522 -1.074,-4.001 0.115,-0.546 0.556,-0.631 0.766,-1.231 1.68,-0.493 2.702,0.557 3.681,1.231 -0.022,0.947 0.295,1.551 0.768,1.999 C 20.446,6.12 22.235,5.931 22.531,4.849 22.808,3.836 21.884,2.599 21.15,1.925 20.651,1.466 19.57,1.06 18.696,0.541 17.807,0.012 16.864,-0.94 15.937,-0.999 15.453,-1.029 14.828,-0.706 14.25,-0.537 12.341,0.022 10.669,0.532 9.649,1.618 10.105,2.59 9.866,3.752 8.422,3.617 7.804,3.418 7.825,2.575 7.195,2.387 5.56,2.439 3.943,2.51 2.901,3.155 l -0.23,0.078 0.077,0.231 c -3.652,0.233 -6.102,1.673 -9.354,2.307 -0.38,0.769 -1.083,1.79 -0.615,2.925 1.175,0.567 2.347,1.133 3.835,1.385 0.287,0.036 -0.088,0.253 0.153,0.308 1.242,-0.017 3.863,0 6.901,0 2.847,0 6.579,0.469 5.981,-0.924 z m 10.966,-1 L 20.69,8.233 C 20.918,8.154 21.077,8.005 21.304,7.927 21.426,7.394 21.134,7.277 20.997,7.004 20.552,7.12 20.115,7.246 19.924,7.618 v 0.153 l -0.23,-0.076 0.077,0.232 c -1.778,0.319 -2.995,1.202 -4.449,1.845 0.249,1.49 2.194,0.71 3.374,0.617 0.492,-0.74 1.398,-1.062 1.841,-1.847 V 8.388 Z m 22.62,3.769 c -0.003,-0.618 -0.628,-1.413 -0.614,-1.539 -2.577,-0.727 -1.045,3.842 0.614,1.539 m -41.3,1.954 -0.26,-0.106 c 2.856,-3.641 -5.305,-1.769 -7.669,-2.309 -1.332,2.104 1.548,3.941 3.835,3.385 l -0.077,0.282 0.23,0.179 c -0.665,2.46 6.248,2.552 6.134,0.155 C 4.243,14.978 3.634,14.547 2.287,14.39 Z m -14.829,20.82 c -0.028,-0.434 -0.266,-0.656 -0.766,-0.616 -0.119,0.137 -0.165,0.347 -0.154,0.616 0.196,0.21 0.724,0.21 0.92,0 M 5.048,29.775 C 4.642,29.594 4.572,29.643 4.742,29.16 3.166,28.821 1.574,28.469 -0.166,28.697 l 0.076,-0.229 -0.229,0.077 c -0.093,-0.009 -0.182,-0.023 -0.154,-0.154 -1.272,0.381 -1.262,-0.341 -1.84,-0.77 -0.482,-0.255 -0.626,0.572 -0.767,0.154 -0.057,-0.242 -0.2,-0.42 -0.767,-0.922 -0.372,0.705 -0.609,-0.35 -1.073,-0.462 -1.215,-0.346 -1.542,0.83 -2.147,1.539 -0.742,0.867 -2.027,1.683 -2.761,2.615 -0.303,0.389 -0.336,0.8 -0.613,1.077 -0.587,0.59 -2.559,1.166 -1.226,2.309 0.55,0.038 0.562,-0.463 1.073,-0.463 l -0.055,0.274 0.208,0.189 c -0.894,0.715 -2.221,1.204 -1.993,2.615 -0.852,-0.396 -0.928,0.102 -1.073,0.769 -0.731,0.219 -0.382,-0.644 -1.075,-0.461 -2.642,1.298 -2.751,5.138 -4.446,7.385 l -0.107,-0.261 -0.2,-0.2 c 0.302,-1.317 1.797,-3.096 0.307,-4.002 l 0.076,-0.229 -0.23,-0.078 c 1.938,-1.244 2.764,-2.794 4.295,-4.616 1.288,-1.533 2.8,-3.036 4.14,-4.461 0.437,-0.466 0.893,-1.043 1.38,-1.539 0.919,-0.935 2.443,-2.197 2.761,-3.078 0.507,-1.408 0.118,-3.107 -0.154,-4.308 h -0.154 v -0.154 h -0.153 c 1.094,-0.655 2.021,-2.564 1.226,-4.155 -0.639,-0.376 -1.465,-0.327 -2.299,-0.154 l 0.076,-0.282 -0.23,-0.18 c 0.15,-0.156 0.303,-0.311 0.46,-0.461 -0.006,-0.922 -0.844,-1.43 -1.38,-2.154 -0.774,-1.047 -1.296,-2.321 -2.3,-2.462 -2.552,0.058 -5.467,-1.259 -8.281,-0.923 -1.43,0.987 -2.826,1.262 -4.294,2 -0.538,0.587 -0.92,1.335 -1.534,1.848 -2.131,-0.203 -3.066,0.545 -4.294,1.229 -0.682,0.381 -1.407,0.747 -1.994,1.077 -1.366,0.772 -2.946,1.447 -3.833,2.154 -1.101,0.879 -1.705,2.607 -3.527,2.463 l -0.2,-0.201 -0.261,-0.107 c 0.646,-0.807 0.621,-1.517 1.38,-2 0.553,-0.352 1.26,-0.158 1.994,-0.462 0.908,-0.377 1.81,-1.401 2.914,-2.154 2.121,-1.446 4.131,-2.414 6.441,-3.692 1.076,-0.596 3.113,-1.218 3.221,-1.847 0.247,-1.454 -0.947,-1.068 -2.147,-1.385 -0.84,-0.223 -1.621,-0.795 -2.454,-1.077 -0.96,-0.325 -1.961,-0.475 -2.914,-0.77 -1.785,-0.554 -3.541,-1.287 -5.214,-2 -3.98,-1.697 -7.531,-4.126 -11.809,-5.232 -0.641,-0.584 -0.691,-1.325 -1.227,-1.846 -0.852,-0.827 -2.236,-0.972 -3.22,-1.539 -0.744,-0.427 -1.325,-1.399 -2.147,-2 -1.167,-0.854 -2.473,-1.134 -3.067,-2.308 l 0.208,-0.188 -0.055,-0.275 c 2.365,0.5 2.995,2.741 5.521,3.079 1.06,0.982 2.236,2.76 3.834,2.616 1.365,-0.124 1.128,-1.609 2.607,-1.848 l -0.076,0.232 0.229,0.076 c -0.196,0.777 -1.044,0.902 -1.226,1.693 0.41,1.333 1.469,2.013 3.374,1.847 l -0.077,0.229 0.23,0.079 c 0.089,0.087 -0.151,0.19 -0.153,0.153 0.084,1.262 5.151,3.242 7.36,4.155 1.247,0.515 2.659,1.019 4.142,1.538 1.611,0.566 3.18,1.292 4.293,1.539 0.609,0.135 1.238,0.034 1.841,0.153 1.9,0.38 3.552,1.22 4.908,1.385 2.396,0.294 4.431,-1.112 6.134,-1.692 0.604,-0.205 1.329,-0.281 1.686,-0.46 1.068,-0.539 1.727,-2.039 2.914,-2.463 1.124,0 2.315,-0.066 3.066,0.308 C -4.586,3.696 -1.377,3.12 1.061,1.771 V 1.618 H 1.214 V 1.464 c 1.689,0.64 1.552,-2.16 2.301,-3.232 0.56,-0.801 1.469,-0.943 2.76,-1.538 1.779,-0.822 2.581,-1.764 4.754,-1.232 l -0.077,0.232 0.23,-0.077 c -0.091,2.135 3.563,3.422 3.835,1.384 0.19,-1.432 -1.341,-1.123 -1.841,-2.153 l 0.261,-0.109 0.2,-0.199 c 0.828,-0.064 0.906,0.629 1.685,0.615 0.415,-0.354 0.709,-0.829 0.615,-1.692 l 0.229,-0.077 -0.076,-0.231 c 0.382,0.024 0.474,-0.242 0.766,-0.308 l 0.231,0.077 -0.076,-0.231 c 1.939,0.112 4.08,1.638 6.287,1.539 1.632,-0.074 4.25,-1.543 4.754,-2.309 0.398,-0.606 0.438,-1.452 0.613,-2.308 0.763,-0.465 1.333,-1.125 2.148,-1.538 2.189,0.957 4.964,0.166 5.367,-2.001 L 36.41,-14 36.333,-14.231 h 0.307 c 0.623,0.061 0.472,-0.656 0.921,-0.769 0.363,0.558 1.627,0.211 2.453,0.308 0.729,0.396 0.906,1.346 1.687,1.692 0.195,-0.009 0.212,-0.197 0.46,-0.155 l 0.198,0.2 0.261,0.108 c -0.177,0.489 -0.95,0.379 -1.073,0.924 -0.443,0.694 0.093,1.61 0,2.462 -0.178,1.648 -2.278,3.257 -0.307,4.616 2.342,-1.099 4.636,-2.472 7.208,-3.847 2.293,-1.226 5.276,-2.496 6.748,-4.308 1.491,-1.835 2.468,-5.398 5.674,-5.078 2.398,0.24 1.786,2.682 3.221,3.693 0.381,0.268 0.968,0.145 1.687,0.461 1.682,0.743 3.209,3.13 4.754,3.847 2.331,1.083 4.418,0.866 6.594,0.308 7.243,-1.858 17.219,-1.937 22.696,1.385 1.068,0.647 1.91,1.594 2.915,2.616 1.721,1.752 5.45,3.492 3.527,6.617 -3.769,0.635 -3.358,-2.594 -4.754,-4.617 -0.341,-0.496 -1.11,-1.061 -1.84,-1.54 -2.964,-1.935 -7.816,-3.754 -12.115,-4.001 -4.798,-0.272 -8.181,0.55 -11.962,1.387 -0.976,1.031 -1.165,3.033 -2.454,3.539 -0.99,0.388 -2.583,0.162 -3.528,0 C 69.02,-4.485 68.269,-5 67.618,-4.999 c -1.547,10e-4 -2.898,1.212 -4.601,2.154 -1.512,0.838 -3.693,1.698 -4.448,2.154 -0.37,0.223 -0.399,0.327 -0.613,0.462 -1.25,0.796 -3.775,1.402 -5.674,1.54 -2.461,0.175 -4.024,-1.371 -5.827,-0.77 L 46.531,0.31 46.301,0.233 c 0.462,-1.422 -1.763,-2.13 -3.067,-1.385 -0.929,-0.473 -0.838,-1.7 -1.839,-1.693 -1.607,0.01 -1.669,3.116 -1.535,4.77 l -0.229,0.077 0.076,0.231 c -0.274,1.017 -0.17,1.622 0.153,2.308 0.393,0.835 1.619,1.045 1.994,2 0.475,1.208 -0.638,1.876 0.614,2.77 1.683,0.239 3.197,0.318 3.22,1.693 0.022,1.309 -1.601,1.408 -2.3,2.461 0.959,2.202 4.326,1.193 4.6,3.231 0.216,1.614 -1.796,1.642 -1.84,3.232 l -0.23,-0.076 -0.076,0.23 c -0.785,-0.685 -1.325,-0.03 -2.148,0.308 -2.827,1.162 -5.716,1.902 -7.974,-0.308 0.823,-1.944 3.888,-1.638 4.754,-3.54 l 0.23,0.078 0.076,-0.231 c 0.469,0.111 0.559,-0.157 0.921,-0.154 -0.128,-0.434 0.216,-0.398 0.153,-0.769 -0.573,-0.635 -2.003,-1.42 -2.76,-0.924 v 0.463 l -0.231,0.076 -0.076,0.231 c -1.733,-1.238 -5.206,-1.157 -5.98,0.923 -0.626,0.115 -0.53,-0.496 -1.228,-0.308 -2.819,2.267 1.082,4.871 -0.461,7.232 -0.497,0.424 -1.428,0.413 -1.992,0.769 -2.919,-0.789 -4.908,-4.04 -8.589,-4 l 0.076,-0.232 -0.229,0.078 C 19.378,19.141 17.055,18.172 16.243,19.159 V 19.005 H 16.09 v -0.308 c -0.337,-0.176 -0.626,-0.396 -1.228,-0.308 -0.049,0.655 -0.613,1.229 0,1.693 l -0.076,0.231 0.231,-0.078 c -0.627,2.181 0.398,4.333 2.607,3.693 l 0.076,0.231 0.23,-0.077 c 0.278,0.901 1.365,0.99 1.073,2.463 l -0.23,0.077 0.078,0.231 c -0.673,-0.003 -1.166,0.265 -1.075,0.615 -0.729,-0.428 -1.721,-0.69 -2.606,-0.771 -0.078,-0.007 -0.398,-0.039 -0.46,0 -0.424,0.277 0.212,0.209 -0.307,0 -0.535,-0.214 -1.204,0.222 -1.533,0.309 -0.186,0.049 -0.783,-0.077 -0.766,0.307 -0.641,0.026 -0.757,-0.471 -1.38,-0.46 C 10.348,27.245 9.805,27.471 9.496,27.93 9.563,27.143 8.41,27.581 7.808,27.468 6.99,28.237 5.958,28.791 5.355,29.775 L 5.202,29.698 Z M -1.086,36.7 c -0.242,-1.372 1.018,-1.235 1.688,-1.692 l 0.153,0.076 0.152,-0.076 c -0.026,1.015 0.927,2.114 0.154,2.923 -1.04,0.118 -1.159,-0.684 -1.995,-0.769 l 0.078,-0.282 z m -1.84,2.154 c 0.166,-0.808 0.616,-1.331 1.38,-1.539 l 0.178,0.232 0.282,-0.078 c 0.134,0.75 -0.21,1.021 -0.307,1.539 -0.382,0.13 -0.822,0.201 -1.379,0.153 l 0.075,-0.23 z m -3.834,4 c 0.397,-0.935 1.117,-1.544 1.84,-2.153 l 0.076,0.231 0.231,0.077 c -0.608,0.721 -0.557,2.106 -1.993,1.999 l 0.076,-0.231 z m -31.208,32.699 0.23,0.075 c -1.099,1.169 -0.058,3.258 -0.766,4.924 -0.484,1.136 -1.321,1.479 -2.301,2.309 h -2.148 c -3.181,-2.302 0.301,-7.01 3.988,-6.617 0.241,-0.372 0.549,-0.68 0.92,-0.923 z M 77.894,-41.466 c 0.153,0 0.181,-0.125 0.305,-0.155 0,0.155 0.125,0.184 0.154,0.308 -0.154,0 -0.183,0.125 -0.307,0.155 10e-4,-0.155 -0.124,-0.183 -0.152,-0.308 m -42.174,2 h 0.307 v 0.308 H 35.72 Z m 25.918,0.616 c 0.348,-0.043 0.575,0.037 0.612,0.308 -0.218,0.036 -0.259,0.253 -0.46,0.307 -0.048,-0.208 -0.218,-0.294 -0.152,-0.615 m -42.942,9.385 c -1.096,-3.612 5.478,-3.46 3.682,0.154 -0.356,0.717 -1.375,1.079 -2.454,0.77 -0.786,-0.226 -1.106,-0.524 -1.228,-0.924 m -41.098,2.924 c 0.267,-0.012 0.476,0.034 0.613,0.154 0.046,0.406 -0.212,0.506 -0.613,0.461 z m -42.94,0.923 c -1.349,0.154 -1.823,0.709 -3.067,0.617 -2.603,-0.195 -3.823,-2.837 -2.454,-4.77 1.703,-2.406 6.695,-1.057 5.674,3.692 l -0.23,0.179 z m 0.843,0.281 -0.076,-0.281 c 0.607,-0.045 0.937,0.188 1.226,0.462 -0.322,0.269 -1.125,0.504 -1.38,0 z m 10.505,0.181 c 0.008,0.264 -0.118,0.395 -0.307,0.462 -0.22,-0.225 -0.225,-0.595 0.307,-0.462 m 58.122,-0.153 c 0.267,-0.012 0.477,0.034 0.614,0.153 -0.019,0.39 -0.223,0.596 -0.614,0.614 -0.197,-0.2 -0.197,-0.566 0,-0.767 m 13.648,0.46 c 0.505,-0.314 1.35,0.122 1.535,0.617 v 0.307 c -0.583,0.309 -1.511,-0.177 -1.535,-0.924 m 0.92,2 c 0.047,0.407 -0.211,0.506 -0.612,0.462 -0.126,-0.55 0.326,-0.764 0.612,-0.462 m 10.43,0.309 c 0.29,0.034 0.338,-0.173 0.612,-0.153 0.346,0.363 0.113,1.015 -0.46,0.922 -0.128,-0.179 -0.201,-0.413 -0.152,-0.769 m -2.455,0.923 c 0.179,-0.129 0.412,-0.203 0.767,-0.154 0.196,0.921 -0.803,0.899 -0.767,0.154 m -46.313,0.462 h 0.46 v 0.462 h -0.46 z m -42.173,-0.462 c 0.594,-0.096 0.631,-0.127 1.073,0.154 v 0.77 c -0.257,0.203 -0.513,0.406 -1.073,0.307 -0.226,-0.223 -0.226,-1.009 0,-1.231 m 59.043,2.308 c 0.044,0.405 -0.213,0.505 -0.614,0.46 -0.127,-0.548 0.325,-0.762 0.614,-0.46 m -45.088,-0.307 c 0.126,-1.625 3.121,-0.847 2.914,0.615 -0.859,0.26 -2.508,0.083 -2.914,-0.615 m -28.37,0.461 c 0.046,0.406 -0.213,0.505 -0.614,0.462 -0.125,-0.551 0.326,-0.764 0.614,-0.462 m 68.703,0.306 h 0.307 v 0.309 h -0.307 z m 8.434,0.309 v -0.461 c 0.197,-0.211 0.725,-0.211 0.921,0 0.033,0.29 -0.173,0.339 -0.154,0.615 -0.355,0.049 -0.589,-0.024 -0.767,-0.154 m -1.841,-0.153 c 0.041,0.502 -0.18,0.741 -0.612,0.77 -0.064,-0.527 0.046,-0.877 0.612,-0.77 m -47.233,0.462 c 0.271,-0.137 0.449,-0.489 0.768,-0.155 0.147,0.566 -0.753,0.611 -0.768,0.155 m 42.021,1.692 c -0.136,0.119 -0.438,-0.095 -0.46,-0.154 -0.218,-0.58 0.762,-0.11 0.46,0.154 m -38.033,-1.539 c 1.038,-0.268 1.494,0.853 1.074,1.539 -0.65,0.141 -1.948,-0.614 -1.074,-1.539 m -15.949,1.077 h 0.461 c 0.041,0.351 -0.038,0.579 -0.308,0.615 -0.047,-0.208 -0.218,-0.294 -0.153,-0.615 m 92.935,0.615 c -0.122,-0.532 0.17,-0.649 0.306,-0.923 0.573,0.041 0.894,0.333 0.766,1.079 -0.407,-0.002 -0.876,0.057 -1.072,-0.156 m -80.974,-0.615 c 0.477,0.326 0.403,1.392 -0.459,1.23 -0.471,-0.491 -0.164,-1.059 0.459,-1.23 m 56.589,0.615 c 0.694,-0.132 0.955,0.17 1.074,0.615 -0.49,0.235 -1.299,0.284 -1.074,-0.615 m -12.959,1.001 0.229,0.076 c -0.166,0.562 -1.268,0.646 -1.225,-0.153 0.152,-0.168 0.836,-0.578 1.073,-0.154 z m 14.952,0.23 c 0.131,-0.33 0.378,-0.543 0.921,-0.461 0.177,0.181 0.174,0.544 0.153,0.924 -0.445,0.198 -1.037,0.147 -1.074,-0.463 m -39.564,0.308 v 0.462 h -0.461 c -0.029,-0.335 0.126,-0.49 0.461,-0.462 m 55.361,1.232 c 0.018,-0.394 0.223,-0.597 0.613,-0.616 0.048,0.208 0.218,0.294 0.154,0.616 -0.202,0.197 -0.566,0.197 -0.767,0 m 18.097,0 h 0.612 V -13 c -0.423,0.479 -1.09,-0.191 -0.612,-0.615 m -101.677,0.307 c 0.009,0.265 -0.118,0.394 -0.306,0.461 -0.22,-0.224 -0.226,-0.596 0.306,-0.461 m 81.126,0.616 c 0.019,-0.391 0.222,-0.597 0.614,-0.616 0.225,0.363 0.322,0.287 0.152,0.77 -0.355,0.049 -0.588,-0.025 -0.766,-0.154 m -0.46,0.921 c 0.219,-0.035 0.258,-0.252 0.46,-0.306 0.049,0.208 0.219,0.294 0.153,0.616 -0.349,0.043 -0.577,-0.038 -0.613,-0.31 M 1.368,-12.23 c 0.225,0.362 0.322,0.286 0.153,0.769 H 0.907 c -0.072,-0.483 0.192,-0.629 0.461,-0.769 m -49.841,1.538 c -0.067,-0.682 0.256,-0.974 0.766,-1.079 0.041,0.218 0.337,0.176 0.461,0.31 0.115,0.954 -0.742,1.243 -1.227,0.769 m 35.885,0.154 c 0.217,-0.233 0.746,-0.486 1.074,-0.154 0.357,1.024 -1.368,1.355 -1.074,0.154 m 34.659,1.229 c 0.055,-0.712 0.522,-1.014 1.074,-1.229 0.034,0.12 0.127,0.179 0.306,0.153 0.001,0.409 -0.058,0.879 0.153,1.076 -0.404,0.373 -1.129,0.373 -1.533,0 m 37.112,0.156 c 0.046,0.405 -0.212,0.504 -0.614,0.461 -0.125,-0.551 0.327,-0.763 0.614,-0.461 m -116.244,0 c 0.046,0.405 -0.212,0.504 -0.613,0.461 -0.126,-0.551 0.326,-0.763 0.613,-0.461 m 61.803,0 c 0.034,0.12 0.004,0.303 0.153,0.307 C 4.866,-8.413 4.629,-8.19 4.128,-8.23 3.782,-8.624 3.983,-9.398 4.742,-9.153 m -36.039,0.923 c -0.161,-0.893 0.665,-0.064 0,0 M -45.1,-9.615 c 0.376,0.27 0.363,0.927 0.154,1.385 -1.438,0.848 -1.945,-1.717 -0.154,-1.385 m 69.164,1.077 c 0.141,-0.27 0.286,-0.535 0.767,-0.461 0.177,0.182 0.173,0.543 0.153,0.922 -0.119,0.036 -0.301,0.004 -0.306,0.155 -0.39,-0.019 -0.595,-0.224 -0.614,-0.616 m 1.995,-0.615 c 0.39,-0.326 0.619,-0.814 0.766,-1.385 0.211,0.007 0.336,-0.073 0.46,-0.154 0.247,0.366 0.551,0.678 0.767,1.077 -1.415,-0.711 -0.566,1.654 -1.533,1.845 -0.259,-0.354 -0.051,-1.179 -0.46,-1.383 M 7.655,-8.384 c 1.088,-0.22 1.256,0.485 1.533,1.077 -0.972,0.653 -2.409,-0.004 -1.533,-1.077 m -59.195,1.231 c 0.108,0.622 -0.147,0.879 -0.767,0.768 -0.109,-0.621 0.146,-0.878 0.767,-0.768 m 5.827,0.616 c -0.081,-0.698 0.227,-1.006 0.921,-0.924 0.176,0.182 0.173,0.545 0.153,0.924 -0.419,0.3 -0.654,0.3 -1.074,0 m 105.51,1.229 c 0.018,-0.39 0.223,-0.595 0.613,-0.614 0.048,0.208 0.218,0.294 0.153,0.614 -0.201,0.199 -0.564,0.199 -0.766,0 M 4.742,-6.537 C 6.047,-7.308 6.773,-5.515 5.814,-4.845 4.412,-4.422 4.14,-5.853 4.742,-6.537 m -64.87,1.692 c -0.162,-0.893 0.665,-0.064 0,0 m 36.039,0.154 c -0.127,-0.435 0.216,-0.398 0.153,-0.769 h 0.613 c 0.211,0.195 0.211,0.726 0,0.922 -0.355,0.049 -0.588,-0.024 -0.766,-0.153 m 6.594,0.153 c 0.48,-0.069 0.685,0.134 0.614,0.615 -0.423,0.48 -1.091,-0.191 -0.614,-0.615 m 91.86,0.615 h 0.308 v 0.308 h -0.308 z m -0.306,1.694 c -0.064,-0.627 0.158,-0.97 0.767,-0.923 0.218,0.206 0.218,0.871 0,1.077 -0.355,0.048 -0.589,-0.025 -0.767,-0.154 M 28.205,-2.383 c 0.244,0.229 0.224,0.878 -0.307,0.769 -0.328,-0.316 -0.08,-0.732 0.307,-0.769 m 13.649,0.615 h 0.307 c 0.237,0.379 -0.521,0.453 -0.46,0.154 0.093,-0.009 0.181,-0.023 0.153,-0.154 m 33.739,0 v 0.308 c -0.283,0.512 -0.748,-0.462 0,-0.308 m -120.079,0.461 h 0.307 v 0.308 h -0.307 z m 106.429,0.308 c -0.126,-0.587 0.327,-0.596 0.614,-0.769 0.21,0.197 0.21,0.727 0,0.924 -0.267,0.011 -0.477,-0.034 -0.614,-0.155 m -18.402,0.924 h 0.46 v 0.309 h -0.46 z m -59.962,0.924 c -0.041,-0.502 0.182,-0.742 0.613,-0.771 0.383,0.467 -0.103,1.14 -0.613,0.771 m -8.588,-0.308 c 0.223,-0.227 1.004,-0.227 1.227,0 0.396,1.4 -1.623,1.4 -1.227,0 m 7.208,1.846 c -0.047,-0.406 0.212,-0.505 0.612,-0.462 0.117,0.543 -0.4,0.689 -0.612,0.462 m -2.301,-0.154 c 0.734,-0.46 2.072,-0.417 1.841,0.922 -0.771,0.694 -1.813,0.033 -1.841,-0.922 m 62.57,1.231 c 0.304,-10e-4 0.195,-0.42 0.613,-0.309 V 3.772 C 42.73,3.814 42.504,3.734 42.468,3.464 M 14.479,3.233 14.25,3.155 c 0.014,-0.456 0.842,-0.885 1.227,-0.461 -0.359,0.256 -0.372,0.86 -1.074,0.77 z m -2.683,1.77 c -0.057,-0.704 0.489,-0.801 0.92,-0.616 0.245,0.76 -0.529,0.964 -0.92,0.616 m -68.089,0.615 c -1.66,0.502 -1.883,-1.345 -1.075,-2.001 h 1.227 c 0.514,0.684 0.471,1.467 -0.152,2.001 M 2.287,6.079 C 2.228,5.505 2.41,5.176 2.901,5.156 3.12,5.192 3.16,5.409 3.362,5.464 3.385,5.847 3.12,5.94 3.054,6.234 2.699,6.282 2.466,6.209 2.287,6.079 m 8.589,0.155 C 10.635,6.299 10.745,6.718 10.263,6.541 9.978,6.027 10.813,5.894 10.876,6.234 m 42.02,0.153 C 52.966,6.868 52.568,6.879 52.128,6.849 51.957,6.227 52.6,6.088 52.896,6.387 m 6.748,-0.153 c 0.559,-0.1 0.816,0.103 1.073,0.307 0.11,0.471 -0.156,0.562 -0.154,0.923 -0.999,0.729 -1.693,-0.64 -0.919,-1.23 m -6.441,0.922 c 0.446,-0.226 0.446,0.689 0,0.462 z m -9.355,0.771 c 0.241,0.227 0.171,0.686 -0.307,0.615 -0.043,-0.351 0.036,-0.578 0.307,-0.615 m 15.642,0 c 0.049,0.355 -0.025,0.59 -0.153,0.769 H 58.876 C 58.812,8.169 58.924,7.819 59.49,7.927 M 4.895,8.542 C 5.188,8.477 5.173,8.103 5.661,8.233 5.896,8.899 4.961,9.064 4.895,8.542 m 48.001,1.384 c 0.205,-0.154 0.301,-0.415 0.613,-0.461 0.129,0.178 0.203,0.412 0.153,0.768 -0.38,0.024 -0.744,0.03 -0.766,-0.307 m -86.34,3.23 c 0.047,0.407 -0.212,0.506 -0.613,0.463 -0.126,-0.551 0.326,-0.764 0.613,-0.463 m -11.502,-0.768 c 0.724,-0.06 1.106,0.224 1.074,0.924 -0.12,0.034 -0.179,0.127 -0.153,0.307 -0.999,0.731 -1.694,-0.64 -0.921,-1.231 m 31.899,1.231 c 0.195,-0.009 0.212,-0.197 0.459,-0.154 0.009,0.264 -0.118,0.394 -0.306,0.462 0,-0.154 -0.124,-0.184 -0.153,-0.308 m -11.196,2.155 h 0.307 v 0.307 h -0.307 z m 10.582,1.077 c -0.161,-0.895 0.664,-0.065 0,0 m 79.132,0.922 c 0.088,0.094 0.359,0.73 0,0.77 0.092,-0.274 -0.45,-0.639 0,-0.77 m -30.825,2.155 c -0.026,-0.385 0.236,-0.482 0.46,-0.615 0.037,0.219 0.252,0.259 0.307,0.461 -0.305,0.002 -0.194,0.42 -0.614,0.308 -0.008,-0.094 -0.023,-0.183 -0.153,-0.154 m -61.956,0.925 c -0.222,-0.086 -0.793,0.177 -0.767,-0.156 0.223,0.084 0.793,-0.18 0.767,0.156 m 92.321,-0.156 c 0.138,-0.584 0.796,-1.277 1.533,-0.769 0.273,1.212 -1.145,1.485 -1.533,0.769 M 36.18,24.544 c -0.303,-0.321 -0.117,-1.022 0,-1.385 0.368,-0.094 0.699,-0.221 1.226,-0.153 0.316,0.248 0.357,0.77 0.308,1.385 -0.304,0.249 -1.116,0.495 -1.534,0.153 m -11.196,0.153 c -0.138,0.54 -0.612,1.072 -1.533,0.616 -2.415,-1.192 2.252,-3.403 1.533,-0.616 M 9.188,28.545 h 0.461 v 0.308 H 9.188 Z m -14.721,0.462 c -0.136,0.117 -0.438,-0.095 -0.46,-0.154 -0.217,-0.581 0.763,-0.112 0.46,0.154 M 36.18,27.775 c 0.084,1.547 -3.272,2.368 -2.761,-0.462 0.814,-1.013 2.694,-0.761 2.761,0.462 m -5.062,1.078 h 0.308 v 0.308 h -0.308 z m -19.782,0 c -0.327,0.288 -0.339,0.891 -1.073,0.77 -0.146,-0.668 0.633,-1.2 1.073,-0.77 m 30.211,0.77 h 0.307 V 29.93 H 41.547 Z M 9.956,29.468 c 0.199,0.204 0.202,0.573 -0.154,0.615 C 9.604,29.878 9.6,29.511 9.956,29.468 m 14.875,0.307 h 0.767 c 0.108,0.621 -0.147,0.878 -0.767,0.77 z m -7.514,-0.152 c 0.71,-0.408 1.478,0.363 1.074,1.075 -0.962,0.542 -1.737,-0.339 -1.074,-1.075 M -3.77,30.007 -4,29.93 c 0.12,-0.401 0.942,-0.892 1.381,-0.462 -0.323,0.343 -0.511,0.821 -1.228,0.769 z m 41.484,1.154 c -0.233,2.269 -2.023,-0.735 0,0 M 7.195,31.776 c -0.169,0.681 -1.372,1.016 -1.993,0.307 -0.729,-2.188 2.43,-2.072 1.993,-0.307 m -29.904,0.616 c 0.207,-0.049 0.293,-0.219 0.613,-0.154 v 0.46 c -0.349,0.045 -0.576,-0.036 -0.613,-0.306 m 32.358,0 c 0.256,-0.204 0.513,-0.409 1.075,-0.309 0.21,0.199 0.15,0.669 0.152,1.078 -0.657,0.382 -1.396,0.39 -1.227,-0.769 m -1.841,0.769 c -0.294,0.063 -0.12,0.597 -0.613,0.462 -0.427,-0.255 0.323,-0.976 0.613,-0.462 m -17.636,1.538 c -0.134,0.118 -0.438,-0.095 -0.459,-0.153 -0.216,-0.581 0.764,-0.11 0.459,0.153 m 26.531,-0.153 v 0.307 c -0.283,0.511 -0.747,-0.462 0,-0.307 m -1.841,0.153 c 0.264,-0.008 0.395,0.118 0.46,0.309 -0.239,-0.016 -0.53,0.02 -0.46,-0.309 m 21.012,0.309 h 0.612 c 0.072,0.481 -0.132,0.685 -0.612,0.615 z M 9.035,35.161 v 0.616 H 8.422 C 8.44,35.385 8.646,35.181 9.035,35.161 M -3.08,35.777 c 0.305,-0.002 0.195,-0.421 0.613,-0.309 v 0.616 c -0.348,0.043 -0.575,-0.037 -0.613,-0.307 m 7.822,0.461 h 0.46 c 0.027,0.335 -0.126,0.491 -0.46,0.462 z m -18.863,1.539 c 0.585,-0.075 0.979,0.043 1.227,0.307 0.089,0.5 -0.105,0.717 -0.153,1.077 -1.051,0.735 -1.895,-0.707 -1.074,-1.384 M -33.75,38.7 c 0.289,-0.034 0.337,0.173 0.613,0.154 v 0.615 c -0.178,0.13 -0.411,0.203 -0.766,0.154 -0.183,-0.459 -0.043,-0.523 0.153,-0.923 m 4.293,0.769 c 0.047,0.406 -0.211,0.506 -0.613,0.463 -0.154,-0.514 0.213,-0.505 0.613,-0.463 m 51.222,-0.153 c 0.343,0.271 0.944,0.283 0.766,1.078 -1.091,0.694 -1.92,-0.735 -0.766,-1.078 M 5.202,40.238 h 0.459 v 0.463 H 5.202 Z m 12.422,0.156 c 0.267,-0.013 0.477,0.033 0.612,0.153 0.027,0.385 -0.234,0.481 -0.46,0.614 -0.225,-0.362 -0.323,-0.286 -0.152,-0.767 m -31.592,1.229 c 0.119,1.002 -0.965,1.167 -1.38,0.924 -1.759,-1.029 1.171,-2.679 1.38,-0.924 m 10.275,1.078 V 42.393 C -3.6,42.385 -3.512,42.37 -3.54,42.238 h 0.307 c 0.008,0.095 0.023,0.184 0.153,0.155 v 0.308 c -0.093,0.009 -0.182,0.023 -0.153,0.153 H -3.54 c -0.008,-0.093 -0.023,-0.181 -0.153,-0.153 m 17.482,0.307 c 0.66,-0.392 1.311,0.263 0.921,0.925 -0.361,-0.004 -0.452,0.263 -0.921,0.153 -0.219,-0.206 -0.219,-0.871 0,-1.078 m -49.38,-0.615 c 0.619,-0.326 1.328,-0.066 1.688,0.308 0.066,0.528 -0.062,0.862 -0.154,1.232 -1.07,1.037 -2.568,-0.468 -1.534,-1.54 m 80.972,2.154 c -0.135,0.119 -0.438,-0.094 -0.46,-0.154 -0.22,-0.587 0.764,-0.111 0.46,0.154 m -33.738,0.77 c -0.442,-0.203 -0.316,-0.975 -0.154,-1.384 0.434,-0.192 0.947,-0.192 1.381,0 0.034,0.118 0.004,0.302 0.152,0.306 0.161,0.93 -0.767,1.415 -1.379,1.078 m 33.891,-0.155 c 0.215,-1.552 3.131,-1.321 2.454,0.77 -1.023,1.041 -2.641,0.597 -2.454,-0.77 m -22.85,1.385 c 0.155,0.001 0.183,-0.123 0.306,-0.153 0,0.154 0.125,0.182 0.155,0.308 -0.155,-10e-4 -0.184,0.123 -0.307,0.152 10e-4,-0.153 -0.125,-0.182 -0.154,-0.307 m -41.712,0.307 v 0.463 h -0.46 c -0.029,-0.336 0.125,-0.491 0.46,-0.463 M -6.3,48.702 c 0.154,0 0.182,-0.125 0.307,-0.154 -0.016,0.241 0.02,0.533 -0.307,0.461 z m 35.578,0.153 c 0.087,-0.744 0.939,-0.933 1.228,-0.307 0.011,0.523 -0.451,0.572 -0.768,0.768 -0.149,-0.156 -0.302,-0.311 -0.46,-0.461 M 16.09,49.316 c -0.049,-0.356 0.024,-0.589 0.153,-0.768 0.479,-0.223 1.043,-0.027 0.92,0.768 -0.349,0.076 -0.783,0.307 -1.073,0 m 7.208,-0.461 c 0.572,-0.061 0.899,0.124 0.92,0.617 -0.327,1.012 -1.821,0.085 -0.92,-0.617 m -43.4,0.308 c 0.377,-0.019 0.739,-0.023 0.92,0.153 0.081,0.699 -0.225,1.006 -0.92,0.924 -0.219,-0.205 -0.219,-0.871 0,-1.077 M 8.269,49.778 C 8.341,50.26 8.135,50.466 7.655,50.394 7.584,49.912 7.788,49.707 8.269,49.778 m -9.203,-5.692 c 1.456,0.341 3.021,2.574 1.841,4.616 -0.483,0.836 -1.648,0.753 -2.3,1.692 0,0.085 -0.124,0.173 -0.153,0 -5.296,-0.011 -4.033,-7.398 0.612,-6.308 M 1.061,50.24 C 1.104,50.591 1.024,50.817 0.755,50.855 0.789,50.584 0.6,50.085 1.061,50.24 m 17.942,0 c 0.08,-0.226 0.227,-0.387 0.308,-0.615 h 0.766 c 0.946,0.905 -0.874,2.029 -1.074,0.615 m -55.514,0.154 c 0.049,0.357 -0.024,0.591 -0.153,0.769 h -0.461 c -0.039,-0.501 0.183,-0.74 0.614,-0.769 m 61.649,-0.461 c 0.321,-1.302 3.292,-1.355 2.607,0.922 -1.214,1.385 -2.98,0.59 -2.607,-0.922 m -0.92,1.539 h 0.307 v 0.307 H 24.218 Z M 11.336,50.24 c 1.289,0.075 0.928,2.205 -0.307,1.848 -1.371,-0.4 -0.697,-1.906 0.307,-1.848 m -21.469,2.307 c 0.107,0.475 0.107,0.298 0,0.77 h -0.614 c -0.223,-0.467 -0.026,-0.787 0.614,-0.77 m 46.926,1.386 c 0.29,0.035 0.338,-0.172 0.613,-0.154 0.333,0.352 0.056,0.96 -0.459,0.923 -0.13,-0.179 -0.203,-0.411 -0.154,-0.769 M 5.814,53.01 c 0.023,0.059 0.325,0.272 0.461,0.154 C 6.579,52.899 5.596,52.423 5.814,53.01 m 0.308,1.692 c -3.532,0.4 -3.127,-3.978 -0.613,-4.154 1.417,-0.1 1.826,0.908 2.76,1.692 0.441,0.173 1.033,0.194 1.073,0.77 -0.312,0.589 -0.879,0.326 -1.38,0.463 -0.047,0.466 -0.571,0.919 -0.154,1.384 -0.766,-0.051 -0.591,0.841 -1.226,0.922 -0.268,-0.385 0.151,-0.846 -0.46,-1.077 m -21.163,-0.153 c 0.328,-1.606 3.364,-1.383 3.067,0.615 -0.142,0.948 -1.182,1.31 -1.994,1.078 -1.071,-0.307 -1.217,-0.991 -1.073,-1.693 m 3.22,1.846 c -0.048,-0.356 0.025,-0.591 0.154,-0.769 0.378,-0.022 0.739,-0.023 0.92,0.153 v 0.616 c -0.205,0.22 -0.868,0.22 -1.074,0 m -2.3,0.462 c 0.284,0.272 -0.04,0.475 -0.307,0.615 -0.241,-0.228 -0.171,-0.687 0.307,-0.615 m 45.239,-0.308 c 0.379,-0.02 0.739,-0.023 0.921,0.154 0.214,1.525 -1.982,0.765 -0.921,-0.154 m -41.251,0.769 h 0.305 c 0.172,0.221 0.167,0.376 -0.152,0.462 -0.009,-0.197 -0.197,-0.214 -0.153,-0.462 M 41.24,55.01 c 0.588,0.039 1.739,0.595 1.687,1.847 -0.051,1.28 -1.493,1.915 -2.453,1.692 -2.341,-0.543 -1.149,-3.664 0.766,-3.539 M 4.128,57.78 v 0.769 c -1.493,1.305 -1.821,-1.724 0,-0.769 m -5.521,1.846 c -0.987,-0.982 1.005,-2.022 1.227,-0.615 -0.283,0.331 -0.448,0.781 -1.227,0.615 m 1.84,0.154 h 0.46 c 0.044,0.403 -0.055,0.662 -0.46,0.616 z m -42.478,0.462 c -1.141,-4.493 6.477,-5.424 5.673,0 -1.008,2.207 -5.054,2.441 -5.673,0 M 59.183,53.01 c -0.634,0.125 -0.787,-0.238 -0.766,-0.77 0.406,0.002 0.903,-0.085 0.92,0.307 l -0.231,0.181 z m 7.285,5.154 -0.076,-0.231 c 1.082,-0.126 1.975,-0.59 2.913,-0.461 2.277,0.313 3.577,3.007 1.686,4.924 -2.894,1.118 -5.134,-0.661 -4.754,-4.154 z m -25.381,4.078 c 0.158,-0.629 -0.716,-0.82 -0.613,-0.154 0.136,0.12 0.346,0.167 0.613,0.154 m 1.381,0 c -0.367,1.152 -2.914,1.722 -3.834,0.461 -1.56,-4.171 4.976,-4.048 3.834,-0.461 m -32.205,1.076 c 0.623,-0.06 1.068,0.058 1.073,0.617 -0.155,0.358 -0.527,0.496 -1.073,0.461 -0.219,-0.205 -0.219,-0.872 0,-1.078 m -36.192,2.156 h 0.459 c 0.029,0.335 -0.124,0.49 -0.459,0.462 z M 9.496,65.781 C 9.334,66.899 6.93,67.355 7.35,65.166 c 0.797,-1.09 2.31,-0.522 2.146,0.615 m 3.834,4.001 c 0.153,-2.064 4.045,-2.068 3.373,0.614 -0.946,1.48 -3.519,1.341 -3.373,-0.614 m -50.607,2 c 0.753,-0.056 1.063,0.505 0.766,1.076 h -0.92 c -0.203,-0.457 -0.158,-0.78 0.154,-1.076 m 51.373,1.076 c -0.62,0.542 -0.362,-0.494 0,0 M -4.92,73.014 v 0.46 h -0.46 c -0.028,-0.335 0.125,-0.488 0.46,-0.46 m -35.885,0.923 c 0.573,-0.062 0.9,0.123 0.92,0.615 -0.292,0.892 -1.542,0.173 -0.92,-0.615 m 34.199,3.538 c 0.082,-0.543 -0.131,-0.792 -0.461,-0.922 -0.492,0.019 -0.674,0.347 -0.614,0.922 0.29,0.305 0.725,0.075 1.075,0"
             style="fill:#262626;fill-opacity:1;fill-rule:evenodd;stroke:none"
             id="path70"
             inkscape:connector-curvature="0" />
        </g>
      </g>
    </g>
  </g>
</svg>
