<?xml version="1.0" encoding="UTF-8" standalone="no"?>
<!-- Created with Inkscape (http://www.inkscape.org/) -->

<svg
   xmlns:dc="http://purl.org/dc/elements/1.1/"
   xmlns:cc="http://creativecommons.org/ns#"
   xmlns:rdf="http://www.w3.org/1999/02/22-rdf-syntax-ns#"
   xmlns:svg="http://www.w3.org/2000/svg"
   xmlns="http://www.w3.org/2000/svg"
   xmlns:sodipodi="http://sodipodi.sourceforge.net/DTD/sodipodi-0.dtd"
   xmlns:inkscape="http://www.inkscape.org/namespaces/inkscape"
   width="52.858074mm"
   height="60.490532mm"
   viewBox="0 0 52.858074 60.490532"
   version="1.1"
   id="svg4128"
   inkscape:version="0.92.2 2405546, 2018-03-11"
   sodipodi:docname="paint05.svg">
  <defs
     id="defs4122">
    <clipPath
       clipPathUnits="userSpaceOnUse"
       id="clipPath90">
      <path
         d="M 0,600 H 600 V 0 H 0 Z"
         id="path88"
         inkscape:connector-curvature="0" />
    </clipPath>
  </defs>
  <sodipodi:namedview
     id="base"
     pagecolor="#ffffff"
     bordercolor="#666666"
     borderopacity="1.0"
     inkscape:pageopacity="0.0"
     inkscape:pageshadow="2"
     inkscape:zoom="0.35"
     inkscape:cx="8.5714287"
     inkscape:cy="559.99999"
     inkscape:document-units="mm"
     inkscape:current-layer="layer1"
     showgrid="false"
     fit-margin-top="0"
     fit-margin-left="0"
     fit-margin-right="0"
     fit-margin-bottom="0"
     inkscape:window-width="3840"
     inkscape:window-height="2095"
     inkscape:window-x="0"
     inkscape:window-y="0"
     inkscape:window-maximized="1" />
  <metadata
     id="metadata4125">
    <rdf:RDF>
      <cc:Work
         rdf:about="">
        <dc:format>image/svg+xml</dc:format>
        <dc:type
           rdf:resource="http://purl.org/dc/dcmitype/StillImage" />
        <dc:title></dc:title>
      </cc:Work>
    </rdf:RDF>
  </metadata>
  <g
     inkscape:label="Layer 1"
     inkscape:groupmode="layer"
     id="layer1"
     transform="translate(3.5692649e-8,-236.50946)">
    <g
       transform="matrix(0.35277777,0,0,-0.35277777,-3.5277184,365.41873)"
       id="g84">
      <g
         id="g86"
         clip-path="url(#clipPath90)">
        <g
           id="g92"
           transform="translate(96.7085,270.8711)">
          <path
             d="m 0,0 c -1.923,-1.701 -4.675,-2.506 -7.747,-2.263 -0.07,0.006 -0.133,-0.047 -0.139,-0.116 -0.006,-0.074 0.048,-0.135 0.118,-0.14 3.143,-0.25 5.963,0.576 7.941,2.324 0.053,0.048 0.058,0.131 0.01,0.183 C 0.136,0.041 0.055,0.047 0,0 M 3.904,5.768 C 3.583,4.002 2.545,2.205 0.9,0.569 0.858,0.528 0.858,0.46 0.899,0.421 c 0.042,-0.042 0.109,-0.042 0.15,0 1.676,1.664 2.736,3.5 3.063,5.308 C 4.123,5.788 4.084,5.843 4.028,5.854 3.97,5.864 3.915,5.825 3.904,5.768 M -51.28,38.791 c -1.224,-0.163 -2.351,-0.699 -3.173,-1.513 -0.046,-0.044 -0.046,-0.118 -0.002,-0.164 0.045,-0.045 0.118,-0.046 0.164,0 0.788,0.778 1.867,1.292 3.042,1.448 0.064,0.008 0.108,0.066 0.099,0.13 -0.008,0.063 -0.066,0.107 -0.13,0.099 m 2.285,-39.416 c -0.034,-0.055 -0.027,-0.119 0.025,-0.157 l 0.322,-0.211 0.165,-0.105 c 0.054,-0.033 0.135,-0.026 0.171,0.029 0.035,0.054 0.028,0.121 -0.026,0.155 l -0.191,0.123 -0.295,0.194 c -0.054,0.035 -0.135,0.027 -0.171,-0.028 m 0.425,-0.265 c -0.614,-0.838 -1.397,-1.571 -2.09,-2.22 -0.08,-0.074 -0.085,-0.199 -0.009,-0.28 0.074,-0.079 0.199,-0.083 0.28,-0.008 0.704,0.658 1.504,1.406 2.139,2.274 0.064,0.089 0.045,0.214 -0.043,0.279 -0.09,0.063 -0.213,0.044 -0.277,-0.045 m 3.996,4.622 c -1.267,-1.608 -2.667,-3.161 -3.991,-4.595 -0.079,-0.085 -0.073,-0.217 0.011,-0.296 0.087,-0.08 0.219,-0.074 0.298,0.011 1.329,1.442 2.737,3 4.013,4.622 0.072,0.09 0.056,0.222 -0.034,0.295 -0.093,0.071 -0.224,0.056 -0.297,-0.037 m 56.75,9.302 C 11.958,12.876 11.84,12.666 11.735,12.483 11.651,12.331 11.577,12.2 11.462,12.115 c -0.123,-0.092 -0.149,-0.267 -0.058,-0.39 0.092,-0.125 0.266,-0.152 0.391,-0.06 0.212,0.156 0.327,0.361 0.429,0.544 0.087,0.153 0.16,0.285 0.28,0.372 0.125,0.09 0.154,0.265 0.062,0.392 -0.09,0.124 -0.265,0.152 -0.39,0.061 M 3.19,19.904 C 2.785,19.126 2.429,18.314 2.085,17.529 1.705,16.659 1.311,15.762 0.855,14.922 0.773,14.773 0.828,14.588 0.977,14.508 1.125,14.427 1.31,14.481 1.391,14.63 c 0.469,0.863 0.867,1.773 1.253,2.653 0.34,0.777 0.69,1.578 1.087,2.339 0.078,0.149 0.02,0.334 -0.13,0.411 -0.15,0.077 -0.333,0.02 -0.411,-0.129 m -6.632,-2.825 v -0.01 c 0,-0.065 0.05,-0.12 0.116,-0.124 0.661,-0.048 1.084,-0.357 1.493,-0.658 0.405,-0.297 0.828,-0.598 1.454,-0.627 0.197,-0.269 0.48,-0.412 0.758,-0.544 0.245,-0.118 0.476,-0.229 0.65,-0.423 0.046,-0.051 0.125,-0.056 0.177,-0.011 0.051,0.047 0.056,0.126 0.01,0.177 -0.208,0.233 -0.472,0.359 -0.729,0.482 -0.278,0.133 -0.538,0.258 -0.695,0.503 l -0.037,0.056 -0.067,10e-4 c -0.584,0.008 -0.968,0.29 -1.373,0.587 -0.437,0.322 -0.89,0.655 -1.623,0.705 -0.069,0.006 -0.129,-0.046 -0.134,-0.114 m 17.281,-19.8 c -0.045,-0.234 -0.052,-0.468 -0.06,-0.693 -0.011,-0.319 -0.022,-0.619 -0.127,-0.899 -0.043,-0.107 0.014,-0.232 0.121,-0.272 0.11,-0.043 0.231,0.012 0.273,0.121 0.133,0.344 0.143,0.695 0.156,1.035 0.006,0.221 0.014,0.429 0.052,0.628 0.022,0.115 -0.054,0.227 -0.169,0.248 -0.114,0.021 -0.226,-0.052 -0.246,-0.168 M 13.077,-6.98 13.031,-7.148 c -0.019,-0.078 -0.049,-0.191 -0.074,-0.219 -0.084,-0.103 -0.072,-0.253 0.026,-0.34 0.101,-0.083 0.251,-0.076 0.337,0.024 0.097,0.112 0.138,0.266 0.175,0.415 l 0.04,0.144 c 0.036,0.129 -0.036,0.269 -0.165,0.302 -0.127,0.036 -0.258,-0.032 -0.293,-0.158 M 11.63,0.864 11.482,0.568 C 11.441,0.486 11.473,0.387 11.556,0.347 11.637,0.306 11.735,0.34 11.778,0.421 l 0.148,0.296 C 11.967,0.8 11.933,0.898 11.852,0.938 11.769,0.979 11.67,0.945 11.63,0.864 M 8.533,-0.261 7.932,-0.882 C 6.8,-2.051 5.63,-3.257 4.667,-4.571 4.606,-4.656 4.625,-4.775 4.709,-4.84 c 0.085,-0.059 0.205,-0.041 0.267,0.044 0.947,1.291 2.108,2.49 3.231,3.65 l 0.601,0.623 C 8.88,-0.45 8.878,-0.329 8.802,-0.255 8.727,-0.182 8.605,-0.186 8.533,-0.261 M 2.611,-6.934 c -0.843,-0.987 -1.643,-2.01 -2.415,-3.002 -0.79,-1.011 -1.606,-2.057 -2.469,-3.063 -0.066,-0.078 -0.057,-0.193 0.02,-0.259 0.076,-0.068 0.192,-0.056 0.259,0.019 0.869,1.013 1.687,2.063 2.481,3.079 0.77,0.987 1.565,2.007 2.404,2.989 0.065,0.077 0.056,0.192 -0.021,0.259 -0.078,0.065 -0.194,0.057 -0.259,-0.022 m -7.187,-8.792 c -0.793,-0.883 -1.526,-1.824 -2.235,-2.732 l -0.896,-1.138 c -0.089,-0.111 -0.07,-0.278 0.043,-0.367 0.113,-0.088 0.275,-0.069 0.365,0.044 l 0.899,1.143 c 0.703,0.902 1.431,1.833 2.212,2.701 0.095,0.107 0.086,0.272 -0.021,0.368 -0.106,0.095 -0.272,0.087 -0.367,-0.019 m 15.18,28.443 c -0.063,-0.124 -0.002,-0.247 0.122,-0.31 0.123,-0.062 0.287,0.015 0.351,0.137 l 0.142,0.277 c -0.063,-0.124 -0.202,-0.151 -0.326,-0.089 -0.123,0.065 -0.16,0.236 -0.097,0.359 z M 9.203,10.075 8.524,9.603 C 8.256,9.429 7.979,9.247 7.719,9.035 7.595,8.936 7.578,8.754 7.676,8.632 7.777,8.508 7.958,8.488 8.082,8.589 8.318,8.782 8.572,8.947 8.838,9.122 l 0.719,0.5 c 0.131,0.09 0.15,0.26 0.058,0.39 -0.09,0.13 -0.282,0.153 -0.412,0.063 M 7.53,14.505 C 5.708,13.549 3.968,12.696 2.214,11.896 2.101,11.845 2.052,11.713 2.103,11.601 2.154,11.488 2.286,11.439 2.399,11.49 c 1.761,0.803 3.508,1.659 5.339,2.619 0.109,0.057 0.15,0.193 0.094,0.302 -0.057,0.11 -0.193,0.151 -0.302,0.094 m 15.019,15.204 c -0.114,-0.017 -0.195,-0.123 -0.177,-0.238 0.512,-3.494 -2.523,-6.129 -4.963,-8.247 -0.086,-0.077 -0.096,-0.208 -0.019,-0.296 0.076,-0.089 0.21,-0.098 0.297,-0.023 2.383,2.071 5.647,4.905 5.103,8.627 -0.019,0.114 -0.126,0.195 -0.241,0.177 M 17.01,20.921 C 14.922,18.927 12.361,17.369 9.883,15.862 l -0.71,-0.43 C 9.074,15.371 9.042,15.24 9.104,15.143 c 0.06,-0.1 0.189,-0.131 0.288,-0.072 l 0.71,0.432 c 2.496,1.519 5.078,3.089 7.196,5.114 0.085,0.08 0.089,0.213 0.008,0.297 -0.08,0.084 -0.214,0.087 -0.296,0.007 M 0.89,14.716 0.647,14.419 c 0.099,0.121 0.268,0.128 0.388,0.028 0.121,-0.098 0.129,-0.288 0.03,-0.41 l 0.29,0.355 c 0.099,0.121 0.067,0.281 -0.054,0.381 -0.12,0.099 -0.312,0.064 -0.411,-0.057 m 0.089,-0.088 c -0.041,-0.08 -0.01,-0.179 0.07,-0.219 0.427,-0.218 0.753,-0.439 0.968,-0.822 0.044,-0.078 0.142,-0.107 0.22,-0.063 0.079,0.044 0.106,0.143 0.063,0.22 -0.269,0.482 -0.691,0.743 -1.103,0.954 -0.081,0.04 -0.178,0.009 -0.218,-0.07 m -0.23,0.147 v -0.221 c 0,-0.205 0.168,-0.372 0.374,-0.372 0.204,0 0.372,0.167 0.372,0.372 v 0.221 c 0,0.207 -0.168,0.373 -0.372,0.373 -0.206,0 -0.374,-0.166 -0.374,-0.373 m 12.055,11.168 c -0.597,-0.861 -1.384,-1.631 -2.276,-2.227 -0.116,-0.077 -0.146,-0.234 -0.07,-0.35 0.077,-0.114 0.234,-0.145 0.349,-0.068 0.944,0.632 1.776,1.446 2.409,2.36 0.079,0.113 0.052,0.27 -0.061,0.349 -0.115,0.079 -0.272,0.051 -0.351,-0.064 m -46.916,-52.307 -0.429,-0.977 c -0.282,-0.651 -0.574,-1.327 -0.9,-1.976 -0.044,-0.089 -0.009,-0.195 0.079,-0.239 0.088,-0.043 0.195,-0.008 0.238,0.079 0.331,0.658 0.625,1.337 0.909,1.997 l 0.427,0.97 c 0.038,0.09 0,0.197 -0.09,0.234 -0.091,0.042 -0.195,0 -0.234,-0.088 m 22.651,2.412 c -0.846,-1.109 -1.826,-2.177 -2.772,-3.211 -0.755,-0.825 -1.534,-1.677 -2.256,-2.557 -0.068,-0.081 -0.055,-0.202 0.027,-0.269 0.082,-0.069 0.203,-0.057 0.27,0.026 0.716,0.87 1.491,1.718 2.242,2.539 0.953,1.04 1.938,2.118 2.794,3.238 0.065,0.083 0.049,0.204 -0.035,0.268 -0.085,0.066 -0.206,0.049 -0.27,-0.034 m -7.596,-8.473 c -0.651,-0.565 -1.185,-1.118 -1.633,-1.694 -0.09,-0.115 -0.069,-0.281 0.046,-0.368 0.114,-0.089 0.278,-0.07 0.368,0.046 0.427,0.546 0.938,1.078 1.562,1.62 0.11,0.093 0.122,0.259 0.026,0.37 -0.095,0.109 -0.26,0.12 -0.369,0.026 m -6.669,-6.659 c -0.566,-0.125 -0.928,-0.499 -1.278,-0.861 -0.289,-0.3 -0.564,-0.583 -0.952,-0.744 -0.097,-0.041 -0.143,-0.153 -0.103,-0.249 0.04,-0.096 0.152,-0.146 0.25,-0.104 0.459,0.192 0.775,0.518 1.08,0.831 0.325,0.338 0.631,0.654 1.086,0.755 0.102,0.022 0.167,0.124 0.145,0.227 -0.023,0.105 -0.125,0.167 -0.228,0.145 m -3.19,-2.239 c -0.57,-0.301 -1.06,-0.722 -1.533,-1.131 l -0.343,-0.293 c -0.064,-0.055 -0.072,-0.151 -0.018,-0.215 0.055,-0.064 0.149,-0.072 0.213,-0.017 l 0.347,0.296 c 0.48,0.413 0.936,0.806 1.477,1.091 0.074,0.04 0.102,0.133 0.064,0.206 -0.041,0.073 -0.133,0.102 -0.207,0.063 m -27.509,4.716 c -0.572,-1.785 -1.387,-3.668 -2.358,-5.453 -0.035,-0.064 -0.012,-0.145 0.054,-0.183 0.066,-0.036 0.147,-0.011 0.184,0.055 0.979,1.797 1.801,3.699 2.378,5.5 0.022,0.07 -0.017,0.145 -0.087,0.167 -0.072,0.023 -0.149,-0.014 -0.171,-0.086 M 3.852,10.138 C 3.811,9.994 3.874,9.872 3.925,9.775 3.992,9.649 4.017,9.591 3.943,9.506 3.912,9.47 3.915,9.415 3.95,9.384 3.987,9.353 4.042,9.355 4.073,9.391 4.23,9.568 4.144,9.734 4.081,9.855 4.035,9.941 3.996,10.014 4.017,10.091 4.031,10.138 4.003,10.186 3.957,10.198 3.912,10.21 3.864,10.184 3.852,10.138 m 17.619,-40.497 c -0.018,0.664 0.555,1.685 0.888,2.516 0.668,1.673 1.384,3.5 0.445,5.475 -1.208,2.53 -4.712,3.064 -6.513,1.184 -1.67,-1.745 -1.254,-5.336 0,-6.956 0.834,-1.078 2.354,-1.671 3.255,-2.812 -0.335,-1.77 0.594,-4.171 2.369,-3.847 1.54,1.375 -0.411,3.153 -0.444,4.44 M -2.207,16.404 c -0.604,-0.111 -0.509,0.477 -1.185,0.295 -0.004,-0.41 1.055,-0.511 1.185,-0.295 M -32.84,58.58 c -0.063,0.283 -0.055,0.638 -0.444,0.592 -0.027,-0.37 0.331,-0.359 0.444,-0.592 M 14.219,-2.983 c 0.795,0.804 1.176,2.799 -0.888,2.516 -0.083,-0.213 -0.231,-0.36 -0.444,-0.443 -0.203,-1.143 0.398,-1.477 0.888,-1.924 l 0.271,0.073 z m -0.74,-4.29 c 0.777,0.574 1.755,2.113 0.592,2.959 l -0.222,-0.074 -0.074,0.223 c -1.029,-0.495 -1.17,-1.724 -0.74,-2.961 l 0.271,0.074 z m -1.923,7.99 c -1.624,0.251 -1.437,-2.122 0,-1.924 0.62,0.129 0.839,1.355 0.296,1.775 L 11.63,0.494 Z M 8.744,-0.614 c 0.945,0.321 1.661,2.168 2.812,1.331 l 0.222,0.074 0.074,-0.223 c 0.793,-0.023 1.11,0.454 1.183,0.889 0.142,0.844 -0.97,1.266 -0.739,1.774 1.276,1.134 2.079,2.58 3.108,3.849 1.753,2.167 3.523,4.18 5.178,6.364 1.413,1.863 2.884,3.704 4.145,5.476 0.865,1.217 1.827,2.129 2.367,3.403 0.472,0.022 0.439,0.546 0.888,0.592 0.113,0.725 0.583,1.094 0.74,1.775 0.459,0.232 0.725,0.658 1.183,0.888 0.063,0.678 0.531,0.951 0.592,1.629 0.966,0.514 1.543,1.417 1.925,2.517 1.922,1.642 2.863,4.347 4.29,6.214 0.672,0.877 1.227,1.811 1.777,2.664 0.978,1.521 1.9,3.102 2.811,4.588 0.31,0.506 0.709,0.977 1.037,1.479 2.031,3.125 3.818,6.23 5.77,9.324 1.265,2.002 2.696,3.97 3.849,6.068 1.179,2.146 2.273,4.383 3.551,6.511 1.887,3.139 3.586,6.625 5.179,9.766 0.823,1.621 2.108,3.406 2.369,5.181 0.386,2.627 -0.926,3.804 -1.332,5.327 -0.052,0.19 -0.237,0.041 -0.297,0.147 -0.34,0.621 -0.442,1.375 -0.74,1.777 -0.06,0.081 -0.367,0.06 -0.443,0.147 -2.42,2.765 -7.247,1.581 -10.064,0.297 -2.073,-0.946 -3.813,-2.416 -5.475,-2.665 -1.678,-0.251 -3.227,0.161 -4.588,-0.148 -1.267,-0.286 -3.002,-1.345 -3.552,-2.367 -0.564,-1.052 -0.402,-2.21 -0.148,-3.552 0.751,-0.423 1.128,-1.043 1.925,-1.184 1.771,-0.314 2.815,0.501 3.7,1.036 1.52,0.922 2.42,2.033 3.551,3.107 0.788,0.748 1.472,1.129 2.515,1.777 2.313,1.435 5.069,3.42 8.731,2.812 1.752,-1.482 0.36,-3.885 -0.146,-6.364 -0.272,-1.325 -0.427,-2.134 -0.74,-2.959 -0.803,-2.111 -1.887,-4.119 -2.517,-6.216 -0.122,-0.408 -0.379,-0.739 -0.443,-1.036 -0.354,-1.626 0.127,-3.205 -0.148,-4.883 -0.081,-0.489 -0.446,-1.26 -0.74,-1.924 C 51.85,64.074 51.496,63.43 51.215,62.872 48.779,58.035 46.126,53.484 43.52,49.109 41.833,46.275 40.216,43.326 38.489,40.674 38.131,40.125 37.786,39.46 37.157,39.194 35.743,35.133 32.484,32.917 30.941,28.983 30.053,28.294 29.401,27.366 29.019,26.171 28.197,25.709 27.686,24.938 27.39,23.951 26.205,22.768 25.183,21.423 24.43,19.808 22.625,17.883 21.155,15.689 19.546,13.593 17.956,11.519 16.118,9.559 14.812,7.229 14.189,6.682 13.179,5.992 12.738,5.453 12.377,5.007 12.351,4.429 12,3.972 10.847,2.475 8.893,1.682 8.448,-0.317 L 8.67,-0.394 Z m -5.92,-6.659 c 1.593,0.034 2.154,1.102 2.221,2.664 L 4.822,-4.683 4.601,-4.609 C 3.107,-4.646 2.343,-5.411 2.527,-7.126 l 0.223,0.074 z m -7.104,-8.879 c 1.169,0.607 2.269,1.282 2.369,2.958 l -0.222,0.074 -0.074,0.223 c -1.183,-0.544 -2.142,-1.313 -2.369,-2.812 l 0.194,-0.192 z m 15.391,28.856 c 0.51,0.081 0.36,0.823 1.037,0.74 v -0.443 l 0.192,-0.193 0.102,-0.251 c 0.616,0.891 1.897,2.437 1.185,3.7 -0.776,0.034 -1.086,-0.641 -1.479,-1.037 -0.405,-0.407 -0.816,-0.878 -1.184,-1.333 -0.321,0.025 -0.068,-0.524 -0.149,-0.74 l 0.193,-0.192 z M 9.483,9.597 c 0.929,0.601 1.823,1.236 2.369,2.219 l -0.222,0.075 -0.222,0.073 h -0.444 c -0.06,0.357 0.269,0.321 0.147,0.74 L 10.84,12.631 10.667,12.854 C 9.835,12.255 9.196,11.464 9.187,10.04 L 9.38,9.848 Z m 7.844,10.95 c 0.166,0.031 0.231,0.164 0.296,0.296 l -0.074,0.221 0.074,0.223 c -0.519,0.467 -0.723,0.122 -0.74,-0.593 l 0.271,0.075 z M 7.56,14.035 c 0.948,0.038 1.465,0.51 1.923,1.036 l -0.201,0.18 0.053,0.266 C 8.47,15.396 7.858,15.02 7.412,14.479 l 0.222,-0.172 z m -42.916,-43.209 c -1.801,-0.368 -3.438,-3.582 -1.48,-5.033 2.148,0.183 3.296,3.028 1.775,4.736 l -0.221,0.075 z m 14.798,-4.885 c -1.071,-0.771 -2.246,-1.891 -3.108,-2.664 -0.843,-0.755 -1.993,-1.149 -2.218,-2.367 l 0.2,-0.18 -0.053,-0.263 c 0.448,0.142 0.793,0.39 1.332,0.443 0.72,0.714 1.226,1.625 1.925,2.367 0.673,0.718 1.764,1.155 2.07,2.219 l -0.073,0.223 z m 4.144,4.44 c -0.61,-0.229 -0.878,-0.799 -1.628,-0.888 -0.044,-0.942 -0.766,-1.208 -1.035,-1.924 l 0.192,-0.192 0.103,-0.252 c 1.114,0.762 2.124,1.626 2.664,2.959 l -0.222,0.075 z m -10.211,16.425 c 0.907,1.856 2.26,3.266 3.256,5.034 h 1.036 c 2.389,-1.519 -1.724,-6.973 -4.292,-5.034 m -7.844,16.281 c 0.539,1.396 1.897,2.069 2.96,2.958 1.059,0.886 2.131,1.841 3.109,2.811 1.164,-0.07 3.004,-1.753 2.367,-3.254 -0.41,-0.669 -1.353,-0.637 -2.072,-0.889 -0.695,-0.244 -1.374,-0.519 -2.071,-0.741 -1.423,-0.453 -2.992,-1.34 -4.293,-0.885 m 21.015,15.24 c 0.749,-1.899 -1.669,-3.13 -2.96,-3.995 -1.061,-0.711 -2.202,-1.523 -2.663,-1.775 -0.361,-0.199 -2.004,-0.462 -2.073,0.444 0.143,0.728 0.945,1.106 1.481,1.478 1.72,1.197 3.813,2.387 5.474,3.848 z m 10.951,6.956 c -0.065,-1.464 -0.24,-2.819 -1.332,-3.256 -1.21,0.559 -3.052,0.375 -2.812,1.776 0.203,1.187 2.794,1.062 4.144,1.48 M -20.41,16.995 c 0.278,1.142 1.036,2.224 1.776,3.404 1.124,1.792 2.794,3.723 3.995,5.624 1.493,0.204 3.01,-1.445 2.369,-2.96 -0.582,-1.375 -2.213,-2.084 -3.848,-3.255 -1.665,-1.195 -3.049,-2.834 -4.292,-2.813 M 1.345,28.835 C 1.083,28.209 0.24,28.164 -0.136,27.649 c -0.581,0.789 0.832,1.628 1.481,1.186 m 13.762,2.516 c -0.128,-0.875 -0.967,-1.175 -1.48,-1.776 -1.165,-1.366 -2.017,-3.096 -3.552,-4.144 -1.41,1.006 -0.865,2.759 0,3.552 0.887,0.811 2.604,2.407 3.256,2.959 0.811,0.022 1.13,-0.449 1.776,-0.591 M -7.832,26.467 h -1.479 c -0.977,0.601 -1.148,2.009 -1.036,3.701 0.516,1.011 1.361,1.697 2.22,2.367 1.648,0.212 3.807,0.428 4.143,-0.74 0.505,-1.749 -3.363,-4.285 -3.848,-5.328 M 11.26,35.05 C 13.592,33.018 9.848,31.17 9.041,29.724 8.223,29.563 7.777,29.588 7.264,29.131 6.624,28.56 6.555,27.251 6.08,26.615 5.373,25.667 3.527,24.697 2.379,23.951 1.066,23.095 -0.224,22.039 -1.763,21.73 c 0.469,1.456 0.947,2.901 1.035,4.737 1.063,0.442 1.715,1.658 3.107,1.331 1.587,0.95 1.763,2.817 3.108,3.997 1.537,1.347 3.689,1.88 5.328,3.255 z m -24.714,-3.551 c -2.246,-0.956 -4.001,2.128 -3.552,4.439 0.231,1.189 1.317,1.418 1.628,2.368 0.688,0.048 0.824,-0.459 1.332,-0.592 0.608,-1.603 0.995,-4.081 0.592,-6.215 m -12.43,-2.368 c -7.037,-0.05 -17.367,-0.989 -24.566,0.296 -0.97,0.173 -2.269,0.356 -2.812,0.741 -0.718,0.507 -1.542,2.327 -1.332,3.255 0.213,0.943 2.519,1.819 3.995,2.515 7.286,3.437 14.637,6.89 21.754,10.211 1.499,0.701 3.019,1.275 4.44,1.924 1.486,0.678 2.836,1.54 4.291,2.073 0.694,0.253 3.217,0.222 3.848,0 1.193,-0.426 1.016,-1.673 1.332,-2.961 0.367,-1.496 1.41,-2.642 1.036,-4.439 -0.221,-1.059 -1.262,-1.84 -2.071,-2.811 -0.587,-0.704 -1.591,-2.251 -2.369,-2.517 -1.669,-0.57 -3.718,0.512 -5.475,-0.296 -1.166,-0.535 -1.826,-1.82 -1.924,-2.811 -0.162,-1.642 1.219,-3.53 -0.147,-5.18 m 15.537,4.439 c -1.382,0.966 -0.275,3.03 -0.444,4.884 -0.141,1.558 -0.913,2.578 -0.591,3.996 0.395,1.744 3.029,3.975 4.439,5.476 0.578,0.614 1.35,1.347 2.073,2.071 0.721,0.723 1.634,1.894 2.071,2.071 0.86,0.351 2.338,0.052 2.663,-0.148 1.431,-0.87 1.31,-5.523 1.629,-7.842 C 1.636,43.039 2.034,41.956 1.937,40.97 1.822,39.82 0.802,38.614 0.309,37.714 -0.178,36.827 -0.71,35.056 -1.615,34.902 c -1.524,-0.257 -2.317,2.175 -3.995,2.22 -0.792,0.022 -1.913,-0.598 -2.369,-1.035 -0.783,-0.753 -0.933,-2.175 -2.368,-2.517 m -1.035,12.728 c -0.574,0.413 -1.358,0.615 -1.332,1.628 -0.606,0.979 -1.844,1.32 -1.925,2.516 -0.063,0.932 1.052,2.501 1.925,3.255 0.61,0.529 1.628,1.01 2.515,1.331 1.885,0.684 5.098,1.14 4.589,-1.923 -0.186,-1.114 -2.128,-2.679 -2.814,-3.552 -1.071,-1.366 -1.332,-2.605 -2.958,-3.255 M -0.728,30.02 c -0.856,1.217 0.312,2.397 0.592,2.811 1.058,1.557 2.475,3.272 3.7,5.179 0.592,0.922 0.996,1.997 1.628,2.96 0.588,0.896 1.291,1.778 1.924,2.664 1.075,1.506 2.125,3.424 3.551,5.623 1.083,1.669 3.191,4.084 3.256,5.919 0.111,3.075 -3.774,3.261 -4.292,5.92 -0.146,0.753 0.077,1.788 0.444,2.812 0.515,1.441 1.069,2.313 2.221,2.96 2.254,0.09 3.966,-0.501 5.919,-1.333 1.853,-0.787 3.404,-1.492 3.848,-3.255 0.288,-1.142 0.226,-2.78 0.296,-4.292 0.117,-2.509 -0.238,-4.424 -0.592,-6.364 C 21.273,48.929 20.637,46.839 19.25,44.965 17.409,42.476 14.795,39.971 12.296,37.861 11.987,37.604 11.641,37.453 11.26,37.122 9.793,35.852 7.206,34.398 5.339,33.275 4.324,32.663 3.358,32.133 2.379,31.499 1.419,30.876 0.367,30.116 -0.728,30.02 M 13.139,-7.524 13.035,-7.273 C 12.682,-7.907 11.637,-7.847 11.111,-8.31 10.662,-9.637 9.883,-10.634 9.631,-12.157 9.034,-12.61 8.78,-13.043 8.152,-13.49 c -0.923,-0.657 -2.094,-0.87 -2.96,-1.479 -0.56,-0.392 -0.881,-1.074 -1.48,-1.48 -0.55,-0.37 -1.412,-0.615 -2.219,-1.034 -1.958,-1.022 -3.951,-2.707 -6.659,-2.666 -0.972,-0.67 -2.464,-1.564 -3.552,-1.626 0.254,0.929 1.329,1.035 1.479,2.069 l -0.264,-0.053 -0.18,0.202 c -1.135,-0.738 -1.724,-2.025 -2.664,-2.96 -1.459,-0.117 -2.628,-0.529 -4.144,-0.59 -1.004,1.181 -3.294,0.692 -4.438,0 -0.397,1.838 0.758,3.375 1.923,4.143 1.056,2.306 0.732,5.549 2.072,7.547 1.12,1.665 2.7,2.292 4.587,3.551 1.061,1.411 0.838,2.704 1.185,4.292 0.25,1.151 0.908,2.239 1.479,3.107 1.44,2.189 2.806,4.101 5.032,5.031 0.351,0.147 0.765,0.004 1.183,0.149 0.098,0.033 0.197,0.385 0.296,0.444 0.558,0.329 1.434,0.425 1.925,0.592 0.858,0.292 1.693,0.694 2.367,0.889 0.351,0.098 0.71,-0.067 1.036,0 1.576,0.323 2.657,1.29 3.996,2.071 L 7.9,8.813 7.708,9.006 C 6.226,8.699 4.985,7.4 3.564,7.524 3.793,9.431 3.078,10.393 2.527,11.521 l -0.221,0.172 0.073,0.271 c -0.985,0 -1.461,0.511 -1.775,1.183 0.311,0.136 0.452,0.437 0.445,0.888 l -0.193,0.194 -0.103,0.25 C 0.34,14.349 0.262,13.885 0.161,13.444 c -2.646,0.265 -3.949,1.873 -4.441,4.29 0.478,1.438 1.172,2.073 2.517,2.517 1.679,0.556 3.314,1.376 4.587,2.22 0.694,0.461 1.17,1.192 1.925,1.183 C 4.269,22.406 3.536,21.413 3.268,19.956 L 3.46,19.764 3.564,19.512 c 0.521,0.218 0.897,0.584 1.332,0.887 -0.741,1.218 0.142,2.599 1.035,3.404 C 6.754,22.998 7.376,21.992 8.893,21.879 8.424,20.818 7.759,19.952 7.116,19.067 6.293,18.541 4.761,17.894 4.896,16.848 4.983,16.167 5.677,16.098 6.08,15.812 6.301,15.655 6.049,15.337 6.523,15.368 c 0.308,0.68 0.859,1.116 1.333,1.627 -0.088,0.631 0.106,0.98 0.148,1.481 0.822,0.657 1.01,1.949 1.627,2.811 0.03,0.452 0.97,-0.481 0.889,0.295 0.569,0.424 -0.898,0.551 -0.297,1.037 -0.007,0.549 0.725,0.36 0.741,0.888 h -0.297 v 0.296 c -0.488,0.086 -0.211,0.558 -0.147,0.887 0.955,0.279 1.168,1.299 2.218,1.481 v -0.444 l 0.272,0.074 0.173,-0.223 c 0.93,1.093 1.504,2.544 2.073,3.997 2.096,2.378 5.036,5.25 7.251,7.695 1.505,1.664 2.947,3.422 4.735,4.587 0.805,0.526 1.854,0.802 2.515,1.481 0.733,0.75 0.639,1.587 0.889,2.663 0.429,1.861 1.454,3.471 2.663,4.292 2.108,1.43 4.771,2.294 6.513,4.144 1.642,1.745 2.674,4.892 0.59,7.546 -3.483,2.382 -6.779,-0.653 -8.138,-2.959 -0.691,-1.17 -1.086,-2.667 -2.073,-3.404 -0.945,-0.705 -2.498,-0.744 -3.256,0 -1.394,1.371 -1.196,4.514 -1.775,7.104 -0.183,0.816 -0.567,1.579 -0.74,2.368 -0.394,1.809 -0.522,3.691 -1.184,4.883 -0.584,1.052 -2.033,2.399 -3.552,2.812 -2.537,0.691 -5.068,-0.284 -6.807,-0.593 C 11.178,71.893 9.511,71.942 7.856,71.455 6.987,71.199 5.373,70.325 4.896,69.975 4.771,69.884 4.592,69.78 4.453,69.679 2.506,68.274 1.154,66.418 -0.728,65.092 -2.429,63.893 -4.04,64.187 -6.499,63.168 c -4.189,-1.879 -5.811,-6.723 -12.135,-6.215 -0.628,1.752 -1.847,3.324 -2.812,5.03 -0.93,1.648 -1.065,4.201 -3.256,4.736 -1.536,-1.638 0.051,-3.124 1.036,-4.736 0.598,-0.975 1,-2.108 1.48,-2.959 0.707,-1.248 2.046,-2.04 2.221,-3.255 -0.391,-1.578 -1.412,-2.854 -2.515,-3.552 -1.805,-1.14 -4.25,-2.234 -6.216,-3.108 -0.932,-0.414 -1.842,-1.127 -2.813,-1.628 -6.1,-3.151 -12.545,-6.076 -18.645,-8.879 -3.221,-1.479 -6.252,-2.986 -9.028,-4.736 -3.134,-4.632 2.762,-5.914 6.807,-6.511 2.429,-0.359 5.667,-0.427 7.695,-0.592 1.664,-0.136 4.058,0.348 5.919,0.296 1.508,-0.043 1.936,-0.163 2.813,0 1.946,0.36 4.886,0.277 6.955,0.296 0.769,0.006 1.626,0.439 1.924,-0.296 -0.874,-1.84 -2.344,-3.082 -3.7,-4.44 -0.336,-0.107 -0.756,-0.132 -1.036,-0.296 -0.155,-1.526 -0.872,-2.222 -1.627,-3.107 -0.921,-1.079 -1.602,-1.195 -2.368,-2.072 -0.472,-0.542 -0.838,-1.422 -1.332,-2.073 -3.235,-4.251 -7.182,-8.524 -10.655,-12.874 -1.857,-2.326 -4.015,-4.65 -6.215,-7.399 -1.819,-2.272 -4.597,-5.728 -6.956,-6.659 -1.02,-0.404 -2.157,-0.319 -3.107,-0.74 -1.345,-0.596 -2.148,-1.747 -2.812,-2.961 -0.31,-0.562 -0.792,-1.238 -0.592,-1.921 0.462,-0.587 1.458,-0.136 2.219,-0.152 1.051,0.399 2.146,1.114 2.812,1.63 0.478,0.37 0.953,0.653 1.333,1.036 3.742,3.784 7.429,7.669 10.803,11.542 l -0.222,0.172 0.074,0.272 c 0.076,0.568 1.16,1.402 1.627,2.073 l -0.074,0.222 0.222,-0.074 c 1.446,1.23 2.488,3.558 3.995,4.439 -0.021,-0.013 0.018,-0.128 0,-0.149 l 0.272,0.074 0.173,-0.221 c 2.866,3.394 5.603,7.859 9.174,11.987 2.457,2.838 4.96,5.766 7.4,8.435 0.912,0.997 1.511,2.211 2.368,2.96 1.003,0.877 4.515,0.702 6.659,0.592 1.188,-0.061 2.706,-0.014 3.108,-1.036 -2.016,-2.592 -3.874,-5.327 -5.328,-8.288 -0.483,-0.985 -0.873,-2.291 -1.479,-3.107 -0.178,-0.239 -0.648,-0.4 -1.036,-0.74 -0.316,-0.276 -0.585,-0.797 -0.888,-1.037 -0.367,-0.288 -0.812,-0.453 -1.184,-0.739 -3.334,-2.57 -6.507,-4.715 -9.472,-7.547 -1.353,-1.294 -2.547,-2.876 -3.995,-3.551 -1.872,-0.876 -4.485,-0.612 -5.031,-3.257 2.506,-2.414 4.634,1.407 6.807,2.368 1.314,0.581 3.339,0.97 4.44,1.333 2.473,0.811 5.036,1.88 7.251,2.515 0.714,-0.856 1.508,-1.981 1.924,-3.108 0.999,-2.704 0.174,-4.998 -1.037,-7.103 -1.204,-2.098 -2.09,-3.968 -3.255,-5.919 -0.785,-1.314 -1.414,-2.949 -2.071,-3.848 -2.188,-2.988 -4.94,-5.648 -4.292,-10.803 l 0.222,0.074 0.074,-0.221 c 1.919,-0.661 3.345,-1.675 5.326,-1.628 3.707,0.087 5.703,3.378 9.621,3.847 1.361,-1.064 3.795,-0.809 4.586,0.592 1.084,-0.161 1.969,0.549 2.813,0.147 v -0.296 l 0.221,-0.073 0.074,-0.222 c 0.343,0.346 0.701,0.68 1.036,1.035 1.789,0.629 3.982,0.854 5.919,1.333 1.123,1.168 2.551,1.738 3.996,2.367 0.566,0.247 1.123,0.348 1.629,0.593 1.172,0.565 2.297,1.72 3.551,2.219 0.42,0.168 0.836,0.091 1.184,0.296 1.363,0.81 2.265,2.799 3.699,3.404 -0.467,-1.106 0.206,-1.77 0.888,-1.776 1.645,-0.014 1.104,2.52 -0.295,2.22 0.089,0.009 0.176,0.023 0.148,0.147 0.074,0.036 0.229,-0.045 0.295,0 1.402,0.952 2.331,2.611 2.516,4.737 z m -37.693,-69.155 c -0.125,0.127 -0.421,-0.107 -0.444,-0.147 -0.139,-0.26 0.547,0.046 0.444,0.147 m -2.959,5.179 c 0.541,-0.466 0.821,0.276 1.036,0.593 -0.458,0.384 -0.794,-0.302 -1.036,-0.593 m -0.148,1.63 c 0.455,-0.105 0.285,-0.105 0.74,0 0.105,0.597 -0.142,0.844 -0.74,0.74 z m -8.879,0.593 c 1.337,-0.008 1.307,2.676 -0.296,2.071 -1.091,-0.414 -0.854,-2.069 0.296,-2.071 m -13.318,6.659 c -0.088,-0.655 0.798,-0.512 0.591,0.147 -0.279,0.032 -0.327,-0.169 -0.591,-0.147 m -7.103,1.181 c 0.188,-0.007 0.204,-0.188 0.442,-0.147 0.231,0.364 -0.502,0.435 -0.442,0.147 m 33.444,0.741 h 0.296 v 0.296 h -0.296 z m 15.538,1.48 c 0.077,-0.22 0.22,-0.372 0.296,-0.592 0.902,-0.162 1.184,0.297 1.332,0.888 -0.312,0.568 -1.669,0.663 -1.628,-0.296 m -30.485,1.48 h 0.444 v 0.297 h -0.444 z m 15.391,1.628 c 0.041,0.202 -0.092,0.579 -0.148,0.295 -0.04,-0.201 0.092,-0.577 0.148,-0.295 m -23.381,-0.591 c 0.811,-1.05 2.851,-0.593 2.367,1.331 -0.749,1.274 -2.864,0.69 -2.367,-1.331 m 35.811,0 c 1.928,-0.378 1.8,3.026 -0.148,2.218 -1.043,-0.432 -0.918,-2.011 0.148,-2.218 m 5.329,2.514 c -0.096,1.745 -3.221,1.815 -2.813,-0.443 0.135,-0.748 0.743,-1.186 2.072,-1.035 0.458,0.669 0.774,0.853 0.741,1.478 m -36.85,2.219 c 0.571,-0.115 0.571,0.71 0,0.593 z m -34.628,4.441 c -0.006,-0.203 0.069,-0.326 0.148,-0.445 0.37,-0.024 0.462,0.227 0.591,0.445 -0.194,0.19 -0.545,0.19 -0.739,0 m 87.164,-0.89 c 0.306,-1.398 3.234,-1.204 2.515,0.89 -0.222,0.647 -1.099,0.896 -1.776,0.592 -0.858,-0.387 -0.863,-0.92 -0.739,-1.482 m -49.724,2.37 c -0.304,1.821 -3.425,1.008 -2.368,-1.333 1.221,-0.988 2.565,0.156 2.368,1.333 m -13.17,0.739 c 0.762,-1.06 2.004,0.059 2.368,0.741 -0.654,0.104 -2.45,1.104 -2.368,-0.741 m 74.141,2.072 c 0.604,2.686 -3.219,1.893 -2.221,-0.148 -0.545,-0.196 -1.091,-0.387 -1.183,-1.036 0.013,-0.761 0.989,-0.891 1.627,-0.591 0.275,0.324 -0.007,1.103 0.148,1.184 0.927,-0.185 1.123,0.356 1.629,0.591 m -52.313,0.37 0.073,0.222 c -1.091,-0.091 -1.909,-0.458 -2.071,-1.479 0.328,-0.165 0.4,-0.586 0.74,-0.74 0.702,-0.061 0.723,0.558 1.331,0.59 0.007,0.49 0.251,0.739 0.148,1.333 z m -23.012,-17.092 c -1.167,-0.083 -2.013,-1.778 -3.404,-2.071 -1.088,-0.231 -2.279,0.528 -3.551,0.443 -1.127,-0.075 -1.872,-1.11 -2.812,-1.184 -1.481,1.103 -2.808,-0.153 -4.144,-0.443 -1.923,-0.42 -5.85,-0.279 -7.843,-0.147 -2.909,0.192 -6.591,-0.854 -7.696,1.183 1.091,1.618 2.823,2.899 4.588,4.29 1.599,1.263 3.134,2.699 4.735,4.144 1.787,1.612 3.753,3.21 5.328,4.588 0.611,0.534 1.327,1.057 1.924,1.48 2.109,1.489 6.32,2.903 4.735,6.362 -0.254,-0.006 -0.379,0.116 -0.444,0.297 -3.353,-0.151 -3.088,-2.601 -4.291,-4.586 -0.873,-1.44 -2.777,-2.967 -4.292,-4.294 -1.608,-1.408 -3.307,-2.824 -4.735,-3.995 -1.522,-1.244 -3.029,-2.705 -4.588,-3.996 -1.649,-1.361 -3.538,-2.553 -4.735,-3.995 -0.886,-1.067 -1.806,-2.255 -1.777,-3.995 1.503,-1.862 4.986,0.275 7.104,-0.591 0.208,0.187 0.008,0.779 0.592,0.591 2.651,0.819 5.445,1.431 8.584,1.774 1.098,0.122 2.433,0.259 3.404,0.15 0.647,-0.072 1.153,-0.476 1.774,-0.445 0.608,0.031 1.241,0.694 1.924,0.741 0.988,0.066 2.178,-0.621 3.256,-0.446 1.39,0.229 2.408,1.609 4.143,1.483 1.19,-0.089 2.132,-0.993 3.257,-0.593 0.628,0.223 0.956,0.855 1.332,1.627 -0.429,0.904 -1.063,1.722 -2.368,1.628 m 20.57,18.942 h 0.296 v 0.296 h -0.296 z m 9.175,-0.443 c -0.131,1.425 -2.983,1.625 -2.368,-0.888 0.99,-0.991 2.463,-0.153 2.368,0.888 m -54.755,2.811 h 0.74 c 0.025,0.372 -0.227,0.462 -0.444,0.59 -0.002,-0.292 -0.403,-0.186 -0.296,-0.59 m 74.288,0.59 h 0.296 v 0.297 h -0.296 z m 27.97,-0.441 c -0.517,1.596 -2.747,0.829 -2.96,-0.593 -0.139,-0.931 0.209,-0.985 0.444,-1.776 1.865,-0.403 2.967,0.977 2.516,2.369 m -2.071,1.182 c 0.192,0.198 0.194,0.551 -0.148,0.592 0.024,-0.22 -0.053,-0.547 0.148,-0.592 m -60.823,-0.887 c 0.271,-1.422 2.373,-1.137 2.368,0.296 -0.003,0.978 -0.91,1.357 -1.628,1.035 -0.529,-0.236 -0.831,-0.85 -0.74,-1.331 m 20.423,1.479 h 0.295 c 0.166,0.214 0.16,0.362 -0.148,0.445 -0.008,-0.19 -0.189,-0.204 -0.147,-0.445 m 34.185,0 c 0.47,-0.585 1.277,-0.459 1.627,0.148 0.157,0.649 -0.501,0.487 -0.445,1.036 -0.906,0.119 -1.158,-0.421 -1.182,-1.184 m -73.846,-5.178 c -0.994,-0.688 -2.443,-1.364 -2.515,-2.814 -0.03,-0.593 0.428,-1.246 0.592,-1.922 1.748,0.063 3.836,1.301 3.403,3.107 -0.135,0.566 -0.687,0.872 -1.332,1.185 v 0.148 l -0.222,0.073 z m 2.294,5.253 0.074,-0.223 c 0.208,0.723 0.69,1.303 0.443,2.072 -0.878,0.684 -1.593,0.229 -1.478,-0.74 0.07,-0.602 0.664,-0.423 0.738,-1.036 v -0.148 z m -2.59,0.518 c 0.727,0.11 1.223,0.453 1.332,1.185 -0.824,1.307 -2.821,-0.297 -1.332,-1.185 m 13.467,1.626 h 0.296 v 0.297 h -0.296 z m 13.023,-0.147 c 0.171,-0.122 0.397,-0.195 0.739,-0.148 0.007,0.449 0.087,0.975 -0.444,0.888 -0.062,-0.281 -0.422,-0.269 -0.295,-0.74 m 51.498,1.63 c 0.431,-0.218 0.431,0.66 0,0.443 z m -47.798,2.217 c -0.07,-0.464 0.128,-0.658 0.591,-0.591 -0.033,0.28 0.167,0.328 0.147,0.591 -0.193,0.192 -0.544,0.192 -0.738,0 m -21.162,1.778 c -2.251,1.005 -2.906,-2.957 -0.148,-2.369 0.086,0.308 0.283,0.504 0.591,0.591 0.163,0.903 -0.256,1.226 -0.443,1.778 m 10.358,-0.89 c -0.123,2.654 -3.778,2.345 -4.735,0.297 -0.358,-0.767 -0.259,-1.9 0.148,-2.368 0.471,-0.542 1.479,-0.648 2.811,-0.591 0.83,0.714 1.835,1.386 1.776,2.662 m -26.194,2.223 c 0.009,0.088 0.024,0.172 0.149,0.144 -0.017,0.182 -0.045,0.352 -0.297,0.297 0.024,-0.172 -0.024,-0.419 0.148,-0.441 m 65.262,2.07 c 0.506,-0.111 0.578,0.564 0.148,0.592 -0.046,-0.2 -0.21,-0.283 -0.148,-0.592 m 2.663,0.592 c 0.191,-0.008 0.207,-0.19 0.445,-0.148 0.008,0.253 -0.113,0.379 -0.297,0.444 0.002,-0.15 -0.12,-0.176 -0.148,-0.296 m -16.722,-0.295 c 0.173,-0.127 0.398,-0.196 0.741,-0.15 0.19,0.888 -0.776,0.866 -0.741,0.15 m 1.185,1.329 c 0.017,-0.548 0.215,-0.372 0.592,-0.295 -0.018,0.548 -0.215,0.372 -0.592,0.295 m 19.978,0 h 0.296 v 0.296 H 6.672 Z m 9.766,7.252 c 0.029,-0.415 0.258,-0.629 0.741,-0.593 0.033,0.117 0.123,0.174 0.296,0.15 0.294,1.092 -0.928,1.334 -1.037,0.443 m -23.825,-0.148 c 0.28,0.033 0.328,-0.166 0.592,-0.149 0.046,0.348 0.289,0.612 0,0.89 h -0.444 c -0.123,-0.172 -0.194,-0.397 -0.148,-0.741 m -6.511,0.148 h 0.74 c 0.105,0.599 -0.142,0.844 -0.74,0.74 z m 3.699,1.924 c 0.399,0.103 0.286,-0.306 0.445,-0.444 0.368,-0.023 0.458,0.232 0.74,0.296 v 0.74 c -0.541,0.433 -1.084,-0.121 -1.185,-0.592 m 8.14,2.516 c 0.046,0.201 0.21,0.282 0.148,0.591 h -0.592 c -0.042,-0.387 0.055,-0.636 0.444,-0.591 m 11.986,3.403 c 1.015,0.19 1.19,1.797 0.296,2.516 C 7.52,-5.945 8.269,-9.214 9.927,-8.902 m 0.593,6.808 c 0.001,-0.444 0.384,-0.503 0.444,-0.889 2.365,-0.195 0.387,2.662 -0.444,0.889 m -14.948,1.627 c 0.399,-0.317 0.788,-0.317 1.185,0 0.303,1.165 -1.488,1.165 -1.185,0 M 14.663,2.79 C 14.62,2.398 14.868,2.303 15.256,2.346 V 2.938 C 14.997,2.948 14.794,2.904 14.663,2.79 M 0.604,3.231 C 0.837,3.221 0.721,2.855 1.049,2.938 1.248,3.035 1.324,3.254 1.345,3.528 0.977,3.551 0.626,3.557 0.604,3.231 M -0.284,3.528 C -0.178,3.638 0.084,4.253 -0.432,4.121 -0.405,3.9 -0.485,3.573 -0.284,3.528 M 26.354,4.564 C 26.396,4.953 26.301,5.201 25.911,5.157 25.59,4.761 25.856,4.223 26.354,4.564 M 7.56,6.194 C 7.759,6.146 7.842,5.981 8.152,6.045 V 6.638 C 7.782,6.662 7.688,6.408 7.56,6.194 M 4.304,8.116 C 4.327,8.22 4.251,8.978 4.156,8.561 4.026,7.997 4.236,7.818 4.304,8.116 m -39.956,1.481 c 0.717,-0.073 0.801,0.579 0.591,1.035 H -35.8 c 10e-4,-0.394 -0.056,-0.845 0.148,-1.035 m -1.776,0.74 c 0.468,-0.605 1.366,-0.414 1.48,0.443 -0.186,0.062 -0.302,0.191 -0.295,0.444 -0.817,0.126 -1.178,-0.204 -1.185,-0.887 m 41.14,0.295 c 0.03,0.426 -0.037,0.753 -0.296,0.889 -0.03,-0.425 0.037,-0.752 0.296,-0.889 m -31.817,1.629 c 0.295,-0.308 0.632,-0.006 0.74,0.296 -0.367,0.02 -0.718,0.027 -0.74,-0.296 m -30.781,0.147 h 0.296 v 0.296 h -0.296 z m 61.413,0.296 h 0.297 v 0.297 H 2.527 Z m -58.601,3.995 h 0.591 c 0.13,0.476 -0.227,0.464 -0.444,0.592 -0.046,-0.199 -0.21,-0.282 -0.147,-0.592 m 18.646,8.139 c -0.449,-0.498 0.548,-0.447 0,0 m 38.477,0.445 c -0.499,0.449 -0.449,-0.547 0,0 M -8.127,40.23 h 0.444 v 0.295 h -0.444 z m 45.58,4.144 c 0.008,0.09 0.023,0.175 0.148,0.148 -0.016,0.18 -0.044,0.35 -0.297,0.295 0.024,-0.174 -0.024,-0.42 0.149,-0.443 m -77.544,8.287 h 0.296 c 0.229,0.364 -0.503,0.435 -0.444,0.148 0.089,-0.009 0.174,-0.022 0.148,-0.148 m 64.373,41.88 c 0.679,-0.099 -0.118,-0.896 0,0"
             style="fill:#262626;fill-opacity:1;fill-rule:evenodd;stroke:none"
             id="path94"
             inkscape:connector-curvature="0" />
        </g>
      </g>
    </g>
  </g>
</svg>
