<?xml version="1.0" encoding="UTF-8" standalone="no"?>
<!-- Created with Inkscape (http://www.inkscape.org/) -->

<svg
   xmlns:dc="http://purl.org/dc/elements/1.1/"
   xmlns:cc="http://creativecommons.org/ns#"
   xmlns:rdf="http://www.w3.org/1999/02/22-rdf-syntax-ns#"
   xmlns:svg="http://www.w3.org/2000/svg"
   xmlns="http://www.w3.org/2000/svg"
   xmlns:sodipodi="http://sodipodi.sourceforge.net/DTD/sodipodi-0.dtd"
   xmlns:inkscape="http://www.inkscape.org/namespaces/inkscape"
   width="64.793205mm"
   height="45.402798mm"
   viewBox="0 0 64.793205 45.402798"
   version="1.1"
   id="svg4023"
   inkscape:version="0.92.2 2405546, 2018-03-11"
   sodipodi:docname="paint-big03.svg">
  <defs
     id="defs4017">
    <clipPath
       clipPathUnits="userSpaceOnUse"
       id="clipPath126">
      <path
         d="M 0,600 H 600 V 0 H 0 Z"
         id="path124"
         inkscape:connector-curvature="0" />
    </clipPath>
  </defs>
  <sodipodi:namedview
     id="base"
     pagecolor="#ffffff"
     bordercolor="#666666"
     borderopacity="1.0"
     inkscape:pageopacity="0.0"
     inkscape:pageshadow="2"
     inkscape:zoom="0.35"
     inkscape:cx="8.5714147"
     inkscape:cy="559.99999"
     inkscape:document-units="mm"
     inkscape:current-layer="layer1"
     showgrid="false"
     fit-margin-top="0"
     fit-margin-left="0"
     fit-margin-right="0"
     fit-margin-bottom="0"
     inkscape:window-width="3840"
     inkscape:window-height="2095"
     inkscape:window-x="0"
     inkscape:window-y="0"
     inkscape:window-maximized="1" />
  <metadata
     id="metadata4020">
    <rdf:RDF>
      <cc:Work
         rdf:about="">
        <dc:format>image/svg+xml</dc:format>
        <dc:type
           rdf:resource="http://purl.org/dc/dcmitype/StillImage" />
        <dc:title></dc:title>
      </cc:Work>
    </rdf:RDF>
  </metadata>
  <g
     inkscape:label="Layer 1"
     inkscape:groupmode="layer"
     id="layer1"
     transform="translate(-3.6811465e-6,-251.5972)">
    <g
       transform="matrix(0.35277777,0,0,-0.35277777,-143.34544,459.73594)"
       id="g120">
      <g
         id="g122"
         clip-path="url(#clipPath126)">
        <g
           id="g128"
           transform="translate(473.8506,514.1587)">
          <path
             d="M 0,0 C -0.039,-0.062 -0.017,-0.147 0.044,-0.186 L 2.146,-1.535 4.05,-2.769 c 0.061,-0.041 0.139,-0.02 0.179,0.041 0.039,0.062 0.017,0.145 -0.043,0.185 L 2.292,-1.316 0.177,0.043 C 0.115,0.082 0.039,0.062 0,0 M 5.166,-3.319 C 5.135,-3.372 5.15,-3.44 5.204,-3.47 l 0.419,-0.243 c 0.358,-0.202 0.73,-0.41 0.991,-0.674 0.044,-0.045 0.115,-0.045 0.158,0 0.045,0.044 0.045,0.115 10e-4,0.158 -0.284,0.287 -0.669,0.504 -1.041,0.712 l -0.411,0.238 c -0.053,0.031 -0.125,0.014 -0.155,-0.04 m 17.507,24.323 c -0.022,-0.029 -0.018,-0.067 0.01,-0.087 l 0.302,-0.232 c 0.252,-0.185 0.513,-0.378 0.689,-0.619 0.021,-0.028 0.06,-0.034 0.089,-0.013 0.027,0.02 0.034,0.06 0.013,0.088 -0.188,0.256 -0.457,0.455 -0.715,0.647 l -0.298,0.227 c -0.028,0.021 -0.069,0.017 -0.09,-0.011 m -4.874,4.031 c -0.027,-0.033 -0.022,-0.082 0.011,-0.108 l 1.843,-1.523 2.164,-1.781 c 0.033,-0.026 0.079,-0.021 0.106,0.011 0.026,0.033 0.02,0.082 -0.011,0.108 l -2.161,1.778 -1.847,1.525 c -0.032,0.027 -0.079,0.022 -0.105,-0.01 M 2.345,39.697 C 2.31,39.666 2.306,39.612 2.337,39.577 c 2.534,-2.9 5.394,-5.59 8.161,-8.192 l 2.577,-2.44 c 0.034,-0.033 0.088,-0.031 0.12,0.004 0.033,0.033 0.033,0.086 -0.003,0.119 l -2.58,2.442 c -2.761,2.598 -5.618,5.285 -8.148,8.179 -0.03,0.035 -0.085,0.039 -0.119,0.008 m -4.087,11.697 c -2.787,-3.034 0.396,-7.219 1.927,-9.229 0.029,-0.039 0.084,-0.046 0.121,-0.017 0.039,0.029 0.047,0.083 0.017,0.123 -1.501,1.972 -4.625,6.078 -1.937,9.006 0.032,0.035 0.03,0.091 -0.006,0.123 -0.034,0.033 -0.09,0.031 -0.122,-0.006 M 8.338,47.917 C 8.287,47.799 8.155,47.743 8.038,47.794 l 2.852,-1.24 c 0.118,-0.051 0.259,0 0.31,0.118 0.051,0.118 0.002,0.252 -0.115,0.303 l -2.874,1.249 c 0.117,-0.05 0.177,-0.19 0.127,-0.307 m 65.469,-78.088 c -0.031,-0.045 -0.019,-0.107 0.025,-0.138 0.278,-0.189 0.509,-0.452 0.732,-0.706 l 0.4,-0.432 c 0.037,-0.04 0.096,-0.038 0.136,-0.001 0.04,0.037 0.038,0.104 0.001,0.143 l -0.389,0.421 c -0.232,0.263 -0.471,0.535 -0.769,0.739 -0.046,0.03 -0.106,0.019 -0.136,-0.026 m 2.132,8.929 c -0.062,-0.103 -0.028,-0.238 0.075,-0.301 l 0.048,-0.029 0.377,-0.212 c 0.106,-0.059 0.227,-0.016 0.287,0.089 0.059,0.107 0.01,0.246 -0.095,0.305 l -0.343,0.195 -0.05,0.029 c -0.102,0.062 -0.236,0.028 -0.299,-0.076 m 13.425,-4.836 c -0.109,-0.081 -0.135,-0.236 -0.052,-0.347 1.063,-1.45 2.341,-2.762 3.578,-4.029 l 0.185,-0.191 c 0.095,-0.098 0.252,-0.1 0.35,-0.003 0.097,0.096 0.099,0.252 0.004,0.351 l -0.185,0.19 c -1.224,1.255 -2.49,2.554 -3.533,3.976 -0.082,0.111 -0.236,0.134 -0.347,0.053 m -6.075,-1.242 c -0.059,-0.064 -0.055,-0.164 0.01,-0.222 3.406,-3.145 6.975,-6.293 10.427,-9.336 l 5.031,-4.452 c 0.065,-0.057 0.165,-0.052 0.222,0.014 0.057,0.065 0.051,0.165 -0.013,0.222 l -5.033,4.453 c -3.451,3.042 -7.018,6.188 -10.422,9.331 -0.064,0.058 -0.163,0.054 -0.222,-0.01 m -35.332,10.03 c -0.031,-0.024 -0.077,-0.019 -0.103,0.014 0.241,-0.307 0.543,-0.546 0.836,-0.778 l 0.461,-0.381 c 0.032,-0.025 0.079,-0.023 0.106,0.008 0.025,0.031 0.022,0.076 -0.009,0.101 l -0.467,0.388 c -0.3,0.236 -0.583,0.46 -0.811,0.752 0.025,-0.031 0.019,-0.078 -0.013,-0.104 m 14.318,-3.229 c -0.022,-0.044 0.004,-0.074 0.05,-0.097 0.046,-0.023 0.11,0.02 0.132,0.065 l 0.129,0.252 c -0.023,-0.045 -0.072,-0.053 -0.117,-0.03 -0.045,0.023 -0.058,0.088 -0.035,0.134 z m -1.721,1.787 c -0.044,-0.053 -0.037,-0.132 0.017,-0.174 0.278,-0.232 0.595,-0.386 0.904,-0.534 0.293,-0.143 0.57,-0.278 0.814,-0.473 0.054,-0.043 0.132,-0.034 0.175,0.02 0.042,0.053 0.033,0.132 -0.021,0.174 -0.264,0.213 -0.568,0.36 -0.861,0.502 -0.308,0.15 -0.598,0.29 -0.854,0.502 -0.052,0.044 -0.13,0.036 -0.174,-0.017 m 3.454,1.035 c -0.061,-0.041 -0.074,-0.125 -0.033,-0.184 3.204,-4.596 5.982,-8.092 8.744,-11.002 0.05,-0.053 0.134,-0.055 0.186,-0.005 0.054,0.052 0.056,0.136 0.005,0.189 -2.752,2.9 -5.521,6.386 -8.717,10.97 -0.043,0.06 -0.126,0.075 -0.185,0.032 m -7.711,11.502 c -0.068,-0.033 -0.096,-0.113 -0.064,-0.181 0.894,-1.895 2.173,-3.688 3.306,-5.193 0.045,-0.06 0.131,-0.073 0.19,-0.027 0.06,0.046 0.072,0.131 0.027,0.19 -1.125,1.495 -2.395,3.274 -3.277,5.146 -0.033,0.069 -0.114,0.097 -0.182,0.065 m 0.012,0.138 c -0.025,-0.067 0.008,-0.14 0.073,-0.165 0.947,-0.361 1.776,-1.045 2.578,-1.706 0.518,-0.426 1.053,-0.867 1.622,-1.226 0.059,-0.037 0.137,-0.02 0.174,0.04 0.038,0.059 0.019,0.138 -0.04,0.175 -0.556,0.351 -1.084,0.786 -1.595,1.209 -0.817,0.672 -1.663,1.369 -2.649,1.746 -0.065,0.026 -0.14,-0.009 -0.163,-0.073 m -1.758,2.054 c -0.089,-0.048 -0.121,-0.16 -0.072,-0.249 0.195,-0.359 0.485,-0.627 0.766,-0.887 0.276,-0.256 0.538,-0.498 0.704,-0.813 0.047,-0.09 0.157,-0.124 0.246,-0.076 0.09,0.047 0.124,0.157 0.076,0.247 -0.195,0.371 -0.492,0.646 -0.779,0.911 -0.271,0.251 -0.527,0.487 -0.694,0.794 -0.048,0.088 -0.158,0.12 -0.247,0.073 m 8.427,3.55 c -0.03,-0.058 -0.003,-0.129 0.055,-0.155 0.226,-0.107 0.423,-0.278 0.632,-0.461 0.37,-0.323 0.754,-0.656 1.319,-0.627 0.065,0.003 0.115,0.059 0.112,0.123 -0.004,0.064 -0.059,0.115 -0.123,0.111 -0.472,-0.024 -0.804,0.265 -1.155,0.571 -0.213,0.183 -0.431,0.375 -0.686,0.495 -0.059,0.027 -0.127,0.001 -0.154,-0.057 m 2.171,-2.132 v -0.43 c 0,-0.084 0.068,-0.152 0.152,-0.152 0.083,0 0.151,0.068 0.151,0.152 v 0.43 c 0,0.085 -0.068,0.153 -0.151,0.153 -0.084,0 -0.152,-0.068 -0.152,-0.153 M 44.43,-0.261 c -0.956,-0.267 -1.747,-0.513 -2.487,-1.03 -0.08,-0.056 -0.098,-0.166 -0.044,-0.245 0.056,-0.081 0.166,-0.1 0.246,-0.045 0.694,0.484 1.456,0.721 2.379,0.98 0.094,0.027 0.149,0.125 0.123,0.219 -0.026,0.093 -0.124,0.148 -0.217,0.121 m 20.747,-2.316 c -0.005,-0.069 0.047,-0.128 0.117,-0.133 0.352,-0.02 0.592,-0.244 0.845,-0.48 0.221,-0.207 0.451,-0.421 0.771,-0.519 0.066,-0.021 0.136,0.017 0.155,0.084 0.021,0.065 -0.016,0.136 -0.083,0.156 -0.265,0.08 -0.463,0.266 -0.673,0.462 -0.274,0.256 -0.558,0.521 -1.001,0.548 -0.069,0.003 -0.127,-0.049 -0.131,-0.118 m -0.272,1.222 C 64.782,-1.396 64.72,-1.542 64.76,-1.666 l 0.256,-0.781 0.059,-0.206 c 0.037,-0.125 0.168,-0.195 0.292,-0.159 0.125,0.039 0.196,0.17 0.159,0.295 l -0.06,0.203 -0.269,0.821 c -0.04,0.125 -0.169,0.179 -0.292,0.138 M 51.547,-1.937 c -0.04,-0.047 -0.028,-0.124 0.018,-0.165 l 0.89,-0.761 c 0.636,-0.585 1.293,-1.189 2.155,-1.41 0.061,-0.017 0.122,0.019 0.138,0.081 0.016,0.061 -0.02,0.122 -0.082,0.138 -0.808,0.208 -1.442,0.793 -2.058,1.358 L 51.7,-1.919 c -0.048,0.041 -0.112,0.03 -0.153,-0.018 m -5.758,0.717 c -0.118,-0.04 -0.183,-0.169 -0.143,-0.288 l 0.095,-0.286 c 0.04,-0.119 0.167,-0.185 0.286,-0.144 0.119,0.039 0.183,0.168 0.144,0.287 l -0.096,0.287 c -0.039,0.119 -0.168,0.183 -0.286,0.144 m 8.63,-2.226 v -0.718 c 0,-0.122 0.098,-0.22 0.22,-0.22 0.121,0 0.218,0.098 0.218,0.22 v 0.718 c 0,0.122 -0.097,0.22 -0.218,0.22 -0.122,0 -0.22,-0.098 -0.22,-0.22 m -2.566,1.818 c -0.026,-0.116 0.04,-0.229 0.156,-0.256 l 0.248,-0.055 0.423,-0.119 c 0.114,-0.032 0.271,0.019 0.302,0.133 0.033,0.113 0.006,0.217 -0.106,0.25 l -0.531,0.157 -0.23,0.052 C 52,-1.44 51.878,-1.511 51.853,-1.628 M 66.808,1.656 C 66.687,1.606 66.627,1.474 66.677,1.353 l 0.242,-0.586 c -0.05,0.121 0.006,0.264 0.127,0.315 0.121,0.05 0.259,-0.003 0.308,-0.125 L 67.121,1.52 C 67.07,1.642 66.929,1.707 66.808,1.656 M 47.51,10.184 c -0.073,-0.025 -0.112,-0.103 -0.087,-0.177 0.912,-2.729 2.345,-5.345 3.73,-7.874 l 1.858,-3.488 c 0.037,-0.068 0.122,-0.097 0.19,-0.06 0.068,0.036 0.095,0.118 0.06,0.186 l -1.864,3.497 c -1.379,2.518 -2.806,5.122 -3.711,7.828 -0.025,0.073 -0.104,0.112 -0.176,0.088 m -0.048,-0.125 c -0.004,-0.051 0.034,-0.096 0.085,-0.099 0.558,-0.043 0.927,-0.467 1.315,-0.915 0.334,-0.385 0.68,-0.784 1.167,-0.947 0.048,-0.017 0.102,0.009 0.117,0.057 0.016,0.05 -0.009,0.103 -0.057,0.118 -0.441,0.148 -0.77,0.527 -1.088,0.893 -0.397,0.457 -0.807,0.93 -1.44,0.978 -0.05,0.004 -0.095,-0.035 -0.099,-0.085 m -1.287,2.147 C 46.096,12.155 46.069,12.055 46.12,11.975 l 0.859,-1.354 0.432,-0.661 c 0.051,-0.079 0.157,-0.103 0.236,-0.051 0.079,0.051 0.101,0.156 0.049,0.235 l -0.432,0.665 -0.852,1.34 c -0.051,0.08 -0.158,0.108 -0.237,0.057 M 56.018,5.514 C 55.985,5.485 55.983,5.436 56.012,5.404 56.805,4.529 57.74,3.81 58.644,3.114 c 0.784,-0.603 1.593,-1.226 2.307,-1.949 0.03,-0.03 0.08,-0.03 0.111,0 0.03,0.031 0.03,0.08 0.001,0.111 -0.722,0.728 -1.538,1.355 -2.325,1.961 -0.898,0.693 -1.827,1.408 -2.611,2.272 -0.029,0.033 -0.078,0.034 -0.109,0.005 m -4.024,2.832 c -0.009,-0.038 0.014,-0.076 0.052,-0.085 0.239,-0.06 0.43,-0.214 0.632,-0.378 l 0.501,-0.337 c 0.032,-0.021 0.064,-0.007 0.086,0.026 0.022,0.032 0.003,0.082 -0.03,0.103 L 52.766,7.993 C 52.561,8.159 52.349,8.331 52.078,8.397 52.041,8.406 52.003,8.384 51.994,8.346 M 50.175,21.79 c -0.059,-0.095 -0.023,-0.224 0.072,-0.283 l 0.762,-0.477 c 0.4,-0.263 0.814,-0.536 1.261,-0.728 0.1,-0.045 0.22,0.003 0.262,0.105 0.044,0.102 -0.002,0.221 -0.104,0.265 -0.412,0.178 -0.794,0.43 -1.199,0.695 l -0.787,0.492 c -0.093,0.059 -0.209,0.025 -0.267,-0.069 m 3.24,-2.393 c -0.086,-0.043 -0.123,-0.142 -0.08,-0.227 l 0.209,-0.415 0.22,-0.444 c 0.043,-0.086 0.151,-0.13 0.237,-0.086 0.085,0.043 0.123,0.14 0.081,0.225 l -0.231,0.468 -0.2,0.397 c -0.044,0.086 -0.15,0.126 -0.236,0.082 m 1.611,-4.173 c -0.08,-0.023 -0.127,-0.107 -0.103,-0.188 0.204,-0.722 0.471,-1.409 0.728,-2.072 l 0.491,-1.311 c 0.029,-0.078 0.118,-0.121 0.195,-0.092 0.079,0.029 0.119,0.113 0.091,0.191 l -0.495,1.323 c -0.267,0.687 -0.519,1.336 -0.72,2.045 -0.023,0.08 -0.107,0.127 -0.187,0.104 M 64.761,-0.609 C 64.653,-0.837 64.69,-1.054 64.72,-1.228 l 0.013,-0.281 c 0.007,-0.138 0.114,-0.324 0.252,-0.319 0.139,0.003 0.239,0.039 0.239,0.178 l -0.001,0.508 c -0.026,0.144 -0.038,0.238 -0.002,0.316 0.059,0.127 0.005,0.28 -0.121,0.339 -0.128,0.061 -0.281,0.006 -0.339,-0.122 M 53.605,4.653 C 53.521,4.558 53.529,4.411 53.626,4.325 54.639,3.423 55.558,2.384 56.448,1.378 l 1.918,-2.087 c 0.087,-0.095 0.228,-0.095 0.322,-0.008 0.095,0.087 0.095,0.241 0.008,0.336 L 56.795,1.688 C 55.896,2.703 54.967,3.753 53.934,4.673 53.838,4.759 53.69,4.75 53.605,4.653 m -4.395,5.721 c -0.046,-0.021 -0.065,-0.075 -0.044,-0.121 0.021,-0.045 0.075,-0.065 0.12,-0.045 0.25,0.118 0.455,-0.011 0.692,-0.163 l 0.256,-0.147 c 0.044,-0.024 0.092,-0.007 0.118,0.037 0.024,0.043 0.003,0.102 -0.039,0.127 L 50.075,10.2 c -0.246,0.156 -0.525,0.333 -0.865,0.174 m -3.65,4.172 c -0.063,-0.074 -0.055,-0.186 0.019,-0.249 0.652,-0.557 1.149,-1.244 1.674,-1.972 0.551,-0.761 1.12,-1.549 1.884,-2.171 0.076,-0.062 0.186,-0.05 0.247,0.025 0.061,0.077 0.051,0.188 -0.026,0.249 -0.726,0.593 -1.282,1.362 -1.819,2.106 -0.515,0.712 -1.047,1.447 -1.73,2.032 -0.076,0.063 -0.187,0.055 -0.249,-0.02 m 3.625,-4.08 c -0.096,-0.034 -0.146,-0.141 -0.112,-0.237 0.138,-0.386 0.38,-0.931 0.9,-1.203 0.09,-0.048 0.203,-0.014 0.25,0.078 0.047,0.09 0.012,0.203 -0.077,0.251 -0.313,0.165 -0.536,0.472 -0.724,0.999 -0.034,0.096 -0.14,0.147 -0.237,0.112 m 1.528,16.559 C 50.617,26.992 50.565,26.891 50.6,26.795 l 0.998,-2.777 c 0.398,-1.067 0.811,-2.167 1.147,-3.251 0.031,-0.098 0.133,-0.152 0.231,-0.121 0.096,0.03 0.15,0.133 0.12,0.231 -0.339,1.093 -0.753,2.199 -1.155,3.269 l -0.992,2.764 c -0.035,0.097 -0.141,0.151 -0.236,0.115 m -73.526,12.763 c -0.084,-0.066 -0.101,-0.19 -0.035,-0.275 0.434,-0.563 0.948,-1.075 1.443,-1.571 0.586,-0.585 1.19,-1.189 1.651,-1.867 0.062,-0.089 0.183,-0.112 0.272,-0.051 0.089,0.061 0.113,0.184 0.051,0.273 -0.481,0.708 -1.099,1.326 -1.698,1.924 -0.487,0.487 -0.991,0.989 -1.409,1.531 -0.066,0.087 -0.189,0.102 -0.275,0.036 m -9.788,1.111 c -0.063,-0.098 -0.039,-0.228 0.059,-0.294 1.297,-0.87 2.725,-1.645 4.104,-2.396 1.222,-0.662 2.485,-1.348 3.655,-2.098 0.098,-0.064 0.229,-0.034 0.292,0.064 0.062,0.098 0.034,0.229 -0.065,0.292 -1.183,0.759 -2.452,1.448 -3.68,2.116 -1.371,0.745 -2.789,1.516 -4.072,2.375 -0.096,0.065 -0.228,0.039 -0.293,-0.059 m -5.852,1.901 c -0.083,-0.036 -0.123,-0.133 -0.087,-0.217 0.036,-0.084 0.134,-0.123 0.217,-0.086 0.342,0.148 0.722,0.011 1.091,-0.121 l 0.077,-0.027 c 0.086,-0.031 0.18,0.015 0.211,0.1 0.03,0.086 -0.016,0.18 -0.101,0.212 l -0.077,0.027 c -0.408,0.146 -0.87,0.311 -1.331,0.112 m 128.44,-68.516 c -0.032,-0.04 -0.026,-0.1 0.013,-0.132 2.609,-2.12 4.916,-4.529 6.854,-7.164 0.031,-0.04 0.089,-0.05 0.131,-0.018 0.041,0.03 0.051,0.089 0.02,0.131 -1.947,2.646 -4.265,5.067 -6.887,7.197 -0.039,0.032 -0.098,0.026 -0.131,-0.014 M -51.509,70.938 c -0.08,-0.053 -0.101,-0.162 -0.048,-0.243 4.602,-6.893 10.551,-12.932 16.306,-18.772 l 2.32,-2.36 c 0.069,-0.07 0.178,-0.07 0.246,-0.003 0.07,0.068 0.071,0.179 0.003,0.247 l -2.322,2.362 c -5.741,5.828 -11.679,11.856 -16.263,18.721 -0.053,0.081 -0.163,0.102 -0.242,0.048 m -15.988,-7.09 c -0.051,-0.11 -0.001,-0.241 0.108,-0.292 5.464,-2.508 11.064,-4.891 16.481,-7.197 5.739,-2.443 11.676,-4.969 17.437,-7.641 0.11,-0.05 0.241,-0.003 0.291,0.109 0.051,0.11 0.003,0.24 -0.107,0.291 -5.768,2.674 -11.706,5.202 -17.45,7.647 -5.414,2.304 -11.011,4.686 -16.469,7.192 -0.111,0.05 -0.241,10e-4 -0.291,-0.109 m 36.191,-15.756 c -0.088,-0.104 -0.107,-0.229 -0.003,-0.318 l 0.48,-0.413 c 0.166,-0.115 0.322,-0.226 0.423,-0.374 0.078,-0.112 0.233,-0.141 0.345,-0.063 0.113,0.077 0.142,0.233 0.064,0.346 -0.152,0.22 -0.353,0.362 -0.547,0.499 l -0.383,0.322 c -0.104,0.087 -0.291,0.106 -0.379,10e-4 m 2.824,-2.576 c -0.077,-0.063 -0.089,-0.176 -0.027,-0.253 0.455,-0.56 0.975,-1.075 1.477,-1.573 l 1.247,-1.303 c 0.068,-0.071 0.187,-0.08 0.258,-0.012 0.071,0.069 0.08,0.176 0.011,0.247 l -1.265,1.323 c -0.495,0.492 -1.007,0.999 -1.45,1.545 -0.063,0.076 -0.175,0.088 -0.251,0.026 m -18.623,-1.678 c -2.771,-2.663 -0.726,-6.384 0.916,-9.374 l 0.952,-1.806 c 0.049,-0.093 0.167,-0.135 0.258,-0.086 0.093,0.05 0.131,0.158 0.083,0.25 l -0.962,1.824 c -1.662,3.027 -3.545,6.458 -0.987,8.919 0.076,0.072 0.079,0.191 0.006,0.267 -0.072,0.076 -0.191,0.079 -0.266,0.006 m 2.617,-11.969 c -0.074,-0.049 -0.094,-0.149 -0.044,-0.223 5.185,-7.823 13.61,-12.358 21.102,-15.996 0.079,-0.038 0.175,-0.004 0.213,0.076 0.04,0.08 0.006,0.176 -0.073,0.215 -7.452,3.619 -15.834,8.128 -20.976,15.883 -0.048,0.074 -0.148,0.095 -0.222,0.045 M -17.14,10.108 c -0.109,-0.043 -0.165,-0.166 -0.122,-0.275 0.319,-0.842 0.862,-1.553 1.388,-2.239 0.334,-0.436 0.68,-0.888 0.958,-1.364 0.06,-0.101 0.189,-0.135 0.292,-0.075 0.101,0.059 0.134,0.19 0.075,0.293 -0.293,0.497 -0.645,0.96 -0.987,1.406 -0.53,0.692 -1.032,1.347 -1.328,2.13 -0.043,0.11 -0.165,0.166 -0.276,0.124 M 34.7,-5.552 c -0.027,-0.025 -0.028,-0.066 -0.004,-0.094 1.254,-1.356 2.749,-2.711 4.445,-4.027 0.029,-0.023 0.071,-0.017 0.093,0.011 0.022,0.029 0.017,0.071 -0.012,0.094 -1.69,1.312 -3.179,2.662 -4.429,4.013 -0.024,0.026 -0.066,0.028 -0.093,0.003 m -2.321,-6.016 c -0.009,-0.123 0.044,-0.222 0.165,-0.23 l 0.771,-0.054 c 0.234,0.006 0.455,0.012 0.661,-0.042 0.116,-0.03 0.237,0.041 0.267,0.16 0.03,0.118 -0.04,0.239 -0.158,0.27 -0.266,0.068 -0.527,0.061 -0.78,0.056 l -0.653,0.04 c -0.121,0.007 -0.265,-0.078 -0.273,-0.2 m -17.29,3.475 c -0.05,-0.107 -0.005,-0.233 0.1,-0.283 4.277,-2.041 9.193,-2.595 13.948,-3.131 l 0.432,-0.048 c 0.117,-0.013 0.221,0.071 0.235,0.187 0.011,0.117 -0.072,0.222 -0.188,0.235 l -0.431,0.049 c -4.721,0.532 -9.602,1.081 -13.813,3.091 -0.105,0.05 -0.231,0.005 -0.283,-0.1 m -6.212,2.519 c -0.015,-0.059 0.021,-0.119 0.08,-0.134 0.385,-0.096 0.738,-0.304 1.111,-0.523 0.373,-0.219 0.756,-0.446 1.179,-0.554 0.059,-0.014 0.119,0.021 0.134,0.081 0.015,0.058 -0.021,0.12 -0.08,0.135 -0.392,0.099 -0.762,0.318 -1.12,0.528 C 9.81,-5.822 9.426,-5.597 9.01,-5.492 8.951,-5.478 8.891,-5.515 8.877,-5.574 m 67.005,-26.509 c -0.045,-0.045 -0.045,-0.12 0,-0.163 2.295,-2.294 5.24,-4.497 8.754,-6.553 0.054,-0.031 0.124,-0.013 0.156,0.042 0.032,0.055 0.014,0.126 -0.041,0.157 -3.497,2.046 -6.426,4.238 -8.707,6.517 -0.045,0.044 -0.118,0.044 -0.162,0 m -3.45,23.332 c -0.045,-0.054 -0.037,-0.133 0.016,-0.177 1.482,-1.224 2.655,-2.354 3.49,-3.358 0.043,-0.054 0.124,-0.06 0.177,-0.016 0.053,0.044 0.06,0.123 0.016,0.177 -0.845,1.016 -2.03,2.157 -3.524,3.392 -0.053,0.044 -0.132,0.035 -0.175,-0.018 M 24.976,64.083 c -0.053,-0.069 -0.04,-0.167 0.027,-0.22 C 37.54,54.071 47.017,44.307 54.827,33.131 59.557,26.364 66.022,16.2 67.563,6.085 c 0.312,-2.044 0.382,-3.65 0.23,-5.208 -0.008,-0.086 0.055,-0.163 0.14,-0.171 0.086,-0.009 0.162,0.055 0.171,0.14 0.155,1.585 0.084,3.216 -0.232,5.287 C 66.32,16.313 59.83,26.52 55.083,33.311 47.254,44.512 37.757,54.299 25.195,64.11 c -0.068,0.054 -0.167,0.041 -0.219,-0.027 m -8.135,8.101 c -0.046,-0.149 -0.077,-0.35 0.084,-0.581 0.028,-0.041 0.084,-0.052 0.125,-0.023 0.041,0.028 0.051,0.085 0.022,0.127 -0.119,0.173 -0.093,0.31 -0.059,0.424 0.015,0.047 -0.011,0.098 -0.06,0.113 -0.048,0.015 -0.099,-0.013 -0.112,-0.06 M 54.282,19.277 c -0.019,-0.039 -0.003,-0.086 0.035,-0.105 0.145,-0.07 0.352,-0.227 0.554,-0.418 0.031,-0.029 0.081,-0.029 0.11,0.003 0.031,0.032 0.029,0.081 -0.002,0.112 -0.214,0.2 -0.436,0.367 -0.592,0.444 -0.039,0.019 -0.086,0.003 -0.105,-0.036 M 24.488,58.581 c -0.036,-0.053 -0.022,-0.125 0.031,-0.162 6.491,-4.381 12.14,-9.059 17.271,-14.301 0.044,-0.046 0.117,-0.047 0.163,-0.002 0.046,0.045 0.046,0.119 0.002,0.164 -5.142,5.254 -10.804,9.942 -17.307,14.332 -0.052,0.035 -0.125,0.021 -0.16,-0.031 M 16.6,64.906 c -0.04,-0.022 -0.055,-0.073 -0.033,-0.114 1.135,-1.99 3.105,-3.275 5.008,-4.517 l 0.602,-0.393 c 0.038,-0.026 0.09,-0.015 0.115,0.023 0.024,0.04 0.016,0.092 -0.024,0.116 l -0.602,0.394 c -1.887,1.231 -3.839,2.504 -4.953,4.46 -0.023,0.041 -0.073,0.054 -0.113,0.031 M 47.629,34.537 C 47.51,34.486 47.453,34.351 47.504,34.231 l 0.216,-0.507 c 0.176,-0.401 0.341,-0.78 0.442,-1.184 0.031,-0.127 0.158,-0.204 0.284,-0.172 0.125,0.032 0.201,0.159 0.171,0.286 -0.11,0.443 -0.292,0.858 -0.468,1.26 l -0.211,0.494 c -0.05,0.119 -0.19,0.18 -0.309,0.129 m -1.081,-11.78 c -0.012,-0.123 0.049,-0.226 0.171,-0.238 l 0.525,-0.05 0.088,-0.003 c 0.123,-0.004 0.225,0.093 0.229,0.216 0.003,0.123 -0.092,0.225 -0.214,0.228 l -0.09,0.003 -0.442,0.04 c -0.121,0.011 -0.256,-0.074 -0.267,-0.196 m -0.979,0.113 c -1,-0.294 -1.666,-0.825 -1.983,-1.576 -0.757,-1.792 0.603,-4.39 1.597,-6.284 l 0.343,-0.664 c 0.048,-0.093 0.162,-0.13 0.255,-0.082 0.091,0.048 0.128,0.16 0.08,0.254 l -0.345,0.667 c -0.905,1.726 -2.271,4.334 -1.583,5.962 0.274,0.65 0.844,1.095 1.742,1.36 0.1,0.029 0.157,0.134 0.128,0.235 -0.03,0.099 -0.134,0.158 -0.234,0.128 m -0.014,-8.398 c -0.152,-0.522 0.064,-0.96 0.274,-1.387 0.167,-0.341 0.325,-0.661 0.293,-1.009 -0.008,-0.08 0.051,-0.151 0.13,-0.159 0.08,-0.007 0.151,0.052 0.159,0.132 0.04,0.43 -0.143,0.803 -0.322,1.165 -0.193,0.392 -0.376,0.764 -0.256,1.177 0.022,0.077 -0.021,0.157 -0.1,0.18 -0.076,0.023 -0.157,-0.022 -0.178,-0.099 M 26.973,30.918 c -0.025,-0.024 -0.025,-0.064 -10e-4,-0.088 4.548,-4.65 9.2,-9.266 13.699,-13.729 l 4.94,-4.906 c 0.039,-0.019 0.35,-0.105 0.35,-0.105 L 46.258,12 c 0.032,-0.01 0.058,0.011 0.068,0.044 10e-4,0.005 10e-4,0.01 10e-4,0.015 0,0.028 -0.024,0.056 -0.053,0.066 l -0.268,0.081 -0.347,0.095 v 10e-4 c 0,0.021 -4.9,4.888 -4.9,4.888 -4.499,4.463 -9.151,9.078 -13.697,13.727 -0.025,0.025 -0.065,0.025 -0.089,10e-4 M 49.297,-0.756 c -0.031,-0.105 0.018,-0.213 0.123,-0.245 l 0.599,-0.181 c 0.336,-0.092 0.655,-0.179 0.95,-0.334 0.096,-0.051 0.216,-0.013 0.267,0.083 0.05,0.099 0.014,0.218 -0.084,0.269 -0.333,0.175 -0.687,0.273 -1.029,0.367 l -0.57,0.171 c -0.106,0.032 -0.226,-0.024 -0.256,-0.13 M 48.194,0.559 C 48.163,0.516 48.171,0.457 48.214,0.426 48.397,0.292 48.527,0.162 48.62,0.02 c 0.028,-0.043 0.087,-0.056 0.131,-0.028 0.043,0.029 0.056,0.088 0.026,0.131 -0.105,0.163 -0.249,0.308 -0.452,0.456 -0.042,0.031 -0.101,0.023 -0.131,-0.02 M 46.16,-0.243 c -0.102,-0.02 -0.171,-0.118 -0.151,-0.222 0.018,-0.102 0.117,-0.171 0.22,-0.153 0.447,0.083 0.903,0.015 1.386,-0.055 0.404,-0.059 0.82,-0.12 1.24,-0.091 0.105,0.007 0.184,0.098 0.176,0.203 -0.008,0.104 -0.098,0.185 -0.202,0.177 -0.381,-0.027 -0.758,0.028 -1.159,0.087 -0.492,0.072 -1.001,0.147 -1.51,0.054 M 43.27,4.351 C 43.247,4.315 43.256,4.269 43.29,4.246 44.036,3.741 44.747,3.167 45.434,2.611 l 1.575,-1.236 c 0.033,-0.025 0.079,-0.018 0.103,0.015 0.026,0.032 0.018,0.081 -0.014,0.107 l -1.571,1.23 C 44.838,3.285 44.125,3.862 43.374,4.37 43.339,4.393 43.294,4.384 43.27,4.351 M 16.443,29.185 C 16.36,29.1 16.362,28.963 16.448,28.88 c 3.878,-3.779 7.976,-7.446 11.939,-10.994 2.605,-2.333 5.299,-4.743 7.9,-7.159 0.088,-0.081 0.224,-0.076 0.304,0.011 0.081,0.087 0.076,0.224 -0.011,0.305 -2.604,2.419 -5.3,4.832 -7.907,7.165 -3.959,3.544 -8.054,7.209 -11.926,10.982 -0.085,0.083 -0.221,0.081 -0.304,-0.005 M 31.534,13.835 C 31.507,13.8 31.515,13.748 31.55,13.721 l 2.109,-1.668 c 0.791,-0.656 1.61,-1.334 2.472,-1.923 0.037,-0.026 0.086,-0.016 0.111,0.021 0.025,0.036 0.015,0.085 -0.021,0.111 -0.857,0.586 -1.673,1.26 -2.461,1.914 l -2.117,1.675 c -0.035,0.026 -0.082,0.018 -0.109,-0.016 M 38.983,8.349 C 38.876,8.256 38.873,8.087 38.966,7.98 L 39.999,6.807 41.404,5.246 C 41.5,5.141 41.653,5.142 41.758,5.237 41.863,5.333 41.862,5.505 41.767,5.61 L 40.388,7.142 39.34,8.332 C 39.246,8.438 39.09,8.443 38.983,8.349 M 42.922,3.544 C 42.804,3.46 42.777,3.295 42.862,3.178 c 0.69,-0.957 1.189,-1.774 1.57,-2.573 0.062,-0.131 0.219,-0.187 0.349,-0.124 0.13,0.062 0.186,0.22 0.124,0.351 -0.395,0.828 -0.909,1.67 -1.618,2.654 -0.085,0.118 -0.248,0.144 -0.365,0.058 m -14.1,12.431 c -0.02,-0.031 0.001,-0.078 0.032,-0.098 l 0.466,-0.301 0.385,-0.269 c 0.029,-0.022 0.065,-0.009 0.085,0.02 0.021,0.029 0.006,0.075 -0.023,0.097 L 29.403,15.68 28.9,16.001 c -0.03,0.02 -0.058,0.005 -0.078,-0.026 m -4.295,3.617 c -0.034,-0.032 -0.038,-0.085 -0.006,-0.119 0.324,-0.358 0.709,-0.648 1.083,-0.928 0.427,-0.318 0.868,-0.65 1.204,-1.078 0.028,-0.036 0.082,-0.044 0.117,-0.014 0.037,0.029 0.043,0.082 0.014,0.118 -0.349,0.446 -0.799,0.783 -1.234,1.11 -0.367,0.275 -0.747,0.559 -1.059,0.905 -0.032,0.035 -0.084,0.037 -0.119,0.006 m 4.302,-19.981 c -0.022,-0.026 -0.02,-0.066 0.006,-0.088 l 0.633,-0.551 c 0.685,-0.59 1.394,-1.199 1.935,-1.884 0.023,-0.026 0.062,-0.03 0.089,-0.009 0.028,0.022 0.032,0.062 0.011,0.089 -0.549,0.692 -1.263,1.308 -1.953,1.9 l -0.631,0.549 c -0.026,0.023 -0.066,0.02 -0.09,-0.006 m -43.77,12.092 c -0.04,-0.092 0.003,-0.2 0.095,-0.24 9.352,-4.016 19.191,-7.541 30.075,-10.776 0.096,-0.029 0.198,0.026 0.227,0.123 0.027,0.097 -0.027,0.199 -0.123,0.228 -10.871,3.23 -20.696,6.751 -30.035,10.761 -0.092,0.04 -0.2,-0.003 -0.239,-0.096 m -3.697,1.715 c -0.034,-0.078 0.033,-0.181 0.111,-0.217 l 0.355,-0.162 0.17,-0.106 c 0.073,-0.047 0.167,-0.022 0.213,0.052 0.046,0.073 0.02,0.171 -0.053,0.218 l -0.16,0.1 -0.461,0.206 c -0.079,0.034 -0.138,-0.01 -0.175,-0.091 m 26.26,1.408 C 7.602,14.786 7.619,14.735 7.66,14.716 15.311,11.035 21.611,5.882 26.247,1.805 26.281,1.774 26.333,1.778 26.362,1.812 26.393,1.847 26.389,1.899 26.355,1.93 21.713,6.014 15.399,11.175 7.731,14.865 7.69,14.885 7.641,14.868 7.622,14.826 m -8.073,2.986 c -0.003,-0.073 0.054,-0.135 0.127,-0.139 0.925,-0.039 1.844,-0.399 2.731,-0.745 l 1.531,-0.541 c 0.07,-0.025 0.136,0.013 0.161,0.083 0.025,0.069 -0.02,0.146 -0.088,0.171 l -1.507,0.534 c -0.908,0.354 -1.849,0.721 -2.817,0.763 -0.073,0.004 -0.134,-0.052 -0.138,-0.126 M -11.7,18.23 c -0.102,-0.042 -0.151,-0.158 -0.11,-0.259 0.042,-0.103 0.159,-0.152 0.259,-0.11 2.965,1.211 6.811,1.212 10.288,0.002 0.104,-0.035 0.218,0.019 0.253,0.124 0.036,0.104 -0.018,0.219 -0.123,0.254 -3.565,1.24 -7.515,1.237 -10.567,-0.011 m -6.534,16.575 c -0.083,-0.094 -0.074,-0.237 0.018,-0.319 1.471,-1.307 2.872,-2.768 4.228,-4.181 l 2.376,-2.436 c 0.088,-0.09 0.227,-0.088 0.316,0 0.089,0.087 0.088,0.233 10e-4,0.321 l -2.368,2.428 c -1.361,1.42 -2.77,2.888 -4.252,4.207 -0.095,0.082 -0.236,0.073 -0.319,-0.02 m 13.676,-4.498 c -0.098,-0.113 -0.088,-0.285 0.024,-0.384 l 0.666,-0.589 c 1.649,-1.458 3.354,-2.966 4.965,-4.515 0.108,-0.104 0.28,-0.101 0.382,0.008 0.103,0.107 0.1,0.28 -0.008,0.383 -1.618,1.559 -3.327,3.07 -4.981,4.532 l -0.666,0.588 c -0.111,0.1 -0.283,0.088 -0.382,-0.023 M 9.116,20.736 C 9.07,20.703 9,20.722 8.967,20.768 L 9.55,19.961 c 0.034,-0.046 0.093,-0.047 0.139,-0.015 0.046,0.034 0.049,0.109 0.017,0.156 l -0.562,0.774 c 0.034,-0.047 0.019,-0.105 -0.028,-0.14 m -37.087,25.348 c -0.047,-0.096 -0.008,-0.213 0.089,-0.26 14.086,-6.922 25.39,-14.358 34.56,-22.733 0.08,-0.073 0.202,-0.067 0.274,0.013 0.071,0.078 0.066,0.201 -0.014,0.273 -9.196,8.402 -20.531,15.857 -34.65,22.796 -0.097,0.048 -0.212,0.008 -0.259,-0.089 m 87.684,-72.466 c -0.022,-0.044 0.018,-0.104 0.062,-0.126 l 0.253,-0.13 c -0.044,0.022 -0.05,0.069 -0.028,0.113 0.021,0.042 0.082,0.053 0.125,0.033 l -0.319,0.157 c -0.042,0.022 -0.072,-0.004 -0.093,-0.047 m 43.189,12.066 c -0.08,-0.072 -0.088,-0.195 -0.015,-0.277 1.581,-1.775 2.274,-4.207 2.701,-6.127 0.023,-0.106 0.128,-0.173 0.233,-0.149 0.106,0.024 0.173,0.129 0.149,0.234 -0.438,1.967 -1.151,4.46 -2.792,6.303 -0.072,0.081 -0.196,0.089 -0.276,0.016 M 76.995,0.386 C 76.878,0.308 76.846,0.148 76.924,0.031 c 0.753,-1.14 1.82,-2.541 3.4,-3.251 0.128,-0.058 0.28,0.001 0.337,0.128 0.058,0.13 -0.001,0.28 -0.129,0.339 -1.451,0.652 -2.424,1.917 -3.183,3.067 -0.078,0.118 -0.237,0.15 -0.354,0.072 m 7.573,9.752 C 84.458,10.052 84.438,9.893 84.522,9.782 L 84.81,9.409 85.788,8.167 c 0.087,-0.11 0.24,-0.124 0.35,-0.036 0.108,0.086 0.122,0.251 0.036,0.359 l -0.966,1.226 -0.287,0.376 c -0.085,0.11 -0.243,0.13 -0.353,0.046 M 4.118,-2.656 4.046,-2.8 C 4.126,-3.391 4.63,-3.555 5.334,-3.518 L 5.262,-3.375 5.334,-3.23 C 5.069,-2.827 4.772,-2.455 4.046,-2.513 Z M 28.233,0.359 C 28.043,0.337 27.802,0.943 27.661,0.503 27.852,0.524 28.193,0.02 28.233,0.359 M -0.534,0.503 C -0.97,0.687 -0.916,1.363 -1.535,1.365 -1.566,1.252 -1.655,1.197 -1.821,1.221 V 0.646 c 0.229,-0.16 1.26,-0.254 1.287,-0.143 M 1.899,40.278 C 1.771,40.472 1.21,41.029 1.327,40.854 1.626,40.404 1.99,40.143 1.899,40.278 m -1.144,1.293 c -0.215,0.303 0.731,-1.027 0,0 m 10.018,5.026 c 0.494,-0.673 1.312,-1.718 2.576,-1.149 0.069,1.409 -1.279,1.398 -2.433,1.58 l 0.071,-0.263 z m -12.452,4.738 v -0.143 c 1.936,0.294 2.801,-1.273 4.294,-1.866 1.897,-0.753 3.857,-0.743 5.581,-1.58 l -0.071,0.263 0.215,0.167 c -1.435,0.388 -3.193,2.068 -5.152,2.873 -1.609,0.661 -4.264,1.253 -5.009,0.286 z m 63.831,-71.08 c -0.032,-0.271 0.161,-0.316 0.144,-0.573 l 0.214,0.071 -0.072,-0.215 c 0.726,-0.121 1.472,-0.243 2.004,0.144 -0.369,0.705 -1.242,0.924 -2.146,0.717 l 0.07,-0.215 z M 56.57,-6.39 c 0.088,0.008 0.17,0.021 0.144,0.143 l -0.286,0.144 0.286,0.144 c -0.059,0.181 -0.185,0.293 -0.43,0.287 l -0.174,-0.195 -0.256,0.052 c 0.048,-0.336 0.148,-0.619 0.43,-0.719 l 0.071,0.216 z M 56.284,5.385 c 0.419,0.692 1.106,1.364 1.002,2.154 -0.248,1.902 -3.174,1.348 -4.15,0.144 L 53.208,7.61 53.136,7.539 C 53.241,5.874 54.107,4.972 56.141,5.242 L 56.069,5.457 Z M -14.989,6.39 c 0.274,-1.495 1.055,-1.785 2.147,-2.728 1.4,-1.208 2.039,-1.728 3.435,-2.729 2.921,-2.091 5.656,-3.902 8.873,-6.174 1.218,-0.86 3.117,-1.846 3.435,-2.728 0.202,-0.556 -0.019,-1.402 0.143,-2.011 0.322,-1.21 0.978,-1.87 2.004,-2.154 1.638,-0.454 2.691,0.426 2.72,1.867 0.042,2.179 -1.68,2.799 -4.009,3.016 -4.2,3.667 -9.579,6.468 -13.881,9.908 -0.649,0.518 -1.447,0.903 -2.005,1.436 -0.828,0.796 -1.178,2.075 -2.432,2.441 L -14.733,6.339 Z M 15.495,-8.256 c 0.212,1.384 0.927,4.36 -0.429,4.738 -1.689,0.472 -2.561,-3.697 -3.864,-3.016 l 0.071,-0.143 -0.071,-0.143 c 1.083,-0.781 1.93,-1.798 4.008,-1.58 l 0.071,0.214 z m 17.318,-3.16 c -1.008,0.287 -2.212,0.872 -3.292,0.288 l 0.072,-0.216 -0.072,-0.215 c 0.768,-0.562 2.008,-0.429 3.149,-0.287 l -0.072,0.263 z m 51.808,-27.426 c 0.881,-1.844 2.65,-3.481 4.724,-2.873 1.853,0.545 2.477,3.652 0.858,4.739 -2.265,1.523 -4.338,-1.149 -5.582,-1.579 l 0.072,-0.143 z m 12.166,5.887 v -0.288 c -1.51,0.64 -2.163,2.139 -3.435,3.016 l -0.101,-0.243 -0.186,-0.188 c 2.235,-2.736 4.846,-5.092 7.299,-7.611 -0.047,-1.292 -0.843,-1.834 -1.288,-2.727 H 98.79 l 0.071,-0.216 -0.214,-0.071 c 1.061,-2.477 2.84,-4.235 4.866,-5.745 0.258,-1.081 0.495,-2.184 1.861,-2.154 0.822,0.959 -0.424,1.841 -0.43,2.872 0.489,0.803 0.825,1.758 1.861,2.011 0.85,-0.973 2.505,-1.416 3.148,-3.016 0.598,-1.484 0.235,-3.028 1.002,-4.164 1.027,-1.522 4.692,-2.245 5.151,0.288 0.268,1.47 -0.793,2.866 -1.287,3.302 -1.083,0.959 -2.252,0.765 -3.721,1.436 -1.796,0.821 -2.824,2.95 -4.579,3.59 -1.254,1.997 -2.803,3.698 -5.153,4.594 -1.119,1.271 -2.346,2.433 -3.578,3.59 -0.03,0.88 -0.346,1.473 -0.858,1.867 v -0.143 z M 25.37,64.116 c -1.73,1.733 -3.756,3.276 -5.295,5.026 -0.938,1.067 -1.591,2.546 -3.148,2.728 l 0.071,-0.216 -0.214,0.072 c 0.434,-1.391 1.325,-1.904 2.289,-2.872 1.888,-1.894 3.886,-3.719 6.012,-5.169 l 0.014,0.301 z M 52.706,20.894 C 52.523,20.886 52.508,20.71 52.276,20.75 l 0.073,-0.264 -0.216,-0.167 c 0.322,-0.443 0.705,-0.826 1.145,-1.149 l 0.215,0.072 0.215,-0.072 c 0.304,0.839 -0.634,1.014 -0.716,1.867 L 52.921,20.821 Z M 16.784,64.833 c 0.56,0.834 -0.458,1.855 -1.289,1.293 -0.221,-1.084 0.521,-1.201 1.147,-1.436 v 0.143 z m 7.871,-6.174 c -0.35,0.941 -1.041,1.541 -2.432,1.436 v -0.143 h -0.144 c 0.305,-1.082 1.318,-1.453 2.576,-1.58 l -0.071,0.144 z M 47.983,34.248 c -1.211,4.193 -2.788,8.022 -6.01,10.195 l -0.101,-0.244 -0.186,-0.187 c 1.891,-3.367 3.999,-6.518 5.868,-9.908 l 0.167,0.216 z M 45.551,22.474 h 1.287 l -0.07,0.263 0.213,0.166 c -0.37,0.204 -0.61,0.537 -1.001,0.719 -0.084,-0.3 -0.301,-0.464 -0.429,-0.719 l 0.071,-0.215 z m 5.295,-23.982 c 0.237,-0.287 0.383,-0.666 0.859,-0.718 l -0.072,0.215 0.214,0.073 h 0.286 l -0.07,0.263 0.213,0.167 c -0.333,0.24 -0.77,0.375 -1.287,0.431 l 0.072,-0.263 z m -2.289,0.718 c 0.215,-0.213 0.628,-0.231 1,-0.287 l -0.071,0.264 0.214,0.167 c -0.139,0.482 -0.739,0.503 -1.001,0.861 V 0.072 h -0.142 v -0.431 l 0.286,-0.215 z M 16.784,29.222 c -0.655,1.453 -2.771,2.263 -3.148,3.877 -0.188,0.797 0.167,1.678 0,2.442 -0.626,2.849 -4.975,2.872 -4.866,-0.289 0.068,-2.011 2.09,-2.882 4.15,-2.871 1.182,-1.207 2.291,-2.487 3.578,-3.589 l 0.1,0.243 z M 39.396,8.257 c -0.894,1.017 -1.849,1.974 -2.862,2.871 l -0.1,-0.244 -0.186,-0.186 v -0.43 h -0.144 l 0.072,-0.073 -0.072,-0.071 C 37.075,9.422 37.862,8.537 38.967,7.97 l 0.186,0.186 z m 3.865,-4.739 c -0.044,0.336 -0.307,0.62 0.143,0.718 l -0.072,0.072 0.072,0.072 c -0.539,0.465 -1.113,0.894 -1.718,1.292 l -0.1,-0.243 -0.187,-0.187 c 0.414,-0.83 0.991,-1.497 1.576,-2.154 l 0.099,0.244 z m 1.144,-4.164 c 0.521,-0.244 1.01,-0.519 1.288,-1.005 l 0.167,0.215 0.263,-0.072 c -0.095,0.526 0.31,0.551 0.286,1.005 l -0.215,0.073 0.073,0.214 C 45.922,-0.274 45.955,0.047 45.551,-0.071 45.368,0.32 45.038,0.563 44.835,0.933 L 44.668,0.718 44.405,0.79 C 44.508,0.242 44.5,0.099 44.262,-0.359 l 0.216,-0.071 z m 32.13,-20.942 -0.215,-0.166 c 3.021,-1.637 0.76,-9.332 -1.287,-9.478 v -0.143 H 74.89 c 0.118,-0.841 -0.867,-1.329 -1.146,-1.292 -1.13,0.311 -0.204,1.774 0.144,2.297 v 0.143 h 0.142 c 0.089,2.783 -0.375,5.576 -0.857,8.185 1.067,0.044 2.192,0.584 3.005,0.432 l -0.052,0.256 0.194,0.174 c -0.026,0.313 0.118,0.457 0.43,0.43 -0.033,-0.254 0.145,-0.718 -0.286,-0.573 z m -28.624,4.358 0.072,-0.073 c 1.057,0.568 2.615,0.633 3.292,1.579 1.547,-0.073 2.808,-0.438 3.434,-1.436 2.359,0.316 3.746,-1.477 5.868,-1.866 l 0.072,0.215 0.215,-0.072 c 0.099,1.146 2.243,1.445 3.149,0.862 l 0.07,0.215 0.216,-0.072 c 0.579,0.856 2.367,0.856 3.435,0.718 0.342,-0.043 0.58,-0.315 1.001,-0.43 0.486,-0.133 0.99,0 1.288,-0.144 2.324,-1.123 3.708,-8.716 2.72,-10.913 l 0.071,-0.144 -0.071,-0.143 c 0.013,-3.213 -3.379,-6.861 -7.156,-6.462 -1.105,0.561 -0.138,3.392 -1.86,3.59 -1.861,0.212 -2.74,-2.755 -4.581,-3.016 -1.952,-0.276 -4.383,1.487 -5.724,2.585 -1.702,1.394 -2.734,2.633 -4.008,4.308 -0.632,0.226 -1.295,0.423 -1.86,0.718 -0.525,2.116 -0.272,5.051 -0.429,7.466 -0.06,0.904 -0.483,1.761 0,2.442 0.534,0.012 0.408,0.161 0.858,0 z m -4.793,3.804 c 0.639,-0.385 0.941,0.111 1.86,-0.287 0.274,-0.711 -0.215,-0.868 -0.429,-1.436 -0.938,0.114 -2.159,0.812 -1.431,1.723 m 10.018,-1.149 c -0.138,-0.7 -1.083,-0.254 -1.574,-0.143 -0.558,0.124 -1.188,0.422 -1.718,0.574 -1.1,0.315 -2.722,0.438 -3.006,1.436 -0.04,0.232 0.136,0.247 0.143,0.431 1.477,0.669 2.267,-0.94 3.579,-1.436 1.063,-0.403 1.929,0.05 2.576,-0.862 m -8.015,1.867 c -3.053,-0.187 -5.521,1.445 -5.296,5.025 3.507,0.736 5.507,-2.03 5.296,-5.025 M 15.066,0.79 c 1.324,-0.665 2.899,-1.033 4.438,-1.436 1.521,-0.398 3.033,-0.884 4.579,-1.292 3.607,-0.953 8.002,-2.13 10.591,-3.734 l 0.07,0.071 0.072,-0.071 v 0.287 c 2.458,-0.266 4.893,-1.307 4.294,-4.164 l 0.072,-0.073 -0.072,-0.07 c 0.415,-0.554 0.975,-1.459 0.429,-2.154 -1.964,0.04 -3.592,0.416 -5.581,0.43 l 0.072,-0.262 -0.216,-0.168 c 2.345,-0.788 4.777,-0.072 6.584,-1.006 0.81,-0.419 1.218,-1.49 1.861,-2.153 0.749,-0.774 1.697,-1.232 2.003,-2.155 0.573,0.08 0.96,0.504 1.575,0.144 0.693,-1.01 0.269,-2.121 0.286,-3.302 0.018,-1.335 0.453,-2.757 0.429,-4.165 -0.017,-1.064 0.132,-2.399 0,-3.302 -0.094,-0.655 -0.676,-1.245 -0.715,-1.868 -0.073,-1.137 0.6,-2.613 1.144,-3.446 1.263,-1.926 3.925,-3.623 7.013,-3.877 0.739,-0.061 1.527,0.059 2.29,0 2.457,-0.19 4.86,-1.05 7.299,-0.861 0.975,0.076 1.717,0.516 2.719,0.287 0.83,0.719 1.864,0.783 2.863,1.292 0.903,0.461 1.633,1.289 2.576,1.723 1.629,0.753 3.117,0.983 4.007,2.298 0.031,-0.113 0.119,-0.167 0.286,-0.143 l -0.071,0.215 0.215,-0.072 c 0.715,1.645 1.923,2.968 2.146,5.169 0.101,0.985 -0.323,1.783 0.286,2.872 2.147,-0.575 2.04,-3.409 4.724,-3.446 l 0.07,0.215 0.216,-0.071 c 0.181,1.942 -0.78,2.279 -1.718,3.159 -1.216,1.141 -2.072,2.365 -3.149,3.445 -0.538,0.541 -1.54,1.014 -1.431,2.011 1.415,1.671 2.198,-0.613 3.578,-1.867 0.469,-0.425 1.282,-0.856 1.575,-1.148 0.497,-0.495 0.807,-1.292 1.288,-1.58 0.704,-0.419 1.58,-0.357 2.29,-0.574 1.693,-0.516 2.356,-1.374 3.292,-2.441 l 0.167,0.215 0.261,-0.071 c -0.006,0.246 0.11,0.368 0.287,0.43 v 0.144 h 0.143 c -0.718,1.062 -2.087,1.252 -3.006,2.009 -1.224,1.015 -1.726,2.672 -3.006,3.592 -0.599,1.69 -2.018,2.138 -3.147,3.158 -0.575,0.519 -1.215,1.273 -1.575,1.867 -0.397,0.652 -0.414,1.341 -0.859,1.723 -0.691,0.595 -1.912,0.485 -2.432,1.292 l -0.144,-0.072 -0.142,0.072 v -0.574 c -2.235,-0.558 -4.203,1.753 -3.435,3.734 H 72.6 l -0.073,0.143 0.073,0.143 c -0.605,0.434 -1.039,1.081 -1.718,1.724 -0.602,0.57 -1.517,0.961 -1.861,1.723 -0.22,0.49 -0.248,1.532 -0.429,2.441 -0.284,1.425 -0.775,2.424 -0.429,3.733 L 67.948,0.862 67.876,1.077 H 67.305 L 67.138,0.862 66.875,0.933 c 0.06,-1.11 1.036,-1.994 0.716,-3.015 -0.614,0.331 -0.794,1.261 -1.146,2.011 -0.43,0.922 -1.275,2.014 -0.858,2.871 0.691,-0.216 0.659,-1.157 1.145,-1.579 l 0.166,0.215 0.263,-0.071 c -0.1,1.412 -1.812,3.046 -2.29,5.025 -0.38,1.576 0.14,3.662 -1.001,4.452 -0.674,0.465 -1.513,0.133 -2.291,0.43 -0.784,0.964 -1.262,2.637 -1.859,4.452 -0.517,1.565 -1.324,3.439 -1.432,4.882 -0.13,1.725 0.566,3.125 -0.143,4.308 -0.307,0.513 -1.245,0.947 -1.861,0.861 -2.821,-0.391 -0.18,-4.307 -0.286,-5.312 -0.064,-0.603 -0.5,-1.177 -1.145,-1.437 l 0.072,-0.214 -0.216,0.071 c 0.044,-0.378 -0.198,-0.471 -0.571,-0.431 l -0.215,-0.072 -0.215,0.072 c 0.323,-1.303 0.688,-2.565 1.288,-3.59 l 0.072,0.216 0.214,-0.072 v 0.43 c 1.028,0.163 2.084,-0.509 2.719,-1.292 1.223,-1.504 1.955,-3.819 3.006,-6.03 1.55,-3.262 3.401,-5.202 3.722,-8.904 l 0.261,0.072 0.167,-0.215 c 0.201,0.037 0.164,0.315 0.286,0.43 0.719,-0.621 1.531,-1.909 1.432,-2.872 l 0.071,-0.215 0.073,-0.214 c 0.32,-0.684 1.326,-0.68 1.287,-1.725 -1.547,-1.936 -4.831,-0.138 -5.295,1.436 -0.311,1.054 10e-4,2.272 0,3.447 h 0.142 l -0.07,0.143 -0.072,0.144 C 62.155,0.608 61.746,0.652 61.007,1.365 V 1.221 H 60.864 C 60.59,0.442 59.558,0.201 58.717,-0.359 l -0.187,-0.187 -0.242,-0.1 c 0.492,-0.97 1.212,-2.221 1.002,-3.447 -1.305,-0.024 -2.658,1.039 -3.864,1.58 0.017,0.701 0.718,0.717 0.858,1.293 -0.154,1.041 -0.795,1.596 -1.717,1.866 -0.177,1.196 -1.636,2.361 -0.859,3.59 h 0.144 l -0.073,0.263 0.215,0.168 c -0.419,1.304 -2.414,1.789 -1.861,3.59 l -0.07,0.072 0.07,0.072 c -0.723,0.693 -0.748,1.996 -1.001,3.445 -0.182,1.045 -0.409,2.164 -0.572,3.16 -0.375,2.292 -1.006,4.57 -0.573,6.318 0.197,-0.006 0.315,0.068 0.429,0.144 l -0.071,0.216 -0.072,0.214 c -1.317,0.606 -1.936,4.794 0.287,4.884 l 0.214,0.071 0.215,-0.071 c -0.571,2.25 -1.261,4.382 -2.432,6.03 l -0.167,-0.215 -0.264,0.072 v -0.288 c -1.416,-1.019 -2.602,-2.271 -3.435,-3.877 1.277,-1.283 4.379,-3.219 2.72,-5.601 h -0.143 l 0.072,-0.215 0.071,-0.214 c 1.436,-0.887 1.492,-3.428 1.86,-5.602 0.416,-2.447 0.987,-5.147 1.002,-6.748 V 9.98 H 50.13 c 0.008,-0.183 0.183,-0.199 0.143,-0.431 -0.144,0 -0.17,-0.116 -0.286,-0.143 L 50.059,9.19 49.844,9.119 c 0.12,-0.167 0.189,-0.385 0.143,-0.718 L 50.059,8.185 49.844,8.114 c 0.364,-0.774 1.516,-1.203 2.003,-2.155 0.327,-0.637 0.449,-1.84 0.859,-2.871 0.635,-1.594 1.957,-2.936 1.002,-4.452 -0.168,0.022 -0.406,-0.025 -0.43,0.144 L 53.136,-1.292 52.992,-1.22 C 53,-1.467 52.882,-1.588 52.706,-1.651 l 0.072,-0.215 0.072,-0.216 c 0.15,-0.854 1.231,-0.774 1.574,-1.436 l 0.215,0.072 0.214,-0.072 c 1.078,0.238 5.882,-2.685 6.154,-3.302 0.255,-0.58 0.17,-1.477 0,-2.011 h -0.43 l 0.072,-0.215 -0.215,-0.072 c 0.51,-0.664 0.145,-2.143 -0.858,-2.154 l 0.071,-0.215 -0.213,-0.072 c 0.032,-0.112 0.003,-0.283 0.142,-0.287 -0.406,-2.284 -3.812,-4.733 -5.582,-2.585 0.476,1.803 1.814,1.742 1.574,3.734 -0.176,1.472 -1.826,2.322 -3.005,2.584 -1.099,0.244 -2.353,-0.091 -3.292,0.574 -0.814,0.577 -1.167,2.156 -1.574,3.015 -0.487,1.031 -1.002,2.069 -1.574,3.016 l -0.167,-0.215 -0.263,0.072 c 0.573,-2.154 1.898,-3.554 2.433,-5.745 -1.68,-1.187 -2.867,0.192 -3.864,1.006 -1.106,0.904 -2.516,1.659 -3.148,2.728 0.426,0.673 1.322,0.877 1.145,2.154 l -0.215,0.072 0.071,0.216 c -0.486,-0.135 -1.049,-0.192 -1.573,-0.288 -0.4,-0.46 -0.222,-1.501 -0.717,-1.867 -2.223,-0.741 -4.831,0.678 -6.011,2.298 -1.015,1.395 -1.733,4.119 -2.576,6.462 -0.342,0.954 -0.733,2.044 -1.144,3.016 -0.513,1.212 -1.198,2.31 -1.288,3.016 -0.084,0.657 0.143,1.348 0.142,2.009 -0.001,0.974 -0.277,1.728 -0.142,2.442 h 0.142 l -0.07,0.072 0.07,0.071 c -0.694,0.596 -1.213,1.367 -2.146,1.723 l 0.071,-0.215 -0.214,0.072 V 17.16 C 21.612,17.124 22.786,10.2 27.946,10.842 29.53,8.506 30.55,4.103 31.524,0.646 c 0.348,-1.229 1.305,-3.07 0,-3.446 l -0.07,-0.072 -0.072,0.072 v -0.287 c -2.494,0.514 -4.858,1.158 -7.013,2.01 0.027,1.392 0.108,2.785 -1.145,2.872 -1.478,0.102 -1.158,-1.518 -2.289,-2.154 -1.797,0.455 -3.986,1.258 -5.582,1.436 L 15.281,0.862 Z m -33.203,12.206 c 0.484,-1.255 -0.577,-3.171 1.001,-3.303 l 0.073,0.215 0.214,-0.072 c 0.304,0.94 1.082,1.404 2.147,1.581 l -0.071,0.215 0.071,0.214 c -0.35,1.201 -1.699,1.935 -3.291,1.436 l 0.07,-0.214 z M 3.759,16.442 C 3.635,14.245 6.144,13.614 7.48,14.862 7.513,14.75 7.602,14.695 7.768,14.718 l -0.072,0.072 0.072,0.072 c -0.507,0.825 -0.336,2.029 -1.289,2.442 -0.924,0.4 -1.706,-0.08 -2.577,-0.575 l 0.073,-0.215 z m -5.152,1.436 c -0.021,-0.358 0.226,-0.444 0.287,-0.718 0.58,-0.055 0.659,0.392 1.002,0.574 l -0.215,0.072 0.072,0.216 c -0.406,0.023 -0.597,0.264 -1.003,0.286 l 0.052,-0.256 z m -22.182,-2.154 c 1.365,-1.216 3.322,-1.836 5.152,-2.585 l -0.072,0.215 0.216,0.072 c -0.291,1.391 1.799,1.479 3.006,2.01 1.549,0.686 2.795,2.158 3.862,2.442 l -0.214,0.167 0.071,0.263 c -1.736,-0.411 -2.723,-1.575 -4.436,-2.01 -1.603,1.419 -4.187,4.496 -7.013,2.442 -0.395,-0.657 -0.172,-1.933 -0.429,-2.729 l 0.072,-0.215 z m -21.754,17.088 c -0.002,-0.719 0.457,-0.979 0.859,-1.293 l 0.072,0.216 0.213,-0.072 c -0.051,0.619 -0.294,1.044 -0.714,1.292 l -0.167,-0.215 z m 33.633,-4.883 c 0.544,-1.197 1.721,-3.158 3.291,-2.01 -0.034,1.69 -1.784,1.656 -2.863,2.298 l -0.185,-0.188 z m -8.158,8.329 v -0.287 c -1.35,-1.983 -3.241,0.026 -4.867,0.574 l 0.052,-0.256 -0.194,-0.175 c 0.749,-0.907 2.048,-1.142 3.291,-1.723 0.857,-0.4 1.284,-0.883 1.861,-0.861 0.708,0.027 1.065,0.602 1.718,0.861 l -0.072,0.263 0.214,0.169 c -0.464,0.586 -0.99,1.113 -1.575,1.578 l -0.166,-0.214 z M 1.04,24.914 c 0.414,-0.838 1.813,-3.071 2.862,-1.436 0.32,1.136 -1.485,1.379 -2.432,1.723 L 1.284,25.015 Z m -26.905,17.518 c -0.008,-0.183 -0.184,-0.199 -0.143,-0.43 -3.467,0.243 -8.55,-0.759 -11.163,0.718 l 0.07,-0.216 -0.213,-0.072 c 0.308,-0.351 0.106,-1.061 -0.43,-1.004 -0.319,0.208 -0.379,0.673 -0.43,1.148 l -0.215,0.072 0.073,0.216 c -2.648,0.593 -6.062,2.777 -8.873,1.004 l 0.213,-0.166 -0.07,-0.264 c 0.197,0.006 0.314,-0.068 0.429,-0.144 -0.158,-2.887 0.216,-4.319 1.718,-5.025 3.185,-1.499 5.085,1.47 7.012,2.297 1.781,0.765 3.98,0.65 5.295,0 l 0.167,0.215 0.263,-0.071 v 0.574 c 3.396,0.245 7.948,0.415 9.302,-1.867 l 0.168,0.215 0.261,-0.071 c -0.009,0.25 0.033,0.446 0.143,0.574 1.797,-0.114 3.485,-0.995 5.01,-1.722 C -12.435,36.099 -8.445,33 -4.54,29.94 l 0.185,0.186 0.243,0.101 c -4.19,3.772 -8.588,7.267 -14.167,9.478 -2.389,0.944 -5.925,1.354 -7.3,3.015 L -25.65,42.504 Z M 6.622,23.047 c 0.674,-0.856 1.109,-1.95 2.29,-2.297 l 0.144,0.071 0.142,-0.071 c -0.256,1.417 -1.457,1.888 -2.29,2.728 L 6.809,23.234 Z m -37.067,23.981 c 0.5,-0.695 1.195,-1.195 1.861,-1.724 l 0.215,0.072 0.213,-0.072 c -0.005,0.199 0.068,0.316 0.143,0.432 h 0.287 l -0.071,0.263 0.214,0.167 c -0.688,0.508 -1.595,0.793 -2.433,1.149 l -0.185,-0.187 z m -2.576,2.728 v -0.43 c -0.183,-0.009 -0.199,-0.184 -0.429,-0.144 l 0.071,-0.264 -0.215,-0.167 c 0.617,-0.482 1.503,-0.692 2.291,-1.005 l 0.185,0.187 0.243,0.1 c -0.561,0.682 -1.18,1.304 -1.859,1.867 l -0.072,-0.216 z m -18.55,20.896 0.071,0.215 0.214,0.071 c -0.642,0.84 -0.521,2.444 -0.716,3.734 -2.071,2.63 -1.907,0 -2.862,0 0.378,-2.787 2.307,-2.568 3.293,-4.02 m 140.2,-119.258 c -0.101,-0.498 0.502,-0.516 0.716,-0.289 0.1,0.498 -0.503,0.516 -0.716,0.289 m 8.587,2.727 c 0.413,-0.343 1.18,-0.121 1.002,0.575 -0.17,0.165 -0.506,0.162 -0.86,0.143 0.059,-0.345 -0.26,-0.313 -0.142,-0.718 m -4.294,1.58 H 92.35 c -0.228,-0.667 0.739,-0.499 0.572,0 m -19.034,1.436 c 0.185,0.191 0.188,0.534 -0.144,0.574 -0.185,-0.19 -0.188,-0.534 0.144,-0.574 m -8.445,3.303 h 0.716 c 0.06,0.49 -0.043,0.818 -0.572,0.718 -0.12,-0.167 -0.19,-0.386 -0.144,-0.718 m 10.162,3.733 c 0.356,-0.021 0.594,0.075 0.715,0.287 -0.27,-0.064 -0.862,0.196 -0.715,-0.287 M 45.98,-36.545 c 0.389,-0.286 1.375,-0.211 1.288,0.43 -0.075,0.214 -0.211,0.363 -0.287,0.575 -0.782,0.115 -1.115,-0.22 -1.001,-1.005 m 42.219,2.584 h 0.43 v 0.287 h -0.43 z m -7.727,1.437 c -0.028,0.212 -0.347,0.131 -0.574,0.144 -0.305,-0.529 0.729,-0.649 0.574,-0.144 m -46.658,0.287 c -0.139,1.954 -1.696,-0.76 0,0 m 81.291,1.292 c 0.205,-0.034 0.242,-0.236 0.43,-0.287 0.044,0.194 0.204,0.275 0.143,0.574 -0.326,0.041 -0.537,-0.034 -0.573,-0.287 m -83.581,0.862 c -0.122,-0.543 0.641,-0.509 0.86,-0.287 0.122,0.543 -0.642,0.508 -0.86,0.287 m 55.673,0.717 h 0.286 c 0,0.145 0.117,0.172 0.144,0.288 -0.183,0.008 -0.198,0.183 -0.43,0.144 z m -27.12,2.801 -0.215,0.072 c 0.072,-0.599 -0.419,-0.633 -0.286,-1.292 0.284,-0.002 0.182,-0.392 0.572,-0.288 0.599,0.503 1.002,1.581 -0.143,1.724 z m -10.663,-0.646 c 2.476,-0.069 2.791,4.185 -0.143,3.59 -2.338,-0.475 -1.856,-3.534 0.143,-3.59 m 19.464,5.169 c 0.19,-0.186 0.533,-0.189 0.573,0.144 -0.19,0.186 -0.532,0.189 -0.573,-0.144 m -1.002,0.288 c -0.149,-0.834 0.621,-0.06 0,0 m -52.953,0.574 c 0.219,-1.479 2.649,-1.329 2.576,0.286 -0.04,0.896 -0.893,1.438 -1.86,1.006 -0.777,-0.346 -0.78,-0.856 -0.716,-1.292 m -1.001,3.015 c 0.58,-0.055 0.997,0.052 1.001,0.575 -0.109,0.37 -0.457,0.499 -1.001,0.43 -0.205,-0.191 -0.205,-0.814 0,-1.005 m -0.573,2.298 c 0.338,0.003 0.422,-0.247 0.859,-0.144 1.044,0.868 -1.229,1.892 -0.859,0.144 m 92.168,-4.738 v -2.298 c -0.288,-0.695 -1.278,-1.231 -1.575,-2.154 -0.592,-1.844 0.262,-3.785 2.003,-3.59 1.28,0.143 1.888,1.67 1.576,3.446 -0.125,0.701 -0.894,1.337 -1.146,2.154 -0.304,0.984 0.06,1.813 -0.43,2.585 l -0.166,-0.216 z m -2.485,6.143 0.195,0.174 c -0.007,0.567 -0.293,0.856 -0.859,0.862 -0.212,-0.66 0.079,-1.121 0.715,-1.292 z m -92.974,1.18 c -0.067,-0.449 0.304,-0.46 0.715,-0.431 0.161,0.581 -0.44,0.709 -0.715,0.431 m 0.428,5.026 h 0.287 v 0.287 h -0.287 z m 7.013,3.732 h 0.573 c 0.125,0.462 -0.22,0.45 -0.43,0.575 -0.044,-0.194 -0.204,-0.275 -0.143,-0.575 m -7.013,0.72 V -4.38 c 0.411,-0.37 0.965,-0.012 1.003,0.431 -0.203,0.217 -0.696,0.454 -1.003,0.145 m 66.264,0.286 c 0.204,-0.035 0.241,-0.236 0.429,-0.286 0.045,0.194 0.204,0.273 0.143,0.574 -0.325,0.04 -0.537,-0.035 -0.572,-0.288 M 47.983,0.933 c -0.266,-0.137 -0.478,0.43 -0.572,0 0.087,-0.04 0.551,-0.357 0.572,0 M 6.622,2.082 C 7.29,2.085 7.29,2.797 6.622,2.8 6.438,2.612 6.438,2.271 6.622,2.082 m 3.292,1.58 c 0.582,-0.056 0.997,0.052 1.002,0.574 -0.238,0.869 -1.623,0.24 -1.002,-0.574 m -25.761,0.574 v 0.287 c -0.264,0.477 -0.698,-0.43 0,-0.287 M -7.26,4.38 h 0.715 c 0.069,0.169 0.153,0.326 0.286,0.431 C -6.33,6.072 -8.189,5.242 -7.26,4.38 M 7.48,4.093 C 8.209,3.989 8.781,4.612 8.34,5.672 6.61,6.59 6.202,4.274 7.48,4.093 M 5.478,6.39 c 0.19,-0.205 0.81,-0.205 1.001,0 0.293,1.066 -1.325,1.164 -1.001,0 m 12.594,3.303 h 0.285 c 0.009,0.183 0.185,0.198 0.144,0.431 H 18.072 Z M 7.768,10.268 C 8.197,9.854 8.911,9.957 8.77,10.842 8.374,11.22 7.639,11.14 7.768,10.268 m -3.15,0.43 C 4.597,10.34 4.843,10.253 4.905,9.98 5.486,9.923 5.902,10.032 5.907,10.555 5.815,11.238 4.86,11.253 4.618,10.698 m 10.161,2.584 h 0.287 v 0.288 h -0.287 z m -26.19,-0.286 c 0.16,-0.03 0.223,-0.16 0.287,-0.288 0.449,-0.068 0.559,0.205 0.859,0.288 0.193,1.028 -1.395,1.172 -1.146,0 M 80.185,-3.087 c 0.506,-1.048 1.959,-2.536 3.292,-1.437 0.342,1.89 -1.381,2.098 -2.863,1.724 l -0.186,-0.186 z m -3.048,3.26 0.185,0.186 c -1.106,2.194 -2.007,5.359 -2.718,8.042 -0.253,0.953 -0.617,2.03 -0.716,2.871 -0.285,2.404 0.034,4.28 -1.288,5.026 -2.048,1.158 -4.158,-0.474 -3.722,-2.872 0.359,-1.975 2.419,-2.254 4.151,-3.015 1.296,-3.534 2.009,-7.654 4.007,-10.482 z m 8.63,8.084 C 85.977,7.34 86.775,6.067 87.77,6.82 87.819,7.924 86.89,8.044 86.196,8.401 L 85.98,8.329 Z m -1.045,1.68 0.185,0.187 c -0.19,0.73 -1.188,1.488 -1.43,2.584 -0.144,0.652 0.113,1.249 0,1.867 -0.601,3.3 -5.156,2.951 -4.294,-0.575 0.689,-1.318 1.896,-2.118 3.721,-2.297 0.566,-0.677 0.996,-1.49 1.717,-2.01 z m -44.753,11.1 c 0.182,-0.195 0.701,-0.222 0.716,0.144 -0.183,0.195 -0.703,0.221 -0.716,-0.144 M -2.25,20.894 c 0.449,-0.222 0.798,-0.092 1.144,0.143 v 0.718 c -0.539,0.713 -1.763,0.014 -1.144,-0.861 m -0.287,3.015 h -0.572 c -0.228,-0.668 0.739,-0.498 0.572,0 m -9.59,1.148 c -2.102,0.783 -0.264,-2.165 0,0 m -20.322,1.006 v -0.431 c 1.038,-0.742 1.038,1.174 0,0.431 m 70.557,2.298 h 0.286 v 0.286 h -0.286 z m 0.144,2.154 c -0.533,-1.114 0.417,-1.71 1.287,-1.868 0.362,1.026 -0.042,2.031 -1.287,1.868 m -69.698,0.143 c -0.057,-0.582 0.051,-1.001 0.571,-1.005 0.521,0.004 0.629,0.423 0.572,1.005 -0.326,0.092 -0.862,0.285 -1.143,0 m -8.587,1.723 c 0.589,1.012 -1.173,1.602 -1.289,0.431 0.167,-0.658 0.745,-0.823 1.289,-0.431 m 62.827,4.596 c -0.065,-0.45 0.307,-0.46 0.716,-0.432 0.16,0.581 -0.439,0.71 -0.716,0.432 m -29.91,0.717 c 0.123,-0.21 0.214,-0.455 0.571,-0.43 0.21,0.124 0.454,0.215 0.43,0.575 -0.169,0.505 -1.024,0.565 -1.001,-0.145 m 27.335,0.863 h 0.429 v 0.286 h -0.429 z m -6.155,6.461 v -0.575 c -0.41,-0.028 -0.781,-0.018 -0.715,0.431 0.166,0.12 0.382,0.189 0.715,0.144"
             style="fill:#262626;fill-opacity:1;fill-rule:nonzero;stroke:none"
             id="path130"
             inkscape:connector-curvature="0" />
        </g>
      </g>
    </g>
  </g>
</svg>
