<?xml version="1.0" encoding="UTF-8" standalone="no"?>
<!-- Created with Inkscape (http://www.inkscape.org/) -->

<svg
   xmlns:dc="http://purl.org/dc/elements/1.1/"
   xmlns:cc="http://creativecommons.org/ns#"
   xmlns:rdf="http://www.w3.org/1999/02/22-rdf-syntax-ns#"
   xmlns:svg="http://www.w3.org/2000/svg"
   xmlns="http://www.w3.org/2000/svg"
   xmlns:sodipodi="http://sodipodi.sourceforge.net/DTD/sodipodi-0.dtd"
   xmlns:inkscape="http://www.inkscape.org/namespaces/inkscape"
   width="64.79351mm"
   height="42.82803mm"
   viewBox="0 0 64.79351 42.82803"
   version="1.1"
   id="svg4567"
   inkscape:version="0.92.2 2405546, 2018-03-11"
   sodipodi:docname="paint-big11.svg">
  <defs
     id="defs4561">
    <clipPath
       clipPathUnits="userSpaceOnUse"
       id="clipPath30">
      <path
         d="M 0,600 H 600 V 0 H 0 Z"
         id="path28"
         inkscape:connector-curvature="0" />
    </clipPath>
  </defs>
  <sodipodi:namedview
     id="base"
     pagecolor="#ffffff"
     bordercolor="#666666"
     borderopacity="1.0"
     inkscape:pageopacity="0.0"
     inkscape:pageshadow="2"
     inkscape:zoom="0.35"
     inkscape:cx="-94.69842"
     inkscape:cy="415.22058"
     inkscape:document-units="mm"
     inkscape:current-layer="layer1"
     showgrid="false"
     inkscape:window-width="3840"
     inkscape:window-height="2095"
     inkscape:window-x="0"
     inkscape:window-y="0"
     inkscape:window-maximized="1" />
  <metadata
     id="metadata4564">
    <rdf:RDF>
      <cc:Work
         rdf:about="">
        <dc:format>image/svg+xml</dc:format>
        <dc:type
           rdf:resource="http://purl.org/dc/dcmitype/StillImage" />
        <dc:title></dc:title>
      </cc:Work>
    </rdf:RDF>
  </metadata>
  <g
     inkscape:label="Layer 1"
     inkscape:groupmode="layer"
     id="layer1"
     transform="translate(-27.323481,-215.86575)">
    <g
       transform="matrix(0.35277777,0,0,-0.35277777,-46.113064,264.18012)"
       id="g24">
      <g
         id="g26"
         clip-path="url(#clipPath30)">
        <g
           id="g32"
           transform="translate(242.5361,57.5371)">
          <path
             d="m 0,0 -0.846,-0.388 -0.755,-0.349 c -0.144,-0.066 -0.222,-0.244 -0.156,-0.388 0.068,-0.145 0.22,-0.214 0.364,-0.148 l 1.597,0.734 c 0.144,0.065 0.225,0.244 0.159,0.388 C 0.297,-0.005 0.145,0.064 0,0 M 86.127,30.336 84.44,29.792 82.941,29.338 c -0.116,-0.036 -0.164,-0.151 -0.128,-0.267 0.036,-0.118 0.176,-0.176 0.291,-0.14 l 1.446,0.436 1.762,0.57 c 0.116,0.038 0.153,0.151 0.116,0.267 -0.036,0.115 -0.187,0.168 -0.301,0.132 M 81.236,28.724 81.127,28.6 80.97,28.445 c -0.05,-0.047 -0.083,-0.149 -0.036,-0.198 0.047,-0.052 0.096,-0.076 0.146,-0.028 l 0.245,0.222 0.087,0.102 c 0.046,0.053 0.048,0.14 -0.005,0.185 -0.053,0.045 -0.125,0.049 -0.171,-0.004 M 55.33,-3.377 c -0.17,-0.002 -0.388,-0.129 -0.388,-0.3 0,-0.173 0.058,-0.299 0.228,-0.301 l 0.933,-0.005 c -0.171,0.002 -0.361,0.133 -0.361,0.306 0,0.171 0.085,0.304 0.254,0.306 z M 63.695,24.926 58.463,21.17 58.44,21.124 58.377,20.989 c -0.041,-0.092 0,-0.201 0.093,-0.242 0.092,-0.044 0.201,0 0.245,0.093 0,0 0.021,0.048 0.038,0.084 0.086,0.061 5.161,3.705 5.161,3.705 7.743,5.719 15.058,11.121 24.787,8.689 l 1.097,-0.257 c 1.306,-0.299 2.655,-0.609 4.138,-1.289 0.092,-0.042 0.202,-10e-4 0.245,0.09 0.041,0.096 0,0.203 -0.092,0.247 -1.518,0.696 -2.886,1.008 -4.21,1.311 l -1.088,0.256 c -9.898,2.472 -17.28,-2.978 -25.096,-8.75 m -8.33,-5.823 c -0.844,-0.372 -1.651,-0.859 -2.43,-1.33 -1.056,-0.639 -2.149,-1.299 -3.342,-1.67 -0.111,-0.035 -0.172,-0.153 -0.138,-0.262 0.034,-0.112 0.151,-0.175 0.261,-0.139 1.242,0.385 2.358,1.06 3.436,1.711 0.768,0.466 1.562,0.945 2.38,1.306 0.107,0.045 0.155,0.17 0.109,0.276 -0.046,0.106 -0.17,0.153 -0.276,0.108 m -6.684,-3.496 c -0.148,-0.244 -0.251,-0.294 -0.457,-0.395 -0.101,-0.05 -0.143,-0.173 -0.095,-0.273 0.05,-0.102 0.172,-0.144 0.274,-0.095 0.223,0.11 0.416,0.203 0.626,0.552 0.059,0.096 0.03,0.223 -0.068,0.28 -0.096,0.058 -0.222,0.028 -0.28,-0.069 m -2.096,-1.316 c -1.001,-0.375 -2.033,-0.812 -2.689,-1.671 -0.07,-0.091 -0.052,-0.221 0.038,-0.292 0.091,-0.069 0.221,-0.051 0.291,0.041 0.588,0.771 1.521,1.165 2.505,1.535 0.108,0.04 0.162,0.159 0.121,0.266 -0.039,0.107 -0.158,0.163 -0.266,0.121 m -2.083,-3.804 c -0.152,-0.069 -0.22,-0.25 -0.15,-0.403 0.124,-0.274 0.241,-0.532 0.206,-0.748 -0.025,-0.169 0.088,-0.324 0.254,-0.351 0.167,-0.026 0.321,0.087 0.348,0.254 0.063,0.398 -0.106,0.771 -0.254,1.097 -0.07,0.153 -0.25,0.222 -0.404,0.151 m 2.515,1.035 C 46.421,5.243 41.61,0.563 36.502,-3.562 c -0.132,-0.107 -0.154,-0.3 -0.046,-0.434 0.107,-0.134 0.301,-0.154 0.433,-0.048 5.214,4.209 10.125,9.001 10.742,15.507 0.016,0.171 -0.108,0.32 -0.277,0.338 -0.17,0.014 -0.321,-0.109 -0.337,-0.279 M 32.921,9.81 32.673,9.308 32.149,8.188 c -0.066,-0.139 0,-0.29 0.138,-0.356 0.138,-0.065 0.31,0.01 0.374,0.147 l 0.506,1.079 0.253,0.509 c 0.068,0.138 0.011,0.301 -0.127,0.37 -0.136,0.067 -0.305,0.008 -0.372,-0.127 m -1.177,1.411 C 31.318,10.796 31.058,10.27 30.805,9.758 L 30.71,9.569 C 30.666,9.479 30.702,9.37 30.793,9.324 30.882,9.281 30.991,9.315 31.035,9.405 l 0.095,0.193 c 0.249,0.506 0.486,0.984 0.87,1.365 0.07,0.07 0.072,0.183 0,0.256 -0.07,0.072 -0.184,0.072 -0.256,0.002 m -3.805,-0.319 -0.46,-0.454 c 0.1,0.096 0.276,0.116 0.373,0.019 0.098,-0.099 0.117,-0.236 0.021,-0.335 l 0.338,0.346 c 0.097,0.098 0.138,0.292 0.041,0.388 -0.098,0.099 -0.215,0.133 -0.313,0.036 m 1.027,4.198 v -0.601 c 0,-0.17 0.139,-0.309 0.308,-0.309 0.171,0 0.309,0.139 0.309,0.309 V 15.1 c 0,0.171 -0.138,0.308 -0.309,0.308 -0.169,0 -0.308,-0.137 -0.308,-0.308 m -0.43,-3.607 c -0.287,-0.198 -0.49,-0.373 -0.671,-0.676 -0.07,-0.117 -0.032,-0.269 0.084,-0.338 0.116,-0.069 0.267,-0.031 0.336,0.084 0.137,0.231 0.286,0.358 0.528,0.527 0.111,0.077 0.14,0.229 0.062,0.341 -0.076,0.112 -0.228,0.14 -0.339,0.062 M 21.01,20.419 C 20.952,20.38 20.941,20.293 20.98,20.233 l 0.296,-0.437 0.098,-0.153 c 0.038,-0.061 0.116,-0.078 0.177,-0.04 0.059,0.038 0.076,0.12 0.038,0.18 l -0.094,0.15 -0.311,0.46 c -0.04,0.058 -0.115,0.066 -0.174,0.026 m 6.359,19.558 c -0.029,-0.169 0.089,-0.294 0.256,-0.321 0.168,-0.028 0.33,0.119 0.358,0.286 l 0.06,0.351 c -0.028,-0.168 -0.183,-0.264 -0.351,-0.235 -0.168,0.026 -0.277,0.203 -0.25,0.372 z M 5.642,31.664 C 4.169,28.639 2.632,24.651 3.826,20.632 3.871,20.481 4.029,20.395 4.18,20.44 c 0.15,0.045 0.236,0.205 0.191,0.354 -1.139,3.833 0.355,7.689 1.781,10.62 0.069,0.142 0.011,0.313 -0.131,0.381 -0.141,0.069 -0.312,0.011 -0.379,-0.131 m 15.887,-52.515 c -1.556,-0.695 -3.32,-1.485 -5.112,-1.909 -0.163,-0.04 -0.265,-0.203 -0.226,-0.368 0.038,-0.162 0.202,-0.266 0.365,-0.226 1.848,0.437 3.64,1.24 5.22,1.946 0.154,0.071 0.224,0.251 0.154,0.404 -0.068,0.153 -0.248,0.222 -0.401,0.153 m 79.776,13.865 -0.4,-0.134 c -0.165,-0.055 -0.255,-0.235 -0.199,-0.401 0.055,-0.166 0.235,-0.255 0.4,-0.2 l 0.4,0.134 c 0.165,0.055 0.255,0.235 0.199,0.402 -0.055,0.164 -0.235,0.253 -0.4,0.199 m 42.77,17.915 C 135.116,-0.486 119.743,-4.205 107.351,-6.17 c -0.173,-0.026 -0.292,-0.191 -0.265,-0.363 0.026,-0.175 0.189,-0.293 0.363,-0.265 12.507,1.982 28.03,5.741 37.125,17.331 0.109,0.139 0.085,0.339 -0.053,0.447 -0.137,0.11 -0.337,0.087 -0.446,-0.051 m -39.418,25.698 c -0.188,-0.081 -0.276,-0.301 -0.195,-0.488 0.08,-0.188 0.298,-0.277 0.485,-0.196 5.157,2.211 10.58,2.161 15.272,-0.134 5.075,-2.487 7.293,-5.327 6.976,-8.935 -0.863,-9.88 -15.591,-26.237 -20.429,-31.613 -0.138,-0.152 -0.125,-0.387 0.026,-0.524 0.151,-0.137 0.386,-0.126 0.523,0.027 4.88,5.421 19.734,21.916 20.619,32.044 0.454,5.199 -4,8.008 -7.389,9.668 -4.89,2.392 -10.532,2.447 -15.888,0.151 m -13.613,8.227 -1.262,-0.513 c -1.157,-0.479 -2.352,-0.976 -3.609,-1.282 -0.106,-0.027 -0.171,-0.133 -0.145,-0.24 0.026,-0.105 0.132,-0.17 0.238,-0.142 1.286,0.312 2.496,0.813 3.667,1.299 l 1.254,0.511 c 0.101,0.041 0.151,0.158 0.11,0.259 -0.04,0.101 -0.152,0.15 -0.253,0.108 M 39.594,21.475 39.169,21.289 c -0.544,-0.233 -1.106,-0.476 -1.603,-0.836 -0.078,-0.055 -0.095,-0.164 -0.04,-0.24 0.056,-0.079 0.164,-0.097 0.242,-0.042 0.465,0.337 0.986,0.562 1.538,0.8 l 0.429,0.187 c 0.087,0.036 0.126,0.138 0.087,0.227 -0.037,0.088 -0.141,0.128 -0.228,0.09 m 11.768,15.022 c -0.03,-0.059 -0.117,-0.077 -0.178,-0.048 l 0.448,-0.218 c 0.06,-0.03 0.099,0.006 0.129,0.065 0.031,0.06 -0.027,0.146 -0.087,0.177 l -0.353,0.18 c 0.06,-0.032 0.07,-0.095 0.041,-0.156 m 31.761,-7.062 c -0.866,0.619 -1.824,-0.093 -1.997,-0.802 h 0.198 v -0.2 c 0.728,-0.536 1.701,0.07 1.998,0.599 l -0.3,0.102 z M 55.95,-4.046 c 3.113,0.801 5.893,-2.918 6.393,1.004 0.55,0.634 1.748,1.518 0.999,2.806 -1.293,-0.04 -1.156,-1.514 -1.798,-2.205 -2.539,-0.53 -3.4,-0.686 -5.794,-1.002 l 0.3,-0.234 z m -0.601,22.654 c 0.289,-1.423 0.13,-2.33 0.401,-3.407 0.291,-1.164 1.142,-3.049 0.999,-4.01 -0.258,-1.715 -2.546,-1.81 -1.799,-4.009 1.768,-0.599 2.246,1.841 3.597,3.208 1.618,1.635 4.011,2.31 3.996,5.213 -0.015,2.714 -2.306,3.511 -3.797,5.411 l -0.199,-0.1 -0.2,0.1 C 56.904,20.725 55.833,20.062 55.15,19.01 l 0.299,-0.1 z m -6.393,-3.407 c 0.299,0.234 0.816,0.249 0.999,0.601 l -0.3,0.099 0.1,0.301 c -0.038,0.565 -0.347,0.855 -1,0.804 -0.528,-0.442 -0.319,-0.862 -0.199,-1.605 l 0.299,0.101 z M 44.559,9.387 C 44.083,8.657 43.211,7.728 43.761,6.579 45.44,6.284 46.025,8.351 45.16,9.387 l -0.301,-0.1 z m -0.598,3.408 C 42.69,12.243 43.7,10.418 44.361,9.987 l 0.232,0.301 0.366,-0.1 c 0.117,1.12 -0.597,1.406 -0.598,2.406 l -0.3,-0.101 z m 3.597,-1.604 c 0.567,0.9 -0.273,3.214 0.798,3.608 l -0.1,0.201 -0.1,0.201 c -1.372,2.254 1.803,3.337 1.998,5.612 0.29,3.387 -2.5,5.231 -6.393,4.614 0.19,-2.225 -0.278,-3.265 0,-4.614 0.549,-2.668 3.749,-2.945 2.997,-6.213 -0.224,-0.044 -0.312,-0.223 -0.401,-0.402 l 0.301,-0.099 -0.1,-0.302 c 0.748,-0.184 0.259,-1.61 0.4,-2.404 l 0.365,0.098 z M 31.771,10.79 c 0.775,-0.151 1.842,1.235 0.8,1.604 -0.546,0.6 -1.245,-0.344 -0.999,-1.203 l 0.3,-0.099 z M 29.574,15 c 1.688,0.444 2.782,1.484 3.397,3.008 -1.171,0.896 -3.509,0.624 -4.996,1.203 -0.491,-0.491 0.148,-0.869 0,-1.605 -0.023,-0.578 -0.851,-0.346 -0.799,-1.002 0.573,-0.56 1.503,-0.765 1.799,-1.604 l 0.299,0.1 z m -0.8,-4.009 c 1.351,0.014 2.404,2.866 0.8,3.408 l -0.3,0.1 -0.299,0.101 c -0.806,-0.462 -0.588,-1.951 -0.6,-3.207 l 0.299,-0.1 z M 27.975,10.39 c 0.156,0.045 0.395,0.005 0.4,0.2 l -0.3,0.1 -0.1,0.301 0.1,-0.301 z m -6.793,9.422 c -0.829,-0.124 -0.659,-1.56 -0.4,-2.206 2.239,-1.78 3.919,2.847 0.6,2.407 l 0.1,-0.3 z m 6.793,20.248 c 0.725,0.1 1.376,1.029 0.799,1.805 -0.256,0.277 -0.867,0.197 -1.398,0.198 -0.523,-0.351 -0.523,-1.449 0,-1.802 l 0.367,0.099 z M 5.997,31.239 c 0.707,-0.037 0.989,0.954 0.599,1.403 -0.832,0.1 -0.959,-0.506 -1,-1.202 l 0.3,0.099 z m 1.599,-51.523 c -0.614,-1.153 -1.884,-1.745 -3.199,-2.605 -0.966,-0.632 -2.585,-2.033 -3.595,-2.006 -1.399,0.038 -2.275,1.237 -2.198,2.606 0.119,2.124 3.471,3.395 4.195,4.812 1.103,-0.165 1.401,-1.134 2.199,-1.604 1.063,-0.203 2.248,-0.284 2.598,-1.203 m -5.795,4.01 c -1.172,-0.83 -1.614,-2.39 -3.596,-2.406 0.402,1.667 1.554,2.582 2.197,4.01 1.031,0.032 1.203,-0.797 1.399,-1.604 m 38.762,9.623 c -0.507,-1.094 -2.03,-1.17 -3.197,-1.604 -0.477,-0.724 -1.193,-1.207 -2.397,-1.203 -0.615,0.671 -0.535,2.546 0.199,3.008 1.559,0.459 3.822,-0.017 5.395,-0.201 m -23.977,2.005 c 0.263,-0.071 0.314,-0.353 0.6,-0.402 0.282,-3.136 -1.871,-6.622 -4.196,-6.816 -1.005,-0.083 -2.494,0.507 -2.598,1.404 -0.158,1.369 1.538,1.445 2.398,2.205 0.954,0.841 0.928,1.583 1.599,2.405 1.067,0.065 1.943,0.323 2.197,1.204 m -1.598,1.604 C 14.747,-4.866 12.869,-5.491 11.791,-6.45 10.985,-7.167 10.59,-8.308 9.393,-8.456 c -2.302,2.44 2.262,6.385 5.595,5.414 m 11.189,0 c -0.328,-2.455 -3.384,-5.386 -5.794,-3.209 0.023,0.98 1.002,1 1.199,1.805 -0.142,0.794 -0.708,1.161 -1.199,1.605 -0.263,3.584 4.356,1.53 5.394,0.601 0.103,-0.629 -0.546,-0.895 0.4,-0.802 M 18.186,3.573 C 20.682,-0.748 13.617,-1.111 10.592,-0.636 9.777,-1.089 9.757,-2.339 8.994,-2.841 7.035,-2.553 8.949,-0.805 9.393,0.165 9.632,0.686 9.525,1.423 9.793,1.969 10.086,2.567 12.38,5.401 12.99,5.777 15.779,7.5 15.514,3.539 18.186,3.573 M 36.167,6.38 c -0.244,-2.072 -2.37,-3.752 -3.796,-5.213 -1.29,-1.32 -2.907,-3.021 -5.794,-2.405 0.832,2.765 3.803,3.775 5.595,5.813 -0.199,0.745 -0.428,0.525 -0.2,1.404 1.157,0.342 3.272,1.664 4.195,0.401 M 101.106,-7.053 C 88.31,-8.291 76.655,-7.786 64.94,-6.45 c -3,0.341 -6.172,0.562 -8.792,1.003 -0.757,0.126 -2.053,0.101 -2.398,1.001 0.47,0.197 0.983,0.35 1.599,0.4 l -0.1,0.369 0.3,0.234 c -0.33,1.826 2.832,1.816 2.798,4.008 -0.797,1.278 -2.249,0.124 -3.397,-0.4 -2.189,-1 -4.255,-1.887 -4.995,-3.81 -2.068,-0.633 -6.276,-1.737 -8.592,-1.403 -0.341,0.051 -0.969,-0.308 -0.8,0.602 -0.526,-1.15 -2.859,-0.467 -3.596,0 v 0.4 l -0.271,0.244 0.072,0.359 c -1.752,-1.438 -3.484,0.42 -3.997,2.004 0.474,1.138 1.786,2.523 2.998,4.211 1.004,1.398 2.83,3.591 2.398,5.012 -0.22,0.712 -1.131,1.175 -1.6,1.201 -1.204,0.073 -2.676,-2.13 -3.796,-1.401 v 0.6 L 32.404,8.083 32.172,8.385 c -0.232,-0.169 -0.536,-0.265 -1,-0.201 -0.484,0.642 -0.242,0.707 0,1.404 l -0.299,-0.102 -0.1,0.302 C 30.207,8.843 28.023,9.099 27.975,10.39 l -0.298,-0.102 -0.1,0.302 C 25.101,9.6 22.77,8.463 20.183,7.584 19.577,6.989 19.611,5.751 18.385,5.777 c -0.924,0.733 -2.669,1.31 -2.798,2.608 -0.105,1.047 0.82,1.668 1.399,2.606 -0.339,0.462 -0.7,2.825 0.599,3.207 2.111,0.089 4.111,0.619 3.597,2.406 -0.538,1.872 -3.508,0.53 -5.194,0.201 -1.125,-1.158 -0.691,-2.849 -2,-3.609 -1.767,-1.028 -4.262,0.48 -5.395,2.005 0.794,1.498 2.314,0.363 3.598,0.601 2.011,0.372 3.459,3.246 5.394,2.006 0.606,1.329 2.061,1.808 3.597,2.205 l -0.099,0.3 0.299,-0.1 c 0.826,0.441 1.812,0.72 2.797,1.002 0.318,0.794 -0.185,1.163 0.2,1.806 0.505,0.5 1.935,-0.004 2.198,1.2 0.244,1.12 -0.63,1.249 -1.199,2.207 -1.896,3.186 0.073,7.01 4.396,7.218 0.321,1.048 1.145,1.388 1.199,2.405 0.1,1.918 -1.837,3 -2.998,4.009 L 27.677,39.959 27.376,40.06 C 24.852,39.967 23.657,38.961 21.582,38.456 19.686,37.995 17.343,38.168 15.788,37.254 11.977,35.016 15.701,27.362 11.392,26.228 9.74,25.792 8.664,26.498 7.794,26.026 5.829,24.958 8.21,20.892 4.397,20.813 l -0.298,-0.1 -0.3,0.1 c -0.891,-1.41 -3.106,-1.388 -4.796,-2.205 -1.612,-0.776 -2.739,-1.749 -3.796,-2.806 -0.398,-0.535 -1.295,-0.571 -1.798,-1.003 0.168,-0.498 0.26,-1.072 0.199,-1.803 -1.412,-3.113 0.067,-7.038 0,-10.626 -1.143,-1.705 -3.18,-2.262 -5.395,-3.006 -2.026,-0.684 -4.846,-1.149 -5.794,-2.607 -0.834,-1.284 -0.728,-2.857 -0.999,-4.21 -0.71,-3.539 -0.899,-6.222 0.999,-7.818 3.142,-2.645 7.607,0.174 8.992,2.405 1.711,2.758 1.564,6.659 2.797,8.42 1.153,1.648 3.742,1.34 4.595,3.208 l -0.299,0.232 0.1,0.37 c -0.872,-0.006 -1.851,-0.122 -2.199,0.4 0.085,2.381 1.541,2.223 2.798,3.209 1.673,1.308 3.078,2.78 4.195,4.209 1.77,2.259 2.322,5.471 4.198,7.016 1.023,-0.576 2.01,-1.189 2.796,-2.004 C 10.292,10.489 7.59,11.396 6.596,10.59 6.149,9.101 6.516,6.796 6.396,4.977 5.441,2.058 1.21,2.427 -0.198,-0.035 l 0.3,-0.236 -0.1,-0.365 C 2.868,-1.271 3.637,2.358 6.596,1.568 6.682,0.012 5.643,-1.115 4.998,-2.24 3.553,-4.76 2.738,-7.272 1.401,-9.658 c -1.184,-2.113 -1.647,-4.015 -2.797,-5.613 -1.234,-1.717 -2.538,-3.706 -3.996,-4.812 -2.396,-1.816 -5.919,-2.725 -6.993,-5.814 -1.932,-1.076 -3.874,-2.082 -5.995,-3.409 -1.828,-1.141 -3.867,-3.297 -5.795,-3.607 -1.36,-0.221 -2.598,0.448 -3.796,0.4 -3.529,-0.141 -6.531,-2.891 -6.394,-6.013 0.107,-2.418 2.173,-3.734 4.595,-3.411 3.141,0.422 4.983,3.979 5.795,7.019 3.732,2.872 7.742,5.464 11.988,7.817 1.352,-0.802 2.719,-0.935 3.797,-2.205 0.99,-1.165 0.951,-2.649 2.197,-3.207 2.002,-0.893 4.528,0.95 5.596,2.206 0.788,0.926 1.09,2.301 1.798,3.206 0.857,1.098 2.182,1.812 3.196,2.607 1.144,0.895 2.163,1.989 3.397,2.406 0.993,-0.654 1.651,-1.687 3.197,-2.006 1.719,-0.351 4.109,-0.009 5.596,0.804 l -0.301,0.232 0.1,0.369 c -1.559,-0.106 -2.652,-0.679 -4.395,-0.601 -0.447,0.621 -1.197,0.937 -1.199,2.004 1.08,1.502 2.796,0.18 3.796,-0.603 3.22,-0.788 4.226,2.663 6.594,1.405 v -0.401 l 0.272,-0.244 -0.072,-0.358 c 1.309,1.321 3.644,0.328 5.594,0.602 2.705,0.381 7.1,2.783 7.593,5.011 0.49,2.211 -1.073,3.912 0.399,5.414 1.272,0.128 2.207,-1.766 3.398,-2.004 2.091,-0.422 5.389,2.381 8.392,3.006 3.165,0.659 7.213,0.839 10.389,1.002 2.369,0.123 4.839,0.179 6.994,0 12.879,-1.058 26.062,-0.581 36.964,0.802 l -0.298,0.234 z m 43.359,17.443 c 1.073,0.793 1.389,2.348 1.398,4.21 -0.411,0.055 -0.399,0.534 -0.599,0.801 -1.59,0.329 -4.533,0.506 -5.995,-0.602 -1.457,-1.103 -1.168,-4.062 -2.797,-5.211 -1.728,-1.221 -5.479,-1.012 -7.792,-0.802 -1.32,0.119 -3.803,1.353 -3.997,-1.202 1.531,-1.413 2.889,-0.11 4.196,0 4.117,0.345 7.328,-1.267 9.392,2.004 0.608,0.964 0.188,1.943 0.998,3.207 1.021,1.593 4.545,2.747 5.595,0.401 -0.174,-0.827 -0.626,-1.377 -0.8,-2.205 l 0.26,-0.261 z M 106.899,-4.646 c -0.814,-0.652 -1.582,-1.353 -2.396,-2.005 -1.172,-0.507 -2.634,0.235 -3.397,-0.402 l 0.299,-0.232 -0.1,-0.369 c 0.478,-0.122 1.45,0.252 1.598,-0.2 -0.254,-1.132 -1.325,-1.803 -2.197,-2.606 -4.472,-4.119 -8.722,-7.606 -13.986,-10.826 -2.084,-1.276 -4.139,-2.987 -6.195,-3.81 -2.685,-1.072 -5.994,-1.221 -7.992,-3.807 -1.376,-1.783 -1.853,-5.42 1.198,-5.616 3.798,-0.24 5.208,4.521 7.195,6.817 1.482,1.716 4.313,3.171 6.593,4.813 5.326,3.834 10.839,8.47 15.384,13.03 1.658,1.663 2.295,3.183 4.596,3.007 l -0.1,0.368 0.3,0.233 c -0.376,0.401 -0.725,0.316 -0.4,1.002 l -0.259,0.262 z m -12.887,36.587 -0.3,0.1 C 91.646,30.908 87.785,31.573 85.92,30.236 l 0.3,-0.101 0.099,-0.299 c 1.966,0.254 4.25,-0.674 6.793,-0.2 1.001,0.184 2.103,1.423 2.998,1.403 1.702,-0.036 2.054,-2.364 3.996,-2.606 3.207,-0.402 3.563,2.55 2.399,5.612 0.345,1.191 1.851,1.216 2.598,2.006 l -0.301,0.233 0.1,0.367 c -2.02,-0.745 -4.147,-1.23 -5.794,-2.204 -1.654,-0.979 -2.91,-3.696 -5.196,-2.205 z m -2.897,12.73 V 44.47 c 0.342,-3.451 5.931,-3.541 6.594,-0.801 1.097,4.536 -6.23,6.113 -6.793,1.002 z M -4.193,-39.931 c 0.011,0.123 0.029,0.238 0.199,0.202 -0.023,0.244 -0.06,0.475 -0.4,0.399 0.032,-0.234 -0.033,-0.568 0.201,-0.601 m -9.591,1.405 h 0.399 v 0.401 h -0.399 z m 9.191,0 c -0.121,1.005 -1.096,1.246 -1.799,1.001 -3.306,-1.148 2.225,-4.552 1.799,-1.001 m -7.992,2.004 c 0.235,-1.937 3.734,-1.438 2.796,1.001 -1.239,1.291 -2.955,0.294 -2.796,-1.001 m 8.791,0.602 c 0.35,-0.491 1.205,-0.476 1.798,-0.201 1.01,1.8 -2.275,2.638 -1.798,0.201 m -6.994,3.608 c -0.653,-2.31 2.849,-2.376 2.398,-0.201 -0.505,0.812 -1.767,1.019 -2.398,0.201 m 17.184,-1.604 c 0.554,0.762 0.434,2.023 0,2.806 -4.854,2.182 -3.651,-5.457 0,-2.806 m -21.979,2.406 c 0.658,-0.803 2.316,-0.37 2.198,0.801 -0.383,1.373 -2.661,1.279 -2.198,-0.801 m -10.39,24.057 c 0.651,-0.053 0.961,0.237 0.999,0.802 -0.296,0.105 -0.504,0.296 -0.799,0.4 -0.242,-0.311 -0.639,-0.78 -0.2,-1.202 M 1.201,-5.648 C 1.871,-5.999 2.477,-5.766 2.799,-5.249 2.666,-4.58 2.287,-4.16 1.401,-4.247 1.125,-4.504 1.203,-5.116 1.201,-5.648 m -24.376,6.815 c 0.047,0.286 0.328,0.337 0.399,0.603 h -0.599 c 0.031,-0.238 -0.035,-0.571 0.2,-0.603 M 13.788,0.766 c 0.359,0.238 1.145,0.032 1.599,0.602 V 2.37 c -1,1.161 -2.501,-0.345 -1.599,-1.604 m 47.955,1.203 c 0.95,-0.218 0.816,0.653 0.8,1.403 -1.045,0.022 -0.953,-0.653 -0.8,-1.403 m -78.125,2.004 c 0.626,-0.093 0.892,0.176 0.799,0.803 -0.55,0.623 -1.42,-0.248 -0.799,-0.803 m 34.767,3.41 c 0.263,-0.258 0.737,-0.258 0.999,0 v 0.6 c -0.271,0.064 -0.382,0.286 -0.799,0.201 0.044,-0.379 -0.226,-0.442 -0.2,-0.801 m -29.772,0.801 h 0.599 v 0.603 h -0.599 z m 74.529,1.803 h 0.399 c 0.012,0.258 0.257,0.279 0.199,0.603 H 63.142 Z M 34.569,10.59 c -0.062,-0.959 1.262,-1.008 1.4,-0.2 -0.283,0.302 -0.971,0.631 -1.4,0.2 M 19.384,8.385 c 1.016,0.316 1.824,0.841 1.798,2.205 -1.314,1.172 -2.094,-1.248 -1.798,-2.205 m 49.553,2.606 h 0.598 c -0.046,0.355 0.202,1.004 -0.399,0.802 -0.063,-0.271 -0.284,-0.383 -0.199,-0.802 m -48.354,1.002 c -0.255,0.275 -0.944,0.275 -1.199,0 -0.052,-0.653 0.237,-0.964 0.799,-1.002 0.085,0.383 0.571,0.363 0.4,1.002 m 12.988,-0.401 c 0.236,-0.097 0.453,-0.214 0.598,-0.401 0.667,0.134 1.085,0.516 0.999,1.403 -0.685,0.492 -1.9,0.129 -1.597,-1.002 m -48.755,0.401 c -0.434,-2.975 4.173,-3.244 3.996,-0.2 -0.079,1.371 -1.252,2.196 -2.796,1.603 -1.044,-0.4 -1.146,-1.041 -1.2,-1.403 m 78.725,1.804 v -0.401 c 0.492,-0.312 0.588,0.681 0.199,0.601 -0.011,-0.121 -0.029,-0.236 -0.199,-0.2 M 54.75,15.401 V 15 c 0.122,-0.012 0.237,-0.028 0.2,-0.201 h 0.399 c 0.012,0.124 0.03,0.238 0.2,0.201 v 0.401 c -0.122,0.011 -0.236,0.031 -0.2,0.202 H 54.95 c -0.012,-0.124 -0.03,-0.238 -0.2,-0.202 M 35.969,14.198 c 0.349,0.185 0.693,0.373 0.598,1.003 -0.671,1.535 -2.347,-0.762 -0.598,-1.003 m 30.57,2.808 c 0.225,-0.043 0.312,-0.224 0.399,-0.402 0.563,0.039 0.851,0.349 0.799,1.002 -0.457,0.436 -1.247,0.072 -1.198,-0.6 M 34.37,16.805 c 0.358,-0.633 1.044,-0.686 1.599,-0.201 0.475,1.768 -1.831,1.754 -1.599,0.201 m 113.891,4.41 c 0.396,-0.002 0.254,-0.547 0.799,-0.402 0.831,0.966 -0.788,1.757 -0.799,0.402 m -69.534,0.201 c 0.224,-0.042 0.311,-0.222 0.4,-0.402 0.545,-0.145 0.402,0.398 0.799,0.402 0.038,0.981 -1.237,0.981 -1.199,0 m -40.961,0.601 c 2.079,0.298 -0.736,1.778 0,0 m -40.361,0.202 h 0.599 c 0.056,0.457 -0.048,0.752 -0.4,0.802 -0.062,-0.274 -0.284,-0.385 -0.199,-0.802 m 30.57,2.002 c 0.104,-0.295 0.296,-0.503 0.4,-0.801 1.018,-0.151 1.586,0.147 1.599,1.002 -0.194,1.001 -2.05,1.104 -1.999,-0.201 m -32.369,1.206 c 0.169,0.23 0.264,0.536 0.201,1.001 h -0.8 c -0.039,-0.574 -0.025,-1.095 0.599,-1.001 M 76.13,25.226 c 1.121,-0.057 1.638,0.494 1.797,1.401 -1.002,0.743 -2.707,-0.224 -1.797,-1.401 m -2.399,0.399 c 0.378,-0.044 0.442,0.226 0.799,0.201 v 1.002 h -0.799 c -0.273,-0.256 -0.273,-0.945 0,-1.203 m -98.305,0.803 c 0.745,-0.081 1.172,0.16 1.199,0.801 -0.339,1.207 -1.986,0.249 -1.199,-0.801 m 140.265,0.801 c 0.626,-0.092 0.892,0.175 0.8,0.802 -0.551,0.625 -1.422,-0.249 -0.8,-0.802 M -7.99,26.428 c 0.121,0.479 0.287,0.915 0.2,1.603 -2.206,2.436 -3.576,-3.045 -0.2,-1.603 m -20.98,0.4 c 0.885,-0.086 1.265,0.335 1.399,1.004 -0.012,0.256 -0.257,0.276 -0.2,0.601 -1.16,0.928 -2.232,-0.893 -1.199,-1.605 m 147.259,1.203 c 0.527,-0.058 0.656,0.279 0.6,0.803 -0.826,0.052 -0.804,-0.238 -0.6,-0.803 m -73.73,0.201 c 0.065,0.271 0.285,0.382 0.2,0.8 h -0.798 c -0.057,-0.521 0.072,-0.861 0.598,-0.8 m -32.368,0.201 h 0.399 c 0.011,0.255 0.256,0.278 0.2,0.599 h -0.599 z m 52.95,0.599 c -0.01,-0.274 0.093,-0.438 0.199,-0.599 0.954,-0.156 1.181,0.419 1.199,1.203 -0.659,-0.008 -1.415,0.081 -1.398,-0.604 M 39.563,21.014 c 0.986,-0.118 1.54,0.194 1.4,1.205 -0.765,0.409 -1.499,0.01 -1.598,-0.803 l 0.299,-0.101 z m -1.897,-0.701 0.1,0.302 h -0.998 c -0.193,1.119 0.509,1.775 0.598,2.605 0.366,3.392 -1.801,5.41 -2.996,7.619 -0.928,0.059 -1.73,-0.002 -2.198,-0.402 -0.797,-1.673 -1.44,-3.501 -2.598,-4.812 1.242,-2.093 1.911,-4.766 3.197,-6.816 2.31,-0.112 3.666,0.733 5.195,1.404 z m 4.896,7.519 c 1.335,3.385 -2.968,5.073 -4.395,2.806 -0.995,-1.576 0.09,-3.907 2.396,-4.011 -0.983,-1.876 2.376,-2.866 2.398,-0.601 -0.513,0.355 -1.584,0.148 -1.998,0.601 0.67,0.264 1.037,0.832 1.599,1.205 m 3.996,3.207 c 0.295,-0.104 0.503,-0.298 0.799,-0.401 0.104,0.297 0.296,0.506 0.4,0.802 -0.392,0.532 -1.18,0.448 -1.199,-0.401 m -14.187,0.2 c 0.905,-0.105 1.306,0.294 1.2,1.203 -0.837,0.774 -1.971,-0.365 -1.2,-1.203 M 6.995,31.44 C 7.283,29.197 11.094,31.27 8.593,32.843 7.577,32.767 6.898,32.206 6.995,31.44 m 64.939,1.804 c 1.147,0.051 1.986,0.413 1.998,1.603 -0.929,0.455 -1.827,-0.65 -1.998,-1.603 M 3.799,34.045 c -0.096,1.498 -3.1,2.029 -2.598,-0.801 1.02,-0.99 2.678,-0.441 2.598,0.801 m 42.558,0.602 c 0.849,-0.182 1.006,0.328 1.201,0.802 -0.356,0.178 -0.509,0.561 -1.201,0.4 -0.179,-0.586 -0.179,-0.617 0,-1.202 m -11.189,0.601 c 0.472,-1.323 2.751,-1.064 3.997,-0.601 -0.393,1.001 -3.572,2.742 -3.997,0.601 m -38.162,0.201 c 0.062,0.271 0.283,0.382 0.199,0.801 -0.682,0.151 -0.779,-0.766 -0.199,-0.801 m 34.566,1.404 h 0.4 c 0,0.201 0.161,0.239 0.2,0.401 -0.256,0.01 -0.277,0.256 -0.6,0.199 z m 61.741,1.603 h 0.599 v 0.602 H 93.313 Z M 34.169,40.06 h 0.4 c 0.223,0.288 0.216,0.489 -0.199,0.602 -0.012,-0.257 -0.256,-0.278 -0.201,-0.602 M 19.583,39.459 c 0.335,-0.267 0.67,-0.532 1.399,-0.401 0.29,0.503 0.485,0.788 0.2,1.404 -0.685,0.492 -1.901,0.126 -1.599,-1.003 m 11.79,0.802 c 1.346,-1.018 3.3,0.231 2.396,2.004 -1.315,1.171 -3.404,-0.246 -2.396,-2.004 m 9.79,3.007 c 0.024,-0.51 0.291,-0.778 0.798,-0.802 0.064,0.27 0.286,0.382 0.201,0.802 -0.263,0.257 -0.737,0.257 -0.999,0 M 19.184,42.667 c 0.155,-0.045 0.233,-0.169 0.2,-0.402 h 0.999 c 0.044,0.156 0.005,0.396 0.2,0.402 -0.024,0.509 -0.291,0.775 -0.8,0.801 -0.293,-0.174 -0.633,-0.3 -0.599,-0.801 m 10.79,-0.201 c 0.43,0.17 0.706,0.495 0.599,1.203 -0.907,1.214 -2.228,-1.039 -0.599,-1.203 m -15.585,2.807 c 0,-2.773 4.346,-2.081 3.596,0.601 -0.201,0.717 -0.768,1.234 -1.997,1.001 -1.175,-0.221 -1.599,-0.573 -1.599,-1.602 M 7.994,41.463 C 8.222,41.022 8.662,40.797 8.793,40.261 8.545,39.775 8.3,39.287 8.194,38.656 c 0.197,-0.671 0.865,-0.87 1,-1.602 -0.573,0.038 -1.091,0.024 -1,-0.603 -0.067,-0.801 0.571,-0.896 1.399,-0.801 0.387,0.595 -0.267,0.989 0.4,1.203 1.024,-0.86 0.008,-2.898 1.598,-3.408 -0.995,-0.301 -1.567,-0.722 -1.598,-1.605 -0.139,-3.853 6.141,-0.15 1.998,1.806 0.736,0.128 1.048,0.685 1.199,1.402 -0.642,0.992 -0.152,1.641 0,2.807 -0.136,0.866 -1.177,0.824 -0.999,2.004 0.507,0.627 1.442,0.827 1.797,1.604 -0.841,1.559 -0.305,3.472 -0.398,5.013 -3.242,1.722 -6.482,-0.706 -5.596,-5.013 m 38.764,5.212 h 0.399 c -10e-4,0.202 0.161,0.241 0.2,0.401 -0.255,0.012 -0.276,0.258 -0.599,0.201 z m -13.987,-1 c 0.192,-1.563 3.199,-1.899 2.797,0.801 -1.011,1.461 -2.969,0.598 -2.797,-0.801 m 31.769,2.004 c 0.012,0.344 -0.153,0.513 -0.399,0.6 -0.287,-0.294 -0.293,-0.776 0.399,-0.6 M 51.953,47.076 c 0.32,-0.347 0.604,-0.728 1.399,-0.6 0.264,0.336 0.528,0.67 0.398,1.404 -0.667,0.651 -1.873,0.365 -1.797,-0.804 m -41.361,0.603 h 0.4 c 0.224,0.288 0.216,0.489 -0.2,0.6 -0.011,-0.256 -0.257,-0.277 -0.2,-0.6 m 20.98,1.602 c 0.855,-1.072 2.928,-0.609 2.798,1.002 -0.414,1.485 -3.496,1.402 -2.798,-1.002 m 20.98,3.408 c 0.523,-0.054 0.86,0.074 0.8,0.603 -0.256,0.011 -0.278,0.256 -0.6,0.201 -0.063,-0.271 -0.284,-0.384 -0.2,-0.804 m -8.991,1.004 c 0.769,-0.159 0.769,0.959 0,0.801 z m -31.37,0.4 h 0.399 v 0.401 h -0.399 z m 93.71,-0.4 c 0.484,-0.425 1.565,-0.238 1.398,0.601 -0.223,0.962 -1.721,0.643 -1.398,-0.601 m -64.338,0.4 c 0.155,-0.043 0.232,-0.167 0.2,-0.4 h 0.999 c 0.045,0.156 0.005,0.395 0.199,0.4 -0.024,0.511 -0.29,0.779 -0.799,0.803 -0.292,-0.174 -0.633,-0.3 -0.599,-0.803 m -26.775,1.404 c 0.011,0.123 0.03,0.236 0.2,0.201 -0.023,0.243 -0.06,0.473 -0.399,0.4 0.031,-0.236 -0.035,-0.569 0.199,-0.601 m 20.181,0.401 c -0.207,1.936 -3.717,0.147 -4.596,-1.002 0.071,-0.596 0.319,-1.017 0.6,-1.403 1.367,0.027 4.125,1.196 3.996,2.405 m -10.191,1.603 h 0.6 c -0.019,0.316 0.026,0.695 -0.399,0.603 0.007,-0.277 -0.095,-0.442 -0.201,-0.603 m 87.317,0.802 c 0.011,0.122 0.03,0.238 0.2,0.2 -0.023,0.246 -0.06,0.476 -0.399,0.401 0.031,-0.234 -0.036,-0.567 0.199,-0.601 M 52.952,57.902 c 0.59,-0.446 1.823,-0.196 1.598,0.802 -0.358,0.939 -1.98,0.636 -1.598,-0.802 m 32.169,1.605 c 1.112,0.004 1.339,2.691 -0.399,1.804 -1.451,-0.741 0.038,-1.806 0.399,-1.804 m 9.192,2.604 c 0.027,-0.373 0.13,-0.668 0.399,-0.8 0.199,0.266 0.539,0.394 0.6,0.8 -0.263,0.258 -0.737,0.258 -0.999,0 m -53.35,-3.608 c 0.44,-2.02 3.377,-3.94 4.795,-4.009 1.108,-0.055 2.232,0.37 2.798,1.003 2.719,3.033 -0.302,7.901 -3.797,8.019 -0.156,0.005 -0.196,-0.201 -0.2,-0.202 -2.507,-0.218 -4.282,-1.662 -3.596,-4.811 m 26.974,4.011 c 0.531,0.002 1.141,-0.076 1.399,0.2 v 1.003 c -0.87,0.656 -2.097,-0.238 -1.399,-1.203 m -16.385,1.002 c 0.933,0.004 0.933,0.999 0,1.002 -0.255,-0.263 -0.255,-0.74 0,-1.002 m 25.976,0.601 c 0.174,-0.293 0.299,-0.636 0.799,-0.601 0.293,0.174 0.634,0.299 0.6,0.8 -0.175,0.294 -0.299,0.637 -0.8,0.603 -0.292,-0.174 -0.633,-0.299 -0.599,-0.802 m -15.385,0.199 c 0.251,-0.749 1.379,-1.002 2.198,-0.599 1.313,1.973 -2.482,2.966 -2.198,0.599 m 27.573,7.62 c 0.777,-0.833 1.832,0.223 1,1.002 -0.809,0.142 -1.142,-0.191 -1,-1.002 m -7.193,7.217 c 0.783,0.19 1.576,0.361 2.398,0.2 1.162,-0.227 3.011,-1.565 3.197,-2.806 0.368,-2.445 -1.947,-4.176 -3.197,-4.41 -4.657,-0.879 -7.363,5.805 -2.398,7.016"
             style="fill:#262626;fill-opacity:1;fill-rule:nonzero;stroke:none"
             id="path34"
             inkscape:connector-curvature="0" />
        </g>
      </g>
    </g>
  </g>
</svg>
