<?xml version="1.0" encoding="UTF-8" standalone="no"?>
<!-- Created with Inkscape (http://www.inkscape.org/) -->

<svg
   xmlns:dc="http://purl.org/dc/elements/1.1/"
   xmlns:cc="http://creativecommons.org/ns#"
   xmlns:rdf="http://www.w3.org/1999/02/22-rdf-syntax-ns#"
   xmlns:svg="http://www.w3.org/2000/svg"
   xmlns="http://www.w3.org/2000/svg"
   xmlns:sodipodi="http://sodipodi.sourceforge.net/DTD/sodipodi-0.dtd"
   xmlns:inkscape="http://www.inkscape.org/namespaces/inkscape"
   width="64.793518mm"
   height="38.92149mm"
   viewBox="0 0 64.793518 38.92149"
   version="1.1"
   id="svg4400"
   inkscape:version="0.92.2 2405546, 2018-03-11"
   sodipodi:docname="paint09.svg">
  <defs
     id="defs4394">
    <clipPath
       clipPathUnits="userSpaceOnUse"
       id="clipPath42">
      <path
         d="M 0,600 H 600 V 0 H 0 Z"
         id="path40"
         inkscape:connector-curvature="0" />
    </clipPath>
  </defs>
  <sodipodi:namedview
     id="base"
     pagecolor="#ffffff"
     bordercolor="#666666"
     borderopacity="1.0"
     inkscape:pageopacity="0.0"
     inkscape:pageshadow="2"
     inkscape:zoom="0.35"
     inkscape:cx="8.5714287"
     inkscape:cy="559.99998"
     inkscape:document-units="mm"
     inkscape:current-layer="layer1"
     showgrid="false"
     fit-margin-top="0"
     fit-margin-left="0"
     fit-margin-right="0"
     fit-margin-bottom="0"
     inkscape:window-width="3840"
     inkscape:window-height="2095"
     inkscape:window-x="0"
     inkscape:window-y="0"
     inkscape:window-maximized="1" />
  <metadata
     id="metadata4397">
    <rdf:RDF>
      <cc:Work
         rdf:about="">
        <dc:format>image/svg+xml</dc:format>
        <dc:type
           rdf:resource="http://purl.org/dc/dcmitype/StillImage" />
        <dc:title></dc:title>
      </cc:Work>
    </rdf:RDF>
  </metadata>
  <g
     inkscape:label="Layer 1"
     inkscape:groupmode="layer"
     id="layer1"
     transform="translate(2.747602e-8,-258.07851)">
    <g
       transform="matrix(0.35277777,0,0,-0.35277777,-5.2779788,304.1128)"
       id="g36">
      <g
         id="g38"
         clip-path="url(#clipPath42)">
        <g
           id="g44"
           transform="translate(99.9312,28.1436)">
          <path
             d="m 0,0 c -0.064,-0.037 -0.086,-0.119 -0.049,-0.183 0.038,-0.064 0.119,-0.086 0.183,-0.048 0.165,0.095 0.371,0.061 0.589,0.023 L 1.097,-0.25 c 0.073,-0.007 0.123,0.046 0.132,0.119 0.008,0.073 -0.06,0.14 -0.134,0.149 L 0.769,0.056 C 0.525,0.097 0.25,0.145 0,0 M 23.139,25.6 22.99,25.38 22.948,25.314 c -0.018,-0.028 -0.01,-0.066 0.019,-0.084 0.027,-0.018 0.065,-0.01 0.083,0.018 l 0.042,0.068 0.142,0.208 c 0.019,0.028 0.015,0.069 -0.014,0.088 -0.028,0.019 -0.062,0.015 -0.081,-0.012 M -2.133,-5.561 c 0.313,-0.125 0.326,-0.547 0.655,-0.655 -0.195,-0.128 -0.561,0.37 -0.655,0.655 m 3.229,5.445 -0.14,-0.11 C 0.886,-0.437 0.431,-0.262 0.208,-0.318 v 0.092 l -0.142,0.11 0.047,0.172 c -2.677,-0.246 -3.701,-2.534 -3.37,-4.586 0.023,-0.135 0.155,-0.159 0.188,-0.282 0.114,-0.435 -0.042,-0.266 0.187,-0.467 0.042,-0.037 -0.025,-0.231 0,-0.282 0.77,-1.562 3.197,-3.153 5.429,-2.058 1.341,0.655 2.152,2.021 2.06,4.306 -0.608,1.701 -1.569,3.048 -3.557,3.369 z m -2.387,19.265 c -1.562,-0.129 -3.102,-0.503 -4.492,0 -0.67,0.245 -1.055,0.904 -1.686,0.844 -0.597,-0.056 -0.83,-0.773 -1.403,-0.936 -0.577,0.015 -0.951,-0.173 -1.31,-0.374 -1.08,0.305 -1.914,0.127 -2.902,0 -4.735,-0.614 -9.689,-2.464 -14.977,-1.872 -0.682,0.075 -1.377,0.337 -2.059,0.467 -0.739,0.141 -1.474,0.192 -2.246,0.282 -1.469,0.17 -2.939,0.587 -4.399,0.748 -2.367,0.259 -4.822,0.289 -6.927,0.841 -1.248,0.33 -2.404,1.32 -3.931,1.031 -1.837,-0.347 -0.053,-2.147 0.561,-2.434 0.9,-0.419 2.578,-0.48 4.119,-0.749 1.515,-0.263 3.078,-0.476 4.305,-0.561 1.892,-0.133 3.442,-0.083 5.055,-0.375 1.022,-0.184 1.968,-0.595 2.996,-0.748 1.064,-0.16 2.148,-0.088 3.182,-0.187 0.889,-0.086 1.779,-0.313 2.621,-0.375 1.027,-0.077 1.991,0.137 2.994,0.187 0.526,0.026 1.1,-0.042 1.592,0 2.545,0.219 5.338,1.175 7.301,0.188 3.536,0.505 6.036,-0.141 8.517,-1.686 2.292,-1.426 4.633,-3.05 7.677,-2.247 1.46,0.388 2.75,1.468 2.994,2.809 0.273,1.5 -0.317,2.722 -0.937,3.369 -1.163,1.221 -3.481,1.862 -5.522,1.873 -0.517,-0.143 -0.332,0.415 -0.748,0.374 -0.172,-0.108 0.05,-0.611 -0.375,-0.469 m 24.431,6.273 c 1.298,-0.039 0.61,1.86 -0.375,1.029 -0.147,-0.328 -0.013,-0.784 0.28,-0.935 l 0.141,0.046 z m -0.141,-0.141 0.046,0.141 c -0.321,-0.019 -0.549,0.29 -0.842,0.374 -0.505,0.146 -1.188,0.046 -1.871,0.187 -1.388,0.288 -2.695,1.432 -3.932,1.591 -0.318,0.041 -0.712,-0.05 -1.029,0 -1.392,0.219 -2.889,1.285 -1.779,2.715 0.884,0.252 1.639,-0.215 2.247,-0.375 0.532,-0.14 1.275,-0.093 1.872,-0.186 1.051,-0.165 2.464,-0.145 3.463,0.186 1.012,0.336 2.326,1.373 2.714,2.434 0.042,0.112 -0.037,0.405 0,0.562 0.085,0.355 0.233,0.736 0.187,1.217 -0.176,1.878 -1.132,2.922 -2.152,3.743 -0.861,0.693 -1.951,1.062 -2.902,1.779 -0.002,10e-4 -0.181,0.18 -0.187,0.187 -0.768,0.883 -0.562,2.69 -0.281,3.932 0.282,1.247 0.534,2.603 0.936,3.557 0.428,1.014 0.824,1.765 1.123,2.901 0.337,1.281 0.677,2.687 0.936,3.745 0.433,1.76 0.639,3.588 1.497,4.772 0.585,0.806 2.089,2.002 2.809,1.124 0.292,-0.357 0.678,-0.579 0.936,-0.843 0.049,-0.05 0.155,-0.235 0.187,-0.281 0.251,-0.351 0.407,-0.993 0.655,-1.592 0.44,-1.058 0.882,-2.051 1.31,-3.18 0.236,-0.621 0.499,-1.276 0.562,-1.779 0.15,-1.199 -0.058,-2.825 -0.187,-3.557 -0.114,-0.652 -0.081,-1.41 -0.188,-2.06 -0.019,-0.123 -0.15,-0.226 -0.187,-0.374 -0.052,-0.216 0.055,-0.479 0,-0.655 -0.058,-0.194 -0.284,-0.348 -0.373,-0.562 -0.319,-0.763 -0.471,-1.245 -0.937,-1.684 0.093,-1.216 -0.406,-1.839 -0.748,-2.621 0.242,-0.588 0.231,-1.115 0.187,-1.498 -0.053,-0.456 -0.282,-1.171 -0.562,-1.591 -0.691,-1.04 -2.151,-1.328 -1.872,-2.902 1.283,-1.307 3.173,-2.006 4.492,-3.276 0.355,-1.361 -0.365,-2.1 -1.122,-2.621 -1.611,0.14 -3.181,-0.307 -3.932,-1.311 v -0.748 c 0.137,-0.3 0.639,-0.235 0.843,-0.468 0.609,0.31 1.153,0.477 1.685,0.841 0.509,0.351 0.952,0.815 1.498,1.124 0.347,0.074 0.711,-0.184 1.123,-0.187 0.811,-0.005 1.458,0.474 2.527,0.375 1.384,-0.127 2.839,-0.647 3.744,-1.685 0.471,-0.54 0.787,-1.249 1.217,-1.872 0.891,-1.295 1.832,-2.431 2.714,-3.65 0.946,-1.308 1.661,-2.356 0.375,-3.276 -1.99,0.459 -2,2.863 -3.276,4.024 -0.731,0.664 -1.593,0.657 -2.34,1.404 -1.203,0.182 -2.743,0.007 -3.931,0.188 -0.875,0.131 -1.68,0.433 -2.528,0.561 -0.667,0.101 -1.407,0.03 -2.059,0.188 -0.829,0.199 -1.941,0.816 -2.527,1.029 z M 7.041,66.326 C 7.907,65.142 6.855,63.812 6.853,62.487 6.852,61.727 7.19,60.861 7.415,59.96 7.515,59.563 7.599,59.083 7.696,58.65 7.874,57.851 7.877,57.063 7.976,55.936 8.1,54.521 8.601,53.125 8.725,51.911 8.802,51.152 8.683,50.698 8.444,50.132 8.124,49.375 7.843,49.161 7.228,48.635 6.431,47.953 5.386,47.368 3.764,47.698 c -0.58,0.119 -1.908,0.724 -2.34,1.124 -0.861,0.797 -1.847,2.547 -1.966,3.182 -0.195,1.05 0.091,2.378 0.469,3.183 0.264,0.565 0.674,1.078 0.936,1.684 0.138,0.32 0.253,0.62 0.374,0.936 0.12,0.314 0.181,0.651 0.281,0.843 0.363,0.698 1.107,1.147 1.497,1.779 0.344,0.553 0.503,1.239 0.842,1.777 0.329,0.522 0.673,0.976 1.124,1.404 0.398,0.945 0.678,2.006 1.31,2.716 z m -23.963,6.646 c 0.36,0.078 1.107,0.136 1.591,-0.095 0.636,-0.303 1.129,-1.234 1.592,-1.965 0.485,-0.768 0.899,-1.584 1.216,-2.247 0.756,-1.572 1.411,-3.077 2.153,-4.867 0.796,-1.918 1.238,-3.375 1.966,-5.055 0.391,-0.902 0.822,-1.514 1.31,-2.246 0.494,-0.74 1.191,-1.607 1.217,-2.246 0.032,-0.804 -0.55,-1.602 -0.842,-1.872 -0.848,-0.782 -2.879,-1.195 -4.494,-0.749 -0.669,0.184 -1.805,1.1 -2.526,1.591 -0.408,0.278 -0.904,0.505 -1.311,0.75 -0.212,0.126 -0.362,0.33 -0.562,0.467 -0.276,0.19 -0.56,0.237 -0.655,0.375 -0.042,0.06 0.028,0.21 0,0.28 -0.03,0.075 -0.174,0.055 -0.187,0.094 -0.134,0.362 -0.199,1.173 -0.281,1.873 -0.125,1.066 -0.177,1.679 -0.281,2.807 -0.164,1.788 -0.802,3.625 -1.123,5.523 -0.153,0.906 -0.239,1.956 -0.375,2.901 -0.069,0.493 -0.121,1.01 -0.187,1.497 -0.113,0.844 -0.305,1.412 0,2.061 0.264,0.558 1.097,0.973 1.779,1.123 M 13.124,52.565 c -0.653,-0.413 -1.616,-0.077 -1.779,0.469 -0.211,0.715 0.505,1.154 0.562,1.779 0.109,1.172 -1.072,1.855 -1.404,2.527 -0.127,0.257 0.01,0.534 -0.281,0.748 -0.238,1.55 0.33,2.713 0.188,4.213 -0.134,1.412 -0.802,2.754 -0.937,4.212 -0.098,1.06 -0.17,2.197 0,3.275 0.116,0.736 0.306,1.139 0.656,1.778 0.907,1.663 3.616,3.947 6.083,2.247 0.703,-0.483 1.957,-2.191 2.434,-3.275 0.318,-0.724 0.147,-1.786 -0.093,-2.622 -0.237,-0.823 -0.627,-1.56 -0.842,-2.34 -0.886,-3.202 -2.535,-6.018 -3.557,-9.266 -0.034,-0.108 0.047,-0.272 0,-0.374 -0.025,-0.053 -0.182,-0.078 -0.187,-0.094 -0.335,-1.084 -0.322,-2.229 -0.843,-3.277 M 10.69,85.981 c 0.095,-0.281 -0.208,-0.166 -0.374,-0.186 0.023,0.164 0.161,0.214 0.374,0.186 M 33.061,36.935 c 2.334,2.535 4.256,5.643 8.05,6.833 0.368,0.115 0.731,0.073 1.03,0.187 0.791,0.303 1.749,1.042 1.778,1.965 0.005,0.162 -0.057,0.659 -0.188,0.936 -0.892,1.907 -4.545,1.667 -6.177,2.995 -0.561,0.457 -1.184,1.67 -0.936,2.902 0.104,0.519 0.486,0.61 0.749,1.498 0.964,0.56 1.814,1.374 2.527,2.246 0.691,0.846 1.297,2.023 1.592,3.275 0.304,1.299 0.243,2.847 0.373,4.307 0.163,1.815 0.6,3.767 0.749,5.616 0.238,2.938 -1.474,5.558 -3.369,6.177 -2.871,0.939 -3.404,-1.864 -4.399,-3.556 -0.24,-0.408 -0.566,-0.723 -0.75,-1.03 -0.437,-0.729 -0.801,-1.505 -1.403,-2.153 -0.577,-0.62 -1.221,-1.304 -1.779,-1.779 -0.582,-0.494 -1.311,-0.834 -1.966,-1.31 -0.636,-0.461 -1.225,-1.028 -1.871,-1.497 -1.375,-0.995 -3.138,-1.241 -4.4,-2.246 -0.93,-0.742 -1.635,-1.873 -2.339,-2.996 -0.729,-1.161 -1.35,-2.408 -1.498,-3.837 -0.071,-0.68 0.082,-1.597 0,-2.434 -0.105,-1.066 -0.711,-3.458 -1.405,-3.65 -0.396,-0.111 -1.009,0.044 -1.31,0.186 -0.566,0.27 -1.177,1.314 -1.217,1.779 -0.034,0.399 0.182,0.747 0.375,1.31 0.141,0.416 0.229,0.896 0.375,1.312 0.895,2.565 2.133,5.05 2.994,7.206 0.979,2.45 1.895,4.964 2.622,7.583 0.259,0.936 0.649,1.93 0.749,2.714 0.15,1.174 -0.046,2.657 -0.282,3.276 -0.196,0.516 -0.408,0.812 -0.655,1.029 -0.047,0.041 0.04,0.231 0,0.282 -0.491,0.625 -1.257,1.206 -1.779,1.403 -0.796,0.3 -1.8,0.098 -2.807,0.468 -1.048,0.385 -1.466,1.589 -1.592,2.901 -0.063,0.662 0.099,1.306 0,2.061 -0.161,1.223 -0.947,2.519 -1.872,3.087 -3.329,2.05 -7.528,-1.096 -8.049,-3.837 -0.206,-1.082 -0.097,-2.292 0,-3.276 C 5.105,77.604 5.573,76.411 5.729,75.124 5.81,74.461 5.919,73.675 5.917,73.252 5.916,72.951 5.759,72.643 5.729,72.316 5.632,71.204 5.594,70.563 5.449,69.695 5.364,69.189 5.308,68.648 5.167,68.196 5.115,68.026 4.874,67.83 4.794,67.636 4.677,67.351 4.716,67.047 4.607,66.794 4.193,65.845 3.491,65.089 3.109,64.266 2.798,63.597 2.615,62.964 2.36,62.582 1.705,61.599 0.642,60.892 0.487,59.493 c -1.183,-0.937 -1.678,-2.564 -2.245,-4.12 -0.321,-0.191 -0.724,-0.215 -1.124,-0.186 -0.091,0.006 -1.028,0.241 -0.935,0.186 -0.157,0.093 -0.608,0.68 -0.843,1.031 -0.566,0.843 -0.862,1.867 -1.03,2.901 -1.443,1.295 -1.865,3.211 -2.526,5.055 -0.636,1.766 -1.492,3.535 -2.342,5.242 -0.789,1.587 -1.609,3.335 -2.62,4.961 -0.905,1.454 -1.986,3.381 -3.276,4.398 -0.491,0.388 -1.352,0.793 -1.965,0.844 -2.412,0.194 -3.436,-1.875 -3.651,-3.652 -0.121,-1.005 0.171,-2.109 0.28,-3.181 0.091,-0.882 -0.009,-1.764 0.095,-2.529 0.037,-0.275 0.221,-0.544 0.28,-0.841 0.181,-0.894 0.262,-1.392 0.468,-2.06 0.109,-0.353 0.164,-0.778 0.281,-1.124 0.227,-0.664 0.604,-1.274 0.749,-1.965 0.084,-0.404 0.02,-0.878 0.093,-1.31 0.261,-1.514 0.795,-3.111 1.031,-4.68 0.107,-0.724 0.072,-1.591 0.187,-2.435 0.173,-1.282 0.567,-2.366 0,-3.181 -0.311,-0.446 -0.672,-1.051 -1.311,-1.03 -0.541,0.018 -1,0.649 -1.404,1.03 -0.453,0.426 -0.804,0.855 -1.31,1.124 -1.269,1.569 -2.657,3.018 -4.026,4.492 -1.712,1.843 -3.345,3.907 -5.054,5.616 -2.56,2.561 -5.992,3.982 -10.108,4.961 -0.214,0.067 -0.281,0.282 -0.375,0.468 -0.261,-0.212 -0.559,-0.137 -0.843,-0.094 -0.764,0.115 -1.577,0.566 -2.434,0.843 -0.846,0.272 -1.751,0.581 -2.714,0.655 -1.3,0.098 -2.36,-0.291 -3.182,-0.374 -2.428,-0.249 -2.857,1.622 -5.054,1.311 -0.35,-0.328 -0.656,-0.271 -1.03,-0.656 -0.492,-0.505 -0.511,-1.352 -1.124,-1.591 -0.508,-0.201 -1.19,0.164 -1.778,0.093 -0.43,-0.051 -0.974,-0.44 -1.591,-0.935 -0.559,-0.449 -1.217,-0.74 -1.592,-1.031 -0.553,-0.427 -0.968,-1.001 -1.591,-1.403 -1.511,-0.979 -3.307,-1.797 -3.369,-3.932 1.842,-0.566 3.309,0.32 4.212,1.404 0.371,0.447 0.567,1.061 0.935,1.498 0.247,0.292 0.676,0.581 1.03,0.935 0.348,0.348 0.694,0.733 1.03,0.937 0.517,0.313 1.116,0.36 1.592,0.655 0.46,0.286 0.774,1.118 1.31,1.31 0.831,0.299 1.477,-0.373 2.34,-0.373 1.346,0 1.787,0.862 2.714,1.123 0.869,0.243 1.821,0.145 2.434,-0.469 0.597,-0.599 0.692,-1.812 1.592,-2.246 0.681,-0.329 2.934,-0.019 3.836,-0.281 0.585,-0.17 1.225,-0.672 1.967,-1.03 1.358,-0.657 2.846,-1.26 4.118,-1.965 0.148,-0.083 0.232,-0.295 0.374,-0.374 0.371,-0.207 0.75,-0.294 1.03,-0.469 0.186,-0.116 0.371,-0.175 0.562,-0.28 3.242,-1.797 6.561,-3.971 8.892,-6.365 0.769,-0.791 1.615,-1.535 2.34,-2.247 0.81,-0.797 1.59,-1.513 2.433,-2.246 3.181,-2.765 7.366,-4.796 8.518,-9.454 0.199,-0.804 0.354,-1.585 0.562,-2.34 0.627,-2.278 1.639,-4.067 2.715,-5.897 0.663,-1.132 1.544,-2.834 2.807,-2.995 0.97,-0.124 1.765,0.443 2.621,0.561 0.514,0.071 1.086,-0.077 1.685,0 0.91,0.119 1.855,0.487 2.714,0.562 4.307,0.376 5.686,-3.969 7.582,-5.616 0.963,-0.836 1.899,-1.14 2.153,-2.621 0.29,-1.705 -0.241,-2.892 -0.749,-3.745 -0.37,-0.617 -0.898,-1.262 -0.749,-2.245 0.861,-1.054 0.771,-3.86 2.621,-3.744 0.719,0.044 0.981,0.857 1.685,1.311 0.423,0.272 1.023,0.455 1.685,0.466 3.25,0.062 4.976,-2.791 5.241,-5.896 0.902,-0.866 1.554,-3.883 3.463,-3.463 0.73,0.16 1.083,1.007 1.031,2.153 0.276,0.47 0.345,0.937 0.56,1.404 0.199,0.43 0.495,0.804 0.75,1.216 1.549,2.504 2.724,5.172 4.118,7.863 0.696,0.689 2.062,1.152 2.996,0.374 1.014,0.643 2.366,1.83 3.931,1.311 0.388,-0.658 -0.079,-1.408 0.561,-1.778 0.606,-0.352 1.232,0.371 1.966,0.28 0.616,-0.076 1.286,-0.869 1.591,-1.404 0.16,-0.28 0.342,-0.661 0.374,-1.123 0.53,-0.589 1.273,-0.987 1.779,-1.685 0.826,-1.139 1.282,-2.708 1.965,-4.213 0.622,-1.367 1.468,-2.672 2.247,-4.024 0.688,-1.193 1.202,-2.609 1.872,-4.118 0.64,-1.442 1.314,-3.099 2.527,-3.744 1.545,-0.823 3.094,-0.115 2.902,1.59 -0.05,0.443 -0.427,0.873 -0.749,1.405 -0.627,1.035 -1.109,1.762 -1.778,2.621 -0.351,0.449 -0.648,1.012 -0.937,1.31 -0.672,0.697 -1.547,1.117 -1.965,1.779 -0.366,0.577 -0.62,1.479 -1.03,2.246 -0.42,0.785 -0.994,1.498 -1.217,2.152 -0.295,0.87 -0.324,2.087 -0.468,2.996 -0.601,3.791 -2.085,7.092 -4.024,9.454 -0.802,0.975 -1.809,1.777 -2.434,2.995 0.191,0.369 0.442,0.817 0.842,0.936 1.23,0.366 2.442,-0.772 3.838,-0.749 1.469,0.025 2.021,0.743 2.808,1.872 0.221,1.563 -0.371,2.313 -0.749,3.276 0.264,0.419 0.329,0.623 0.655,0.843 0.356,0.238 0.887,0.244 1.217,0.374 1.674,0.656 3.437,2.231 3.276,4.587 -0.192,2.837 -3.052,5.267 -6.365,4.399 -0.524,-0.137 -1.64,-0.822 -1.965,-1.123 -0.565,-0.524 -1.201,-1.698 -1.591,-2.621 -0.412,-0.971 -0.662,-2.515 -1.311,-2.996 -0.449,-0.331 -1.698,-0.508 -2.714,-0.561 -0.973,-0.05 -2.159,0.282 -2.247,-0.562 -0.102,-0.969 1.351,-1.131 2.247,-0.749 0.696,-0.447 2.24,0.075 2.808,-0.28 0.306,-1.397 -1.799,-1.301 -2.808,-1.591 -0.776,-0.224 -1.443,-0.84 -1.966,-0.935 -1.191,-0.222 -3.013,0.432 -3.088,1.309 -0.099,1.137 0.996,1.492 2.152,1.591 0.322,0.584 0.392,1.418 0.655,2.06 m -65.802,48.579 c -0.273,0.632 -0.621,1.452 -0.749,2.152 -0.087,0.483 -0.196,1.156 -0.186,1.685 0.016,0.928 0.551,1.862 0.748,2.808 0.29,1.397 0.152,3.029 -0.562,3.932 -1.255,1.589 -3.353,1.99 -5.427,3.275 -2.165,1.341 -3.831,2.612 -5.804,2.902 -1.462,0.216 -2.708,-0.032 -3.557,-0.468 -1.901,-0.973 -2.159,-2.792 -2.434,-5.523 -1.102,-0.881 -0.389,-2.17 0.937,-1.778 1.642,-0.592 3.419,-1.974 4.773,-3.369 1.098,-1.132 2.198,-2.806 1.685,-4.775 -0.321,-0.028 -0.952,-0.122 -1.218,-0.467 v -0.842 c 0.31,-0.03 0.287,-0.317 0.469,-0.374 0.555,-0.174 0.868,0.35 1.403,0.374 0.704,0.03 1.197,-0.599 1.967,-1.029 0.638,-0.359 1.538,-0.752 2.246,-0.843 0.673,-0.087 1.703,0.038 2.058,0.187 0.831,0.347 1.335,1.03 2.621,1.216 0.399,-0.349 0.568,-0.93 1.218,-1.029 0.818,0.638 0.049,1.42 -0.188,1.966 m 15.725,-93.04 c 0.296,0.203 0.449,0.549 0.375,1.124 -1.246,1.121 -2.095,-1.215 -0.375,-1.124 m 1.404,1.779 c 0.259,-0.909 1.567,-0.53 1.405,0.373 -0.066,0.369 -0.421,0.778 -1.03,0.469 -0.374,-0.19 -0.5,-0.401 -0.375,-0.842 m 1.592,2.526 c -0.055,0.625 -1.283,0.811 -1.03,-0.374 0.528,-0.384 1.072,-0.109 1.03,0.374 m 2.527,0.469 c -0.462,-1.711 2.091,-1.419 1.404,0 -0.285,0.387 -1.112,0.344 -1.404,0 m 3.277,-1.125 c 0.872,0.092 0.905,1.93 -0.375,1.499 -1.004,-0.338 -0.449,-1.584 0.375,-1.499 m -11.888,2.342 c 0.135,-0.303 0.307,-0.568 0.748,-0.563 0.251,0.157 0.347,0.465 0.281,0.937 -0.396,0.222 -1.042,0.258 -1.029,-0.374 M -26.75,8.76 C -26.859,8.839 -27,8.884 -27.217,8.854 -27.308,8.51 -26.759,8.482 -26.75,8.76 m 14.508,2.06 c 0.095,0 0.112,-0.077 0.187,-0.093 -0.009,0.146 0.013,0.324 -0.187,0.28 z m 21.435,2.153 c -0.025,-0.306 0.111,-0.452 0.375,-0.469 -0.039,0.226 0.171,0.204 0.093,0.469 -0.178,0.174 -0.235,0.009 -0.468,0 m -25.928,-0.282 h 0.468 c 0.059,0.364 0.078,0.386 -0.093,0.656 h -0.375 c -0.129,-0.296 -0.02,-0.314 0,-0.656 m -24.524,7.864 c 0.274,-0.138 0.274,0.418 0,0.28 z m 35.757,0.092 c 0.186,-1.463 2.713,-0.485 1.778,1.031 -0.973,0.582 -1.876,-0.265 -1.778,-1.031 m 6.084,-1.029 c 1.244,0.597 0.538,3.069 -1.124,2.34 -1.141,-0.571 -0.573,-2.727 1.124,-2.34 m -51.107,-0.094 c 1.441,-0.227 2.201,1.195 1.498,2.247 -0.486,0.726 -2.541,0.932 -3.557,0.562 -0.13,-1.187 0.918,-2.628 2.059,-2.809 m 41.091,4.12 c 0.177,0.02 0.207,-0.107 0.374,-0.094 0.089,0.16 0.347,0.153 0.281,0.468 -0.157,0.124 -0.2,0.362 -0.561,0.281 -0.129,-0.121 -0.092,-0.407 -0.094,-0.655 m 6.458,0.561 h 0.187 v 0.187 H -2.976 Z M -53.895,22.8 c 1.112,0.414 0.221,2.374 -1.029,1.779 -1.18,-0.56 -0.094,-2.196 1.029,-1.779 m -3.369,1.966 c 0.391,-0.609 1.585,-0.916 2.058,-0.187 v 0.937 c -0.513,0.909 -2.324,0.832 -2.058,-0.75 m -14.977,2.714 c 0.129,0.121 0.164,0.56 -0.092,0.562 -0.129,-0.119 -0.164,-0.56 0.092,-0.562 m 70.669,1.124 c -0.567,0.201 -1.366,-0.159 -1.497,-0.281 -0.494,-0.463 -0.318,-1.86 0.655,-1.778 0.193,0.025 0.088,0.349 0.281,0.374 v -0.374 c 1.382,-0.105 1.51,1.722 0.561,2.059 m -5.616,-0.935 h 0.75 c 0.129,0.262 0.248,0.537 0.093,0.842 -0.155,0.156 -0.55,0.074 -0.843,0.093 -0.209,-0.329 -0.209,-0.608 0,-0.935 m -4.585,0.373 c 0.176,-0.021 0.205,0.106 0.373,0.094 v 0.375 c -0.108,0.078 -0.251,0.123 -0.468,0.093 -0.011,-0.231 -0.013,-0.451 0.095,-0.562 m 15.35,0.562 c -0.79,0.151 -1.632,-0.015 -1.779,-0.562 -0.219,-0.82 1.166,-1.998 1.872,-1.871 0.614,0.466 0.45,2.04 -0.093,2.433 m -63.274,0.187 c -0.767,0.149 -1.237,-0.208 -1.311,-0.749 -0.061,-0.436 0.292,-0.994 0.468,-1.123 0.529,-0.387 1.517,-0.844 2.153,-0.936 0.249,0.218 0.506,0.43 0.561,0.842 -0.487,0.4 -1.093,1.815 -1.871,1.966 m 59.062,-2.995 c 0.146,-0.143 0.613,-0.316 0.935,-0.28 1.339,0.142 1.982,3.985 -0.092,3.369 -0.75,-0.223 -1.667,-2.288 -0.843,-3.089 m -62.619,3.37 c 0.287,-0.556 0.787,-0.897 1.778,-0.749 0.317,0.307 0.577,0.67 0.468,1.404 -0.518,0.919 -2.453,0.879 -2.246,-0.655 m 57.752,0.748 c 0.402,-0.388 1.173,-0.149 1.122,0.469 -0.251,0.618 -1.403,0.643 -1.122,-0.469 m -2.809,0.562 c -0.489,-1.877 1.795,-1.875 1.873,-0.655 0.04,0.623 -0.529,1.323 -1.498,0.936 -0.147,-0.071 -0.141,-0.297 -0.375,-0.281 m 1.873,0.468 c 0.369,-0.273 0.859,-0.196 0.936,0.281 -0.092,0.474 -1.217,0.616 -0.936,-0.281 m -12.45,-0.094 c 0.083,0.229 0.281,0.343 0.187,0.75 -0.813,0.804 -1.404,-0.92 -0.187,-0.75 m -1.872,2.153 c 0.011,-0.635 0.526,-1.058 1.404,-1.028 1.465,1.31 -1.433,2.84 -1.404,1.028 m -48.485,-0.468 c 0.007,-0.021 0.168,0.017 0.187,0 0.047,-0.042 -0.043,-0.232 0,-0.28 0.256,-0.293 1.187,-0.444 1.497,-0.375 0.552,0.122 1.092,0.906 0.937,1.592 -0.147,0.649 -1.246,0.993 -1.779,0.841 -0.551,-0.156 -1.178,-0.816 -0.842,-1.778 m 46.8,1.498 c 0.048,-0.925 1.586,-1.054 1.685,-0.094 0.043,0.418 -0.255,0.418 -0.374,0.842 -1.182,0.142 -1.334,-0.279 -1.311,-0.748 m -59.436,0.842 h 0.374 v 0.188 h -0.374 z m 40.342,0.375 c -0.044,-0.295 0.252,-0.247 0.28,-0.469 0.223,0.059 0.436,0.126 0.468,0.375 -0.132,0.33 -0.513,0.295 -0.748,0.094 m 22.933,0.468 c -0.646,-1.243 1.529,-1.75 1.216,-0.188 -0.339,0.262 -0.693,0.316 -1.216,0.188 m -0.936,-0.374 c 0.736,0.237 0.79,1.257 0.186,1.684 -1.672,0.39 -1.573,-1.828 -0.186,-1.684 m -52.418,1.497 c -0.242,0.414 -0.479,0.83 -0.842,1.123 -1.085,0.204 -1.312,-0.49 -1.123,-1.311 0.426,-0.228 0.847,-0.463 1.123,-0.841 0.022,-1.008 0.695,-1.366 1.872,-1.217 0.994,0.786 0.219,2.329 -1.03,2.246 m 56.161,0.936 c 0.223,0.256 0.185,0.566 0.094,0.937 -1.092,0.349 -1.077,-1.165 -0.094,-0.937 m -3.182,5.616 c 0.119,-0.127 0.458,-0.145 0.467,0.093 -0.119,0.128 -0.458,0.145 -0.467,-0.093 m -21.435,0.187 c -0.295,-1.133 1.234,-1.188 1.123,-0.187 -0.178,0.228 -0.384,0.427 -0.842,0.375 -0.038,-0.119 -0.121,-0.192 -0.281,-0.188 m -34.258,-0.468 c -0.235,0.971 -1.874,1.211 -2.433,0.188 -0.545,-2.54 2.879,-2.032 2.433,-0.188 m 41.558,0.936 c 0.283,-0.217 0.471,-0.527 1.031,-0.468 0.274,0.194 0.329,0.608 0.28,1.123 -0.497,0.36 -1.528,0.253 -1.311,-0.655 m -22.65,3.557 V 47.23 c 0.349,-0.037 0.549,0.076 0.56,0.375 -0.118,0.127 -0.441,0.127 -0.56,0 m 111.479,0.842 c -2.907,1.116 -6.11,-0.686 -5.429,-4.211 0.295,-1.529 2.281,-3.255 3.932,-3.464 2.43,-0.309 4.257,1.343 4.305,3.557 0.035,1.619 -0.938,1.892 -0.843,3.183 -0.845,-0.169 -1.303,0.681 -1.965,0.935 m 41.652,0.562 c -0.052,-0.738 0.335,-1.038 1.124,-0.937 0.1,0.275 0.266,0.484 0.187,0.937 -0.308,0.403 -1.033,0.479 -1.311,0 m -20.966,0.186 c -0.405,-1.273 1.443,-2.086 2.059,-1.123 0.661,1.77 -1.694,2.276 -2.059,1.123 m -3.37,-1.683 c 1.517,0.009 1.342,2.71 -0.374,2.339 -1.555,-0.335 -0.838,-2.347 0.374,-2.339 m -95.287,2.058 c -0.779,0.785 -1.734,0.055 -1.497,-0.748 0.174,-0.59 1.016,-0.542 1.497,-0.281 0,0.48 0.138,0.614 0,1.029 m -2.433,0.094 c -0.473,0.331 -1.241,0.366 -1.591,-0.094 -0.543,-1.721 2.506,-1.518 1.591,0.094 m -20.03,0.281 V 49.29 c 0.234,-0.077 0.367,-0.257 0.655,-0.281 0.166,0.208 0.368,0.381 0.28,0.842 -0.439,0.206 -0.462,0.272 -0.935,0.094 m -40.249,0.187 c 0.225,0.038 0.204,-0.171 0.468,-0.093 0.157,0.369 0.157,0.286 0,0.655 h -0.468 z m 134.412,-3.37 c 0.814,0.08 0.823,0.921 1.029,1.779 1.192,0.233 1.301,2.054 0.375,2.34 -1.042,0.322 -1.772,-0.639 -1.592,-1.872 -1.476,-0.308 -1.147,-2.375 0.188,-2.247 m -125.988,3.744 c 0.398,-0.054 0.435,0.253 0.561,0.469 -0.225,0.088 -0.247,0.376 -0.655,0.281 -0.24,-0.251 -0.004,-0.555 0.094,-0.75 M 90.907,49.57 c 1.058,0.293 0.611,2.487 -0.843,1.967 -1.387,-0.499 -0.248,-2.267 0.843,-1.967 m -135.628,1.592 c -0.012,0.239 -0.018,0.482 -0.281,0.468 0.002,-0.248 -0.087,-0.587 0.281,-0.468 M 62.545,50.975 c -0.064,-0.119 0.043,-0.338 0,-0.469 -0.033,-0.104 -0.187,-0.069 -0.187,-0.28 0,-0.815 0.821,-1.461 1.592,-1.404 1.792,0.134 1.614,3.108 -0.281,2.808 -0.527,-0.084 -0.965,-0.363 -1.124,-0.655 m -90.98,0.187 c 0.116,-0.845 1.996,-1.101 1.685,0.468 -0.546,0.756 -1.806,0.419 -1.685,-0.468 m 122.057,0.936 c -0.148,-1.3 2.33,-1.161 1.403,0.467 -0.603,0.424 -1.342,0.073 -1.403,-0.467 m -168.389,0.655 c -0.157,0.893 -1.856,1.34 -2.34,0.281 -0.416,-2.256 2.627,-1.913 2.34,-0.281 M 81.64,53.689 c 0.007,-0.274 0.034,-0.528 0.375,-0.468 0.138,0.079 0.201,0.236 0.187,0.468 -0.12,0.128 -0.442,0.128 -0.562,0 M -83.191,53.408 c -0.021,0.177 0.105,0.206 0.093,0.374 -0.12,0.005 -0.13,0.12 -0.28,0.094 -0.15,-0.14 -0.138,-0.533 0.187,-0.468 m 52.51,0.468 v -0.655 c 0.227,-0.148 0.399,-0.349 0.842,-0.282 0.039,0.119 0.121,0.192 0.28,0.189 v 0.748 c -0.528,0.081 -0.667,0.272 -1.122,0 M 97.74,52.565 c 0.168,0.917 -0.247,1.251 -0.562,1.686 -3.202,0.28 -0.882,-3.668 0.562,-1.686 m -41.372,1.498 c 0.215,0.074 0.091,0.58 -0.187,0.468 0.042,-0.177 -0.127,-0.563 0.187,-0.468 m -96.503,0.375 c 0.264,-0.078 0.242,0.132 0.468,0.093 0.043,0.293 -0.2,0.299 -0.468,0.282 z m 83.773,0.655 c 0.315,0.059 0.431,0.318 0.468,0.655 -0.265,0.098 -0.39,0.098 -0.655,0 -0.01,-0.29 0.114,-0.446 0.187,-0.655 m -0.094,0.749 c 0.081,0.456 -0.159,0.59 -0.468,0.655 -0.024,-0.132 -0.204,-0.106 -0.28,-0.187 v -0.468 c 0.136,-0.138 0.613,-0.138 0.748,0 M 5.636,56.404 c 0.028,0.245 -0.13,0.306 -0.374,0.281 -0.095,-0.313 0.13,-0.307 0.374,-0.281 m 59.718,0.561 c 0.305,-0.025 0.45,0.111 0.467,0.375 -0.085,0.163 -0.174,0.325 -0.467,0.28 -0.158,-0.368 -0.158,-0.286 0,-0.655 m -86.02,-0.094 c 0.988,0.017 0.585,1.622 -0.281,1.217 -0.731,-0.341 -0.357,-1.227 0.281,-1.217 m -47.643,0.469 c 0.361,-0.105 0.432,-0.222 0.843,-0.094 0.735,0.785 -1.163,1.517 -0.843,0.094 m 18.907,-3.651 c 0.102,-0.023 0.065,-0.187 0.187,-0.187 -0.039,-0.259 -0.294,-0.005 -0.187,0.187 m -0.56,4.399 c -0.248,-0.23 -0.544,0.27 0,0 m -2.247,-7.769 c 2.214,-0.518 4.223,0.55 5.054,1.685 0.398,0.545 0.766,1.464 0.749,2.341 -0.024,1.157 -0.8,2.743 -1.779,3.462 -0.675,0.499 -1.868,0.861 -2.808,0.936 -0.269,0.024 -0.861,0.031 -1.311,0 -0.613,-0.041 -1.516,-0.097 -2.433,-0.186 -0.863,-0.083 -2.151,-0.486 -2.808,-0.562 -1.677,-0.193 -1.618,-0.592 -1.404,-1.872 0.081,-0.483 0.146,-0.884 0.187,-1.405 1.538,-1.631 3.861,-3.768 6.553,-4.399 m 57.658,6.646 c 1.522,0.053 1.207,2.7 -0.562,1.966 -1.142,-0.66 -0.36,-1.998 0.562,-1.966 M 6.853,58.65 C 7.005,58.634 7.042,59.263 6.759,59.118 6.687,59.054 6.516,58.561 6.853,58.65 m 56.161,-1.03 c 0.653,1.749 -2.165,2.365 -2.154,0.655 0.006,-0.719 0.622,-1.244 1.685,-1.124 0.124,0.32 0.414,0.324 0.469,0.469 m -47.643,2.995 c 0.026,0.214 -0.023,0.353 -0.187,0.375 -0.148,-0.139 -0.105,-0.418 0.187,-0.375 m 67.019,0.189 c -0.005,-0.791 1.235,-1.341 1.872,-0.564 0.35,1.794 -1.868,1.705 -1.872,0.564 M 69.378,59.867 c 0.868,0.083 1.103,1.395 0.375,1.965 -2.179,0.724 -1.831,-2.104 -0.375,-1.965 m 15.445,1.217 c -0.307,-1.847 2.484,-2.009 2.434,-0.28 -0.028,0.945 -0.874,1.313 -1.592,1.123 -0.482,-0.13 -0.778,-0.455 -0.842,-0.843 m -155.566,0.843 c -0.611,-0.301 -1.022,-0.667 -1.403,-0.937 -0.185,-0.13 -0.399,-0.123 -0.469,-0.186 -0.569,-0.53 -1.03,-1.479 -1.123,-1.966 -0.333,-1.734 0.377,-2.869 1.497,-3.465 3.926,-0.431 3.461,3.53 3.745,6.74 -0.845,0.482 -1.321,0.268 -2.247,-0.186 M 87.724,61.646 c 0.853,0.232 0.562,1.97 -0.56,1.497 -0.942,-0.397 -0.259,-1.721 0.56,-1.497 m -147.234,0.56 c 0.292,1.274 -1.125,1.578 -1.686,0.937 -0.429,-1.377 1.133,-1.637 1.686,-0.937 m 139.466,2.81 c 0.127,0.119 0.144,0.458 -0.095,0.466 0.053,-0.135 -0.109,-0.484 0.095,-0.466 M 24.355,68.01 h 0.188 v 0.187 h -0.188 z m 62.34,-1.592 c -0.4,-2.932 3.109,-4.265 4.68,-2.62 0.187,0.196 0.469,0.609 0.562,1.123 0.411,2.292 -1.568,3.827 -3.37,3.464 -1.119,-0.226 -1.779,-1.285 -1.872,-1.967 m -88.36,6.646 c 0.014,0.232 0.017,0.456 -0.187,0.468 -0.061,-0.227 -0.189,-0.481 0.187,-0.468 m -31.825,1.218 c -0.033,-0.471 0.357,-0.517 0.656,-0.655 0.271,0.19 0.188,0.62 0,0.842 -0.336,0.054 -0.454,-0.11 -0.656,-0.187 m 83.399,0.092 c 0.139,0.131 0.049,0.446 -0.281,0.376 -0.026,-0.245 0.035,-0.403 0.281,-0.376 m -100.808,1.687 c 0.532,-0.397 1.446,-0.172 1.404,0.56 -0.278,0.763 -1.772,0.782 -1.404,-0.56 m 134.599,0 c 1.234,0.847 -0.447,2.657 -1.31,1.403 -0.108,-1.012 0.299,-1.509 1.31,-1.403 m -107.362,2.152 v 0.374 h -0.28 c -0.026,-0.244 -0.032,-0.469 0.28,-0.374 m -7.3,-0.937 c 0.954,0.076 0.769,1.852 -0.375,1.405 -1.104,-0.432 -0.077,-1.441 0.375,-1.405 m -4.774,1.218 c 0.03,0.126 0.134,0.179 0.094,0.374 -0.319,0.07 -0.365,-0.358 -0.094,-0.374 m 3.183,1.402 c -0.015,-0.837 1.287,-1.175 1.684,-0.279 -0.183,0.129 -0.05,0.573 -0.187,0.748 -0.685,0.49 -1.486,0.192 -1.497,-0.469 m -15.912,0.563 c 0.147,0.009 0.324,-0.013 0.28,0.187 h -0.188 c 10e-4,-0.094 -0.075,-0.111 -0.092,-0.187 m -0.562,0.094 c -0.21,0.871 -1.976,0.781 -1.685,-0.468 0.074,-0.315 0.523,-0.481 0.937,-0.655 0.564,0.37 0.882,0.569 0.748,1.123 m -4.681,-0.094 c 0.304,-0.19 0.638,-0.204 0.844,0.094 0.044,0.294 -0.135,0.365 -0.188,0.561 -0.545,0.109 -0.763,-0.111 -0.656,-0.655 m 5.804,3.276 c 0.456,-0.557 1.617,-0.922 2.246,-0.281 0.823,1.828 -2.662,2.432 -2.246,0.281 m 20.499,12.075 c 0.376,0.091 0.376,-0.56 0,-0.468 z"
             style="fill:#262626;fill-opacity:1;fill-rule:nonzero;stroke:none"
             id="path46"
             inkscape:connector-curvature="0" />
        </g>
      </g>
    </g>
  </g>
</svg>
