<?xml version="1.0" encoding="UTF-8" standalone="no"?>
<!-- Created with Inkscape (http://www.inkscape.org/) -->

<svg
   xmlns:dc="http://purl.org/dc/elements/1.1/"
   xmlns:cc="http://creativecommons.org/ns#"
   xmlns:rdf="http://www.w3.org/1999/02/22-rdf-syntax-ns#"
   xmlns:svg="http://www.w3.org/2000/svg"
   xmlns="http://www.w3.org/2000/svg"
   xmlns:sodipodi="http://sodipodi.sourceforge.net/DTD/sodipodi-0.dtd"
   xmlns:inkscape="http://www.inkscape.org/namespaces/inkscape"
   width="64.793709mm"
   height="46.745449mm"
   viewBox="0 0 64.793709 46.745449"
   version="1.1"
   id="svg4499"
   inkscape:version="0.92.2 2405546, 2018-03-11"
   sodipodi:docname="paint-big10.svg">
  <defs
     id="defs4493">
    <clipPath
       clipPathUnits="userSpaceOnUse"
       id="clipPath42">
      <path
         d="M 0,600 H 600 V 0 H 0 Z"
         id="path40"
         inkscape:connector-curvature="0" />
    </clipPath>
  </defs>
  <sodipodi:namedview
     id="base"
     pagecolor="#ffffff"
     bordercolor="#666666"
     borderopacity="1.0"
     inkscape:pageopacity="0.0"
     inkscape:pageshadow="2"
     inkscape:zoom="0.35"
     inkscape:cx="22.444797"
     inkscape:cy="508.33786"
     inkscape:document-units="mm"
     inkscape:current-layer="layer1"
     showgrid="false"
     inkscape:window-width="3840"
     inkscape:window-height="2095"
     inkscape:window-x="0"
     inkscape:window-y="0"
     inkscape:window-maximized="1" />
  <metadata
     id="metadata4496">
    <rdf:RDF>
      <cc:Work
         rdf:about="">
        <dc:format>image/svg+xml</dc:format>
        <dc:type
           rdf:resource="http://purl.org/dc/dcmitype/StillImage" />
        <dc:title></dc:title>
      </cc:Work>
    </rdf:RDF>
  </metadata>
  <g
     inkscape:label="Layer 1"
     inkscape:groupmode="layer"
     id="layer1"
     transform="translate(3.6706621,-236.58561)">
    <g
       transform="matrix(0.35277777,0,0,-0.35277777,-7.1983949,286.85864)"
       id="g36">
      <g
         id="g38"
         clip-path="url(#clipPath42)">
        <g
           id="g44"
           transform="translate(57.9087,38.0195)">
          <path
             d="M 0,0 C -0.068,-0.045 -0.061,-0.114 -0.015,-0.183 0.029,-0.25 0.145,-0.247 0.212,-0.202 L 0.549,0.021 C 0.481,-0.023 0.412,0.007 0.367,0.074 0.323,0.141 0.36,0.244 0.428,0.289 Z m -0.634,-0.613 c -0.248,-0.148 -0.482,-0.341 -0.717,-0.588 -0.028,-0.03 -0.027,-0.077 0.003,-0.106 0.029,-0.028 0.076,-0.027 0.104,0.002 0.226,0.238 0.451,0.423 0.687,0.564 0.034,0.021 0.045,0.067 0.024,0.102 -0.02,0.035 -0.066,0.047 -0.101,0.026 m -3.033,22.724 -0.648,-0.737 c -0.442,-0.516 -0.859,-1.005 -1.383,-1.43 -0.044,-0.034 -0.05,-0.098 -0.015,-0.142 0.036,-0.043 0.098,-0.05 0.142,-0.015 0.538,0.437 0.981,0.954 1.41,1.456 l 0.641,0.731 c 0.038,0.041 0.035,0.107 -0.007,0.144 -0.041,0.037 -0.104,0.034 -0.14,-0.007 m 118.734,19.905 -0.215,-0.046 -0.077,-0.009 c -0.044,-0.006 -0.074,-0.045 -0.068,-0.091 0.004,-0.043 0.046,-0.075 0.09,-0.069 l 0.073,0.008 0.274,0.064 c 0.043,0.011 0.05,0.045 0.039,0.088 -0.008,0.043 -0.072,0.064 -0.116,0.055 m -4.895,18.625 c -0.04,-0.012 -0.064,-0.055 -0.051,-0.096 0.012,-0.04 0.054,-0.064 0.095,-0.051 0.166,0.049 0.329,0.005 0.501,-0.041 0.191,-0.049 0.388,-0.101 0.589,-0.021 0.04,0.014 0.06,0.06 0.045,0.099 -0.017,0.04 -0.061,0.059 -0.101,0.044 -0.154,-0.06 -0.319,-0.017 -0.493,0.029 -0.186,0.047 -0.378,0.097 -0.585,0.037 m -95.614,11.45 c -0.107,-0.043 -0.367,-0.165 -0.449,-0.365 l 0.004,-0.27 c 0.008,-0.014 0.22,-0.202 0.22,-0.202 l 0.079,-0.058 c 0.033,-0.023 0.08,-0.018 0.105,0.015 0.009,0.014 0.013,0.029 0.013,0.045 0,0.022 -0.009,0.043 -0.028,0.057 l -0.086,0.061 c 0,0 -0.175,0.15 -0.176,0.152 0.003,0 0.004,0.039 0.004,0.076 0,0.035 -10e-4,0.068 -10e-4,0.068 0.044,0.102 0.181,0.21 0.368,0.284 0.03,0.012 0.047,0.04 0.047,0.068 0,0.009 -10e-4,0.019 -0.005,0.027 -0.015,0.038 -0.059,0.057 -0.095,0.042 M -11.655,9.404 -13.926,7.008 -20.342,0.179 c -0.099,-0.106 -0.092,-0.268 0.011,-0.367 0.105,-0.098 0.272,-0.091 0.371,0.012 l 6.41,6.823 2.273,2.398 c 0.098,0.104 0.094,0.269 -0.01,0.368 -0.104,0.101 -0.269,0.096 -0.368,-0.009 m 28.311,10.484 c -0.098,-0.044 -0.187,-0.173 -0.143,-0.272 0.043,-0.098 0.112,-0.157 0.21,-0.114 l 0.452,0.198 c -0.098,-0.043 -0.236,-0.012 -0.279,0.087 -0.044,0.098 -0.025,0.201 0.073,0.245 z m 8.726,-1.98 -3.2,-1.973 C 18.244,13.513 14.172,11.009 10.324,8.39 10.229,8.326 10.205,8.197 10.268,8.104 c 0.064,-0.095 0.191,-0.121 0.286,-0.057 3.842,2.614 7.91,5.115 11.843,7.536 l 3.203,1.974 c 0.096,0.06 0.126,0.187 0.067,0.285 -0.06,0.096 -0.188,0.126 -0.285,0.066 m 3.577,15.714 c -0.188,-0.32 -0.45,-0.579 -0.727,-0.852 l -0.148,-0.148 c -0.047,-0.047 -0.046,-0.123 0,-0.17 0.047,-0.049 0.125,-0.049 0.172,0 l 0.145,0.145 c 0.276,0.272 0.561,0.554 0.766,0.902 0.033,0.058 0.014,0.132 -0.042,0.166 -0.059,0.034 -0.132,0.015 -0.166,-0.043 m -5.677,-6.321 c -0.553,-0.722 -1.205,-1.387 -1.836,-2.03 L 20.221,23.98 c -0.098,-0.103 -0.088,-0.261 0.015,-0.36 0.103,-0.099 0.272,-0.088 0.37,0.015 l 1.208,1.272 c 0.642,0.655 1.305,1.331 1.877,2.078 0.087,0.115 0.066,0.276 -0.047,0.364 -0.113,0.088 -0.275,0.066 -0.362,-0.048 M 62.753,35.686 62.69,35.55 c -0.079,-0.178 -0.153,-0.348 -0.293,-0.429 -0.084,-0.049 -0.112,-0.157 -0.063,-0.241 0.049,-0.083 0.157,-0.111 0.24,-0.064 0.238,0.139 0.343,0.379 0.437,0.59 l 0.057,0.126 c 0.041,0.089 0.003,0.197 -0.085,0.237 -0.087,0.04 -0.191,0.003 -0.23,-0.083 m -30.354,2.512 c -0.087,-0.325 -0.305,-0.571 -0.605,-0.842 -0.045,-0.042 -0.049,-0.112 -0.007,-0.159 0.041,-0.046 0.111,-0.05 0.157,-0.009 0.265,0.241 0.558,0.532 0.671,0.952 0.017,0.059 -0.018,0.121 -0.079,0.136 -0.058,0.017 -0.12,-0.018 -0.137,-0.078 m 13.819,-0.111 -0.201,-0.253 c -0.164,-0.193 -0.334,-0.395 -0.387,-0.674 -0.008,-0.045 0.021,-0.087 0.065,-0.096 0.045,-0.008 0.088,0.021 0.095,0.066 0.045,0.235 0.193,0.412 0.351,0.597 l 0.211,0.267 c 0.028,0.036 0.019,0.082 -0.017,0.11 -0.035,0.029 -0.09,0.019 -0.117,-0.017 m 3.477,4.25 -0.044,-0.096 -0.129,-0.294 c -0.039,-0.089 0.003,-0.19 0.093,-0.228 0.089,-0.04 0.196,0.003 0.234,0.094 l 0.123,0.281 0.045,0.097 c 0.041,0.089 10e-4,0.193 -0.087,0.235 -0.089,0.041 -0.194,0 -0.235,-0.089 M 76.62,30.896 C 76.38,29.231 76.289,27.531 76.2,25.887 76.106,24.123 76.009,22.3 75.728,20.53 c -0.015,-0.084 0.043,-0.163 0.127,-0.176 0.084,-0.014 0.163,0.042 0.176,0.127 0.284,1.787 0.383,3.618 0.478,5.388 0.087,1.638 0.178,3.333 0.416,4.982 0.012,0.084 -0.046,0.164 -0.13,0.176 -0.085,0.012 -0.163,-0.047 -0.175,-0.131 m -15.078,0.837 c -0.051,-0.027 -0.07,-0.091 -0.042,-0.142 3.53,-6.487 7.21,-12.532 13.381,-15.214 0.053,-0.023 0.115,0.001 0.139,0.055 0.022,0.053 -10e-4,0.115 -0.056,0.139 -6.109,2.655 -9.768,8.666 -13.28,15.121 -0.028,0.051 -0.091,0.069 -0.142,0.041 m -30.023,-3.92 -0.911,-0.345 c -0.605,-0.216 -1.231,-0.438 -1.783,-0.815 -0.036,-0.025 -0.047,-0.077 -0.021,-0.113 0.026,-0.038 0.077,-0.048 0.114,-0.022 0.534,0.365 1.15,0.584 1.745,0.794 l 0.92,0.35 c 0.042,0.016 0.06,0.063 0.045,0.105 -0.017,0.043 -0.068,0.062 -0.109,0.046 m -5.427,-5.435 c -0.045,-0.021 -0.064,-0.073 -0.043,-0.117 0.021,-0.046 0.074,-0.066 0.117,-0.045 0.564,0.262 1.488,0.485 2.232,0.252 0.048,-0.014 0.098,0.012 0.112,0.059 0.014,0.048 -0.011,0.097 -0.058,0.112 -0.793,0.248 -1.767,0.015 -2.36,-0.261 m -0.464,2.893 c -0.774,-0.454 -1.742,-1.201 -1.964,-2.181 -0.015,-0.06 0.022,-0.117 0.082,-0.13 0.057,-0.015 0.116,0.022 0.129,0.081 0.206,0.904 1.126,1.609 1.862,2.043 0.052,0.03 0.07,0.097 0.039,0.149 -0.03,0.052 -0.097,0.069 -0.148,0.038 m 17.639,18.733 -1.129,-1.066 -0.522,-0.461 c -0.047,-0.042 -0.05,-0.112 -0.009,-0.161 0.041,-0.045 0.114,-0.048 0.162,-0.007 l 0.517,0.459 1.148,1.085 c 0.045,0.043 0.041,0.107 -0.002,0.153 -0.042,0.046 -0.12,0.041 -0.165,-0.002 m -11.198,0.033 -0.867,-0.54 -0.544,-0.36 c -0.057,-0.037 -0.076,-0.115 -0.039,-0.171 0.037,-0.058 0.11,-0.077 0.166,-0.038 l 0.556,0.365 0.839,0.525 c 0.058,0.036 0.084,0.117 0.049,0.175 -0.037,0.058 -0.103,0.08 -0.16,0.044 m -0.582,1.665 c -1.254,-0.819 -2.457,-1.737 -3.62,-2.623 l -0.119,-0.091 c -0.102,-0.078 -0.122,-0.225 -0.043,-0.328 0.077,-0.102 0.222,-0.122 0.325,-0.044 l 0.118,0.09 c 1.157,0.883 2.353,1.794 3.593,2.606 0.108,0.069 0.138,0.214 0.068,0.322 -0.07,0.108 -0.214,0.138 -0.322,0.068 m -7.668,-5.569 -0.682,-0.521 -0.909,-0.718 c -0.112,-0.087 -0.114,-0.235 -0.027,-0.347 0.089,-0.112 0.268,-0.116 0.38,-0.029 l 0.856,0.674 0.716,0.545 c 0.113,0.087 0.124,0.241 0.038,0.355 -0.086,0.113 -0.258,0.127 -0.372,0.041 m 90.238,9.203 -1.814,-0.497 c -1.132,-0.295 -2.303,-0.603 -3.425,-1.041 -0.05,-0.021 -0.076,-0.079 -0.056,-0.131 0.02,-0.052 0.077,-0.076 0.13,-0.057 1.109,0.438 2.275,0.743 3.401,1.036 l 1.821,0.499 c 0.053,0.014 0.082,0.068 0.067,0.121 -0.014,0.052 -0.071,0.084 -0.124,0.07 m -1.773,-1.57 -1.099,-0.391 c -0.7,-0.241 -1.424,-0.488 -2.106,-0.812 -0.113,-0.052 -0.161,-0.186 -0.108,-0.298 0.052,-0.113 0.187,-0.161 0.298,-0.108 0.661,0.312 1.372,0.556 2.061,0.793 l 1.112,0.395 c 0.117,0.04 0.173,0.168 0.132,0.284 -0.041,0.118 -0.174,0.179 -0.29,0.137 m -72.817,2.251 -0.219,-0.278 -0.124,-0.171 c -0.078,-0.103 -0.074,-0.272 0.03,-0.349 0.103,-0.078 0.232,-0.078 0.31,0.025 l 0.177,0.235 0.143,0.188 c 0.078,0.103 0.086,0.278 -0.015,0.358 -0.102,0.079 -0.222,0.093 -0.302,-0.008 m -1.641,0.218 -0.598,-0.462 c -0.306,-0.207 -0.621,-0.419 -0.844,-0.742 -0.06,-0.09 -0.038,-0.213 0.051,-0.274 0.089,-0.062 0.212,-0.039 0.273,0.051 0.18,0.26 0.452,0.444 0.739,0.637 l 0.661,0.514 c 0.085,0.067 0.081,0.172 0.015,0.259 -0.066,0.086 -0.211,0.084 -0.297,0.017 m 8.255,5.501 c -0.053,-0.007 -0.091,-0.055 -0.084,-0.11 0.041,-0.313 -0.133,-0.514 -0.335,-0.747 -0.141,-0.163 -0.287,-0.331 -0.362,-0.552 -0.018,-0.051 0.01,-0.108 0.059,-0.123 0.052,-0.018 0.108,0.009 0.124,0.061 0.062,0.183 0.19,0.331 0.325,0.486 0.213,0.246 0.432,0.5 0.381,0.9 -0.006,0.054 -0.055,0.091 -0.108,0.085 m 34.211,-2.029 c -0.18,-0.081 -0.382,-0.092 -0.596,-0.102 -0.336,-0.017 -0.718,-0.036 -0.983,-0.385 -0.042,-0.056 -0.032,-0.136 0.024,-0.177 0.055,-0.042 0.135,-0.032 0.177,0.024 0.194,0.255 0.472,0.269 0.794,0.285 0.229,0.011 0.465,0.023 0.688,0.125 0.064,0.028 0.092,0.103 0.064,0.166 -0.029,0.065 -0.104,0.093 -0.168,0.064 m -36.173,3.304 c -0.066,-0.304 -0.23,-0.554 -0.451,-0.685 -0.061,-0.036 -0.081,-0.116 -0.044,-0.177 0.035,-0.06 0.114,-0.079 0.174,-0.043 0.282,0.168 0.489,0.478 0.57,0.85 0.015,0.068 -0.029,0.138 -0.098,0.152 -0.068,0.016 -0.136,-0.028 -0.151,-0.097 m -2.534,-0.348 c -0.106,-0.035 -0.162,-0.149 -0.127,-0.256 l 0.086,-0.256 c 0.035,-0.105 0.149,-0.162 0.255,-0.128 0.105,0.036 0.162,0.15 0.126,0.256 l -0.085,0.256 c -0.034,0.107 -0.149,0.164 -0.255,0.128 m 5.456,0.286 c -0.215,-0.415 -0.592,-0.738 -0.957,-1.051 l -0.122,-0.105 c -0.085,-0.073 -0.094,-0.2 -0.022,-0.285 0.073,-0.085 0.2,-0.095 0.285,-0.022 l 0.122,0.105 c 0.393,0.338 0.799,0.686 1.051,1.17 0.053,0.1 0.014,0.222 -0.085,0.273 -0.099,0.053 -0.221,0.013 -0.272,-0.085 m -0.987,-1.131 c -0.481,-0.104 -0.929,-0.385 -1.231,-0.77 -0.062,-0.079 -0.048,-0.194 0.031,-0.257 0.079,-0.062 0.193,-0.047 0.255,0.032 0.249,0.32 0.622,0.552 1.023,0.638 0.098,0.022 0.16,0.118 0.139,0.218 -0.021,0.097 -0.119,0.16 -0.217,0.139 m 26.824,10.229 c -0.035,-0.108 0.025,-0.224 0.133,-0.257 1.736,-0.558 3.32,-1.599 4.793,-2.619 0.094,-0.065 0.221,-0.041 0.285,0.052 0.064,0.094 0.041,0.221 -0.052,0.286 -1.498,1.038 -3.112,2.099 -4.902,2.672 -0.108,0.036 -0.222,-0.025 -0.257,-0.134 M 72.009,59.15 c -0.066,-0.024 -0.092,-0.114 -0.068,-0.18 l 0.26,-0.708 0.249,-0.696 c 0.024,-0.066 0.09,-0.087 0.155,-0.062 0.067,0.022 0.095,0.109 0.071,0.177 l -0.232,0.653 -0.279,0.758 c -0.025,0.066 -0.091,0.083 -0.156,0.058 m -6.021,6.537 v -0.383 c 0,-0.11 0.088,-0.198 0.197,-0.198 0.108,0 0.197,0.088 0.197,0.198 v 0.383 c 0,0.108 -0.089,0.197 -0.197,0.197 -0.109,0 -0.197,-0.089 -0.197,-0.197 m 12.421,-0.591 c -0.083,-0.097 -0.065,-0.247 0.03,-0.33 l 0.148,-0.13 0.048,-0.043 c 0.094,-0.085 0.239,-0.076 0.324,0.018 0.085,0.094 0.076,0.242 -0.018,0.327 l -0.046,0.041 -0.167,0.146 c -0.097,0.083 -0.235,0.066 -0.319,-0.029 m -8.765,1.924 c -0.04,-0.081 -0.139,-0.112 -0.219,-0.07 0.336,-0.175 0.7,-0.247 1.054,-0.316 l 0.388,-0.081 c 0.088,-0.019 0.177,0.036 0.196,0.124 0.019,0.089 -0.033,0.174 -0.121,0.191 l -0.401,0.085 c -0.346,0.068 -0.671,0.133 -0.965,0.285 0.08,-0.041 0.111,-0.139 0.068,-0.218 m 5.393,0.694 c -0.059,-0.043 -0.072,-0.126 -0.029,-0.186 0.354,-0.488 0.917,-0.783 1.413,-1.044 0.064,-0.034 0.144,-0.008 0.178,0.056 0.033,0.064 0.008,0.144 -0.056,0.179 -0.471,0.245 -1.004,0.525 -1.322,0.966 -0.043,0.058 -0.126,0.071 -0.184,0.029 M 64.621,67.439 63.602,67.27 c -0.12,-0.02 -0.205,-0.134 -0.185,-0.254 0.02,-0.12 0.128,-0.202 0.248,-0.182 l 1.021,0.172 c 0.119,0.019 0.203,0.133 0.185,0.253 -0.021,0.12 -0.13,0.202 -0.25,0.18 m 3.413,2.833 c -0.035,-0.105 0.022,-0.22 0.128,-0.255 l 0.255,-0.085 c 0.106,-0.035 0.22,0.023 0.255,0.128 0.035,0.106 -0.022,0.221 -0.128,0.255 l -0.254,0.086 c -0.106,0.036 -0.221,-0.023 -0.256,-0.129 m 1.975,4.766 c -1.184,-1.09 -2.595,-2.366 -4.077,-3.581 -0.043,-0.033 -0.049,-0.094 -0.015,-0.137 0.035,-0.042 0.096,-0.048 0.138,-0.013 1.486,1.215 2.899,2.497 4.086,3.587 0.04,0.037 0.042,0.099 0.006,0.138 -0.037,0.04 -0.099,0.043 -0.138,0.006 m -5.953,1.813 c -1.399,-0.364 -2.726,-0.919 -3.843,-1.413 -0.046,-0.021 -0.069,-0.078 -0.047,-0.127 0.021,-0.047 0.077,-0.07 0.125,-0.048 1.108,0.491 2.427,1.042 3.813,1.403 0.051,0.013 0.082,0.064 0.069,0.115 -0.013,0.053 -0.067,0.083 -0.117,0.07 m 37.194,-0.791 -1.139,-1.144 c 0.09,0.09 0.231,0.086 0.321,-0.005 0.09,-0.089 0.086,-0.239 -0.004,-0.33 l 1.157,1.161 c 0.09,0.09 0.086,0.232 -0.004,0.322 -0.091,0.09 -0.241,0.085 -0.331,-0.004 m -2.861,-3.003 -1.081,-1.208 -0.664,-0.774 c -0.089,-0.102 -0.082,-0.265 0.021,-0.353 0.103,-0.089 0.253,-0.083 0.342,0.02 l 0.678,0.79 1.047,1.17 c 0.09,0.103 0.094,0.271 -0.007,0.362 -0.101,0.09 -0.245,0.094 -0.336,-0.007 m -7.154,-7.664 c -0.14,-0.064 -0.231,-0.101 -0.324,-0.058 -0.052,0.023 -0.114,0.001 -0.138,-0.053 -0.023,-0.053 -0.002,-0.114 0.052,-0.138 0.184,-0.085 0.349,-0.009 0.497,0.056 0.123,0.057 0.231,0.108 0.341,0.068 0.055,-0.019 0.114,0.01 0.133,0.065 0.019,0.055 -0.01,0.114 -0.064,0.133 -0.19,0.066 -0.354,-0.008 -0.497,-0.073 M 88.142,63.905 87.309,63.386 84.95,61.855 c -0.041,-0.027 -0.05,-0.08 -0.023,-0.119 0.026,-0.042 0.083,-0.05 0.123,-0.024 l 2.351,1.524 0.834,0.52 c 0.042,0.025 0.055,0.08 0.028,0.121 -0.025,0.042 -0.079,0.054 -0.121,0.028 m 19.324,24.055 -0.177,-0.356 c 0.025,0.051 0.094,0.087 0.145,0.063 0.051,-0.027 0.078,-0.074 0.053,-0.125 l 0.141,0.285 c 0.026,0.052 0.017,0.134 -0.035,0.16 -0.051,0.025 -0.1,0.024 -0.127,-0.027 m -11.987,-9.485 -1.61,-0.59 c -1.162,-0.416 -2.364,-0.849 -3.501,-1.398 -0.062,-0.03 -0.089,-0.105 -0.058,-0.168 0.029,-0.061 0.105,-0.088 0.166,-0.057 1.125,0.544 2.321,0.972 3.477,1.386 l 1.616,0.593 c 0.064,0.023 0.096,0.096 0.072,0.159 -0.023,0.066 -0.097,0.099 -0.162,0.075 m -11.951,-5.031 -0.349,-0.2 c -0.036,-0.022 -0.053,-0.072 -0.032,-0.109 0.022,-0.036 0.065,-0.052 0.103,-0.031 l 0.359,0.209 c 0.342,0.21 0.664,0.408 1.064,0.36 0.041,-0.005 0.08,0.025 0.085,0.067 0.006,0.044 -0.026,0.082 -0.068,0.088 -0.451,0.053 -0.813,-0.169 -1.162,-0.384 M 62.222,35.678 C 62.113,35.673 62.029,35.58 62.034,35.471 l 0.004,-0.083 0.066,-0.532 c 0.013,-0.107 0.106,-0.16 0.214,-0.146 0.107,0.014 0.179,0.135 0.166,0.242 l -0.055,0.451 -0.003,0.087 c -0.005,0.11 -0.096,0.193 -0.204,0.188 m 33.592,30.608 c -0.012,-0.051 0.024,-0.104 0.075,-0.117 l 0.325,-0.083 c 0.229,-0.065 0.466,-0.131 0.721,-0.11 0.052,0.003 0.092,0.048 0.088,0.101 -0.004,0.054 -0.051,0.094 -0.103,0.09 -0.221,-0.017 -0.432,0.042 -0.654,0.104 l -0.342,0.085 c -0.05,0.013 -0.097,-0.019 -0.11,-0.07 M 122.585,77.4 c -0.107,-0.038 -0.163,-0.155 -0.126,-0.263 0.447,-1.263 0.714,-2.347 0.841,-3.412 0.013,-0.113 0.115,-0.193 0.228,-0.179 0.113,0.013 0.193,0.116 0.18,0.228 -0.13,1.096 -0.404,2.208 -0.861,3.501 -0.038,0.107 -0.155,0.163 -0.262,0.125 m 0.844,-7.208 -0.095,-0.34 -0.117,-0.429 c -0.029,-0.108 0.039,-0.191 0.147,-0.22 0.108,-0.03 0.226,0.063 0.256,0.17 l 0.096,0.34 0.117,0.429 c 0.029,0.107 -0.04,0.19 -0.147,0.219 -0.108,0.032 -0.226,-0.061 -0.257,-0.169 m -1.114,-1.847 c -1.551,-2 -3.263,-3.875 -4.918,-5.691 -1.333,-1.458 -2.709,-2.966 -4.009,-4.545 -0.056,-0.069 -0.047,-0.169 0.022,-0.225 0.068,-0.056 0.168,-0.047 0.224,0.021 1.293,1.573 2.669,3.077 3.998,4.533 1.66,1.82 3.377,3.7 4.934,5.71 0.054,0.071 0.042,0.17 -0.027,0.224 -0.07,0.055 -0.171,0.043 -0.224,-0.027 M 99.269,42.99 98.119,42.446 c -1.018,-0.476 -2.071,-0.968 -3.073,-1.553 -0.089,-0.053 -0.12,-0.168 -0.067,-0.26 0.052,-0.091 0.167,-0.121 0.257,-0.069 0.987,0.579 2.032,1.066 3.042,1.539 l 1.156,0.546 c 0.093,0.043 0.131,0.156 0.088,0.25 -0.044,0.095 -0.158,0.135 -0.253,0.091 m -5.521,-6.299 c -0.116,-0.236 -0.036,-0.45 0.035,-0.637 l 0.079,-0.317 c 0.017,-0.07 0.093,-0.144 0.162,-0.128 0.071,0.018 0.118,0.056 0.101,0.127 l -0.096,0.41 c -0.068,0.183 -0.107,0.302 -0.045,0.428 0.033,0.066 0.005,0.146 -0.06,0.178 -0.065,0.032 -0.144,0.005 -0.176,-0.061 m -9.991,3.196 c -0.03,-0.089 0.018,-0.184 0.106,-0.214 2.42,-0.819 4.88,-2.619 6.747,-4.938 0.058,-0.072 0.164,-0.084 0.236,-0.024 0.072,0.058 0.083,0.163 0.024,0.235 -1.906,2.367 -4.421,4.205 -6.9,5.046 -0.088,0.029 -0.183,-0.018 -0.213,-0.105 m 3.374,11.296 c -0.048,-0.057 -0.042,-0.142 0.015,-0.19 0.5,-0.425 1.103,-0.721 1.687,-1.004 l 1.135,-0.606 c 0.064,-0.035 0.155,-0.016 0.189,0.05 0.034,0.066 0.019,0.141 -0.047,0.175 l -1.16,0.621 c -0.569,0.279 -1.157,0.565 -1.631,0.969 -0.057,0.048 -0.141,0.041 -0.188,-0.015 m -1.943,0.802 c -0.04,-0.034 -0.098,-0.028 -0.131,0.011 0.169,-0.201 0.4,-0.276 0.622,-0.349 l 0.181,-0.062 c 0.049,-0.016 0.102,0.009 0.12,0.056 0.018,0.048 -0.006,0.101 -0.054,0.118 l -0.19,0.064 c -0.208,0.068 -0.403,0.13 -0.537,0.291 0.032,-0.038 0.027,-0.095 -0.011,-0.129 m 47.819,41.264 -0.048,-0.687 c 0.008,0.107 0.102,0.207 0.209,0.2 0.109,-0.009 0.191,-0.085 0.185,-0.194 l 0.038,0.593 c 0.006,0.109 -0.071,0.234 -0.18,0.24 -0.107,0.007 -0.196,-0.044 -0.204,-0.152 m -0.8,-5.367 c -1.367,-5.855 -4.102,-11.548 -7.908,-16.464 -0.08,-0.101 -0.062,-0.248 0.039,-0.326 0.102,-0.079 0.248,-0.061 0.327,0.041 3.848,4.968 6.612,10.722 7.995,16.643 0.028,0.125 -0.049,0.25 -0.174,0.281 -0.126,0.028 -0.25,-0.049 -0.279,-0.175 m -16.815,-2.983 c -0.055,-0.087 -0.027,-0.205 0.061,-0.259 2.486,-1.55 4.134,-2.964 5.342,-4.585 0.063,-0.084 0.181,-0.102 0.264,-0.038 0.083,0.062 0.1,0.181 0.038,0.264 -1.238,1.659 -2.918,3.102 -5.447,4.679 -0.087,0.056 -0.202,0.028 -0.258,-0.061 m -8.029,3.037 c -0.025,-0.103 0.039,-0.204 0.141,-0.227 l 0.232,-0.055 c 1.104,-0.256 2.247,-0.521 3.244,-1.052 0.092,-0.05 0.208,-0.015 0.256,0.078 0.05,0.092 0.014,0.208 -0.078,0.257 -1.041,0.553 -2.208,0.825 -3.336,1.087 l -0.231,0.054 c -0.102,0.025 -0.205,-0.04 -0.228,-0.142 m -7.319,1.107 c -0.01,-0.111 0.071,-0.209 0.181,-0.22 l 0.981,-0.093 c 2.086,-0.194 4.241,-0.395 6.282,-1.029 0.106,-0.033 0.218,0.027 0.252,0.132 0.032,0.105 -0.028,0.22 -0.134,0.252 -2.081,0.647 -4.257,0.851 -6.363,1.047 l -0.979,0.093 c -0.11,0.01 -0.208,-0.071 -0.22,-0.182 M 82.253,87.441 C 79.567,84.388 75.966,80.42 71.929,76.826 c -0.037,-0.034 -0.041,-0.091 -0.008,-0.129 0.033,-0.036 0.09,-0.039 0.128,-0.007 4.044,3.601 7.65,7.574 10.339,10.631 0.034,0.037 0.03,0.096 -0.007,0.128 -0.037,0.034 -0.094,0.03 -0.128,-0.008 m 3.898,4.286 -0.406,-0.441 C 85.25,90.752 84.738,90.2 84.296,89.607 84.268,89.57 84.275,89.519 84.312,89.49 c 0.037,-0.027 0.089,-0.02 0.116,0.017 0.438,0.586 0.947,1.136 1.439,1.666 l 0.406,0.439 c 0.032,0.035 0.029,0.087 -0.005,0.118 -0.033,0.032 -0.086,0.03 -0.117,-0.003 M 68.39,76.908 c -0.048,-0.051 -0.045,-0.129 0.005,-0.177 0.233,-0.221 0.525,-0.299 0.809,-0.376 l 0.135,-0.038 c 0.066,-0.018 0.137,0.022 0.155,0.088 0.018,0.067 -0.02,0.135 -0.086,0.153 l -0.14,0.039 c -0.264,0.071 -0.515,0.138 -0.702,0.317 -0.05,0.047 -0.129,0.045 -0.176,-0.006 m -5.202,0.796 -1.279,-0.565 c -0.661,-0.26 -1.343,-0.529 -1.927,-0.983 -0.056,-0.043 -0.067,-0.126 -0.024,-0.182 0.045,-0.056 0.126,-0.067 0.183,-0.023 0.554,0.432 1.218,0.694 1.862,0.945 l 1.31,0.581 c 0.065,0.028 0.085,0.099 0.056,0.166 -0.029,0.065 -0.116,0.09 -0.181,0.061 M 42.375,68.309 c -0.034,-0.047 -0.025,-0.111 0.021,-0.145 0.163,-0.123 0.353,-0.15 0.536,-0.176 l 0.373,-0.091 c 0.055,-0.013 0.132,0.013 0.146,0.069 0.013,0.055 10e-4,0.105 -0.055,0.118 l -0.434,0.11 c -0.167,0.024 -0.322,0.045 -0.443,0.136 -0.046,0.034 -0.11,0.024 -0.144,-0.021 M 37.133,67.07 c -0.098,-0.075 -0.253,-0.034 -0.328,0.063 l 0.379,-0.491 c 0.075,-0.098 0.183,-0.082 0.281,-0.007 0.098,0.076 0.084,0.251 0.01,0.35 l -0.285,0.378 c 0.075,-0.098 0.041,-0.217 -0.057,-0.293 m 2.381,-4.101 c -0.124,-0.051 -0.183,-0.195 -0.132,-0.321 0.729,-1.756 1.21,-3.128 1.563,-4.449 0.035,-0.131 0.169,-0.208 0.301,-0.173 0.13,0.035 0.207,0.169 0.172,0.3 -0.357,1.343 -0.846,2.735 -1.583,4.511 -0.053,0.125 -0.196,0.185 -0.321,0.132 M -26.372,5.476 c -0.274,-0.275 -0.444,-0.532 -0.536,-0.809 -0.017,-0.054 0.011,-0.111 0.066,-0.131 0.053,-0.017 0.111,0.013 0.129,0.067 0.082,0.248 0.232,0.472 0.485,0.727 0.04,0.04 0.041,0.106 0,0.145 -0.039,0.041 -0.105,0.041 -0.144,0.001 m 1.378,-10.614 -3.266,-3.711 -2.045,-2.361 c -0.098,-0.113 -0.089,-0.286 0.025,-0.386 0.113,-0.097 0.283,-0.089 0.381,0.025 l 2.051,2.366 3.253,3.697 c 0.099,0.112 0.092,0.29 -0.02,0.389 -0.113,0.1 -0.28,0.095 -0.379,-0.019 M -4.36,14.721 c -0.12,-0.21 -0.352,-0.286 -0.598,-0.367 l -0.533,-0.252 c -0.037,-0.018 -0.038,-0.053 -0.02,-0.092 0.017,-0.038 0.077,-0.044 0.115,-0.027 l 0.486,0.226 c 0.262,0.087 0.532,0.178 0.681,0.437 0.021,0.035 0.007,0.082 -0.029,0.102 -0.035,0.021 -0.081,0.009 -0.102,-0.027 M 10.554,11.245 9.9,9.939 C 9.85,9.841 9.893,9.727 9.991,9.678 10.09,9.629 10.214,9.676 10.263,9.774 l 0.655,1.305 c 0.049,0.1 0.006,0.213 -0.092,0.262 -0.098,0.049 -0.222,0.002 -0.272,-0.096 M 6.525,5.165 C 6.219,5.082 5.994,4.865 5.777,4.655 L 5.475,4.383 C 5.439,4.352 5.432,4.293 5.464,4.258 5.496,4.223 5.545,4.216 5.58,4.247 L 5.896,4.532 C 6.106,4.734 6.306,4.928 6.57,5.001 6.616,5.014 6.644,5.061 6.63,5.105 6.617,5.152 6.57,5.179 6.525,5.165 M 3.687,3.096 3.37,2.808 C 2.972,2.444 2.56,2.068 2.101,1.759 2.064,1.732 2.054,1.683 2.081,1.646 2.105,1.609 2.155,1.599 2.192,1.624 2.66,1.94 3.077,2.32 3.479,2.687 L 3.795,2.974 C 3.829,3.005 3.833,3.057 3.802,3.09 3.772,3.122 3.721,3.126 3.687,3.096 M 6.513,3.072 5.978,1.969 C 5.741,1.536 5.5,1.091 5.344,0.604 5.308,0.492 5.37,0.37 5.483,0.334 5.596,0.298 5.717,0.359 5.752,0.474 5.896,0.92 6.128,1.348 6.354,1.762 L 6.915,2.921 C 6.967,3.029 6.914,3.139 6.808,3.19 6.701,3.242 6.564,3.178 6.513,3.072 M 8.324,6.959 8.167,6.603 8.02,6.299 C 7.969,6.195 7.969,6.012 8.073,5.958 8.175,5.905 8.26,5.889 8.315,5.99 L 8.573,6.471 8.674,6.715 C 8.719,6.822 8.69,6.984 8.583,7.03 8.475,7.077 8.372,7.064 8.324,6.959 m 51.713,28.854 c -0.042,-0.012 -0.066,-0.058 -0.053,-0.1 l 0.075,-0.242 c 0.201,-0.659 0.409,-1.339 0.828,-1.956 0.025,-0.036 0.076,-0.046 0.113,-0.021 0.037,0.025 0.046,0.075 0.021,0.112 -0.405,0.597 -0.61,1.265 -0.808,1.912 l -0.074,0.243 c -0.014,0.042 -0.059,0.066 -0.102,0.052 M 75.214,15.928 75.027,14.63 74.619,11.965 c -0.016,-0.109 0.058,-0.216 0.167,-0.234 0.109,-0.015 0.21,0.055 0.227,0.165 l 0.408,2.677 0.187,1.295 c 0.017,0.109 -0.059,0.213 -0.168,0.228 -0.109,0.016 -0.21,-0.059 -0.226,-0.168 m 0.807,0.141 c -0.022,-0.063 0.008,-0.133 0.071,-0.157 2.442,-0.918 4.803,-0.915 6.479,0.008 0.058,0.031 0.08,0.106 0.048,0.165 -0.033,0.059 -0.106,0.08 -0.164,0.047 -1.614,-0.888 -3.903,-0.886 -6.278,0.008 -0.063,0.023 -0.133,-0.009 -0.156,-0.071 m 16.182,17.455 c -0.05,-0.038 -0.06,-0.109 -0.022,-0.159 l 0.208,-0.283 c 0.536,-0.727 1.09,-1.477 1.788,-2.041 0.049,-0.04 0.121,-0.033 0.16,0.017 0.04,0.048 0.032,0.121 -0.016,0.16 -0.676,0.546 -1.221,1.286 -1.75,2.001 l -0.208,0.282 c -0.038,0.051 -0.109,0.062 -0.16,0.023 m 2.578,-4.234 -0.344,-0.436 c -0.689,-0.865 -1.49,-1.867 -1.49,-2.896 0,-0.522 0.22,-1.053 0.754,-1.574 0.003,-0.03 0.164,-1.223 0.164,-1.223 0.009,-0.073 0.073,-0.108 0.146,-0.099 0.072,0.009 0.121,0.092 0.112,0.165 l -0.08,0.593 -0.095,0.695 -0.031,0.015 c -1.477,1.395 -0.305,2.863 0.728,4.158 l 0.347,0.44 c 0.045,0.058 0.035,0.14 -0.023,0.185 -0.057,0.047 -0.142,0.036 -0.188,-0.023 m 0.652,0.014 C 95.38,29.253 95.379,29.17 95.43,29.117 c 0.454,-0.468 0.838,-1.012 1.21,-1.537 0.441,-0.623 0.896,-1.267 1.475,-1.797 0.052,-0.049 0.136,-0.045 0.186,0.009 0.049,0.054 0.045,0.138 -0.009,0.187 -0.557,0.51 -1.004,1.143 -1.437,1.753 -0.377,0.536 -0.768,1.087 -1.236,1.57 -0.051,0.052 -0.135,0.053 -0.186,0.002 m 0.545,9.977 c -0.068,-0.085 -0.053,-0.207 0.031,-0.274 2.392,-1.882 4.261,-3.711 5.715,-5.591 0.065,-0.085 0.188,-0.102 0.273,-0.035 0.085,0.066 0.1,0.188 0.033,0.274 -1.472,1.907 -3.363,3.757 -5.779,5.659 -0.085,0.067 -0.208,0.052 -0.273,-0.033 m 0.275,0.302 -0.087,-0.147 -0.123,-0.189 c -0.036,-0.058 -0.035,-0.15 0.02,-0.188 0.056,-0.037 0.117,-0.039 0.154,0.016 l 0.163,0.243 0.074,0.124 c 0.034,0.058 0.02,0.142 -0.038,0.176 -0.058,0.034 -0.128,0.023 -0.163,-0.035 m -1.265,0.507 c -0.081,-0.066 -0.094,-0.184 -0.029,-0.266 0.323,-0.407 0.771,-0.678 1.089,-0.833 0.094,-0.046 0.207,-0.006 0.251,0.087 0.046,0.094 0.007,0.206 -0.087,0.252 -0.284,0.138 -0.68,0.377 -0.96,0.729 -0.065,0.082 -0.183,0.095 -0.264,0.031 m 30.498,-8.424 c -0.51,-0.444 -1.204,-0.984 -2.049,-1.22 -0.047,-0.012 -0.075,-0.061 -0.062,-0.109 0.014,-0.047 0.063,-0.075 0.11,-0.061 0.878,0.245 1.593,0.799 2.118,1.255 0.036,0.032 0.041,0.089 0.009,0.126 -0.032,0.037 -0.089,0.041 -0.126,0.009 m -4.601,17.559 c -0.076,-0.095 -0.063,-0.234 0.032,-0.312 0.55,-0.453 1.031,-1.022 1.498,-1.572 l 0.215,-0.254 c 0.08,-0.093 0.218,-0.104 0.31,-0.024 0.093,0.079 0.104,0.218 0.025,0.311 l -0.215,0.253 c -0.478,0.564 -0.974,1.149 -1.554,1.628 -0.095,0.077 -0.234,0.063 -0.311,-0.03 m -6.57,2.596 c -0.023,-0.12 0.042,-0.233 0.162,-0.258 l 0.963,-0.187 c 0.552,-0.093 1.072,-0.179 1.552,-0.396 0.112,-0.051 0.242,-10e-4 0.292,0.11 0.049,0.112 0,0.242 -0.11,0.292 -0.532,0.242 -1.106,0.337 -1.662,0.43 l -0.926,0.181 c -0.119,0.024 -0.248,-0.053 -0.271,-0.172 m 8.74,16.142 -0.338,-0.951 c -0.158,-0.48 -0.307,-0.933 -0.53,-1.367 -0.024,-0.046 -0.006,-0.104 0.041,-0.128 0.045,-0.023 0.103,-0.005 0.126,0.042 0.229,0.447 0.388,0.928 0.542,1.393 l 0.333,0.939 c 0.018,0.049 -0.005,0.107 -0.055,0.125 -0.049,0.016 -0.102,-0.006 -0.119,-0.053 m -11.977,-24.473 -0.198,0.018 0.06,-0.133 0.049,-0.007 c 0.109,-0.012 0.218,-0.089 0.362,-0.211 0.035,-0.031 0.09,-0.026 0.121,0.01 0.031,0.038 0.027,0.093 -0.01,0.124 -0.167,0.142 -0.301,0.234 -0.453,0.252 z M -3.48,53.184 c -0.092,-0.055 -0.123,-0.175 -0.068,-0.268 0.144,-0.24 0.423,-0.511 0.739,-0.478 0.107,0.011 0.184,0.107 0.173,0.213 -0.01,0.108 -0.106,0.186 -0.211,0.174 -0.105,-0.012 -0.263,0.113 -0.367,0.291 -0.055,0.092 -0.175,0.122 -0.266,0.068 m 41.412,7.103 c -0.085,-0.02 -0.113,-0.099 -0.093,-0.184 0.02,-0.085 0.129,-0.129 0.215,-0.11 l 0.403,0.097 c -0.085,-0.021 -0.151,0.035 -0.172,0.122 -0.021,0.084 0.051,0.172 0.136,0.192 z M 40.475,74.79 40.47,74.705 40.438,74.436 c -0.014,-0.109 0.06,-0.228 0.167,-0.241 0.108,-0.013 0.203,0.041 0.216,0.15 l 0.041,0.334 0.006,0.08 c 0.007,0.108 -0.074,0.205 -0.183,0.212 -0.108,0.008 -0.202,-0.074 -0.21,-0.181 m 89.924,-12.794 c -2.405,-1.045 -5.054,-1.187 -7.616,-1.327 l -1.628,-0.096 c -0.073,-0.004 -0.127,-0.068 -0.124,-0.142 0.005,-0.075 0.069,-0.13 0.143,-0.125 l 1.623,0.096 c 2.585,0.141 5.259,0.285 7.707,1.347 0.069,0.029 0.1,0.107 0.07,0.177 -0.029,0.068 -0.107,0.099 -0.175,0.07 M -0.213,8.411 c 2.18,-0.678 4.614,1.61 2.934,3.968 -0.367,0.516 -1.77,1.014 -2.551,0.895 -2.868,-0.433 -2.396,-4.237 -0.383,-4.863 m -44.265,37.117 c 0.237,0.443 -0.061,0.682 -0.127,1.152 -1.769,0.441 -1.1,-1.899 0.127,-1.152 m 73.733,15.104 c -0.089,-1.971 3.157,-1.757 3.189,-0.257 0.019,0.949 -1.428,1.678 -2.424,1.28 -0.712,-0.283 -0.75,-0.685 -0.765,-1.023 m -9.441,1.407 c -0.179,-1.919 2.94,-1.921 2.68,0 -0.108,0.786 -1.067,1.23 -1.915,0.896 -0.523,-0.206 -0.72,-0.422 -0.765,-0.896 M 7.44,86.998 c 0.297,-0.042 0.491,0.02 0.639,0.127 0.077,0.504 -0.286,0.567 -0.639,0.641 -0.173,-0.164 -0.173,-0.605 0,-0.768 M 0.105,-0.101 0.042,0.091 c -0.554,0.044 -0.669,-0.352 -0.765,-0.767 h 0.127 v -0.129 c 0.341,0.171 0.834,0.189 0.893,0.639 z M -3.593,22.042 -3.53,21.85 c 0.668,0.966 1.834,0.385 2.934,0.383 2.727,-0.004 4.483,1.709 3.7,4.993 -1.853,0.838 -4.188,0.237 -5.23,-1.153 -0.875,-1.165 -0.604,-3.021 -1.659,-4.094 z m 33.868,11.455 c -0.246,-0.474 0.001,-0.952 0.255,-1.28 h 0.893 c 0.381,0.262 0.656,1.299 0.511,1.664 -0.348,-0.335 -1.463,0.102 -1.659,-0.384 m 84.831,8.447 v -0.127 c 0.003,-2.05 3.308,-2.444 3.444,-0.513 0.076,1.083 -0.808,1.937 -2.552,1.665 -0.401,-0.281 -0.692,-0.671 -1.02,-1.025 z m -3.827,18.559 v -0.128 c 0.208,-1.208 2.097,-1.297 2.551,-0.256 -0.439,-0.011 -0.449,0.74 -1.021,0.896 -0.587,0.161 -1.365,0.035 -1.658,-0.512 z M 98.14,65.238 c -0.17,0.636 -0.603,0.201 0,0 m -83.555,6.784 v -0.127 c 0.009,-0.223 -0.028,-0.4 -0.128,-0.513 V 71.255 H 14.33 c 0.442,-0.186 1.531,0.08 1.913,0.383 0.186,0.7 -0.325,0.697 -0.51,1.025 -0.494,-0.145 -1.035,-0.243 -1.276,-0.641 z m -8.42,-1.023 c 0.016,-0.23 -0.156,-0.27 -0.127,-0.513 -0.391,0.098 -0.525,0.607 0.127,0.513 M 4.251,73.814 C 3.836,72.598 2.835,72.42 2.338,71.511 0.891,68.867 2.887,65.815 5.272,65.75 c 2.75,-0.073 5.159,3.284 4.593,6.527 -0.182,1.044 -1.097,1.028 -1.786,1.921 -0.754,0.107 -1.497,0.147 -2.17,0 -0.297,-0.065 -0.857,-0.613 -0.892,-0.128 0.071,0 0.145,0.105 0,0.128 -0.178,-0.204 -0.44,-0.327 -0.766,-0.384 m 41.97,-35.965 c 2.923,-0.328 1.526,3.375 -0.255,1.536 -0.013,-0.526 -0.026,-1.05 0.127,-1.407 l 0.192,0.062 z m 3.317,4.224 c -0.475,0.261 -0.803,-0.046 -1.277,-0.129 -0.057,-0.698 0.055,-1.225 0.511,-1.408 0.859,-0.063 1.512,0.661 1.148,1.408 L 49.686,41.88 Z M 28.872,26.713 c -2.094,1.971 -3.767,-1.955 -1.148,-1.664 0.782,0.088 1.023,0.678 1.276,1.537 h -0.128 z m -0.639,6.016 c -0.035,0.013 -0.092,-0.017 -0.126,0 -2.25,1.125 -3.163,-0.814 -3.063,-3.2 -0.591,-0.813 -1.54,-1.269 -1.786,-2.431 l 0.229,0.045 0.155,-0.174 c 1.134,0.205 1.438,1.436 2.168,2.048 0.289,0.242 0.68,0.236 0.893,0.384 0.939,0.651 1.395,1.908 1.659,3.073 l -0.192,0.063 z m 13.522,9.855 c -1.601,-0.227 -2.052,-1.609 -2.934,-2.56 0.498,-1.132 1.735,-0.41 1.786,0.641 0.51,0.47 1.097,0.862 1.277,1.663 l -0.192,0.066 z m 30.489,16.383 c 0.285,1.331 -1.818,1.807 -1.659,0.256 0.233,-0.363 0.958,-0.233 1.403,-0.383 l 0.064,0.19 z M 70.84,66.52 c 0.365,-0.629 1.31,-1.168 2.296,-0.77 l -0.063,0.235 0.192,0.15 c -0.572,0.494 -1.307,0.821 -2.425,0.767 l 0.064,-0.191 z m 5.486,0 c 0.434,-0.888 1.305,-1.336 2.168,-1.792 l 0.089,0.216 0.166,0.167 c 0.001,1.34 -0.989,2.018 -2.295,1.664 l 0.064,-0.192 z m 23.854,8.447 C 99.442,74.47 98.726,73.95 98.395,73.046 l 0.165,-0.166 0.09,-0.217 c 0.677,0.557 1.444,1.025 1.785,1.918 l -0.165,0.167 z M 93.93,46.809 c -0.009,-0.345 -0.292,-0.616 -0.511,-0.385 -0.039,0.337 0.178,0.421 0.511,0.385 m -3.954,2.558 c 0.329,-2.014 -0.103,-4.796 0.382,-6.655 1.321,-0.537 2.269,-0.971 3.699,-0.768 0.346,0.049 0.098,0.243 0.128,0.256 0.171,0.085 0.463,-0.08 0.638,0 1.021,0.47 2.011,1.488 2.296,2.433 0.903,3.002 -0.856,4.47 -1.914,5.887 -0.219,0.748 0.637,0.9 0.256,1.407 -0.234,0.491 -1.079,0.37 -1.786,0.385 -0.664,-0.387 -0.504,-0.999 -1.021,-1.408 -0.397,-0.315 -0.822,-0.183 -1.276,-0.384 -0.52,-0.23 -0.79,-0.625 -1.275,-0.897 h -0.127 l 0.064,-0.127 z m -4.21,2.304 c 0.41,-0.314 0.709,-0.738 1.403,-0.767 l 0.064,0.191 0.192,-0.064 c -0.053,0.824 -0.842,1.294 -1.531,0.77 v -0.13 z m 34.952,28.542 c 0.407,-1.255 1.144,-2.179 1.786,-3.199 l 0.149,0.192 0.234,-0.064 c -0.185,1.479 -0.806,2.519 -1.787,3.201 l -0.154,-0.175 z m -38.397,7.041 c 0.979,0.511 1.782,1.198 2.169,2.303 h -0.128 v 0.129 c -1.037,-0.453 -1.701,-1.281 -2.168,-2.305 h 0.127 z M 63.186,77.398 c 0.342,-0.074 0.798,0.378 1.021,0 0.309,-0.297 -0.2,-0.342 -0.254,-0.64 H 64.08 V 76.63 c 1.443,0.293 2.981,0.252 4.464,0 l -0.064,0.192 0.192,0.064 c 0.087,1.534 1.503,1.735 1.148,3.713 -0.617,0.697 -1.62,1.33 -2.551,1.278 -2.235,-0.122 -2.543,-3.398 -4.21,-4.223 L 63.25,77.59 Z M 42.648,68.183 c 0.104,0.562 -1.305,0.807 -1.275,0.128 0.061,-0.332 0.868,-0.571 1.148,-0.256 l -0.063,0.192 z m -5.484,-0.768 c -0.171,0.741 -0.965,0.932 -1.022,1.663 -0.043,0.582 0.566,0.897 0.511,1.664 -0.076,0.626 -1.188,0.536 -0.766,1.28 -0.749,-0.113 -0.808,0.47 -1.275,0.641 -1.856,-0.729 -3.285,0.984 -4.847,0.127 0.385,-1.5 2.057,-1.05 3.061,-1.535 1.864,-0.904 2.584,-3.022 4.083,-4.224 l 0.089,0.217 z m 2.679,-4.736 c -0.696,1.563 -0.884,3.635 -2.425,4.352 L 37.33,66.813 37.164,66.646 c 0.455,-1.676 1.667,-2.593 2.295,-4.095 l 0.15,0.192 z m -70.034,-73.851 c -0.754,-1.061 -2.195,-1.925 -3.317,-3.327 -0.739,-0.926 -1.342,-2.078 -2.168,-3.072 -0.792,-0.954 -1.583,-2.105 -2.424,-2.816 -0.653,-0.553 -1.41,-0.833 -1.913,-1.409 -0.41,-0.468 -1.029,-1.523 -1.148,-2.047 -0.918,-3.996 3.951,-5.6 5.74,-2.688 0.427,2.272 -0.412,4.444 -1.276,6.144 1.931,3.268 4.742,5.652 6.761,8.831 l -0.165,0.167 z m 25.896,25.727 c 0.48,0.116 0.916,0.274 1.276,0.511 -0.389,-0.005 -0.649,0.118 -0.766,0.384 -0.498,0.031 -0.461,-0.475 -0.638,-0.767 h 0.128 z m 34.953,28.67 c -0.754,-0.653 -1.928,-0.882 -2.934,-1.281 -0.112,0.495 0.311,0.455 0.383,0.768 l -0.217,0.09 -0.166,0.167 c -0.365,-0.03 -0.66,-0.396 -0.766,-0.513 -0.123,-0.136 -0.229,-0.01 -0.382,-0.128 -0.359,-0.274 -0.427,-0.587 -0.51,-0.64 0.034,0.022 -0.127,0.099 -0.256,0 -0.678,-0.522 -1.241,-0.936 -2.041,-1.664 l 0.217,-0.088 0.165,-0.168 c 0.575,-0.01 0.76,0.872 1.277,0.512 -0.22,-0.384 -0.625,-1.033 -0.129,-1.407 3.058,-0.334 4.069,2.485 5.614,4.096 l -0.191,0.063 z M 5.528,4.443 C 4.421,4.444 3.817,3.94 3.614,3.034 H 3.742 V 2.907 C 4.888,2.865 5.426,3.435 5.654,4.314 H 5.528 Z M 5.399,0.731 C 5.211,0.151 4.616,-0.166 4.379,-0.805 3.974,-1.901 4.18,-3.185 3.614,-4.133 2.964,-5.22 1.633,-5.691 1.19,-6.949 c -0.693,-1.965 0.2,-4.43 2.041,-4.607 2.852,-0.275 3.503,3.139 2.678,4.992 -0.425,0.958 -1.45,1.235 -1.53,2.303 -0.071,0.945 0.879,1.715 1.149,2.688 0.21,0.764 -0.062,1.368 0.255,2.176 L 5.549,0.54 Z m 2.68,5.631 C 7.621,5.84 6.814,5.668 6.421,5.083 H 6.547 V 4.955 c 0.536,-0.377 -0.12,-1.062 0,-1.792 L 6.714,2.997 6.802,2.779 c 0.799,0.779 1.126,2.029 1.531,3.2 L 8.167,6.146 Z m 2.424,2.049 c -0.055,0.457 -0.34,0.683 -0.256,1.279 l -0.165,0.167 -0.09,0.218 C 9.107,9.384 7.994,8.922 8.333,7.003 L 8.5,6.836 8.588,6.619 c 0.605,0.587 1.493,0.892 2.041,1.536 l -0.19,0.064 z m 51.281,23.166 c -0.709,1.298 0.4,2.214 0.764,3.2 l -0.062,0.192 0.062,0.192 h -0.127 l -0.128,-0.257 -0.254,0.129 c -0.416,-0.393 -0.466,-1.154 -1.148,-1.28 l 0.063,-0.192 -0.191,0.064 c -0.026,-0.866 -1.077,-1.352 -1.404,-1.92 -0.316,-0.551 -0.264,-1.208 -0.637,-1.92 -0.439,-0.838 -1.392,-1.801 -2.168,-2.816 -1.51,-1.97 -3.062,-3.757 -4.466,-5.632 -0.777,-1.036 -1.437,-2.267 -2.168,-2.942 -0.43,-0.4 -1.036,-0.585 -1.404,-0.897 -1.026,-0.871 -1.879,-1.961 -2.04,-3.455 -0.317,-2.933 1.638,-3.903 3.188,-5.12 0.534,-0.419 1.854,-1.62 2.679,-1.792 2.353,-0.488 3.501,1.325 3.318,2.944 -0.15,1.315 -1.118,3.133 -1.914,4.608 -0.307,0.568 -0.795,1.26 -1.275,1.92 -0.531,0.726 -1.313,1.272 -1.277,2.047 0.031,0.621 1.327,1.929 1.914,2.687 0.82,1.062 1.501,2.006 2.041,2.688 2.095,2.645 3.792,5.701 6.506,7.424 l -0.064,0.192 z M 74.668,12.123 C 73.611,8.815 73.834,4.743 71.606,2.907 70.496,1.992 65.686,1.71 64.972,0.603 c -0.741,-1.15 0.364,-3.338 1.531,-3.583 2.002,-0.422 4.634,1.285 5.613,2.559 0.545,0.71 1.314,2.094 1.531,3.071 0.184,0.832 0.088,1.682 0.255,2.433 0.514,2.313 0.996,4.174 1.149,6.911 L 74.816,11.93 Z m 7.781,3.712 c 0.928,0.022 1.689,1.617 0.51,1.92 -0.261,-0.506 -0.213,-1.323 -0.638,-1.665 l 0.192,-0.064 z m -6.634,4.863 c -0.743,-0.919 -0.074,-3.252 -0.893,-4.095 v -0.129 h -0.127 c 0.143,-0.199 0.414,-0.267 0.383,-0.639 l 0.233,0.062 0.15,-0.191 c 0.172,0.041 0.243,0.183 0.51,0.129 l 0.063,0.191 0.192,-0.064 c -0.01,1.1 0.9,1.028 0.893,1.793 -0.009,0.891 -1.45,1.152 -1.148,2.815 l -0.192,-0.064 z m -30.104,16.447 -0.128,0.063 c -0.445,-0.563 -1.065,-0.028 -1.276,0.385 0.441,1.136 0.798,2.356 1.404,3.328 -0.322,0.704 0.206,1.554 0.51,2.048 1.176,0.44 3.097,0.364 3.443,-0.769 l 0.192,0.064 0.064,-0.191 c 0.872,-0.15 1.577,-1.136 1.913,-2.049 0.441,-1.194 0.379,-2.752 0.383,-4.351 -1.004,-0.487 -2.111,-0.867 -3.444,-1.025 -0.469,1.023 -1.463,1.913 -2.806,1.665 -0.487,0.238 0.006,0.792 -0.128,0.895 z m -14.16,-9.408 v -0.128 c -0.028,-0.988 -0.933,-1.503 -1.531,-2.303 -0.663,-0.89 -0.933,-2.178 -1.658,-2.561 l 0.064,-0.191 -0.193,0.064 c 0.164,-0.916 -1.925,-1.408 -1.912,-0.257 l -0.192,-0.063 0.063,0.192 c -0.908,-0.016 -1.725,0.059 -2.296,0.384 v 0.256 l -0.127,-0.065 -0.127,0.065 c -0.46,-0.565 -2.257,-0.465 -3.063,-0.256 -0.249,0.239 -0.038,0.468 0,0.768 l -0.165,0.166 -0.09,0.217 c -0.563,-0.882 -1.552,-0.955 -2.55,-1.407 -1.045,-0.473 -2.233,-1.826 -3.317,-1.024 0.124,1.203 1.068,2.011 1.786,2.815 0.726,0.814 1.395,1.784 2.169,2.56 1.052,1.057 2.432,1.649 3.571,2.56 0.621,0.496 0.964,1.291 1.53,1.92 1.318,1.462 3.499,2.555 4.594,3.841 1.044,0.148 0.964,-1.063 0.765,-1.793 l 0.191,0.064 0.063,-0.192 c 1.766,0.49 1.91,2.607 2.935,3.839 l -0.191,0.065 0.064,0.192 c -0.374,0.108 0.075,0.412 0,0.639 h 0.381 l 0.193,0.065 0.063,-0.191 c 0.447,0.617 1.239,0.888 2.041,1.151 0.61,1.931 2.314,3.052 3.954,4.224 1.575,1.124 3.573,3.005 4.593,0.638 l 0.192,-0.062 -0.064,-0.194 c 0.724,0.246 1.605,-0.196 1.913,-0.766 -0.493,-1.589 -0.85,-3.223 -1.404,-4.865 -0.28,-0.834 -0.5,-1.823 -0.892,-2.559 -0.428,-0.804 -1.166,-1.028 -1.531,-1.792 -0.688,0.048 -1.025,-0.46 -1.53,-0.384 -0.885,0.134 -1.05,1.266 -1.531,2.048 -0.713,1.158 -1.694,1.386 -2.17,2.176 -0.891,-0.388 -1.161,0.85 -2.04,0.64 -0.641,-0.154 -0.544,-0.796 -0.766,-1.409 -0.386,-1.071 -0.855,-2.083 -0.637,-3.199 0.143,-0.736 1.243,-2.062 1.276,-2.815 0.081,-1.889 -1.355,-2.285 -2.552,-3.073 z M 80.345,53.592 80.28,53.464 c 0.672,-0.82 2.493,-0.485 3.062,-1.407 -0.196,-0.744 -0.582,-1.295 -1.148,-1.665 -1.996,0.215 -2.67,1.185 -3.19,2.687 l -0.191,0.065 0.064,0.191 c -0.372,0.216 -0.771,0.724 -0.765,1.28 0.002,0.224 1.34,2.796 1.53,2.944 0.85,0.664 1.396,0.046 1.786,-0.256 0.227,-1.806 -0.985,-2.166 -1.148,-3.583 z m -33.126,3.263 0.15,-0.192 c 0.214,0.053 0.573,0.604 0.765,0.256 2.079,-1.489 -0.025,-5.154 -2.423,-4.48 -0.253,0.49 -0.613,1.284 -0.128,1.792 l -0.191,0.064 -0.064,0.192 C 45.139,54.511 45.21,54.797 45.2,55 l -0.234,-0.064 -0.148,0.192 c -0.215,-0.211 -0.574,-0.278 -0.767,-0.513 -0.558,0.387 -0.209,0.915 -0.126,1.536 l -0.192,0.065 0.063,0.191 c -0.777,0.099 -1.2,-0.159 -1.53,-0.511 -0.352,-0.055 -0.12,0.477 -0.382,0.511 l -0.15,-0.191 -0.234,0.063 c 0.71,-2.454 -0.262,-4.431 -2.168,-4.991 -0.6,0.082 -0.603,0.76 -1.275,0.769 -0.189,-0.067 -0.322,-0.191 -0.511,-0.256 -0.128,-0.727 0.382,-0.813 0.256,-1.537 l 0.165,-0.166 0.09,-0.219 c 0.579,0.273 0.872,0.832 1.657,0.896 0.137,-0.476 -0.316,-0.364 -0.255,-0.766 l 0.166,-0.167 0.089,-0.219 c 0.497,0.356 0.746,0.96 1.148,1.408 0.261,-0.038 0.34,-0.256 0.511,-0.383 -0.285,-1.037 -0.75,-1.892 -1.914,-2.047 v 0.639 l -0.166,0.165 -0.088,0.218 C 38.684,48.979 37.991,47.877 36.78,48.345 v 0.638 l -0.234,-0.063 -0.148,0.191 c -0.613,-0.329 -0.663,-0.199 -1.404,0 -0.797,-0.564 -1.151,-1.574 -2.295,-1.791 -0.542,0.565 -1.282,0.932 -2.041,1.281 -0.895,1.351 1.103,2.205 2.041,2.815 2.65,1.722 5.668,3.723 7.782,5.12 h 0.765 c 0.026,-0.144 0.141,-0.2 0.254,-0.257 l 0.149,0.193 0.235,-0.065 c -0.261,1.569 1.958,1.848 2.167,0.512 l 0.193,0.064 0.063,-0.191 c 0.651,0.712 2.114,4.114 3.444,2.56 0.386,-0.452 -0.051,-0.787 -0.127,-1.281 -0.601,0.073 -1.01,0.228 -1.276,-0.257 -0.034,-0.587 0.535,-0.572 0.638,-1.022 z m 31.569,7.911 -0.166,-0.167 c -0.07,-0.528 -0.419,-0.774 -0.765,-1.024 L 77.92,63.341 77.729,63.19 c 0.518,-0.523 0.963,-1.145 1.02,-2.046 0.089,-1.418 -0.635,-2.458 -1.148,-3.073 -0.109,-0.444 -0.663,-0.444 -0.893,-0.768 -0.225,-1.227 -1.077,-2.075 -2.168,-2.047 -1.384,0.035 -1.616,1.226 -1.914,2.558 l -0.063,-0.191 -0.191,0.065 v -0.769 c -1.584,-0.288 -1.719,-2.03 -2.552,-3.071 -0.639,0.12 -1.064,-0.38 -1.658,0.128 -0.27,0.23 -0.375,0.951 -0.511,1.28 -0.312,0.76 -0.773,1.53 -0.765,2.176 0.014,1.28 1.693,3.666 2.297,4.223 0.438,0.405 1.288,0.366 1.148,1.024 0.068,0.624 -0.844,0.263 -1.148,0.511 -1.413,0.847 -1.703,3.378 0.382,3.712 l -0.065,0.193 0.065,0.192 c 0.114,1.308 1.793,0.551 2.934,0.511 1.086,-0.037 2.051,0.238 2.552,-0.383 l 0.063,0.191 0.191,-0.064 v 0.256 c 0.629,0.713 2.799,0.347 3.827,0.257 0.382,-0.642 0.701,-1.345 1.531,-1.535 0.224,-0.809 -0.762,-1.435 -1.403,-1.792 -0.182,0.03 -0.216,0.21 -0.383,0.254 z m -25.552,2.392 c -0.145,-0.663 -0.619,-0.998 -0.509,-1.92 0.693,-0.012 0.796,0.566 1.53,0.512 0.262,-0.121 0.354,-0.412 0.511,-0.639 -0.554,-2.054 -2.978,-0.895 -4.593,-1.024 -0.295,0.345 -0.444,0.835 -0.766,1.151 0.281,1.213 1.524,1.458 1.659,2.817 0.917,0.585 1.859,-0.124 2.168,-0.897 m 4.338,5.632 c 0.221,-0.116 0.33,-0.449 0.128,-0.64 -0.274,0.192 0.09,0.314 -0.128,0.64 m 31.381,1.921 c -0.14,-0.286 -0.211,-0.642 -0.382,-0.897 -0.712,-0.074 -1.218,0.059 -1.531,0.384 -0.211,1.199 1.455,1.025 1.913,0.513 M 74.158,91.989 c 0.226,-0.094 0.017,-0.232 0,-0.385 -0.228,0.095 -0.019,0.234 0,0.385 M 83.98,40.024 c -1.749,0.914 -4.494,1.227 -6.634,1.024 -0.296,0.617 -0.578,0.767 -0.383,1.408 0.267,0.877 1.833,0.646 2.552,0.897 0.342,0.119 1.038,0.641 1.658,1.024 0.672,0.412 1.312,0.719 1.532,1.151 0.366,0.722 0.157,1.898 0.509,2.688 0.242,0.544 0.751,0.873 0.893,1.28 0.22,0.628 0.032,2.52 1.021,2.431 v 0.13 h 0.127 c -0.385,1.093 1.707,1.919 2.552,2.558 0.915,0.694 2.127,1.775 2.169,2.944 0.022,0.637 -0.562,1.319 -0.511,1.92 0.051,0.595 0.785,1.001 1.149,1.536 0.333,0.492 0.706,1.339 1.147,2.048 0.563,0.905 1.27,1.871 1.148,2.304 0,0.071 0.103,0.144 0.128,0 0.356,0.88 1.858,0.61 2.934,0.768 l -0.063,0.128 0.063,0.127 c -0.073,0.781 -0.348,1.357 -0.638,1.921 0.452,0.911 1.284,1.442 1.658,2.431 l -0.166,0.166 -0.089,0.218 c -1.055,-0.637 -1.462,-1.875 -2.169,-2.815 -0.736,-0.982 -1.816,-1.623 -2.423,-2.688 -0.222,0.01 -0.397,-0.028 -0.51,-0.129 l 0.063,-0.127 -0.063,-0.129 c 0.177,-1.558 -1.321,-2.526 -2.041,-3.711 -0.411,-0.676 -0.458,-1.499 -1.149,-1.921 -1.391,0.439 -3.305,0.354 -3.316,2.177 H 85 v 0.128 c -0.201,-0.012 -0.1,-0.327 -0.383,-0.256 -0.437,0.799 -0.808,1.663 -1.148,2.56 -0.775,0.137 -0.868,-0.408 -1.53,-0.384 -0.842,0.285 -0.739,1.705 -0.128,2.176 1.159,0.521 1.815,-0.372 2.424,-0.64 1.231,-0.541 2.839,-0.508 3.827,-1.28 v -0.256 h 0.127 v -0.129 c 0.888,0.476 1.968,0.758 2.68,1.409 v 0.127 h 0.127 c -0.028,0.145 -0.142,0.2 -0.256,0.256 0.406,2.444 -0.263,5.029 0.894,6.656 0.613,0.864 2.011,1.517 3.061,2.175 1.135,0.713 2.302,1.336 3.317,1.921 1.041,0.601 1.964,1.429 2.934,2.048 0.997,0.638 2.044,1.711 3.316,1.152 -0.467,-1.707 -2.255,-2.09 -3.061,-3.457 l 0.216,-0.089 0.167,-0.167 c 1.071,0.758 1.981,1.696 3.062,2.561 0.999,0.8 2.04,1.926 3.061,2.56 1.689,1.048 3.844,0.845 5.358,1.664 0.981,0.53 1.394,2.069 2.551,2.048 l -0.064,0.234 0.191,0.149 v 0.384 c 1.485,1.883 3.718,-0.298 6.124,-0.256 3.949,0.07 5.762,4.356 2.934,6.401 -1.309,0.368 -2.78,0.288 -3.955,0.126 -0.722,-0.527 -1.364,-0.635 -2.04,-1.279 -0.931,-0.886 -1.209,-2.439 -2.041,-3.2 -0.405,-0.368 -1.932,-1.122 -2.297,-1.151 -1.275,-0.103 -2.117,0.877 -3.445,1.024 l 0.046,-0.229 -0.173,-0.156 c -1.077,-1.87 -3.403,-2.89 -5.613,-4.095 -0.908,-0.497 -2.104,-1.062 -3.317,-1.537 -0.913,-0.356 -2.772,-1.194 -3.571,-1.28 -0.429,-0.045 -0.983,0.226 -1.404,0.129 -0.744,-0.173 -1.106,-0.983 -1.658,-1.408 l 0.191,-0.064 -0.063,-0.192 c 0.49,0.104 1.062,0.099 1.275,-0.384 -0.106,-0.922 -1.026,-1.373 -1.658,-1.793 -0.73,-0.482 -1.533,-0.857 -2.169,-1.408 -0.112,-0.398 -0.477,-0.544 -0.765,-0.767 -0.922,0.1 -1.523,0.519 -2.041,1.024 -0.006,0.603 0.411,0.781 0.382,1.408 l -0.063,0.128 0.063,0.128 c -0.492,0.359 -1.642,0.059 -1.912,0.64 -0.036,1.052 0.751,1.925 1.275,2.815 1.9,3.233 3.836,6.761 6.633,8.831 h 3.827 l -0.064,0.235 0.191,0.15 c -1.026,0.209 -2.335,0.222 -3.316,0.128 -1.002,1.141 -0.24,1.828 0.255,2.815 0.776,1.55 1.357,3.352 2.424,4.353 0.555,0.519 1.346,0.71 1.913,1.153 1.892,1.472 3.219,4.432 1.403,6.399 -0.832,0.192 -1.993,0.653 -2.934,0.383 -1.152,-0.33 -2.134,-1.846 -2.296,-3.071 -0.179,-1.362 0.65,-2.857 0.511,-4.224 -0.109,-1.072 -0.946,-1.887 -1.531,-2.816 -0.826,-1.313 -1.303,-2.637 -2.679,-2.943 -1.139,-0.254 -2.509,0.203 -3.571,0 -1.623,-0.312 -2.71,-1.454 -2.552,-3.584 0.857,-1.274 2.782,-1.476 3.316,-3.073 -0.506,-1.058 -1.176,-2.04 -1.785,-3.071 -0.597,-1.009 -1.076,-2.249 -2.042,-2.944 -0.697,0.494 -0.991,1.393 -2.168,1.408 -0.031,-0.71 -0.326,-1.57 0.127,-2.048 0.111,-0.615 1.202,-0.244 1.277,-0.896 C 86.244,75.81 85.839,74.337 84.49,73.814 L 84.681,73.75 84.49,73.686 c -0.336,-1.023 -1.072,-1.816 -1.659,-2.687 -0.556,-0.827 -1.045,-1.877 -2.041,-2.305 -1.878,1.625 0.251,1.988 1.404,2.944 0.661,0.55 0.772,1.118 1.148,1.536 h -0.128 v 0.129 c -0.797,0.82 -0.307,2.932 -1.913,2.943 -1.142,-1.397 -1.167,-3.022 -2.169,-4.351 -0.567,-0.752 -1.587,-1.055 -2.169,-1.792 -0.332,-0.422 -0.321,-1.192 -0.892,-1.409 -2.353,-0.06 -4.542,-0.169 -4.847,1.792 -0.144,0.918 0.701,2.089 0.637,3.2 -0.034,0.605 -0.501,0.878 -0.51,0.895 -0.412,0.741 0.291,1.834 0.765,2.177 h -0.128 v 0.128 c -0.007,0.079 -0.019,0.151 -0.127,0.128 -0.866,1.955 -0.436,4.281 0,6.784 0.245,1.408 0.512,3.597 1.275,4.223 0.461,0.377 1.228,0.282 1.786,0.512 1.911,0.789 3.739,2.944 2.297,5.248 -1.3,0.897 -3.715,1.048 -5.613,0.896 0.002,-0.772 -1.008,-1.245 -1.021,-2.176 -0.006,-0.47 0.506,-1.398 0.766,-2.048 0.264,-0.664 0.749,-1.318 0.765,-2.048 0.018,-0.799 -0.441,-1.989 -0.637,-2.943 -0.222,-1.074 -0.375,-2.174 -0.51,-3.2 -0.273,-2.047 -0.406,-4.269 -1.659,-5.632 l 0.064,-0.192 -0.191,-0.064 c 0.236,-0.441 1.21,-0.694 0.764,-1.407 h 0.128 v -0.129 c 0.163,-0.007 0.177,-0.163 0.383,-0.127 0.312,-2.034 0.513,-4.557 -2.041,-4.353 l 0.063,-0.233 -0.19,-0.15 c 1.275,-0.172 1.008,-1.759 0.127,-2.048 -0.764,-0.25 -1.708,0.468 -2.424,0.384 -0.86,-0.102 -0.973,-0.657 -1.403,-0.896 l 0.063,-0.192 -0.063,-0.192 c 0.717,-0.475 1.923,-0.46 2.423,-1.152 -0.023,-0.402 -0.237,-0.616 -0.637,-0.641 l -0.191,0.066 -0.192,0.063 c -1.549,-0.92 -3.341,-1.596 -4.975,-2.432 -2.674,2.029 1.064,3.746 2.806,3.967 l -0.191,0.15 0.064,0.235 c -0.541,0.166 -1.01,-0.391 -1.149,0.128 -0.21,1.124 1.327,1.558 1.786,2.432 1.429,-0.07 2.497,0.225 3.956,0.128 l -0.064,0.235 0.191,0.148 c -0.479,0.501 -2.056,-0.099 -2.296,0.641 v 0.383 h -0.128 v 0.129 c -0.347,-0.184 -0.725,-0.823 -1.148,-1.025 -0.38,-0.18 -0.91,-0.062 -1.531,-0.256 -1.368,-0.426 -2.301,-1.668 -2.934,0 -0.223,0.59 0.144,0.871 0.128,1.152 -0.027,0.46 -0.284,0.608 -0.255,0.895 0.048,0.488 0.058,1.084 0.51,1.282 -0.582,0.094 -0.645,1.261 -0.383,1.792 h -0.127 v 0.127 0.511 l -0.191,0.066 0.063,0.191 h -0.382 c -0.449,0.647 -0.368,1.251 0,1.92 -0.058,0.369 -0.451,0.399 -0.384,0.896 0.616,0.534 1.671,0.627 2.042,1.407 0.004,0.73 -0.607,0.843 -0.638,1.537 -0.189,-0.537 -0.494,-0.291 -0.893,-0.129 -0.924,-0.437 -2.038,-0.685 -2.552,-1.534 0.273,-0.495 0.86,-0.675 1.021,-1.281 -0.611,-0.46 -0.536,-0.999 -0.637,-1.792 -1.284,-1.76 -3.132,-2.934 -5.997,-2.559 -0.496,0.063 -1.017,0.39 -1.53,0.383 -2.615,-0.035 -3.305,-2.59 -2.296,-4.608 -0.318,-0.337 -0.838,0.271 -0.893,-0.383 0.058,-0.71 0.441,-1.094 1.148,-1.153 0.631,0.101 -0.248,0.924 0.382,1.025 1.832,-1.026 0.505,-2.601 -1.275,-2.433 -0.299,0.468 -0.134,1.401 -0.637,1.664 -1.09,0.466 -1.245,-0.918 -1.915,-1.279 -0.551,10e-4 -0.809,0.298 -1.402,0.256 l 0.064,-0.192 -0.192,-0.064 c 0.77,-0.788 1.801,-0.531 2.807,-1.025 0.396,-0.113 0.374,-0.648 0.764,-0.767 1.473,0.058 3.453,-2.202 1.149,-2.56 -0.409,0.145 -0.361,0.746 -0.51,1.153 -1.209,0.2 -2.109,1.093 -3.318,1.022 -1.351,-0.079 -1.829,-1.32 -2.805,-1.535 0.492,-0.908 -1.026,-0.597 -0.765,-1.664 0.47,-0.585 1.029,0.21 1.53,-0.129 0.359,-0.257 0.424,-0.609 0.766,-0.895 0.713,-0.601 1.752,-0.556 1.658,-1.536 -0.085,-0.884 -2.217,-1.542 -2.807,-1.792 -0.027,0.1 -0.107,0.149 -0.255,0.128 l -0.192,-0.063 -0.19,0.063 c -0.235,-0.969 -1.813,-1.707 -2.807,-2.305 -1.198,-0.717 -2.31,-1.295 -3.19,-1.791 -2.341,-1.319 -3.953,-3.168 -5.868,-4.222 0.027,0.577 -0.595,0.437 -0.764,0.511 -1.13,0.487 -1.749,0.035 -2.934,-0.128 -2.201,-0.303 -4.224,-0.019 -5.359,-1.664 -0.179,-0.262 -0.417,-0.755 -0.509,-1.152 -0.339,-1.452 0.6,-3.519 0.254,-4.607 -0.147,-0.461 -1.115,-1.161 -1.53,-1.665 -0.054,-0.063 -0.213,0.155 -0.255,0.129 C 17.609,41.17 17.158,40.514 16.881,40.28 14.479,38.27 12.553,36.896 10.629,34.777 9.032,33.017 7.387,31.673 6.165,29.785 5.706,29.076 5.156,28.268 5.272,27.226 5.245,26.559 6.13,26.807 6.038,26.073 2.977,23.31 -0.298,20.423 -3.402,17.37 -4.031,16.751 -5.949,14.699 -6.719,14.555 -7.548,14.397 -8.4,14.867 -9.142,14.81 c -1.561,-0.119 -2.517,-0.955 -4.21,-1.279 -2.332,1.128 -4.647,0.863 -6.252,-0.512 -1.512,-1.297 -2.12,-3.553 -3.571,-4.608 -0.163,-0.176 -0.602,-0.176 -0.765,0 -0.236,-0.83 -1.28,-0.848 -1.786,-1.408 -0.442,-0.104 -0.49,0.19 -0.893,0.128 -0.074,-0.672 0.224,-0.969 0.128,-1.664 L -26.3,5.403 -26.363,5.211 c 1.42,-0.231 1.131,1.254 2.423,1.151 0.357,-0.778 0.179,-2.225 -0.128,-3.071 -0.326,-0.897 -1.116,-1.782 -2.168,-1.664 -0.389,0.724 -0.396,2.354 -0.383,3.072 l -0.191,-0.064 -0.064,0.192 c -0.995,-0.342 -1.068,-1.514 -1.021,-2.177 0.084,-1.181 1.206,-2.631 1.787,-4.094 0.479,-1.209 0.997,-2.622 1.147,-3.711 l 0.166,-0.167 0.089,-0.219 c 0.569,0.716 1.553,0.192 2.168,0.512 0.506,0.263 0.574,0.987 0.767,1.537 0.242,0.691 0.576,1.346 0.51,1.919 0.56,0.335 0.971,0.817 1.275,1.407 l -0.165,0.168 -0.09,0.218 c -0.637,-0.99 -1.439,0.191 -1.658,1.151 -0.28,1.222 -0.059,4.398 0.51,5.504 0.815,1.585 2.373,0.804 3.317,2.176 -2.697,2.34 2.301,4.733 4.593,3.199 0.914,-0.611 2.171,-2.233 1.786,-3.071 l 0.227,0.047 0.155,-0.175 c 1.959,-0.162 2.077,-1.114 2.934,-2.689 0.489,-0.897 1.174,-1.645 1.276,-2.304 0.157,-1.019 -0.301,-2.151 -0.256,-3.072 0.2,-4.06 4.445,-4.574 5.613,-1.662 0.117,1.865 -0.501,2.994 -0.637,4.608 -1.382,0.165 -2.362,1.022 -3.955,0.767 -0.34,0.57 -0.572,1.125 -0.893,1.663 -0.331,0.557 -0.885,0.997 -0.894,1.664 -0.009,0.819 0.95,1.43 1.532,2.56 0.762,1.482 0.486,3.086 1.276,3.457 h -0.128 v 0.127 c 0.009,0.039 -0.013,0.089 0,0.128 0.307,0.957 2.192,2.408 3.189,3.328 1.278,1.178 2.35,2.312 3.317,3.2 6.983,6.416 14.488,12.086 21.558,17.79 l -0.217,0.091 -0.165,0.166 c -4.349,-3.018 -8.311,-6.423 -12.503,-9.6 -1.967,1.659 0.14,3.594 1.532,4.864 2.992,2.73 6.74,5.794 8.93,7.936 -0.001,0.071 0.103,0.145 0.126,0 0.937,0.723 2.821,0.496 3.956,1.023 0.402,0.02 0.769,0.005 0.893,-0.256 0.324,0.963 1.561,1.14 2.678,2.177 0.882,0.816 1.238,2.411 2.297,2.559 0.642,0.09 1.263,-0.409 1.913,-0.767 0.083,-0.68 -0.321,-0.873 -0.638,-1.153 l 0.192,-0.148 -0.064,-0.236 h 0.383 c 0.266,-0.42 0.266,-0.859 0,-1.281 l 0.191,-0.062 -0.064,-0.194 h 0.254 c 0.321,-0.544 0.326,-1.601 0.129,-2.302 C 31.016,39.138 28.879,37.316 26.831,35.417 24.489,33.245 21.979,30.969 18.794,29.913 18.491,27.745 17.002,27.342 15.35,26.201 14.356,25.517 13.095,24.262 12.288,24.154 11.8,24.089 11.279,24.375 10.885,24.409 9.259,24.552 7.633,24.1 6.676,23.001 5.835,22.037 5.681,20.034 5.783,18.65 c 1.076,0.017 1.107,-0.598 2.041,-0.768 2.431,-0.442 4.077,1.911 4.72,3.585 0.223,0.578 0.198,1.313 0.51,1.919 0.218,0.423 0.864,0.829 1.276,1.151 0.476,0.375 1.066,0.955 1.53,0.769 -0.493,-1.534 -3.465,-3.33 -2.679,-5.248 0.333,-0.811 1.455,-0.509 1.786,-1.537 -1.242,-1.351 -1.84,-3.142 -2.934,-4.607 -0.62,-0.83 -1.551,-1.458 -1.53,-2.815 l 0.233,0.063 0.149,-0.191 c 0.554,0.339 0.815,0.974 1.276,1.408 0.099,1.262 0.685,1.6 1.276,2.431 1.126,1.585 2.167,3.9 3.444,4.735 l -0.191,0.15 0.063,0.235 c -0.186,0.112 -0.494,0.101 -0.382,0.512 0.308,-0.319 0.519,0.061 0.637,-0.384 l 0.063,-0.192 0.065,-0.192 c 1.395,0.167 1.997,1.715 2.933,2.176 0.522,0.256 1.217,0.261 1.786,0.255 1.551,-0.014 3.629,-0.478 4.593,-1.279 -0.243,-1.248 -1.377,-1.543 -1.149,-2.944 l 0.193,-0.15 -0.064,-0.234 h 0.255 c 0.612,-0.281 1.037,-0.751 1.913,-0.768 0.792,-0.827 1.764,-1.472 3.189,-1.664 0.52,-0.095 0.439,0.413 1.021,0.256 0.467,-0.664 1.17,-1.044 1.913,-0.896 0.803,0.16 1.088,1.449 1.658,1.92 0.768,0.633 2.23,0.788 3.444,1.28 0.972,0.394 2.413,0.939 3.19,1.664 0.394,0.368 0.565,1.123 1.021,1.664 0.413,0.49 1.157,0.778 1.403,1.151 0.127,0.193 0.147,0.643 0.254,0.896 0.386,0.899 0.74,1.328 1.532,1.665 0.447,1.343 1.376,2.203 2.295,3.071 -0.056,2.597 1.914,0.838 3.062,1.28 0.164,0.064 0.657,0.403 0.765,0.768 0.609,2.047 -1.82,1.378 -1.786,2.816 0.017,0.685 0.599,0.781 1.148,1.152 0.773,1.963 2.598,0.275 4.593,0.513 1.417,0.167 2.583,1.62 3.827,1.279 l -0.063,0.191 0.191,-0.063 c 0.444,0.252 1.48,0.168 1.786,-0.128 v -0.128 l 0.191,0.063 0.191,-0.063 c 0.19,0.119 0.206,0.922 0.255,0.128 l 0.235,0.063 0.148,-0.191 c 1.159,1.595 2.389,3.416 3.317,4.863 0.937,1.199 3.38,3.14 6.123,3.455 1.418,0.164 3.079,0.068 3.827,-1.023 0.065,-1.602 -0.409,-2.663 -1.658,-2.944 -0.122,-0.673 0.512,-1.031 0.637,-1.664 0.228,-1.151 -0.034,-2.71 -0.51,-3.583 -0.3,-0.551 -0.861,-0.719 -0.893,-1.28 0.238,-0.729 1.136,-0.521 1.659,-0.895 0.501,-0.36 0.58,-0.997 1.02,-1.409 V 30.81 l 0.191,0.063 0.064,-0.192 c 2.647,-0.773 4.615,-0.042 6.378,1.152 0.021,0.646 0.39,1.189 0.511,1.92 0.314,1.897 -0.275,4.211 0.255,5.888 l -0.064,0.191 z m 17.731,-6.655 c 0.09,-0.394 0.09,-0.246 0,-0.64 -0.523,-0.321 -0.894,0.265 -1.276,0.512 -1.334,0.862 -2.48,1.733 -4.209,2.049 -0.763,0.138 -1.654,-0.128 -2.169,0.639 l -0.064,-0.193 -0.191,0.065 c -0.483,-0.794 -1.695,-0.859 -2.933,-0.897 l -0.129,-0.063 -0.126,0.063 c -1.071,-1.058 -2.386,-2.555 -4.466,-2.175 -0.219,-0.022 -0.501,0.725 -0.51,0.127 -0.672,-1.293 -1.668,-3.854 0.256,-4.094 1.673,-0.21 2.106,1.691 2.55,3.199 1.045,0.657 2.149,1.798 3.7,1.536 l 0.127,-0.064 0.127,-0.064 c 1.221,1.976 3.566,-0.457 2.041,-2.047 h -0.254 l 0.064,-0.193 -0.192,-0.064 c 0.286,-0.565 0.823,-0.88 0.638,-1.919 l 0.192,0.063 0.063,-0.192 h 0.511 l 0.063,0.192 0.192,-0.063 c -0.272,0.932 0.268,1.787 0.127,2.815 -0.085,0.615 -0.591,0.865 -0.51,1.536 1.966,0.41 3.867,-0.319 5.23,-1.92 0.338,-0.397 0.615,-1.162 1.021,-1.792 0.421,-0.652 0.979,-1.198 1.148,-1.664 0.764,-2.109 -1.049,-3.921 -2.807,-3.839 -0.73,0.033 -1.273,0.867 -1.02,1.663 -0.108,0.456 -0.315,0.016 -0.765,0.128 l 0.063,-0.192 -0.191,-0.064 c 0.103,-0.537 0.448,-0.83 0.51,-1.408 -0.757,-1.288 -1.614,-2.476 -3.189,-2.942 0.063,-0.747 -0.036,-1.329 -0.255,-1.793 0.925,-1.245 1.645,-1.83 3.189,-1.792 1.505,0.038 2.851,1.591 4.083,0.896 0.421,-0.315 0.46,-1.072 0.764,-1.665 0.378,-0.732 1.275,-1.674 1.659,-2.943 0.398,-1.312 0.384,-3.303 1.02,-4.351 0.506,-0.835 1.2,-1.168 1.276,-1.793 0.101,-0.841 -0.554,-1.622 -0.638,-2.559 -0.147,-1.631 0.69,-3.348 1.913,-3.327 1.382,0.021 2.06,2.046 1.531,3.712 -0.402,1.269 -1.535,1.552 -1.658,2.815 -0.067,0.682 0.272,1.177 0.255,1.791 -0.063,2.275 -1.756,2.985 -2.806,4.352 -0.889,1.156 -1.345,2.244 -1.914,3.711 0.473,0.821 1.679,0.379 1.787,1.537 0.077,0.839 -1.1,1.42 -1.277,2.432 -0.147,0.847 0.19,1.724 0.256,2.559 0.096,1.213 -0.428,2.432 0.255,3.2 0.96,-1.149 1.54,-2.897 2.296,-4.607 0.679,-1.538 1.809,-3.39 1.913,-4.992 0.06,-0.915 -0.414,-1.965 -0.255,-3.071 0.167,-1.15 1.017,-2.595 2.296,-2.56 0.707,0.018 1.499,0.661 1.659,1.407 0.556,2.595 -1.834,3.576 -2.68,4.864 -0.312,0.478 -0.596,1.26 -0.892,1.92 -1.97,4.382 -4.391,9.274 -7.144,12.543 l -0.09,-0.218 z m -6.633,7.552 C 94.486,40.334 93.58,40.806 92.782,40.536 91.25,38.897 92.213,37.362 93.675,36.568 l 0.192,0.064 0.063,-0.191 c 0.147,0.323 0.533,0.403 0.765,0.639 -0.214,0.319 -0.764,0.825 -0.765,1.536 -0.001,0.683 0.25,1.337 1.02,1.152 l 0.155,0.173 0.228,-0.045 c 0.052,0.309 -0.233,0.279 -0.128,0.64 l -0.064,0.193 z m 27.553,6.143 c 2.296,-3.205 5.427,-10.691 2.807,-15.359 l 0.107,-0.105 0.02,-0.151 c 2.137,1.28 1.858,3.576 1.404,6.529 -0.606,3.94 -2.158,7.593 -4.082,9.47 l -0.089,-0.217 z m -5.74,3.967 c 0.005,-1.581 -1.926,-1.223 -2.933,-1.791 h 0.127 v -0.129 h 0.51 c -0.333,-0.945 -1.774,-0.779 -2.423,-1.407 l 0.191,-0.149 -0.064,-0.235 c 1.089,0.212 2.308,0.744 3.572,1.152 2.083,0.673 3.783,1.731 5.229,0.384 l -0.044,0.227 0.173,0.157 v 0.513 c 1.764,1.534 3.228,-1.086 5.102,-1.665 2.138,-0.66 3.107,1.003 4.082,2.176 0.451,0.542 1.845,1.72 1.786,2.558 -0.083,1.195 -1.898,1.565 -2.806,1.665 -2.664,0.294 -4.426,-0.556 -5.996,-1.535 -0.98,-0.612 -2.924,-2.085 -3.954,-2.177 -1.101,-0.096 -1.535,0.583 -2.424,0.641 l 0.064,-0.235 z m -3.444,7.168 c -0.452,-0.27 -0.8,-0.648 -1.148,-1.023 -1.053,-0.038 -2.09,0.186 -2.935,-0.129 -1.06,-0.397 -1.318,-1.498 -2.041,-2.303 -1.038,-1.159 -2.156,-1.282 -3.443,-1.792 -1.391,-0.552 -2.176,-1.872 -2.169,-3.329 0.008,-1.49 1.716,-2.828 1.276,-4.223 -0.325,-1.03 -3.381,-1.643 -3.827,-2.431 l 0.191,-0.15 -0.064,-0.235 c 3.57,0.435 7.156,1.947 9.951,3.584 l -0.064,0.192 0.064,0.192 c -0.129,-10e-4 -0.152,0.103 -0.256,0.128 -0.242,0.312 -0.351,0.759 0,1.024 h -0.128 v 0.128 c -0.567,0.469 -0.2,1.685 0.128,2.177 0.873,1.306 3.638,1.788 5.613,1.535 l -0.063,0.234 0.191,0.149 c -0.743,0.423 -1.906,-0.225 -2.169,0.512 -0.298,0.795 0.359,1.795 0.383,2.817 0.009,0.391 -0.205,0.936 -0.128,1.28 0.15,0.668 0.81,0.864 0.893,1.408 l -0.191,0.063 z m 9.823,11.392 c -0.416,-0.352 -0.667,-0.867 -1.021,-1.28 l 0.192,-0.064 0.063,-0.192 h 0.511 v -0.128 h 0.127 v -0.129 c 0.251,0.475 0.472,0.977 0.51,1.665 l -0.233,-0.065 z m 1.275,1.92 h -0.382 c -0.516,0.463 -0.046,1.916 -0.511,2.431 l -0.148,-0.192 -0.234,0.064 c 0.071,-1.208 0.185,-2.374 0.127,-3.711 l 0.234,0.064 0.148,-0.192 c 0.313,0.369 0.649,0.715 0.893,1.151 l -0.19,0.15 z m 8.42,21.118 c -0.875,-1 -0.386,-3.367 -0.766,-4.863 l 0.234,0.063 0.15,-0.192 c 0.45,1.528 1.538,3.365 0.764,4.992 l -0.191,-0.064 z m 0.382,0.383 -0.148,0.193 -0.234,-0.063 M -46.774,-24.099 c -0.487,0.066 -0.313,0.795 -1.021,0.64 -0.492,-0.683 0.754,-1.471 1.021,-0.64 m 41.076,15.232 c 0.704,-0.111 0.938,0.253 1.02,0.766 -0.539,0.481 -1.466,0.034 -1.02,-0.766 m 19.135,0.894 v 0.513 h -0.511 c -0.059,-0.401 0.111,-0.571 0.511,-0.513 m -19.135,1.92 h 0.255 v 0.257 h -0.255 z m -1.786,0.768 c 0.025,-0.36 0.222,-0.545 0.638,-0.511 0.098,0.498 -0.422,0.713 -0.638,0.511 m 15.179,3.841 c 0.057,-0.572 1.412,-0.808 1.404,0 0.002,0.831 -1.406,0.831 -1.404,0 m 3.573,1.151 c 0.088,0.474 -0.203,0.565 -0.639,0.513 -0.092,-0.613 0.275,-0.673 0.639,-0.513 M -36.186,0.22 c -0.469,-0.044 -0.118,0.733 -0.766,0.511 -0.464,-0.416 0.529,-1.19 0.766,-0.511 m 50.771,0.766 c 0.301,0.32 0.051,0.803 -0.511,0.641 -0.095,-0.48 0.145,-0.623 0.511,-0.641 M -0.34,2.395 C -0.379,2.058 -0.165,1.976 0.17,2.012 0.161,2.355 -0.122,2.626 -0.34,2.395 m -29.723,0.768 c 0.542,0.543 0.17,1.814 -0.893,1.536 -0.568,-0.569 -0.172,-1.814 0.893,-1.536 m 14.16,4.608 c 0.169,-0.167 0.474,-0.168 0.51,0.128 -0.319,0.016 -0.399,0.245 -0.51,-0.128 m 52.174,5.76 c -1.175,-1.358 -0.794,-4.96 1.913,-5.249 4.312,-0.459 4.049,6.599 -0.256,6.016 -1.008,-0.136 -1.308,-0.363 -1.657,-0.767 m -19.9,1.663 c -0.034,-0.418 0.151,-0.616 0.51,-0.639 0.489,0.252 -0.016,1.063 -0.51,0.639 m 0.893,0.256 h 0.381 v 0.385 h -0.381 z m 22.834,0.512 c 0.023,-0.359 0.221,-0.546 0.638,-0.512 -0.006,0.176 0.059,0.281 0.126,0.385 -0.198,0.153 -0.496,0.408 -0.764,0.127 M -0.851,15.835 c 0.316,-0.02 0.53,0.064 0.638,0.255 -0.317,0.019 -0.529,-0.066 -0.638,-0.255 m 44.647,1.407 c 0.261,-0.071 0.251,-0.386 0.511,-0.129 0.034,0.375 -0.495,0.492 -0.511,0.129 m 1.659,0.384 c 0.016,1.183 -1.289,-0.126 0,0 m -61.741,0.769 c -0.028,-0.243 0.143,-0.284 0.127,-0.513 0.296,-0.04 0.49,0.02 0.638,0.129 0.031,0.429 -0.474,0.66 -0.765,0.384 m -10.46,1.918 c -0.057,0.414 -0.195,0.744 -0.766,0.641 -0.087,-0.645 0.307,-0.887 0.766,-0.641 m 77.176,1.281 h 0.638 c -0.005,0.177 0.059,0.28 0.127,0.385 -0.206,0.175 -0.314,0.452 -0.765,0.382 -0.249,-0.239 -0.039,-0.467 0,-0.767 m -61.741,2.943 c -0.329,-3.439 4.603,-3.437 4.72,-0.512 0.066,1.642 -1.644,2.582 -2.68,2.432 -1.353,-0.195 -1.95,-0.969 -2.04,-1.92 m 60.083,-1.792 c 2.058,-0.516 3.734,1.737 2.551,3.456 -0.289,0.421 -1.195,1.058 -2.424,0.897 -3.045,-0.402 -1.384,-4.037 -0.127,-4.353 m 49.878,4.481 h 0.51 c 0.111,0.411 -0.197,0.4 -0.384,0.511 -0.039,-0.174 -0.181,-0.244 -0.126,-0.511 m 0.382,1.023 c 0.543,-0.075 0.893,0.043 0.766,0.641 -0.568,0.099 -0.816,-0.12 -0.766,-0.641 M -13.99,28.89 h 0.255 v 0.256 h -0.255 z m 135.219,0.639 c 0.291,-0.036 0.479,0.031 0.509,0.256 -0.24,-0.028 -0.281,0.145 -0.509,0.128 z M 9.992,31.577 c -0.649,-0.998 1.049,-1.649 1.148,-0.512 -0.169,0.384 -0.499,0.608 -1.148,0.512 m 2.296,2.048 c -0.19,-0.793 0.59,-1.134 1.149,-0.769 0.143,0.404 0.011,0.29 0,0.769 -0.353,0.308 -0.749,0.233 -1.149,0 m 73.606,1.023 c 0.18,-0.192 0.619,-0.404 0.893,-0.127 0.297,0.852 -1.139,1.126 -0.893,0.127 m -45.032,1.025 c 0.245,-0.261 0.367,-0.445 0.766,-0.256 0.224,0.599 -0.715,0.687 -0.766,0.256 M 20.324,34.777 c -0.629,0.119 -0.865,-0.157 -1.148,-0.384 -0.158,-1.065 0.448,-1.439 1.022,-1.409 0.637,0.036 0.742,1.005 1.274,1.025 0.738,-0.1 1.116,0.161 1.531,0.384 0.166,0.372 0.166,0.909 0,1.28 -1.07,1.055 -2.103,-0.284 -2.679,-0.896 m 6.252,1.92 c -0.059,-0.4 0.272,-0.41 0.638,-0.384 0.142,0.518 -0.393,0.632 -0.638,0.384 m 23.599,-0.129 c 0.026,0.528 -0.514,1.057 -1.403,0.64 -0.623,-1.301 1.351,-1.698 1.403,-0.64 m -9.822,0.512 v 0.385 h -0.384 c -0.022,-0.279 0.105,-0.407 0.384,-0.385 m 5.868,0.128 c 0.295,-0.172 0.423,-0.514 1.02,-0.384 v 0.641 c -0.501,0.117 -0.704,0.063 -1.02,-0.257 M 2.466,36.824 c 0.518,-0.05 0.889,0.048 0.893,0.513 -0.087,0.382 -0.508,0.428 -1.021,0.384 -0.149,-0.362 -0.025,-0.544 0.128,-0.897 m 63.399,1.665 c 0.2,0.011 0.442,-0.017 0.383,0.256 h -0.255 c 0.001,-0.13 -0.103,-0.153 -0.128,-0.256 m -112.001,0 c 0.147,-0.108 0.342,-0.169 0.637,-0.129 -0.071,0.313 -0.108,0.66 -0.51,0.641 -0.04,-0.173 -0.181,-0.245 -0.127,-0.512 m 51.664,1.279 c 0.241,0.03 0.281,-0.144 0.51,-0.127 0.219,0.165 0.502,0.265 0.509,0.639 -0.179,0.332 -0.411,0.611 -1.019,0.512 -0.189,-0.186 -0.189,-0.837 0,-1.024 m -34.188,0.256 c 0.162,0.332 0.28,0.387 0.128,0.768 -0.151,0.148 -0.451,0.146 -0.765,0.129 -0.184,-0.413 -0.011,-0.964 0.637,-0.897 m 112.512,0.897 c 0.022,0.276 -0.452,0.058 -0.638,0.127 -0.188,-0.404 0.733,-0.615 0.638,-0.127 m -5.358,0.896 c 0.268,-0.096 0.498,-0.096 0.766,0 -0.017,0.41 -0.289,0.563 -0.766,0.511 z M 3.231,41.688 c -0.769,1.276 -3.463,0.506 -2.296,-1.664 1.555,-1.166 3.026,0.455 2.296,1.664 m 71.691,0.64 c -0.2,0.012 -0.099,0.326 -0.382,0.256 -0.112,-0.264 0.33,-0.574 0.382,-0.256 m 39.418,0.384 c 0.038,0.338 -0.176,0.42 -0.51,0.384 -0.039,-0.337 0.176,-0.419 0.51,-0.384 M -31.211,42.456 c 0.486,-0.302 0.958,0.048 1.275,0.513 -0.303,1.956 -2.514,0.256 -1.275,-0.513 m 19.518,1.921 c -0.049,-0.586 0.406,-0.667 0.765,-0.512 0.202,0.631 -0.44,0.8 -0.765,0.512 M 41.5,44.633 c -0.171,0.039 -0.243,0.18 -0.509,0.128 -0.096,-0.438 0.487,-0.5 0.509,-0.128 m -60.975,0 c -0.115,-0.798 0.22,-1.145 0.893,-1.153 0.315,0.152 0.473,0.464 0.382,1.024 -0.252,0.208 -0.927,0.413 -1.275,0.129 M 7.951,44.247 c 0.558,-0.329 1.478,-0.073 1.276,0.77 -0.515,0.481 -1.517,0.237 -1.276,-0.77 m 94.015,1.153 v 0.512 h -0.509 c -0.06,-0.4 0.11,-0.571 0.509,-0.512 M -6.591,45.912 c 0.039,0.509 -0.245,0.693 -0.766,0.64 -0.32,-0.455 0.274,-1.037 0.766,-0.64 m -16.584,3.199 c -0.484,-1.496 1.67,-1.734 1.404,-0.255 -0.179,0.43 -0.94,0.474 -1.404,0.255 m 122.08,-0.383 c 0.028,0.1 0.106,0.15 0.255,0.128 0.128,0.597 -0.222,0.715 -0.765,0.64 -0.052,-0.478 0.102,-0.752 0.51,-0.768 m -111.491,0.639 c 0.169,0.215 0.336,0.429 0.254,0.897 -0.985,0.893 -1.646,-0.946 -0.254,-0.897 m 108.812,1.408 c 0.212,-0.386 0.73,-0.503 0.765,0.129 -0.164,0.175 -0.762,0.223 -0.765,-0.129 M -8.76,49.879 c 0.466,-0.359 1.123,-0.508 1.531,0 0.455,1.784 -2.287,1.527 -1.531,0 m -21.176,-0.768 c 0.014,-1.146 1.274,-1.689 2.169,-1.663 2.48,0.07 2.22,4.614 -1.148,3.583 -0.22,-0.871 -1.029,-1.157 -1.021,-1.92 m 130.371,2.816 c -0.03,-0.43 0.474,-0.661 0.766,-0.383 0.174,0.574 -0.514,0.621 -0.766,0.383 m -9.057,0.257 h 0.383 c 0.023,0.279 -0.104,0.408 -0.383,0.383 z m -10.97,0.128 c 0.015,1.182 -1.29,-0.127 0,0 m -105.114,0.51 c 0.261,-0.07 0.25,-0.384 0.511,-0.126 0.096,0.437 -0.487,0.498 -0.511,0.126 m 15.819,0.513 c 0.26,-0.07 0.249,-0.385 0.51,-0.127 0.096,0.435 -0.487,0.499 -0.51,0.127 m 56.511,0 c 0.127,0.428 -0.177,0.421 -0.51,0.385 -0.039,-0.338 0.176,-0.42 0.51,-0.385 m -51.005,-0.319 0.234,-0.064 v 0.383 c 0.175,0.006 0.281,-0.06 0.383,-0.127 -0.008,-0.164 -0.164,-0.179 -0.129,-0.386 l 0.064,-0.19 0.065,-0.193 c 1.88,0.59 -0.889,2.846 -1.021,0.769 -0.007,-0.22 0.098,-0.328 0.255,-0.386 z m 95.907,1.599 c -0.091,-0.39 0.13,-0.466 0.128,-0.767 0.301,0.002 0.375,-0.222 0.765,-0.128 0.055,0.244 0.366,0.231 0.256,0.639 -0.034,0.426 -0.834,0.508 -1.149,0.256 m 6.379,0 c 0.173,-0.039 0.243,-0.181 0.511,-0.128 0.033,0.374 -0.496,0.492 -0.511,0.128 m -1.531,-0.384 c 0.187,0.112 0.405,0.193 0.383,0.513 -0.099,0.028 -0.148,0.107 -0.129,0.256 h -0.764 c -0.051,-0.479 0.102,-0.752 0.51,-0.769 m -1.658,0.128 c -0.149,0.021 -0.139,0.204 -0.129,0.385 -2.666,1.164 -0.47,-2.542 0.129,-0.385 m -108.175,0.128 c 0.549,-0.039 1.029,-0.008 1.021,0.513 -0.13,1.07 -1.676,0.52 -1.021,-0.513 m 43.117,1.025 h 0.383 c 0.022,0.279 -0.105,0.406 -0.383,0.384 z m 71.818,-0.256 c 0.466,-0.084 0.68,0.086 0.894,0.256 0.105,0.361 -0.181,0.331 -0.127,0.639 -0.717,0.589 -1.452,-0.429 -0.767,-0.895 M -21.006,55.64 c 0.17,-0.384 0.5,-0.609 1.148,-0.512 0.995,0.881 -1.185,2.022 -1.148,0.512 m 94.142,2.048 c 0.016,-0.326 0.186,-0.497 0.511,-0.512 0.03,0.182 0.21,0.216 0.255,0.383 -0.261,0.093 -0.505,0.402 -0.766,0.129 M -8.632,57.559 c -0.006,0.176 0.06,0.281 0.127,0.385 -0.243,0.055 -0.231,0.366 -0.637,0.255 -0.054,-0.437 0.038,-0.729 0.51,-0.64 m 79.09,-0.512 c 0.313,0.224 0.301,0.772 0.127,1.152 -1.313,0.654 -1.529,-1.359 -0.127,-1.152 m 25.003,1.537 c 0.141,-0.67 0.466,-1.153 1.275,-1.152 0.508,0.789 -0.553,1.597 -1.275,1.152 m -96.822,0 c -0.163,0.007 -0.177,0.162 -0.383,0.127 -0.198,-0.315 0.433,-0.376 0.383,-0.127 m 0.255,0.383 h 0.383 v 0.385 h -0.383 z m 74.242,1.024 c -0.264,-0.884 1.042,-1.03 1.022,-0.256 -0.153,0.278 -0.678,0.563 -1.022,0.256 m -50.515,0.256 c 0.017,-0.409 0.289,-0.562 0.766,-0.512 0.342,0.534 -0.43,1.017 -0.766,0.512 m -40.055,0.897 c -0.065,-0.706 0.209,-1.071 0.893,-1.025 0.124,0.131 0.252,0.259 0.382,0.384 0.096,0.698 -0.758,0.966 -1.275,0.641 m 20.538,0.127 c 0.058,0.401 -0.112,0.571 -0.51,0.512 -0.06,-0.401 0.111,-0.572 0.51,-0.512 m 11.736,0.512 c -0.059,-0.399 0.272,-0.409 0.638,-0.384 0.143,0.518 -0.393,0.632 -0.638,0.384 m 105.878,0.384 h 0.256 c 0.198,0.315 -0.433,0.376 -0.384,0.128 0.079,-0.008 0.152,-0.019 0.128,-0.128 M 12.67,61.911 c 0.242,0.029 0.282,-0.144 0.511,-0.128 0.001,0.254 0.348,0.163 0.256,0.512 -0.244,0.055 -0.321,0.275 -0.638,0.256 -0.108,-0.149 -0.168,-0.343 -0.129,-0.64 m 87.893,0.896 c 0.073,0.628 -0.461,0.645 -0.893,0.768 -0.126,-0.655 0.51,-1.027 0.893,-0.768 M -10.801,63.19 c 0.036,0.336 -0.046,0.552 -0.382,0.512 -0.231,-0.219 0.038,-0.503 0.382,-0.512 m 133.56,0.512 c -0.97,-1.349 0.822,-2.834 1.913,-1.791 0.597,1.45 -0.706,2.459 -1.913,1.791 M 69.31,64.728 c -0.148,0.106 -0.342,0.168 -0.638,0.126 -0.089,-0.691 0.631,-0.785 0.638,-0.126 M 17.774,63.959 c 0.425,-0.285 0.977,-0.285 1.402,0 0.097,1.471 -1.582,1.565 -1.402,0 m 52.046,1.279 c -0.193,-0.72 0.582,-0.953 1.02,-0.639 v 0.639 c -0.467,-0.094 -0.709,0.315 -1.02,0 M 8.079,65.367 h 0.255 v 0.256 H 8.079 Z m 99.244,1.153 c -0.042,0.102 -0.338,0.152 -0.382,0 -0.084,-0.298 0.498,-0.278 0.382,0 m 11.992,0.255 h -0.509 c -0.028,-0.419 0.598,-0.505 0.509,0 m -96.566,0 c 0.058,0.401 -0.112,0.572 -0.51,0.512 -0.06,-0.4 0.11,-0.571 0.51,-0.512 m -5.23,-0.385 c 0.325,-0.336 0.875,-0.513 1.275,-0.127 0.338,1.16 -1.588,1.457 -1.275,0.127 m 20.793,1.793 c 0.021,-0.537 0.451,-0.743 0.893,-0.512 0.198,0.659 -0.573,0.77 -0.893,0.512 m 1.402,0.895 c -0.266,-0.305 0.18,-0.671 0.511,-0.767 10e-4,0.254 0.348,0.163 0.256,0.511 -0.091,0.284 -0.6,0.425 -0.767,0.256 m 2.68,0.385 c -0.016,-0.442 0.257,-0.595 0.765,-0.513 0.203,0.633 -0.44,0.801 -0.765,0.513 m -26.916,0.128 v 0.384 h -0.383 c -0.023,-0.28 0.103,-0.408 0.383,-0.384 m 29.595,1.279 c 0.204,0.357 -0.552,0.355 -0.51,0.129 0.172,-0.041 0.243,-0.184 0.51,-0.129 m 59.062,0.512 c 0.172,-0.039 0.244,-0.182 0.511,-0.127 0.095,0.435 -0.488,0.498 -0.511,0.127 m -2.169,0.385 c -0.148,0.107 -0.341,0.169 -0.637,0.128 0.016,-0.547 0.516,-0.598 0.637,-0.128 M 23.003,71.638 c 0.202,0.191 0.143,0.572 -0.254,0.512 -0.036,-0.292 0.03,-0.481 0.254,-0.512 m 96.695,1.025 h 0.256 c 0.198,0.315 -0.434,0.376 -0.384,0.127 0.077,-0.007 0.151,-0.019 0.128,-0.127 m -8.547,0.127 h 0.255 c 0.198,0.315 -0.433,0.376 -0.383,0.128 0.079,-0.008 0.151,-0.019 0.128,-0.128 m -6.505,0.256 h 0.254 c 0,0.128 0.104,0.152 0.129,0.257 -0.165,0.007 -0.178,0.163 -0.383,0.127 z M 23.003,73.43 c 0.059,0.4 -0.272,0.409 -0.638,0.384 -0.11,-0.486 0.425,-0.601 0.638,-0.384 m 74.371,0.512 c -0.172,0.04 -0.243,0.183 -0.51,0.128 -0.096,-0.435 0.487,-0.499 0.51,-0.128 m -60.21,0 c -0.336,-1.877 2.64,-1.772 2.423,-0.128 -0.091,0.696 -1.128,0.94 -1.403,0.897 -0.776,-0.123 -0.957,-0.415 -1.02,-0.769 m 7.781,0.769 c -0.176,-0.733 0.293,-0.817 0.383,-1.281 -1.167,-0.962 0.012,-2.507 1.402,-2.431 0.456,1.11 -0.322,1.709 -0.764,2.304 0.09,0.464 0.558,0.548 0.382,1.278 -0.448,0.286 -0.902,0.498 -1.403,0.13 m 27.427,0.512 h -0.511 c -0.1,-0.494 0.611,-0.494 0.511,0 M 37.291,74.838 v 0.385 h -0.382 c -0.024,-0.28 0.104,-0.409 0.382,-0.385 m -17.093,0.513 c -0.044,0.102 -0.34,0.154 -0.384,0 -0.085,-0.298 0.499,-0.278 0.384,0 m -1.022,0 c -0.171,0.04 -0.243,0.182 -0.509,0.127 -0.034,-0.374 0.495,-0.491 0.509,-0.127 m -5.613,0 c -0.028,-0.457 0.185,-0.669 0.639,-0.64 0.449,0.439 -0.244,1.045 -0.639,0.64 m 14.544,0.382 c 0.056,-0.449 0.268,-0.542 0.637,-0.382 0.111,0.485 -0.424,0.6 -0.637,0.382 m 12.374,-1.152 c -0.225,-0.116 -0.444,-0.236 -0.383,-0.639 0.099,-0.028 0.147,-0.107 0.127,-0.256 h 0.637 c 0.144,0.404 0.013,0.29 0,0.769 l -0.233,-0.064 z m 0.19,0.193 0.191,-0.063 c 2.272,0.878 -2.05,2.184 -0.381,0 z m -16.775,1.215 c -0.198,-0.801 0.706,-0.952 1.021,-0.511 -0.108,0.475 -0.577,0.73 -1.021,0.511 m 81.515,0.129 c 0.025,-0.402 0.237,-0.615 0.638,-0.64 0.107,0.149 0.167,0.343 0.126,0.64 -0.44,-0.104 -0.538,0.238 -0.764,0 m -68.886,0 c 0.039,0.337 -0.176,0.42 -0.509,0.384 -0.098,-0.45 0.334,-0.572 0.509,-0.384 m 13.139,0.512 c -0.121,-0.582 0.537,-0.806 0.893,-0.512 v 0.512 c -0.394,-0.044 -0.609,0.297 -0.893,0 M 6.038,76.758 C 6.096,77.157 5.765,77.167 5.399,77.142 5.39,76.758 5.775,76.493 6.038,76.758 m 45.667,0.64 c -0.069,-0.679 0.517,-0.901 1.022,-0.64 v 0.64 c -0.394,-0.021 -0.722,0.302 -1.022,0 m -7.525,-0.64 c -0.015,0.606 -1.051,0.977 -1.659,0.512 -0.334,-1.81 1.684,-1.495 1.659,-0.512 m -6.889,0.256 c -0.666,-1.82 2.605,-2.642 2.678,-0.64 0.036,0.946 -1.076,1.456 -1.912,1.152 -0.408,-0.149 -0.662,-0.228 -0.766,-0.512 m 45.54,0.64 c -0.043,-0.555 0.351,-0.672 0.766,-0.768 0.113,0.227 0.357,0.325 0.255,0.768 -0.5,-0.127 -0.741,0.283 -1.021,0 m -60.592,0 c -0.11,0.19 -0.321,0.275 -0.638,0.256 -0.195,-0.665 0.619,-0.818 0.638,-0.256 m 17.093,0.896 c -0.123,-0.47 0.627,-0.509 0.637,-0.128 -0.264,0.072 -0.411,0.365 -0.637,0.128 m 15.307,-2.176 c 2.063,-0.271 0.879,3.766 -0.892,2.176 -0.05,-1.147 0.17,-2.081 0.892,-2.176 m 75.813,-14.502 0.09,-0.217 c 1.093,0.694 2.053,1.523 2.295,3.073 0.54,0.548 2.145,0.77 2.296,1.918 0.171,1.297 -1.349,2.827 -1.53,4.224 -0.451,3.454 2.796,4.718 2.041,8.064 -0.838,0.528 -2.216,0.738 -3.317,0.383 -3.754,-1.208 -0.767,-7.671 -2.551,-10.879 -0.119,-0.392 -0.673,-0.349 -0.893,-0.64 1.549,-0.535 2.586,-1.585 3.316,-2.944 -0.506,-1.071 -1.124,-2.029 -1.913,-2.815 z M 52.854,79.573 c 0.241,0.229 0.564,0.373 0.51,0.896 -1.178,1.48 -2.427,-0.758 -0.51,-0.896 M 84.362,81.75 C 84.24,81.279 84.989,81.241 85,81.622 84.775,81.734 84.627,82.027 84.362,81.75 M 55.277,81.622 h 0.383 v 0.255 h -0.383 z m -27.044,0.384 c -0.02,-0.531 0.236,-0.788 0.767,-0.769 0.001,0.255 0.347,0.162 0.255,0.513 -0.096,0.332 -0.717,0.523 -1.022,0.256 m 7.909,0.127 h 0.511 v 0.257 h -0.511 z m -18.496,0.129 c -0.051,-0.478 0.101,-0.752 0.51,-0.769 0.325,0.017 0.496,0.187 0.511,0.513 -0.097,0.332 -0.717,0.523 -1.021,0.256 m 19.645,0.128 c -0.029,-0.243 0.144,-0.284 0.127,-0.513 0.366,-0.024 0.697,-0.015 0.639,0.385 -0.17,0.181 -0.568,0.339 -0.766,0.128 m 3.19,0 c -0.248,-1.834 3.071,-1.803 2.678,0.511 -0.968,0.622 -2.516,0.701 -2.678,-0.511 m -20.667,0.639 c 0.088,0.345 -0.264,0.248 -0.383,0.385 -0.075,-0.334 0.052,-0.461 0.383,-0.385 m 79.856,0.385 c -0.172,0.04 -0.243,0.182 -0.51,0.128 -0.096,-0.438 0.487,-0.5 0.51,-0.128 m -50.388,0 c 0.022,-0.537 0.451,-0.743 0.893,-0.513 0.199,0.661 -0.572,0.77 -0.893,0.513 m 11.226,0.897 c -0.028,-0.49 0.525,-0.818 0.893,-0.513 0.111,0.571 -0.574,0.768 -0.893,0.513 m -14.032,-0.13 c -0.423,-1.851 2.523,-2.067 2.168,-0.126 -0.465,0.565 -1.714,0.915 -2.168,0.126 m 53.832,0.385 c -0.005,0.175 0.06,0.281 0.127,0.383 -0.227,0.114 -0.324,0.357 -0.765,0.257 -0.09,-0.518 0.122,-0.731 0.638,-0.64 m -13.65,-0.641 c 0.532,-0.043 1.018,0.159 0.893,1.152 -1.445,1.332 -2.223,-1.044 -0.893,-1.152 m -32.274,0.641 c 0.055,0.244 0.275,0.321 0.255,0.64 -0.28,0.187 -0.547,0.388 -1.02,0.383 -0.427,-0.443 -0.099,-1.173 0.765,-1.023 m 28.065,1.791 c 0.429,-0.387 0.387,0.474 0,0 m -42.48,-0.383 c 0.022,0.807 -0.89,1.157 -1.53,0.895 -1.989,-0.811 1.475,-3.054 1.53,-0.895 m -24.747,2.687 c -0.193,-0.723 0.583,-0.953 1.021,-0.64 -0.006,0.175 0.06,0.282 0.128,0.384 -0.23,0.432 -0.737,0.654 -1.149,0.256 m 17.477,0.127 c 1.07,1.207 -1.894,1.309 -0.765,0 z M 9.227,90.837 c 0.111,0.41 -0.197,0.4 -0.384,0.513 -0.187,-0.178 -0.065,-0.61 0.384,-0.513 m 15.817,0.128 c 0.452,-0.069 0.56,0.207 0.766,0.385 -0.111,1.257 -1.891,0.245 -0.766,-0.385 m 1.404,0.895 c -0.036,-0.634 0.26,-0.932 0.892,-0.895 0.125,0.132 0.253,0.259 0.384,0.385 -0.046,0.671 -0.814,0.962 -1.276,0.51 m -12.629,1.793 c -0.083,-0.467 0.086,-0.682 0.255,-0.897 0.339,0.003 0.729,-0.048 0.893,0.129 v 0.768 c -0.397,0.002 -0.832,0.303 -1.148,0 m 28.065,0.64 c 0.162,-0.008 0.176,-0.165 0.382,-0.128 0.006,0.22 -0.098,0.328 -0.255,0.384 0,-0.129 -0.103,-0.153 -0.127,-0.256 m 13.266,1.536 h 0.256 c 0.198,0.315 -0.434,0.377 -0.384,0.127 0.078,-0.006 0.151,-0.018 0.128,-0.127 m 38.525,2.815 c -0.013,-0.502 0.764,-0.455 0.637,0.128 -0.295,0.041 -0.49,-0.019 -0.637,-0.128 m -65.313,1.024 c 0.172,-0.04 0.243,-0.182 0.51,-0.128 0.096,0.437 -0.488,0.5 -0.51,0.128 m 64.93,0.896 c 0.039,0.338 -0.177,0.421 -0.51,0.383 -0.039,-0.337 0.176,-0.419 0.51,-0.383 m -24.365,0.383 c -0.141,-0.498 0.76,-0.511 0.765,-0.126 -0.198,0.154 -0.497,0.408 -0.765,0.126 m -51.281,0.513 c -0.163,0.007 -0.176,0.164 -0.382,0.128 -0.198,-0.314 0.432,-0.376 0.382,-0.128 m 91.208,2.049 c 0.43,-0.39 0.388,0.472 0,0 m -37.248,0.383 c -0.292,-0.277 -0.796,-0.045 -0.766,0.384 0.252,0.238 0.94,0.191 0.766,-0.384"
             style="fill:#262626;fill-opacity:1;fill-rule:evenodd;stroke:none"
             id="path46"
             inkscape:connector-curvature="0" />
        </g>
      </g>
    </g>
  </g>
</svg>
