<?xml version="1.0" encoding="UTF-8" standalone="no"?>
<!-- Created with Inkscape (http://www.inkscape.org/) -->

<svg
   xmlns:dc="http://purl.org/dc/elements/1.1/"
   xmlns:cc="http://creativecommons.org/ns#"
   xmlns:rdf="http://www.w3.org/1999/02/22-rdf-syntax-ns#"
   xmlns:svg="http://www.w3.org/2000/svg"
   xmlns="http://www.w3.org/2000/svg"
   xmlns:sodipodi="http://sodipodi.sourceforge.net/DTD/sodipodi-0.dtd"
   xmlns:inkscape="http://www.inkscape.org/namespaces/inkscape"
   width="45.117607mm"
   height="64.793259mm"
   viewBox="0 0 45.117607 64.793259"
   version="1.1"
   id="svg3992"
   inkscape:version="0.92.2 2405546, 2018-03-11"
   sodipodi:docname="paint03.svg">
  <defs
     id="defs3986">
    <clipPath
       clipPathUnits="userSpaceOnUse"
       id="clipPath114">
      <path
         d="M 0,600 H 600 V 0 H 0 Z"
         id="path112"
         inkscape:connector-curvature="0" />
    </clipPath>
  </defs>
  <sodipodi:namedview
     id="base"
     pagecolor="#ffffff"
     bordercolor="#666666"
     borderopacity="1.0"
     inkscape:pageopacity="0.0"
     inkscape:pageshadow="2"
     inkscape:zoom="0.35"
     inkscape:cx="8.5714351"
     inkscape:cy="560.00002"
     inkscape:document-units="mm"
     inkscape:current-layer="layer1"
     showgrid="false"
     fit-margin-top="0"
     fit-margin-left="0"
     fit-margin-right="0"
     fit-margin-bottom="0"
     inkscape:window-width="3840"
     inkscape:window-height="2095"
     inkscape:window-x="0"
     inkscape:window-y="0"
     inkscape:window-maximized="1" />
  <metadata
     id="metadata3989">
    <rdf:RDF>
      <cc:Work
         rdf:about="">
        <dc:format>image/svg+xml</dc:format>
        <dc:type
           rdf:resource="http://purl.org/dc/dcmitype/StillImage" />
        <dc:title></dc:title>
      </cc:Work>
    </rdf:RDF>
  </metadata>
  <g
     inkscape:label="Layer 1"
     inkscape:groupmode="layer"
     id="layer1"
     transform="translate(1.7220122e-6,-232.20674)">
    <g
       transform="matrix(0.35277777,0,0,-0.35277777,-129.5079,440.34517)"
       id="g108">
      <g
         id="g110"
         clip-path="url(#clipPath114)">
        <g
           id="g116"
           transform="translate(480.7607,467.4307)">
          <path
             d="m 0,0 c -0.111,-0.046 -0.166,-0.175 -0.119,-0.288 0.102,-0.246 0.289,-0.436 0.572,-0.579 0.108,-0.056 0.24,-0.012 0.295,0.096 0.057,0.109 0.013,0.241 -0.097,0.296 C 0.465,-0.379 0.35,-0.267 0.289,-0.12 0.242,-0.007 0.113,0.046 0,0 m -22.326,42.807 c -0.09,-0.073 -0.106,-0.206 -0.033,-0.297 l 5.755,-7.266 c 5.197,-6.614 10.572,-13.451 16.483,-19.752 0.08,-0.085 0.214,-0.089 0.297,-0.01 0.085,0.081 0.091,0.213 0.011,0.298 -5.9,6.287 -11.268,13.118 -16.459,19.723 l -5.759,7.271 c -0.072,0.091 -0.204,0.105 -0.295,0.033 m -12.429,8.233 c -2.573,-4.6 -2.737,-11.016 -0.492,-19.069 0.043,-0.153 0.2,-0.242 0.352,-0.2 0.154,0.043 0.243,0.201 0.201,0.354 -2.203,7.902 -2.056,14.172 0.442,18.634 0.077,0.138 0.026,0.313 -0.111,0.39 -0.139,0.078 -0.312,0.029 -0.392,-0.109 M -67.508,15.491 c -0.148,-0.072 -0.212,-0.251 -0.139,-0.4 0.823,-1.714 2.986,-3.092 5.047,-2.332 0.155,0.057 0.234,0.229 0.176,0.385 -0.056,0.154 -0.228,0.234 -0.383,0.176 -1.745,-0.643 -3.59,0.553 -4.3,2.031 -0.073,0.149 -0.251,0.212 -0.401,0.14 m 11.846,31.388 c -0.276,-0.012 -0.488,-0.246 -0.477,-0.52 0.051,-1.107 0.357,-2.134 0.652,-3.129 l 0.499,-1.925 c 0.069,-0.266 0.348,-0.46 0.615,-0.391 0.267,0.068 0.434,0.306 0.364,0.572 l -0.523,2.028 c -0.292,0.979 -0.566,1.905 -0.612,2.89 -0.01,0.275 -0.245,0.487 -0.518,0.475 m -33.454,0.256 c -0.244,-0.073 -0.382,-0.334 -0.308,-0.579 l 0.096,-0.316 0.344,-0.992 c 0.083,-0.241 0.327,-0.32 0.567,-0.237 0.241,0.082 0.351,0.393 0.268,0.634 l -0.293,0.859 -0.098,0.326 c -0.074,0.244 -0.331,0.379 -0.576,0.305 m 19.379,-25.014 c -0.148,-0.074 -0.312,-0.04 -0.386,0.108 l 0.285,-0.57 c 0.074,-0.147 0.265,-0.235 0.412,-0.162 0.148,0.074 0.22,0.226 0.146,0.373 l -0.339,0.677 c 0.074,-0.147 0.029,-0.352 -0.118,-0.426 M -71.044,7.628 c -0.281,-0.075 -0.447,-0.362 -0.374,-0.644 0.23,-0.867 0.342,-1.742 0.459,-2.668 l 0.047,-0.381 c 0.038,-0.287 0.3,-0.491 0.589,-0.453 0.288,0.036 0.491,0.3 0.455,0.589 l -0.048,0.377 c -0.116,0.92 -0.237,1.871 -0.484,2.806 -0.075,0.281 -0.363,0.448 -0.644,0.374 m 23.273,-11.37 -0.921,-0.891 c -0.805,-0.808 -1.639,-1.642 -2.582,-2.019 -0.138,-0.056 -0.206,-0.212 -0.152,-0.351 0.057,-0.139 0.213,-0.206 0.352,-0.151 1.048,0.418 1.921,1.293 2.763,2.14 l 0.901,0.871 c 0.107,0.104 0.117,0.281 0.014,0.388 -0.105,0.107 -0.269,0.117 -0.375,0.013 m -10.82,0.143 c -0.103,-0.051 -0.158,-0.15 -0.106,-0.254 l 0.489,-0.984 c -0.051,0.105 -0.021,0.251 0.084,0.304 0.104,0.052 0.22,0.03 0.271,-0.074 l -0.443,0.885 c -0.053,0.104 -0.191,0.176 -0.295,0.123 m 5.314,-0.515 c -0.078,-0.042 -0.107,-0.14 -0.063,-0.219 0.523,-0.95 1.213,-1.853 2.052,-2.685 0.063,-0.062 0.165,-0.061 0.228,10e-4 0.063,0.064 0.063,0.165 -0.002,0.229 -0.817,0.809 -1.489,1.688 -1.997,2.611 -0.043,0.077 -0.14,0.107 -0.218,0.063 m 1.881,-2.721 c -0.222,-0.736 -0.695,-1.394 -1.488,-2.074 -0.095,-0.083 -0.107,-0.23 -0.024,-0.326 0.084,-0.097 0.23,-0.108 0.327,-0.025 0.86,0.739 1.378,1.468 1.627,2.29 0.038,0.121 -0.031,0.251 -0.152,0.287 -0.123,0.038 -0.251,-0.03 -0.29,-0.152 m 5.875,2.648 c -0.124,-0.062 -0.172,-0.212 -0.113,-0.334 5.281,-10.57 10.681,-22.693 16.508,-37.063 0.053,-0.129 0.198,-0.191 0.324,-0.138 0.129,0.052 0.191,0.197 0.138,0.325 -5.832,14.383 -11.235,26.518 -16.522,37.098 -0.062,0.124 -0.211,0.174 -0.335,0.112 m -18.526,-5.555 c -0.097,-0.226 0.009,-0.488 0.235,-0.583 0.248,-0.104 0.486,-0.316 0.738,-0.539 l 0.794,-0.591 c 0.196,-0.147 0.404,-0.064 0.552,0.131 0.147,0.195 0.04,0.514 -0.154,0.664 l -0.602,0.461 c -0.282,0.25 -0.6,0.532 -0.982,0.693 -0.225,0.095 -0.487,-0.01 -0.581,-0.236 m -36.07,84.897 c -0.231,-0.127 -0.326,-0.393 -0.201,-0.624 l 0.408,-0.744 0.129,-0.221 c 0.131,-0.228 0.423,-0.307 0.651,-0.175 0.227,0.131 0.306,0.421 0.173,0.648 l -0.13,0.228 -0.372,0.676 c -0.126,0.231 -0.428,0.338 -0.658,0.212 m 21.186,-48.777 c -0.137,-0.013 -0.239,-0.136 -0.227,-0.274 0.741,-7.971 3.229,-16.086 7.196,-23.466 0.066,-0.124 0.219,-0.169 0.342,-0.103 0.122,0.066 0.168,0.219 0.101,0.341 -3.934,7.321 -6.402,15.37 -7.137,23.274 -0.013,0.138 -0.136,0.241 -0.275,0.228 M -72.058,1.274 C -72.569,0.7 -73.416,0.695 -74.236,0.689 -74.471,0.688 -74.66,0.496 -74.659,0.262 c 0.001,-0.236 0.194,-0.426 0.428,-0.423 0.912,0.006 2.046,0.012 2.809,0.869 0.157,0.176 0.141,0.445 -0.035,0.601 -0.175,0.156 -0.444,0.14 -0.601,-0.035 m -4.472,-1.668 c -4.456,-1.862 -8.744,-4.319 -12.89,-6.693 l -0.853,-0.489 c -0.146,-0.083 -0.195,-0.267 -0.112,-0.412 0.081,-0.143 0.266,-0.194 0.409,-0.112 l 0.854,0.49 c 4.131,2.366 8.401,4.812 12.823,6.662 0.154,0.064 0.227,0.24 0.163,0.393 -0.064,0.153 -0.241,0.225 -0.394,0.161 m 7.137,-0.266 c -0.177,-0.079 -0.253,-0.301 -0.17,-0.479 l 0.451,-1.01 c 0.439,-1.036 0.895,-2.108 1.825,-2.85 0.153,-0.121 0.376,-0.097 0.499,0.057 0.12,0.152 0.096,0.375 -0.057,0.497 -0.791,0.631 -1.191,1.574 -1.616,2.573 l -0.469,1.046 c -0.08,0.179 -0.283,0.247 -0.463,0.166 m 4.719,-10.028 c -0.147,-0.056 -0.219,-0.228 -0.162,-0.375 l 0.304,-0.799 c 0.42,-1.143 0.894,-2.44 1.997,-3.077 0.136,-0.08 0.311,-0.033 0.39,0.103 0.079,0.136 0.032,0.31 -0.105,0.389 -0.923,0.535 -1.341,1.677 -1.746,2.781 l -0.314,0.82 c -0.056,0.148 -0.217,0.214 -0.364,0.158 m 10.483,-9.724 c -0.25,-0.153 -0.33,-0.479 -0.176,-0.728 5.805,-9.479 11.709,-18.551 20.058,-25.373 0.227,-0.185 0.561,-0.151 0.746,0.075 0.185,0.227 0.151,0.561 -0.076,0.746 -8.22,6.715 -14.069,15.708 -19.826,25.105 -0.153,0.25 -0.478,0.327 -0.726,0.175 m 33.699,-33.394 c -0.083,-0.266 0.152,-0.567 0.417,-0.651 l 0.71,-0.226 0.447,-0.17 c 0.261,-0.099 0.52,0.041 0.621,0.303 0.101,0.259 -0.058,0.562 -0.319,0.66 l -0.363,0.14 -0.973,0.296 c -0.267,0.08 -0.457,-0.087 -0.54,-0.352 m -49.888,79.31 v -0.623 c 0,-0.11 0.089,-0.197 0.197,-0.197 0.11,0 0.198,0.087 0.198,0.197 v 0.623 c 0,0.108 -0.088,0.197 -0.198,0.197 -0.108,0 -0.197,-0.089 -0.197,-0.197 M -59.743,9.768 c -0.173,0.555 -0.16,1.294 -0.623,1.558 -0.031,-0.587 0.38,-2.272 0.623,-1.558 m 27.108,17.761 c 0.85,-3.013 -0.012,1.047 0,0 M 0.032,15.636 -0.227,15.376 C 0.127,14.692 0.815,14.342 1.02,13.507 -2.363,6.746 3.963,0.874 9.744,1.354 16.611,1.925 14.619,9.229 10.367,11.637 8.065,12.942 4.899,12.832 2.889,13.819 1.813,14.347 1.412,15.632 0.085,16 Z m -99.349,58.945 c 0.206,2.444 -2.359,3.588 -4.051,3.116 -0.07,-2.251 1.437,-2.924 3.116,-3.427 l 0.363,0.467 z m 9.348,-81.952 c -1.738,-0.442 -3.954,-0.407 -3.739,-2.804 2.377,-0.301 3.469,0.686 4.051,2.181 l -0.467,0.156 z m 15.893,8.102 c -0.686,0.354 -1.037,1.042 -1.871,1.247 -0.393,-0.749 -0.401,-1.885 -0.935,-2.493 l 0.468,-0.156 -0.156,-0.467 c 0.868,0.274 1.897,0.389 2.494,0.934 l -0.157,0.468 z m -2.183,48.611 c 3.04,-0.996 1.326,-6.481 -1.869,-5.921 -0.811,2.229 0.095,5.257 1.869,5.921 m -12.723,-2.649 0.572,-0.156 c 0.306,2.121 -0.807,4.455 0,6.544 0.706,1.834 3.266,2.53 4.673,4.051 2.545,2.749 3.566,9.326 -1.869,10.594 -4.67,1.089 -5.903,-3.162 -9.972,-0.623 -0.63,2.404 1.055,3.401 2.805,4.363 2.286,1.256 5.504,2.877 8.413,2.18 1.397,-0.334 1.721,-1.809 3.116,-2.803 1.028,-0.735 2.483,-0.718 3.116,-1.559 1.89,-2.514 0.792,-9.823 0.312,-14.957 -0.256,-2.737 -0.688,-5.497 -1.87,-6.855 -0.809,-0.644 -2.975,0.067 -3.428,-0.935 -0.28,-1.422 0.519,-1.766 0.624,-2.805 1.468,-0.515 1.954,1.554 2.804,0.624 -1.199,-5.155 -7.195,-2.32 -11.53,-1.558 -6.498,1.141 -15.072,0.563 -17.138,3.739 -3.76,5.78 6.965,7.122 9.66,8.725 1.754,1.044 2.384,2.493 4.051,2.493 2.621,0 3.103,-2.622 4.363,-4.051 -0.907,-2.584 -1.567,-6.174 0.934,-7.479 z m 24.877,-57.803 c 0.036,0.38 0.092,0.738 0.623,0.623 l -0.156,0.571 0.467,0.364 c -1.537,1.692 -3.057,6.572 -0.311,8.102 2.635,0.247 3.579,-1.198 4.674,-2.493 l 0.312,0.156 0.311,-0.156 c -0.013,0.429 0.147,0.685 0.312,0.936 2.134,0.056 3.902,-0.252 4.674,-1.559 v 0.312 h 0.311 c 0.725,1.472 3.526,1.951 4.986,0.934 v -0.623 h 0.311 v -0.311 c 0.421,0.098 0.595,0.443 1.248,0.311 0.001,-0.411 0.545,-0.284 0.621,-0.623 l 0.314,0.156 0.311,-0.156 c 1.797,2.374 2.885,5.059 2.804,7.79 -0.108,3.651 -2.725,7.263 -4.363,11.529 -1.205,3.14 -3.746,9.76 -3.427,12.776 0.261,2.466 2.143,4.285 1.869,6.232 -0.527,3.751 -5.682,4.479 -5.92,8.102 l -0.364,-0.467 -0.571,0.155 v -1.246 c -1.426,-1.518 -3.996,-3.804 -6.232,-2.493 -1.496,0.877 -2.108,5.001 -0.935,6.855 1.157,1.831 3.548,1.783 5.921,1.87 0.069,-0.242 0.007,-0.614 0.311,-0.623 l 0.363,0.467 0.572,-0.156 c 1.561,3.322 7.159,2.605 8.726,5.921 -1.846,0.819 -3.159,3.417 -5.609,4.051 -1.699,0.438 -4.052,-0.89 -5.298,0.935 -0.567,3.06 0.36,6.671 0.623,10.594 0.14,2.084 -0.378,4.543 0,6.544 0.732,3.885 6.702,4.505 6.232,9.036 -0.263,2.537 -4.548,3.252 -7.167,2.181 -2.947,-1.204 -2.896,-6.47 -5.92,-7.166 -4.59,2.749 0.479,7.4 2.804,10.906 2.005,3.024 4.098,6.324 4.674,8.725 1.693,7.056 -2.762,9.637 -9.036,9.036 -2.772,-0.265 -3.034,-1.203 -4.675,-2.492 -3.079,-2.42 -5.358,-4.904 -5.92,-9.037 -0.21,-1.541 0.43,-3.495 -0.312,-5.609 -0.927,-2.645 -4.827,-5.079 -7.79,-7.167 -3.089,-2.178 -7.075,-3.141 -9.971,-4.986 -1.918,-1.22 -3.115,-3.682 -5.298,-3.427 l -0.362,-0.467 -0.572,0.155 c 0.358,-10.47 -13.534,-6.901 -13.711,-15.892 -0.036,-1.839 1.35,-3.886 1.557,-6.232 0.149,-1.67 -0.715,-3.541 0,-5.297 1.22,-2.988 8.525,-4.122 12.154,-4.674 4.36,-0.663 15.801,-0.29 13.087,-6.544 -1.017,-1.371 -3.64,-1.138 -4.363,-2.804 -0.145,-2.119 1.192,-2.756 2.493,-3.428 1.774,8.082 9.629,2.601 9.66,-3.428 l 0.156,0.468 0.156,-0.468 c 0.462,0.059 0.285,0.754 0.312,1.247 1.972,-0.103 2.388,-1.766 4.674,-1.558 1.082,0.268 1.082,1.619 1.869,2.181 2.527,0.779 2.398,3.964 5.298,3.74 2.405,-0.187 3.403,-2.904 2.804,-5.298 -0.491,-1.96 -4.658,-3.315 -5.609,-3.74 l -0.156,-0.466 -0.467,0.155 c -1.607,-3.773 -2.713,-10.375 -1.246,-15.268 l 0.363,0.467 0.571,-0.156 c 0.289,3.035 -0.761,7.409 0.935,9.037 1.094,0.055 1.025,-1.052 1.87,-1.247 l 0.155,0.468 0.468,-0.156 c -0.024,0.542 0.069,0.969 0.312,1.247 1.939,0.913 3.988,-0.516 3.427,-3.116 l 0.468,-0.156 -0.156,-0.468 h 1.87 c 1.229,2.152 2.621,2.64 2.804,5.609 0.159,2.596 -1.836,5.279 -1.558,7.167 0.456,3.106 4.324,3.089 7.479,1.558 0.761,-5.159 2.22,-9.619 2.181,-15.58 -1.656,-2.395 -4.047,-4.055 -8.413,-3.74 -0.279,0.553 -1.266,0.398 -0.935,1.559 -0.423,-0.617 -0.629,-1.451 -1.558,-1.559 -3.173,-0.16 -4.929,5.612 -7.79,1.87 0.051,-2.582 3.062,-5.261 0.623,-7.478 -1.636,-0.182 -1.291,1.617 -1.87,2.492 l -0.363,-0.467 -0.572,0.156 C -71.293,3.868 -71.058,3.01 -71.896,3.224 l 0.156,-0.467 -0.467,0.156 V 1.354 l 0.467,-0.363 -0.156,-0.572 c 1.307,-0.147 1.702,-1.206 2.493,-1.869 l 0.156,0.468 0.468,-0.156 c 0.278,0.655 0.484,1.385 0.934,1.869 2.012,-0.169 1.502,-2.86 1.559,-4.985 h -0.935 l 0.155,-0.468 -0.467,-0.155 c 0.617,-2.499 1.617,-4.616 2.804,-6.545 l 0.156,0.468 z m 10.595,-9.348 c -0.016,1.054 0.725,1.352 1.246,1.87 -3.908,1.388 -4.932,5.662 -7.479,8.413 -1.155,0.221 -1.338,-0.533 -2.493,-0.312 l 0.156,-0.571 -0.468,-0.364 c 0.032,-1.012 1.097,-1.928 0.312,-2.804 h -0.312 l 0.156,-0.467 -0.467,-0.156 c 2.019,-2.556 3.662,-8.684 8.102,-5.921 0.065,-0.349 0.345,-0.485 0.623,-0.623 l 0.218,0.53 z m 34.275,-34.276 c 2.237,-2.45 5.277,-7.213 10.595,-6.233 2.921,0.539 3.658,3.898 1.558,5.921 -2.381,2.292 -7.934,1.31 -11.842,1.246 l 0.157,-0.571 z m -9.66,13.243 -0.311,0.155 c -0.152,-0.983 0.561,-1.1 0.311,-2.181 -1.163,-1.121 -2.47,-2.099 -4.674,-2.181 l -0.404,-0.406 -0.531,-0.217 c 1.468,-4.64 3.137,-10.518 8.413,-10.595 2.585,-0.037 3.621,1.776 6.233,2.493 l -0.155,0.467 0.155,0.468 c -1.384,1.638 -1.378,3.715 -2.493,5.297 -1.281,1.82 -3.686,2.691 -4.986,4.674 -0.435,0.668 -0.375,1.602 -1.246,2.181 z m -47.052,29.134 h 0.624 c 0.016,0.399 0.399,0.433 0.311,0.935 h -0.935 z m -8.413,0.935 c 0.642,0.189 2.166,-0.502 1.87,0.624 -0.826,-0.005 -1.835,0.173 -1.87,-0.624 m -13.399,21.19 h 0.623 v 0.623 h -0.623 z M -85.606,16 c 0.107,-1.101 0.817,-0.806 1.557,-0.624 -0.107,1.101 -0.817,0.806 -1.557,0.624 m 57.646,-0.935 c 0.991,0.255 2.294,0.199 3.115,0.623 -0.398,1.159 -1.655,1.459 -2.492,2.182 0.28,-1.423 -0.518,-1.766 -0.623,-2.805 m -75.408,90.989 h -1.559 c -0.097,-1.461 1.443,-0.834 1.559,0 m 51.104,16.514 c 0.249,-0.164 0.505,-0.325 0.934,-0.311 -0.281,-0.543 -0.697,-1.2 -1.246,-0.623 -0.088,0.503 0.295,0.536 0.312,0.934"
             style="fill:#262626;fill-opacity:1;fill-rule:nonzero;stroke:none"
             id="path118"
             inkscape:connector-curvature="0" />
        </g>
      </g>
    </g>
  </g>
</svg>
