<?xml version="1.0" encoding="UTF-8" standalone="no"?>
<!-- Created with Inkscape (http://www.inkscape.org/) -->

<svg
   xmlns:dc="http://purl.org/dc/elements/1.1/"
   xmlns:cc="http://creativecommons.org/ns#"
   xmlns:rdf="http://www.w3.org/1999/02/22-rdf-syntax-ns#"
   xmlns:svg="http://www.w3.org/2000/svg"
   xmlns="http://www.w3.org/2000/svg"
   xmlns:sodipodi="http://sodipodi.sourceforge.net/DTD/sodipodi-0.dtd"
   xmlns:inkscape="http://www.inkscape.org/namespaces/inkscape"
   width="64.793564mm"
   height="38.124187mm"
   viewBox="0 0 64.793564 38.124187"
   version="1.1"
   id="svg4227"
   inkscape:version="0.92.2 2405546, 2018-03-11"
   sodipodi:docname="paint-big06.svg">
  <defs
     id="defs4221">
    <clipPath
       clipPathUnits="userSpaceOnUse"
       id="clipPath90">
      <path
         d="M 0,600 H 600 V 0 H 0 Z"
         id="path88"
         inkscape:connector-curvature="0" />
    </clipPath>
  </defs>
  <sodipodi:namedview
     id="base"
     pagecolor="#ffffff"
     bordercolor="#666666"
     borderopacity="1.0"
     inkscape:pageopacity="0.0"
     inkscape:pageshadow="2"
     inkscape:zoom="0.35"
     inkscape:cx="8.5714266"
     inkscape:cy="560.00002"
     inkscape:document-units="mm"
     inkscape:current-layer="layer1"
     showgrid="false"
     inkscape:window-width="3840"
     inkscape:window-height="2095"
     inkscape:window-x="0"
     inkscape:window-y="0"
     inkscape:window-maximized="1" />
  <metadata
     id="metadata4224">
    <rdf:RDF>
      <cc:Work
         rdf:about="">
        <dc:format>image/svg+xml</dc:format>
        <dc:type
           rdf:resource="http://purl.org/dc/dcmitype/StillImage" />
        <dc:title></dc:title>
      </cc:Work>
    </rdf:RDF>
  </metadata>
  <g
     inkscape:label="Layer 1"
     inkscape:groupmode="layer"
     id="layer1"
     transform="translate(-5.3308503e-7,-258.87582)">
    <g
       transform="matrix(0.35277777,0,0,-0.35277777,-143.34532,413.55972)"
       id="g84">
      <g
         id="g86"
         clip-path="url(#clipPath90)">
        <g
           id="g92"
           transform="translate(443.749,355.9365)">
          <path
             d="m 0,0 c -0.064,-0.004 -0.113,-0.059 -0.11,-0.123 0.004,-0.064 0.058,-0.113 0.123,-0.109 0.244,0.011 0.465,-0.095 0.698,-0.209 0.274,-0.132 0.559,-0.27 0.906,-0.228 0.063,0.007 0.109,0.066 0.101,0.13 C 1.71,-0.476 1.652,-0.43 1.589,-0.438 1.31,-0.472 1.067,-0.355 0.813,-0.231 0.562,-0.11 0.305,0.016 0,0 m -6.591,2.414 c -0.03,-0.037 -0.025,-0.091 0.01,-0.12 0.167,-0.139 0.426,-0.162 0.634,-0.166 0.048,-0.001 0.086,0.037 0.087,0.084 0.001,0.048 -0.037,0.085 -0.083,0.086 -0.166,0.004 -0.402,0.02 -0.528,0.127 -0.036,0.03 -0.09,0.025 -0.12,-0.011 M -9.152,3.479 C -9.208,3.472 -9.246,3.42 -9.239,3.364 -9.231,3.309 -9.18,3.271 -9.125,3.279 c 0.156,0.022 0.296,-0.054 0.443,-0.135 0.164,-0.088 0.349,-0.19 0.574,-0.157 0.054,0.009 0.092,0.06 0.085,0.116 C -8.03,3.158 -8.082,3.197 -8.138,3.188 -8.297,3.164 -8.437,3.24 -8.586,3.321 -8.748,3.41 -8.931,3.51 -9.152,3.479 m -7.672,3.868 c -0.084,-0.092 -0.077,-0.235 0.014,-0.319 0.649,-0.596 1.416,-1.074 2.22,-1.384 0.115,-0.046 0.246,0.011 0.29,0.13 0.045,0.117 -0.012,0.247 -0.129,0.291 -0.752,0.289 -1.469,0.737 -2.077,1.296 -0.092,0.084 -0.234,0.077 -0.318,-0.014 m 99.918,24.111 c -0.074,-0.022 -0.068,-0.077 -0.048,-0.153 0.02,-0.075 0.146,-0.097 0.222,-0.079 l 0.156,0.035 c -0.075,-0.017 -0.132,0.032 -0.153,0.108 -0.02,0.076 0.041,0.157 0.116,0.18 z M 60.085,48.321 c -0.042,-0.02 -0.084,-0.081 -0.062,-0.123 0.022,-0.043 0.05,-0.069 0.092,-0.047 l 0.324,0.159 c -0.042,-0.022 -0.103,-0.009 -0.126,0.033 -0.02,0.043 -0.013,0.09 0.029,0.111 z m 22.642,6.847 -0.343,-0.11 -0.105,-0.039 c -0.046,-0.017 -0.069,-0.067 -0.051,-0.114 0.015,-0.045 0.065,-0.069 0.112,-0.052 l 0.106,0.04 0.319,0.102 c 0.046,0.016 0.079,0.068 0.063,0.114 -0.014,0.045 -0.057,0.074 -0.101,0.059 m -86.428,1.106 c -0.016,-0.044 0.009,-0.092 0.053,-0.106 l 0.349,-0.119 0.523,-0.173 c 0.044,-0.015 0.088,0.01 0.103,0.053 0.014,0.044 -0.011,0.092 -0.055,0.106 l -0.516,0.172 -0.354,0.119 c -0.043,0.014 -0.09,-0.009 -0.103,-0.052 m -2.834,7.494 c -0.013,-0.045 0.018,-0.093 0.065,-0.104 l 0.354,-0.091 0.599,-0.129 c 0.046,-0.01 0.08,0.021 0.09,0.067 0.01,0.046 -0.03,0.093 -0.076,0.103 l -0.566,0.123 -0.368,0.094 c -0.045,0.012 -0.087,-0.017 -0.098,-0.063 m -3.007,0.64 c -0.003,-0.062 0.065,-0.116 0.128,-0.118 l 0.645,-0.03 0.501,-0.044 c 0.063,-0.005 0.107,0.042 0.113,0.104 0.006,0.063 -0.051,0.118 -0.114,0.123 l -0.469,0.041 -0.704,0.033 c -0.063,0.001 -0.097,-0.046 -0.1,-0.109 m -1.065,0.265 -0.826,-0.056 c -1.034,-0.035 -2.205,-0.076 -2.536,-1.309 l -0.01,-0.042 0.016,-0.039 c 1.169,-2.816 4.003,-4.11 6.744,-5.361 l 2.375,-1.148 c 0.063,-0.03 0.144,-0.006 0.174,0.056 0.009,0.019 0.014,0.039 0.014,0.059 0,0.045 -0.024,0.087 -0.069,0.107 l -2.39,1.156 c -2.679,1.224 -5.447,2.491 -6.591,5.18 0.3,1.01 1.304,1.055 2.283,1.089 l 0.851,0.058 c 0.065,0.004 0.108,0.059 0.108,0.123 v 0.011 c -0.006,0.069 -0.075,0.122 -0.143,0.116 M 58.458,17.478 c -0.038,-0.106 0.017,-0.223 0.122,-0.26 0.355,-0.128 0.66,-0.343 0.984,-0.571 l 0.867,-0.532 c 0.094,-0.059 0.199,-0.018 0.257,0.077 0.058,0.096 0.007,0.235 -0.088,0.292 l -0.802,0.496 c -0.332,0.234 -0.676,0.475 -1.08,0.62 -0.106,0.038 -0.221,-0.016 -0.26,-0.122 m 5.166,6.309 c -0.051,-0.018 -0.076,-0.075 -0.058,-0.124 0.539,-1.485 1.354,-2.746 2.42,-3.752 0.039,-0.037 0.1,-0.035 0.136,0.005 0.037,0.039 0.035,0.099 -0.004,0.137 -1.044,0.984 -1.842,2.22 -2.37,3.676 -0.019,0.05 -0.073,0.076 -0.124,0.058 m -14.579,-4.66 c -0.09,-0.094 -0.088,-0.244 0.005,-0.334 1.964,-1.908 4.612,-3.305 7.658,-4.041 0.126,-0.03 0.252,0.048 0.283,0.174 0.03,0.127 -0.048,0.254 -0.174,0.284 -2.963,0.717 -5.537,2.073 -7.439,3.923 -0.094,0.09 -0.243,0.088 -0.333,-0.006 m 13.938,8.306 -0.103,-0.635 -0.09,-0.524 c -0.02,-0.118 0.06,-0.222 0.178,-0.243 0.117,-0.02 0.229,0.067 0.25,0.183 l 0.086,0.504 0.108,0.668 c 0.019,0.118 -0.062,0.219 -0.181,0.237 -0.117,0.02 -0.228,-0.073 -0.248,-0.19 m -1.706,-1.268 c -0.035,-0.073 -0.003,-0.163 0.07,-0.199 l 0.257,-0.13 0.326,-0.161 c 0.072,-0.036 0.153,-0.004 0.188,0.069 0.035,0.072 0,0.162 -0.072,0.198 l -0.306,0.151 -0.272,0.138 c -0.072,0.037 -0.155,0.005 -0.191,-0.066 m 11.831,0.376 c -0.056,-0.111 10e-4,-0.253 0.113,-0.31 l 2.125,-1.076 2.083,-1.059 c 0.111,-0.058 0.236,-0.008 0.292,0.104 0.056,0.111 10e-4,0.254 -0.111,0.31 l -2.049,1.044 -2.162,1.093 c -0.111,0.058 -0.235,0.006 -0.291,-0.106 M 53.494,28.979 C 53.431,28.937 53.396,28.893 53.438,28.83 l 0.323,-0.497 0.257,-0.378 c 0.043,-0.062 0.145,-0.117 0.207,-0.075 0.062,0.041 0.097,0.087 0.056,0.149 l -0.32,0.491 -0.261,0.383 c -0.042,0.062 -0.144,0.119 -0.206,0.076 m 0.461,-1.401 c -0.583,-0.108 -1.169,-0.117 -1.79,-0.127 l -1.384,-0.065 c -0.147,-0.007 -0.245,-0.131 -0.239,-0.281 0.007,-0.148 0.148,-0.261 0.297,-0.254 l 1.335,0.061 c 0.615,0.009 1.253,0.02 1.88,0.135 0.144,0.028 0.241,0.168 0.215,0.313 -0.027,0.148 -0.167,0.245 -0.314,0.218 m 18.448,-1.9 c -0.089,-0.1 -0.081,-0.254 0.019,-0.343 1.317,-1.18 2.568,-2.367 3.405,-3.897 0.064,-0.118 0.211,-0.161 0.329,-0.096 0.117,0.065 0.159,0.212 0.096,0.33 -0.874,1.598 -2.157,2.816 -3.507,4.025 -0.099,0.091 -0.253,0.082 -0.342,-0.019 m -8.116,-0.547 c -0.029,-0.093 0.024,-0.192 0.117,-0.22 3.402,-1.045 6.532,-2.651 9.558,-4.203 l 1.446,-0.738 c 0.086,-0.044 0.193,-0.01 0.237,0.078 0.043,0.087 0.008,0.193 -0.079,0.237 l -1.443,0.738 c -3.041,1.559 -6.185,3.17 -9.616,4.226 -0.092,0.028 -0.192,-0.024 -0.22,-0.118 m -7.749,1.836 c -0.104,-0.045 -0.152,-0.164 -0.107,-0.267 0.043,-0.105 0.163,-0.153 0.265,-0.109 0.33,0.14 0.7,0.09 1.09,0.038 l 0.568,-0.054 c 0.112,-0.011 0.197,0.071 0.207,0.184 0.011,0.112 -0.086,0.213 -0.198,0.224 l -0.523,0.051 c -0.428,0.057 -0.87,0.116 -1.302,-0.067 m -2.915,3.656 c -0.102,-0.07 -0.16,-0.225 -0.092,-0.326 0.069,-0.103 0.173,-0.147 0.275,-0.08 l 0.334,0.222 c -0.101,-0.068 -0.251,-0.049 -0.319,0.053 -0.068,0.1 -0.054,0.229 0.046,0.297 z M 42.941,29.628 42.736,29.217 c 0.027,0.054 0.085,0.065 0.14,0.038 0.054,-0.027 0.07,-0.102 0.044,-0.157 l 0.228,0.462 c 0.027,0.055 0,0.104 -0.055,0.133 -0.054,0.026 -0.126,-0.01 -0.152,-0.065 m -3.848,-6.183 -3.918,-1.618 c -2.348,-0.99 -4.775,-2.014 -7.228,-2.838 -0.121,-0.041 -0.186,-0.173 -0.145,-0.295 0.04,-0.122 0.172,-0.187 0.293,-0.146 2.468,0.83 4.904,1.857 7.26,2.85 l 3.908,1.614 c 0.119,0.049 0.177,0.185 0.129,0.304 -0.048,0.12 -0.18,0.178 -0.299,0.129 M 26.078,18.243 C 20.811,16.341 13.761,14.093 5.947,13.592 5.856,13.586 5.789,13.508 5.795,13.417 5.8,13.327 5.879,13.259 5.967,13.265 c 7.856,0.503 14.934,2.759 20.222,4.669 0.085,0.031 0.129,0.124 0.099,0.211 -0.03,0.085 -0.125,0.128 -0.21,0.098 m 24.737,16.966 -0.479,-0.052 c 0.123,0.013 0.249,-0.074 0.263,-0.197 0.012,-0.124 -0.061,-0.233 -0.184,-0.248 l 0.391,0.045 c 0.124,0.014 0.242,0.127 0.227,0.251 -0.013,0.123 -0.095,0.214 -0.218,0.201 m -15.744,5.282 -0.509,-0.038 -0.654,-0.059 c -0.123,-0.012 -0.168,-0.112 -0.158,-0.235 0.011,-0.123 0.164,-0.207 0.286,-0.197 l 0.518,0.041 0.641,0.056 c 0.123,0.011 0.17,0.11 0.161,0.234 -0.01,0.123 -0.163,0.207 -0.285,0.198 m 4.58,-0.595 c -0.059,-0.031 -0.081,-0.104 -0.05,-0.161 0.526,-1.013 1.461,-1.594 2.363,-2.154 l 1.367,-0.942 c 0.055,-0.037 0.138,-0.03 0.176,0.024 0.038,0.054 0.033,0.122 -0.021,0.16 l -1.395,0.962 c -0.916,0.569 -1.78,1.107 -2.278,2.06 -0.032,0.06 -0.103,0.083 -0.162,0.051 M 58.773,42 53.217,41.632 46.577,41.174 c -0.147,-0.009 -0.254,-0.138 -0.244,-0.286 0.01,-0.149 0.144,-0.261 0.291,-0.25 l 6.624,0.456 5.566,0.368 c 0.15,0.01 0.258,0.139 0.249,0.286 -0.01,0.15 -0.142,0.262 -0.29,0.252 M 43.546,39.482 c -0.045,-0.164 0.053,-0.336 0.218,-0.38 l 1.531,-0.419 c 1.823,-0.5 3.709,-1.017 5.596,-1.43 0.166,-0.036 0.331,0.07 0.366,0.237 0.036,0.167 -0.069,0.332 -0.236,0.369 -1.869,0.408 -3.748,0.924 -5.563,1.423 L 43.924,39.7 c -0.165,0.045 -0.334,-0.053 -0.378,-0.218 m 27.475,0.796 -1.952,-1.12 c -0.857,-0.47 -1.744,-0.956 -2.565,-1.52 -0.122,-0.084 -0.153,-0.25 -0.07,-0.372 0.083,-0.121 0.249,-0.151 0.369,-0.068 0.8,0.548 1.675,1.028 2.521,1.491 l 1.979,1.136 c 0.128,0.073 0.163,0.232 0.09,0.359 -0.074,0.129 -0.246,0.166 -0.372,0.094 m -34.519,3.606 c -0.221,-0.028 -0.374,-0.153 -0.521,-0.275 l -0.238,-0.173 c -0.04,-0.028 -0.058,-0.091 -0.028,-0.131 0.028,-0.041 0.075,-0.057 0.115,-0.026 l 0.266,0.191 c 0.133,0.11 0.258,0.215 0.428,0.235 0.049,0.006 0.084,0.051 0.079,0.1 -0.006,0.05 -0.051,0.086 -0.101,0.079 m -3.821,1.507 c -0.037,-0.072 -0.01,-0.161 0.062,-0.198 0.385,-0.202 0.692,-0.5 1.015,-0.816 l 0.708,-0.628 c 0.06,-0.054 0.143,-0.04 0.197,0.021 0.053,0.06 0.038,0.162 -0.022,0.215 l -0.678,0.605 c -0.325,0.316 -0.66,0.642 -1.084,0.864 -0.071,0.037 -0.159,0.01 -0.198,-0.063 M 83.369,44.348 82.981,44.12 82.802,44.01 c -0.101,-0.061 -0.135,-0.195 -0.073,-0.296 0.061,-0.102 0.191,-0.135 0.292,-0.073 l 0.185,0.113 0.365,0.215 c 0.104,0.06 0.144,0.196 0.084,0.298 -0.06,0.102 -0.182,0.141 -0.286,0.081 M 43.103,62.87 c -0.065,-0.061 -0.074,-0.157 -0.012,-0.223 l 1.316,-1.396 c 0.514,-0.514 1.046,-1.046 1.487,-1.609 0.054,-0.071 0.156,-0.083 0.227,-0.028 0.07,0.055 0.082,0.158 0.027,0.229 -0.451,0.578 -0.991,1.118 -1.511,1.638 l -1.298,1.376 c -0.063,0.065 -0.171,0.075 -0.236,0.013 m 2.848,-3.075 -0.608,-0.619 -0.551,-0.542 c -0.033,-0.034 -0.028,-0.084 0.004,-0.119 0.035,-0.034 0.096,-0.029 0.131,0.006 l 0.532,0.524 0.631,0.644 c 0.034,0.035 0.026,0.082 -0.008,0.116 -0.034,0.034 -0.099,0.025 -0.131,-0.01 m 0.302,0.015 c -0.037,-0.033 -0.041,-0.088 -0.009,-0.126 0.865,-0.998 2.082,-1.811 3.52,-2.355 0.045,-0.018 0.096,0.005 0.114,0.051 0.017,0.046 -0.005,0.098 -0.052,0.116 -1.41,0.532 -2.601,1.329 -3.448,2.305 -0.031,0.037 -0.088,0.041 -0.125,0.009 m 0.269,0.302 -0.289,-0.292 c 0.043,0.044 0.114,0.044 0.157,0 0.042,-0.043 0.042,-0.112 0,-0.155 l 0.289,0.291 c 0.043,0.043 0.043,0.112 0,0.156 -0.044,0.043 -0.113,0.042 -0.157,0 M 46.02,59.968 c -0.123,0 -0.225,-0.101 -0.225,-0.225 0,-0.126 0.102,-0.226 0.225,-0.226 h 0.291 c 0.124,0 0.225,0.1 0.225,0.226 0,0.124 -0.101,0.225 -0.225,0.225 z M 68.255,50.274 C 68.037,50.13 67.776,50.06 67.523,49.992 l -0.639,-0.223 c -0.046,-0.016 -0.057,-0.059 -0.042,-0.104 0.015,-0.045 0.077,-0.064 0.122,-0.048 l 0.603,0.209 c 0.266,0.071 0.54,0.145 0.783,0.304 0.039,0.027 0.05,0.08 0.024,0.12 -0.025,0.04 -0.079,0.051 -0.119,0.024 m 5.212,-4.751 c -0.072,-0.074 -0.193,-0.076 -0.269,-0.003 0.338,-0.326 0.74,-0.593 1.129,-0.85 0.6,-0.396 1.166,-0.771 1.479,-1.333 0.051,-0.09 0.167,-0.123 0.258,-0.073 0.091,0.053 0.124,0.168 0.074,0.259 -0.362,0.643 -0.992,1.06 -1.603,1.465 -0.374,0.246 -0.762,0.503 -1.073,0.805 0.076,-0.072 0.077,-0.193 0.005,-0.27 M 71.997,42.34 69.859,42.308 C 67.713,42.289 65.495,42.27 63.394,41.9 c -0.147,-0.026 -0.245,-0.166 -0.219,-0.313 0.025,-0.146 0.166,-0.243 0.311,-0.218 2.058,0.363 4.253,0.382 6.378,0.402 l 2.146,0.031 c 0.148,0.003 0.263,0.124 0.261,0.274 -0.002,0.148 -0.125,0.267 -0.274,0.264 M 44.564,41.034 44.428,41.032 43.796,40.98 C 43.673,40.969 43.61,40.867 43.62,40.742 43.631,40.619 43.768,40.53 43.892,40.54 l 0.54,0.043 h 0.141 c 0.125,0.002 0.222,0.105 0.221,0.23 -0.002,0.124 -0.106,0.223 -0.23,0.221 m -0.046,4.767 C 43.93,45.639 43.321,45.579 42.676,45.516 l -1.484,-0.197 c -0.104,-0.014 -0.166,-0.109 -0.153,-0.214 0.015,-0.106 0.124,-0.178 0.229,-0.165 l 1.447,0.191 c 0.632,0.062 1.286,0.128 1.906,0.298 0.102,0.028 0.162,0.134 0.134,0.237 -0.028,0.103 -0.134,0.164 -0.237,0.135 m -3.945,16.851 c -0.079,-0.044 -0.108,-0.142 -0.066,-0.219 1.47,-2.719 3.513,-5.08 5.488,-7.364 l 1.673,-1.957 c 0.059,-0.067 0.161,-0.076 0.228,-0.019 0.068,0.059 0.078,0.16 0.019,0.229 l -1.677,1.96 c -1.963,2.27 -3.995,4.617 -5.446,7.305 -0.042,0.079 -0.141,0.108 -0.219,0.065 m 6.498,-13.8 -0.746,-0.4 -0.449,-0.223 c -0.081,-0.041 -0.108,-0.137 -0.067,-0.218 0.039,-0.08 0.142,-0.112 0.222,-0.071 l 0.435,0.217 0.785,0.42 c 0.079,0.044 0.096,0.135 0.055,0.215 -0.044,0.08 -0.155,0.104 -0.235,0.06 M 50.9,49.82 c -0.069,-0.03 -0.1,-0.112 -0.071,-0.182 0.128,-0.293 0.343,-0.514 0.551,-0.728 l 0.469,-0.591 c 0.047,-0.059 0.149,-0.092 0.209,-0.045 0.058,0.047 0.085,0.111 0.037,0.17 l -0.519,0.658 c -0.198,0.207 -0.387,0.4 -0.494,0.646 -0.03,0.07 -0.112,0.102 -0.182,0.072 m 2.736,-3.163 c -0.092,-0.042 -0.132,-0.153 -0.09,-0.247 0.138,-0.296 0.365,-0.519 0.587,-0.735 0.259,-0.254 0.503,-0.492 0.56,-0.82 0.017,-0.101 0.114,-0.168 0.214,-0.151 0.102,0.017 0.167,0.113 0.151,0.215 -0.078,0.445 -0.378,0.737 -0.666,1.021 -0.206,0.202 -0.401,0.392 -0.51,0.627 -0.042,0.093 -0.153,0.133 -0.246,0.09 M 31.202,60.015 c -0.426,-0.659 -0.628,-1.399 -0.824,-2.114 -0.176,-0.642 -0.359,-1.305 -0.703,-1.895 -0.029,-0.048 -0.011,-0.109 0.036,-0.137 0.049,-0.03 0.111,-0.013 0.14,0.036 0.357,0.611 0.542,1.288 0.722,1.942 0.192,0.7 0.391,1.424 0.799,2.058 0.03,0.048 0.018,0.11 -0.03,0.14 -0.047,0.032 -0.11,0.018 -0.14,-0.03 M 23.147,45.132 c -0.025,-0.032 -0.073,-0.041 -0.106,-0.016 0.526,-0.39 1.109,-0.712 1.673,-1.023 0.56,-0.308 1.138,-0.627 1.667,-1.015 0.032,-0.026 0.081,-0.019 0.105,0.016 0.025,0.033 0.018,0.083 -0.016,0.107 -0.536,0.394 -1.118,0.716 -1.682,1.026 -0.559,0.308 -1.138,0.627 -1.657,1.012 0.034,-0.024 0.041,-0.072 0.016,-0.107 m -0.061,0.82 c -0.024,-0.082 0.019,-0.167 0.1,-0.192 2.243,-0.695 4.273,-1.341 6.376,-2.18 0.078,-0.031 0.167,0.008 0.197,0.085 0.031,0.078 -0.006,0.168 -0.086,0.198 -2.112,0.844 -4.148,1.491 -6.397,2.189 -0.081,0.025 -0.166,-0.02 -0.19,-0.1 m 4.273,-3.369 c -0.014,-0.045 0.003,-0.091 0.048,-0.105 l 0.355,-0.116 0.291,-0.1 c 0.044,-0.016 0.106,0.004 0.121,0.049 0.016,0.043 0.006,0.086 -0.038,0.102 l -0.328,0.115 -0.334,0.109 c -0.045,0.014 -0.1,-0.009 -0.115,-0.054 m 16.004,22.188 c -0.014,-0.104 0.057,-0.202 0.16,-0.219 0.445,-0.066 0.79,-0.341 1.155,-0.631 l 0.19,-0.15 c 0.082,-0.064 0.201,-0.048 0.266,0.035 0.065,0.083 0.05,0.204 -0.033,0.271 l -0.186,0.144 c -0.389,0.309 -0.791,0.629 -1.334,0.711 -0.104,0.016 -0.201,-0.056 -0.218,-0.161 m -7.735,0.677 c -0.342,-0.173 -0.547,-0.507 -0.711,-0.806 -0.051,-0.094 -0.018,-0.211 0.076,-0.262 0.092,-0.051 0.209,-0.017 0.261,0.076 0.142,0.259 0.304,0.524 0.548,0.648 0.094,0.049 0.132,0.164 0.084,0.259 -0.048,0.095 -0.163,0.134 -0.258,0.085 M 26.358,47.112 C 26.336,47.075 26.356,47.024 26.392,47 l 0.971,-0.602 c 0.374,-0.263 0.761,-0.535 1.21,-0.71 0.041,-0.016 0.085,0.004 0.102,0.044 0.014,0.04 -0.005,0.085 -0.044,0.102 -0.433,0.167 -0.812,0.434 -1.178,0.692 l -0.995,0.616 c -0.037,0.022 -0.077,0.007 -0.1,-0.03 M 0.938,60.941 c -0.018,-0.047 0.003,-0.1 0.05,-0.118 7.7,-3.091 15.19,-7.032 22.266,-11.715 0.042,-0.028 0.099,-0.017 0.126,0.025 0.027,0.042 0.016,0.098 -0.026,0.126 C 16.269,53.949 8.767,57.896 1.057,60.992 1.009,61.011 0.956,60.988 0.938,60.941 M 30.304,44.892 C 30.222,44.87 30.176,44.771 30.197,44.688 l 0.086,-0.33 0.057,-0.241 c 0.018,-0.084 0.1,-0.131 0.184,-0.111 0.083,0.019 0.135,0.11 0.115,0.193 l -0.051,0.224 -0.097,0.371 c -0.023,0.083 -0.104,0.12 -0.187,0.098 M 0.05,54.423 C 0.022,54.345 0.065,54.26 0.143,54.232 l 3.682,-1.285 c 5.316,-1.845 10.814,-3.753 15.858,-6.158 0.076,-0.036 0.165,-0.004 0.201,0.072 0.036,0.076 0.004,0.165 -0.071,0.201 -5.06,2.413 -10.565,4.323 -15.889,6.169 L 0.243,54.516 C 0.163,54.544 0.076,54.503 0.05,54.423 m -1.241,1.207 c -0.062,-0.02 -0.095,-0.086 -0.075,-0.148 0.12,-0.369 0.443,-0.511 0.729,-0.637 0.27,-0.116 0.525,-0.229 0.619,-0.509 0.021,-0.061 0.087,-0.095 0.148,-0.073 0.062,0.021 0.094,0.087 0.073,0.149 -0.127,0.377 -0.455,0.522 -0.745,0.649 -0.276,0.12 -0.515,0.225 -0.602,0.493 -0.019,0.063 -0.086,0.097 -0.147,0.076 m -1.417,-0.876 c -0.061,-10e-4 -0.108,-0.052 -0.107,-0.111 10e-4,-0.061 0.05,-0.108 0.111,-0.107 0.365,0.006 0.742,-0.096 1.105,-0.194 0.569,-0.155 1.159,-0.317 1.734,-0.068 0.056,0.024 0.081,0.089 0.057,0.143 -0.022,0.056 -0.087,0.081 -0.142,0.058 -0.505,-0.22 -1.034,-0.076 -1.591,0.077 -0.38,0.102 -0.772,0.21 -1.167,0.202 m -9.049,-0.401 c -0.079,-0.028 -0.122,-0.116 -0.094,-0.197 0.027,-0.079 0.116,-0.121 0.195,-0.093 2.404,0.849 5.062,0.839 7.345,0.719 0.084,-0.005 0.156,0.061 0.16,0.146 0.005,0.085 -0.06,0.157 -0.145,0.162 -2.312,0.121 -5.007,0.13 -7.461,-0.737 m -0.786,-2.979 c -0.045,-0.062 -0.03,-0.148 0.032,-0.192 3.297,-2.325 7.229,-3.653 11.032,-4.937 2.341,-0.791 4.761,-1.609 6.988,-2.648 0.07,-0.032 0.151,-0.002 0.183,0.066 0.031,0.069 0.002,0.15 -0.067,0.183 -2.242,1.045 -4.668,1.865 -7.017,2.658 -3.784,1.277 -7.697,2.601 -10.962,4.903 -0.061,0.044 -0.146,0.029 -0.189,-0.033 M 8.534,42.535 C 8.491,42.436 8.539,42.318 8.639,42.277 l 2.083,-0.878 c 6.617,-2.793 13.459,-5.68 20.571,-7.379 0.105,-0.025 0.213,0.041 0.238,0.147 0.025,0.106 -0.04,0.213 -0.147,0.239 -7.08,1.691 -13.907,4.573 -20.51,7.358 L 8.792,42.642 C 8.691,42.684 8.576,42.637 8.534,42.535 m 22.625,-8.888 c -0.317,-0.15 -0.657,-0.187 -1.016,-0.226 -0.333,-0.036 -0.679,-0.074 -1.01,-0.208 -0.068,-0.027 -0.101,-0.105 -0.073,-0.173 0.028,-0.068 0.103,-0.101 0.171,-0.073 0.297,0.12 0.61,0.155 0.94,0.19 0.366,0.04 0.744,0.082 1.1,0.249 0.067,0.032 0.094,0.112 0.064,0.177 -0.031,0.067 -0.109,0.095 -0.176,0.064 M 28.001,33.235 C 18.902,31.957 10.631,29.906 2.712,26.964 2.637,26.937 2.599,26.852 2.626,26.776 2.654,26.701 2.738,26.662 2.814,26.69 c 7.899,2.933 16.15,4.979 25.228,6.255 0.079,0.012 0.136,0.085 0.125,0.165 -0.012,0.08 -0.085,0.137 -0.166,0.125 M -0.892,24.797 -1.096,24.55 -1.16,24.471 c -0.079,-0.1 -0.067,-0.25 0.034,-0.33 0.1,-0.081 0.243,-0.069 0.324,0.033 l 0.071,0.087 0.184,0.226 c 0.082,0.098 0.074,0.253 -0.024,0.334 -0.1,0.083 -0.24,0.076 -0.321,-0.024 m -2.026,-2.95 c -0.951,-1.731 -0.931,-3.577 0.064,-5.197 1.273,-2.077 3.946,-3.463 6.498,-3.369 0.135,0.005 0.24,0.118 0.235,0.254 -0.006,0.134 -0.118,0.24 -0.253,0.236 -2.385,-0.087 -4.879,1.202 -6.064,3.135 -0.634,1.035 -1.16,2.691 -0.051,4.705 0.064,0.118 0.021,0.268 -0.097,0.333 -0.117,0.065 -0.266,0.022 -0.332,-0.097 m 83.642,-4.985 c -0.047,-0.074 -0.022,-0.175 0.053,-0.221 l 0.161,-0.102 0.469,-0.208 c 0.079,-0.036 0.14,0.011 0.175,0.091 0.037,0.079 -0.03,0.184 -0.111,0.221 l -0.36,0.165 -0.172,0.106 c -0.074,0.048 -0.169,0.023 -0.215,-0.052 m 5.86,-3.994 c -0.093,-0.097 -0.089,-0.253 0.009,-0.345 1.511,-1.441 3.249,-2.676 4.928,-3.869 l 2.284,-1.655 c 0.108,-0.079 0.264,-0.058 0.344,0.053 0.079,0.109 0.058,0.259 -0.051,0.338 l -2.294,1.664 c -1.667,1.183 -3.39,2.406 -4.875,3.822 -0.098,0.095 -0.251,0.091 -0.345,-0.008 M 96.813,5.191 C 96.776,5.143 96.754,5.114 96.801,5.077 l 0.35,-0.271 c -0.047,0.036 -0.084,0.118 -0.048,0.166 0.035,0.048 0.075,0.073 0.123,0.038 l -0.232,0.167 c -0.048,0.034 -0.146,0.062 -0.181,0.014 m -7.328,13.281 c -0.023,-0.125 0.059,-0.246 0.185,-0.27 0.637,-0.122 1.23,-0.337 1.858,-0.564 l 0.725,-0.255 c 0.119,-0.042 0.25,0.023 0.29,0.144 0.043,0.12 -0.023,0.252 -0.144,0.296 l -0.714,0.252 c -0.618,0.222 -1.256,0.452 -1.929,0.581 C 89.63,18.68 89.51,18.597 89.485,18.472 M 78.021,31.723 c -0.008,-0.083 0.062,-0.159 0.145,-0.169 l 1.511,-0.177 c 0.721,-0.111 1.47,-0.226 2.205,-0.188 0.084,0.006 0.148,0.077 0.144,0.161 -0.005,0.084 -0.076,0.148 -0.16,0.144 -0.705,-0.036 -1.436,0.076 -2.144,0.184 l -1.542,0.18 c -0.083,0.009 -0.149,-0.05 -0.159,-0.135 m 0.527,9.459 c -0.634,-1.084 -0.812,-2.137 -0.529,-3.132 0.313,-1.102 1.203,-2.089 2.505,-2.777 1.321,-0.697 3.065,-0.945 4.603,-1.165 1.335,-0.191 2.596,-0.37 3.32,-0.805 0.097,-0.056 0.221,-0.026 0.279,0.071 0.056,0.096 0.026,0.221 -0.07,0.28 -0.795,0.475 -2.094,0.66 -3.472,0.858 -1.506,0.214 -3.212,0.456 -4.471,1.121 -1.203,0.637 -2.022,1.535 -2.304,2.528 -0.252,0.884 -0.087,1.831 0.487,2.814 0.057,0.099 0.025,0.222 -0.071,0.279 -0.096,0.057 -0.221,0.024 -0.277,-0.072 m 0.91,0.146 c -0.046,-0.054 -0.039,-0.132 0.013,-0.177 1.148,-0.992 2.686,-1.717 4.84,-2.284 0.066,-0.017 0.133,0.023 0.152,0.09 0.016,0.066 -0.023,0.135 -0.09,0.152 -2.114,0.556 -3.62,1.265 -4.74,2.232 -0.052,0.044 -0.131,0.038 -0.175,-0.013 m 6.374,-2.857 C 85.757,38.412 85.749,38.294 85.808,38.22 l 1.023,-1.333 0.86,-1.14 c 0.059,-0.077 0.163,-0.086 0.239,-0.029 0.077,0.058 0.088,0.173 0.03,0.249 l -0.85,1.124 -1.041,1.355 c -0.058,0.076 -0.161,0.084 -0.237,0.025 m -28.065,16.12 c -0.131,-0.005 -0.232,-0.116 -0.227,-0.249 0.006,-0.131 0.117,-0.234 0.249,-0.228 2.481,0.113 4.889,-0.346 7.343,-0.869 0.129,-0.027 0.255,0.056 0.282,0.184 0.027,0.13 -0.054,0.257 -0.183,0.284 -2.485,0.53 -4.926,0.994 -7.464,0.878 M 90.81,58.927 90.692,58.79 90.395,58.507 c -0.035,-0.033 -0.053,-0.1 -0.02,-0.135 0.032,-0.035 0.071,-0.05 0.107,-0.016 l 0.345,0.322 0.111,0.132 c 0.032,0.037 0.029,0.093 -0.008,0.126 -0.036,0.03 -0.089,0.028 -0.12,-0.009 M 86.718,75.535 C 82.243,74.517 77.74,72.697 73.766,71.09 l -4.729,-1.857 c -0.011,0.01 -0.083,0.01 -0.083,0.01 -0.099,-10e-4 -0.178,-0.082 -0.177,-0.181 0.001,-0.1 0.081,-0.178 0.179,-0.177 h 0.145 c 0.06,0.011 4.799,1.874 4.799,1.874 3.961,1.601 8.451,3.415 12.897,4.427 4.223,0.961 7.497,1.189 10.763,-0.633 l 1.767,-1.093 0.544,-0.355 c 0.931,-0.601 1.432,-1.346 1.49,-2.213 0.117,-1.742 -1.507,-4.065 -4.826,-6.906 -0.074,-0.065 -0.084,-0.178 -0.019,-0.253 0.063,-0.075 0.176,-0.085 0.251,-0.02 3.458,2.961 5.077,5.316 4.951,7.203 -0.067,0.986 -0.623,1.825 -1.654,2.491 l -0.543,0.353 -1.788,1.106 c -3.367,1.879 -6.711,1.649 -11.015,0.669 M 12.547,-3.716 c -0.024,-0.049 -0.002,-0.107 0.046,-0.13 0.278,-0.131 0.588,-0.183 0.921,-0.155 0.052,0.005 0.094,0.052 0.089,0.106 -0.004,0.053 -0.051,0.093 -0.105,0.088 -0.3,-0.025 -0.576,0.022 -0.822,0.138 -0.05,0.022 -0.108,0.002 -0.129,-0.047 M 23.658,8.267 C 23.558,8.077 23.382,7.904 23.139,7.75 23.058,7.698 23.033,7.592 23.084,7.51 c 0.051,-0.081 0.158,-0.106 0.24,-0.056 0.296,0.187 0.513,0.405 0.642,0.65 0.045,0.085 0.012,0.19 -0.072,0.236 -0.086,0.044 -0.191,0.013 -0.236,-0.073 M 21.032,5.944 C 20.484,5.529 19.982,5.074 19.54,4.591 19.45,4.493 19.457,4.34 19.555,4.249 19.653,4.16 19.806,4.165 19.896,4.263 20.318,4.724 20.798,5.16 21.323,5.558 21.43,5.639 21.451,5.79 21.371,5.896 21.29,6.003 21.14,6.025 21.032,5.944 M 17.637,2.995 17.179,2.556 C 16.971,2.4 16.757,2.238 16.615,1.966 16.591,1.92 16.61,1.862 16.655,1.839 c 0.046,-0.024 0.104,-0.006 0.128,0.04 0.121,0.234 0.311,0.376 0.509,0.526 l 0.501,0.484 c 0.038,0.037 0.026,0.08 -0.011,0.118 -0.035,0.038 -0.107,0.024 -0.145,-0.012 m 85.21,48.14 c -0.095,-0.053 -0.13,-0.174 -0.076,-0.27 0.052,-0.095 0.172,-0.129 0.268,-0.076 3.851,2.151 8.532,1.567 13.061,1.003 l 2.624,-0.306 c 0.109,-0.012 0.204,0.065 0.215,0.174 0.014,0.11 -0.067,0.208 -0.175,0.221 l -2.617,0.305 c -4.376,0.545 -9.337,1.164 -13.3,-1.051 m 15.388,-0.702 -0.989,-0.265 -1.488,-0.418 c -0.14,-0.04 -0.21,-0.182 -0.17,-0.322 0.038,-0.141 0.195,-0.22 0.336,-0.18 l 1.453,0.408 1.005,0.268 c 0.14,0.038 0.218,0.181 0.181,0.322 -0.038,0.142 -0.187,0.224 -0.328,0.187 m -59.139,7.058 -0.414,-0.064 c -0.154,-0.044 -0.286,-0.081 -0.402,-0.024 -0.074,0.038 -0.165,0.006 -0.203,-0.068 -0.037,-0.076 -0.007,-0.167 0.069,-0.205 0.22,-0.109 0.432,-0.049 0.619,0.004 l 0.308,0.053 c 0.081,0.014 0.173,0.094 0.161,0.176 -0.014,0.084 -0.055,0.14 -0.138,0.128 m -34.02,21.348 c -1.293,-1.301 -1.922,-2.976 -1.873,-4.974 0.002,-0.096 0.081,-0.173 0.178,-0.17 0.096,0.002 0.171,0.082 0.17,0.18 -0.048,1.898 0.549,3.486 1.771,4.718 2.933,2.957 8.75,3.161 11.115,3.113 0.095,-0.002 0.174,0.074 0.176,0.17 0.002,0.097 -0.073,0.176 -0.17,0.178 -2.992,0.062 -8.448,-0.273 -11.367,-3.215 m -0.874,-7.151 c -0.082,-0.026 -0.129,-0.113 -0.103,-0.194 0.14,-0.458 0.275,-0.89 0.213,-1.391 -0.011,-0.085 0.048,-0.164 0.134,-0.175 0.084,-0.009 0.161,0.051 0.173,0.136 0.069,0.568 -0.079,1.052 -0.223,1.52 -0.026,0.083 -0.113,0.129 -0.194,0.104 M 26.3,69.269 c -0.033,-0.07 -0.006,-0.151 0.061,-0.185 l 0.125,-0.06 0.152,-0.076 c 0.067,-0.035 0.165,-0.016 0.199,0.052 0.036,0.068 0.023,0.143 -0.044,0.178 l -0.189,0.1 -0.116,0.055 c -0.07,0.034 -0.157,0.005 -0.188,-0.064 m 26.925,11.219 c -0.008,-0.111 0.073,-0.207 0.182,-0.215 0.957,-0.078 1.869,-0.253 2.715,-0.525 0.104,-0.034 0.216,0.023 0.25,0.128 0.033,0.106 -0.025,0.219 -0.13,0.252 -0.873,0.281 -1.815,0.463 -2.803,0.543 -0.109,0.009 -0.206,-0.073 -0.214,-0.183 m -69.883,-73.293 0.189,0.189 c -0.343,0.724 -0.343,1.791 -1.451,1.748 -0.101,-1.217 0.538,-1.693 1.161,-2.185 z m 57.091,42.716 c 0.104,0.072 0.707,0.625 0.434,0.437 -0.355,-0.244 -0.58,-0.536 -0.434,-0.437 m 38.32,3.496 c 0.172,0.071 0.329,0.154 0.435,0.29 -0.193,0.023 -0.799,-0.227 -0.435,-0.29 m -85.206,10.34 h 0.144 c -0.33,0.591 -1.029,0.812 -2.031,0.728 L -8.268,64.33 -8.34,64.185 c 0.272,-0.566 1.236,-0.839 1.887,-0.584 z m 71.27,3.496 c 0.173,0.07 0.33,0.154 0.437,0.291 -0.193,0.023 -0.8,-0.228 -0.437,-0.291 m 0.727,0.291 c 0.172,0.07 0.328,0.155 0.435,0.292 -0.194,0.022 -0.799,-0.23 -0.435,-0.292 m 1.017,0.438 c 0.17,0.07 0.329,0.155 0.434,0.291 -0.193,0.021 -0.799,-0.229 -0.434,-0.291 m 1.452,0.581 c 0.171,0.071 0.328,0.155 0.433,0.292 -0.193,0.022 -0.799,-0.229 -0.433,-0.292 M 62.786,26.318 c -0.303,-0.085 -0.414,-0.362 -0.87,-0.292 l 0.071,-0.218 -0.217,-0.073 c 0.098,-1.261 1.616,-1.097 1.886,-2.186 v 0.147 h 0.146 c 0.002,0.387 -0.055,0.831 0.145,1.019 0.197,0.047 0.277,0.208 0.581,0.145 l -0.073,0.22 0.218,0.072 c -0.53,0.343 -1.3,0.443 -1.451,1.166 l -0.219,-0.073 z m -19.887,3.058 c -0.499,0.114 -0.692,-0.081 -0.58,-0.584 0.401,-0.16 0.814,-0.227 0.725,0.438 l -0.217,-0.072 z m 1.743,11.214 c 0.4,-0.533 1.899,-0.334 2.176,0.147 l -0.216,0.169 0.071,0.266 c -0.777,0.154 -1.562,0.201 -2.177,-0.145 l 0.073,-0.218 z m 10.015,4.224 c -0.4,-0.357 -0.526,-1.794 0.436,-1.602 0.396,-0.106 0.293,0.289 0.58,0.291 -0.102,0.674 -0.138,1.414 -0.725,1.602 l -0.072,-0.218 z m -2.902,3.641 c 0.584,-1.431 -1.265,-1.498 -1.308,-2.767 -0.345,-0.235 -1.051,-0.109 -1.161,-0.583 -0.123,-0.707 0.338,-0.826 0.727,-1.02 0.991,0.025 0.624,1.414 2.031,1.02 0.501,0.275 0.465,1.087 1.018,1.311 h 0.434 l 0.218,0.074 0.219,-0.074 c -0.048,0.338 0.022,0.559 0.144,0.728 -1.081,0.081 -1.094,1.233 -2.033,1.456 L 51.972,48.382 Z M 35.642,65.058 c 1.691,-0.875 3.618,-1.516 4.934,-2.767 l 0.074,0.219 0.217,-0.074 c 0.265,0.905 1.915,0.936 2.322,0.146 l 0.025,0.17 0.121,0.122 c -0.52,0.387 -0.267,1.45 0.291,1.601 l -0.073,0.267 0.218,0.17 c -1.667,1.572 -1.144,4.605 -3.049,5.826 0.068,-0.044 -0.079,-0.298 -0.146,-0.291 -0.005,0 -0.115,0.28 -0.143,0.291 -0.687,0.273 -1.631,0.594 -2.034,0.583 C 36.694,71.274 35.428,69.8 35.353,67.826 35.322,67.034 35.7,66.257 35.497,65.35 l 0.218,-0.073 z M 26.497,47.144 c 0.04,1.797 -1.702,2.388 -3.193,2.185 v -0.146 h -0.146 c -0.928,-2.311 1.839,-3.572 3.339,-2.184 l -0.072,0.072 z m -6.823,-0.436 c 1.159,-0.539 2.3,-1.093 3.484,-1.603 l -0.072,0.074 0.072,-0.074 c -0.01,0.253 0.032,0.453 0.146,0.583 l -0.073,0.218 0.218,0.073 c -1.033,0.566 -2.464,0.732 -3.63,1.165 l -0.071,-0.219 z m -20.612,8.738 c 0.063,0.921 -1.056,0.523 -1.306,0.145 0.58,0.145 0.437,-0.435 1.016,-0.291 l 0.073,0.218 z m -3.337,-0.728 c 0.424,-0.253 1.011,-0.344 1.741,-0.292 l -0.072,0.219 0.216,0.073 c -0.254,0.428 -1.484,0.639 -2.031,0.291 l 0.218,-0.073 z m -7.839,-3.496 c -0.648,0.977 -0.051,2.476 0.724,2.913 l -0.216,0.072 0.071,0.219 c -1.969,-0.01 -2.353,-2.516 -0.87,-3.35 l 0.074,0.219 z M 8.934,42.629 C 8.408,43.658 7.019,43.815 5.596,43.94 L 5.667,43.722 5.45,43.648 c 0.832,-0.765 1.519,-1.679 3.338,-1.456 l -0.073,0.267 z m 19.014,-9.758 c 0.243,-0.473 1.336,-0.343 1.452,0.146 l -0.217,0.073 0.072,0.219 c -0.356,0.284 -1.22,0.145 -1.452,-0.147 L 28.021,33.09 Z M -0.646,24.425 c 1.642,0.342 3.1,0.868 3.628,2.329 l -0.217,0.073 0.072,0.219 c -2.079,0.466 -3.441,-0.35 -3.629,-2.186 l 0.072,-0.218 z m -1.888,-2.913 c 0.415,1.039 1.471,1.437 1.742,2.62 l -0.188,0.19 -0.103,0.248 C -2.2,24.089 -2.625,22.914 -2.97,21.657 l 0.267,0.072 z M 6.029,13.646 C 5.196,13.834 4.42,13.989 3.562,13.792 l 0.074,-0.267 -0.219,-0.17 c 0.528,-0.469 2.209,-0.382 2.758,0 l -0.217,0.074 z m 22.065,5.39 c -1.168,0.152 -1.584,-0.45 -2.178,-0.874 l 0.218,-0.074 -0.072,-0.218 c 0.796,0.172 1.69,0.246 2.177,0.728 l -0.218,0.17 z M 97.043,4.908 c 0.832,-0.937 1.843,-0.761 2.467,-1.748 0.642,-1.012 0.28,-1.903 1.162,-2.621 0.568,-0.462 1.018,-0.537 1.597,-0.582 0.888,-0.07 1.486,0.626 2.613,0.436 1.043,-0.176 1.392,-1.59 2.758,-2.039 0.676,-0.223 1.765,-0.259 2.321,-0.146 0.783,0.16 1.585,1.017 1.598,1.312 0.098,2.357 -3.631,2.261 -6.097,2.038 -1.356,1.118 -2.493,3.061 -5.37,2.185 -0.842,0.412 -2.091,1.824 -2.904,1.311 V 4.908 Z m -3.339,2.184 c 0.835,-0.861 1.973,-1.419 3.049,-2.038 l 0.144,0.073 0.146,-0.073 V 5.2 c 0.109,0.276 0.434,0.1 0.145,0.437 -1.176,0.421 -1.901,1.295 -3.048,1.747 L 93.951,7.195 Z m -1.597,10.342 c 0.51,-0.315 1.127,-0.521 1.743,-0.728 0.571,-0.925 0.809,-2.063 1.886,-2.769 1.785,-1.166 4.486,-0.334 4.501,1.603 0.02,2.735 -3.782,2.502 -6.097,1.748 -0.469,0.354 -1.113,0.534 -1.887,0.582 l 0.072,-0.267 z M 60.515,16.3 60.318,16.123 c 0.494,-0.506 0.176,-1.276 -0.29,-1.603 -1.5,-0.249 -2.522,1.94 -1.305,2.622 l -0.074,0.267 0.218,0.17 c -1.27,0.618 -1.83,1.95 -1.596,4.078 1.076,2.215 2.452,0.635 3.773,-1.019 0.78,-0.977 1.542,-2.104 1.887,-2.768 -0.361,-0.99 -1.327,-1.937 -2.468,-1.311 z m 7.931,13.658 c -1.661,0.04 -2.829,0.241 -2.902,1.312 -0.171,2.52 5.004,0.855 2.902,-1.312 M 35.134,40.274 35.062,40.007 c 0.689,0.061 1.187,-0.07 1.597,-0.29 0.019,-0.7 -0.138,-1.221 -0.436,-1.602 -1.271,-0.056 -2.821,0.814 -2.033,1.892 l -0.217,0.171 0.073,0.267 h -0.291 c -0.742,1.678 1.307,1.985 1.452,0.437 -0.204,-0.039 -0.166,-0.319 -0.291,-0.437 z m 1.38,3.52 v -0.146 c 0.397,-0.002 0.344,-0.686 0.145,-0.873 -0.464,-0.125 -0.449,0.229 -0.727,0.291 v 0.291 h -0.146 v 0.146 c -0.528,-0.388 -0.716,0.572 -1.306,0.582 l 0.074,-0.217 -0.217,-0.074 c 1.226,-2.823 -4.499,0.266 -1.452,1.311 l -0.073,0.218 0.217,-0.073 c -0.178,1.906 1.395,3.242 3.485,3.35 0.249,-1.25 0.67,-3.839 -0.146,-4.806 z m 30.192,-6.117 c -0.977,-0.456 -1.569,0.822 -2.178,1.602 -0.547,0.701 -1.346,1.528 -0.872,2.185 l -0.217,0.17 0.073,0.268 h -0.436 c -1.618,1.433 -1.046,5.065 -3.629,5.533 -1.489,-0.854 0.077,-4.025 -0.87,-5.533 l 0.217,-0.171 -0.071,-0.267 c 0.678,0.089 0.923,-0.513 1.595,-0.727 0.558,-0.179 1.329,-0.013 1.888,-0.292 0.7,-0.349 2.195,-2.387 2.177,-3.059 -0.065,-2.337 -3.874,-1.853 -5.66,-1.31 -1.45,0.75 -1.841,2.33 -2.905,2.912 -0.184,0.102 -0.332,-0.045 -0.434,0 -0.302,0.131 -1.181,0.457 -1.451,0.437 -1.156,-0.085 -1.851,-1.356 -3.05,-1.602 l 0.073,-0.267 -0.218,-0.17 c 0.032,-0.114 0.121,-0.169 0.29,-0.145 0.359,-0.632 0.313,-1.534 -0.145,-2.039 h -0.145 l 0.073,-0.219 0.072,-0.218 c 0.763,-0.105 1.374,-0.912 0.726,-1.603 -1.079,-0.22 -1.639,1.007 -1.015,1.603 l -0.219,0.17 0.072,0.267 c -0.841,0.247 -1.476,0.352 -2.468,0.145 -0.46,0.169 -0.584,0.674 -1.015,0.874 -0.58,0 -0.87,-0.29 -1.452,-0.29 -0.722,0.341 -1.107,1.024 -2.177,1.018 l 0.073,-0.218 -0.219,0.073 c 0.697,-1.39 -0.983,-2.217 -2.031,-1.457 -0.544,-1.098 -2.606,-0.184 -2.904,0.729 0.016,0.228 -0.019,0.504 0.291,0.436 -0.404,0.421 -1.28,0.365 -1.452,1.019 -0.038,0.865 0.159,1.493 0.291,2.186 1.027,-0.041 1.456,0.883 2.177,0 l 0.145,0.073 0.146,-0.073 c 0.959,0.927 2.656,-0.571 4.064,-0.583 l -0.073,0.267 0.219,0.169 c -0.208,0.195 -0.208,0.826 0,1.02 l -0.219,0.17 0.073,0.267 c -0.654,-0.123 -0.725,0.341 -1.161,0.437 -0.721,-0.441 -1.399,-0.927 -2.758,-0.727 -0.59,0.585 -1.746,0.195 -2.468,0.873 -0.307,0.588 0.04,1.159 0.146,1.747 1.459,0.333 3.249,0.333 3.774,1.602 l -0.22,0.171 0.075,0.267 c -1.059,0.563 -2.236,0.663 -3.775,0.437 0.031,1.398 -0.455,1.949 -0.291,3.058 0.199,1.324 1.56,1.939 1.452,3.349 -0.109,1.455 -1.711,1.917 -2.322,3.35 -0.213,0.499 -0.321,1.234 -0.582,1.893 -0.254,0.646 -0.717,1.436 -0.724,1.893 -0.013,0.797 0.637,1.416 0.724,2.04 0.167,1.176 -0.069,1.715 -0.433,3.203 l -0.268,-0.072 -0.169,0.218 C 33.963,64.685 33.219,64.812 32.594,65.058 30.3,65.007 30.124,61.766 31.287,60.252 31.174,60.22 31.118,60.13 31.142,59.96 h 0.145 v -0.146 c 0.163,0.032 0.226,0.163 0.291,0.292 0.773,-0.486 1.971,-0.546 2.759,-1.019 0.142,-0.586 0.177,-1.279 0.143,-2.039 -0.863,-1.28 -3.026,-1.759 -4.499,-1.019 l -0.218,-0.073 0.073,0.218 c -1.213,-0.317 -3.325,-0.118 -4.356,0.583 -1.717,-1.591 -3.719,0.679 -5.224,1.457 -0.35,-0.622 -0.782,-1.158 -1.017,-1.895 0.472,-0.902 1.156,-2.042 2.178,-2.476 0.533,-0.226 1.199,-0.09 1.741,-0.291 1.756,-0.646 2.782,-2.254 3.775,-3.787 0.749,-1.157 2.04,-2.448 1.742,-3.931 h -0.146 l 0.073,-0.074 -0.073,-0.072 c 0.532,-0.438 1.115,-0.825 1.742,-1.165 l 0.073,0.218 0.218,-0.073 c 0.174,0.165 0.263,0.416 0.725,0.291 0.046,-0.337 -0.023,-0.559 -0.145,-0.728 -0.275,-0.033 -0.32,0.164 -0.58,0.146 l -0.073,-0.219 -0.218,0.073 C 30.249,43.913 29.905,43.919 29.545,43.94 L 29.618,43.722 29.4,43.648 v -0.145 c -0.041,-0.736 -1.281,-0.27 -1.306,-1.02 v -0.146 h -0.146 c 0.294,-0.385 0.914,-0.441 0.871,-1.165 -0.473,-1.028 -2.516,-0.484 -2.903,-1.602 1.467,-2.2 3.977,1.07 6.532,0 0.963,-1.557 0.855,-4.253 -0.58,-5.242 -0.274,-0.033 -0.32,0.164 -0.581,0.145 l 0.052,-0.26 -0.197,-0.177 c 0.005,-0.201 -0.068,-0.32 -0.145,-0.436 l 0.218,-0.073 -0.073,-0.218 c 0.418,-0.205 0.738,0.396 0.871,0 0.806,-0.21 0.901,-1.136 1.016,-2.039 0.449,-0.715 1.228,-1.099 1.887,-1.602 0.554,0.124 0.602,0.754 0.87,1.164 1.167,0.708 2.668,0.214 4.357,0.292 0.607,0.027 0.469,-0.692 0.724,-1.02 0.72,0.604 1.533,0.38 2.032,-0.291 v -0.292 l 0.145,0.073 0.145,-0.073 c 0.391,-0.21 1.158,-0.59 0.873,-1.019 0.589,0.169 1.58,-0.923 1.304,-1.602 -1.436,-1.859 -5.078,-1.505 -6.385,-3.496 l 0.197,-0.176 -0.051,-0.26 c 2.953,0.288 4.132,2.358 6.821,2.912 -1.076,-1.759 0.132,-2.823 0.725,-4.368 0.25,-0.649 0.223,-1.283 0.436,-1.602 0.468,-0.698 1.399,-0.86 2.032,-1.167 l 0.073,0.22 0.072,0.218 c -0.131,1.519 -1.169,2.128 -2.177,2.768 -0.385,0.876 -0.972,2.6 -0.291,3.641 0.248,0.196 1.113,0.523 1.453,0.145 0.398,0.862 1.559,0.96 2.612,1.165 l -0.072,0.218 0.072,0.219 c -0.677,1.381 1.47,1.745 2.613,1.31 l 0.073,0.22 0.218,-0.075 c -0.087,0.622 0.104,0.965 0.146,1.458 l -0.219,0.17 0.073,0.268 c -0.306,0.13 -0.645,0.225 -0.871,0.436 0.284,0.725 -0.032,0.698 -0.581,0.873 -0.047,0.338 0.022,0.56 0.145,0.729 0.542,0.156 0.414,-0.362 0.871,-0.291 -0.413,-0.85 0.331,-0.649 0.726,-1.02 0.033,-0.275 -0.164,-0.321 -0.144,-0.583 l 0.071,-0.218 0.073,-0.218 c 0.168,0.122 0.389,0.191 0.726,0.146 0.445,-0.55 0.709,-2.177 0,-2.623 -0.397,-0.106 -0.293,0.289 -0.581,0.292 l -0.073,-0.218 -0.216,0.072 c 0.009,-0.253 -0.034,-0.452 -0.146,-0.583 l 0.217,-0.169 -0.071,-0.267 c 0.864,0.141 1.181,-0.27 1.595,-0.583 -0.168,-1.629 -0.508,-3.273 0,-4.806 -0.291,-0.387 -0.347,-1.011 -1.16,-0.874 0.382,-1.12 1.563,-1.44 2.466,-2.04 0.141,-1.199 0.993,-2.555 0.145,-3.494 h -0.29 l 0.074,-0.268 -0.218,-0.169 c 0.027,-0.215 0.351,-0.134 0.58,-0.146 1.459,-1.093 1.447,-3.32 2.178,-4.952 0.222,-0.497 0.686,-1.066 1.015,-1.602 1.851,-3.016 4.643,-5.808 8.274,-6.116 0.485,-0.042 0.956,0.077 1.452,0 0.779,-0.124 1.685,-0.727 2.758,-0.438 1.314,0.354 1.324,1.831 1.886,3.204 0.29,0.704 0.927,1.264 1.308,2.039 1.075,2.196 1.959,5.212 2.031,8.011 0.029,1.084 -0.501,1.988 0.437,2.622 0.901,-0.212 1.283,-0.945 2.467,-0.875 l -0.073,0.219 0.217,0.073 c -0.224,1.656 -2.4,1.188 -3.338,2.039 -0.909,0.825 -0.485,1.898 -1.595,2.913 l -0.103,-0.248 -0.188,-0.19 c -0.006,-0.479 0.059,-1.029 -0.436,-1.018 l 0.073,-0.219 -0.218,-0.074 c 1.105,-0.54 1.809,-2.604 1.887,-4.077 0.203,-3.86 -2.111,-8.751 -3.483,-10.923 -2.078,0.043 -2.549,-2.008 -3.921,-2.33 -1.119,-0.265 -2.478,0.4 -3.483,0.873 -2.619,1.234 -4.121,2.996 -5.371,5.388 -0.783,1.499 -1.655,3.086 -1.742,4.515 0.69,0.798 2.036,0.176 3.194,0.292 1.265,0.126 2.957,0.714 3.193,1.457 0.405,1.274 -0.811,2.022 -1.597,3.204 -0.285,0.426 -0.362,0.871 -0.58,1.166 -0.846,1.141 -2.211,2.316 -3.339,3.494 -0.602,0.63 -1.13,1.276 -1.742,1.747 -0.664,0.514 -1.822,0.86 -1.452,1.749 l -0.217,0.169 0.072,0.268 c -0.986,0.564 -0.745,2.359 -0.871,3.786 1.378,1.422 4.492,0.124 5.661,-0.874 -0.205,-1.444 -1.505,-1.789 -1.886,-3.058 -0.562,-0.079 -0.708,0.26 -1.307,0.146 l 0.072,-0.268 -0.217,-0.169 c 0.923,-0.434 2.382,-0.329 3.338,-0.729 l -0.072,0.218 0.218,0.074 c -0.075,0.804 0.965,1.712 1.306,1.165 l 0.266,0.073 0.17,-0.219 c 0.363,1.103 1.831,2.257 3.048,2.185 2.537,-0.151 1.386,-3.377 3.049,-4.516 1.396,-0.235 1.836,0.49 3.048,0.438 l 0.072,0.219 0.218,-0.073 v 0.582 c 0.196,0.046 0.277,0.207 0.58,0.146 l -0.072,0.267 0.218,0.17 c -0.341,0.579 -1.396,0.444 -1.597,1.164 -0.065,0.55 0.286,0.685 0.435,1.019 1.954,0.153 2.132,-1.047 3.339,-2.038 0.965,-0.791 2.562,-1.163 2.178,-2.039 -0.186,-0.007 -0.202,-0.187 -0.437,-0.145 l 0.074,-0.267 -0.218,-0.171 c 0.854,-0.652 2.68,-1.246 3.339,-1.602 0.728,-0.394 2.303,-1.076 2.467,-1.6 0.434,-1.401 -0.988,-3.173 -1.743,-4.224 l 0.073,-0.219 -0.217,-0.073 c 1.321,-1.783 3.109,-3.093 5.371,-3.933 l 0.17,0.22 0.265,-0.075 c 0.132,1.237 1.416,1.559 1.888,2.623 0.456,1.034 -0.019,1.973 0.871,2.913 l -0.073,0.267 0.218,0.169 c -1.262,0.306 -1.87,1.003 -2.904,1.456 -0.771,0.34 -1.694,0.394 -2.323,0.729 -0.746,0.399 -1.288,1.182 -2.031,1.747 -1.525,1.158 -2.981,2.088 -4.355,3.205 -0.727,0.591 -1.597,1.221 -1.742,2.184 2.139,0.757 3.154,-2.328 5.951,-2.039 1.49,0.155 2.756,1.867 1.597,3.058 -1.551,1.596 -5.027,-0.536 -6.967,0.438 -0.092,1.257 1.086,1.239 1.161,2.331 h -0.145 v 0.145 c -0.268,0.676 -0.849,1.639 -1.742,2.038 -0.416,0.187 -0.87,-0.01 -1.452,0.146 -0.195,0.053 -0.492,0.349 -0.725,0.437 -0.8,0.304 -2.169,0.842 -2.758,0.874 -1.1,0.061 -2.18,-0.687 -3.194,-0.436 -0.649,0.61 -1.499,1.02 -1.45,2.33 l -0.199,0.176 z m 21.628,-4.368 c 0.238,-1.51 3.187,-2.12 3.338,-0.583 0.13,1.322 -2,1.414 -3.193,1.019 l 0.072,-0.267 z m -0.726,2.475 c 0.103,-0.916 0.45,-1.589 1.596,-1.456 0.378,0.926 -0.629,1.425 -1.307,1.748 l -0.072,-0.22 z m -4.137,8.374 0.072,-0.218 c 0.218,-0.216 0.014,-0.752 -0.435,-0.728 v 0.436 l -0.197,0.178 0.052,0.259 c -1.04,-0.24 -3.11,-2.493 -4.355,-0.728 0.406,1.01 1.715,1.27 2.613,1.748 1.135,0.604 2.463,1.302 3.339,1.749 h 0.435 c 0.542,-1.348 -0.689,-2.107 -1.597,-2.477 z M 75.705,43.503 C 75.519,42.04 73.204,42.711 71.931,42.337 l 0.073,-0.266 -0.218,-0.169 c 0.03,-0.165 0.161,-0.228 0.29,-0.292 0.161,-1.036 -0.856,-0.889 -1.161,-1.457 l 0.246,-0.102 0.191,-0.19 c 1.71,0.722 4.928,3.555 7.256,1.457 -0.113,-0.032 -0.169,-0.121 -0.144,-0.291 l 0.259,0.053 0.175,-0.198 c 0.35,-0.06 0.316,0.266 0.727,0.145 l -0.073,0.219 0.218,-0.074 c 0.071,1.823 2.85,0.928 4.5,1.165 0.61,-0.801 0.782,-2.512 0,-3.203 l 0.072,-0.146 -0.072,-0.146 c 0.805,-0.015 1.077,-0.569 1.741,-0.727 l -0.073,0.218 0.218,0.073 c -0.176,1.18 -1.022,2.307 -0.725,3.496 0.638,0.72 1.601,0.293 2.466,0.435 0.887,0.146 1.87,0.521 2.759,0.729 0.977,0.228 1.855,0.477 2.613,0.874 0.614,0.867 0.527,2.039 1.887,2.33 0.823,0.176 1.694,-0.295 2.468,-0.146 2.474,0.483 1.283,3.388 -1.308,3.059 -0.828,-0.104 -1.143,-0.767 -1.886,-0.728 -0.83,0.429 -1.354,1.165 -1.451,2.33 0.35,0.612 1.279,0.82 2.177,1.166 0.765,0.294 1.601,0.713 2.468,1.019 1.518,0.537 3.932,1.468 5.661,1.311 0.626,-0.057 1.252,-0.485 1.888,-0.584 1.503,-0.233 3.407,0.175 4.209,1.166 1.266,1.568 0.207,4.069 -1.452,4.514 -0.784,-0.126 -1.504,-0.173 -2.323,0 -1.596,-0.872 -2.305,-2.637 -3.193,-4.223 -3.738,-0.911 -7.096,-2.202 -10.161,-3.786 -0.866,0.743 -2.825,1.475 -4.065,1.02 -1.19,-0.439 -1.016,-2.746 -2.032,-3.788 -0.389,-0.4 -1.465,-0.862 -2.322,-1.311 -0.831,-0.435 -1.705,-0.893 -2.469,-1.31 -1.467,-0.803 -3.811,-2.367 -5.223,-2.331 l -0.17,-0.217 z m -10.597,9.758 c 0.628,-1.32 3.299,-1.339 3.049,-3.058 h 0.145 v -0.146 c 2.41,-0.834 2.138,-4.359 5.08,-4.66 l -0.051,0.259 0.197,0.178 c -0.469,1.225 -2.124,1.601 -2.176,2.912 -0.019,0.408 0.346,0.858 0.579,1.311 0.573,1.121 0.768,1.203 0.291,2.184 -0.193,0.396 -0.415,0.75 -0.58,0.874 -0.124,0.093 -0.783,0.28 -1.018,0.292 -0.597,0.029 -1.174,-0.319 -1.887,-0.292 -0.989,0.596 -2.452,1.387 -3.629,0.582 L 65.182,53.48 Z M 44.984,63.924 44.787,63.747 c 0.619,-1.137 2.504,-1.745 2.322,-3.204 1.365,-0.073 2.449,-1.596 3.485,-2.475 0.093,-0.533 -0.099,-0.776 -0.291,-1.02 0.627,0.094 0.813,-0.251 1.161,-0.437 0.888,-2.22 -1.011,-3.592 -3.048,-3.787 -0.145,0.194 -0.139,0.542 -0.437,0.583 l -0.186,-0.19 -0.248,-0.102 c 1.188,-1.041 0.269,-3.465 -0.581,-4.223 l 0.197,-0.177 -0.052,-0.26 c 0.855,0.66 2.355,1.854 3.774,1.019 l 0.073,0.219 0.218,-0.073 c 0.4,3.336 3.857,3.606 6.678,4.515 l -0.074,0.218 0.074,0.219 c -0.171,0.738 -0.987,1.49 -0.581,2.33 -0.936,-0.548 -1.607,0.016 -2.614,0.292 -0.714,0.196 -1.529,0.25 -1.886,0.436 -0.523,0.274 -1.187,1.154 -1.888,1.747 -0.911,0.775 -2.097,1.4 -1.742,2.04 0.057,0.158 0.175,0.351 0,0.146 -1.902,-0.199 -2.548,2.095 -4.208,2.622 z m 45.889,-5.056 -0.072,-0.219 c 0.921,0.097 1.58,0.455 2.468,0.584 0.841,1.873 2.066,3.364 3.628,4.514 l -0.246,0.103 -0.188,0.189 c -1.017,-0.469 -1.706,-1.322 -2.903,-1.748 -0.687,-0.244 -1.514,-0.167 -2.179,-0.437 -1.099,-0.447 -1.86,-1.51 -2.466,-2.331 0.553,-0.269 1.491,-0.153 1.741,-0.728 z M -28.808,-25.531 h 0.29 c 0.227,0.359 -0.493,0.428 -0.434,0.146 0.088,-0.009 0.171,-0.022 0.144,-0.146 m -1.451,3.932 c -0.441,-0.49 0.537,-0.441 0,0 m -2.903,1.166 c 0.489,-0.442 0.44,0.538 0,0 m 9.58,1.019 c -0.138,-0.662 0.61,-0.917 1.017,-0.583 v 0.583 c -0.194,0.208 -0.823,0.208 -1.017,0 m 8.709,0.728 v 0.582 h -0.579 c -0.069,-0.455 0.125,-0.649 0.579,-0.582 m -11.467,0.582 c 0.428,-0.541 1.32,-0.518 1.597,0.146 0.152,1.092 -1.977,1.294 -1.597,-0.146 m -5.661,2.186 c -0.104,-0.445 0.149,-0.532 0.146,-0.874 0.341,0.003 0.426,-0.251 0.87,-0.146 0.062,0.278 0.416,0.264 0.291,0.728 -0.038,0.485 -0.949,0.579 -1.307,0.292 m 13.209,1.747 c -0.129,-0.808 0.403,-0.954 1.162,-0.874 0.13,0.426 0.13,0.448 0,0.874 -0.211,0.215 -0.951,0.215 -1.162,0 m 31.499,0.437 h 0.291 v 0.292 h -0.291 z m 3.339,0.728 c 0.024,-0.612 0.513,-0.844 1.016,-0.582 v 0.582 c -0.194,0.208 -0.822,0.208 -1.016,0 m 104.512,0.583 c -0.233,-0.406 0.628,-0.403 0.582,-0.146 -0.297,0.082 -0.286,0.437 -0.582,0.146 m -131.657,1.748 c 0.219,-0.533 0.869,-0.713 1.307,-0.291 v 0.728 c -0.385,0.373 -1.44,0.47 -1.307,-0.437 m -7.693,0.582 c -0.301,-1.007 1.187,-1.173 1.162,-0.291 -0.173,0.315 -0.771,0.64 -1.162,0.291 m 15.678,0.874 v -0.583 c 0.362,-0.211 0.57,-0.353 1.015,-0.146 v 0.729 c -0.194,0.207 -0.822,0.207 -1.015,0 m -13.5,0 c -0.065,-0.647 0.371,-0.793 1.016,-0.729 0.033,0.115 0.004,0.288 0.146,0.293 0.075,0.599 -0.785,0.741 -1.162,0.436 m 18.58,1.165 C 1.779,-8.045 1.765,-7.867 1.53,-7.908 1.304,-8.267 2.023,-8.337 1.966,-8.054 m 23.66,1.311 c 0.067,0.456 -0.125,0.65 -0.58,0.583 -0.101,-0.488 0.243,-0.533 0.58,-0.583 M 3.417,-5.87 C 2.468,-6.472 3.883,-7.612 4.435,-6.743 4.366,-6.179 4.059,-5.857 3.417,-5.87 m 2.179,0.292 c 0.258,-0.385 1.064,-0.398 1.16,0.146 -0.171,0.458 -1.242,0.713 -1.16,-0.146 m 7.91,1.675 -0.218,-0.073 c 0.556,-0.815 2.651,-1.13 2.467,0.582 -0.739,0.618 -2.101,0.193 -2.467,-0.437 z M 0.949,-1.792 c 0.197,-0.045 0.278,-0.207 0.581,-0.146 0.11,0.497 -0.554,0.569 -0.581,0.146 m 10.307,0.875 c -0.285,-0.972 0.705,-1.257 1.307,-0.875 -0.006,0.201 0.067,0.321 0.144,0.438 -0.15,0.45 -0.907,0.839 -1.451,0.437 m -1.887,0.874 c 0.046,-0.443 0.819,-0.592 1.161,-0.291 0.266,0.971 -1.191,1.167 -1.161,0.291 m 32.369,1.747 c 0.034,0.635 -0.69,1.158 -1.595,0.728 -0.8,-1.65 1.531,-1.923 1.595,-0.728 M -6.453,6.656 c -0.152,-1.178 1.544,-0.916 1.015,0 -0.193,0.208 -0.822,0.208 -1.015,0 m 95.657,0 C 89.461,6.528 89.628,6.194 89.931,6.51 90.07,7.046 89.218,7.089 89.204,6.656 M 35.353,7.82 h 0.433 c 0.027,0.318 -0.117,0.465 -0.433,0.437 z M 16.772,2.141 C 16.301,2.226 16.097,2.041 15.755,1.996 15.565,1.02 13.942,1.485 14.014,0.248 15.199,-0.444 16.36,1.115 16.916,1.996 L 16.698,1.923 Z m 2.757,2.476 C 18.668,4.219 17.707,3.92 17.497,2.869 l 0.219,0.073 -0.073,-0.218 c 1.33,-0.025 1.762,0.852 2.322,1.602 L 19.718,4.427 Z M 23.158,7.82 C 22.171,7.453 21.295,6.972 20.98,5.927 l 0.198,-0.176 -0.052,-0.26 c 1.063,0.389 1.982,0.924 2.323,2.039 l -0.218,0.072 z m 0.654,0.366 0.073,-0.22 c 1.976,0.679 3.594,2.021 6.531,1.311 0.715,-0.966 1.767,-1.353 2.613,-2.039 0.892,-0.721 2.017,-2.333 2.903,-3.495 0.865,-1.135 2.421,-2.886 2.467,-4.077 0.047,-1.178 -0.949,-2.08 -1.015,-3.351 -0.062,-1.174 0.519,-2.793 1.161,-3.496 0.644,-0.704 2.186,-1.687 3.774,-1.311 1.639,0.39 2.608,2.856 1.886,4.807 -0.385,1.046 -1.588,2.037 -2.467,2.476 -0.584,0.292 -1.401,0.258 -1.886,0.583 -0.589,0.394 -1.007,1.542 -1.598,2.476 -0.569,0.902 -1.223,1.748 -1.74,2.476 -0.819,1.149 -2.031,2.35 -2.905,3.349 -0.378,0.433 -0.568,1.069 -0.87,1.31 -0.317,0.252 -1.11,0.235 -1.742,0.583 -0.547,0.304 -0.778,0.888 -1.161,1.02 -2.46,0.845 -5.554,-0.969 -6.242,-2.331 z m 12.702,4.587 c 0.145,0.486 -0.202,0.478 -0.582,0.436 -0.043,-0.382 0.201,-0.477 0.582,-0.436 m -64.016,-0.292 c 0.344,0.362 0.059,0.915 -0.579,0.728 -0.109,-0.546 0.163,-0.709 0.579,-0.728 m 48.628,0.874 c 0.412,-0.152 0.605,-0.152 1.017,0 0.112,0.696 -0.304,0.861 -0.872,0.875 -0.167,-0.173 -0.164,-0.515 -0.145,-0.875 m -2.903,4.515 c 0.028,-0.457 0.27,-0.7 0.726,-0.728 0.03,0.164 0.16,0.226 0.29,0.292 0.058,0.545 -0.66,0.751 -1.016,0.436 M 4.144,17.579 c 0.032,0.114 0.121,0.17 0.291,0.146 0.144,0.68 -0.254,0.814 -0.873,0.728 -0.058,-0.544 0.117,-0.855 0.582,-0.874 m 129.479,-1.165 c 1.717,0.141 0.962,3.114 -0.581,2.329 -1.645,-0.835 -0.157,-2.389 0.581,-2.329 M 1.095,19.327 c -0.198,0.046 -0.279,0.207 -0.58,0.146 -0.039,-0.426 0.562,-0.56 0.58,-0.146 m 25.983,0.146 c -0.185,0.007 -0.201,0.185 -0.436,0.146 -0.226,-0.359 0.494,-0.43 0.436,-0.146 m -10.162,1.019 c -0.128,0.112 -0.414,-0.09 -0.435,-0.145 -0.206,-0.55 0.723,-0.105 0.435,0.145 M 38.69,21.22 c -0.048,0.119 -0.384,0.176 -0.436,0 -0.096,-0.337 0.567,-0.314 0.436,0 m 10.306,1.019 c 0.193,-0.293 0.972,-0.439 1.307,-0.146 0.644,0.99 -1.632,1.861 -1.307,0.146 m -24.531,1.748 c -0.714,-0.014 -1.715,-0.586 -1.887,-1.311 -0.904,-3.815 5.943,-3.048 3.629,0.583 -0.89,0.216 -0.861,0.745 -1.742,0.728 m 8.42,-0.874 c 0.417,0.017 0.949,-0.079 1.161,0.146 0.104,0.445 -0.15,0.531 -0.146,0.873 -0.866,0.444 -1.65,-0.195 -1.015,-1.019 M 9.079,24.86 c -0.085,-0.617 0.391,-0.675 0.725,-0.873 -0.043,0.384 0.563,0.115 0.436,0.583 -0.046,0.442 -0.82,0.592 -1.161,0.29 m 15.386,3.205 c -0.128,0.112 -0.414,-0.088 -0.435,-0.146 -0.206,-0.549 0.721,-0.104 0.435,0.146 m 14.806,-0.146 v 0.438 h -0.435 c -0.026,-0.318 0.118,-0.464 0.435,-0.438 m -4.934,-0.582 c 0.397,-0.368 1.06,-0.346 1.305,0.145 0.143,1.095 -1.659,1.204 -1.305,-0.145 m 80.125,2.476 c -0.05,0.117 -0.386,0.175 -0.436,0 -0.096,-0.337 0.568,-0.315 0.436,0 m -55.45,-0.145 c -0.032,-0.277 0.164,-0.322 0.145,-0.584 0.211,-0.213 0.95,-0.213 1.161,0 0.163,0.991 -0.993,1.269 -1.306,0.584 m 24.967,2.039 c 0.257,0.032 0.726,-0.148 0.581,0.29 -0.331,0.041 -0.545,-0.035 -0.581,-0.29 M 29.69,35.638 c 0.102,0.539 -0.229,0.644 -0.725,0.583 -0.185,-0.641 0.364,-0.927 0.725,-0.583 m 2.758,0.293 c 0.146,0.68 -0.253,0.812 -0.87,0.727 -0.145,-0.68 0.253,-0.815 0.87,-0.727 m -3.629,1.6 c 0.254,-0.01 0.452,0.033 0.581,0.146 0.069,0.457 -0.365,0.411 -0.581,0.583 -0.186,-0.192 -0.186,-0.537 0,-0.729 m 58.353,0.729 h 0.291 c 0.225,0.359 -0.493,0.428 -0.436,0.146 0.089,-0.009 0.172,-0.022 0.145,-0.146 m -28.16,2.039 c -0.087,-0.817 0.348,-1.106 1.161,-1.02 0.2,0.188 0.143,0.634 0.145,1.02 -0.468,0.249 -0.866,0.39 -1.306,0 m -33.821,1.457 c 0.218,-0.169 0.612,-0.512 0.725,0 -0.217,0.167 -0.609,0.512 -0.725,0 m 15.242,0.436 c -0.278,0.062 -0.263,0.416 -0.727,0.291 -0.221,-0.629 0.663,-0.785 0.727,-0.291 m -24.387,0.291 c 0.196,-0.045 0.277,-0.206 0.581,-0.146 0.109,0.498 -0.555,0.569 -0.581,0.146 m 1.888,2.04 c -0.14,-0.663 0.609,-0.917 1.015,-0.583 0.139,0.663 -0.609,0.917 -1.015,0.583 M 8.643,44.668 C 9.003,44.646 9.347,44.641 9.369,44.959 9.154,45.035 9.003,45.175 8.788,45.25 8.742,45.054 8.582,44.973 8.643,44.668 m 38.466,0 c 0.185,0.173 0.062,0.55 -0.145,0.729 -0.197,-0.186 -0.224,-0.714 0.145,-0.729 m -1.306,1.166 c -0.929,0.167 -0.319,-0.445 0,0 m 1.306,0.145 c -0.255,-0.084 -0.852,0.175 -0.871,-0.145 0.255,0.083 0.853,-0.176 0.871,0.145 m 1.452,0.291 c -0.93,0.168 -0.319,-0.445 0,0 m 10.886,1.894 c -0.929,0.168 -0.318,-0.445 0,0 m 43.547,3.058 c -0.626,-0.148 -1.128,-0.422 -1.015,-1.311 0.801,-0.124 1.068,0.288 1.16,0.874 l -0.197,0.177 z m 12.919,-1.457 c -1.17,-0.004 -2.337,0.4 -2.468,-0.873 0.647,-0.902 2.207,-0.209 2.614,0.437 l -0.218,0.17 z m 2.83,1.919 -0.217,-0.17 c 0.297,-0.543 -0.064,-0.902 -0.436,-1.166 l 0.22,-0.17 -0.074,-0.267 c 4.182,1.395 6.339,-0.004 9.289,-1.456 2.939,-1.447 5.809,-3.322 8.275,-5.098 1.421,-1.022 2.976,-1.75 4.064,-2.62 0.705,-0.565 1.348,-1.877 2.178,-2.331 1.773,-0.973 3.91,-0.252 4.209,1.601 -1.19,1.817 -3.708,0.784 -5.227,1.311 -2.131,0.743 -4.239,2.601 -6.385,4.079 -1.603,1.102 -3.247,2.225 -4.79,3.058 -0.555,0.298 -1.406,0.284 -1.597,1.019 1.018,1.534 4.508,1.263 3.483,4.369 -0.355,0.275 -0.764,0.495 -1.305,0.583 -2.212,0.448 -3.213,-1.444 -4.791,-2.185 -2.142,-1.005 -4.831,-0.973 -6.968,-0.29 z m -99.939,5.073 c 0.145,0.68 -0.253,0.814 -0.87,0.727 -0.147,-0.68 0.253,-0.813 0.87,-0.727 m 6.096,0.581 c 0.043,0.385 -0.201,0.48 -0.581,0.438 -0.145,-0.486 0.202,-0.477 0.581,-0.438 m -25.546,0.876 c 0.184,-0.009 0.2,-0.188 0.434,-0.146 0.008,0.25 -0.111,0.373 -0.29,0.436 0.001,-0.147 -0.118,-0.173 -0.144,-0.29 m 117.14,1.892 c -0.276,0.063 -0.364,0.315 -0.726,0.292 -0.165,-0.813 0.62,-0.845 0.726,-0.292 M -16.324,73.36 c 0.018,-0.371 0.211,-0.565 0.581,-0.583 0.582,0.328 -0.087,1 -0.581,0.583 m 34.112,0.728 c 2.147,-0.784 2.509,2.838 0.29,2.33 -1.421,-0.325 -1.425,-1.917 -0.29,-2.33 m -31.063,0.437 c 0.798,-0.801 2.589,-0.681 3.192,0.291 0.85,1.37 -0.466,2.437 -1.452,2.913 -1.906,0.148 -2.973,-1.968 -1.74,-3.204 m 50.804,3.204 c 0.067,0.455 -0.31,0.465 -0.726,0.437 -0.067,-0.455 0.311,-0.466 0.726,-0.437 m -62.998,1.893 h 0.436 c 0.025,0.318 -0.119,0.463 -0.436,0.437 z m -11.468,0.583 c -0.184,0.008 -0.201,0.187 -0.435,0.145 -0.225,-0.358 0.493,-0.428 0.435,-0.145 m 61.256,-10.05 c -0.271,-0.277 -0.015,-0.365 0,-0.728 0.474,-0.399 1.555,-0.188 2.178,-0.437 l -0.072,0.218 0.217,0.074 c 0.022,0.991 -1.019,0.919 -2.032,0.873 l -0.145,-0.072 z m -1.161,3.787 c -0.814,-1.074 0.253,-2.222 1.017,-2.621 l 0.072,0.218 0.218,-0.072 c 0.001,1.214 -0.531,1.894 -1.016,2.621 L 23.377,73.87 Z m 32.806,5.826 c 0.608,-3.031 3.841,-1.23 6.531,-1.602 2.868,-0.396 3.94,-3.719 6.679,-3.35 0.506,0.575 0.973,1.244 0.724,2.185 -0.32,1.21 -4.829,2.454 -6.676,2.913 -2.333,0.578 -5.339,1.481 -7.113,0.291 l 0.073,-0.267 z m -19.596,2.33 c 0.744,-0.256 1.344,0.406 2.031,0.438 0.69,0.03 1.406,-0.38 2.177,-0.438 2.032,-0.15 4.312,0.109 6.533,-0.145 0.783,-0.09 1.563,-0.502 2.323,-0.583 1.701,-0.182 3.166,0.228 4.21,-0.727 l -0.218,-0.171 0.072,-0.267 c -1.342,-0.629 -2.243,0.328 -3.339,0.582 -1.22,0.284 -2.993,0.14 -4.645,0.292 -1.564,0.144 -3.231,0.485 -4.499,0.437 -0.78,-0.031 -1.575,-0.335 -2.323,-0.291 -0.713,0.041 -1.467,0.524 -2.176,0.437 l -0.075,0.218 z"
             style="fill:#262626;fill-opacity:1;fill-rule:nonzero;stroke:none"
             id="path94"
             inkscape:connector-curvature="0" />
        </g>
      </g>
    </g>
  </g>
</svg>
