<?xml version="1.0" encoding="UTF-8" standalone="no"?>
<!-- Created with Inkscape (http://www.inkscape.org/) -->

<svg
   xmlns:dc="http://purl.org/dc/elements/1.1/"
   xmlns:cc="http://creativecommons.org/ns#"
   xmlns:rdf="http://www.w3.org/1999/02/22-rdf-syntax-ns#"
   xmlns:svg="http://www.w3.org/2000/svg"
   xmlns="http://www.w3.org/2000/svg"
   xmlns:sodipodi="http://sodipodi.sourceforge.net/DTD/sodipodi-0.dtd"
   xmlns:inkscape="http://www.inkscape.org/namespaces/inkscape"
   width="52.356808mm"
   height="63.177361mm"
   viewBox="0 0 52.356808 63.177361"
   version="1.1"
   id="svg4332"
   inkscape:version="0.92.2 2405546, 2018-03-11"
   sodipodi:docname="paint08.svg">
  <defs
     id="defs4326">
    <clipPath
       clipPathUnits="userSpaceOnUse"
       id="clipPath54">
      <path
         d="M 0,600 H 600 V 0 H 0 Z"
         id="path52"
         inkscape:connector-curvature="0" />
    </clipPath>
  </defs>
  <sodipodi:namedview
     id="base"
     pagecolor="#ffffff"
     bordercolor="#666666"
     borderopacity="1.0"
     inkscape:pageopacity="0.0"
     inkscape:pageshadow="2"
     inkscape:zoom="0.35"
     inkscape:cx="8.5714395"
     inkscape:cy="559.99999"
     inkscape:document-units="mm"
     inkscape:current-layer="layer1"
     showgrid="false"
     fit-margin-top="0"
     fit-margin-left="0"
     fit-margin-right="0"
     fit-margin-bottom="0"
     inkscape:window-width="3840"
     inkscape:window-height="2095"
     inkscape:window-x="0"
     inkscape:window-y="0"
     inkscape:window-maximized="1" />
  <metadata
     id="metadata4329">
    <rdf:RDF>
      <cc:Work
         rdf:about="">
        <dc:format>image/svg+xml</dc:format>
        <dc:type
           rdf:resource="http://purl.org/dc/dcmitype/StillImage" />
        <dc:title></dc:title>
      </cc:Work>
    </rdf:RDF>
  </metadata>
  <g
     inkscape:label="Layer 1"
     inkscape:groupmode="layer"
     id="layer1"
     transform="translate(2.87901e-6,-233.82264)">
    <g
       transform="matrix(0.35277777,0,0,-0.35277777,-155.78208,364.07536)"
       id="g48">
      <g
         id="g50"
         clip-path="url(#clipPath54)">
        <g
           id="g56"
           transform="translate(571.04,354.4214)">
          <path
             d="m 0,0 c 0.032,-0.069 0.115,-0.099 0.185,-0.066 0.586,0.278 1.196,0.445 1.841,0.622 l 1.35,0.413 C 3.449,0.992 3.482,1.067 3.46,1.14 3.438,1.212 3.354,1.25 3.279,1.228 L 1.953,0.823 C 1.324,0.651 0.674,0.472 0.065,0.184 -0.004,0.151 -0.033,0.068 0,0 m -102.68,-78.244 c -0.502,-0.647 -0.944,-1.369 -1.373,-2.066 -0.622,-1.013 -1.264,-2.061 -2.078,-2.858 -0.055,-0.054 -0.056,-0.142 -0.002,-0.198 0.055,-0.055 0.143,-0.055 0.197,-0.002 0.838,0.823 1.491,1.885 2.122,2.911 0.423,0.692 0.864,1.407 1.354,2.043 0.049,0.062 0.037,0.15 -0.024,0.196 -0.062,0.048 -0.15,0.036 -0.196,-0.026 m 1.071,3.233 0.056,-0.202 0.063,-0.249 c 0.028,-0.114 0.148,-0.207 0.261,-0.18 0.113,0.028 0.187,0.117 0.159,0.23 l -0.076,0.319 -0.053,0.186 c -0.032,0.113 -0.151,0.184 -0.263,0.152 -0.112,-0.033 -0.18,-0.143 -0.147,-0.256 m 41.531,46.445 0.003,0.006 c 0.095,0.134 0.174,0.268 0.184,0.381 -0.096,0.077 -0.214,0.096 -0.301,0.072 -0.068,-0.018 -0.183,-0.07 -0.202,-0.155 0.01,-0.07 0.041,-0.141 0.094,-0.201 0.05,-0.056 0.14,-0.076 0.222,-0.103 m -0.246,0.95 c 0.338,0.091 0.691,-0.028 0.898,-0.303 l 0.034,-0.046 0.013,-0.056 c 0.066,-0.332 -0.125,-0.607 -0.277,-0.828 l -0.105,-0.155 c -0.012,-0.02 -0.028,-0.038 -0.047,-0.053 -0.048,-0.047 -0.113,-0.075 -0.186,-0.071 -0.462,0.029 -0.842,0.364 -0.902,0.861 0.038,0.317 0.257,0.566 0.572,0.651 M 0.867,-89.532 c 0.063,-0.445 0.296,-0.73 0.502,-0.98 l 0.125,-0.155 c 0.116,-0.145 0.335,-0.175 0.48,-0.058 0.145,0.117 0.172,0.323 0.056,0.468 l -0.139,0.174 c -0.178,0.216 -0.318,0.387 -0.355,0.645 -0.026,0.186 -0.197,0.314 -0.383,0.288 -0.184,-0.026 -0.312,-0.196 -0.286,-0.382 m 0.587,0.69 0.167,-0.323 0.149,-0.292 c 0.088,-0.175 0.321,-0.297 0.498,-0.21 0.176,0.086 0.271,0.249 0.186,0.425 l -0.203,0.422 -0.152,0.288 c -0.091,0.174 -0.314,0.254 -0.49,0.162 -0.173,-0.092 -0.248,-0.297 -0.155,-0.472 m -0.443,-0.67 c 0.016,-0.105 0.116,-0.178 0.221,-0.16 l 0.652,0.097 0.256,0.036 c 0.104,0.016 0.176,0.112 0.16,0.218 -0.014,0.104 -0.113,0.177 -0.217,0.161 l -0.253,-0.036 -0.659,-0.1 c -0.106,-0.014 -0.175,-0.112 -0.16,-0.216 m -0.664,2.626 0.251,-0.462 0.08,-0.146 c 0.093,-0.167 0.303,-0.226 0.469,-0.133 0.166,0.092 0.225,0.301 0.132,0.466 l -0.084,0.15 -0.234,0.432 c -0.09,0.167 -0.305,0.24 -0.472,0.149 -0.166,-0.091 -0.234,-0.287 -0.142,-0.456 m 1.689,11.453 c 0.246,-0.431 0.415,-0.887 0.595,-1.374 l 0.383,-0.96 c 0.075,-0.19 0.285,-0.268 0.474,-0.191 0.189,0.075 0.277,0.304 0.201,0.497 l -0.363,0.913 c -0.183,0.492 -0.372,1 -0.644,1.481 -0.101,0.178 -0.327,0.239 -0.505,0.139 -0.178,-0.101 -0.24,-0.326 -0.141,-0.505 M 1.817,-89.62 2.15,-90.149 2.32,-90.464 c 0.106,-0.192 0.34,-0.252 0.533,-0.147 0.194,0.105 0.257,0.359 0.155,0.552 l -0.151,0.276 -0.454,0.705 c -0.119,0.184 -0.319,0.179 -0.505,0.064 -0.184,-0.117 -0.196,-0.421 -0.081,-0.606 m -30.647,-12.227 c -0.797,-4.5 -2.033,-9.007 -3.231,-13.365 -0.969,-3.535 -1.973,-7.189 -2.738,-10.825 -0.049,-0.237 0.103,-0.47 0.339,-0.519 0.236,-0.049 0.469,0.102 0.519,0.338 0.759,3.61 1.759,7.251 2.725,10.774 1.201,4.377 2.445,8.903 3.249,13.443 0.042,0.238 -0.116,0.465 -0.355,0.507 -0.238,0.043 -0.465,-0.116 -0.508,-0.353 m -1.83,0.995 c -0.114,-0.151 -0.086,-0.365 0.064,-0.48 0.151,-0.115 0.365,-0.085 0.48,0.064 0.305,0.401 0.671,0.721 1.053,0.925 0.167,0.089 0.229,0.295 0.142,0.462 -0.089,0.165 -0.297,0.229 -0.462,0.14 -0.47,-0.25 -0.911,-0.634 -1.277,-1.111 m -1.605,-1.815 c -3.226,-3.422 -6.565,-6.959 -10.25,-10.041 -0.167,-0.142 -0.189,-0.392 -0.048,-0.559 0.14,-0.169 0.39,-0.191 0.558,-0.05 3.719,3.114 7.074,6.668 10.317,10.106 0.151,0.159 0.143,0.41 -0.015,0.56 -0.161,0.151 -0.411,0.143 -0.562,-0.016 m 27.312,43.147 c 1.573,-2.644 2.795,-5.532 3.976,-8.324 l 1.439,-3.334 c 0.084,-0.196 0.309,-0.281 0.504,-0.197 0.195,0.085 0.283,0.316 0.2,0.512 l -1.432,3.32 c -1.192,2.817 -2.424,5.728 -4.022,8.416 -0.11,0.183 -0.347,0.244 -0.53,0.133 -0.184,-0.107 -0.243,-0.344 -0.135,-0.526 m -21.818,-18.645 -0.235,-0.4 c -0.099,-0.168 -0.043,-0.381 0.124,-0.479 0.167,-0.097 0.381,-0.043 0.479,0.125 l 0.235,0.402 c 0.099,0.166 0.042,0.38 -0.124,0.477 -0.166,0.099 -0.381,0.043 -0.479,-0.125 m 18.178,37.531 c -0.091,-0.165 -0.03,-0.37 0.135,-0.462 3.48,-1.914 6.114,-3.689 8.288,-5.583 0.14,-0.123 0.356,-0.108 0.479,0.033 0.124,0.143 0.109,0.357 -0.033,0.48 -2.211,1.928 -4.88,3.728 -8.407,5.666 -0.165,0.09 -0.372,0.03 -0.462,-0.134 m -47.364,-54.053 0.362,-1.52 c 0.218,-0.999 0.442,-2.033 0.926,-2.999 0.064,-0.127 0.217,-0.177 0.344,-0.115 0.127,0.064 0.179,0.22 0.115,0.347 -0.455,0.907 -0.662,1.864 -0.881,2.878 l -0.368,1.548 c -0.034,0.138 -0.171,0.214 -0.31,0.181 -0.138,-0.033 -0.22,-0.183 -0.188,-0.32 m 8.958,45.329 c -0.057,-0.142 0.012,-0.305 0.155,-0.363 0.746,-0.298 1.291,-0.917 1.866,-1.574 l 0.855,-0.909 c 0.106,-0.112 0.269,-0.104 0.382,10e-4 0.111,0.105 0.104,0.295 -0.002,0.407 l -0.815,0.869 c -0.594,0.676 -1.209,1.376 -2.079,1.723 -0.142,0.058 -0.304,-0.012 -0.362,-0.154 m 3.875,-5.065 0.249,-0.781 c 0.082,-0.349 0.166,-0.712 0.371,-1.05 0.095,-0.158 0.299,-0.208 0.455,-0.113 0.157,0.094 0.208,0.298 0.112,0.455 -0.15,0.248 -0.218,0.545 -0.292,0.859 l -0.308,0.94 c -0.057,0.174 -0.221,0.215 -0.396,0.159 -0.173,-0.055 -0.247,-0.293 -0.191,-0.469 m -38.084,-31.053 c 0.04,-0.058 0.121,-0.07 0.178,-0.028 0.649,0.467 1.371,0.792 2.07,1.104 l 1.159,0.548 c 0.065,0.03 0.087,0.105 0.057,0.169 -0.03,0.063 -0.111,0.089 -0.174,0.058 l -1.147,-0.542 c -0.71,-0.317 -1.446,-0.647 -2.115,-1.131 -0.056,-0.041 -0.07,-0.121 -0.028,-0.178 m 12.709,-2.3 c 0.002,-0.22 0.196,-0.396 0.416,-0.396 l 0.329,10e-4 h 0.118 c 0.221,-0.004 0.401,0.171 0.404,0.392 0.003,0.22 -0.175,0.402 -0.395,0.404 l -0.115,0.001 -0.376,-0.001 c -0.222,-0.001 -0.381,-0.18 -0.381,-0.401 m -8.785,-10.213 c 0.079,-0.172 0.281,-0.248 0.452,-0.169 2.528,1.152 5.174,2.183 7.73,3.182 l 3.961,1.569 c 0.176,0.068 0.259,0.266 0.19,0.441 -0.07,0.174 -0.272,0.259 -0.447,0.19 l -3.953,-1.563 c -2.565,-1.003 -5.219,-2.038 -7.764,-3.199 -0.172,-0.077 -0.246,-0.281 -0.169,-0.451 m 15.162,-32.04 c -0.082,-0.205 -0.094,-0.389 -0.033,-0.565 0.024,-0.074 0.102,-0.114 0.177,-0.088 0.073,0.025 0.112,0.104 0.087,0.179 -0.038,0.109 -0.028,0.228 0.028,0.369 0.03,0.072 -0.006,0.153 -0.078,0.183 -0.072,0.029 -0.152,-0.007 -0.181,-0.078 m -1.153,-1.288 -0.65,-0.567 c -0.056,-0.049 -0.072,-0.144 -0.022,-0.2 0.05,-0.057 0.127,-0.07 0.183,-0.021 l 0.677,0.592 c 0.356,0.342 0.692,0.665 1.115,0.838 0.07,0.029 0.103,0.107 0.075,0.177 -0.029,0.069 -0.107,0.103 -0.178,0.075 -0.469,-0.193 -0.841,-0.549 -1.2,-0.894 m 14.634,19.153 c -0.098,-0.116 -0.082,-0.29 0.036,-0.387 0.502,-0.419 0.829,-1.014 1.173,-1.642 0.309,-0.561 0.627,-1.14 1.092,-1.625 0.105,-0.109 0.28,-0.113 0.389,-0.008 0.109,0.107 0.114,0.28 0.008,0.391 -0.413,0.431 -0.713,0.978 -1.004,1.507 -0.357,0.646 -0.724,1.316 -1.306,1.801 -0.118,0.096 -0.292,0.081 -0.388,-0.037 m -0.078,-6.728 c -0.098,-0.086 -0.109,-0.233 -0.023,-0.331 0.086,-0.098 0.233,-0.108 0.332,-0.022 l 0.914,0.801 c 0.098,0.085 0.108,0.233 0.022,0.33 -0.086,0.099 -0.232,0.107 -0.331,0.022 z m 7.557,-4.813 c -0.145,-0.144 -0.146,-0.378 -0.002,-0.524 0.445,-0.447 0.747,-0.999 1.067,-1.584 l 0.105,-0.191 c 0.098,-0.181 0.323,-0.246 0.504,-0.148 0.178,0.099 0.245,0.325 0.145,0.504 l -0.103,0.19 c -0.331,0.606 -0.672,1.231 -1.192,1.753 -0.144,0.144 -0.379,0.144 -0.524,0 m 40.332,37.048 c 0.209,-0.699 0.63,-1.291 1.154,-1.623 0.168,-0.109 0.392,-0.058 0.498,0.111 0.11,0.168 0.058,0.391 -0.109,0.498 -0.376,0.238 -0.692,0.696 -0.851,1.224 -0.057,0.191 -0.259,0.3 -0.45,0.241 -0.191,-0.057 -0.301,-0.258 -0.242,-0.451 m 1.018,-1.283 c -0.062,-0.576 0.189,-1.157 0.772,-1.772 0.127,-0.134 0.336,-0.139 0.469,-0.012 0.134,0.124 0.138,0.335 0.012,0.468 -0.446,0.471 -0.635,0.868 -0.593,1.244 0.02,0.182 -0.113,0.345 -0.293,0.365 -0.183,0.021 -0.347,-0.11 -0.367,-0.293 m -5.998,-18.5 c 0.095,-0.138 0.297,-0.162 0.434,-0.067 l 1.569,1.077 c 0.89,0.573 1.811,1.165 2.582,1.968 0.117,0.119 0.113,0.311 -0.007,0.426 -0.121,0.117 -0.312,0.113 -0.427,-0.008 -0.724,-0.751 -1.614,-1.325 -2.475,-1.88 l -1.612,-1.107 c -0.137,-0.094 -0.157,-0.273 -0.064,-0.409 m 9.046,3.135 c 0.059,-0.666 -0.126,-1.42 -0.536,-2.175 -0.089,-0.162 -0.028,-0.365 0.134,-0.454 0.164,-0.09 0.369,-0.029 0.456,0.135 0.473,0.87 0.687,1.755 0.616,2.553 -0.016,0.186 -0.179,0.323 -0.364,0.306 -0.186,-0.017 -0.322,-0.179 -0.306,-0.365 m -1.646,-6.606 c 0.078,-0.478 -0.107,-0.915 -0.3,-1.379 -0.163,-0.381 -0.33,-0.779 -0.347,-1.215 -0.003,-0.073 0.055,-0.133 0.126,-0.136 0.073,-0.003 0.134,0.055 0.136,0.126 0.016,0.388 0.167,0.746 0.325,1.123 0.202,0.477 0.41,0.97 0.319,1.525 -0.012,0.07 -0.078,0.119 -0.151,0.107 -0.072,-0.011 -0.119,-0.079 -0.108,-0.151 m -1.46,-5.328 -0.681,-2.186 c -0.34,-1.035 -0.69,-2.107 -0.932,-3.197 -0.018,-0.076 0.03,-0.149 0.103,-0.166 0.074,-0.016 0.15,0.031 0.165,0.105 0.24,1.079 0.589,2.141 0.926,3.171 l 0.685,2.198 c 0.022,0.074 -0.018,0.147 -0.092,0.17 -0.073,0.021 -0.152,-0.023 -0.174,-0.095 m -2.889,-9.571 c -0.339,-0.967 -0.568,-1.982 -0.789,-2.967 l -0.555,-2.235 c -0.041,-0.164 0.057,-0.345 0.22,-0.385 0.165,-0.041 0.329,0.046 0.369,0.21 l 0.565,2.275 c 0.217,0.967 0.441,1.966 0.768,2.898 0.057,0.159 -0.028,0.334 -0.187,0.389 -0.16,0.057 -0.334,-0.026 -0.391,-0.185 m -2.449,-10.368 c 0.07,-0.413 -0.031,-0.823 -0.139,-1.256 l -0.176,-1.028 c -0.022,-0.126 0.065,-0.213 0.192,-0.236 0.126,-0.022 0.249,0.095 0.27,0.222 l 0.164,0.931 c 0.114,0.459 0.232,0.935 0.145,1.444 -0.021,0.126 -0.141,0.211 -0.268,0.19 -0.125,-0.022 -0.209,-0.141 -0.188,-0.267 M 6.755,-80.61 6.691,-81.545 c -0.008,-0.116 0.08,-0.217 0.196,-0.223 0.115,-0.01 0.215,0.078 0.222,0.194 l 0.064,0.937 c 0.009,0.115 -0.08,0.215 -0.195,0.222 -0.117,0.009 -0.217,-0.079 -0.223,-0.195 m -11.824,51.333 -0.105,-0.105 -0.367,-0.383 0.003,-0.054 0.002,-0.181 0.035,-0.618 c 0.002,-0.075 0.064,-0.121 0.141,-0.117 0.074,0.005 0.131,0.079 0.126,0.153 l -0.032,0.58 c 0,0 -0.001,0.076 -0.001,0.132 0.055,0.058 0.284,0.295 0.284,0.295 l 0.106,0.108 c 0.052,0.05 0.053,0.131 0.006,0.184 l -0.007,0.007 c -0.052,0.052 -0.139,0.052 -0.191,-0.001 m -14.244,-1.385 c 0.023,-0.085 0.112,-0.135 0.197,-0.112 0.086,0.023 0.136,0.111 0.112,0.197 -3.563,13.08 5.487,25.234 16.297,29.426 0.082,0.032 0.122,0.125 0.092,0.208 -0.032,0.083 -0.126,0.123 -0.209,0.091 -10.943,-4.243 -20.101,-16.553 -16.489,-29.81 m -17.879,-36.985 c -0.008,-0.115 0.083,-0.214 0.196,-0.222 l 0.287,-0.021 c 0.397,-0.032 0.809,-0.067 1.216,0.098 0.105,0.043 0.156,0.166 0.112,0.27 -0.043,0.105 -0.166,0.159 -0.269,0.113 -0.315,-0.128 -0.659,-0.099 -1.025,-0.068 l -0.301,0.021 c -0.114,0.009 -0.208,-0.078 -0.216,-0.191 m -38.156,27.529 c -0.001,-0.09 0.071,-0.165 0.161,-0.167 6.808,-0.133 12.691,-2.932 15.737,-7.488 0.051,-0.076 0.152,-0.096 0.226,-0.045 0.077,0.049 0.096,0.151 0.046,0.227 -3.106,4.645 -9.089,7.498 -16.003,7.633 -0.09,0.002 -0.165,-0.07 -0.167,-0.16 m -29.47,-26.639 c -0.039,-0.183 0.077,-0.362 0.257,-0.402 3.886,-0.841 7.947,-1.217 11.873,-1.582 l 5.485,-0.556 c 0.185,-0.019 0.356,0.115 0.375,0.3 0.019,0.185 -0.11,0.35 -0.295,0.37 l -5.502,0.558 c -3.906,0.363 -7.946,0.738 -11.792,1.569 -0.182,0.04 -0.361,-0.076 -0.401,-0.257 m 68.18,72.404 c 4.731,1.661 3.46,9.002 -0.956,9.151 -1.084,0.037 -2.652,-1.05 -3.079,-1.517 -3.281,-3.591 0.314,-8.941 4.035,-7.634 M 16.464,3.043 C 16.028,3.558 15.515,2.918 15.091,3.604 14.813,3.362 14.536,3.119 14.26,2.876 15.252,1.593 15.547,3.275 16.464,3.043 M 7.457,1.92 c 1.723,0.033 -0.645,-0.012 0,0 M 4.753,1.317 c 1.541,0.125 0.234,0.693 0,0 M -0.988,-0.18 c -1.384,-0.364 -0.078,-0.794 0,0 m -105.045,-83.088 0.167,0.145 c -3.865,3.241 -8.494,1.234 -9.153,-3.306 -0.332,-2.283 1.426,-4.448 0.831,-6.322 -0.717,-2.265 -3.134,-3.689 -4.763,-5.637 -1.02,-1.221 -1.697,-2.852 -2.621,-4.056 -0.97,-1.265 -2.824,-2.429 -1.996,-4.098 1.864,0.011 2.509,2.15 3.514,3.369 0.276,0.334 0.818,0.631 1.165,1.019 2.47,2.754 4.376,7.719 6.574,9.277 1.669,1.184 4.018,0.809 5.658,2.599 1.795,1.96 1.521,4.475 0.769,6.843 z m 4.629,8.31 0.3,-0.178 c 0.514,0.436 0.34,0.918 0.562,1.373 -1.758,1.11 -1.669,2.478 -1.933,3.89 -0.467,0.051 -0.926,0.212 -1.415,-0.062 -0.471,-2.248 -1.346,-5.613 2.308,-5.325 z M 0.566,-87.248 C 0.511,-87.296 0.455,-87.345 0.4,-87.393 l 0.118,-0.582 0.444,-0.397 c 0.193,-0.221 0.389,-0.444 0.582,-0.666 l 0.232,0.35 0.412,-0.078 c -0.066,0.579 -0.535,1.184 -0.978,1.789 l -0.231,-0.351 z m -32.24,-15.869 c 0.613,-0.189 1.207,-0.69 1.85,-0.435 0.946,0.772 -0.632,1.711 -0.146,2.516 l -0.419,-0.025 -0.182,0.379 c -0.57,-0.694 -1.358,-1.373 -1.707,-2.081 l 0.301,-0.177 z m -3.101,-22.982 c -0.31,-1.252 -1.484,-2.521 -2.809,-2.164 -0.679,0.933 -0.945,1.84 -1.851,2.788 l -0.232,-0.351 -0.412,0.081 c 1.385,-1.932 2.102,-5.756 4.596,-6.261 1.428,1.941 1.079,4.001 1.499,6.008 l -0.386,-0.128 z m 29.391,20.132 c -1.262,0.075 -1.963,0.898 -3.203,1.309 -1.238,0.411 -2.8,0.076 -3.702,0.875 -2.312,2.041 -0.052,4.348 -1.727,7.01 -3.973,-1.042 0.419,-5.603 0.895,-7.737 0.326,-1.462 -0.538,-2.98 -0.438,-4.204 0.068,-0.82 0.364,-2.303 0.749,-2.869 1.765,-2.587 5.608,-3.166 7.489,-0.501 1.111,1.575 0.004,3.662 0.061,5.638 l -0.301,0.176 z m -0.044,-31.18 c -1.129,-1.145 -0.174,-1.145 -1.227,-1.955 0.435,-2.015 -1.376,-3.878 0.227,-5.969 1.402,1.157 1.908,3.596 2.707,5.303 -0.106,0.79 -1.04,1.637 -1.249,2.435 l -0.322,-0.136 z m 1.437,7.425 c -1.322,-1.843 -1.514,-3.763 -1.166,-5.718 l 0.178,0.3 0.299,-0.176 c 1.249,1.692 1.348,3.461 1.291,5.24 l -0.42,-0.023 z m 2.496,9.236 c -1.337,-1.426 -2.472,-2.865 -1.395,-4.451 l 0.421,0.023 0.182,-0.377 c 1.951,1.49 1.215,3.158 1.103,4.785 l -0.166,-0.147 z m 2.434,8.299 c -1.581,-0.616 -1.755,-2.146 -0.852,-3.391 l 0.176,0.302 0.135,-0.323 c 0.445,0.39 0.888,0.777 1.331,1.164 -0.096,0.739 0.14,1.455 -0.477,2.227 l -0.179,-0.301 z m 1.873,6.925 c -1.276,-0.465 -3.645,-1.051 -3.64,-2.891 0.445,-1.249 1.459,-1.471 2.37,-2.038 l 0.178,0.302 0.134,-0.322 c 1.651,1.457 1.298,3.046 1.561,4.597 l -0.42,-0.024 z m 4.287,24.316 c 0.966,0.824 1.494,1.675 0.644,2.621 -0.395,0.344 -0.842,-0.078 -1.247,0.082 -0.729,-0.786 -0.556,-1.633 0.146,-2.516 l 0.321,0.135 z m -4.161,3.411 c 0.452,-4.468 5.01,-9.213 1.456,-13.416 -0.522,0.02 -1.023,0.334 -1.498,1.04 l -0.232,-0.35 -0.412,0.08 C 2.196,-90.23 2.141,-90.278 2.086,-90.327 l -0.324,-0.134 -0.323,-0.137 c 2.814,-2.973 -1.166,-4.059 -2.933,-6.384 -1.186,-1.565 -0.187,-3.682 -1.706,-4.431 0.775,-0.25 1.483,-0.764 1.456,-1.664 l 0.303,-0.176 0.134,-0.324 c 1.578,0.16 3.203,1.041 4.701,0.001 l 0.177,0.301 0.301,-0.177 c 0.895,1.423 0.827,3.869 2.227,5.18 0.762,0.715 1.463,0.564 2.434,1.246 0.65,1.809 0.088,3.491 -0.27,5.348 -0.352,1.815 -1.308,3.733 -1.519,5.428 -0.218,1.76 0.924,3.133 0.479,4.827 l -0.322,-0.138 -0.136,0.323 c -0.111,-0.096 -0.222,-0.193 -0.332,-0.291 -2.19,-0.097 -1.578,2.938 -2.848,4.265 l -0.234,-0.351 z m -43.993,-18.218 c 0.62,-0.511 0.511,-0.973 0.686,-1.455 -0.726,-0.702 -1.408,-0.737 -2.101,-0.957 -1.135,1.085 0.343,2.309 1.415,2.412 m -35.903,-35.523 c -1.135,0.059 -4.207,0.091 -5.221,1.602 -2.184,3.254 4.12,5.111 5.783,2.121 0.368,-0.661 -0.064,-2.762 -0.562,-3.723 m 50.488,52.937 c 0,0 0.184,-0.379 2.701,2.117 0.55,-1.164 -0.131,-2.448 -0.396,-3.577 -0.265,-1.139 -0.419,-2.47 -1.02,-3.536 -1.47,0.577 -2.085,2.14 -1.101,4.617 l -0.42,-0.024 c 0,0 -0.182,0.377 -0.849,-0.205 -0.826,0.644 0.135,1.625 0.667,0.582 z m -15.292,-16.269 c -4.133,2.676 0.982,7.768 3.391,6.197 1.24,-0.808 1.76,-3.568 -0.126,-4.221 -0.743,-0.26 -0.26,0.086 -0.831,-0.728 -0.554,-0.793 -1.826,-0.987 -2.434,-1.248 m 7.282,17.533 c 0.745,-0.438 1.317,-0.568 1.309,-1.497 -0.333,-0.292 -0.665,-0.583 -0.998,-0.874 -1.052,0.236 -1.916,1.497 -0.311,2.371 m 20.821,20.861 c 0.27,-1.741 -1.784,-3.328 -2.683,-4.992 -1.53,1.112 0.469,5.581 2.683,4.992 m 1.061,6.51 c 3.326,-2.136 2.022,-6.442 1.726,-9.36 1.541,-1.943 1.214,-3.657 1.643,-5.906 0.479,-2.516 1.186,-5.215 2.142,-7.822 0.984,-2.68 2.173,-4.365 1.268,-6.822 -1.551,-1.332 -3.089,-2.467 -4.597,-3.141 -0.723,1.509 -2.421,1.642 -3.41,2.891 -0.974,1.229 -0.862,3.906 -2.932,3.017 -0.968,-0.415 -1.118,-2.004 -1.77,-3.016 -0.671,-1.045 -1.846,-2.095 -2.226,-2.828 -1.302,-2.527 -0.107,-5.234 -1.247,-6.97 -3.479,3.258 -2.002,5.783 -1.103,9.32 0.405,1.587 0.527,3.995 1.103,4.785 2.099,2.875 6.485,2.583 8.57,3.972 1.413,0.942 2.196,2.692 1.353,3.826 -0.86,1.156 -2.615,0.532 -3.516,1.332 -0.815,0.725 -1.591,1.837 -0.893,3.037 0.957,1.651 2.314,1.023 3.62,2.579 1.539,1.839 1.369,5.881 -0.936,9.464 0.505,0.54 0.316,1.127 1.205,1.642 m -63.566,-29.759 c -0.3,0.934 -1.345,0.999 -1.123,1.955 -0.196,0.17 -0.223,0.328 -0.124,0.478 1.547,1.518 3.634,3.513 5.845,5.407 1.495,-0.107 3.061,0.507 4.346,-0.603 1.52,-1.314 2.007,-3.755 0.27,-5.346 -1.327,-1.217 -2.989,-0.807 -4.617,-1.102 -1.704,-0.308 -3.055,-0.767 -4.597,-0.789 m -9.505,7.841 c 3.24,-1.045 4.279,-6.147 0.477,-6.926 -3.619,0.904 -4.298,5.265 -0.477,6.926 m 7.81,-12.116 -0.011,-0.155 c 0.537,-0.978 -0.01,-1.881 0.436,-2.851 -0.248,-0.3 -1.358,-0.25 -0.685,-0.894 3.266,-1.916 6.716,-1.114 10.149,-0.521 l -0.13,0.386 0.027,0.404 c -1.959,3.04 3.876,5.731 5.783,4.473 0.762,-3.108 -2.967,-4.851 -5.471,-4.493 l 0.13,-0.385 -0.026,-0.405 c 0.578,-0.726 1.267,0.2 1.83,-0.75 0.264,-1.323 0.563,-2.648 0.208,-3.932 l 0.349,-0.23 -0.079,-0.413 c 2.901,-2.701 5.991,-2.584 9.172,-1.082 0.049,-0.056 0.098,-0.112 0.146,-0.166 l 0.323,0.134 0.302,-0.177 c -0.478,1.165 1.27,2.492 2.349,2.352 2.217,-2.3 0.453,-5.138 -0.915,-6.679 -0.048,0.055 -0.096,0.111 -0.145,0.167 l -0.322,-0.134 -0.303,0.176 c 0.093,-0.852 0.376,-2.433 -0.541,-3.411 -0.735,-0.786 -1.882,-0.733 -3.369,-1.186 -6.16,-1.872 -11.23,-4.178 -17.327,-6.05 -2.331,-0.718 -5.064,-1.977 -6.635,-0.813 -1.475,1.094 -3.038,6.094 -1.871,7.177 1.913,1.778 5.077,3.538 7.862,5.116 l -0.351,0.233 0.079,0.412 c -2.34,-0.369 -5.401,-2.482 -8.13,-4.471 -1.431,-1.041 -3.005,-1.506 -3.766,-2.413 -0.913,-1.089 -0.611,-3.56 0,-4.701 1.317,-2.461 4.298,-4.106 6.779,-4.057 3.578,0.073 8.254,2.439 12.647,4.014 4.786,1.717 9.287,3.522 12.668,4.326 0.724,-2.468 -1.271,-4.097 -1.976,-6.137 -0.418,-1.206 -0.436,-2.654 -0.894,-4.013 -0.999,-2.954 -1.292,-5.256 -1.479,-8.049 -0.093,-1.393 -0.404,-2.869 -0.437,-4.203 -0.026,-1.097 0.68,-2.236 -0.373,-3.265 l -0.167,-0.145 -0.166,-0.146 c -0.331,-1.791 -2.771,-2.872 -4.245,-2.537 -0.68,0.96 -1.734,1.183 -2.682,2.059 -3.432,3.164 -5.728,9.195 -9.318,10.65 -4.254,1.723 -7.026,-4.723 -11.44,-4.721 -4.785,2.525 -10.477,5.361 -15.227,4.308 -6.352,-1.409 -8.843,-10.175 -1.726,-11.794 2.258,-0.515 5.418,0.068 8.174,0.395 3.015,0.356 5.958,1.483 8.404,1.475 2.548,-0.006 5.119,-1.761 7.986,-2.413 4.719,-1.074 8.195,0.005 12.397,-2.08 1.719,-0.853 4.3,-2.854 4.243,-2.164 2.346,-4.313 5.698,-4.587 8.757,-4.972 2.188,-2.936 4.545,-5.769 6.967,-8.299 4.806,-5.014 10.207,-7.93 14.933,-11.025 1.471,-0.964 3.27,-3.621 5.2,-1.915 -1.986,2.638 -5.265,3.93 -8.07,5.867 -7.081,4.89 -12.902,11.333 -18.698,18.014 -0.561,3.902 -1.432,7.825 1.083,11.523 -0.171,3.143 1.805,7.512 3.079,10.92 0.95,2.538 1.206,4.348 4.078,4.741 l -0.136,0.323 0.176,0.302 c 0.328,2.762 -1.749,7.124 2.144,8.631 0.475,-1.955 0.596,-4.031 0.999,-6.177 0.335,-1.804 1.748,-4.411 -0.25,-6.095 -0.196,0.206 -0.415,0.044 -0.605,0.355 l -0.176,-0.302 -0.322,-0.134 c -0.159,-0.827 -0.984,-1.607 -1.414,-2.414 l 0.229,-0.093 0.228,-0.094 c 0.618,-0.122 1.318,0.96 1.913,0.499 3.807,-3.714 1.466,-8.342 0.748,-12.272 -0.542,-0.264 -1.491,0.431 -1.601,-0.52 0.025,-1.074 1.407,-0.117 1.476,-1.352 -1.272,-3.056 -0.98,-6.854 -4.846,-9.236 0.093,-1.005 0.984,-1.88 1.913,-1.85 3.682,3.514 1.991,7.388 4.493,10.982 2.454,0.109 2.815,-2.792 3.306,-4.452 0.594,-1.998 1.428,-4.122 1.186,-5.721 -2.933,-2.407 -4.67,-5.783 -4.326,-8.486 0.639,-5.048 6.202,-6.035 8.652,-1.83 1.305,2.238 0.561,5.437 -0.894,7.737 -0.531,0.84 -1.37,1.464 -1.871,2.475 -0.855,1.722 -0.896,3.837 -1.352,5.575 -0.497,1.897 -0.466,4.437 -1.351,5.574 -0.593,0.764 -1.71,0.666 -2.392,1.727 -0.919,1.428 -0.125,4.115 0.977,5.263 0.099,-0.094 0.198,-0.176 0.312,-0.021 l 0.178,0.302 0.321,0.134 c -2.204,3.491 -1.586,6.791 -1.828,10.152 0.166,0.144 0.332,0.29 0.498,0.435 l -0.35,0.234 0.081,0.411 c -1.306,1.75 -1.388,3.822 -1.665,5.596 -0.295,1.889 -0.448,3.748 -0.873,5.699 1.119,1.688 3.392,2.217 5.678,2.912 3.752,1.14 7.833,2.514 10.671,0.227 -0.241,-0.557 -0.769,-1.097 -1.206,-1.642 l 0.35,-0.233 -0.081,-0.413 c 0.944,-0.107 0.394,-1.067 0.521,-1.6 l 0.385,0.13 0.405,-0.027 c 0.932,1.536 0.332,3.09 1.249,4.618 0.584,0.975 1.833,2.053 2.724,3.264 0.904,1.23 1.783,2.576 2.726,3.266 1.841,1.349 6.412,2.347 7.966,1.976 1.812,-0.433 2.723,-2.316 4.327,-0.916 1.867,1.632 -0.478,3.789 -0.728,5.533 1.544,1.249 3.092,2.511 4.619,3.453 2.733,-0.631 2.544,-4.073 4.451,-6.095 l 0.175,0.302 0.303,-0.177 c 0.216,0.143 0.41,-0.105 0.602,-0.354 l 0.232,0.35 0.412,-0.079 c -0.721,2.84 -4.373,6.366 -2.682,9.109 0.619,1.004 2.24,2.252 3.453,2.435 0.098,-0.11 0.194,-0.222 0.291,-0.332 l 0.232,0.349 0.412,-0.08 c -0.816,2.247 2.166,5.091 3.142,7.155 3.275,6.916 2.001,15.825 -5.886,22.173 l 0.025,-0.419 -0.377,-0.185 c 6.792,-6.877 7.615,-13.355 5.428,-19.635 -0.301,-0.758 -0.811,-0.553 -1.457,-0.686 1.071,-1.573 -0.481,-4.253 -2.164,-4.242 -0.144,0.166 -0.291,0.333 -0.436,0.499 l -0.233,-0.352 -0.412,0.081 c -0.218,-0.247 0.2,-0.536 0.415,-0.81 -0.058,-1.565 -0.793,-3.082 -2.807,-4.514 -2.175,0.736 -2.735,4.459 -3.266,7.426 -0.523,2.928 -1.51,7.097 10e-4,9.4 0.147,-0.166 0.309,-0.079 0.458,-0.186 l 0.177,0.3 0.322,0.136 c -0.752,1.705 -2.001,4.719 -3.078,7.883 -1.352,3.979 -4.192,7.907 -0.894,10.088 l -0.024,0.42 0.379,0.183 c -0.262,3.152 2.455,6.104 4.056,9.131 1.484,0.319 2.955,0.439 4.43,0.645 5.339,3.353 1.177,7.496 1.998,11.149 0.366,1.628 2.602,5.264 3.578,6.655 1.666,2.372 4.074,4.137 4.805,6.261 1.419,4.122 -2.984,8.664 -6.594,4.513 -2.09,-2.404 -0.456,-6.24 -1.102,-9.484 -0.35,-1.753 -1.891,-5.088 -3.1,-6.531 -1.049,-1.251 -2.384,-1.895 -3.162,-2.766 -2.55,-2.854 -2.511,-5.402 -2.288,-8.465 l 0.323,0.135 -0.177,-0.303 c 0.208,-0.222 0.242,-0.433 0.269,-0.643 -0.109,-0.08 -0.219,-0.149 -0.31,0.02 l -0.178,-0.302 -0.135,0.322 c -1.799,-2.804 -2.634,-5.673 -4.327,-8.485 -3.902,-0.315 -5.555,5.943 -9.151,8.446 l -0.177,-0.302 -0.136,0.322 c -0.124,-0.056 -0.203,-0.248 -0.333,-0.291 -3.546,-1.183 -6.26,-3.01 -5.241,-5.761 1.35,-3.652 6.411,-2.61 7.425,-6.137 1.307,-0.388 1.89,0.035 2.912,-0.978 1.969,-1.953 0.833,-5.871 -0.666,-7.632 -0.576,-0.677 -1.553,-0.965 -2.144,-1.581 -1.835,-1.921 -1.329,-4.783 -2.911,-6.074 0.005,-1.158 2.096,-0.838 1.269,-2.122 -1.346,0.198 -2.668,0.717 -4.056,0.272 -0.745,-1.114 -0.181,-1.856 -1.124,-2.746 -2.216,-2.09 -6.949,-0.135 -9.339,0.937 -0.858,0.41 -1.733,2.355 -3.058,1.144 -0.371,-1.134 1.512,-1.48 1.581,-2.144 -0.26,-1.339 -0.499,-2.681 -0.894,-4.013 l 0.3,-0.177 -0.175,-0.302 c 0.994,-1.602 1.239,-3.792 -0.168,-4.847 -2.501,-1.873 -5.076,2.858 -0.935,4.764 l -0.136,0.322 0.324,0.136 c -1.399,3.767 -5.201,2.56 -7.593,3.64 -0.224,1.154 0.97,1.805 1.435,2.725 0.895,1.767 1.43,3.811 1.935,5.511 -0.319,-0.578 -0.544,-0.808 -1.102,-0.082 l -0.232,-0.35 -0.412,0.08 c -0.173,-2.079 -0.669,-4.134 -1.977,-6.136 -0.564,-0.623 -1.069,-0.357 -1.602,-0.52 -0.485,-0.842 -0.283,-1.006 -0.894,-1.665 -3.927,-4.235 -9.773,0.464 -5.928,5.098 0.637,-0.618 0.512,-1.185 1.289,-1.81 1.727,-0.778 3.012,1.06 2.039,2.371 -0.623,0.838 -1.49,0.464 -2.454,0.79 1.165,2.742 3.457,5.41 5.555,8.09 l -0.136,0.323 0.322,0.135 c -0.577,0.821 -0.458,1.598 -0.936,2.413 1.958,2.261 4.12,6.04 7.218,7.196 2.859,-2.643 -0.099,-4.836 -1.416,-7.114 -0.978,-1.694 -0.942,-3.676 -2.204,-4.866 l -0.177,-0.302 -0.322,-0.134 c 0.341,-0.755 0.871,-1.522 1.102,-2.268 l 0.323,0.134 0.322,0.136 c 0.887,0.772 1.679,0.108 2.517,0.145 0.28,0.464 1,2.196 1.623,0.833 0.936,0.536 -0.742,0.671 -0.25,0.956 0.855,1.562 1.721,3.275 2.537,5.158 0.807,1.856 1.416,4.191 2.706,5.304 0.716,0.62 1.579,0.111 1.955,1.123 -2.446,1.761 0.067,4.112 -2.267,5.949 -1.155,0.91 -3.408,0.002 -4.763,-0.936 -3.561,-2.461 -7.549,-7.418 -9.611,-10.17 -0.918,-0.523 -1.656,0.729 -2.163,0.458 -2.757,0.16 -5.735,-2.974 -8.487,-2.725 -0.145,0.167 -0.29,0.334 -0.436,0.5 l -0.166,-0.146 -0.146,0.166 c 1.152,-1.69 -1.686,-2.678 -3.702,-3.825 -1.552,-0.883 -2.766,-1.474 -3.891,-1.936 -7.925,-3.252 -16.054,-4.552 -23.13,-6.133 -4.998,-1.117 -10.077,-2.356 -15.267,-3.369 -5.188,-1.012 -10.917,-1.402 -15.163,0.542 -3.176,1.455 -5.535,4.478 -8.841,1.373 0.366,-4.131 4.651,-3.605 7.26,-3.932 4.347,-0.541 8.861,-0.828 12.895,-1.645 1.25,-0.253 2.956,-0.296 3.827,-1.351 0.35,0.549 0.637,0.143 0.979,0.561 l 0.004,0.403 0.348,0.201 c -0.978,0.705 -2.769,0.088 -3.203,1.31 0.18,0.25 0.112,0.516 0.521,0.749 11.453,1.772 22.986,4.759 34.445,6.633 0.745,-0.579 2.111,-1.699 2.33,-2.662 -0.581,-0.855 -1.017,0.412 -1.602,-0.521 -1.107,-1.617 1.17,-2.767 2.413,-1.414 0.575,-1.95 0.533,-4.59 -1.956,-5.824 -0.963,-0.212 -1.888,1.339 -2.392,1.727 -4.6,-1.608 -9.082,-1.475 -13.604,-1.912 l 0.025,-0.42 -0.378,-0.184 c 0.097,-0.111 0.194,-0.222 0.291,-0.333 -0.195,-1.567 -2.231,-1.645 -3.183,-3.079 -0.86,-1.297 -0.278,-3.345 0.791,-4.596 0.567,-0.662 1.875,-1.141 2.849,-1.915 0.742,-0.588 1.141,-1.338 1.769,-1.683 2.336,-1.29 5.443,-0.249 6.656,-1.228 -0.094,-0.568 0.83,-1.204 0.352,-1.747 z m 78.942,-59.17 c 2.116,1.784 -1.119,5.785 -3.224,3.348 -2.09,-2.423 1.442,-4.852 3.224,-3.348 m 1.039,6.199 c 1.254,0.938 -0.404,3.043 -1.455,1.663 -1.014,-1.333 0.52,-2.367 1.455,-1.663 m 4.702,9.4 c 0.247,0.244 0.597,0.482 0.208,0.769 -0.11,-0.097 -0.221,-0.194 -0.332,-0.291 0.147,-0.167 0.038,-0.317 0.124,-0.478 m -5.18,-2.475 c 0.428,-0.318 0.832,-0.16 1.582,0.208 1.112,3.21 -3.881,1.496 -1.582,-0.208 m -9.235,-6.905 c 1.413,0.982 0.954,2.638 -0.249,3.307 -1.592,-0.384 -1.372,-3.199 0.249,-3.307 m 10.381,12.313 c 0.222,0.193 0.443,0.388 0.665,0.583 -0.029,0.315 -0.171,0.636 -0.561,0.977 -0.282,-0.313 -0.532,-0.134 -0.812,-0.416 0.014,-0.607 0.056,-0.819 0.708,-1.144 m 2.079,5.345 c 0.147,-0.167 0.292,-0.333 0.438,-0.499 1.358,0.796 2.523,-1.341 3.951,0.52 0.189,1 -0.73,2.05 -1.746,1.996 -0.869,-1.285 -2.294,-1.028 -2.643,-2.017 m -16.994,-12.812 c 1.188,-0.166 2.417,1.489 0.79,2.455 -1.209,0.169 -2.251,-1.501 -0.79,-2.455 m 26.835,35.816 c 0.754,-0.672 0.12,1.786 0.02,0.313 -0.009,-0.15 -0.218,-0.137 -0.02,-0.313 m -31.035,-25.977 c -0.422,0.414 -1.621,0.558 -1.915,-0.498 -0.358,-2.797 3.537,-1.089 1.915,0.498 m -26.543,-22.045 c 0.167,0.145 0.333,0.291 0.499,0.436 -0.285,0.421 -0.587,0.591 -0.914,0.374 0.143,-0.27 0.041,-0.525 0.415,-0.81 m 14.936,14.827 c -0.129,0.22 -0.043,0.422 0.04,0.626 -0.429,0.58 -0.896,0.627 -1.392,0.249 -0.183,-0.72 0.619,-1.553 1.352,-0.875 m 8.965,9.902 c 0.406,-0.022 0.8,0.322 0.833,0.728 -0.338,0.439 -0.713,0.297 -1.083,0.229 0.288,-0.333 -0.269,-0.609 0.25,-0.957 m -16.765,-14.081 c -0.099,0.112 -0.194,0.222 -0.292,0.333 -0.79,0.285 -0.373,-1.209 0.292,-0.333 m 21.134,18.489 c 0.861,0.519 0.663,1.106 0.27,1.706 -1.171,0.374 -1.56,-1.504 -0.27,-1.706 m -12.211,-6.862 c 0.218,0.128 0.421,0.042 0.623,-0.042 0.562,0.275 0.047,0.623 0.376,0.915 -0.681,0.843 -1.743,-0.086 -0.999,-0.873 m 21.903,18.282 c 1.673,0.086 2.172,2.242 0.355,2.951 -1.79,0.09 -2.223,-2.346 -0.355,-2.951 m -20.446,-15.246 c 0.167,0.146 0.333,0.291 0.499,0.437 -0.098,0.112 -0.195,0.222 -0.292,0.334 -0.166,-0.146 -0.333,-0.291 -0.499,-0.437 0.097,-0.111 0.195,-0.221 0.292,-0.334 m -17.745,-14.641 c 0.272,0.144 0.527,0.041 0.812,0.416 -0.333,0.476 -0.686,0.662 -1.081,0.227 0.207,-0.222 0.241,-0.432 0.269,-0.643 m -6.343,-5.845 c -0.422,0.718 -0.907,0.505 -1.414,-0.063 0.428,-0.917 1.344,-0.692 1.414,0.063 m 61.696,53.389 c 0.161,0.673 0.22,1.448 -0.666,1.77 -2,-0.373 -0.707,-2.724 0.666,-1.77 m -34.634,-28.244 c 0.365,-0.02 0.753,0.327 1.145,0.707 -0.469,0.554 -0.084,1.051 -0.833,1.622 -0.7,-0.737 -0.985,-1.5 -0.312,-2.329 m -29.351,-24.21 c 0.333,0.288 0.61,-0.268 0.958,0.252 0.489,0.646 0.029,1.356 -0.333,2.057 -1.079,-0.164 -1.748,-1.495 -0.625,-2.309 m 43.165,38.645 c 0.221,0.193 0.442,0.388 0.664,0.581 -0.194,0.222 -0.388,0.444 -0.582,0.667 -0.912,0.116 -1.003,-1.242 -0.082,-1.248 m -12.358,-11.398 c 0.591,0.274 0.226,0.612 0.688,0.895 -0.244,0.276 -0.487,0.555 -0.73,0.832 -0.281,-0.313 -0.531,-0.134 -0.81,-0.416 -0.295,-0.438 0.3,-1.277 0.852,-1.311 m 1.643,5.845 c 0.478,-0.68 0.989,-0.861 1.541,-0.416 -0.077,0.161 -0.031,0.316 0.186,0.457 -0.242,0.278 -0.484,0.554 -0.728,0.833 -0.412,0.041 -0.985,-0.461 -0.999,-0.874 m -28.871,-26.435 c 0.814,0.677 0.513,1.427 -0.166,2.205 -0.957,-0.06 -0.942,-2.006 0.166,-2.205 m 2.413,3.287 c 0.626,0.48 0.661,1 0.104,1.558 -0.322,-0.128 -0.636,-0.119 -0.957,-0.249 -0.046,-0.455 0.181,-1.266 0.853,-1.309 m -1.851,0.435 c -0.029,0.316 -0.17,0.639 -0.562,0.979 -0.222,-0.194 -0.444,-0.389 -0.665,-0.582 0.384,-0.506 0.774,-0.926 1.227,-0.397 m 55.395,50.521 c 0.11,0.097 0.221,0.193 0.332,0.291 -0.178,0.221 0.011,0.416 -0.27,0.644 C 7.702,-76.6 7.536,-76.746 7.37,-76.891 Z m -47.492,-42.429 c 0.38,0.206 0.734,0.006 1.124,0.396 -0.022,0.471 -0.045,0.943 -0.685,1.455 -0.964,-0.05 -1.459,-1.179 -0.439,-1.851 m -10.358,-9.649 c 0.438,0.334 0.286,0.712 0.541,1.06 -0.572,0.829 -1.196,0.872 -1.871,0.123 -0.028,-0.671 0.84,-1.222 1.33,-1.183 m -3.743,0.248 c -0.195,0.221 -0.389,0.444 -0.583,0.666 -0.166,-0.147 -0.333,-0.292 -0.499,-0.438 0.334,-0.474 0.673,-0.881 1.082,-0.228 m 40.833,36.605 c 0.406,-0.158 0.815,-0.307 1.268,0.23 0.019,0.363 -0.327,0.753 -0.706,1.142 -0.163,-0.074 -0.334,-0.281 -0.479,-0.123 -0.405,-0.392 -0.434,-0.808 -0.083,-1.249 m -6.907,-11.919 c 3.218,1.876 0.138,4.171 -0.519,6.303 -0.29,-1.607 -1.981,-1.377 -3.1,-1.829 0,-1.695 1.392,-4.832 3.619,-4.474 m -17.222,-9.191 c 1.07,-0.431 2.51,0.392 3.243,1.664 -1.276,2.052 -4.271,0.088 -3.243,-1.664 m 18.47,16.159 c 0.566,-0.123 1.144,-0.061 1.768,0.667 0.212,2.438 -3.767,1.274 -1.768,-0.667 m -28.101,-24.291 c 0.232,0.474 0.104,1.385 -0.687,1.456 -0.222,-0.194 -0.444,-0.389 -0.667,-0.583 -0.026,-0.683 0.841,-1.198 1.354,-0.873 m -5.992,-2.892 c 0.429,0.338 0.825,0.677 0.853,1.041 -1.189,2.155 -2.843,-0.578 -0.853,-1.041 m 58.514,55.014 c 0.681,-0.774 1.508,-0.051 0.833,0.728 -0.406,0.021 -0.801,-0.325 -0.833,-0.728 m 5.034,2.641 c 1.834,1.207 -0.824,3.619 -1.768,1.683 -0.771,-1.58 0.923,-2.24 1.768,-1.683 m -2.391,6.427 c 0.617,0.166 0.821,0.074 1.143,0.707 -0.337,0.429 -0.675,0.823 -1.039,0.852 -0.625,-0.481 -0.661,-1 -0.104,-1.559 m 9.319,8.152 c 1.124,0.76 1.179,1.594 0.167,2.496 -1.842,0.338 -2.038,-2.585 -0.167,-2.496 M -8.522,-73.166 c 1.258,1.104 -1.128,3.636 -2.079,1.706 -0.782,-1.582 1.111,-2.555 2.079,-1.706 M 7.35,-51.348 c 0.315,0.029 0.637,0.171 0.977,0.561 -0.207,0.223 -0.241,0.434 -0.269,0.645 -0.38,-0.207 -0.718,0.213 -1.124,-0.396 0.312,-0.28 0.133,-0.531 0.416,-0.81 m -0.769,4.908 c 0.331,0.288 0.607,-0.268 0.956,0.251 0.6,0.534 0.303,1.127 -0.352,1.747 -1.065,0.057 -1.72,-1.069 -0.604,-1.998 m -2.539,6.595 c 0.72,0.21 0.815,0.58 1.02,1.185 -1.17,1.856 -2.604,-0.777 -1.02,-1.185 m -2.225,4.221 c 0.675,-0.179 1.586,0.618 1.498,1.311 -0.914,1.765 -3.234,-0.094 -1.498,-1.311 m -25.439,-19.611 c 0.515,-0.112 1.035,-0.146 1.56,-0.105 2.311,2.785 -3.514,3.174 -1.56,0.105 m 23.817,23.481 c 0.337,-0.43 0.677,-0.825 1.041,-0.853 0.626,0.481 0.66,1 0.104,1.56 -0.618,-0.166 -0.821,-0.074 -1.145,-0.707 m -19.094,-18.47 c 0.465,-0.337 1.074,-0.359 1.913,0.5 -0.171,3.132 -3.75,0.834 -1.913,-0.5 m -5.43,-1.517 c 0.62,0.489 0.892,1.292 -0.311,2.37 -2.831,-0.017 -1.274,-3.621 0.311,-2.37 m -12.065,-7.028 c -1.048,1.049 -3.123,-0.483 -1.392,-2.103 1.615,-0.282 2.209,1.286 1.392,2.103 m 1.977,3.784 c -0.077,0.162 -0.029,0.316 0.187,0.458 -0.207,0.65 -0.694,1.206 -1.31,1.498 -2.6,-0.408 -0.651,-4.179 1.123,-1.956 m 6.012,7.904 c 0.368,0.033 0.72,-0.154 1.082,-0.23 2.971,2.59 -3.136,3.241 -1.082,0.23 M 18.96,0.526 c -0.098,0.111 -0.194,0.222 -0.292,0.333 -0.79,0.284 -0.374,-1.21 0.292,-0.333 M -8.768,-15.8 c 0.753,-0.574 1.533,-0.011 1.622,0.832 -0.243,0.277 -0.485,0.555 -0.728,0.832 -0.88,0.039 -1.449,-0.817 -0.894,-1.664 m -28.019,-18.344 c 0.406,0.392 0.433,0.807 0.083,1.248 -0.316,-0.029 -0.638,-0.17 -0.977,-0.562 0.272,-0.683 0.307,-0.507 0.894,-0.686 m -36.006,-32.383 c 1.23,0.201 2.641,1.518 1.122,2.746 -1.482,0.131 -2,-1.759 -1.122,-2.746 m 23.255,22.11 c 0.991,0.717 1.152,1.489 0.312,2.329 -0.161,-0.077 -0.315,-0.031 -0.458,0.187 -1.837,-0.204 -1.385,-2.564 0.146,-2.516 m -8.402,-1.477 c 0.192,-0.236 0.397,-0.297 0.602,-0.354 0.483,0.333 0.345,0.709 -0.083,1.103 -0.301,-0.241 -0.485,-0.49 -0.519,-0.749 M -6.499,1.754 c 0.505,0.385 0.926,0.775 0.395,1.228 C -6.419,2.953 -6.742,2.811 -7.083,2.42 -6.889,2.198 -6.693,1.976 -6.499,1.754 m -59.679,-51.329 c 0.146,-0.167 0.291,-0.333 0.437,-0.5 0.753,-0.004 1.4,0.949 0.416,1.541 -0.43,-0.338 -0.823,-0.677 -0.853,-1.041 m 5.408,5.907 c 0.718,0.422 0.505,0.907 -0.062,1.414 -0.223,-0.207 -0.433,-0.241 -0.645,-0.27 0.026,-0.434 0.036,-1.114 0.707,-1.144 m 49.071,44.987 c 0.111,0.097 0.221,0.194 0.333,0.29 -0.025,0.403 -0.177,0.563 -0.604,0.354 0.178,-0.22 -0.012,-0.418 0.271,-0.644 M -67.842,-46.33 c 0.167,0.145 0.333,0.291 0.499,0.437 -0.288,0.389 -0.599,0.41 -0.935,0.061 0.145,-0.166 0.291,-0.332 0.436,-0.498 m 18.055,16.971 c 0.489,-0.495 1.011,-0.53 1.56,-0.104 -0.287,0.333 0.27,0.609 -0.249,0.957 -0.357,0.117 -0.711,0.31 -1.102,-0.083 -0.203,-0.248 -0.042,-0.52 -0.209,-0.77 m 27.125,23.732 c -1.966,1.797 -1.125,-2.277 0,0 M -40.509,-19.48 c 0.166,0.146 0.333,0.292 0.499,0.438 -0.145,0.166 -0.291,0.332 -0.436,0.499 -0.112,-0.097 -0.223,-0.195 -0.333,-0.291 0.176,-0.222 -0.012,-0.418 0.27,-0.646 m -32.97,-24.437 c -0.527,0.719 -1.068,1.215 -1.663,0.895 0.205,-0.841 0.989,-0.766 1.663,-0.895 m -6.157,-5.386 c -0.028,0.367 0.163,0.72 -0.083,1.102 -0.833,0.034 -1.656,0.219 -2.516,-0.145 0.249,-1.155 1.747,-1.288 2.599,-0.957 m 37.506,38.393 c 0.316,0.03 0.638,0.171 0.977,0.562 0.042,0.411 -0.459,0.984 -0.873,0.999 -0.626,-0.481 -0.661,-1.002 -0.104,-1.561 m -5.097,-3.576 c 0.112,0.096 0.222,0.194 0.332,0.29 -0.146,0.167 -0.038,0.317 -0.124,0.479 -0.22,-0.177 -0.417,0.011 -0.644,-0.271 0.145,-0.166 0.291,-0.332 0.436,-0.498 m -2.912,-3.723 c 1.366,-0.693 3.285,1.443 1.436,2.724 -1.487,0.506 -2.876,-1.366 -1.436,-2.724 m -28.726,-24.252 c 0.706,0.527 0.621,1.108 -0.042,1.726 -1.321,-0.115 -1.059,-1.791 0.042,-1.726 m -7.031,-4.388 c 0.477,-0.013 1.622,0.813 0.874,1.352 -0.686,0.299 -1.467,-0.711 -0.874,-1.352 m 40.147,42.762 c 0.584,-0.52 0.967,-0.399 1.269,0.229 -0.403,0.836 -1.232,0.375 -1.269,-0.229 m -13.605,-8.964 c 0.388,-0.678 1.106,-0.087 1.124,0.395 -0.388,0.678 -1.106,0.086 -1.124,-0.395 m 10.777,13.54 c 0.623,-1.024 2.002,0.044 2.245,0.79 -0.194,0.222 -0.388,0.444 -0.582,0.666 -0.525,-0.011 -1.582,-0.937 -1.663,-1.456 m 3.66,5.553 c 0.713,-0.103 2.174,0.441 1.664,1.456 -0.726,0.464 -2.564,-0.352 -1.664,-1.456 M -62.035,3.111 c 0.218,0.128 0.42,0.041 0.625,-0.042 0.815,0.625 0.894,1.299 0.29,2.017 -1.155,0.658 -2.354,-0.839 -0.915,-1.975 m 7.739,5.595 c 2.07,1.543 -1.142,4.999 -2.518,2.205 -0.821,-1.667 1.102,-3.26 2.518,-2.205 m -9.84,-4.202 c -0.242,0.295 -0.501,0.315 -0.769,0.209 -0.026,-0.451 0.319,-0.859 0.769,-0.209 m -6.281,2.143 c 0.166,0.146 0.333,0.292 0.499,0.437 -0.097,0.111 -0.194,0.223 -0.291,0.333 -0.167,-0.145 -0.333,-0.292 -0.5,-0.437 0.098,-0.11 0.194,-0.222 0.292,-0.333 m -4.909,-3.119 c 0.667,0.426 0.733,0.891 0.56,1.372 -0.161,-0.076 -0.314,-0.029 -0.457,0.187 l -0.665,-0.581 c 0.03,-0.316 0.17,-0.639 0.562,-0.978 m 3.266,9.027 c 0.642,-1.182 1.892,0.24 0.686,0.894 -0.433,-0.284 -0.615,-0.586 -0.686,-0.894 m -1.207,0.707 c 0.244,-0.277 0.486,-0.555 0.729,-0.832 -0.029,-0.364 -0.424,-0.703 -0.853,-1.04 -1.24,0.224 -1.053,1.766 0.124,1.872"
             style="fill:#262626;fill-opacity:1;fill-rule:nonzero;stroke:none"
             id="path58"
             inkscape:connector-curvature="0" />
        </g>
      </g>
    </g>
  </g>
</svg>
