<?xml version="1.0" encoding="UTF-8" standalone="no"?>
<!-- Created with Inkscape (http://www.inkscape.org/) -->

<svg
   xmlns:dc="http://purl.org/dc/elements/1.1/"
   xmlns:cc="http://creativecommons.org/ns#"
   xmlns:rdf="http://www.w3.org/1999/02/22-rdf-syntax-ns#"
   xmlns:svg="http://www.w3.org/2000/svg"
   xmlns="http://www.w3.org/2000/svg"
   xmlns:sodipodi="http://sodipodi.sourceforge.net/DTD/sodipodi-0.dtd"
   xmlns:inkscape="http://www.inkscape.org/namespaces/inkscape"
   width="44.332119mm"
   height="47.938049mm"
   viewBox="0 0 44.332119 47.938049"
   version="1.1"
   id="svg4264"
   inkscape:version="0.92.2 2405546, 2018-03-11"
   sodipodi:docname="paint07.svg">
  <defs
     id="defs4258">
    <clipPath
       clipPathUnits="userSpaceOnUse"
       id="clipPath66">
      <path
         d="M 0,600 H 600 V 0 H 0 Z"
         id="path64"
         inkscape:connector-curvature="0" />
    </clipPath>
  </defs>
  <sodipodi:namedview
     id="base"
     pagecolor="#ffffff"
     bordercolor="#666666"
     borderopacity="1.0"
     inkscape:pageopacity="0.0"
     inkscape:pageshadow="2"
     inkscape:zoom="0.35"
     inkscape:cx="8.5714106"
     inkscape:cy="560.00001"
     inkscape:document-units="mm"
     inkscape:current-layer="layer1"
     showgrid="false"
     fit-margin-top="0"
     fit-margin-left="0"
     fit-margin-right="0"
     fit-margin-bottom="0"
     inkscape:window-width="3840"
     inkscape:window-height="2095"
     inkscape:window-x="0"
     inkscape:window-y="0"
     inkscape:window-maximized="1" />
  <metadata
     id="metadata4261">
    <rdf:RDF>
      <cc:Work
         rdf:about="">
        <dc:format>image/svg+xml</dc:format>
        <dc:type
           rdf:resource="http://purl.org/dc/dcmitype/StillImage" />
        <dc:title></dc:title>
      </cc:Work>
    </rdf:RDF>
  </metadata>
  <g
     inkscape:label="Layer 1"
     inkscape:groupmode="layer"
     id="layer1"
     transform="translate(-4.7666654e-6,-249.06195)">
    <g
       transform="matrix(0.35277777,0,0,-0.35277777,-105.8268,371.69502)"
       id="g60">
      <g
         id="g62"
         clip-path="url(#clipPath66)">
        <g
           id="g68"
           transform="translate(378.3076,224.6455)">
          <path
             d="m 0,0 c -0.045,-0.044 -0.045,-0.114 0,-0.159 l 0.504,-0.504 c 0.044,-0.044 0.115,-0.045 0.158,0 0.045,0.045 0.046,0.114 0.001,0.159 L 0.158,0 C 0.114,0.044 0.043,0.045 0,0 M -2.995,2.787 C -3.048,2.76 -3.069,2.693 -3.04,2.641 c 0.195,-0.365 0.518,-0.62 0.829,-0.87 0.249,-0.197 0.505,-0.401 0.691,-0.656 0.035,-0.049 0.103,-0.058 0.152,-0.023 0.049,0.035 0.059,0.104 0.024,0.153 -0.203,0.278 -0.47,0.492 -0.73,0.698 -0.309,0.246 -0.6,0.477 -0.774,0.801 -0.028,0.053 -0.093,0.072 -0.147,0.043 M -8.009,5.799 C -8.125,5.784 -8.206,5.678 -8.192,5.562 c 0.016,-0.116 0.121,-0.198 0.237,-0.183 0.222,0.029 0.441,-0.017 0.676,-0.063 0.265,-0.052 0.539,-0.107 0.84,-0.062 0.116,0.017 0.195,0.125 0.177,0.24 -0.016,0.116 -0.125,0.195 -0.24,0.178 -0.227,-0.034 -0.454,0.011 -0.694,0.059 -0.256,0.052 -0.523,0.106 -0.813,0.068 m -30.491,106.947 -0.893,-1.752 c -0.566,-1.164 -1.151,-2.367 -1.985,-3.386 -0.064,-0.078 -0.053,-0.194 0.025,-0.258 0.079,-0.064 0.195,-0.053 0.258,0.026 0.862,1.052 1.457,2.276 2.031,3.457 l 0.885,1.734 c 0.046,0.091 0.014,0.206 -0.076,0.252 -0.091,0.046 -0.198,0.017 -0.245,-0.073 M -49.492,29.308 c -0.2,-0.135 -0.229,-0.444 -0.095,-0.647 l 0.236,-0.355 0.266,-0.4 c 0.136,-0.201 0.382,-0.219 0.584,-0.086 0.201,0.135 0.23,0.445 0.098,0.647 l -0.197,0.299 -0.307,0.457 c -0.136,0.201 -0.382,0.219 -0.585,0.085 m -0.183,-4.489 c -0.071,-0.209 -0.297,-0.321 -0.504,-0.253 l 0.504,-0.168 c 0.208,-0.068 0.434,0.043 0.504,0.252 0.068,0.209 -0.044,0.436 -0.253,0.505 l -0.503,0.168 c 0.207,-0.07 0.321,-0.295 0.252,-0.504 m 0.853,6.931 c -0.207,-0.114 -0.285,-0.368 -0.17,-0.577 l 0.379,-0.684 c 0.287,-0.507 0.559,-0.986 0.763,-1.504 0.088,-0.219 0.338,-0.328 0.558,-0.24 0.22,0.088 0.328,0.337 0.24,0.557 -0.226,0.572 -0.525,1.099 -0.815,1.611 l -0.368,0.664 c -0.115,0.207 -0.379,0.289 -0.587,0.173 m 10.58,8.898 -0.482,-1.79 c -0.747,-2.811 -1.519,-5.717 -2.905,-8.38 -0.042,-0.08 -0.013,-0.176 0.066,-0.217 0.08,-0.04 0.175,-0.01 0.216,0.068 1.404,2.695 2.181,5.619 2.933,8.446 l 0.48,1.788 c 0.024,0.086 -0.026,0.174 -0.112,0.198 -0.086,0.022 -0.173,-0.028 -0.196,-0.113 m 1.361,6.009 c -0.339,-0.465 -0.421,-0.986 -0.501,-1.489 -0.058,-0.38 -0.116,-0.736 -0.274,-1.064 -0.055,-0.11 -0.009,-0.243 0.101,-0.296 0.111,-0.055 0.243,-0.009 0.297,0.101 0.189,0.388 0.255,0.794 0.317,1.189 0.074,0.473 0.144,0.919 0.419,1.298 0.073,0.099 0.05,0.239 -0.049,0.311 -0.099,0.071 -0.238,0.05 -0.31,-0.05 m 6.439,-11.52 c -1.238,-1.805 -2.371,-3.808 -3.468,-5.745 L -35.995,25.8 c -0.099,-0.168 -0.045,-0.39 0.124,-0.487 0.169,-0.098 0.381,-0.049 0.478,0.121 l 2.097,3.609 c 1.089,1.925 2.215,3.915 3.436,5.694 0.11,0.162 0.069,0.381 -0.092,0.492 -0.16,0.11 -0.381,0.068 -0.49,-0.092 m 45.151,14.972 -0.26,-1.294 -0.244,-1.226 c -0.026,-0.13 0.057,-0.265 0.188,-0.291 0.129,-0.026 0.254,0.05 0.281,0.181 l 0.503,2.518 c 0.025,0.13 -0.057,0.266 -0.187,0.292 -0.131,0.026 -0.255,-0.049 -0.281,-0.18 M 10.846,38.044 c -0.349,-0.815 -0.67,-1.701 -1.014,-2.791 -0.036,-0.11 0.025,-0.228 0.136,-0.263 0.11,-0.034 0.227,0.027 0.262,0.137 0.339,1.075 0.658,1.95 1,2.752 0.046,0.106 -0.003,0.229 -0.109,0.275 -0.106,0.045 -0.23,-0.004 -0.275,-0.11 M 8.882,33.271 8.217,31.437 C 5.253,23.233 2.189,14.751 -3.899,8.688 -4.011,8.577 -4.011,8.396 -3.9,8.285 c 0.11,-0.11 0.29,-0.111 0.401,0 6.18,6.153 9.266,14.695 12.251,22.959 l 0.663,1.833 c 0.054,0.148 -0.022,0.311 -0.17,0.365 -0.147,0.053 -0.309,-0.023 -0.363,-0.171 m -45.082,17.705 -0.37,-0.697 -0.299,-0.557 c -0.1,-0.183 -0.027,-0.407 0.156,-0.505 0.184,-0.1 0.416,-0.024 0.516,0.16 l 0.29,0.54 0.384,0.726 c 0.098,0.183 0.023,0.403 -0.162,0.501 -0.185,0.097 -0.417,0.016 -0.515,-0.168 m -2.251,-0.372 c -0.165,-0.132 -0.159,-0.409 -0.028,-0.574 l 0.523,-0.656 c -0.131,0.165 -0.084,0.378 0.08,0.509 0.165,0.133 0.425,0.078 0.558,-0.087 l -0.629,0.784 c -0.132,0.164 -0.339,0.154 -0.504,0.024 M -9.355,44.433 C -9.591,44.415 -9.768,44.216 -9.752,43.98 l 0.188,-2.633 c 0.198,-2.68 0.403,-5.45 0.315,-8.159 -0.007,-0.236 0.178,-0.432 0.414,-0.44 0.235,-0.007 0.433,0.177 0.439,0.412 0.088,2.756 -0.119,5.548 -0.319,8.25 L -8.9,44.034 c -0.017,0.236 -0.221,0.415 -0.455,0.399 m -13.477,-4.69 c -0.149,-0.132 -0.162,-0.359 -0.031,-0.508 0.132,-0.148 0.358,-0.164 0.507,-0.032 1.584,1.398 3.445,1.816 5.38,1.208 2.885,-0.905 5.663,-4.054 6.461,-7.323 0.047,-0.192 0.243,-0.311 0.435,-0.263 0.192,0.047 0.311,0.241 0.264,0.434 -0.852,3.495 -3.838,6.864 -6.944,7.839 -2.189,0.686 -4.289,0.217 -6.072,-1.355 m 1.218,10.219 -1.472,-5.954 -0.795,-3.112 c -0.021,-0.083 0.029,-0.169 0.114,-0.191 0.085,-0.021 0.171,0.03 0.193,0.114 l 0.795,3.11 1.472,5.965 c 0.021,0.084 -0.031,0.166 -0.116,0.186 -0.084,0.023 -0.171,-0.033 -0.191,-0.118 m -0.691,0.709 -1.489,-2.971 c -0.782,-1.6 -1.591,-3.256 -2.534,-4.827 -0.069,-0.115 -0.032,-0.265 0.083,-0.333 0.115,-0.069 0.263,-0.032 0.332,0.083 0.954,1.589 1.767,3.255 2.555,4.865 l 1.482,2.956 c 0.06,0.119 0.015,0.27 -0.105,0.33 -0.12,0.06 -0.264,0.016 -0.324,-0.103 m 41.055,8.5 c -0.315,-1.501 -0.136,-2.996 0.038,-4.442 0.107,-0.874 0.214,-1.776 0.209,-2.659 -0.001,-0.127 0.101,-0.229 0.227,-0.23 0.127,-0.001 0.23,0.101 0.23,0.227 0.006,0.912 -0.104,1.829 -0.213,2.716 -0.169,1.41 -0.345,2.867 -0.044,4.292 0.026,0.123 -0.052,0.245 -0.176,0.271 -0.124,0.026 -0.245,-0.052 -0.271,-0.175 m -63.485,-1.81 c -0.141,-0.122 -0.155,-0.337 -0.031,-0.477 0.796,-0.91 1.693,-1.766 2.559,-2.594 l 1.734,-1.701 c 0.134,-0.131 0.355,-0.136 0.487,-0.002 0.13,0.134 0.135,0.343 0.002,0.473 l -1.754,1.72 c -0.857,0.819 -1.741,1.664 -2.517,2.55 -0.125,0.142 -0.339,0.155 -0.48,0.031 m 4.542,-6.641 c -2.144,-3.976 -4.539,-7.863 -7.119,-11.556 -0.107,-0.155 -0.069,-0.367 0.086,-0.475 0.154,-0.109 0.368,-0.071 0.476,0.084 2.593,3.714 5.001,7.624 7.158,11.623 0.09,0.166 0.028,0.373 -0.137,0.461 -0.167,0.091 -0.375,0.029 -0.464,-0.137 m 64.13,7.896 c -0.166,-0.154 -0.175,-0.412 -0.023,-0.578 0.399,-0.43 0.881,-0.745 1.346,-1.051 l 0.766,-0.535 c 0.184,-0.13 0.459,-0.099 0.588,0.085 0.129,0.186 0.103,0.425 -0.081,0.554 l -0.824,0.578 c -0.443,0.292 -0.863,0.567 -1.196,0.925 -0.153,0.166 -0.411,0.176 -0.576,0.022 m -55.632,-6.672 c -0.108,-0.309 -0.109,-0.62 -0.11,-0.893 -0.001,-0.227 -0.001,-0.442 -0.061,-0.625 -0.066,-0.204 0.046,-0.424 0.251,-0.49 0.204,-0.067 0.423,0.043 0.491,0.249 0.097,0.299 0.098,0.599 0.098,0.863 0.001,0.233 0.001,0.454 0.067,0.641 0.07,0.204 -0.038,0.425 -0.24,0.496 -0.203,0.071 -0.425,-0.038 -0.496,-0.241 m -3.142,8.982 -0.256,-0.477 -0.062,-0.133 c -0.099,-0.213 -0.008,-0.475 0.207,-0.574 0.214,-0.098 0.465,-0.012 0.562,0.202 l 0.073,0.155 0.181,0.344 c 0.11,0.207 0.056,0.507 -0.152,0.618 -0.208,0.11 -0.443,0.072 -0.553,-0.135 m -21.25,-1.16 c -0.237,-0.551 -0.33,-1.126 -0.418,-1.683 l -0.026,-0.163 c -0.032,-0.192 0.1,-0.373 0.292,-0.404 0.191,-0.032 0.373,0.098 0.403,0.292 l 0.027,0.165 c 0.085,0.537 0.166,1.045 0.369,1.514 0.076,0.179 -0.006,0.387 -0.185,0.463 -0.179,0.076 -0.386,-0.007 -0.462,-0.184 m -3.709,-5.66 c -0.151,-0.092 -0.199,-0.292 -0.106,-0.443 2.956,-4.801 5.35,-10.13 7.666,-15.284 l 1.384,-3.07 c 0.075,-0.163 0.264,-0.235 0.427,-0.161 0.163,0.073 0.235,0.264 0.161,0.427 l -1.383,3.068 c -2.325,5.172 -4.728,10.522 -7.705,15.358 -0.093,0.152 -0.293,0.199 -0.444,0.105 m -5.097,-0.818 c -0.117,-0.124 -0.109,-0.321 0.015,-0.437 4.109,-3.842 6.943,-8.868 9.685,-13.73 0.998,-1.769 2.029,-3.599 3.112,-5.353 0.09,-0.147 0.281,-0.192 0.428,-0.102 0.145,0.09 0.191,0.281 0.1,0.427 -1.076,1.744 -2.104,3.57 -3.099,5.334 -2.765,4.901 -5.623,9.97 -9.801,13.877 -0.125,0.117 -0.321,0.11 -0.44,-0.016 m 2.531,5.419 -0.053,-0.129 c -0.654,-1.607 -1.332,-3.271 -2.43,-4.597 -0.082,-0.1 -0.069,-0.248 0.032,-0.33 0.098,-0.082 0.246,-0.067 0.328,0.032 1.144,1.38 1.835,3.079 2.504,4.72 l 0.052,0.127 c 0.048,0.119 -0.009,0.257 -0.129,0.305 -0.12,0.049 -0.255,-0.007 -0.304,-0.128 m 52.771,0.067 C -9.949,57.971 -9.912,57.127 -9.877,56.31 l 0.002,-1.186 c 0,-0.211 0.171,-0.415 0.382,-0.414 0.212,0 0.382,0.138 0.382,0.35 l -10e-4,1.283 c -0.034,0.761 -0.064,1.481 0.219,2.12 0.087,0.193 0,0.42 -0.193,0.506 -0.193,0.086 -0.42,0 -0.505,-0.195 m 1.477,7.062 c -0.201,-0.099 -0.283,-0.345 -0.183,-0.547 0.337,-0.68 0.55,-1.467 0.757,-2.227 0.059,-0.217 0.283,-0.346 0.5,-0.289 0.219,0.061 0.347,0.284 0.287,0.503 -0.216,0.797 -0.439,1.624 -0.813,2.377 -0.1,0.201 -0.346,0.285 -0.548,0.183 m 26.4,-6.112 c -1.362,-2.582 -2.065,-5.431 -2.415,-7.367 -0.019,-0.113 0.054,-0.22 0.168,-0.241 0.113,-0.02 0.223,0.054 0.243,0.168 0.344,1.905 1.034,4.71 2.372,7.245 0.054,0.102 0.015,0.228 -0.088,0.282 -0.1,0.053 -0.227,0.014 -0.28,-0.087 M -9.451,70.332 c -0.21,-0.067 -0.321,-0.294 -0.253,-0.502 l 0.169,-0.504 c 0.069,-0.21 0.295,-0.322 0.503,-0.253 0.209,0.07 0.322,0.296 0.252,0.504 l -0.168,0.504 c -0.07,0.208 -0.295,0.322 -0.503,0.251 m 6.631,9.896 c -0.109,-0.164 -0.063,-0.384 0.1,-0.492 5.859,-3.866 11.318,-8.809 16.598,-13.59 l 4.428,-3.978 c 0.146,-0.132 0.369,-0.118 0.501,0.028 0.131,0.147 0.118,0.373 -0.03,0.503 l -4.423,3.975 c -5.299,4.798 -10.778,9.76 -16.682,13.655 -0.163,0.108 -0.384,0.063 -0.492,-0.101 m -21.481,0.429 c -0.207,-0.062 -0.323,-0.279 -0.261,-0.485 0.083,-0.276 0.076,-0.581 0.068,-0.906 v -0.511 c 0,-0.214 0.174,-0.371 0.39,-0.372 0.213,0 0.386,0.193 0.386,0.408 l 0.002,0.457 c 0.009,0.371 0.018,0.755 -0.1,1.148 -0.063,0.207 -0.28,0.323 -0.485,0.261 m 17.283,8.032 -0.112,-0.641 -0.059,-0.386 c -0.035,-0.214 0.11,-0.425 0.323,-0.457 0.213,-0.034 0.411,0.101 0.444,0.314 l 0.065,0.421 0.098,0.565 c 0.037,0.213 -0.101,0.439 -0.312,0.476 -0.213,0.037 -0.409,-0.079 -0.447,-0.292 m -15.083,8.254 c -0.017,-0.144 0.085,-0.277 0.231,-0.294 2.208,-0.271 3.376,-2.3 4.504,-4.263 l 0.848,-1.414 c 0.076,-0.125 0.233,-0.157 0.359,-0.082 0.125,0.076 0.16,0.246 0.085,0.373 l -0.833,1.387 c -1.137,1.979 -2.428,4.221 -4.899,4.524 -0.145,0.018 -0.276,-0.086 -0.295,-0.231 m -1.45,-11.429 c -0.006,-0.021 -0.009,-0.044 -0.009,-0.065 0,-0.09 0.056,-0.171 0.144,-0.201 0,0 0.028,-0.009 0.046,-0.015 0.44,-0.606 0.618,-1.317 0.798,-2.074 0.136,-0.572 0.277,-1.164 0.546,-1.709 0.05,-0.103 0.176,-0.147 0.281,-0.096 0.104,0.052 0.147,0.178 0.096,0.283 -0.247,0.502 -0.375,1.045 -0.513,1.62 -0.187,0.782 -0.378,1.592 -0.896,2.278 l -0.041,0.052 -0.184,0.062 c -0.112,0.036 -0.231,-0.024 -0.268,-0.135 M -71.233,47.627 c -0.834,-1.302 -2.694,-2.099 -4.233,-1.814 -0.094,0.018 -0.183,-0.043 -0.2,-0.137 -0.018,-0.094 0.044,-0.183 0.137,-0.2 1.694,-0.314 3.666,0.532 4.584,1.966 0.051,0.079 0.028,0.186 -0.051,0.236 -0.079,0.051 -0.187,0.028 -0.237,-0.051 m 51.841,-33.089 c -0.142,-0.041 -0.224,-0.189 -0.184,-0.332 1.742,-6.08 2.7,-10.989 3.206,-16.416 0.254,-2.734 -0.022,-6.277 -1.636,-7.261 -0.824,-0.502 -1.961,-0.297 -3.376,0.608 -3.913,2.501 -8.811,8.865 -12.747,13.979 -1.459,1.896 -2.837,3.686 -3.953,4.997 -0.039,0.037 -0.201,0.159 -0.201,0.159 l -0.487,0.409 c -0.113,0.094 -0.307,0.106 -0.404,-0.008 -0.095,-0.111 -0.106,-0.256 0.006,-0.351 l 0.564,-0.479 0.154,-0.116 c 1.067,-1.262 2.441,-3.047 3.895,-4.938 3.963,-5.147 8.894,-11.552 12.884,-14.103 1.603,-1.025 2.93,-1.232 3.944,-0.614 1.823,1.111 2.171,4.74 1.89,7.768 -0.508,5.461 -1.473,10.4 -3.225,16.514 -0.04,0.142 -0.188,0.225 -0.33,0.184 m -40.061,72.177 c -0.073,-0.042 -0.098,-0.137 -0.055,-0.211 0.123,-0.211 0.259,-0.377 0.557,-0.558 0.074,-0.044 0.168,-0.021 0.213,0.053 0.044,0.072 0.02,0.167 -0.053,0.211 -0.245,0.148 -0.347,0.273 -0.45,0.451 -0.044,0.073 -0.139,0.098 -0.212,0.054 m -8.194,-8.183 c -0.146,-0.047 -0.226,-0.203 -0.179,-0.349 0.392,-1.203 0.472,-2.558 0.55,-3.869 0.108,-1.797 0.217,-3.654 1.109,-5.25 0.075,-0.133 0.244,-0.181 0.378,-0.106 0.133,0.075 0.181,0.243 0.106,0.377 -0.83,1.484 -0.937,3.278 -1.04,5.012 -0.079,1.345 -0.162,2.736 -0.576,4.007 -0.047,0.146 -0.204,0.226 -0.348,0.178 m 1.3,-28.144 c -0.184,-0.048 -0.295,-0.237 -0.248,-0.421 0.208,-0.809 0.165,-1.647 0.116,-2.534 -0.057,-1.087 -0.118,-2.21 0.318,-3.301 0.071,-0.178 0.271,-0.264 0.448,-0.194 0.178,0.071 0.264,0.272 0.192,0.45 -0.377,0.949 -0.325,1.949 -0.268,3.008 0.047,0.901 0.097,1.833 -0.138,2.743 -0.048,0.184 -0.235,0.296 -0.42,0.249 m 10.768,-17.364 c -0.167,-0.158 -0.175,-0.42 -0.018,-0.587 0.443,-0.471 0.809,-1.05 1.163,-1.613 l 0.252,-0.394 c 0.123,-0.195 0.379,-0.249 0.574,-0.125 0.192,0.122 0.248,0.383 0.125,0.575 l -0.246,0.391 c -0.376,0.593 -0.765,1.207 -1.261,1.735 -0.157,0.167 -0.421,0.176 -0.589,0.018 m 30.7,3.427 c -0.238,-0.269 -0.351,-0.594 -0.461,-0.908 -0.14,-0.404 -0.263,-0.754 -0.618,-0.939 -0.094,-0.048 -0.13,-0.166 -0.081,-0.259 0.05,-0.095 0.165,-0.13 0.259,-0.081 0.491,0.255 0.649,0.711 0.803,1.152 0.101,0.291 0.198,0.566 0.386,0.78 0.07,0.079 0.063,0.201 -0.016,0.272 -0.081,0.07 -0.203,0.062 -0.272,-0.017 m 4.573,-3.158 c -0.176,-0.155 -0.189,-0.43 -0.034,-0.605 l 2.033,-2.312 c 1.488,-1.715 3.025,-3.49 4.746,-5.073 0.174,-0.159 0.443,-0.148 0.601,0.026 0.16,0.172 0.148,0.442 -0.024,0.601 -1.686,1.55 -3.207,3.306 -4.678,5.005 l -2.047,2.324 c -0.155,0.177 -0.419,0.189 -0.597,0.034 M -8.385,23.245 c -0.22,-0.038 -0.369,-0.246 -0.332,-0.467 0.333,-1.975 0.374,-4.051 0.414,-6.06 0.051,-2.585 0.104,-5.261 0.769,-7.829 0.056,-0.216 0.277,-0.347 0.493,-0.291 0.217,0.055 0.347,0.276 0.29,0.493 -0.64,2.477 -0.691,5.104 -0.743,7.642 -0.039,2.038 -0.081,4.146 -0.425,6.18 -0.036,0.221 -0.246,0.369 -0.466,0.332 m 27.57,25.857 c -0.162,-0.85 -0.145,-1.72 -0.127,-2.563 0.017,-0.861 0.034,-1.676 -0.124,-2.475 -0.033,-0.16 0.073,-0.317 0.234,-0.349 0.161,-0.031 0.317,0.073 0.35,0.234 0.17,0.863 0.151,1.746 0.134,2.602 -0.016,0.849 -0.033,1.651 0.118,2.439 0.031,0.16 -0.077,0.318 -0.237,0.348 -0.161,0.031 -0.317,-0.076 -0.348,-0.236 m -18.325,62.82 -1.083,-1.567 c -0.899,-1.232 -1.832,-2.506 -2.14,-4.054 -0.038,-0.19 0.085,-0.374 0.274,-0.412 0.19,-0.037 0.374,0.086 0.412,0.275 0.28,1.397 1.124,2.553 2.02,3.779 l 1.114,1.612 c 0.11,0.159 0.06,0.362 -0.099,0.472 -0.158,0.109 -0.386,0.055 -0.498,-0.105 M -7.684,94.533 c -1.372,-2.007 -2.11,-4.517 -2.806,-7.131 -0.035,-0.133 0.044,-0.27 0.177,-0.305 0.132,-0.035 0.269,0.045 0.304,0.177 0.685,2.57 1.409,5.037 2.737,6.977 0.078,0.114 0.048,0.269 -0.065,0.346 -0.114,0.078 -0.268,0.049 -0.347,-0.064 m -20.019,-4.054 c -0.61,-1.571 -1.391,-3.116 -2.145,-4.61 l -1.53,-3.143 c -0.102,-0.21 -0.009,-0.454 0.201,-0.556 0.211,-0.102 0.47,-0.003 0.573,0.207 l 1.512,3.11 c 0.764,1.512 1.552,3.076 2.179,4.685 0.084,0.217 -0.024,0.463 -0.241,0.548 -0.219,0.085 -0.464,-0.023 -0.549,-0.241 m -28.896,14.332 -0.125,-0.451 c -0.318,-1.122 -0.645,-2.281 -0.381,-3.491 0.039,-0.185 0.221,-0.302 0.407,-0.261 0.183,0.04 0.301,0.223 0.261,0.407 -0.227,1.042 0.078,2.117 0.372,3.158 l 0.127,0.457 c 0.051,0.183 -0.055,0.37 -0.239,0.421 -0.18,0.05 -0.369,-0.058 -0.422,-0.24 m 24.054,-81.324 c -0.005,-0.096 -0.114,-0.31 -0.181,-0.437 l -0.09,-0.186 c -0.063,-0.125 -0.007,-0.265 0.117,-0.328 0.125,-0.062 0.281,-0.002 0.342,0.124 l 0.08,0.158 c 0.106,0.206 0.226,0.439 0.236,0.645 0.007,0.139 -0.101,0.257 -0.239,0.265 -0.139,0.006 -0.258,-0.102 -0.265,-0.241 m 43.819,9.981 c -0.002,-0.014 -0.003,-0.029 -0.003,-0.042 0,-0.2 0.152,-0.372 0.355,-0.395 0.192,-0.019 0.381,-0.113 0.599,-0.22 0,0 0.442,-0.167 0.627,-0.238 1.986,-1.748 4.599,-2.031 7.129,-2.3 2.835,-0.301 5.516,-0.585 7.481,-2.728 0.149,-0.162 0.399,-0.173 0.56,-0.024 0.163,0.148 0.173,0.398 0.024,0.559 -2.168,2.364 -5.123,2.679 -7.981,2.983 -2.539,0.269 -4.937,0.524 -6.739,2.142 l -0.052,0.049 -0.14,0.047 -0.558,0.22 c -0.249,0.125 -0.533,0.265 -0.867,0.3 -0.218,0.023 -0.412,-0.135 -0.435,-0.353 m 2.02,65.095 c -0.217,-0.028 -0.369,-0.229 -0.34,-0.446 0.086,-0.634 0.38,-1.377 0.691,-2.165 0.5,-1.265 1.065,-2.701 0.648,-3.549 -0.179,-0.363 -0.538,-0.618 -1.098,-0.779 -0.211,-0.061 -0.331,-0.28 -0.271,-0.491 0.06,-0.21 0.281,-0.332 0.491,-0.272 0.775,0.224 1.311,0.625 1.59,1.192 0.572,1.163 -0.063,2.772 -0.623,4.19 -0.293,0.742 -0.569,1.443 -0.642,1.981 -0.029,0.217 -0.228,0.369 -0.446,0.339 m 4.473,6.096 c -0.06,-0.25 0.095,-0.5 0.344,-0.559 1.327,-0.311 2.67,-0.442 3.969,-0.568 l 1.126,-0.113 c 0.255,-0.026 0.488,0.16 0.513,0.416 0.026,0.255 -0.156,0.483 -0.412,0.509 l -1.136,0.114 c -1.327,0.13 -2.582,0.25 -3.846,0.548 -0.251,0.058 -0.502,-0.096 -0.558,-0.347 M 6.755,-5.495 C 6.106,-5.538 5.544,-4.214 5.244,-4.74 5.816,-4.774 6.22,-6.256 6.755,-5.495 m -10.58,8.817 c 0.22,0.583 -1.283,0.578 -0.504,0.251 0.353,0.021 0.288,-0.732 0.504,-0.251 m -56.18,82.379 c 0.305,-0.026 0.155,0.365 0,0 m 21.666,26.955 v -0.251 c 2.1,0.436 4.788,-1.74 7.81,-1.511 1.787,0.134 3.722,0.877 3.778,3.274 0.095,4.064 -6.93,6.386 -10.832,2.519 -0.237,-1.442 -0.739,-2.621 -1.008,-4.031 z m 0.756,-68.27 c -0.526,-0.55 -0.72,0.125 -1.513,0 0.077,-1.437 0.56,-2.466 0.757,-3.78 h 0.252 v -0.252 c 0.545,1.051 0.786,2.405 1.008,3.778 l -0.377,-0.124 z m -21.666,9.32 c 0.476,1.968 -1.79,2.796 -2.771,1.764 0.002,-1.257 1.132,-1.387 2.015,-1.764 l 0.378,0.126 z m 77.341,8.817 c 0.514,-0.962 0.051,-1.925 0,-3.022 l 0.379,0.125 -0.127,-0.377 c 0.153,-0.015 0.3,-0.038 0.252,-0.252 l 0.378,0.125 0.125,-0.377 c 1.107,2.439 3.249,-0.525 4.787,-0.757 l 0.329,0.329 0.428,0.175 c -1.496,1.865 -3.816,2.904 -5.795,4.283 L 18.542,62.434 Z M -22.216,81.67 v -1.007 c 0.747,0.091 1.242,0.436 1.511,1.007 0.042,0.546 -0.894,0.114 -1.259,0.251 l 0.126,-0.377 z m -32.75,-48.621 c -2.871,4.518 -4.597,10.181 -10.581,11.588 l -0.294,-0.377 -0.462,0.126 c -0.455,-2.768 -1.659,-5.525 -3.274,-8.567 -1.521,-2.861 -3.426,-5.769 -4.032,-8.313 -0.216,-0.913 -0.415,-2.496 -0.252,-3.275 0.932,-4.412 8.474,-6.46 9.574,-1.259 0.569,2.697 -1.16,4.574 -1.512,7.556 -0.416,3.531 0.128,6.475 0.252,9.575 4.092,4.503 7.896,-6.352 10.077,-7.81 l 0.176,0.428 z m 16.375,-22.421 c 0.945,3.437 6.151,0.588 6.298,4.533 0.112,3.001 -6.191,4.595 -3.274,10.078 l -0.127,0.377 -0.125,0.378 c -2.806,-0.514 -4.646,2.055 -5.291,4.534 l -0.377,-0.125 0.125,0.378 c -2.164,2.285 -5.062,3.839 -5.291,8.062 l -0.377,0.126 0.125,0.378 h -0.252 c -1.854,-0.136 -2.779,1.979 -3.526,3.275 -2.492,4.316 -4.291,9.544 -5.04,15.366 l -0.461,-0.125 -0.295,0.377 c -0.535,-4.987 1.952,-9.132 2.772,-13.603 1.099,-2.374 5.472,-5.495 3.78,-8.818 h -0.504 l -0.126,-0.378 -0.379,0.126 c 0.082,-0.584 -0.04,-0.966 -0.252,-1.259 h -0.503 l -0.125,-0.377 -0.379,0.126 c 0.419,-1.358 0.372,-3.264 -1.512,-3.024 l -0.126,-0.378 -0.378,0.126 v -0.756 c -2.256,-1.818 -6.332,-4.068 -4.282,-8.566 1.549,-1.116 4.64,-1.45 6.298,-0.251 1.35,0.977 0.551,2.308 1.764,3.274 h 0.504 l -0.127,0.462 0.379,0.295 c -0.59,1.902 -2.764,3.087 -2.016,5.542 h 0.503 c 1.337,-0.008 0.706,-1.982 1.765,-2.267 l 0.176,0.428 0.327,0.328 c -0.08,0.59 -0.398,0.946 -0.252,1.763 h 0.252 l 0.306,0.342 0.451,-0.09 c -0.164,1.104 -1.708,2.146 -0.757,3.527 -0.036,0.709 0.616,0.727 1.259,0.755 0.816,-0.431 1.239,-1.841 2.268,-3.274 0.864,-1.203 2.549,-2.338 2.267,-3.527 -0.466,-1.962 -3.352,-1.448 -4.031,0.755 l -0.293,-0.377 -0.462,0.126 c -0.024,-0.397 0.034,-0.874 -0.504,-0.756 l -0.328,-0.327 -0.428,-0.176 c 0.591,-0.502 1.23,-2.172 0.252,-2.772 h -0.755 l 0.125,-0.462 -0.377,-0.295 c 1.847,-2.556 3.917,-4.191 3.526,-7.808 -0.131,-1.225 -0.909,-2.741 -1.511,-3.779 -1.065,-1.832 -2.89,-2.976 -3.276,-5.04 -0.811,-4.348 0.946,-7.06 4.535,-6.548 4.968,0.707 4.362,6.979 7.809,8.816 l -0.125,0.378 z M -7.857,22.72 c 0.044,3.738 -0.091,7.298 -0.503,10.581 l -0.462,-0.127 -0.293,0.379 h -0.757 l -0.293,-0.379 -0.463,0.127 c 0.244,-2.027 1.713,-4.163 1.261,-6.047 -0.42,-1.26 -2.015,-1.344 -3.528,-1.512 l -0.377,-0.126 -0.378,-0.125 c 0.476,-0.952 0.768,-2.088 1.51,-2.771 1.013,-0.248 2.211,-0.309 3.529,-0.252 l 0.294,0.378 z M -3.573,8.863 C -4.631,8.235 -6.029,8.496 -6.849,9.367 L -7.143,8.989 -7.605,9.115 C -7.854,6.586 -3.937,6.623 -3.322,8.36 L -3.699,8.486 Z M 9.778,35.315 C 8.984,35.438 8.889,34.861 8.016,35.064 7.305,34.228 9.092,34.275 8.771,33.049 l 0.377,0.125 0.126,-0.377 c 0.246,1.014 1.614,1.385 1.008,2.518 L 10.03,35.19 Z m -8.313,76.082 c 0.808,2.069 5.123,3.011 6.803,5.29 3.239,4.399 -1.799,8.627 -5.291,4.787 -2.214,-2.435 -0.641,-7.586 -2.268,-9.825 l 0.45,0.09 z M -7.605,94.014 C -7.282,94 -7.256,93.691 -6.849,93.762 -6.107,92.114 -7.479,90.58 -7.1,88.472 l 0.461,0.126 0.294,-0.378 c 0.942,0.73 0.182,1.495 0.504,2.771 -0.005,-0.021 0.333,-0.284 0.504,0.252 0.339,1.075 0.531,3.213 1.008,4.282 0.7,1.573 2.258,2.788 3.022,4.283 0.697,1.359 0.742,3.11 2.016,4.031 -1.172,0.423 -2.195,0.995 -2.267,2.518 l -0.463,-0.125 -0.292,0.378 c -6.081,-0.167 -6.649,-6.066 -5.544,-12.092 l 0.379,-0.126 z m -19.398,-4.03 h 1.26 c 1.303,-2.478 0.573,-6.986 1.26,-10.077 l 0.294,0.377 0.462,-0.125 c 0.303,1.543 -0.628,4.322 0.503,5.038 l -0.127,0.252 0.127,0.252 c -0.912,3.334 -1.96,9.415 1.512,10.833 l -0.126,0.378 -0.126,0.377 c -1.498,-0.181 -2.505,-0.854 -4.03,-1.007 -0.95,-1.655 -1.099,-4.11 -1.765,-6.046 l 0.45,0.09 z m -28.971,14.36 h 4.786 c 2.245,3.415 0.126,8.503 -4.282,8.312 -1.599,-1.616 -1.749,-5.071 -1.259,-8.061 l 0.461,0.126 z M -9.242,58.618 -9.115,58.24 c 2.478,0.259 3.755,-3.988 0.252,-3.526 0,0.253 -0.204,0.3 -0.252,0.504 l -0.379,-0.126 -0.378,0.126 c -5.1,-2.3 -10.327,9.729 -3.526,8.313 1.779,-0.37 3.129,-3.254 3.779,-5.039 z m -37.915,15.745 c -0.265,-1.684 -3.902,-1.618 -4.786,-0.502 -0.66,2.019 -0.212,6.183 1.764,5.541 1.384,-1.303 2.218,-3.155 3.022,-5.039 M 26.279,56.771 25.902,56.478 c 0.195,-3.723 -3.548,-3.506 -6.55,-4.032 l -0.126,-0.378 -0.127,0.378 c -0.663,-0.384 -2.268,-0.899 -2.771,0 L 16.076,52.32 15.824,52.446 C 14.353,51.331 9.791,51.58 7.259,51.691 4.307,51.82 0.436,51.75 -1.307,52.698 c -1.22,0.666 -2.362,3.193 -3.022,4.283 -0.09,0.149 -0.711,0.411 -0.756,0.503 -0.144,0.299 -0.023,1.13 -0.252,1.765 -0.246,0.685 -0.373,0.569 -0.504,1.008 -0.35,1.172 -0.412,2.395 -1.008,3.274 l -0.294,-0.378 -0.462,0.126 c 0.034,-0.621 0.039,-1.214 -0.252,-1.511 -1.454,0.102 -1.59,2.593 -0.754,3.527 0.252,0 0.299,-0.204 0.503,-0.253 l 0.177,0.429 0.326,0.328 c -0.249,1.513 -0.626,2.899 -1.258,4.031 l -0.295,-0.379 c 0,0 -0.461,0.126 -0.714,-3.4 -1.034,0.614 -1.15,3.31 -0.756,4.534 0.253,0 0.505,0 1.009,-1.008 l 0.294,0.379 0.462,-0.126 c 0.504,3.189 0.474,6.914 1.51,9.572 0.961,0.9 3.311,1.001 4.535,0.252 l 0.295,0.379 0.461,-0.126 c 0.057,0.195 0.007,0.496 0.252,0.503 0.057,0.195 0.007,0.497 0.252,0.504 10.324,-1.956 24.049,-6.106 29.223,-14.107 1.24,-1.918 3.964,-10.369 -1.512,-9.574 z m -85.15,29.308 -0.378,0.126 c -0.625,-1.968 -1.933,-3.718 -2.267,-6.046 -0.172,-1.198 0.143,-2.463 0,-3.527 -0.328,-2.435 -1.792,-5.331 -3.275,-6.551 0.02,0.017 0.02,0.48 0,0.504 0.227,-0.283 -1.182,-1.191 -1.26,-1.008 l 0.126,-0.378 -0.378,-0.126 c 0.514,-2.188 -1.538,-3.884 -3.022,-5.794 -2.502,-3.216 -4.744,-6.052 -6.802,-9.573 -1.925,-3.291 -4.118,-7.567 0.756,-8.313 l -0.126,0.252 0.126,0.251 c -1.254,0.678 -1.762,2.101 -1.512,4.284 1.98,2.496 4.226,4.704 6.046,7.053 0.586,0.756 1.055,2.449 2.519,2.016 0.506,-4.355 -4.96,-6.807 -3.023,-11.841 l 0.252,0.126 0.252,-0.126 c 1.936,0.247 2.316,2.049 4.282,2.268 l 0.295,0.377 0.461,-0.125 c -0.161,1.421 0.548,1.97 1.008,2.77 l 0.126,0.379 0.378,-0.127 v 0.756 l -0.378,0.126 0.126,0.379 c -2.161,0.849 -1.603,6.439 1.765,5.542 -0.105,-0.607 0.459,-0.548 0.251,-1.261 l 0.377,0.126 0.126,-0.378 c 2.377,0.29 2.952,3.98 5.541,2.52 0.213,-0.292 0.333,-0.675 0.253,-1.259 l 0.462,0.125 0.294,-0.377 c 1.433,0.089 2.156,-0.531 3.024,-1.009 0.289,-0.705 0.289,-1.308 0,-2.014 1.764,0.956 2.794,-0.731 4.03,-0.756 1.228,-0.027 2.634,1.301 4.031,1.259 l -0.126,0.378 0.378,0.126 c 0.31,6.323 7.155,-2.66 4.534,-4.031 h -0.755 l 0.125,-0.377 -0.377,-0.127 c 0.211,-0.627 0.33,-1.348 0.252,-2.266 l 0.462,0.126 0.293,-0.378 c 0.584,0.08 0.967,-0.041 1.26,-0.252 l 0.126,0.378 0.126,0.377 c -0.105,1.16 -0.308,1.649 0.504,2.267 0.904,-0.27 1.412,-0.939 1.26,-2.267 l 0.462,0.126 0.294,-0.377 c 2.103,-1.525 5.137,-4.464 4.283,-7.307 -1.067,0.01 -2.007,1.517 -2.774,2.52 -0.831,1.089 -1.982,2.464 -2.013,4.031 l -0.463,-0.126 -0.293,0.378 h -0.504 l -0.306,-0.342 -0.45,0.09 c 0.332,-1.096 1.183,-1.673 1.008,-3.276 l 0.378,0.126 0.126,-0.378 c 1.554,-0.397 2.471,-2.558 3.526,-4.282 0.882,-1.441 2.685,-3.539 2.772,-5.039 0.031,-0.543 -0.233,-1.23 -0.252,-1.763 l 0.378,-0.126 -0.126,-0.378 c 2.254,-0.061 2.386,-2.669 3.274,-4.535 2.535,-5.323 6.071,-10.549 7.306,-15.871 l 0.379,0.126 0.378,0.126 c -0.615,3.766 -1.706,7.037 -2.772,10.329 -1.103,3.408 -2.902,6.763 -3.779,9.825 l -0.378,-0.126 0.126,0.378 c -2.085,0.079 -3.467,4.695 -0.503,4.787 0.656,-0.854 1.141,-1.882 1.259,-3.276 h 0.252 v -0.252 c 2.339,0.624 2.704,-2.813 4.534,-3.526 l 0.177,0.429 0.327,0.327 c -0.742,2.006 -3.649,2.984 -2.519,6.046 l -0.378,0.126 0.126,0.378 h -0.756 c -0.079,0.34 -0.358,0.481 -0.251,1.006 h -0.252 v 0.253 c -0.466,-0.038 -0.156,-0.853 -0.504,-1.007 -1.283,0.145 -1.582,1.274 -1.512,2.771 l -0.378,-0.127 -0.125,0.378 c -2.854,1.179 -4.799,3.265 -4.786,7.307 l -0.463,-0.126 -0.294,0.377 c -0.196,-0.055 -0.292,-0.21 -0.252,-0.503 -4.479,0.848 -2.776,6.038 -2.269,10.077 l -0.46,-0.126 -0.293,0.377 c -1.228,-0.705 -0.909,-2.954 -2.52,-3.275 -1.153,0.345 -1.671,1.485 -2.268,2.268 -0.698,0.916 -1.714,1.766 -1.764,2.77 -0.224,4.707 6.597,1.67 6.802,-1.259 l 0.329,-0.327 0.174,-0.428 c 2.209,0.527 3.643,-1.171 3.781,-2.773 0.159,-1.847 -1.93,-3.73 -1.26,-5.793 l 0.462,0.125 0.295,-0.378 c 0.656,2.411 0.667,4.249 2.77,4.284 2.462,0.041 4.013,-4.213 5.794,-5.039 l 0.378,-0.125 -0.126,-0.378 c 0.195,-0.057 0.497,-0.008 0.504,-0.252 h 0.252 v -0.252 c 0.294,0.042 0.273,0.398 0.252,0.756 3.087,0.212 4.822,3.301 7.558,3.022 2.516,-0.258 2.067,-2.025 2.771,-4.535 0.462,-1.644 1.319,-3.364 1.26,-5.29 l 0.294,0.379 0.462,-0.127 c -0.231,4.557 1.283,7.933 4.786,6.802 3.091,-0.998 2.488,-5.673 5.542,-6.802 1.304,0.473 -0.412,2.414 0.504,3.276 4.869,1.644 8.165,-5.094 8.817,-9.322 l 0.252,0.126 0.252,-0.126 c 2.402,-0.382 4.064,-2.03 6.047,-1.512 2.399,0.629 2.817,3.912 2.267,7.809 l -0.378,-0.124 -0.127,0.378 c -2.102,0.415 -3.347,1.69 -4.282,3.274 l -0.378,-0.126 -0.126,0.377 c -0.794,-0.347 -1.768,0.109 -2.519,0.504 -1.632,2.179 2.074,3.164 2.771,1.513 l 0.378,0.125 0.125,-0.377 c 0.505,1.303 2.983,1.543 4.536,1.007 0.667,0.945 2.114,0.917 3.275,1.26 1.211,0.358 2.482,0.84 3.526,1.259 2.75,-0.827 4.281,-4.61 7.306,-5.542 3.282,-1.011 6.514,0.264 6.55,3.275 0.062,5.121 -7.031,3.514 -9.07,7.053 1.007,5.515 -1.327,9.573 -4.03,12.345 -6.169,6.329 -18.38,10.659 -29.223,11.588 -0.985,2.375 -2.586,4.133 -4.283,5.795 L -6.807,87.59 -7.1,87.968 C -7.297,87.912 -7.393,87.757 -7.353,87.464 -8.043,87.25 -9.18,86.646 -9.872,87.213 v 0.251 l -0.378,-0.126 -0.125,0.378 c -0.797,-1.499 -1.978,-1.666 -3.527,-1.511 -1.137,4.413 0.958,10.334 0.504,14.863 0.29,0.97 1.988,0.532 2.015,1.764 -0.389,1.363 -1.46,1.952 -1.763,3.778 -0.305,1.832 0.883,4.82 -2.016,4.787 -2.481,-1.235 0.118,-3.653 0.504,-5.795 0.447,-2.481 0.124,-6.098 0,-8.817 -0.088,-1.944 0.148,-4.375 -1.26,-5.29 h -0.252 l -0.125,-0.378 -0.378,0.126 c 0.291,-2.137 1.82,-3.485 1.762,-5.542 -0.11,-3.993 -6.555,-7.493 -8.816,-7.055 l -0.377,0.127 -0.379,0.126 c -2.629,-1.975 -3.993,1.465 -6.046,2.267 -0.471,0.448 0.205,0.64 0,1.512 l -0.462,-0.126 -0.293,0.378 c -1.673,-3.031 -3.362,-6.046 -6.047,-8.062 -2.268,-0.608 -3.077,-2.619 -5.542,-2.015 -1.908,0.466 -3.486,4.383 -4.788,7.557 -1.895,4.622 -2.634,8.913 -2.77,13.604 -2.482,1.992 -1.829,7.611 -6.048,7.306 l -0.292,-0.378 -0.461,0.126 c -1.458,-3.393 0.1,-10.471 -1.765,-14.611 z M 7.764,-10.282 c 0.882,-2.081 4.1,-2.957 6.045,-2.52 1.685,0.379 2.984,2.328 3.023,3.779 0.131,4.762 -6.429,5.634 -9.825,3.024 1.042,-1.81 0.175,-2.911 0.757,-4.283 m -31.491,7.557 V -3.48 h 1.259 c 0.282,1.019 -0.773,1.245 -1.259,0.755 M 3.229,-0.71 C 3.612,-1.097 4.956,-1.157 4.739,-0.206 4.072,-0.21 3.257,-0.065 3.229,-0.71 m -14.36,4.787 c 0.13,-1.198 1.413,-0.573 1.512,0.252 -0.622,0.033 -1.214,0.038 -1.512,-0.252 m -40.56,6.299 h 0.756 v 0.504 h -0.756 z m -9.825,9.825 h 0.503 c 0.015,0.321 0.325,0.349 0.252,0.755 h -0.755 z m 30.736,2.771 c -0.217,-0.953 1.127,-0.893 1.509,-0.504 0.217,0.953 -1.127,0.891 -1.509,0.504 m 1.006,5.039 c -0.013,-0.435 0.194,-0.647 0.503,-0.757 0.03,0.476 0.834,0.175 0.757,0.757 -0.332,0.322 -0.928,0.322 -1.26,0 m -0.251,2.517 c 0.377,-0.398 1.435,-0.368 1.259,0.505 -0.624,0.037 -1.223,0.047 -1.259,-0.505 m 29.979,2.773 c -0.221,-1.153 1.988,-1.009 1.511,0.252 -0.621,0.033 -1.214,0.038 -1.511,-0.252 m 27.802,-5.488 -0.343,-0.307 c 0.313,-1.453 1.52,-1.158 1.512,-2.518 -0.008,-1.288 -1.492,-1.578 -2.52,-3.024 -0.671,-0.943 -1.423,-2.826 -1.51,-3.779 -0.749,-8.052 10.619,-8.959 11.335,-2.015 0.489,4.728 -2.896,4.904 -5.29,8.061 -1.264,1.668 -1.336,3.521 -3.275,4.031 z M 3.229,34.812 C 3.192,33.799 3.875,34.146 4.488,34.308 4.524,35.32 3.842,34.975 3.229,34.812 m -60.965,19.651 c -1.019,0.885 -0.595,-0.812 0,0 m 5.038,1.763 c -0.523,-0.15 -1.656,0.31 -1.764,-0.252 0.522,0.149 1.655,-0.313 1.764,0.252 m 12.344,28.971 c 2.643,-1.998 8.087,-1.339 8.817,1.26 1.35,4.813 -6.856,9.474 -10.833,7.053 -0.28,-1.482 -0.527,-2.146 -0.503,-4.282 1.093,-1.236 1.035,-2.911 2.519,-4.031 m 58.95,19.65 c -4.34,2.084 -7.206,-3.153 -5.542,-7.055 l 0.295,0.379 0.46,-0.126 c -0.072,1.751 -0.02,3.379 0.504,4.535 1.193,0.654 2.24,1.455 4.031,1.511 l -0.125,0.462 z m 4.534,-0.503 c 2.653,0.385 5.433,-0.519 8.061,0 1.767,0.347 3.45,2.374 5.291,3.022 2.517,0.886 6.908,0.869 8.817,-0.252 0.525,-0.307 2.268,-2.156 2.016,-4.282 -0.611,-5.163 -8.049,-5.321 -12.091,-2.771 -1.413,0.89 -2.126,2.529 -3.528,3.023 -2.387,0.841 -6.763,-0.311 -8.817,0.503 l 0.378,0.293 z"
             style="fill:#262626;fill-opacity:1;fill-rule:evenodd;stroke:none"
             id="path70"
             inkscape:connector-curvature="0" />
        </g>
      </g>
    </g>
  </g>
</svg>
