<?xml version="1.0" encoding="UTF-8" standalone="no"?>
<!-- Created with Inkscape (http://www.inkscape.org/) -->

<svg
   xmlns:dc="http://purl.org/dc/elements/1.1/"
   xmlns:cc="http://creativecommons.org/ns#"
   xmlns:rdf="http://www.w3.org/1999/02/22-rdf-syntax-ns#"
   xmlns:svg="http://www.w3.org/2000/svg"
   xmlns="http://www.w3.org/2000/svg"
   xmlns:sodipodi="http://sodipodi.sourceforge.net/DTD/sodipodi-0.dtd"
   xmlns:inkscape="http://www.inkscape.org/namespaces/inkscape"
   width="61.681602mm"
   height="53.256393mm"
   viewBox="0 0 61.681602 53.256393"
   version="1.1"
   id="svg3867"
   inkscape:version="0.92.2 2405546, 2018-03-11"
   sodipodi:docname="paint01.svg">
  <defs
     id="defs3861">
    <clipPath
       clipPathUnits="userSpaceOnUse"
       id="clipPath138">
      <path
         d="M 0,600 H 600 V 0 H 0 Z"
         id="path136"
         inkscape:connector-curvature="0" />
    </clipPath>
  </defs>
  <sodipodi:namedview
     id="base"
     pagecolor="#ffffff"
     bordercolor="#666666"
     borderopacity="1.0"
     inkscape:pageopacity="0.0"
     inkscape:pageshadow="2"
     inkscape:zoom="0.35"
     inkscape:cx="8.5714286"
     inkscape:cy="560.00002"
     inkscape:document-units="mm"
     inkscape:current-layer="layer1"
     showgrid="false"
     scale-x="0.7"
     fit-margin-top="0"
     fit-margin-left="0"
     fit-margin-right="0"
     fit-margin-bottom="0"
     inkscape:window-width="3840"
     inkscape:window-height="2095"
     inkscape:window-x="0"
     inkscape:window-y="0"
     inkscape:window-maximized="1" />
  <metadata
     id="metadata3864">
    <rdf:RDF>
      <cc:Work
         rdf:about="">
        <dc:format>image/svg+xml</dc:format>
        <dc:type
           rdf:resource="http://purl.org/dc/dcmitype/StillImage" />
        <dc:title></dc:title>
      </cc:Work>
    </rdf:RDF>
  </metadata>
  <g
     inkscape:label="Layer 1"
     inkscape:groupmode="layer"
     id="layer1"
     transform="translate(1.9464874e-8,-243.74361)">
    <g
       transform="matrix(0.35277777,0,0,-0.35277777,-3.5278154,446.11377)"
       id="g132">
      <g
         id="g134"
         clip-path="url(#clipPath138)">
        <g
           id="g140"
           transform="translate(103.1875,484.5127)">
          <path
             d="M 0,0 C -0.368,-0.139 -0.555,-0.548 -0.416,-0.917 -0.278,-1.286 0.132,-1.473 0.5,-1.334 0.919,-1.177 1.432,-1.405 2.034,-1.67 l 0.267,-0.117 c 0.359,-0.158 0.777,0.008 0.933,0.369 0.158,0.36 -0.013,0.784 -0.372,0.939 L 2.609,-0.367 C 1.837,-0.025 0.962,0.361 0,0 M 41.316,32.506 C 40.32,31.237 39.059,30.218 37.721,29.137 l -1.477,-1.218 c -0.306,-0.253 -0.338,-0.698 -0.086,-1.005 0.254,-0.307 0.719,-0.341 1.026,-0.088 l 1.443,1.192 c 1.341,1.081 2.727,2.202 3.823,3.6 0.245,0.313 0.191,0.765 -0.123,1.012 -0.313,0.244 -0.766,0.19 -1.011,-0.124 M -6.76,23.301 c -0.36,-0.009 -0.646,-0.309 -0.637,-0.668 0.008,-0.36 0.308,-0.646 0.668,-0.637 5.879,0.137 11.946,-0.047 17.812,-0.224 5.632,-0.17 11.458,-0.347 17.156,-0.243 0.361,0.007 0.647,0.303 0.64,0.665 -0.006,0.36 -0.303,0.645 -0.664,0.64 -5.667,-0.104 -11.478,0.074 -17.092,0.241 -5.885,0.18 -11.969,0.363 -17.883,0.226 m -16.437,1.436 c -0.039,-0.331 0.178,-0.628 0.509,-0.666 l 7.224,-0.826 5.381,-0.575 c 0.331,-0.034 0.64,0.204 0.675,0.537 0.036,0.331 -0.193,0.627 -0.524,0.661 l -5.416,0.578 -7.159,0.82 c -0.332,0.037 -0.653,-0.198 -0.69,-0.529 M 4.216,36.714 3.282,36.404 C 3.667,36.532 4.086,36.323 4.213,35.938 4.342,35.551 4.134,35.133 3.747,35.005 l 0.931,0.309 c 0.387,0.129 0.596,0.546 0.468,0.933 -0.127,0.385 -0.545,0.596 -0.93,0.467 m 51.251,15.897 -1.18,-0.604 c 0.388,0.199 0.927,0.082 1.126,-0.306 0.2,-0.387 0.111,-0.826 -0.276,-1.028 l 0.872,0.453 c 0.387,0.201 0.63,0.716 0.43,1.103 -0.199,0.388 -0.584,0.581 -0.972,0.382 m -29.524,5.23 -0.763,-0.515 -0.279,-0.177 c -0.378,-0.236 -0.486,-0.732 -0.248,-1.11 0.237,-0.376 0.74,-0.488 1.118,-0.25 l 0.266,0.168 0.931,0.634 c 0.367,0.25 0.404,0.708 0.155,1.076 -0.25,0.369 -0.81,0.422 -1.18,0.174 M -10.244,35.44 c -2.006,-0.574 -4.256,-0.523 -5.775,-0.434 -0.473,0.027 -0.878,-0.333 -0.906,-0.805 -0.027,-0.473 0.334,-0.879 0.806,-0.907 1.643,-0.096 4.09,-0.148 6.347,0.498 0.455,0.129 0.718,0.604 0.588,1.06 -0.129,0.454 -0.604,0.718 -1.06,0.588 m 35.9,-59.68 -0.149,-0.083 -0.34,-0.537 c -0.201,-0.318 -0.106,-0.738 0.21,-0.938 0.317,-0.2 0.736,-0.105 0.936,0.211 0,0 0.069,0.108 0.136,0.215 0.829,0.423 1.914,0.529 3.019,0.265 0.365,-0.087 0.731,0.137 0.818,0.502 0.088,0.365 -0.137,0.73 -0.501,0.817 -1.511,0.362 -2.978,0.2 -4.129,-0.452 M 2.581,-1.133 1.882,-1.677 C 1.803,-2.22 1.146,-2.184 0.483,-2.143 0.482,-1.676 0.861,-1.589 0.951,-1.21 L 0.25,-0.667 0.483,0.188 c -14.945,1.464 -9.797,-22.109 -1.398,-24.247 14.687,-3.738 16.683,21.983 3.264,23.781 z m -24.945,26.501 c -0.631,3.655 0.862,4.554 -0.933,7.461 2.171,0.149 2.594,-1.447 4.196,-1.865 1.804,0.062 1.839,1.89 3.265,2.33 l -0.233,0.855 0.698,0.544 c -6.821,0.658 -13.624,0.078 -21.448,0.467 -5.386,-6.294 -1.828,-16.56 6.062,-16.32 4.003,0.121 5.45,2.908 8.393,5.13 l -0.234,0.698 z m 15.853,-1.865 c -1.116,0.281 -2.128,0.669 -3.73,0.467 l 0.233,-0.7 -0.233,-0.7 c 0.482,-1.072 0.963,-2.145 1.865,-2.798 1.465,0.09 2.242,0.867 2.332,2.332 l -0.701,0.544 z m 32.966,33.713 0.607,-0.607 c 2.66,0.17 -2.99,-2.496 -0.933,-0.467 L 25.336,56.47 24.73,57.075 C 20.229,52.869 15,49.931 9.342,46.817 5.814,44.875 1.72,43.963 -0.915,42.155 -4.597,39.63 -5.237,34.434 -10.708,35.16 l 0.7,-0.544 -0.233,-0.855 c 2.338,0.162 2.288,-2.064 4.197,-2.332 3.247,1.415 6.059,3.266 10.257,3.731 l -0.699,0.545 c 0,0 0.233,0.854 14.689,4.585 -2.37,-1.415 -6.118,-2.142 -9.794,-2.799 -2.619,-0.468 -5.609,-1.308 -6.993,0 1.127,3.102 5.216,3.714 7.926,5.129 2.862,1.495 5.9,2.957 8.394,4.664 h 1.399 C 20.463,45.503 22.148,44.08 3.747,36.559 L 4.446,36.014 4.213,35.16 c 3.989,0.669 9.647,0.26 15.389,1.399 1.848,0.366 3.572,2.04 5.595,2.331 1.657,0.239 4.706,-0.544 6.994,-0.466 2.921,0.098 5.148,0.868 6.528,0.466 3.211,-0.936 4.139,-4.758 2.331,-6.994 l 0.833,0.167 0.566,-0.634 c 0.089,-1.193 -3.78,-4.907 -5.128,-4.662 l -0.607,0.606 -0.326,0.793 c -2.43,-2.079 -3.523,-5.493 -8.394,-5.13 l 0.233,-0.854 -0.699,-0.544 V 20.705 C 21.133,16.364 10.782,17.413 3.282,14.644 -0.421,13.276 -2.51,10.303 -5.578,9.047 c -2.223,-0.419 -5.719,0.435 -5.13,-2.797 1.16,-2.185 3.626,-0.405 5.595,0 2.059,0.422 4.564,0.834 6.529,1.398 3.392,0.975 5.791,4.08 8.394,5.13 3.801,1.534 10.032,2.077 15.854,3.731 5.152,1.464 10.101,4.553 14.454,5.595 6.746,1.615 15.636,-0.526 21.448,1.866 2.111,0.868 4.512,3.618 6.996,5.593 3.101,2.47 6.04,3.974 6.994,6.063 1.308,2.867 1.033,7.21 1.399,11.191 0.731,7.981 -0.204,12.671 -6.528,13.056 -6.214,0.378 -10.853,-6.188 -15.388,-7.46 l 0.699,-0.545 c 0,0 -0.233,-0.854 0.7,-0.854 0.059,-0.838 -0.463,-1.092 -1.399,-0.933 -0.001,0.468 0.378,0.555 0.466,0.933 l -0.793,0.326 -0.605,0.606 c -2.595,-0.418 -3.26,1.093 -4.197,2.331 -2.061,-0.039 -4.132,-0.089 -4.196,1.865 0.364,7.661 7.325,13.616 6.994,22.383 -0.154,4.077 -3.001,9.363 -6.994,10.258 -13.265,2.975 -8.086,-13.732 -5.596,-19.118 1.308,-2.829 6.7,-7.533 1.865,-10.258 -4.928,-1.573 -13.031,1.905 -16.319,-1.866 z M 26.129,-61.828 h 0.933 c -0.001,0.468 0.377,0.556 0.466,0.933 -0.596,0.025 -0.645,0.598 -1.399,0.466 z m -36.837,22.382 c 0.393,0.541 0.616,1.25 0.467,2.332 -0.541,0.391 -1.25,0.615 -2.332,0.466 -0.764,-1.514 -0.251,-2.957 1.865,-2.798 m 25.181,1.865 h 2.331 c 0.026,0.284 0.07,0.552 0.466,0.467 v 2.331 c -1.965,2.786 -5.584,-0.833 -2.797,-2.798 m -11.658,1.399 c 0.364,-0.103 0.542,-0.39 0.467,-0.932 2.447,-1.174 5.469,-0.225 5.127,2.797 -1.552,1.815 -5.844,0.932 -5.594,-1.865 m -18.651,3.265 v -1.866 c 1.123,0.191 1.013,-0.851 2.331,-0.466 0.392,0.541 0.615,1.249 0.466,2.332 -0.596,0.637 -2.201,0.637 -2.797,0 m -23.781,4.196 c 0.63,-0.148 0.89,-0.664 1.866,-0.467 0.35,1.591 -1.782,1.818 -1.866,0.467 m 35.905,0.932 c 0.875,-1.32 3.874,-1.295 3.729,0.933 -0.277,2.465 -4.508,2.481 -3.729,-0.933 m 33.339,3.341 -0.7,-0.544 c 0.21,-0.76 -2.542,-0.76 -2.331,0 l -0.855,-0.232 -0.544,0.699 c -12.069,-4.46 -5.958,-20.822 4.662,-20.984 14.23,-0.215 12.579,21.929 -0.465,21.916 z m -73.44,11.58 c -0.141,-1.229 0.646,-1.53 1.865,-1.399 0.132,1.22 -0.171,2.005 -1.399,1.866 -0.027,-0.285 -0.07,-0.553 -0.466,-0.467 m 11.657,7.927 c 0.13,1.063 -0.113,1.753 -0.933,1.866 -0.734,-0.694 -0.52,-2.085 0.933,-1.866 m -6.529,2.332 c -0.385,-1.318 0.657,-1.208 0.466,-2.332 1.151,-0.061 2.247,-0.071 2.798,0.466 v 1.866 c -0.621,0.665 -2.642,0.665 -3.264,0 m 23.781,8.859 c 1.185,-4.003 3.68,1.986 0,0 m -7.46,0 c -0.95,3.583 -10.544,3.367 -15.855,3.73 -5.266,0.362 -11.239,1.197 -13.988,0.933 -2.097,-0.202 -4.846,-1.607 -7.46,-2.332 -2.681,-0.744 -5.168,-1.349 -7.461,-2.331 -5.196,-2.226 -9.087,-6.208 -12.59,-7.46 -4.611,-1.649 -9.907,-1.422 -12.123,-4.664 -4.054,-5.93 1.765,-11.558 7.927,-9.792 5.803,1.664 5.61,8.458 8.393,12.124 0.967,1.273 4.977,4.005 7.927,5.595 7.189,3.876 10.295,3.402 20.05,4.197 -2.628,-5.634 3.792,-9.886 6.995,-5.596 1.101,3.293 -2.221,4.599 -1.399,6.062 3.101,-0.162 6.941,0.413 9.325,-0.466 1.562,-1.391 1.102,-4.805 1.866,-6.994 2.348,-0.2 9.36,3.345 8.393,6.994 m 11.656,6.061 h 0.933 v 0.934 h -0.933 z m -3.263,5.13 c 1.892,-0.183 3.249,0.17 3.263,1.866 -0.657,1.207 -1.505,2.223 -3.73,1.864 -0.976,-1.031 -0.365,-3.105 0.467,-3.73 m -6.528,11.657 c -0.247,-2.113 0.686,-3.044 2.798,-2.798 1.458,2.007 -0.855,4.321 -2.798,2.798 m -33.573,0.933 c -0.57,7.014 -6.214,-2.294 0,0 m -12.59,3.263 c -0.16,-3.959 5.04,-4.812 8.393,-3.731 -0.044,3.756 -5.511,4.343 -8.393,3.731 m 20.051,-1.865 c 1.456,-0.793 2.463,-1.014 3.73,0 0.909,3.953 -4.816,4.367 -3.73,0 m 74.139,2.798 c 0.741,0.697 0.682,2.658 -0.932,2.332 -0.742,-0.697 -0.682,-2.659 0.932,-2.332 m -96.055,2.332 c 1.098,0.01 1.373,-0.804 2.798,-0.467 0.537,0.551 0.528,1.649 0.466,2.798 -0.551,0.538 -1.648,0.528 -2.798,0.467 -0.537,-0.551 -0.527,-1.649 -0.466,-2.798 m -0.932,1.399 c 0.104,0.881 -0.525,1.029 -0.466,1.864 -0.552,0.538 -1.649,0.529 -2.799,0.468 -1.775,-2.504 1.779,-4.442 3.265,-2.332 m 149.21,1.399 h 1.865 c 0.217,1.459 -0.405,2.081 -1.865,1.865 z m -97.452,36.836 c 0.362,-0.104 0.919,-0.012 0.932,-0.466 1.52,-0.121 2.244,0.554 2.331,1.865 -0.395,1.004 -1.148,1.65 -2.797,1.398 -0.537,-0.55 -0.528,-1.647 -0.466,-2.797 m 20.983,3.265 h 1.399 v -1.4 H 3.282 Z"
             style="fill:#262626;fill-opacity:1;fill-rule:nonzero;stroke:none"
             id="path142"
             inkscape:connector-curvature="0" />
        </g>
      </g>
    </g>
  </g>
</svg>
