<?xml version="1.0" encoding="UTF-8" standalone="no"?>
<!-- Created with Inkscape (http://www.inkscape.org/) -->

<svg
   xmlns:dc="http://purl.org/dc/elements/1.1/"
   xmlns:cc="http://creativecommons.org/ns#"
   xmlns:rdf="http://www.w3.org/1999/02/22-rdf-syntax-ns#"
   xmlns:svg="http://www.w3.org/2000/svg"
   xmlns="http://www.w3.org/2000/svg"
   xmlns:sodipodi="http://sodipodi.sourceforge.net/DTD/sodipodi-0.dtd"
   xmlns:inkscape="http://www.inkscape.org/namespaces/inkscape"
   width="26.942978mm"
   height="64.793747mm"
   viewBox="0 0 26.942978 64.793747"
   version="1.1"
   id="svg4060"
   inkscape:version="0.92.2 2405546, 2018-03-11"
   sodipodi:docname="paint04.svg">
  <defs
     id="defs4054">
    <clipPath
       clipPathUnits="userSpaceOnUse"
       id="clipPath102">
      <path
         d="M 0,600 H 600 V 0 H 0 Z"
         id="path100"
         inkscape:connector-curvature="0" />
    </clipPath>
  </defs>
  <sodipodi:namedview
     id="base"
     pagecolor="#ffffff"
     bordercolor="#666666"
     borderopacity="1.0"
     inkscape:pageopacity="0.0"
     inkscape:pageshadow="2"
     inkscape:zoom="0.35"
     inkscape:cx="8.5714149"
     inkscape:cy="560.00001"
     inkscape:document-units="mm"
     inkscape:current-layer="layer1"
     showgrid="false"
     fit-margin-top="0"
     fit-margin-left="0"
     fit-margin-right="0"
     fit-margin-bottom="0"
     inkscape:window-width="3840"
     inkscape:window-height="2095"
     inkscape:window-x="0"
     inkscape:window-y="0"
     inkscape:window-maximized="1" />
  <metadata
     id="metadata4057">
    <rdf:RDF>
      <cc:Work
         rdf:about="">
        <dc:format>image/svg+xml</dc:format>
        <dc:type
           rdf:resource="http://purl.org/dc/dcmitype/StillImage" />
        <dc:title></dc:title>
      </cc:Work>
    </rdf:RDF>
  </metadata>
  <g
     inkscape:label="Layer 1"
     inkscape:groupmode="layer"
     id="layer1"
     transform="translate(-3.6113898e-6,-232.20625)">
    <g
       transform="matrix(0.35277777,0,0,-0.35277777,-181.19565,440.34516)"
       id="g96">
      <g
         id="g98"
         clip-path="url(#clipPath102)">
        <g
           id="g104"
           transform="translate(539.166,467.4165)">
          <path
             d="m 0,0 c -0.479,-0.961 0.047,-1.907 0.51,-2.74 l 0.433,-0.856 c 0.036,-0.069 0.127,-0.108 0.198,-0.071 0.069,0.034 0.101,0.11 0.066,0.181 l -0.449,0.884 c -0.45,0.81 -0.915,1.648 -0.503,2.476 C 0.289,-0.057 0.261,0.029 0.19,0.064 0.119,0.099 0.034,0.071 0,0 M 2.614,-1.766 C 2.508,-1.788 2.439,-1.891 2.462,-2 L 2.49,-2.137 C 2.551,-2.42 2.609,-2.688 2.481,-2.918 2.43,-3.014 2.464,-3.135 2.56,-3.188 c 0.096,-0.053 0.217,-0.018 0.27,0.078 0.198,0.361 0.119,0.73 0.049,1.056 l -0.028,0.132 c -0.023,0.108 -0.128,0.178 -0.237,0.156 m 19.508,33.425 c -0.178,-0.036 -0.291,-0.208 -0.255,-0.385 0.068,-0.331 0.07,-0.629 0.002,-0.913 -0.042,-0.175 0.068,-0.351 0.243,-0.392 0.176,-0.041 0.351,0.068 0.393,0.242 0.087,0.379 0.089,0.769 0,1.195 -0.036,0.176 -0.208,0.289 -0.383,0.253 m 9.844,22.752 c -0.17,-0.07 -0.251,-0.265 -0.182,-0.434 1.124,-2.761 1.584,-5.059 1.45,-7.231 -0.01,-0.184 0.129,-0.342 0.312,-0.354 0.185,-0.011 0.344,0.129 0.353,0.312 0.142,2.277 -0.335,4.668 -1.499,7.524 -0.07,0.17 -0.262,0.252 -0.434,0.183 M -3.552,0.026 c -0.049,-0.053 -0.047,-0.136 0.006,-0.185 0.283,-0.265 0.655,-0.254 0.983,-0.242 l 0.36,-0.003 c 0.071,-0.001 0.141,0.056 0.142,0.128 0,0.073 -0.046,0.131 -0.118,0.132 L -2.57,-0.14 C -2.876,-0.149 -3.164,-0.159 -3.366,0.032 -3.42,0.082 -3.503,0.079 -3.552,0.026 M 8.841,9.319 C 8.785,9.279 8.709,9.289 8.669,9.345 L 9.188,8.619 C 9.229,8.562 9.312,8.542 9.367,8.582 9.423,8.622 9.441,8.692 9.401,8.748 L 8.868,9.496 C 8.907,9.44 8.896,9.359 8.841,9.319 m 17.153,-28.098 c -0.085,-0.021 -0.119,-0.101 -0.097,-0.186 0.021,-0.084 0.125,-0.131 0.21,-0.109 l 0.387,0.096 c -0.085,-0.022 -0.154,0.033 -0.176,0.118 -0.02,0.085 0.048,0.174 0.133,0.195 z m 4.544,50.049 c -1.635,-0.864 -3.694,-2.382 -4.236,-4.705 -0.04,-0.171 0.066,-0.342 0.238,-0.383 0.171,-0.04 0.343,0.067 0.383,0.238 0.487,2.09 2.395,3.485 3.914,4.287 0.154,0.082 0.213,0.275 0.132,0.43 -0.083,0.156 -0.276,0.215 -0.431,0.133 m -48.926,4.037 c -1.482,-1.974 -1.998,-5.879 -1.149,-8.708 0.057,-0.189 0.258,-0.298 0.448,-0.241 0.19,0.057 0.299,0.258 0.24,0.449 -0.776,2.591 -0.301,6.285 1.037,8.068 0.57,0.757 1.247,1.138 2.012,1.131 2.148,-0.02 3.077,-3.19 3.845,-6.435 0.045,-0.194 0.239,-0.314 0.433,-0.268 0.194,0.046 0.313,0.239 0.267,0.433 -0.832,3.524 -1.869,6.966 -4.539,6.991 -0.993,0.008 -1.89,-0.482 -2.594,-1.42 m -3.064,49.152 c -1.673,-0.13 -3.344,-2.795 -3.162,-6.555 0.008,-0.163 0.145,-0.288 0.306,-0.28 0.162,0.008 0.288,0.146 0.281,0.308 -0.171,3.542 1.412,5.847 2.622,5.941 0.865,0.068 1.498,-0.961 1.689,-2.749 0.313,-2.915 0.329,-7 0.344,-10.605 0.009,-2.239 0.018,-4.354 0.097,-5.894 0.007,-0.163 0.146,-0.287 0.308,-0.279 0.162,0.009 0.286,0.147 0.279,0.309 -0.08,1.526 -0.087,3.635 -0.096,5.866 -0.015,3.62 -0.03,7.721 -0.348,10.665 -0.341,3.178 -1.861,3.309 -2.32,3.273 M 29.1,100.847 c -0.093,-0.062 -0.089,-0.22 -0.029,-0.312 l 0.386,-0.584 c -0.061,0.092 -0.027,0.202 0.065,0.264 0.093,0.061 0.227,0.022 0.288,-0.07 l -0.459,0.68 c -0.061,0.092 -0.159,0.083 -0.251,0.022 M 1.076,-3.541 H 0.864 c 0.435,-1.214 2.279,-0.976 2.109,0.632 L 2.656,-3.014 2.551,-2.698 C 2.045,-2.895 1.992,-3.545 1.076,-3.331 Z m 25.29,30.35 c -1.44,-1.056 -1.869,-4.779 0.211,-4.637 1.843,0.125 1.222,3.063 0.421,4.425 L 26.613,26.493 Z M 24.892,-5.648 c -0.531,-0.682 -1.845,-1.163 -2.952,-0.633 0.067,1.352 -0.498,2.279 0.212,3.162 1.488,-0.166 2.817,0.189 2.74,-2.529 m -6.112,3.161 c 1.99,1.183 2.283,-2.419 2.107,-5.057 -0.164,-2.465 -1.105,-4.486 -1.265,-6.535 -0.321,-4.109 0.908,-7.035 1.054,-10.959 0.047,-1.249 0.271,-2.441 -0.633,-2.741 -2.732,-0.905 -1.973,6.049 -1.896,7.587 0.154,3.071 0.459,7.301 0.211,9.695 -0.139,1.332 -0.817,2.511 -0.843,3.584 -0.017,0.686 0.596,4.029 1.265,4.426 m 3.581,1.264 c -0.934,1.229 -1.711,3.551 -1.262,5.48 0.428,0.423 0.56,0.055 0.841,-0.211 -0.445,2.203 1.435,2.079 2.108,3.162 -0.263,2.445 -2.353,4.057 -1.264,7.167 h 0.421 c 1.541,-0.194 5.109,-2.657 5.48,-5.481 C 28.881,7.401 28.357,5.466 28.052,3.625 27.499,0.272 26.9,-1.967 22.361,-1.223 m -28.662,19.18 c 0.513,-1.275 0.199,-4.612 -1.897,-3.794 -0.058,1.348 -0.546,2.263 -0.421,3.794 1.087,0.227 0.953,0.556 2.318,0 m 19.39,-6.956 c -0.879,0.388 -1.987,4.61 -1.476,6.535 0.591,2.218 3.689,2.514 4.004,0 0.106,-0.838 -0.5,-2.511 -0.842,-3.794 -0.345,-1.292 -0.523,-2.949 -1.686,-2.741 m 14.754,2.741 c -2.204,0.325 -3.452,1.607 -4.849,2.739 0.375,2.248 1.833,4.539 4.004,3.372 1.535,-0.824 1.781,-4.633 0.845,-6.111 M 46.81,2.149 c -2.708,-0.139 -2.521,2.439 -2.74,4.427 -0.612,5.549 -1.176,13.899 -1.686,18.757 -0.154,0.575 0.419,0.425 0.421,0.843 h 0.634 c 2.024,-3.057 4.32,-7.562 4.635,-12.224 0.063,-0.908 -0.226,-1.779 -0.209,-2.74 0.007,-0.425 0.391,-0.456 0.421,-0.631 0.037,-0.23 0,-1.34 0,-1.687 0,-2.234 -0.015,-5.036 -1.476,-6.745 M 12.878,66.853 c -0.876,-1.372 -1.555,-2.942 -2.739,-4.005 -1.497,0.078 -1.738,1.76 -1.477,2.74 0.428,1.598 2.506,1.586 4.216,1.265 M -3.456,-0.063 -3.14,-0.168 c 0.506,0.769 2.305,0.355 3.161,0.21 0.396,0.587 1.185,0.782 1.897,1.054 -0.339,0.066 0.017,0.3 0.422,0.21 1.085,1.317 2.178,2.492 3.162,4.005 0.896,1.379 1.55,3.293 3.371,3.794 L 8.768,9.42 9.085,9.315 c 0.283,0.529 1.369,1.008 1.895,0.633 0.945,-3.975 1.664,-8.174 4.005,-10.749 0.923,-0.201 1.752,-0.497 2.319,-1.054 -0.253,-1.574 -0.607,-3.046 -1.475,-4.005 -1.035,-0.154 -1.968,-0.326 -2.951,0 -1.924,2.151 -0.548,7.602 -2.53,9.696 0.952,1.823 0.121,4.117 -1.053,5.058 V 8.683 H 9.085 C 8.479,7.021 9.034,4.7 9.506,3.415 8.777,3.02 8.013,2.659 6.767,2.782 3.579,0.903 3.4,-3.7 4.448,-8.389 5.23,-8.981 6.343,-8.001 7.188,-8.599 10.393,-13.085 4.418,-16.8 6.134,-20.823 6.623,-21.97 9,-22.499 9.295,-23.774 9.702,-25.533 8.023,-28.375 6.977,-30.308 5.231,-33.531 1.451,-37.54 5.08,-41.056 c 1.451,0.187 2.007,-0.522 2.74,-1.054 -0.094,-4.58 -2.81,-8.495 -3.372,-12.645 -0.302,-2.225 0.292,-6.171 2.74,-6.324 2.28,-0.143 3.299,2.968 3.372,5.058 0.06,1.742 -0.866,4.261 -0.633,6.956 0.166,1.916 1.529,8.114 2.53,8.642 1.712,0.901 1.984,-0.691 3.583,-1.055 0.754,-0.172 1.938,0.168 2.949,0 1.681,-0.278 2.474,-1.145 3.163,-1.054 1.514,0.2 2.703,2.102 2.951,3.584 0.687,4.136 -1.888,6.991 -1.265,10.537 2.148,3.491 4.937,-0.826 6.532,-2.529 1.762,-1.878 2.872,-2.631 4.216,-4.637 0.906,-1.35 1.409,-2.902 2.53,-4.004 1.228,-1.207 3.225,-2.623 4.635,-2.951 2.787,-0.645 6.161,0.65 6.114,3.162 -0.08,4.129 -4.207,4.177 -7.588,5.268 -0.793,0.256 -1.631,0.755 -2.53,1.055 -1.018,0.339 -2.16,0.399 -2.949,0.843 -0.87,0.487 -2.056,2.056 -3.374,3.372 -2.638,2.638 -7.526,5.631 -5.268,9.695 l -0.105,0.21 0.105,0.211 c -0.128,0.012 -0.251,0.032 -0.211,0.212 0.298,2.729 0.117,6.371 0.842,9.483 0.504,2.156 1.623,4.331 2.318,7.166 0.229,0.923 0.582,2.115 0.844,3.794 0.304,1.949 0.079,3.369 1.475,3.372 0.742,0.001 3.21,-3.757 3.374,-5.058 0.184,-1.469 -0.744,-2.845 -0.423,-4.637 0.421,-2.337 2.932,-3.848 4.637,-4.848 0.774,-0.453 1.516,-1.036 2.318,-1.053 2.1,-0.044 3.261,2.327 5.691,2.529 1.537,0.128 2.235,-1.133 3.583,0.422 0.859,2.973 -0.966,4.884 -1.053,7.376 -0.117,3.307 0.91,6.929 0.633,10.539 -0.364,4.697 -2.28,10.471 -4.216,13.277 0.247,0.033 0.597,-0.036 0.632,0.211 -1.212,0.417 -1.499,2.092 -2.53,3.372 -0.695,0.864 -2.052,1.614 -2.949,2.74 -1.098,1.375 -1.525,2.662 -2.53,3.161 -2.513,1.247 -5.534,-1.606 -8.221,-2.108 l 0.318,-0.246 -0.106,-0.386 h 1.054 c 0.713,-1.244 -1.875,-9.988 1.264,-10.538 1.02,-0.179 2.202,0.73 2.319,1.897 0.23,2.285 -2.284,2.804 -2.531,4.426 -0.305,2.03 1.74,4.867 3.164,5.058 0.959,0.129 3.06,-0.777 3.581,-1.475 1.254,-1.678 1.678,-7.676 1.897,-12.646 0.216,-4.896 -0.026,-8.74 -0.421,-12.435 -0.213,-1.99 -3.143,-2.978 -4.848,-2.74 -1.146,0.796 -1.996,2.323 -3.161,4.005 -0.831,1.2 -2.411,2.879 -2.739,4.637 -0.145,0.773 0.045,1.654 0,2.529 -0.214,4.039 -0.918,8.723 -4.005,8.641 -2.092,-0.056 -2.169,-2.382 -3.795,-2.529 -0.238,3.119 0.423,7.164 0.212,10.959 L 22.186,30.286 21.94,30.602 C 21.089,26.254 21.738,20.407 20.676,16.271 20.15,16.093 19.547,15.994 18.78,16.059 c -1.195,0.718 -0.733,2.58 -1.265,4.216 -0.361,1.106 -1.32,1.907 -1.686,2.95 -1.845,5.25 1.795,9.578 6.111,7.799 l 0.246,0.316 0.387,-0.106 v 0.422 c 0.619,0.505 1.157,0.865 2.107,1.265 0.841,0.353 1.747,0.308 2.741,0.632 2.073,0.674 4.213,1.885 6.533,2.107 2.675,0.257 7.022,-1.015 6.744,1.686 -0.372,3.627 -6.636,-1.261 -7.798,1.686 -0.032,1.157 0.805,1.445 0.633,2.74 -0.386,0.88 -1.673,0.858 -2.318,1.476 1.093,1.015 2.901,1.313 2.739,3.583 l -0.388,-0.106 -0.245,0.317 c -1.094,-1.884 -4.28,-5.512 -6.534,-2.951 -0.083,1.489 1.367,1.443 1.265,2.951 -1.114,1.762 -2.472,0.495 -3.793,0.632 -2.533,0.262 -3.208,2.002 -4.005,4.215 -0.355,0.986 -0.895,1.65 -0.842,2.318 0.144,1.895 2.482,3.297 4.847,2.529 1.095,-0.355 1.999,-1.952 2.739,-2.108 2.381,-0.497 4.318,2.043 4.849,-0.842 l 0.245,0.316 0.387,-0.106 c -0.653,2.221 -1.773,3.369 -1.476,5.691 0.126,0.98 0.931,1.552 0.844,2.529 -0.148,1.642 -2.479,3.768 -4.426,4.005 -1.56,0.189 -3.13,-0.763 -4.637,-0.422 -1.062,0.241 -1.6,1.333 -2.53,2.108 -1.07,0.892 -2.177,1.296 -2.739,2.107 -1.401,2.021 -0.357,5.277 -2.74,6.323 -1.658,-1.459 0.559,-3.728 0.842,-5.269 -0.162,-0.697 -0.596,-0.779 -0.842,-1.475 -0.238,-0.668 0.565,-2.055 -1.053,-1.897 0.052,1.458 -0.057,2.754 -0.423,3.794 -0.557,0.636 -1.794,0.594 -1.896,1.686 -2.319,0.491 -4.108,1.512 -5.48,2.95 0.37,2.263 -2.43,4.662 -3.793,2.529 C 2.116,77.274 4.242,77.649 4.236,75.916 4.232,74.754 2.86,74.665 2.13,73.386 1.08,71.553 2.189,67.878 1.707,66.221 1.438,65.294 -0.014,64.716 -0.189,64.113 1.54,60.212 -0.544,56.301 -1.242,52.1 -2.474,44.704 -2.462,33.268 -6.933,29.97 c -1.069,-0.788 -2.877,-1.163 -4.216,-0.632 -0.032,0.247 0.036,0.598 -0.21,0.632 l -0.246,-0.316 -0.386,0.105 v -0.632 c -1.386,-1.508 -4.493,-2.375 -6.955,-2.108 l -0.246,-0.316 -0.387,0.106 c -0.119,-2.832 -3.353,-2.55 -3.794,-5.059 1.013,-1.312 2.325,-0.198 3.583,-0.21 2.131,-0.023 4.078,-1.197 6.322,-1.687 1.199,-0.26 2.682,0.107 3.584,-0.843 C -9.918,16.081 -8.628,12.677 -8.83,8.683 -8.9,7.313 -9.367,6.132 -9.252,4.889 -9.097,3.2 -8.192,2.347 -7.777,0.884 c 0.29,-1.018 0.521,-2.926 0.422,-4.215 -0.083,-1.053 -0.899,-2.29 -1.053,-3.793 -0.303,-2.926 0.891,-6.14 3.582,-5.901 1.075,0.096 2.079,1.303 2.318,1.897 1.784,4.407 -2.834,6.391 -2.951,9.695 1.335,0.815 -0.164,0.807 1.476,1.475 -0.526,-0.826 -0.23,-0.615 0.632,-0.421 z M 22.152,2.992 C 22.209,3.279 22.021,3.815 21.94,3.415 21.884,3.127 22.07,2.591 22.152,2.992 m -31.404,36.04 c 0.489,-0.416 0.564,-0.416 1.054,0 -0.073,0.49 -0.136,0.988 -0.843,0.843 0.047,-0.397 -0.238,-0.465 -0.211,-0.843 m -8.431,1.687 c -0.856,3.239 -7.154,2.001 -5.268,-2.74 2.104,-2.645 6.117,-0.47 5.268,2.74 m 12.014,15.385 c -6.147,-1.169 -6.082,-11.082 0.633,-10.96 1.526,1.626 2.271,2.888 2.318,4.848 0.062,2.633 -1.593,3.921 -1.896,5.691 -0.156,0.893 0.821,2.325 -0.212,2.95 -0.407,-0.716 -0.434,-1.813 -0.843,-2.529 m -1.686,2.951 h 0.631 v 0.632 h -0.421 c -0.011,-0.27 -0.269,-0.292 -0.21,-0.632 m 2.529,3.372 h 0.421 c 0,0.212 0.172,0.251 0.212,0.421 -0.271,0.012 -0.292,0.271 -0.633,0.211 z m 24.238,9.274 c 0.614,-0.31 0.614,0.942 0,0.632 z m -0.211,2.107 c 1.061,-0.147 1.39,0.437 1.265,1.475 -0.84,1.019 -2.041,-0.374 -1.265,-1.475 M -22.74,76.97 c 0.236,-0.045 0.327,-0.235 0.422,-0.422 0.574,-0.154 0.423,0.419 0.841,0.422 0.101,0.661 -0.262,0.861 -0.631,1.053 -0.235,-0.326 -0.685,-0.439 -0.632,-1.053 m 22.34,0.632 c 0.785,0.293 0.261,2.17 -0.632,2.107 -0.452,-0.658 -0.129,-1.999 0.632,-2.107 m 22.761,0.211 c 1.887,-0.305 3.016,1.047 2.11,2.317 -1.681,0.204 -2.034,-0.918 -2.11,-2.317 m -7.798,-0.211 c 1.111,0.373 1.513,2.698 0,2.95 -1.444,-0.072 -1.366,-2.865 0,-2.95 M 0.021,82.871 c -0.185,0.162 -0.601,-0.13 -0.631,-0.211 -0.298,-0.795 1.048,-0.151 0.631,0.211 m -24.658,-4.848 c -0.44,-2.682 -2.365,-6.783 1.264,-7.376 0.439,0.684 0.48,1.768 0.843,2.529 0.288,0.696 1.609,0.358 1.475,1.475 -0.367,1.052 -1.785,-0.005 -2.318,1.054 -0.23,0.754 -0.328,1.638 -0.632,2.318 l -0.316,-0.105 z m 5.655,-13.383 -0.386,0.105 c -0.28,-1.579 0.081,-3.436 -0.422,-4.847 -0.459,-1.29 -2.692,-2.57 -2.95,-4.848 -0.312,-2.745 1.318,-4.808 3.582,-4.847 2.615,-0.045 3.748,2.411 3.372,5.058 -0.27,1.914 -2.107,3.23 -2.528,4.637 -0.434,1.448 0.072,3.676 -0.422,5.058 z m 43.03,19.073 c 0.543,0.16 0.732,0.674 0.632,1.476 -0.312,0.109 -0.531,0.311 -0.842,0.422 -0.731,-0.271 -0.969,-1.937 0.21,-1.898 M 32.057,85.4 H 32.9 v 1.054 H 32.268 C 32.091,86.209 31.99,85.889 32.057,85.4 M 13.932,84.346 c 1.102,-0.575 2.045,0.171 1.897,1.476 -0.768,1.448 -2.885,0.034 -1.897,-1.476 m -35.62,2.108 c 0.588,-0.338 0.584,0.91 0.211,0.842 -0.066,-0.284 -0.299,-0.402 -0.211,-0.842 m 14.123,-4.215 c 2.975,0.581 2.85,7.111 -1.476,6.112 -4.063,-0.939 -1.954,-6.783 1.476,-6.112 m 21.076,6.533 c 0.02,-0.518 0.392,-0.764 1.052,-1.054 2.535,1.42 -1.151,3.517 -1.052,1.054 m -1.687,3.161 c 0.163,-0.047 0.416,-0.006 0.421,-0.21 0.675,0.027 0.929,0.478 0.844,1.264 -0.312,0.11 -0.531,0.312 -0.844,0.422 -0.279,-0.353 -0.558,-0.706 -0.421,-1.476 m 1.898,4.215 c -0.865,1.92 -2.919,-1.257 -0.633,-1.264 0.44,0.191 0.642,0.622 0.633,1.264 m 15.594,4.005 c -0.505,-1.409 -2.157,-2.012 -2.95,-3.161 -0.845,-1.227 -1.512,-3.184 -1.474,-4.848 0.039,-1.747 1.136,-2.45 1.053,-4.426 0.46,0.038 0.67,-0.173 0.632,-0.633 0.437,-0.405 -0.071,-1.757 0.844,-1.685 1.377,-0.513 1.288,1.386 2.319,2.951 0.863,1.313 2.22,2.385 3.16,3.793 1.034,1.548 2.132,3.416 2.319,4.848 0.434,3.336 -2.618,3.53 -5.479,3.372 l -0.106,-0.317 z m -0.105,0.527 0.317,-0.105 c -0.026,0.536 -0.307,0.817 -0.843,0.842 0.024,-0.537 0.039,-1.084 0.631,-1.053 z M -0.4,100.364 c 0.046,0.164 0.177,0.245 0.421,0.211 0.534,3.424 -3.235,0.158 -0.421,-0.211 m 33.721,2.318 c -0.047,-0.398 0.239,-0.465 0.212,-0.843 0.536,0.026 0.818,0.307 0.842,0.843 -0.275,0.271 -0.776,0.271 -1.054,0 m -18.758,-0.421 c 1.13,-0.076 1.583,0.525 1.477,1.686 -1.087,1.403 -2.775,-0.704 -1.477,-1.686 m 6.113,1.264 c 0.686,-0.055 1.015,0.25 1.053,0.843 -0.183,0.309 -0.315,0.668 -0.842,0.632 -0.32,-0.297 -0.664,-1.023 -0.211,-1.475 m 11.171,0.633 c 0.002,0.418 0.574,0.268 0.421,0.842 -0.286,0.067 -0.403,0.301 -0.844,0.211 -0.03,-0.523 -0.038,-1.022 0.423,-1.053 m -5.27,1.053 c 0.048,0.164 0.176,0.245 0.421,0.211 0.01,0.641 0.123,1.387 -0.632,1.265 -0.536,-0.392 -0.532,-1.306 0.211,-1.476 m 9.063,3.372 c 0.744,-0.705 1.493,-2.14 2.739,-1.686 0.062,1.397 -0.534,2.134 -1.053,2.951 -1.163,0.18 -1.551,-0.417 -1.686,-1.265 m -44.47,2.951 c 0.164,-0.047 0.415,-0.006 0.422,-0.211 2.183,-0.458 2.111,2.751 0.21,2.53 -0.733,-0.32 -1.093,-1.416 -0.632,-2.319 m 4.847,10.749 c 0.475,-0.916 -0.035,-1.864 -0.631,-2.319 -2.711,-0.353 -1.668,3.739 0.631,2.319"
             style="fill:#262626;fill-opacity:1;fill-rule:nonzero;stroke:none"
             id="path106"
             inkscape:connector-curvature="0" />
        </g>
      </g>
    </g>
  </g>
</svg>
