<svg xmlns="http://www.w3.org/2000/svg" width="244.889" height="142.482" viewBox="0 0 64.794 37.698"><path d="M10.966 28.126l-.589.2a5.86 5.86 0 0 1-.65.214.055.055 0 0 0-.04.066.055.055 0 0 0 .066.041c.226-.056.447-.139.662-.219l.58-.197c.028-.01.047-.041.037-.07-.01-.029-.037-.045-.066-.035m-1.698.564l-.586.159-.1.025a.043.043 0 1 0 .021.083l.1-.024.59-.16c.024-.006.036-.03.03-.053a.044.044 0 0 0-.055-.03m-1.242.28l-.096.02-.496.102c-.039.008-.067.045-.059.084a.068.068 0 0 0 .08.056l.506-.103.096-.021a.07.07 0 0 0-.031-.138m-1.838.353l-.433.08c-1.069.201-2.175.408-3.282.549a.086.086 0 0 0-.074.096.085.085 0 0 0 .096.074c1.112-.141 2.22-.348 3.291-.549l.434-.081a.086.086 0 0 0 .068-.1.085.085 0 0 0-.1-.07M12 27.672l-.156.066c.014-.006.029.002.035.016.006.014-.003.03-.017.037l.166-.071c.014-.007.018-.021.011-.035-.006-.015-.025-.02-.039-.013m21.049-7.291c-.006.012.003.028.015.036l.177.088c-.013-.007-.014-.02-.008-.033.006-.012.025-.015.037-.009l-.19-.096c-.013-.006-.025 0-.031.014m4.523.346c-.568.019-1.102.173-1.618.32l-.096.029a.056.056 0 0 0 .031.107l.095-.027c.51-.147 1.038-.298 1.59-.316a.056.056 0 0 0 .055-.058.056.056 0 0 0-.058-.055m3.538.21c-.005.025.004.048.03.052l.128.025c.053.004.098.008.134.037a.048.048 0 0 0 .067-.008.048.048 0 0 0-.008-.067c-.059-.046-.125-.052-.185-.057l-.102-.018c-.026-.005-.06.01-.064.035m-.934-.142a.039.039 0 0 0 .032.071c.069-.03.142-.02.22-.007l.182.01c.022.002.033-.014.034-.036.001-.021-.022-.04-.044-.041l-.16-.01c-.086-.014-.174-.028-.264.013m-2.146-.09a.033.033 0 0 0 .006.066c.573-.051 1.176-.088 1.687.068a.033.033 0 0 0 .041-.022.032.032 0 0 0-.021-.041c-.523-.16-1.133-.124-1.713-.07m-6.723-1.323l-.209.07a1 1 0 0 0-.301.117.048.048 0 0 0-.014.065.047.047 0 0 0 .065.013.922.922 0 0 1 .274-.105l.226-.076c.024-.008.032-.032.024-.057-.008-.024-.04-.036-.065-.027m.064.293l-.03.001-.167.024c-.027.004-.036.027-.033.054.004.026.038.043.064.04l.141-.02.03-.002a.048.048 0 0 0 .047-.05.05.05 0 0 0-.052-.047m-.363.045c-.027.005-.054.03-.05.058.004.027.02.046.047.04l.152-.024c-.027.005-.057-.012-.061-.039-.005-.027.009-.051.035-.056zm-6.58-2.069l-.342.05-.626.105c-.037.006-.06.04-.053.078.005.037.044.062.082.056l.616-.102.345-.051a.067.067 0 0 0 .056-.078.069.069 0 0 0-.078-.058m9.744.915l-.028.002a.329.329 0 0 0-.168.049.028.028 0 0 0-.008.04.029.029 0 0 0 .04.008c.045-.031.091-.035.14-.04l.03-.002a.028.028 0 0 0 .026-.03.03.03 0 0 0-.032-.027m-2.955-1.143a.028.028 0 0 0 0 .039l.091.091a.027.027 0 0 0 .04 0 .026.026 0 0 0 0-.037l-.093-.093a.028.028 0 0 0-.038 0m11.623-.673c-.153.032-.306.041-.467.05l-.307.026a.078.078 0 0 0-.07.085.083.083 0 0 0 .089.073l.297-.024c.16-.01.326-.02.49-.054a.08.08 0 1 0-.032-.156m-2.258 1.16a.073.073 0 0 0 .046.094l.092.03a.073.073 0 0 1 .046-.138l-.092-.031a.072.072 0 0 0-.092.046m-8.397-.584a.028.028 0 0 0-.009.04.028.028 0 0 0 .04.007.188.188 0 0 1 .18-.02.03.03 0 0 0 .038-.015.03.03 0 0 0-.016-.039.248.248 0 0 0-.233.027m-.857-.04a.049.049 0 0 0 .028.063.603.603 0 0 0 .248.026.518.518 0 0 1 .21.02.049.049 0 0 0 .064-.027.049.049 0 0 0-.027-.064.588.588 0 0 0-.25-.027c-.075.002-.146.005-.21-.02a.049.049 0 0 0-.063.029m-2.641-3.89a.044.044 0 0 0-.033.053c.037.162.138.273.276.303a.044.044 0 0 0 .052-.033.044.044 0 0 0-.033-.053c-.142-.032-.192-.162-.21-.237a.044.044 0 0 0-.052-.033m18.084.086c-.571.663-1.331 1.183-2.067 1.645a.067.067 0 0 0-.021.092.066.066 0 0 0 .091.02c.745-.468 1.515-.994 2.097-1.671a.066.066 0 0 0-.007-.094.066.066 0 0 0-.093.007m-3.796 2.583l-.043.01-.201.072c-.039.014-.05.053-.037.092.014.038.064.055.103.042l.171-.06.044-.012a.074.074 0 0 0-.038-.144m4.657-3.511c-.006.077-.055.135-.107.195-.051.062-.105.126-.122.215a.047.047 0 1 0 .093.018.4.4 0 0 1 .103-.171c.055-.067.119-.142.127-.25a.047.047 0 0 0-.094-.007m-4.288.657l-.101.022-.033.007a.07.07 0 0 0-.055.085.072.072 0 0 0 .084.056l.033-.007.108-.025c.039-.009.06-.046.051-.085a.073.073 0 0 0-.087-.053m-16.406-.81a.034.034 0 0 0 .008.046c.187.13.412.221.628.304a.034.034 0 0 0 .043-.02.034.034 0 0 0-.02-.043 2.87 2.87 0 0 1-.612-.296.034.034 0 0 0-.047.009m14.965-.926a.082.082 0 0 0 .073.09c.424.042.858.047 1.276.05l.932.026a.085.085 0 0 0 .086-.08.08.08 0 0 0-.077-.083l-.939-.026c-.415-.004-.845-.01-1.262-.05a.081.081 0 0 0-.09.073m3.493.29l-.628.206c-.548.175-1.115.356-1.628.626a.034.034 0 0 0-.014.046.034.034 0 0 0 .046.014c.507-.266 1.07-.446 1.617-.621l.629-.206a.033.033 0 0 0 .02-.043.034.034 0 0 0-.042-.022m2.145.624c-1.32.054-2.85.125-4.321.277a.054.054 0 1 0 .01.107c1.469-.152 2.997-.222 4.315-.276a.054.054 0 0 0 .051-.057.053.053 0 0 0-.055-.05m.4-1.377a.45.45 0 0 0-.171.173.029.029 0 0 0 .012.039.028.028 0 0 0 .038-.013.386.386 0 0 1 .15-.15.03.03 0 0 0 .01-.04.029.029 0 0 0-.04-.01m-22.754.967a.043.043 0 0 0 .01.061c.144.104.264.235.381.363.122.133.248.27.4.375a.042.042 0 0 0 .06-.011.043.043 0 0 0-.01-.06 2.286 2.286 0 0 1-.386-.363 2.656 2.656 0 0 0-.394-.375.043.043 0 0 0-.061.01m1.182 1.176a.035.035 0 0 0 0 .05l.917.92.965.969a.035.035 0 0 0 .05 0 .035.035 0 0 0 0-.05l-.965-.97-.917-.919a.036.036 0 0 0-.05 0m1.106 3.099a.025.025 0 0 0 .007.035c.104.069.198.162.269.269a.024.024 0 0 0 .034.007.025.025 0 0 0 .007-.035 1.034 1.034 0 0 0-.282-.283.025.025 0 0 0-.035.007m-2.433-2.309a.026.026 0 0 0 0 .037l.167.154c.097.084.197.17.266.28a.027.027 0 0 0 .046-.03c-.074-.115-.177-.204-.277-.29l-.162-.151c-.012-.01-.03-.01-.04 0m4.914.95c-.02.01-.025.039-.015.058l.097.18c.056.111.113.228.21.313a.04.04 0 0 0 .057-.004.04.04 0 0 0-.003-.058c-.085-.074-.136-.178-.19-.289l-.102-.187c-.011-.02-.034-.023-.054-.013m.427-.008a.045.045 0 0 0-.039.05.443.443 0 0 0 .098.204l.067.108c.013.021.044.033.065.02.02-.013.03-.036.017-.057l-.077-.124c-.038-.053-.072-.099-.08-.163a.045.045 0 0 0-.05-.039m-1.847.398a.022.022 0 0 0-.001.03c.133.15.29.284.443.414.185.156.375.317.52.506a.021.021 0 0 0 .03.005.021.021 0 0 0 .005-.03c-.148-.194-.34-.357-.527-.514-.151-.129-.308-.262-.439-.41a.02.02 0 0 0-.03-.001m-3.287-3.52a.06.06 0 0 0-.04.074.059.059 0 0 0 .074.04c.13-.04.274.072.358.178l.02.026.131-.012.157-.006c.033 0 .067-.028.065-.06-.001-.034-.02-.06-.053-.058l-.18.006-.07.006c-.113-.132-.286-.247-.462-.194m15.477-3.595a.077.077 0 0 0-.004.11c.126.137.28.237.44.336a.077.077 0 0 0 .107-.026.078.078 0 0 0-.025-.106 1.854 1.854 0 0 1-.409-.31.077.077 0 0 0-.109-.004m-1.054-.303a.04.04 0 0 0-.022.053l.028.068c.12.114.263.084.388.048a.04.04 0 0 0 .029-.05.04.04 0 0 0-.051-.029c-.108.032-.22.055-.3-.016a.446.446 0 0 0-.018-.051.042.042 0 0 0-.054-.023M28.147 18.757a.023.023 0 0 0-.01.031c.115.229.318.39.514.545l.135.108a.024.024 0 0 0 .032-.003.023.023 0 0 0-.003-.033l-.136-.11c-.192-.151-.39-.308-.5-.528a.024.024 0 0 0-.032-.01m2.206-.136a.02.02 0 0 0-.01.029c.057.107.156.177.251.243l.166.13c.01.007.025.008.032-.002.007-.009.008-.02-.001-.028l-.173-.136c-.095-.066-.185-.128-.237-.227a.02.02 0 0 0-.028-.009m.265.99l-.078.02c-.056.01-.126.02-.17.088a.048.048 0 0 0 .012.066.047.047 0 0 0 .065-.013c.022-.032.055-.039.108-.048l.103-.028c.026-.007.032-.03.025-.055-.007-.024-.04-.037-.066-.03m-1.188.335c-.425.102-.818.22-1.234.346l-.284.086a.062.062 0 0 0-.042.077.061.061 0 0 0 .076.04l.286-.084c.414-.126.805-.244 1.227-.345a.06.06 0 0 0 .045-.074.062.062 0 0 0-.074-.046m-5.367 1.282l-.162.02c-.439.057-.893.115-1.339.072a.07.07 0 0 0-.076.063.07.07 0 0 0 .063.076c.461.045.923-.014 1.37-.072l.16-.021a.069.069 0 0 0 .06-.078.07.07 0 0 0-.076-.06m2.202-.398l-.737.146c-.342.074-.697.151-1.051.19a.07.07 0 0 0-.06.077.068.068 0 0 0 .075.06c.361-.04.72-.117 1.066-.192l.728-.146a.07.07 0 0 0 .057-.08.066.066 0 0 0-.078-.055m4.683 3.223a.027.027 0 0 0-.011.036c.039.078.107.117.173.154l.065.04a.027.027 0 0 0 .037-.008c.008-.012.005-.028-.007-.035l-.07-.043c-.06-.035-.12-.068-.151-.132a.026.026 0 0 0-.036-.012m-.443 1.174c-2.124.923-4.219 2.019-6.244 3.078l-2.75 1.42a.089.089 0 0 0-.038.12.087.087 0 0 0 .118.039l2.752-1.422c2.022-1.058 4.115-2.151 6.233-3.072a.089.089 0 0 0-.07-.163m2.001-5.179a.025.025 0 0 0-.005.035c.044.058.104.088.164.118l.115.07c.012.008.03.006.038-.005.007-.012.007-.025-.005-.032l-.126-.078c-.056-.028-.11-.054-.146-.103a.025.025 0 0 0-.035-.005m5.908-1.255c-.005.018.013.036.03.041l.192.048.148.044c.018.005.033-.006.038-.024.005-.016-.008-.036-.026-.042l-.138-.041-.21-.05c-.018-.006-.03.007-.034.024m3.673-.494c-.015.039-.005.079.034.093l.21.083.169.063c.04.014.09-.002.104-.04.014-.04.002-.08-.037-.095l-.191-.072-.183-.07c-.038-.015-.091 0-.105.038m1.823-1.014c-.006.026.008.06.034.066.027.007.051-.002.058-.029l.026-.103c-.006.027-.034.047-.06.04-.027-.006-.044-.03-.038-.056zm6.166-3.88a.082.082 0 0 0 .07.093c.46.066.93.107 1.384.146l.273.024a.082.082 0 0 0 .088-.075.08.08 0 0 0-.074-.088l-.273-.024c-.452-.039-.92-.079-1.376-.145a.082.082 0 0 0-.092.07m-.434-2.332a.07.07 0 0 0-.06.079.071.071 0 0 0 .079.061c1.91-.248 3.876-.155 5.776-.064.95.045 1.932.092 2.895.094a.07.07 0 1 0 0-.14c-.96-.004-1.94-.05-2.888-.095-1.907-.09-3.878-.184-5.802.065m11.061-.187c-.263.05-.536.074-.8.096l-.666.072c-.05.006-.08.05-.076.099.006.049.054.084.103.078l.654-.07c.269-.023.546-.046.819-.099a.09.09 0 0 0-.034-.176M48.853 8.219a.055.055 0 0 0-.033.07c.201.56.216 1.248.044 2.044a.056.056 0 0 0 .042.066.055.055 0 0 0 .065-.042c.177-.818.162-1.525-.048-2.104a.055.055 0 0 0-.07-.034m-1.838-1.081a.067.067 0 0 0 .053.078c.406.075.831.222 1.263.437a.066.066 0 0 0 .058-.12 5 5 0 0 0-1.297-.448.066.066 0 0 0-.077.053m-1.178-.164c-1.847.127-4.154.511-5.091 1.208a.053.053 0 1 0 .063.086c.919-.683 3.203-1.061 5.035-1.188a.054.054 0 0 0 .05-.056.054.054 0 0 0-.057-.05m-5.37 1.135a.116.116 0 1 0 0 .233h.31a.116.116 0 0 0 0-.233zm-.471-.137c-.013.033-.003.066.029.078l.153.06c.1.032.185.06.235.147a.062.062 0 0 0 .085.022.062.062 0 0 0 .023-.085c-.074-.128-.196-.168-.305-.203l-.134-.052c-.031-.012-.075.001-.086.033m-.326-.104a.039.039 0 0 0-.019.05.037.037 0 0 0 .051.02c.07-.031.15-.013.228.004l.042.01.053.068c-.013-.016-.012-.043.005-.055.017-.014.04-.012.052.004l-.063-.082L40 7.878l-.055-.01c-.085-.02-.183-.042-.276 0m-2.465-.22a.047.047 0 0 0 .001.094 12.1 12.1 0 0 1 2.471.206.047.047 0 0 0 .055-.036.046.046 0 0 0-.037-.055 12.158 12.158 0 0 0-2.49-.209m-.6.056c-2.533.314-4.732 1.084-6.539 2.287a.038.038 0 1 0 .042.063c1.797-1.196 3.986-1.961 6.505-2.275a.037.037 0 0 0 .033-.042.037.037 0 0 0-.042-.033m-7.908 3.97c-.044.339.103.737.461.804a.06.06 0 1 0 .022-.118c-.286-.054-.402-.386-.365-.67a.059.059 0 0 0-.051-.068.06.06 0 0 0-.067.051m11.75-3.471l-.363.28c-.284.204-.577.414-.724.744a.03.03 0 0 0 .016.041c.016.007.034 0 .04-.015.141-.315.427-.52.704-.72l.369-.283c.013-.011.014-.03.004-.043-.01-.013-.032-.015-.046-.004m-4.763 3.462a.064.064 0 0 0 .014.126c2.015-.215 3.928-.287 5.686-.215a.062.062 0 0 0 .065-.06.062.062 0 0 0-.06-.066c-1.764-.073-3.683 0-5.705.215m3.383 2.183c-.18.046-.368.095-.554.103a.06.06 0 0 0-.056.061.059.059 0 0 0 .061.056c.199-.008.392-.058.578-.106.217-.055.423-.108.635-.101a.059.059 0 1 0 .004-.118c-.23-.007-.452.05-.668.105m-2.222.318c-.015.01-.018.032-.009.047l.025.04.08.109.011-.004c.574.043 1.248.072 1.89-.04a.032.032 0 0 0 .027-.037.032.032 0 0 0-.037-.027c-.631.11-1.294.081-1.862.04l-.053-.072-.028-.048c-.01-.015-.029-.018-.044-.008m1.039 1.236c-.005.014-.04.034-.088.046a.037.037 0 0 0-.028.044.037.037 0 0 0 .044.029c.036-.01.12-.034.142-.093a.037.037 0 1 0-.07-.026m-6.12 1.302a.07.07 0 0 0 .068.07c.131.004.257.042.39.083l.192.054a.067.067 0 0 0 .083-.05c.01-.036-.014-.075-.05-.085l-.185-.052c-.136-.042-.277-.085-.427-.089a.07.07 0 0 0-.07.069m-1.24-2.132a.027.027 0 0 0 .009.037l.429.263c.416.261.847.531 1.32.707a.028.028 0 0 0 .035-.017.026.026 0 0 0-.016-.034c-.469-.173-.897-.441-1.312-.7l-.429-.265a.026.026 0 0 0-.036.009m-1.78-1.19a.618.618 0 0 0-.062.024.037.037 0 1 0 .029.068l.047-.021a.265.265 0 0 1 .237.176.037.037 0 0 0 .047.024.037.037 0 0 0 .024-.047.336.336 0 0 0-.322-.224m-.811-.534c-.018.024-.012.058.011.075l.45.346.27.213a.05.05 0 0 0 .073-.01.053.053 0 0 0-.01-.074l-.267-.211-.455-.35c-.023-.017-.054-.012-.072.011m-.714-.676c-.01.012-.01.028.001.037l.18.153c.095.075.184.146.255.236a.027.027 0 0 0 .038.004.028.028 0 0 0 .004-.038c-.075-.095-.17-.17-.263-.244l-.176-.15c-.01-.01-.03-.01-.04.002m-2.409-1.75a.045.045 0 0 0 .025.058c.188.077.348.2.519.328.166.127.338.257.537.34a.046.046 0 0 0 .06-.024.046.046 0 0 0-.025-.06c-.188-.079-.356-.206-.518-.329-.167-.126-.34-.257-.538-.339a.045.045 0 0 0-.06.025m-2.048-1.04a.074.074 0 0 0 .043.097c.635.246 1.13.48 1.56.738.034.02.08.01.1-.025a.074.074 0 0 0-.025-.102c-.436-.262-.938-.5-1.582-.75a.074.074 0 0 0-.096.043m-.212 1.65a.053.053 0 0 0-.046.057.053.053 0 0 0 .058.046c.189-.022.37.026.564.076.157.04.318.083.485.086a.052.052 0 0 0 .053-.052.052.052 0 0 0-.05-.053c-.156-.002-.311-.043-.462-.082-.193-.05-.394-.102-.602-.078m-3.82-.196a.08.08 0 0 0 .027.157 7.952 7.952 0 0 1 2.229-.06.08.08 0 0 0 .087-.071.08.08 0 0 0-.07-.088 8.166 8.166 0 0 0-2.273.062m4.101 1.08a.03.03 0 0 0 .002.042l.734.67c.387.345.787.703 1.148 1.08a.03.03 0 0 0 .044.001.032.032 0 0 0 0-.044 20.307 20.307 0 0 0-1.15-1.083l-.734-.669a.032.032 0 0 0-.044.002m2.532 3.165c-.033.014-.052.042-.037.074l.114.265c.058.107.112.21.113.32a.064.064 0 1 0 .13-.002c-.003-.142-.067-.263-.13-.38l-.103-.235c-.014-.032-.055-.057-.087-.042m-2.342 2.777l-.132.03-.188.046c-.046.012-.056.051-.045.098.01.046.076.068.122.058l.13-.03.192-.048c.046-.011.055-.05.045-.096-.012-.047-.077-.069-.124-.058m-5.67 2.153l-1.237.304c-2.258.559-4.592 1.137-6.969 1.123a.06.06 0 0 0-.06.06.06.06 0 0 0 .06.061c2.39.014 4.733-.566 6.998-1.127l1.237-.303a.06.06 0 0 0 .044-.073.06.06 0 0 0-.072-.045m2.813-3.589a.07.07 0 0 0 .005.138c.24-.01.486.018.723.045.213.024.433.05.653.047a.07.07 0 0 0-.001-.138 5.172 5.172 0 0 1-.636-.047c-.243-.027-.494-.056-.744-.045m-4.476-.572a.07.07 0 0 0 .057.08c.528.092 1.071.16 1.596.224.684.084 1.392.171 2.076.314a.07.07 0 0 0 .083-.055.07.07 0 0 0-.054-.082c-.69-.145-1.4-.232-2.088-.317-.523-.065-1.064-.131-1.589-.222a.07.07 0 0 0-.081.058m-3.504-.953a.038.038 0 0 0 .025.049c.4.126.81.228 1.206.327l.862.226a.039.039 0 0 0 .047-.027.038.038 0 0 0-.026-.047l-.864-.226a21.008 21.008 0 0 1-1.202-.326.038.038 0 0 0-.048.024m-2.396-.808a.046.046 0 0 0 .032.058c.428.126.868.287 1.292.442l.496.18a.046.046 0 1 0 .031-.088l-.495-.18c-.426-.155-.867-.316-1.298-.443a.046.046 0 0 0-.058.032m4.04 1.728a.049.049 0 0 0 .034.06c.126.033.255.029.38.025.125-.005.242-.01.354.02a.048.048 0 0 0 .06-.033.048.048 0 0 0-.035-.06c-.126-.034-.256-.03-.382-.025a1.198 1.198 0 0 1-.352-.022.048.048 0 0 0-.06.035m-5.723.687c-1.618.715-2.984 2.241-2.467 3.556.346.878 1.385 1.373 3.09 1.47a.055.055 0 0 0 .058-.052.055.055 0 0 0-.052-.058c-1.658-.094-2.666-.566-2.994-1.401-.486-1.236.873-2.734 2.41-3.415a.055.055 0 1 0-.045-.1m41.07 11.81l-.113.023-.113.021c-.03.006-.043.033-.037.062.005.029.038.047.068.041l.096-.018.137-.029c.028-.006.04-.032.033-.061-.006-.03-.042-.045-.071-.04m11.545-4.521c-.006.026.006.05.032.056l.1.022.023.003a.05.05 0 0 0 .056-.042.048.048 0 0 0-.04-.054l-.026-.004-.082-.018c-.026-.005-.057.01-.063.037m-18.446-2.16c-.007.028.012.049.04.056.03.007.06-.02.068-.048l.02-.079c-.008.029-.036.042-.064.035-.029-.007-.046-.04-.039-.07zm-.038-6.486a.072.072 0 0 1-.092.046l.092.031a.073.073 0 0 0 .092-.046.074.074 0 0 0-.046-.092l-.093-.031a.073.073 0 0 1 .047.092m-6-.936a.054.054 0 0 0-.047.06.054.054 0 0 0 .06.047c.073-.01.145.005.223.02l.233.025c.03.004.046-.018.05-.047.003-.03-.028-.056-.057-.06l-.206-.023a.78.78 0 0 0-.257-.022m11.559-4.554l-.037.017-.061.032c-.024.013-.028.04-.016.065.013.024.048.031.072.019l.047-.025.04-.018c.025-.012.034-.041.022-.067a.05.05 0 0 0-.067-.023m4.106-.49l-.026.002-.1.023c-.014.004-.017.017-.013.032.003.016.026.023.041.02l.079-.017.026-.003a.028.028 0 0 0 .025-.032.03.03 0 0 0-.032-.026m2.168-1.877a.044.044 0 0 0 .023.058c.024.01.027.029.024.091-.002.057-.006.133.06.18a.043.043 0 0 0 .06-.01.044.044 0 0 0-.01-.062c-.024-.018-.024-.05-.022-.104.002-.06.006-.142-.078-.177a.044.044 0 0 0-.057.024m9.339 17.31c-.005.027.023.053.05.059l.099.021c-.027-.005-.04-.03-.034-.056s.035-.043.061-.037l-.13-.025c-.027-.006-.04.013-.046.038m-32.378 6.37c.061.138.18.218.414.184-.005-.143.144-.132.091-.323-.036-.01-.053-.039-.045-.092-.198-.093-.5-.052-.46.23m7.716-.69c-.14-.608-1.06.338-.137.322.066-.15.175-.155.137-.322m-7.486-.738c.038.299.511.286.505-.046-.051-.246-.503-.242-.505.046m20.208-7.42c.148.387.632.666.965.646.864-.052 1.089-1.635.275-1.89-.427-.133-.834.01-1.056.277-.165.199-.068.354-.321.6.18.055.1.273.138.368M.395 9.493c-.009-.1.162-.021.229-.047.008.1-.163.021-.23.047m2.113 20.46c-.586.038-.733-.457-1.378-.507-.448-.035-.926.207-1.057.553-.412 1.092 1.026 1.683 1.792 1.152.4-.277.326-.644.597-1.014.035-.01.09-.001.092-.046l-.069-.054zm4.96-.876c-.532.004-.933.14-1.332.276l.069.055-.023.084c.515-.021.99-.081 1.332-.276l-.069-.054zm1.148-.23c-.283-.023-.5.02-.643.138l.07.053-.024.085c.307.032.499-.053.643-.184l-.069-.023zm1.126-.254l.022-.069c-.271-.027-.413.077-.55.184l.068.024-.023.069c.28.035.433-.058.551-.184zm2.273-.898v.045c.317.213.59.32.827.231.554-.206.388-1.116-.23-1.106-.493.008-.475.362-.643.83zm16.993-8.11c-.069-.097.235.33 0 0m11.574 1.29a.84.84 0 0 0 .597.138l-.023-.069.07-.023c-.097-.147-.424-.263-.644-.138l.023.045zm-.918-.092c-.113.469.587.576.55.092l-.022-.047.023-.046c-.148-.06-.34-.129-.505-.046l.023.07zm-2.067.045c.17.244.216-.098.46-.046l-.024-.046-.023-.046c-.156.013-.372-.036-.459.046l.023.047zm-4.34-.345l-.07-.023c.088.809-.872.568-.872 1.29.368.073.453.011.827 0 .399.214.495.598.827.645 1.36.192 1.425-.652 1.975-1.244l-.069-.023.023-.069c-.046 0-.055-.037-.092-.046-.044-.259.117-.312.138-.507-.103-.127-.377-.083-.552-.138-.26-.246-.49-.522-.413-1.106-.711.254-1.589.341-1.745 1.152zm-2.136-.668c.054-.008.13.008.138-.046l-.069-.023.023-.07c-.054.008-.13-.008-.138.046l.07.024zm.643-2.443c.07.141.22.333.046.461.173.117.337-.104.505-.138.033-.171-.079-.198-.046-.368l-.069.022.023-.069h-.413l.023.07zm-3.537-2.304c.034.142-.079.136-.045.277.112.113.199-.034.367 0v-.046h.046c-.062-.138-.207-.191-.322-.277v.046zm-2.296-2.304c.039.268.216.398.46.461v-.046h.045c-.01-.036-.001-.09-.045-.092-.05-.266.127-.471-.046-.6-.173.011-.195.174-.368.185l.023.07zm4.685 6.959c-.032.27.318.182.413.091l-.023-.045-.023-.046c0-.061-.08-.043-.091-.093l-.07-.023-.022-.07c-.028.08-.218-.003-.23.093l.069.023zm-1.194.368c.38.017.688.108.918.277.155.002.2-.108.276-.185.017-.201-.13-.237-.138-.414l-.069-.023.023-.07c-.469-.025-.891-.002-1.056.277l.069.053zm-6.798 1.244c-.073-.59-.226-1.184-.597-1.52-.198-.18-.6-.405-.918-.415-.793-.025-1.245.793-1.01 1.52.276.858 1.603 1.038 2.48.554l-.024-.085zm1.883-.184c-.24.061-.476-.15-.505.092l.07.054-.024.085c.206.006.393-.005.506-.093l-.07-.054zm14.239-2.258c.072.173.165.326.459.277.262-.254-.184-.589-.414-.323v.046zm3.72-.369c.223.372.59 1.001 1.193.876.474-.099.47-.605.368-1.06-.04-.179-.061-.445-.183-.553-.218-.169-.248.242-.46.231-.349.065-.58.247-.873.369l.023.084zm2.25-3.41c-.363.289-1.055.417-1.516.461-.13.131-.123.399-.275.507l.069.054-.024.084c.241.031.187.366.092.507-.08.027-.27-.056-.275.046l.069.054-.023.085c.146-.04.142.072.23.092-.115.345-.63.29-1.01.368-.068.102-.15.19-.23.277-.578-.138-.602.435-1.103.23l.023.085-.069.054c.003.028.007.054.046.046-.045.506-.671.533-1.056.783-.397.257-.561.81-1.195.737-.211.26-.922.225-.78.691.687.206 1.091-.558 1.561-.645.243-.044.548.12.827.046.3-.078.495-.612.781-.83.124-.093.338-.136.505-.229.212-.119.337-.27.505-.277.054-.002.142.139.23.047l.06-.06.078-.033c-.118-.191.218-.352.459-.554.354-.293.703-.578 1.24-.552l.046.023.046.023c1.204-.24.977 1.355 1.654 1.798.342-.265.446-.646.918-.6.641.063.332.76.46 1.337.054.25.309.6.596.691 1.118.353 1.152-1.127 1.837-1.244.531-.09.478.19.781.414.309.228.744.399 1.057.507.295.31 1.301.548 1.699.185-.253-.369-.683-.525-1.148-.553-.214-.014-.44.08-.643.045-.322-.054-.67-.454-.873-.644-.39-.368-.443-.849-.873-1.152.012-.227.018-.448-.229-.415-.35.197-.04.49-.322.645-.108.06-.46.043-.597 0-.244-.078-.509-.41-.55-.646-.086-.472.176-.89-.092-1.29-.23-.338-.754-.241-.781-.645h.55c.114-.137.23-.533.046-.69-.49.123-.784.44-1.24.598-.219.035-.203-.164-.413-.138-.33.027-1.075.293-1.102-.184l-.023-.07zm7.027-1.474c.244.002.553.29.827.23.207-.045.357-.248.321-.415-.1-.457-.81-.065-1.102.047l.022.084zm-4.318-.738c-.57.296-1.685.05-2.296.185-.145-.054-.142-.257-.275-.323-.218-.018-.147.252-.276.323-.377.098-.947.002-1.286.138l.069.054-.023.084c1.08.015 2.416-.174 3.399.046v.139l.084-.023.053.069c.26-.38.767-.263 1.332-.231.665.039 1.416.092 1.976.139l-.024-.085.07-.054c-.562-.124-1.355-.18-2.022-.23-.24-.018-.543.086-.689-.138v-.046l-.068.023zm13.274-1.843c.764.083 1.518-.333 2.204-.322.373.006.72.236 1.103.184.493-.067.949-.512.735-1.152-.33-.29-.95-.24-1.24-.092-.325.164-.458.598-.827.783-.637.32-1.219.22-2.021.461l.069.053zm-2.342.185c.215.3.765.176.964-.046l-.069-.054.023-.085c-.22-.205-.791-.177-.965.046l.024.07zm-9.462-.969c-.066.057-.061.185-.183.185-.05.002-.117-.021-.046-.046-.178-.027-.737.345-.781.645l.069-.023-.023.07c.122.063-.089.18-.092.092h-.046v-.046a.232.232 0 0 0-.138.138c-1.1.124-2.208.243-3.49.183l.023.085-.07.054c.338.108.873.016 1.287.046a.216.216 0 0 1-.046.139h.046v.046c.666-.166 1.577-.317 2.296-.277.143.164.213.402.184.737-.105.049-.277.03-.367.092l.022.046.023.047c0 .046.037.055.047.092l.068-.023.023.069c.455-.408.853.506 1.608.415.292-.036.649-.266.688-.692.046-.481-.269-.548-.275-1.151l-.069-.054.023-.085c-.291-.168-.497-.423-.689-.691l-.069-.023zm-.596-2.626c.062.353.36.467.55.691l.023-.069.07-.023c.022-.207-.024-.345-.047-.506-.14-.12-.345-.177-.55-.231l.016.082zm-2.435-.552c.454.056.712.266 1.24.137l-.023-.084.069-.053c-.215-.05-.352-.21-.597-.231-.234-.02-.452.122-.735.092l.023.07zm-15.8 2.857c-.706.334-1.398.685-1.377 1.75l.069-.022.069.022c.205-.47.746-.602.826-1.198.18-.142.333-.31.505-.46l-.068-.023zm7.12-2.305c-.16-.131-.477-.099-.597.047l.022.046-.022.045c.21.062.485.065.642-.045l-.023-.046zm2.158 1.566c-.302.07-.362.406-.229.692.114-.178.31-.048.413-.23.092-.163.024-.29-.092-.461l-.046.023zm-1.378 6.222c.57-.235 1.043-.632 1.47-.968.145-.114.313-.29.46-.368.14-.076.692-.268.826-.277.56-.039 1.092.502 1.7.277.305-.113.47-.428.734-.692.055-.007.13.008.138-.046l-.069-.053.023-.085h-.092c-.05-.12-.112-.226-.091-.414.08.003.142-.01.183-.047l-.023-.046-.023-.046v-.046h-.046v-.046c-.3.242-.591.053-1.01-.046-.327-.078-.567-.07-.644-.231-.116-.246.204-.609.506-.737l-.023-.084.07-.054c-.004-.028-.008-.054-.047-.046-.112-.283.103-.541.138-.83.118-.96-.254-1.781-.919-2.074l-.023.07-.069.023c.392.255.828 1.055.735 1.89-.04.356-.218.92-.505.967l.023.084-.069.054c.126.34-.243.795-.551 1.198-.321.422-.617.93-1.056.968l.023.07-.07.022c-.052.392-.553.335-.872.461h.046v.046c.033.01.094.001.092.046-.02.428-.986.562-1.24.876a.419.419 0 0 1 .184.184l.046-.023zm-9.002-1.843c-.002.028-.006.055-.046.046l.023.07-.068.022c.085.698.517 1.048 1.102 1.245v-.046h.046c.141-.066.206-.022.321.045l.046-.045.046.045c.063-.075-.039-.27.092-.368h.046l-.023-.023.023-.024c-.179-.655-.587-1.256-1.516-1.013l-.023.07zM27.63 12.58c-.011.036-.002.09-.046.092v.046h-.046a1.275 1.275 0 0 0 .459.23l-.023-.069.069-.022c-.025-.205-.224-.236-.367-.323v.046zm-4.731-3.226c-.01-.036-.039-.053-.092-.046-.17-.467-.497-.812-1.01-.737-.516.075-.67 1.033 0 1.198.455.112.666-.21 1.056-.276l-.023-.085zm2.02 1.06c-.118-.142-.231-.289-.458-.322l-.06.06-.078.032c.13.161.294.288.551.322l-.023-.069zm1.011 1.659a4.69 4.69 0 0 0 1.056.415l-.023-.069.07.023v-.139c.053-.039.123-.06.229-.046l-.023-.069.069.024c.077-.482.26-.91.046-1.245-.3-.467-1.04-.35-1.47.092l.023.046-.023.046c-.001.278.079.475.046.783l.023.07zm-2.296-.783c.26.561.99.708 1.607.783l-.023-.07.07-.022a.215.215 0 0 1 .045-.138l-.069-.023.023-.07c-.114-.61-.44-1.426-1.194-1.197-.277.083-.268.435-.505.645l.023.046zm-4.868-.46c-.639.067-1.994-.5-2.021.368-.01.297.25.574.55.599.553.045.67-.577 1.103-.738.147-.054.252.017.413-.092l-.069-.054zm4.133 1.105c-.01-.36-.427-.31-.367-.738.051-.01.07-.05.092-.092l-.07-.023.024-.068c-.206-.324-.54-.747-1.011-.692-.299.035-.374.277-.597.461l.023.069.023.07c.145.483.558.7 1.24.644.182.155.277.398.597.415v-.046zm2.205 2.027c-.056-.174-.127-.333-.368-.322v.046h-.046c.07.16.165.296.367.323v-.047zm-2.068 4.056c.255-.048.452.125.506-.092l-.07-.054.024-.085c-.167.033-.38.018-.506.092l.07.054zm-1.56-1.383c.48.23 1.19.063 1.79.092.337.016.648.176.827-.092-.331-.64-1.347.201-1.883-.276-.15.098-.352.13-.689.138l.023.085zm-2.114-.184c.163.258.718.597.873.091l-.069-.053.023-.084c-.2-.156-.572-.047-.78-.092l.022.084zM9.81 14.055c-.048-1.115-1.838-1.31-1.929-.23-.062.743.752 1.203 1.424.875.246-.12.296-.396.551-.553l-.023-.046zm2.48.83c-.158-.15-.402-.212-.689-.231l.024.069-.07.023c.184.123.35.264.69.23l-.024-.07zm2.251 1.013c.322.107.842.016 1.24.046l-.023-.085.069-.053c-.425-.234-1.032-.286-1.562-.415l.023.07-.068.022c.096.133.4.059.413.277-.028.002-.054.006-.046.045l.023.07zm-6.43.737c1.549-.627 3.59-.76 5.787-.737l-.023-.069.07-.023c-.25-.179-.792-.074-1.195-.093-.718-.032-1.507-.108-2.16-.046-1.01.096-1.891.505-2.525.83l.062.056zm1.056 4.793c-.008-.176-.065-.304-.229-.323-.12.063-.128.24-.23.323l.023.046.023.046c.05.104.289.017.413.046l-.022-.07zm21.954 2.81c.114.22-.08.37-.275.415.02.189-.043.295-.092.415-.113.04-.265.042-.276.183l.062.058-.016.082c.756-.256 1.39-.633 2.159-.876.302.342.077.857.459 1.106.432.28 1.405-.034 2.02.184.343.122.29.363.644.277.17-.045.14-.29.183-.461.02-.2.257-.253.138-.46-.592-.145-1.3-.361-1.194-1.06-.147-.068-.365-.065-.321-.323.145-.124.464-.224.827-.323.292-.08.71-.237.964-.184.247.051.696.731.964.83.252.091.775.076 1.148 0 .382-.079 1.504-.4 1.516-.784.008-.233-.297-.353-.505-.553-.196-.19-.323-.44-.551-.553-.313-.154-.708-.148-1.056-.23-.141.11-.263.039-.414.092-.438.152-.787.636-1.24.83-.283.12-.692.189-1.056.322-.35.127-.68.305-1.01.414-.271.09-.545.09-.781.185-.441.178-.93.594-1.333.599-.333.004-.608-.37-.918-.23l.023.069zm2.87-5.598l.023-.07c-.344-.085-.697-.16-.78-.506-.31-.002-.53.11-.643-.138-.025-.665.894-.582 1.102-.185.531-.024 1.808-.104 1.47.6-.385.017-.822.606-1.103.276zm.988-1.452h.23c-.013.198.164.204.321.23.032.2-.083.255-.183.323-.151-.094-.402-.088-.506-.23-.017-.172.186-.12.138-.323m-2.457 2.88l.069.023c.036-.102.284.01.23-.184.027-.181-.318.011-.276-.184.083-.378.506-.316.78-.415.435-.157.86-.515 1.425-.461.165.034.13.268.321.277.178-.427 1.212-.337 1.424 0-.143.223-.111.571.275.506.255-.093.063-.363.23-.506.568-.014.893-.272 1.47-.277l-.023-.046.022-.046c-.074-.611.548-.984 1.287-.83.144.03.262.218.413.231.218.018.334-.164.505-.138l-.023-.085.07-.054c-.279-.243-.906-.136-1.333-.23.146-.28.829-.374 1.01-.092.226.042.175-.194.368-.185.218-.019.24.158.46.139.207-.068.212-.34.367-.461.173-.042.415-.014.551-.092l-.069-.054.023-.085c-.107.015-.176-.007-.23-.046.205-.285.707-.273.965-.506l-.07-.054.024-.084c-1.938.886-4.47 1-6.798 1.198-.177-.038-.204-.226-.32-.323-.171-.066-.31.075-.414-.092.181-.509.717-.663 1.194-.876.18-.027.266.04.367.093.158-.089.215-.277.367-.37.281-.01.437-.145.644-.23l-.023-.046.023-.046c-.261-.368-.546-.027-1.01.092-.28.072-.608.15-.92.138-.516-.018-1.1-.293-1.47-.23-.294.05-.52.349-.688.415-.14.033-.135-.08-.275-.046-.118.222-.206.009-.368.092.051.254.362-.005.367.322-.202.315-.666.577-1.056.553l.023.07-.023.069c.063.14-.021.164 0 .368v.046h-.046c.202.399-.172.588-.413.692-.315.054-.29-.231-.505-.277-.399-.046-.26.446-.46.6-.27-.196.008-.747.276-.83l-.023-.07.069.024c.005-.057.014-.11.091-.093l-.022-.069.069-.023c-.017-.323.334-.278.413-.507l-.023-.068.023-.07c-.332-.143-.772-.178-.827-.599.026-.142.246-.092.184-.323-.399.001-.174-.623-.643-.552l-.023.069-.069-.023c.082.488-.2.513-.46.691-.26.18-.331.373-.504.276v.046h-.047c-.468.432-1.195.956-1.699.277v.046h-.046c-.133.146-.31-.055-.275-.23h.046v-.046h.046c-.208-.26-.542-.406-.827-.83-.342-.51-.407-1.264-1.24-1.106l.023.07-.069-.024a.55.55 0 0 0-.092.83l.054-.07.084.024v-.093c.369-.444.859.258.872.692-.205.099-.545.222-.642-.047l-.085.024-.053-.07c-.028.003-.055.007-.046.046-.344.24-.769.422-.827.922-.035.307.138.544.046.876-.065.088-.223.083-.321.137l.022.07-.022.07c0 .045.037.054.046.091-.117.192-.394.219-.597.277-.69.196-1.413.356-2.067.553-.059-.129-.113-.228-.046-.369.335-.11.756-.131 1.056-.276l-.069-.054.023-.085c-.497-.022-.782.168-1.194.231-.305-.147-.409-.42-.689-.507-1.087-.334-1.272.756-1.607 1.337-.79.19-1.12.843-1.93 1.013l.023.069-.022.069c.19.24-.177.588-.23 1.06-.06.538.104.8.138 1.198-.463.476-.212 1.145.55 1.107.125.247.217.708.368.783-.007.429.192.88.184 1.474-.004.351-.164.694-.183 1.014-.013.21.085.448.091.691.02.734-.217 1.46-.137 2.074.143 1.11 1.09 1.378 2.204.921.113.148.186.337.276.507.471.267 1.118.153 1.194-.368.04-.277-.124-.423-.184-.738l-.063-.055.017-.083c-.376.124-.727.351-1.148.507-.338.125-.803.26-1.102.23-.991-.094-1.073-1.708-.873-2.856.049-.281.217-.492.23-.738.012-.244-.116-.417-.138-.599-.049-.382.021-.735 0-1.014-.032-.42-.137-.706-.23-1.014-.11-.369-.262-.58-.367-.875-.052-.145-.03-.305-.092-.46-.081-.204-.28-.332-.368-.554-.126-.32-.122-.806-.091-1.106.069-.672.549-1.28.918-1.429.233-.092.61-.108.919-.184.317-.077.624-.14.918-.184.621-.093 1.186-.348 1.745-.507.598-.17 1.228-.29 1.838-.415.324-.066.636-.085.964-.137.32-.052.621-.2.919-.231.64-.065.68.141 1.102.276.496.16 1.216.148 1.424.369l.023-.023.023.023c.536-.205 1.545-.163 2.204-.092l-.023-.07.069.024c.398-.196 1.51-.156 1.378.323 0 .322-.397.247-.551.414l.069.023-.023.07h.138c.012.104-.012.172-.092.183l.023.046.022.046c.099.298.373-.026.552.093.068.222-.211.095-.184.276-.055.193.193.083.23.185-.065.372-.167.689-.367.921-.168.195-.444.247-.598.461-.542.098-1.136.148-1.607.369-.173.081-.29.231-.46.276-.06.016-.119-.051-.275-.046-.27.009-.43.172-.551-.046a3.31 3.31 0 0 0-.184-1.751l-.023-.07-.023-.068c-.69.014-1.24.169-1.653.46l.023.07-.023.069c.104.408.237.705.46.921.056.056.132.198.183.231.042.028.136-.022.183 0 .024.01.048.119.092.138.18.077.404.055.597.138.118.05.206.183.321.23.253.104.56.105.782.23.12.07.228.211.367.324.523.42.965.912 1.745.967l-.023-.069.07.024c.267-.24.572-.252.78-.554.303-.44.229-1.147.459-1.705-.102-.163-.215-.218-.23-.414-.012-.164.449-1.268.506-1.292zm24.548 17.626c.144.022.206-.04.184-.184h-.183zm-21.953-.829c.064.012.052.102.092.138.163.01.24-.066.23-.23-.104-.098-.303-.033-.322.092m14.65-1.244c.145.02.148-.1.138-.23h-.137a.172.172 0 0 0 0 .23m6.889.322c-.174 1.537 1.816 1.472 1.93.323.08-.833-.66-1.302-1.195-1.29-.352.267-.68.492-.735.967m-2.71-.968c-.014.214.081.319.276.323.17-.24-.093-.545-.276-.323m3.17-.783c.08.041.134.111.229.139.099-.086.233-.135.184-.37-.166-.16-.457-.07-.414.231m-2.847-.921c.061.06.17.06.184-.047-.062-.06-.171-.06-.184.047m2.756-.139c.187.02.29-.047.275-.23-.12-.329-.552.016-.275.23m-5.374-.23c.129-.058.152-.189.092-.323-.304-.084-.366.326-.092.323m-6.43-.645v-.277c-.65-.45-.543.817 0 .277m-24.342-.507c.059.002.064.059.138.046.002-.08-.036-.118-.092-.138 0 .046-.037.055-.046.091m22.413-.091c.144.02.205-.04.184-.185h-.184zm13.09.23c.18.027.266-.04.367-.092.127-.794-.835-.298-.367.092m-23.7-.737c-.002-.254-.498-.387-.413.138.212.15.416.036.414-.138m-9.416-.323c.052.01.072.052.092.092.087.01.102-.052.184-.045.015-.107-.007-.178-.046-.23-.15-.013-.22.054-.23.183m12.952-1.06h.138v-.092h-.137zm-6.063-.046c.122 0 .263.018.322-.046.125-.61-.676-.292-.322.046m24.802-.092c.249.326.796.015.55-.414-.258-.212-.678-.04-.55.414m-26.96-.277c-.053-.471-.899-.23-.505.323.323.127.53-.1.505-.323m-2.985 0c.248-.03.35-.33.183-.599-.71-.298-.685.66-.183.6m17.544-.737c-.062-.015-.088-.066-.183-.047-.035.157.175.18.183.046m-4.547-.092c-.127-.58-1.194-.306-1.102.415.166.218.581.185.873.277.078-.242.28-.458.23-.692m-12.585-.046c.219.07.404-.017.367-.322-.227-.258-.628.064-.367.322m25.536-.23c.145.05.121.02.23-.046.007-.115-.07-.145-.138-.185-.052.056-.132.084-.092.23m-1.975.092c-.765.175-1.394-.278-1.883 0-.51.292-.429 1.258.138 1.43.735.222 1.309-.52 1.47-1.107a.425.425 0 0 0 .275-.184l-.023-.07zm.207.024l.023.069c.362-.048 1.224.264 1.378-.184-.194-.432-1.307-.227-1.47.091zm2.457-.207c.12.013.198-.018.184-.139-.06-.002-.064-.059-.138-.046-.015.062-.066.088-.046.185m-28.476-.093c.144.022.206-.04.184-.184-.126-.143-.327.057-.183.184m17.544-.276c-.04-.036-.131.028-.138.046-.065.174.229.033.138-.046m-.826-.277c.002-.25-.368-.342-.46 0 .087.345.457.224.46 0m-6.798-.23h-.137a.135.135 0 0 0 .137 0m19.565.277c.188.019.29-.048.276-.23-.089-.313-.479-.005-.276.23m-39.084-.369c.143.021.204-.04.183-.185-.126-.143-.326.058-.183.185m1.102-.369v-.138h-.138c-.008.1.038.146.138.138m-6.384.37c.026.656.992.556.964-.047-.014-.305-.371-.469-.597-.415-.272.065-.377.214-.367.461m48.684-.554h.183c-.018-.11.084-.1.046-.23-.053-.038-.123-.06-.229-.046-.063.059-.063.218 0 .277m-18.601 0c-.031.12.21.991.275 1.06.168.177.397.137.597 0 .312-.542-.647-1.943-.872-1.06m14.743.138h.321a.329.329 0 0 1 .092-.138c.08-.663-.81-.259-.413.138m-23.24-.507v.092c.028.003.055.007.046.046h.092c.002-.028.007-.054.046-.046v-.092c-.028-.002-.054-.007-.046-.046h-.092c-.002.028-.007.055-.046.046m12.539-.138h.092v-.092h-.092zm14.008.138c.039-.054.06-.124.046-.23-.054-.04-.123-.061-.23-.046-.055.129-.026.293.184.276m-41.84 0c.08.042.134.112.229.138.099-.084.233-.134.184-.368-.137-.175-.513-.103-.414.23m24.204-.23c.088.02.116.098.23.092.079-.059.18-.095.184-.23-.024-.069-.068-.117-.092-.185-.251-.036-.358.07-.322.323m14.054 0c.188.051.28.01.414-.093.143-.811-.92-.325-.414.093m-37.293-.323c.163.01.24-.066.23-.23-.159-.162-.392.071-.23.23m22.137 0v-.322c-.56-.433-.56.755 0 .322m-5.603.277c.597.079.566-1.02-.092-.738-.384.165-.247.693.092.738m6.338-.646c.092.047.073.204.23.185.068-.025.116-.068.183-.092.044-.367-.372-.382-.412-.093m-10.06-.046c-.055-.458-.82-.365-1.102-.092a.991.991 0 0 0 .368.553c.493.056.77-.166.735-.46m9.507-.415c-.14.3.07.547.321.599.179-.179.12-.712-.23-.646-.01.037-.038.055-.09.047m-13.504.276c.171.019.27-.037.275-.184-.103-.31-.529-.01-.275.184m13.916-.322c.1.132.232.063.276-.093-.09-.122-.272-.103-.275.093m5.924-.185v.139c.053.038.123.06.23.046-.01-.087.051-.102.046-.185-.06-.063-.217-.063-.276 0m-23.24.092c-.007.115.072.143.092.23.186.019.32-.017.322-.183-.054-.195-.323-.239-.414-.047m27.052.093c.11-.02.1.084.23.046.118-.132.004-.31-.138-.323-.04.082-.128.118-.092.277m-12.493-.093c.214.056.22-.183.046-.184-.014.062-.065.088-.046.184m-22.504 0c.159.037.202-.042.23-.138-.054-.039-.124-.06-.23-.046zm4.5-.184h.092v-.092h-.091zm4.731.138c.002-.2-.144-.315-.368-.276-.089.016-.549.622-.412.691.319-.112.777-.08.78-.415m-1.837 0c.077.061.154.122.322.093-.001-.109.078-.136.046-.277-.145-.14-.394-.086-.368.184m-3.077-.276h.092v-.092h-.092zm6.338.138c-.002-.318-.63-.454-.597.092.171.318.599.18.597-.092m30.22-.23c-.001-.064.023-.101.047-.139-.063-.014-.088-.065-.184-.046-.013.12.017.198.138.185m-1.93.138c.236-.003.267-.234.139-.368-.32-.069-.328.285-.138.368m-23.975-.23h.23a.213.213 0 0 1 .046-.138c-.081-.042-.117-.129-.276-.093zm23.056 0c.178.008.264-.074.276-.23-.116-.349-.574.03-.276.23m-10.058 2.073c.402-.048.768-.467.873-.737.44-1.14-.895-2.052-1.93-1.797-1.405.777-.126 2.676 1.057 2.534m-5.879-2.35c.28.027.252-.243.046-.276-.055.071-.147.179-.046.276m-18.738.83c.202-.062.443-.37.32-.784-.085-.29-.417-.398-.688-.369-.98.106-.46 1.403.368 1.153m43.448-.876c.187.019.29-.047.275-.23-.11-.319-.531.037-.275.23m-40.05-.046c.136.175.513.102.413-.23-.136-.176-.512-.102-.413.23m40.991-.07l.069-.022c-.188-.686-1.013.052-.46.23a.35.35 0 0 0 .414-.138zm-7.647-.207h.092v-.092h-.092zM47.838 24.7c.503-.098.43-1.444-.413-1.152-.699.243-.093 1.251.413 1.152M27.4 23.64c-.002-.058-.059-.063-.046-.137-.829-.233-.105.83.046.137m26.776-.092c.053.039.124.06.23.046.002-.14.027-.303-.138-.276-.02.088-.13.083-.091.23M32.82 23.41h.092v-.092h-.092zm-13.687-.092c.003-.08-.035-.118-.092-.138-.066.067-.067.178.092.138m-.643-.046a.171.171 0 0 0 .23 0c.007-.116-.07-.145-.138-.184 0 .092-.125.058-.092.184m33.85-.184h.091c.051-.067.05-.113-.045-.139-.003.06-.06.064-.046.139m-19.06.137c.36.016.347-.603-.047-.46-.288.104-.208.45.046.46m-8.772-.23c.15.012.22-.054.23-.184-.012-.066-.076-.077-.092-.138-.22.012-.26.19-.138.322m31.001-.276c.092 0 .059.125.184.092.184-.048.203-.247.092-.368-.208-.025-.3.067-.276.276m-34.813.046c.073.374.841.269.597-.276-.309-.233-.65.008-.597.276m29.302-.322c-.093.453.364.484.505.23.05-.382-.335-.422-.505-.23m-27.649.091c.059.255.492.231.46-.091-.036-.011-.054-.04-.046-.093-.185-.096-.398-.02-.414.185m-1.745.184c.01-.372-.502-.644-.873-.507-1.017.378.846 1.478.873.507m15.248-.276c.045.18.287.25.505.091.103-.677-.596-.456-.505-.091m-30.22-.231c.123.032.088-.095.137-.138-.062-.015-.088-.066-.183-.046v.092c.025.095.138-.069.046.092m43.54-.138c-.037.159.05.194.091.276.208.025.3-.067.276-.276-.092.01-.186-.206-.276-.046.109.08-.051-.035-.091.046m-9.875.184c.113.006.22.007.275-.046.038-.13-.064-.12-.046-.23-.108-.015-.172-.073-.32-.047-.028.166.052.223.091.323m-6.476-.092c.054.053.162.052.276.046.054-.137.012-.157-.046-.277h-.185c-.038.054-.06.124-.045.231m21.54-.184c.046 0 .055.037.092.046 0-.046.037-.055.046-.093-.046 0-.055-.037-.092-.046 0 .046-.037.055-.046.093m-29.853-.323c-.372.019-.485.588-.368 1.014.69.092 1.082-1.05.368-1.014m31.69 0c.114.006.221.007.276-.046v-.184c-.055-.053-.162-.053-.276-.046-.041.135-.041.14 0 .276m-9.737-.276v.092c.028.002.055.007.046.046h.092c.003-.028.007-.055.046-.046v-.092c-.028-.003-.054-.007-.045-.047h-.092c-.003.028-.007.055-.047.047m-16.166-.093c-.006.114-.007.223.046.277.163.01.24-.066.23-.23-.12-.06-.14-.102-.276-.047m14.008.093c.117-.006.178-.068.184-.185h-.23c-.003.08.01.144.046.185m-2.434 0c.035.01.053.038.046.092.113.006.221.007.275-.046.012-.15-.054-.223-.184-.231-.067.04-.145.07-.137.185m-11.16-.231h.091v-.092h-.091zm11.94-.138v.092c.029.002.055.007.047.046h.091c.003-.028.007-.055.046-.046v-.092c-.028-.003-.054-.007-.046-.046h-.091c-.003.028-.007.054-.046.046m21.356.23c.176-.025.25-.18.183-.322-.054-.054-.162-.052-.275-.046-.08.154-.027.294.092.368m-32.793-.46c-.037.278.211.03 0 0m27.924.23c.092 0 .059.125.184.092.207.007.207-.222.138-.369-.226-.027-.353.045-.322.277m-.918-.092c.096.026.131.114.276.092.115-.15.007-.382-.23-.323-.039.053-.06.124-.046.23m-2.572.23c.335 0 .32-.721-.092-.552-.34.14-.174.553.092.553m-27.42-.138c.294.048.416-.075.368-.369-.252-.296-.657.111-.367.37m34.262-.324c.015-.062.066-.088.046-.184h-.137c-.014.105.01.173.091.184m-24.985-.23c.011-.066.076-.078.092-.138-.113-.148-.283.107-.091.138m13.043 0c.17.032.203-.073.184-.23a.215.215 0 0 1-.138-.047c-.055.072-.147.18-.046.277m-5.052-.138a.218.218 0 0 1 .046-.139c-.062-.014-.088-.065-.184-.046-.013.12.017.198.138.185m-9.094.138c.038.373.674.358.735-.092-.176-.417-.772-.28-.735.092m-11.16-.184c.085-.081-.012-.143-.092-.185-.072.068-.052.206.092.185m36.237-.093h.092c.051-.066.05-.112-.046-.138-.003.06-.059.064-.046.138m-1.378.093c.092.137.377.082.597.092-.072-.235-.223-.391-.505-.415-.061.077-.122.154-.092.323m-17.223-.277v.138c.053.039.123.06.23.046.032-.141.032-.088 0-.23-.107-.015-.177.007-.23.046m-15.845-.046c-.04-.036-.13.028-.138.046-.065.174.228.033.138-.046M63.729 20v-.184a.098.098 0 0 0 0 .184m-17.636.046c.107.014.176-.007.23-.046v-.138c-.14-.115-.34.03-.23.184M45.588 20c.087.01.101-.053.183-.046.015-.107-.007-.177-.046-.23h-.137c-.106.1-.074.153 0 .276m-20.668-.138c.066.01.078.075.138.092.011-.066.076-.078.092-.138-.065-.011-.078-.076-.138-.092-.011.065-.076.077-.092.137m18.51-.23c-.155.048-.18.274-.047.37.267.008.283-.336.046-.37m-8.083-.092h.092v-.092h-.092zm-27.557.046h.092c0-.046.037-.055.046-.092-.059-.002-.064-.059-.138-.046zm36.513.092c.063-.058.063-.217 0-.276h-.138c-.123.084-.085.298.138.276m-8.543-.138h.138V19.4h-.092c-.003.059-.059.064-.046.138m-7.854-.092c.08.003.143-.01.184-.046.014-.121-.063-.151-.184-.138zm24.113-.092c.058.11.15.188.321.183-.005-.194-.068-.33-.229-.367-.001.09-.126.058-.092.184m-14.054 0h.183c.013-.12-.016-.198-.137-.184-.014.062-.066.087-.046.184M26.94 19.17c.117-.006.178-.068.183-.184-.053-.04-.123-.061-.229-.047-.015.107.007.177.046.23m2.985.046c.135.178.444.15.46-.137-.06-.265-.553-.249-.46.137m21.173-.598c-.03.168.031.245.092.322h.23c.055-.127.1-.192.046-.322-.067-.068-.301-.068-.367 0m-6.844.092c.13.048.191.048.321 0 .096-.4-.416-.4-.321 0m-40.83-.23c.079.002.117-.036.138-.093-.073.005-.16-.006-.138.092m49.51 0h.138v-.138h-.137zm7.165-.046c.121.014.15-.064.138-.184H60.1zm-5.235-.092c.134.068.134-.206 0-.138zm-15.754-.046c.059.003.064.06.138.046.002-.08-.036-.118-.092-.138 0 .046-.037.055-.046.092m22.78 0c-.003-.126.076-.093 0-.184a.098.098 0 0 0 0 .184m-9.736-.23c.005.117.067.178.183.184.04-.053.06-.123.046-.23-.106-.015-.176.007-.23.046m-18.141.23c.063-.075.162-.113.138-.276-.036-.01-.053-.04-.046-.092-.38-.247-.513.404-.092.368m24.847-.368v-.185c-.236-.06-.214.226 0 .185M44.44 17.74c-.226.08-.225.466-.045.6.359.052.512-.101.459-.462-.159-.077-.17-.097-.414-.138m-11.068.23c.272.034.272-.263 0-.23a.173.173 0 0 0 0 .23m-.506-.184c.088-.01.102.052.184.046.064-.058.064-.217 0-.276h-.137c-.039.053-.061.123-.046.23m20.943-.553c-.014.122.064.152.184.138v-.184c-.08-.003-.143.01-.184.046m-3.077 0v-.23h-.23c-.032.186.044.263.23.23m-33.206.138c.113.007.221.008.275-.045a.218.218 0 0 1 .046-.139c-.08-.32-.529-.128-.321.184m-1.837.323c.413-.087.304-.853-.184-.737-.606.143-.228.824.184.737m-.965-.691c.053.039.123.06.23.046.059-.276-.24-.27-.23-.046m-6.247 0c.121.013.198-.017.184-.138-.058-.003-.063-.06-.137-.047-.014.063-.066.089-.046.185m46.158-.092c.068-.024.116-.068.183-.093v-.23c-.291-.334-.613.273-.183.323m-40.969-.415c-.021.143.098.147.23.137.051-.186-.142-.227-.23-.137m28.108-.185c.033-.57-.74-.236-.367.138.197.03.295-.04.367-.138m-19.381-.276c.014-.063.065-.088.045-.185h-.183c-.013.12.016.199.138.185m9.323-.369c-.014.204.191.362.367.23.022-.144-.066-.18-.092-.276-.113-.006-.221-.007-.275.046m-13.09-.046c-.06.182.169.111.046.23.174.067.088-.126.23-.092.011-.155-.17-.238-.275-.138m5.281-.046c-.01.087.052.102.046.184.106.014.176-.007.23-.046.022-.145-.058-.188-.138-.23-.012.065-.101.052-.138.091m8.589 0h.183a.098.098 0 0 0-.183 0m-.92 0c.015-.12-.063-.15-.183-.137-.037.165.098.229.184.137m7.532 0c-.054-.406-1.01-.377-.734.277.311.222.775.028.734-.276m-15.386-.092c.478-.07-.169-.41 0 0m15.937-.23c-.017.186.018.32.184.322.147-.006.202-.105.184-.276-.117-.12-.268-.087-.368-.047m8.635.415c.19 0 .41-.207.275-.507-.59-.422-.809.507-.275.507m-14.973-.46c.015-.122-.063-.152-.183-.139-.038.165.097.23.183.138m2.435.093c.061.082.265.142.367.045a.216.216 0 0 1 .046-.138c-.05-.218-.481-.276-.413.093m-5.97-.047c.098-.105.015-.288-.14-.276-.084.09-.068.34.14.276m-6.385-.276c-.04-.036-.131.028-.138.046-.065.174.229.033.138-.046m20.668.368c.06-.077.121-.154.091-.322-.331-.381-.652.404-.091.322m11.114-.23c.073-.068.067-.262-.091-.23-.074.068-.068.262.091.23m-12.998.092c.038.33.156.537.414.553.765.049.323-1.267-.367-.691l.022.084zm-.023-.084l.07-.054c.005-.343-.589-.393-.46.092.147.082.232.09.413.046zm-26.569-.238c.06.06.17.06.184-.046-.061-.06-.171-.06-.184.046m5.787-.23h.092v-.093h-.092zm37.34.322c.23-.014.315-.31.091-.508-.55-.054-.417.527-.091.508m-10.334-.138c.082.416.865.154.505-.323-.376-.159-.552.086-.505.323m-10.058-.323c-.033.16.16.166.23.092.031-.16-.162-.165-.23-.092m-4.869.369c.098.51.927.357.827-.23-.035-.206-.163-.383-.505-.277-.217.066-.38.206-.322.507m-1.24-.23c.29.07.38-.13.276-.324-.272-.052-.383.127-.276.323m-.919-.046c.112.098.36.055.322-.138-.051-.221-.396-.148-.322.138m-7.256-.184h.092v-.093h-.092zm-5.65.137c.2-.404-.447-.079 0 0m31.645.692c.586-.062.703-.791.276-1.06h-.506c-.266.285-.574.53-.78.876.06.336.665.221 1.01.184m-9.874-.875c.095-.092.001-.196-.092-.23-.073.068-.067.262.092.23m-2.434-.184c.07.07.314.081.275-.092-.136-.061-.227-.041-.276.092m-17.085-.046a.098.098 0 0 0 0-.185c.005.126-.076.093 0 .185m12.4.091c.001-.091.126-.057.093-.184-.01-.065-.076-.077-.092-.138-.273-.003-.273.326 0 .323m28.337.691c.07.301.544.6.827.599 1.012-.002.904-1.641.092-1.613-.655-.136-1.049.457-.919 1.014m-33.757-.922h.092c.051-.067.05-.113-.046-.138-.002.059-.059.064-.045.138m16.35.322c.382.034.27-.66-.092-.46-.241.133-.156.44.092.46m-22.276-.552c-.012.15.055.222.184.23.08-.042.16-.086.138-.23-.126-.09-.196-.09-.322 0m15.662.092c.106.015.176-.008.23-.046.037-.13-.065-.12-.046-.23h-.184c-.063.058-.063.217 0 .276m-9.69-.092c.031-.17-.074-.205-.23-.185-.006.193.09.252.23.185m2.709-.139h.092v-.092h-.092zm14.789.231c.163-.459-.641-.634-.551-.092.017.1.07.099.137.23.198.06.402-.105.414-.138m-22.873-.415v.092c.029.003.055.007.046.046h.092c.003-.028.007-.054.046-.046v-.092c-.028-.003-.054-.007-.046-.046h-.091c-.003.028-.007.054-.046.046m11.528-.093c.061.083.265.144.367.047v-.23c-.144-.141-.394-.087-.367.183m-8.91-.091c.084.181.373.308.55.138.086-.333-.522-.467-.55-.138m13.18-.139c.107.015.177-.007.23-.045.027-.3-.384-.16-.229.045m-2.067.093c.088.02.116.099.23.092.104-.034.137-.138.184-.23-.08-.227-.502-.265-.414.137m-13.824 0c.09-.125.09-.196 0-.322-.352-.084-.352.407 0 .323m-9.369.277c.466.072.577-.837-.046-.6-.449.172-.103.576.046.6m19.657-.323c.14.063.379.074.46-.046v-.276c-.225-.13-.545-.008-.46.322m7.211-.368c.087-.01.101.052.184.046.01-.052.05-.072.092-.093.019-.232-.346-.242-.276.047m-28.613-.185c.125.033.092-.092.184-.092-.01-.339-.42-.053-.184.091m27.327.186c.093.363.832.367.918-.093-.156-.547-1.07-.502-.918.093m-9.874-.185c.207.025.3-.068.275-.277-.179-.164-.452.085-.275.277m-11.712-.184c.067.27.525.22.46-.139-.037-.01-.054-.038-.047-.092-.195-.1-.428-.014-.413.23m2.847-.23c.08.003.118-.035.138-.092-.072.004-.159-.006-.138.093m4.363.137c.062.083.266.144.368.046.124-.39-.453-.434-.368-.046m14.1-.184c.08.004.143-.01.184-.046-.006-.117-.067-.179-.183-.184a.172.172 0 0 0 0 .23m-4.272-.322c-.033.125.092.092.092.184.201.002.273-.125.413-.184-.25.012-.343-.157-.505 0m-14.972-.23v-.14h-.138c-.009.101.037.148.138.14m1.653-.922c.06-.062.06-.172-.046-.185-.06.061-.06.172.046.185m-3.169-.416c-.04-.035-.13.03-.138.047-.065.173.229.033.138-.047m14.238.047c.032.263.438.365.642.184.112-.435-.602-.568-.642-.184m7.44-.092c-.025-.067.054-.238-.046-.23-.008.133-.187.21.046.23m-6.568-.323c.032-.17-.072-.203-.23-.184-.058.202.117.293.23.184m14.514 0c.136.18.445.073.459-.138-.13-.14-.521-.236-.46.138m-9.093.046c.14.034.167-.047.275-.046v-.276c-.257-.212-.523.155-.275.323m9.897-.254l.023.069c.188.137.501.062.506-.23-.205-.154-.519-.08-.598.138zm3.973-.484V9.17c-.116-.203-.705-.233-.597.184.139.316.595.148.643-.138zm-14.834-.23c.046-.154-.065-.152-.184-.138-.014.12.063.15.184.138m-24.94-.092c.305.826 1.751.155 1.195-.646-.115-.165-.5-.321-.827-.184-.335.1-.473.544-.367.83m17.636-.738c.02-.32-.596-.435-.506.138.249.18.493.065.506-.138m24.548-.576l-.069.023c.235.29-.03.419-.091.737-.055.284.057.47-.138.508.393.077.41.396.735.46 1.082.213 1.418-1.186.505-1.52-.172.094-.496-.055-.735-.046-.046-.093-.08-.198-.184-.231zm-29.141-.99c-.044 1.085 1.644.641 1.286-.231-.122-.298-.61-.368-.78-.322-.358.095-.497.316-.506.552m3.353-.875c.187.018.32-.017.321-.185-.035-.119-.146-.16-.321-.138-.066.061-.066.261 0 .323M29.513 0h.138v.138h-.138z" fill="white" fill-rule="evenodd"/></svg>