<svg xmlns="http://www.w3.org/2000/svg" width="167.554" height="181.183" viewBox="0 0 44.332 47.938"><path d="M27.632 43.383a.039.039 0 0 0 0 .056l.178.177a.039.039 0 0 0 .056 0 .039.039 0 0 0 0-.056l-.178-.178a.039.039 0 0 0-.056 0m-1.056-.983a.038.038 0 0 0-.016.052c.069.128.183.218.292.307.088.07.179.141.244.231a.038.038 0 0 0 .054.008.039.039 0 0 0 .008-.054 1.318 1.318 0 0 0-.257-.246c-.11-.087-.212-.168-.273-.282a.038.038 0 0 0-.052-.015m-1.769-1.063a.075.075 0 0 0 .02.148c.077-.01.154.006.238.022.093.018.19.038.296.022a.074.074 0 0 0 .062-.085.074.074 0 0 0-.084-.063.704.704 0 0 1-.245-.02.852.852 0 0 0-.287-.024M14.05 3.607l-.315.619c-.2.41-.406.835-.7 1.194a.065.065 0 1 0 .1.082c.304-.37.514-.803.716-1.22l.313-.611a.066.066 0 0 0-.027-.089c-.032-.016-.07-.006-.087.026m-3.877 29.435c-.07.048-.081.157-.034.228l.083.126.094.14c.048.072.135.078.206.031.07-.048.081-.157.035-.228l-.07-.106-.108-.16c-.048-.071-.135-.078-.206-.03m-.065 1.583a.141.141 0 0 1-.178.089l.178.06a.141.141 0 0 0 .178-.09.141.141 0 0 0-.09-.178l-.177-.06a.141.141 0 0 1 .09.179m.3-2.445a.149.149 0 0 0-.06.203l.134.241c.101.18.197.348.269.531a.151.151 0 1 0 .281-.112 4.529 4.529 0 0 0-.287-.568l-.13-.234a.153.153 0 0 0-.207-.061m3.732-3.14l-.17.632c-.263.992-.536 2.017-1.024 2.956a.056.056 0 0 0 .023.077.056.056 0 0 0 .076-.024c.495-.95.77-1.982 1.035-2.98l.17-.63a.056.056 0 0 0-.04-.07.056.056 0 0 0-.07.04m.48-2.12c-.119.164-.148.348-.176.525-.02.134-.041.26-.097.375a.078.078 0 0 0 .035.105.078.078 0 0 0 .106-.035c.066-.138.09-.28.111-.42.027-.167.051-.324.148-.458a.078.078 0 1 0-.127-.092m2.272 4.064c-.437.637-.836 1.343-1.223 2.026l-.736 1.268a.126.126 0 0 0 .044.171.121.121 0 0 0 .169-.042l.74-1.273c.384-.68.78-1.382 1.211-2.01a.125.125 0 1 0-.205-.14m15.928-5.282l-.092.456-.085.433a.087.087 0 0 0 .066.103.083.083 0 0 0 .099-.064l.178-.889c.008-.045-.02-.093-.066-.103a.082.082 0 0 0-.1.064M31.46 29.96a10.478 10.478 0 0 0-.358.985.073.073 0 0 0 .048.093.074.074 0 0 0 .092-.049c.12-.379.233-.688.353-.97a.074.074 0 1 0-.135-.059m-.693 1.684l-.235.647c-1.045 2.894-2.126 5.887-4.274 8.026a.1.1 0 1 0 .141.142c2.18-2.171 3.269-5.185 4.322-8.1l.234-.647a.1.1 0 0 0-.188-.068m-15.904-6.246l-.13.246-.107.196a.13.13 0 0 0 .056.179.135.135 0 0 0 .182-.057l.102-.19.136-.256a.13.13 0 0 0-.057-.177.137.137 0 0 0-.182.06m-.794.13c-.058.047-.057.145-.01.203l.184.231c-.046-.058-.03-.133.029-.18.058-.046.15-.027.196.031l-.222-.276c-.046-.058-.119-.055-.177-.009m10.264 2.177a.15.15 0 0 0-.14.16l.067.929c.07.945.142 1.923.11 2.879a.151.151 0 0 0 .302.01c.03-.973-.043-1.958-.113-2.911l-.065-.926a.152.152 0 0 0-.16-.14m-4.755 1.654a.127.127 0 0 0 .168.19c.559-.493 1.215-.64 1.898-.426 1.017.32 1.997 1.43 2.279 2.584a.127.127 0 0 0 .247-.06c-.301-1.234-1.354-2.422-2.45-2.766-.773-.242-1.514-.077-2.142.478m.43-3.605l-.52 2.1-.28 1.098a.056.056 0 0 0 .04.067.056.056 0 0 0 .068-.04l.28-1.097.52-2.104a.054.054 0 0 0-.041-.066.055.055 0 0 0-.068.042m-.244-.25l-.525 1.048c-.276.564-.561 1.148-.894 1.703a.085.085 0 1 0 .147.088c.336-.56.623-1.148.9-1.716l.524-1.043a.087.087 0 0 0-.037-.117.085.085 0 0 0-.115.037m14.484-2.999c-.111.53-.048 1.057.013 1.567.038.308.076.627.074.938a.08.08 0 1 0 .161.001 7.493 7.493 0 0 0-.075-.958c-.06-.497-.122-1.011-.016-1.514a.08.08 0 0 0-.157-.034m-22.396.639a.119.119 0 0 0-.011.168c.28.32.597.623.902.915l.612.6a.123.123 0 0 0 .172 0 .117.117 0 0 0 0-.166l-.618-.607a14.424 14.424 0 0 1-.888-.9.12.12 0 0 0-.17-.01m1.603 2.342a41.723 41.723 0 0 1-2.512 4.077.12.12 0 0 0 .199.138 42.115 42.115 0 0 0 2.525-4.1.12.12 0 1 0-.212-.115m22.624-2.785a.145.145 0 0 0-.008.204c.14.151.31.263.474.37l.27.19c.066.045.163.035.208-.03.046-.066.036-.15-.029-.196l-.29-.204c-.157-.103-.305-.2-.422-.326a.143.143 0 0 0-.203-.008M16.45 25.058a.932.932 0 0 0-.039.315c0 .08 0 .156-.022.22a.138.138 0 0 0 .262.085.964.964 0 0 0 .035-.304c0-.083 0-.16.023-.226a.138.138 0 0 0-.26-.09m-1.108-3.17l-.09.17-.022.046a.153.153 0 0 0 .073.203.148.148 0 0 0 .198-.072l.026-.054.064-.122c.039-.073.02-.179-.054-.218-.073-.039-.156-.025-.195.048m-7.496.41a2.43 2.43 0 0 0-.148.593l-.009.057a.124.124 0 1 0 .245.04l.01-.058c.03-.19.058-.369.13-.534a.125.125 0 0 0-.228-.099m-1.309 1.997a.114.114 0 0 0-.037.156c1.043 1.694 1.887 3.574 2.704 5.392l.489 1.083a.114.114 0 1 0 .207-.094l-.488-1.082c-.82-1.825-1.668-3.712-2.718-5.418a.114.114 0 0 0-.157-.037m-1.798.288a.11.11 0 0 0 .005.155c1.45 1.355 2.45 3.128 3.417 4.843.352.625.716 1.27 1.098 1.889a.11.11 0 1 0 .186-.115c-.38-.615-.742-1.26-1.093-1.882-.975-1.728-1.984-3.517-3.458-4.895a.11.11 0 0 0-.155.005m.893-1.911l-.019.046c-.23.566-.47 1.153-.857 1.621a.083.083 0 1 0 .127.105c.404-.487.647-1.086.883-1.665l.019-.045a.083.083 0 0 0-.046-.107.081.081 0 0 0-.107.045m18.616-.024c-.126.283-.113.581-.1.87v.418c0 .074.06.146.135.146.075 0 .135-.049.135-.124v-.452c-.012-.268-.023-.522.077-.748a.135.135 0 1 0-.246-.11m.52-2.491a.144.144 0 0 0-.064.193c.119.24.194.517.267.785a.145.145 0 0 0 .177.103.144.144 0 0 0 .1-.178c-.075-.281-.154-.573-.286-.839a.144.144 0 0 0-.193-.064m9.313 2.156c-.48.91-.728 1.916-.852 2.599a.073.073 0 0 0 .145.026c.121-.672.365-1.662.837-2.556a.073.073 0 1 0-.13-.069m-9.785-3.742a.14.14 0 0 0-.09.177l.06.178a.14.14 0 1 0 .267-.089l-.06-.178a.14.14 0 0 0-.177-.088m2.339-3.491a.125.125 0 0 0 .035.173c2.068 1.364 3.993 3.108 5.856 4.794l1.562 1.404a.125.125 0 0 0 .166-.188l-1.56-1.402c-1.87-1.693-3.802-3.443-5.885-4.817a.125.125 0 0 0-.174.036m-7.578-.152a.137.137 0 0 0-.092.171c.03.098.027.205.024.32v.18c0 .076.062.131.138.131.075 0 .136-.068.136-.144v-.16c.004-.131.007-.267-.035-.406a.138.138 0 0 0-.17-.091m6.096-2.834l-.04.226-.02.136a.14.14 0 0 0 .114.161.134.134 0 0 0 .157-.11l.023-.149.034-.2c.013-.075-.036-.154-.11-.167-.075-.013-.145.028-.158.103m-5.32-2.912a.093.093 0 0 0 .08.104c.78.095 1.192.81 1.59 1.503l.299.5a.091.091 0 0 0 .127.028.097.097 0 0 0 .03-.131l-.294-.49c-.401-.698-.857-1.488-1.729-1.596a.094.094 0 0 0-.104.082m-.511 4.032a.086.086 0 0 0-.004.023c0 .031.02.06.051.07l.017.006c.155.214.218.464.281.732.048.201.098.41.193.603a.074.074 0 1 0 .133-.067c-.087-.177-.132-.368-.181-.571-.066-.276-.134-.562-.316-.804l-.015-.018-.065-.022a.075.075 0 0 0-.094.048M2.503 26.58c-.295.459-.95.74-1.494.64a.06.06 0 0 0-.07.048.06.06 0 0 0 .048.07c.598.111 1.293-.187 1.617-.693a.06.06 0 1 0-.101-.065M20.79 38.254a.095.095 0 0 0-.065.117c.615 2.145.953 3.877 1.131 5.791.09.965-.008 2.214-.577 2.562-.29.177-.692.104-1.191-.215-1.38-.882-3.108-3.127-4.497-4.931-.515-.67-1-1.3-1.394-1.763l-.071-.056-.172-.145c-.04-.033-.108-.037-.143.003-.033.04-.037.09.002.124l.2.17.054.04c.376.445.86 1.075 1.374 1.742 1.398 1.816 3.137 4.075 4.545 4.975.566.362 1.034.435 1.391.217.644-.392.766-1.672.667-2.74-.179-1.927-.52-3.67-1.138-5.826a.094.094 0 0 0-.116-.065M6.658 12.79a.054.054 0 0 0-.02.075.509.509 0 0 0 .197.196.055.055 0 0 0 .076-.018.054.054 0 0 0-.02-.074.397.397 0 0 1-.158-.16.055.055 0 0 0-.075-.019m-2.89 2.887a.098.098 0 0 0-.064.123c.139.424.167.902.194 1.365.039.634.077 1.289.392 1.852a.098.098 0 1 0 .17-.096c-.292-.523-.33-1.156-.366-1.768-.029-.474-.058-.965-.204-1.413a.097.097 0 0 0-.122-.063m.458 9.929a.122.122 0 0 0-.087.148c.073.286.058.581.04.894-.02.383-.04.78.113 1.164a.122.122 0 1 0 .226-.09c-.133-.335-.115-.687-.095-1.061.017-.317.034-.647-.049-.968a.122.122 0 0 0-.148-.087m3.799 6.125a.146.146 0 0 0-.006.207c.156.166.285.37.41.57l.089.138a.146.146 0 0 0 .202.044.147.147 0 0 0 .044-.202l-.086-.138a3.993 3.993 0 0 0-.445-.612.147.147 0 0 0-.208-.007m10.83-1.209c-.084.095-.123.21-.162.32-.05.143-.093.267-.218.332a.068.068 0 1 0 .062.12c.173-.09.23-.251.284-.407.035-.102.07-.2.136-.275a.068.068 0 0 0-.006-.096.068.068 0 0 0-.096.006m1.614 1.114a.152.152 0 0 0-.012.214l.717.815c.525.605 1.067 1.232 1.674 1.79a.15.15 0 1 0 .204-.221c-.595-.547-1.132-1.166-1.65-1.766l-.723-.82a.148.148 0 0 0-.21-.012m4.205 3.545a.143.143 0 0 0-.117.165c.117.697.132 1.429.146 2.138.018.912.037 1.856.271 2.762a.143.143 0 0 0 .174.102.142.142 0 0 0 .103-.174c-.226-.874-.244-1.8-.263-2.696-.014-.719-.028-1.462-.15-2.18a.143.143 0 0 0-.164-.117M34.4 26.06c-.057.3-.05.607-.045.904.006.304.012.592-.043.873a.105.105 0 0 0 .082.124.106.106 0 0 0 .124-.083c.06-.304.053-.616.047-.918-.006-.3-.012-.582.042-.86a.105.105 0 0 0-.207-.04M27.936 3.9l-.382.553c-.318.434-.646.884-.755 1.43a.123.123 0 1 0 .242.048c.099-.493.396-.9.712-1.333l.393-.569c.04-.056.022-.127-.035-.166-.055-.039-.136-.02-.175.037m-3.014 6.135c-.484.707-.745 1.593-.99 2.515a.088.088 0 0 0 .062.108.088.088 0 0 0 .108-.063c.241-.906.497-1.777.965-2.461a.088.088 0 0 0-.145-.1m-7.063 1.43c-.215.555-.49 1.1-.756 1.627l-.54 1.109a.146.146 0 0 0 .07.196.154.154 0 0 0 .203-.073l.533-1.097c.27-.534.548-1.086.77-1.653a.15.15 0 0 0-.28-.108M7.666 6.408l-.045.159c-.112.395-.227.804-.134 1.231a.12.12 0 0 0 .144.092.12.12 0 0 0 .091-.143c-.08-.368.028-.747.132-1.114l.045-.162a.12.12 0 0 0-.085-.148.122.122 0 0 0-.148.085m8.485 28.689a.578.578 0 0 1-.064.154l-.031.066c-.023.044-.003.093.04.115a.092.092 0 0 0 .122-.043l.028-.056c.037-.073.08-.155.083-.228a.09.09 0 0 0-.085-.093.09.09 0 0 0-.093.085m15.459-3.52a.141.141 0 0 0 .124.153c.068.007.134.04.211.078l.221.084c.701.616 1.623.716 2.515.811 1 .106 1.946.206 2.64.962a.14.14 0 0 0 .197.009.139.139 0 0 0 .009-.197c-.765-.834-1.808-.945-2.816-1.053-.896-.095-1.742-.185-2.378-.755l-.018-.018-.05-.016-.196-.078a.886.886 0 0 0-.306-.106.14.14 0 0 0-.153.125m.712-22.964a.14.14 0 0 0-.12.157c.03.224.134.486.244.764.176.446.376.953.229 1.252-.064.128-.19.218-.388.275a.14.14 0 0 0 .078.269c.273-.08.462-.22.561-.42.202-.411-.022-.979-.22-1.479-.103-.262-.2-.509-.226-.698a.14.14 0 0 0-.158-.12m1.578-2.15a.164.164 0 0 0 .122.197c.468.11.942.155 1.4.2l.397.04A.165.165 0 0 0 36 6.752a.163.163 0 0 0-.145-.18l-.401-.04c-.468-.046-.91-.088-1.357-.193a.163.163 0 0 0-.197.122m-3.884 38.86c-.23.015-.428-.451-.534-.266.202.012.345.535.533.266m-3.732-3.11c.077-.206-.453-.204-.178-.088.125-.008.102.257.178.088M6.463 13.149c.109.01.056-.129 0 0m7.644-9.509v.089c.741-.154 1.69.613 2.755.533.63-.048 1.314-.31 1.333-1.155.034-1.434-2.444-2.253-3.821-.89-.084.51-.261.926-.356 1.423zm.267 24.084c-.186.194-.254-.044-.534 0 .027.507.198.87.267 1.334h.09v.088c.191-.37.276-.848.355-1.333l-.133.044zm-7.643-3.288c.168-.694-.632-.986-.978-.622 0 .443.4.49.71.622l.134-.044zm27.284-3.11c.181.34.018.679 0 1.066l.134-.044-.045.133c.054.005.106.013.089.089l.133-.044.044.133c.39-.86 1.146.185 1.689.267l.116-.116.151-.062c-.528-.658-1.346-1.025-2.044-1.511l-.108.12zm-14.22-6.755v.355c.264-.031.438-.153.533-.355.015-.192-.315-.04-.444-.088l.044.133zM8.242 31.724c-1.013-1.594-1.622-3.592-3.733-4.088l-.104.133-.163-.045c-.16.977-.585 1.95-1.155 3.023-.536 1.009-1.209 2.035-1.422 2.932-.076.322-.147.88-.09 1.156.33 1.556 2.99 2.278 3.378.444.201-.952-.409-1.614-.533-2.666-.147-1.245.045-2.284.089-3.378 1.443-1.588 2.785 2.241 3.555 2.755l.062-.15zm5.776 7.91c.334-1.213 2.17-.208 2.222-1.6.04-1.058-2.184-1.62-1.155-3.555l-.045-.133-.044-.133c-.99.18-1.639-.725-1.866-1.6l-.133.044.044-.133c-.764-.806-1.786-1.355-1.867-2.844l-.133-.045.044-.133h-.089c-.654.048-.98-.698-1.243-1.155-.88-1.523-1.514-3.367-1.778-5.421l-.163.044-.104-.133c-.189 1.76.688 3.221.978 4.799.387.837 1.93 1.938 1.333 3.11h-.178l-.044.134-.134-.045c.03.206-.014.341-.089.445h-.177l-.044.133-.134-.045c.148.48.131 1.152-.533 1.067l-.045.133-.133-.044v.267c-.796.64-2.234 1.435-1.51 3.021.546.394 1.636.512 2.221.089.476-.345.194-.814.622-1.155h.178l-.045-.163.134-.104c-.208-.671-.975-1.09-.711-1.955h.177c.472.003.25.699.623.8l.062-.151.115-.116c-.028-.208-.14-.334-.088-.622h.088l.108-.12.16.031c-.058-.39-.603-.757-.268-1.244-.012-.25.218-.257.445-.267.288.152.437.65.8 1.155.305.425.899.825.8 1.245-.165.692-1.183.51-1.423-.267l-.103.133-.163-.044c-.008.14.012.308-.178.267l-.115.115-.151.062c.208.177.434.766.088.978h-.266l.044.163-.133.104c.652.902 1.382 1.478 1.244 2.754-.046.433-.32.967-.533 1.334-.376.646-1.02 1.05-1.156 1.778-.286 1.534.334 2.49 1.6 2.31 1.753-.25 1.54-2.462 2.755-3.11l-.044-.134zm10.843-4.266c.015-1.32-.032-2.575-.178-3.733l-.163.045-.103-.134h-.267l-.104.134-.163-.045c.086.715.604 1.468.445 2.133-.149.445-.71.474-1.245.533l-.133.045-.133.044c.168.336.271.737.533.978.357.087.78.109 1.245.088l.103-.133zm1.511 4.888c-.373.222-.866.13-1.156-.178l-.103.134-.163-.045c-.089.893 1.294.88 1.51.266l-.132-.044zm4.71-9.332c-.28-.043-.314.16-.622.089-.25.295.38.279.267.71l.133-.043.044.133c.087-.358.57-.489.356-.889l-.09.044zm-2.933-26.84c.285-.73 1.808-1.062 2.4-1.866C31.692.666 29.914-.826 28.683.529c-.781.86-.226 2.676-.8 3.466l.158-.032zm-3.2 6.132c.115.005.124.114.267.09.262.58-.222 1.122-.088 1.866l.162-.045.104.133c.332-.257.064-.527.178-.977-.002.007.117.1.178-.089.12-.38.187-1.133.355-1.51.247-.555.797-.984 1.066-1.512.246-.479.262-1.097.712-1.421-.414-.15-.775-.352-.8-.889l-.163.044-.103-.133c-2.146.059-2.346 2.14-1.956 4.266l.133.044zm-6.843 1.422h.445c.46.874.202 2.465.444 3.555l.104-.133.163.044c.107-.544-.221-1.524.178-1.777l-.045-.089.045-.089c-.322-1.176-.692-3.321.533-3.822l-.045-.133-.044-.133c-.528.064-.884.301-1.422.355-.335.584-.388 1.45-.622 2.133l.158-.031zM7.886 6.572h1.688c.792-1.204.045-3-1.51-2.932-.565.57-.618 1.789-.445 2.844l.163-.045zm16.486 16.131l.045.134c.874-.092 1.325 1.407.089 1.244 0-.09-.072-.106-.09-.178l-.133.044-.133-.044c-1.8.811-3.643-3.432-1.244-2.933.628.13 1.104 1.148 1.333 1.778zM10.996 17.15c-.093.594-1.376.57-1.688.177-.233-.712-.075-2.181.622-1.954.489.459.783 1.112 1.066 1.777m25.907 6.206l-.133.103c.069 1.314-1.251 1.237-2.31 1.423l-.045.133-.045-.133c-.234.135-.8.317-.977 0l-.09.044-.088-.044c-.52.393-2.128.305-3.022.266-1.041-.045-2.407-.02-3.022-.355-.43-.235-.833-1.126-1.066-1.511-.031-.053-.25-.145-.266-.177-.051-.106-.009-.4-.09-.623-.086-.242-.13-.2-.177-.356-.124-.413-.145-.845-.356-1.155l-.103.134-.163-.045c.012.22.013.428-.09.533-.512-.036-.56-.915-.265-1.244.089 0 .105.072.177.09l.063-.152.115-.116c-.089-.534-.221-1.023-.444-1.422l-.104.134s-.163-.045-.252 1.2c-.365-.217-.406-1.168-.267-1.6.09 0 .178 0 .356.355l.104-.133.163.044c.178-1.125.167-2.439.533-3.377.338-.317 1.167-.352 1.6-.089l.103-.133.163.044c.02-.069.003-.175.089-.177.02-.07.002-.176.089-.178 3.642.69 8.484 2.154 10.31 4.977.437.676 1.398 3.658-.534 3.377zM6.864 13.015l-.133-.044c-.22.695-.682 1.312-.8 2.133-.06.423.05.87 0 1.244-.116.86-.632 1.881-1.155 2.312a.75.75 0 0 0 0-.178c.08.1-.417.42-.445.355l.044.134-.133.044c.181.772-.542 1.37-1.066 2.044-.883 1.135-1.674 2.135-2.4 3.377-.679 1.161-1.452 2.67.267 2.933L1 27.28l.044-.088c-.442-.24-.621-.742-.533-1.512.698-.88 1.49-1.66 2.133-2.488.206-.267.372-.864.888-.711.179 1.536-1.75 2.401-1.066 4.177l.089-.044.089.044c.683-.087.817-.723 1.51-.8l.104-.133.163.044c-.057-.5.193-.695.356-.977l.044-.134.133.045v-.267l-.133-.044.044-.134c-.762-.3-.565-2.271.623-1.955-.037.214.162.193.088.445l.134-.045.044.134c.839-.102 1.041-1.404 1.954-.89.076.104.118.239.09.445l.163-.044.104.133c.505-.032.76.187 1.067.356a.863.863 0 0 1 0 .71c.622-.337.985.258 1.421.267.434.01.93-.459 1.422-.444l-.044-.133.133-.045c.11-2.23 2.524.938 1.6 1.422h-.267l.045.133-.133.045c.074.221.116.475.088.8l.163-.045.104.133c.206-.028.34.015.444.09l.045-.134.044-.133c-.037-.41-.108-.582.178-.8.319.095.498.332.444.8l.163-.045.104.133c.742.538 1.812 1.575 1.511 2.578-.376-.003-.708-.535-.978-.889-.294-.384-.7-.87-.71-1.422l-.164.044-.103-.133h-.178l-.108.12-.159-.031c.117.387.418.59.356 1.156l.133-.045.045.134c.548.14.87.902 1.243 1.51.312.509.948 1.25.978 1.778.011.191-.082.434-.089.622l.134.044-.045.134c.796.021.842.942 1.155 1.6.895 1.877 2.142 3.721 2.578 5.598l.133-.044.134-.044c-.217-1.329-.602-2.483-.978-3.644-.39-1.203-1.024-2.386-1.334-3.466l-.133.044.045-.133c-.736-.028-1.223-1.657-.178-1.689.232.301.403.664.445 1.156h.088v.089c.826-.22.954.992 1.6 1.244l.062-.152.116-.115c-.262-.708-1.288-1.053-.89-2.133l-.132-.045.044-.133h-.266c-.029-.12-.127-.17-.089-.355h-.089v-.089c-.164.013-.055.3-.178.355-.452-.051-.558-.45-.533-.977l-.133.044-.045-.133c-1.006-.416-1.693-1.152-1.688-2.578l-.163.045-.104-.133c-.07.02-.103.074-.089.177-1.58-.299-.98-2.13-.8-3.555l-.163.045-.103-.133c-.433.248-.321 1.042-.889 1.155-.407-.122-.59-.524-.8-.8-.246-.323-.605-.623-.622-.977-.08-1.66 2.327-.59 2.4.444l.115.115.062.151c.779-.186 1.285.413 1.333.979.057.651-.68 1.315-.444 2.043l.163-.044.104.133c.231-.85.235-1.499.977-1.51.869-.015 1.416 1.485 2.044 1.777l.134.044-.045.133c.069.02.175.003.178.09h.089v.088c.104-.015.096-.14.089-.267 1.089-.074 1.7-1.164 2.666-1.066.888.091.73.715.977 1.6.164.58.466 1.187.445 1.866l.104-.133.163.044c-.082-1.607.452-2.798 1.688-2.4 1.09.353.878 2.002 1.955 2.4.46-.166-.145-.851.178-1.155 1.718-.58 2.88 1.797 3.11 3.288l.09-.044.088.045c.848.134 1.434.716 2.134.533.846-.222.993-1.38.8-2.755l-.134.044-.045-.134c-.741-.146-1.18-.596-1.51-1.155l-.134.045-.044-.133c-.28.122-.624-.039-.89-.178-.575-.769.733-1.116.979-.534l.133-.044.044.133c.178-.46 1.053-.544 1.6-.355.236-.334.746-.324 1.156-.445a14.55 14.55 0 0 0 1.244-.444c.97.292 1.51 1.626 2.577 1.955 1.158.357 2.298-.093 2.31-1.155.023-1.806-2.48-1.24-3.199-2.488.355-1.946-.468-3.377-1.422-4.355-2.176-2.233-6.484-3.76-10.309-4.088-.347-.838-.912-1.458-1.51-2.045l-.164.045-.103-.134c-.07.02-.104.075-.09.178-.243.076-.644.289-.889.089v-.088l-.132.044-.045-.134c-.28.53-.697.588-1.244.533-.401-1.556.338-3.645.178-5.243.102-.342.701-.188.71-.622-.137-.481-.514-.689-.621-1.333-.108-.646.311-1.7-.711-1.689-.876.436.041 1.289.177 2.044.158.876.044 2.152 0 3.11-.03.687.053 1.544-.444 1.867h-.089l-.044.134-.133-.045c.102.754.642 1.23.621 1.955-.039 1.41-2.312 2.644-3.11 2.49l-.133-.045-.134-.045c-.927.697-1.408-.517-2.133-.8-.166-.158.073-.225 0-.533l-.163.044-.103-.133c-.59 1.069-1.186 2.133-2.133 2.844-.8.215-1.086.924-1.955.711-.673-.164-1.23-1.546-1.69-2.666-.668-1.63-.929-3.144-.977-4.8-.875-.702-.645-2.684-2.133-2.577l-.103.134-.163-.045c-.514 1.197.035 3.694-.622 5.154zM30.371 47.01c.312.734 1.447 1.043 2.133.889.594-.134 1.053-.821 1.066-1.333.046-1.68-2.268-1.988-3.466-1.067.368.639.062 1.027.267 1.511m-11.109-2.666v.266h.444c.1-.36-.272-.439-.444-.266m9.51-.71c.135.136.609.157.532-.179-.235.002-.522-.049-.532.178m-5.066-1.689c.046.423.498.203.533-.088-.22-.012-.428-.014-.533.088m-14.31-2.222h.268v-.178h-.267zm-3.465-3.466h.177c.006-.113.115-.123.09-.266H5.93zm10.843-.977c-.077.336.398.315.532.177.077-.336-.397-.313-.532-.177m.355-1.778c-.005.153.068.228.177.267.01-.168.294-.062.267-.267a.332.332 0 0 0-.444 0m-.089-.888c.133.14.507.13.444-.178-.22-.013-.431-.017-.444.178m10.576-.978c-.078.407.702.356.533-.09-.219-.01-.428-.012-.533.09m9.808 1.936l-.12.108c.11.513.535.409.533.888-.003.455-.527.557-.89 1.067-.236.333-.501.997-.532 1.334-.265 2.84 3.746 3.16 3.999.71.172-1.668-1.022-1.73-1.866-2.843-.446-.589-.472-1.243-1.156-1.423zm-8.652-2.47c-.013.358.228.236.444.179.012-.357-.228-.236-.445-.178M7.264 24.17c-.36-.313-.21.286 0 0m1.778-.623c-.185.053-.585-.109-.623.09.185-.053.584.11.623-.09m4.354-10.22c.933.705 2.853.472 3.11-.444.477-1.698-2.418-3.343-3.82-2.489-.1.523-.187.757-.178 1.51.385.437.365 1.028.888 1.423m20.797-6.932c-1.531-.735-2.542 1.112-1.955 2.489l.104-.134.162.044c-.025-.617-.007-1.192.178-1.6.42-.23.79-.513 1.422-.532l-.044-.163zm1.6.177c.935-.136 1.916.184 2.843 0 .623-.122 1.217-.837 1.867-1.066.888-.312 2.437-.306 3.11.09.185.107.8.76.711 1.51-.215 1.821-2.84 1.877-4.265.977-.499-.314-.75-.892-1.245-1.066-.842-.297-2.386.11-3.11-.178l.133-.103z" fill="currentcolor" fill-rule="evenodd"/></svg>