<svg xmlns="http://www.w3.org/2000/svg" width="231.707" height="167.901" viewBox="0 0 61.306 44.424"><path d="M38.68 23.596l-.05.035-.019.01a.073.073 0 0 0-.022.103.074.074 0 0 0 .102.022l.017-.01.058-.04a.07.07 0 0 0 .019-.1.076.076 0 0 0-.105-.02m-2.772.09a.07.07 0 0 0 .009.1l.593.486.52.427a.072.072 0 0 0 .1-.009.07.07 0 0 0-.009-.099l-.523-.428-.59-.486a.071.071 0 0 0-.1.009m-15.245-6.875a.025.025 0 0 0-.002.037l.024.027.07.084c.01.01.028.013.04.004.01-.01.013-.025.004-.036l-.074-.088-.025-.026a.026.026 0 0 0-.037-.002m30.298 6.133a.069.069 0 0 1-.068-.067c.001.12.018.236.035.35.021.147.041.286.029.428a.067.067 0 0 0 .061.073.068.068 0 0 0 .073-.062c.014-.157-.008-.31-.03-.459-.016-.114-.032-.22-.033-.33a.067.067 0 0 1-.067.067m-5.497-6.34a.04.04 0 0 0 .022.053c1.005.409 1.714.85 2.23 1.388a.04.04 0 0 0 .059.001.04.04 0 0 0 0-.057c-.524-.547-1.242-.995-2.258-1.407a.04.04 0 0 0-.053.022m-3.047-.99a.05.05 0 0 0-.017.1c.106.019.212.058.314.095.128.047.262.095.401.106a.052.052 0 0 0 .054-.047.052.052 0 0 0-.047-.055 1.402 1.402 0 0 1-.373-.1c-.107-.039-.217-.08-.332-.099m-3.54-1.604c-.036-.005-.075.016-.081.05-.006.035.01.065.043.071l.134.023c-.033-.006-.061-.04-.055-.073.005-.035.034-.059.067-.053zM2.16 3.504L2.06 3.49l-.1-.015c-.035-.005-.063.02-.068.054-.005.035.023.067.057.073l.086.013.122.016c.035.004.06-.02.065-.055.004-.034-.027-.067-.06-.072m2.323 1.323c-.008.02 0 .044.022.053l.496.2.232.09a.041.041 0 0 0 .03-.077l-.232-.09-.492-.198c-.022-.009-.047 0-.056.022M1.75 3.739a.061.061 0 0 0 .029.082c.322.157.657.284.98.406l.513.199a.061.061 0 0 0 .08-.035.06.06 0 0 0-.034-.079l-.515-.2c-.32-.121-.653-.247-.97-.402a.062.062 0 0 0-.083.03M5.56 5.234a.025.025 0 0 0-.028.02.025.025 0 0 0 .02.029c.122.02.228.069.34.12l.116.051a.025.025 0 0 0 .033-.013.025.025 0 0 0-.014-.032l-.114-.051a1.383 1.383 0 0 0-.353-.124m33.055 18.403c-.499.139-.992.284-1.37.636.284.238.475-.169.787-.076.244-.12.438-.325.679-.447l-.06-.047zM3.26 4.423c.21.474.724.337 1.268.483l-.003-.063.064-.004c-.421-.21-.742-.785-1.296-.535l.003.065zm-1.264-.95c-.355-.301-.871-.46-1.302-.367-.24-.008-.227-.42-.422-.162-.05.134.106.33.255.455.326.273.835.447 1.28.445v-.078l.072-.03c-.07-.119.069-.075.123-.135l-.046-.062zm20.56 23.563c-.114.169-.21-.002 0 0m1.693-1.48c.05.029-.016.07-.062.067-.226.286-.132.04.062-.068m-6.935-4.843c.1-.036-.339.123 0 0m18.794 4.732c-.189.5-.708.814-1.166 1.119-.168.112-.424.245-.668.407-.217.145-.448.384-.628.42-.531.103-1.24-.232-1.898-.364-.35-.07-.71-.09-1.058-.17-.063-.141-.262-.207-.378-.32-.057-.2.04-.468.149-.68-.04-.237-.286-.333-.222-.573.1-.377 1.295-.569 1.685-.547.516.028.71.314 1.139.49 1.06.435 2.28.29 3.045.218m-9.681-3.701c-.205.305-.483.481-.888.432-.012-.465.465-.547.888-.432m.628-.418c-.079.234-.26.285-.522.193.088-.22.324-.17.522-.193m11.67 2.331l.036.066c.237-.05.357.149.43.291-.05.482-.514.466-.792.543-.45.125-.948.33-1.322.012v.077l-.073.03c-.003.046.027.074.057.1-.707.3-1.737.337-2.542.265-.146-.111.283-.147.308-.339-.12-.454-.629-.275-.94-.137-.155-.023-.241-.086-.242-.196-.235.061-.507.287-.816.026.043-.598.81-.44 1.337-.517.57-.085 1.248-.263 1.732-.11l.065-.036.076-.009c.02-.035-.031-.06-.018-.09.173-.37.964-.285 1.428-.236.216-.05.355-.237.414-.564.32-.184 1.193-.278 1.72-.368.01-.002.029.01.04.01.922.1.745.757.353 1.164-.138.144-.317.31-.505.284.034-.185.162-.424.115-.563-.258-.433-.655.134-.92.25zm-6.967-3.775c-.211.393-.578.509-.886.73-.365-.054-.48-.308-.424-.46.107-.285 1.032-.25 1.31-.27m-10.98-2.938l-.054-.037c-.164.19-.27.143-.039-.01l-.003-.065.053.036a.191.191 0 0 1 .074-.107c.058.027.002.094-.034.118zm12.22 2.309c-.14.378-.615.165-.95.2-.3.061-.64.1-.978.151-.297.044-.671.184-.894.003.244-.276.703-.47 1.128-.533.49-.072 1.092-.064 1.695.179m17.41 4.81c-.166.237-.507.247-.764.295-1.348.252-2.949.266-4.415.418-.59.062-1.199.186-1.761.059.126-.215.42-.197.624-.25a97.814 97.814 0 0 0 3.186-.892c.444-.134.896-.32 1.31-.27.63.077 1.219.388 1.82.64m.616-.402l-.067-.04-.023.08c-.584-.052-.957-.503-1.61-.624.04-.327.562-.21.91-.212.252-.002.515-.093.664.059l.063-.046.067.04.032-.119c.812-.152 1.934.25 2.939.444.034.184-.099.503-.268.648-.212.184-1.5.425-1.81.385-.502-.067-.88-.377-.835-.66zm-17.725-4.877c-.683.067-1.493-.348-2.512-.749-.678-.266-2.07-.727-1.879-1.337.075-.238.224-.213.387-.316.15-.095.246-.223.415-.266.3.135.619.07.929.176.199.067.333.233.519.273.367.08.778-.299 1.283-.022.24.133.462.823.595 1.06.208.373.554.663.263 1.181m23.361 3.165c.027 1.648-1.924.916-2.974.739.223-.48.867-.122 1.328-.18.223-.03.345-.128.522-.195.098-.32.193-.642.448-.682.258.088.499.185.676.318m-23.518-5.932c-.266.078-.568.092-.792.245-.405-.007-.731-.25-1.105-.31-.187-.03-.348.065-.528.063-.231 0-.485-.095-.732-.12-.596-.06-1.386-.01-1.976-.386.18-.2.51-.31.836-.402a8.051 8.051 0 0 1 1.957-.301c.472-.017.927-.107 1.367.129a4.985 4.985 0 0 1 .683.448c.19.151.439.377.29.634m-14.028-5.944c-.081.467-.322.65-.57.818-.577-.1-1.04.002-1.655-.167-.06-.222-.023-.398-.093-.58-.204-.534-.86-.727-1.4-1.073.006-.048.029-.068.063-.068 1.158.257 2.495.702 3.655 1.07m39.978 12.305c.032-.391.29-.782-.06-.996-.55-.336-1.272.28-1.766.227-.418-.045-.878-.36-1.336-.546-.125-.05-.277-.065-.394-.11-.197-.078-.327-.232-.507-.313-.692-.314-1.443-.234-2.09-.588.183-.22.547-.17.86-.184.627-.026 1.193-.056 1.89-.064.319-.004.686-.089.945-.032.153.033.308.17.49.223.209.06.461.071.664.059.557-.034 1.12-.48 1.557-.243.32.173.516 1.515.185 2.221-.071.152-.223.404-.438.346m-11.346-4.36l-.064.002c-.305-.022-.595-.11-.879-.204-.476-.157-1.345-.42-1.589-.702-.245-.283-.055-.869-.387-1.045-.272-.143-.41-.016-.619.082-.395.183-.628.374-1.136.105-.227-.12-.488-.308-.61-.554l-.054-.036-.002-.065c-.247-.055-.474-.394-.487-.69.321-.047.677.188 1.036.249.16.027.347-.009.506.014 1.155.17 2.344.556 3.565.79 1.417.272 2.995.598 4.24.81.042.02.048.06.056.1-.333.587-1.19 1.004-1.862 1.178-.426.11-1.34.307-1.718-.1zM13.264 6.215c.09.48-.852 1.336-1.324 1.074-.2-.111-.078-.344-.233-.533-.206-.088-.454-.195-.698-.24-.212-.037-.473.076-.524-.104-.15-.196.15-.462-.171-.601-.208-.09-.401.22-.562.182-.357-.083-.288-.666.104-.822.33.036.33.258.535.364.633-.037 2.453.15 2.873.68M55.163 17.74c.025.5-.616.5-1.09.544-.517.048-.64.081-.805-.311-.086-.204-.147-.383-.06-.698.283-.092.607.117.93.176.367.067.8.011 1.025.289m3.255.83c.019.263-.227.285-.398.356-.251.102-.564.237-.877.094.208-.51.799-.97 1.275-.45M10.214 4.804c.138-.523.556-.548.886-.73.5-.012.902.053 1.333-.05.582-.14 1.074-.584 1.673-.806.092-.033.19-.09.292-.13.67-.26 1.264.26 1.798.717.272.234.787.585.685 1.044-.11.494-.808.557-1.291.658a9.001 9.001 0 0 0-.73.178c-.23.069-.525.211-.692.188-.226-.03-.38-.244-.598-.295-.212-.05-.435.1-.658.07-.306-.04-.735-.232-1.092-.35a44.1 44.1 0 0 0-1.606-.494m28.766 9.287l-.04.066c.175.068.445.083.54.196-.32.985-2.468.448-2.482-.401.143-.297.51-.092.815-.026.365.079.763.176 1.048.21l-.003-.065.036-.054c.019-.01-.012-.067-.028-.05.202-.203.619-.038.899-.173.576-.278.57-1.207.213-1.514-.856-.736-1.79.011-2.565.044-.283.012-.547-.05-.794-.053-.236-.002-.52.09-.692-.11-.066-.334.219-.238.284-.557.056-.27-.158-.519-.221-.573-.732-.64-2.105-.022-2.674-.327-.191-.103-.295-.38-.272-.545.048-.352.41-.413.497-.71.105-.353-.19-.42-.054-.867 1.986.162 4.018.607 6.092 1.033.24.201.18.535.284.803.089.229.285.363.39.578-.086.724-.01 1.357.537 1.725.129-.175.182-.623.165-.89-.026-.433-.353-.75-.466-1.067.096-.342-.066-.538-.015-.855.152-.097.287.015.456.043 1.589.267 3.123.878 4.63 1.387 4.502 1.519 8.44 3.582 11.429 5.809-.203.263-.512.21-.77.166-.54-.093-1.302-.313-1.757-.41-.044-.008-.123.043-.18.036-.133-.018-.264-.058-.405-.071-.248-.025-.528.002-.755-.043-.222-.043-.41-.18-.619-.216-.175-.031-.348.044-.518.024-.357-.041-.738-.227-1.104-.31-1.135-.26-2.405-.423-3.637-.682-1.258-.265-2.539-.396-3.677-.694-.201-.053-.411-.168-.62-.217-.5-.117-1.035-.07-1.525-.173-.865-.181-1.665-.399-2.488-.53zM12.092 1.758c-.012.258-.22.387-.364.537-.116.121-.318.442-.538.401-.249-.046-.543-.35-.892-.463-.54-.175-1.088-.046-1.35-.337-.013-.44.324-.654.57-.819.794.077 1.766.417 2.574.68m12.502 3.049c.152.303.282.797.41 1.264.193.707.457 1.594-.363 1.897-.438-.243-.652-.595-1.184-.63-.571-.039-.871.69-1.364.765a2.53 2.53 0 0 0-.417-.33c-.039-.135-.173-.351-.34-.308-.056 0-.082.052-.14.045-.15.306.161.352.182.562.216-.084.381-.01.552.156-.273.44-.57.838-1.06.893-.245-.028-.085-.285-.288-.337-.215-.048-.248.228-.415.267-.467-.062-1.059-.277-1.215.083-.117.272.178.33.16.64-.473.046-.954-.2-1.47-.37-.814-.27-1.65-.453-2.23-.84.159-.417.567-.622.868-.82.317-.208.652-.438 1.038-.516.296-.425.694-.606 1.268-.877.325-.154.742-.348 1.044-.387.142-.018.331.027.507.015.297-.02 1.072-.252 1.395-.118.381.157.378.67.747.975.29.24.716.308 1.171.372.5.07 1.06.256 1.26-.242.135-.338-.039-.682-.184-.86-.519-.636-2.015-.671-2.649-1.17-.27-.211-.472-1.074.09-1.08a.14.14 0 0 1 .04.01c.81.396 1.977.593 2.587.94M2.159 3.568l-.04.067c.454.452 1.11.132 1.622.286.203.061.346.24.558.284.183.04.389-.05.607-.042.361.017.729.205 1.076.26.327.052.695-.058.958.227.007.398-.3.723-.486.97-.125.584.038 1.012.186 1.456.091.274.165.566.267.714.106.153.357.387.582.503.766.395 1.057.172 1.535-.163.217-.153.441-.37.707-.397.386-.04.586.115 1.058.17.456.642.078 1.096-.46 1.487-.252.183-.59.32-.83.532-1.06.935-.56 2.862.956 2.652 1.01-.14 1.489-1.449 2.088-2.434.308-.135.57-.19 1-.229.272-.025.61-.058.805.013.273.1.514.47.835.66.957.567 2.128.508 3.221.651.111.394.082.705.247 1.09.195.459.924.952.793 1.415-.075.264-.539.502-.79.543-.395.063-.97-.035-1.357-.168-.278-.096-.491-.326-.745-.38-.298-.064-.655.136-.99.19-.57.093-1.332-.029-2.103-.081-1.4-.095-2.96-.304-4.35-.415-.794-.064-1.546-.016-2.145-.092-.282-.037-.429-.153-.642-.139-.283.02-.664.311-.83.533-.182.243-.214.57-.368.704-.131.115-.307.087-.67.11-.28-.33-.409-.744-.774-1.026-.623-.26-1.148-.146-1.332.35-.157.42.03.788.336 1.072.692.374 1.176-.055 1.603-.102.25-.028.481.074.676.02.014-.005.108-.098.162-.125.285-.147.402-.383.548-.74.527.038.983-.255 1.41-.326.273-.044.64 0 1.014.03.722.056 1.409.087 2.132.131 1.107.068 2.103.18 3.203.262.756.057 1.552-.001 2.16.182.27.082.528.28.807.312.267.03.513-.16.82-.194.324-.037.601.013.9.125-.172.493-.666.716-1.053 1.023-.37.295-.711.652-1.082.972a30.884 30.884 0 0 0-1.081.972c-.352.334-.778.716-1.037 1.113-.28.432-.403.989-.64 1.522-.231.52-.642.982-1.035 1.41-.638.695-1.234 1.468-1.514 2.51.188.257.478.247.705.368.42.225.747.622 1.169.84.381.197.92.33 1.351.337.177.002.36-.1.562-.183.16-.064.366-.116.483-.204.61-.46.87-1.328 1.235-2.12a6.738 6.738 0 0 1 .659-1.134c.445-.63.933-1.258 1.488-1.964.589-.752 1.31-1.574 1.982-2.209.404-.382.947-.967 1.39-1.012.423-.043.92.144 1.251.395.561-.279 1.228-.093 2.008-.032.413.033.865.059 1.24.135.379.079.733.259 1.103.31.49.07.999-.126 1.451-.017.206.051.427.172.648.268a27.22 27.22 0 0 0 1.375.557c.216.08.508.099.637.307-.22.211-.489.136-.792.244-.351.127-.678.471-1.016.438-.307-.03-.563-.263-.856-.283-.3-.02-.613.192-.708.397-.249.539.222.82.044 1.204-.106.23-.71.284-1.033.347-.567.112-.994.358-1.603.102-.337-.331-.176-.993-.568-1.308a1.076 1.076 0 0 0-.828-.233c-.291.047-.646.344-.751.555-.086.169-.037.447-.121.732-.076.255-.27.48-.29.726-.037.487.433.995 1.102 1.076.132.016.217-.058.36-.07.141-.01.293.048.416.033.237-.029.492-.205.787-.077-.137 1.043-.73 1.822-1.333 2.476-.424.458-.942.965-1.391 1.311-.167.129-.376.228-.527.362-.17.152-.324.437-.526.66-.545.605-1.268 1.27-1.561 2.072-.283.777-.19 1.507.11 2.03.103.182.44.577.576.673 1.198.848 2.526.167 3.177-.553.195-.216.457-.458.52-.79.134.153.184-.119.212-.153.25-.302.433-.556.661-.835.595-.729 1.16-1.478 1.849-2.033.664-.537 1.206-1.135 2.212-.91.172.04.376.172.58.206.157.025.34-.047.518-.025.822.102 1.82.474 2.607.563-.4.564-.907 1.015-1.383 1.44-.245.22-.493.429-.735.645-.24.215-.489.429-.734.644-.73.643-1.44 1.411-2.09 2.136-.205.228-.489.443-.677.745-.751 1.209-.293 2.607.839 2.916.439.12.958.007 1.395-.118.355-.101.941-.284 1.111-.623.094-.186.1-.574.255-.907.308-.667.841-1.274 1.337-1.88.94-1.148 2.006-2.14 3.013-3.151.451-.454 1.237-1.142 1.745-1.212.164-.022.399.033.624.048.212.015.446.043.664.06.447.035.902-.03 1.26.056.477.114.891.33.957-.072.098-.594-.94-.218-1.177-.202-.3.02-.675-.02-1.013-.03-.39-.013-.817.013-.929-.176.565-.85 1.485-1.13 2.33-1.473.215-.088.417-.204.634-.289.233-.092.49-.137.702-.228.25-.108.455-.355.718-.437.477-.148 1.073-.061 1.603-.102.118-.009.238-.06.36-.069.43-.029.843-.095 1.221.046-.177.514-.612.798-.957 1.134-.32.313-.617.678-1.014 1.034-.168.151-.382.259-.55.441-.158.173-.278.392-.464.593-.372.398-.86.638-.93 1.185-.05.393.243.789.652.864.558.103 1.08-.596 1.43-1.002.328-.381.616-.7.952-.966.084-.065.218-.247.343-.159-.023-.24.238-.341.392-.485.488-.459.935-.937 1.496-1.239.396-.212.924-.38 1.427-.534.784-.241 1.555-.506 2.369-.1-.823 1.927-2.28 3.402-3.507 5.055-.972 1.308-2.16 3.075-3.137 4.35-.166.216-.32.498-.466.593-.229.15-.578.11-.82.196-.194.069-.46.19-.645.329-.268.198-.359.492-.65.795-.238.249-.567.432-.824.662-.661.591-1.197 1.518-1.82 2.084-.303.276-.532.427-.75.852-.568 1.109.22 2.109 1.222 1.705.56-.225 1.135-.996 1.676-1.57.58-.618 1.062-1.285 1.686-1.611.236-.034.514-.029.72-.138 1.03-.546.81-2.227.567-3.074 1.59-2.086 3.069-4.29 4.626-6.315.94-1.224 1.942-2.513 2.548-4.219.706-.16 1.58-.023 2.328-.11.199.317 1.125.54 1.124.996 0 .301-.379.608-.632.886-.244.266-.568.492-.728.773-.1.176-.109.43-.217.62-.24.421-.572.557-.604.936-.02.246.168.5.391.578.323.115.452-.046.641-.16.363-.219.69-.404.625-1.015.263-.281.512-.54.767-.763.25-.217.5-.494.854-.611.262-.087.772-.155 1.125-.066.168.042.324.179.49.223a2.72 2.72 0 0 0 .703.07c.424-.024.952-.255 1.037-.815-.51-.844-1.905-.396-2.882-.64-.405-.254-.88-.413-1.263-.653-.374-.235-.75-.464-.983-.745.335-.565 1.076-.446 1.59-.659.534-.22.966-.644 1.504-.81.412-.128.893-.08 1.299-.231.234-.087.421-.354.7-.526.214-.132.496-.16.675-.28.26-.171.434-.463.616-.677.079-.202.18-.437.317-.676-.076-.3-.045-.661-.06-.996-.167-.025-.065-.216-.091-.28-.012-.03-.092-.037-.108-.073-.074-.176-.153-.227-.097-.41.11-.356.778-.324 1.028-.477.113-.07.266-.196.297-.3.076-.248-.106-.4-.2-.651-.276-.088-.66-.284-1.121-.4-.746-.19-1.569-.37-2.095-.42-.444-.23-.767-.616-1.117-.867-.416-.299-.869-.501-1.237-.9-.221.045-.204-.157-.433-.122-.193-.213-.357-.34-.615-.386-.334-.34-.816-.53-1.23-.771-.409-.24-.821-.494-1.273-.613a.889.889 0 0 0-.272-.247c-.321-.188-.736-.348-1.127-.53a59.797 59.797 0 0 0-4.723-1.966c-.314-.117-.658-.202-.973-.316-.896-.325-1.728-.628-2.818-.877-.665-.153-1.501-.19-1.875-.442-.514-.347-.352-1.048-.551-1.517-.08-.184-.254-.32-.363-.527-.16-.302-.27-.699-.427-1.057-.157-.362-.35-.731-.466-1.066-.152-.442-.132-1.165-.787-1.285-.507.597.099 1.176.339 1.67.141.29.29.671.437 1.016.16.374.4.72.477 1.027.055.216.023.472.11.67.132.295.652.47.521.869-.233.165-.517-.03-.743-.082-1.285-.297-2.712-.524-3.964-.73-.527-.088-1.07-.042-1.525-.174-.374-.11-.759-.336-1.088-.519-.333-.187-.608-.437-.875-.672.069-.124-.05-.098-.084-.151-.237-.371-.304-.942-.602-1.19-.368-.307-.978-.335-1.515-.512-.434-.142-.89-.321-1.33-.416-.373-.08-.774-.107-1.137-.192-.31-.072-.586-.195-.867-.243-.193-.034-.387 0-.585-.038-.595-.113-.948-.391-1.455-.58-.665-.245-1.478-.4-2.146-.687-.327-.142-.634-.438-1.077-.559-.404-.11-.867-.062-1.317-.157-.874-.184-1.68-.596-2.535-.67-.327-.029-.629.03-.933-.007-.621-.076-1.291-.446-1.836-.432-.411.012-.945.356-1.32.31-.327-.04-.913-.316-1.477-.5C10.535.87 9.93.808 9.509.65 9.207.534 8.93.237 8.53.204c-.22-.018-.54.095-.662.24-.604.707.364 1.442.419 1.989.023.237-.034.808-.098.951-.148.33-.81.774-1.077.803-.124.014-.462-.027-.664-.06-.215-.033-.625-.088-.76-.17-.22-.135-.08-.463-.362-.527-.226-.052-.348.327-.606.34-.093.004-.263-.148-.423-.162-.193-.016-.415.146-.59.132-.312-.024-.593-.238-.895-.294-.28-.053-.464.036-.698.06zm31.788 40.755l-.022.079c.08.088.154-.101.072-.107-.01.023-.018.044-.05.028m1.461-1.716c.655.136.999-1.204.023-1.143-.648.041-.589 1.025-.023 1.143m-6.073-4.729c.118.053.185.015.202-.113l-.158-.044-.044.157m7.996 1.823l.079.022.022-.079-.08-.022-.02.08m-6.722-2.274c.896.248 1.448-1.458.224-1.553-.9-.07-1.015 1.335-.224 1.553m-10.487-5.373c-.194.146.216.117 0 0m-8.789-2.94c.15.055.255.007.314-.209-.177-.55-.702.07-.313.21m1.71-.03l.044-.158-.118-.033c-.04.1-.069.193.074.191m26.005 7.227c.043.086.079.176.242.195.368-.162-.15-.642-.242-.195m-22.132-7.84c.01-.06-.085-.063-.146-.084-.125.122.15.234.146.083M9.602 26.5c.113.024.187-.02.213-.152-.113-.024-.187.021-.213.153m29.118 7.804c.036.09.04.2.193.224.364-.092-.03-.607-.193-.224M7.543 25.198c-.034.096.027.14.023.22.136.063.204.007.299-.002.091-.237-.187-.375-.322-.218m2.405.676c.13.016.055.146.215.146.02-.043.06-.05.1-.057.169-.287-.308-.421-.315-.089m16.387 3.757c-.063.102.027.118-.016.209.152.072.236.025.253-.142-.1-.01-.066-.097-.186-.095-.01.023-.02.045-.05.028m-10.433-3.146c-.048.138-.001.222.141.253.047-.037.082-.091.096-.186-.036-.068-.172-.107-.237-.067m-1.785-.46c.064.053.126.107.214.146.054-.041.099-.1.162-.125.017-.153-.06-.254-.26-.285-.068.035-.087.16-.116.264m-4.851-1.661c-.452-.187-.703.905-.12 1.03.377-.107.369-.927.12-1.03m-2.604-1.03c-.3-.13-.552.337-.223.49.181.085.268-.055.394-.187-.09-.164-.06-.255-.171-.303m29.885 8.105l.044-.158-.118-.033c-.04.1-.069.194.074.19M8.473 24.311c.03-.055-.018-.252.022-.377.055-.18.171-.253.177-.333.034-.402-.43-.573-.63-.177-.066.13.002.267-.032.416-.04.177-.187.266-.173.462.244.36.527.208.636.009m40.83 11.097c.428.05.54-.785.001-.765-.54.02-.395.72-.002.765m-8.294-3.183c.098.056.099-.06.151-.085-.084-.032-.134-.003-.151.084m12.975 3.181c.086.036.151.032.18-.034-.087-.037-.152-.033-.18.034m-6.465 2.565c-.298.318-.87.67-.9 1.235-.018.314.237.644.655.695.36.045.656-.318 1.044-.685.249-.236.712-.632.987-.786.244-.138.589-.18.764-.296.265-.176.459-.464.695-.655.113-.093.254-.18.375-.277.133-.108.277-.266.387-.317.289-.135.704-.107.904-.342.769-.904-.283-2.256-1.25-1.755-.269.138-.335.417-.577.689-.193.216-.517.408-.847.74-.258.26-.511.688-.818.791-.316.107-.48-.089-.883-.036-.188.495-.27.714-.536.999m-9.746-7.25c-.007.178.24.278.394.11.072-.415-.383-.422-.394-.11m12.858 3.445c.515.09.693-.929-.015-.855-.521.054-.405.782.015.855M6.353 20.353l.079.023.021-.08-.078-.021-.022.079M52.13 33.82c.494.117.687-.78.103-.822-.655-.048-.396.752-.103.822m-14.654-4.929c.166-.403-.69-.458-.41.098.252.091.35.047.41-.098m-13.779-4.257c.106.068.112.07.236.067.05-.138.002-.223-.14-.253-.047.036-.083.091-.096.186m29.301 8.366c.014.164.22.292.468.302.76-.5-.539-1.158-.468-.302m-13.441-4.247c.1.04.173.034.19-.074-.049-.016-.04-.066-.106-.072-.028.05-.078.059-.084.146m-7.865-2.594c.136.135.33.2.484.094.282-.555-.604-.72-.484-.094m-11.881-3.894c.05.146.37.229.388-.019-.006-.217-.367-.346-.388.02M54.59 32.64a.534.534 0 0 0 .403-.525c.009-.243-.219-.425-.425-.459-.851-.145-.643 1.082.022.984m-20.198-6.998c-.147.3.312.487.412.2-.029-.172-.258-.37-.412-.2m19.735 5.464c.029-.013.197-.191.218-.321.044-.258-.172-.458-.423-.46-.73-.006-.258.997.205.781M11.513 18.19c.068.02.11-.002.141-.046-.063-.014-.135-.044-.14.046m8.364 2.48c.096.031.189.058.248.026.002-.1-.001-.198-.102-.241-.102-.025-.116.11-.146.214m-15.8-4.784c.134.079.211-.15.095-.186-.046.037-.082.092-.096.187m31.338 8.385c.122.155.248.206.462.173.39-.467-.526-.822-.462-.172m-12.568-3.875c.043.021.05.062.057.102.142.053.22-.004.281-.092-.022-.183-.288-.336-.338-.01M5.311 14.827c.117.07.141-.026.19-.073-.049-.029-.059-.078-.146-.085l-.044.158m18.787 4.602c-.088-.039-.14-.123-.237-.067-.029.073.022.1-.005.17.14.07.205.009.242-.103m1.819.34c.016.08.035.16.164.175.02-.042.06-.05.101-.057.001-.1-.001-.198-.102-.241-.067.018-.143.024-.163.123m-.35-.267l.079.022.022-.08-.079-.021-.022.08m-2.622-1.42c.127.05.24.075.298 0 .01-.127-.031-.227-.181-.264-.085.082-.139.128-.117.265m36.788 9.578c.052.098.141.052.237.067a.378.378 0 0 0-.041-.31c-.06.09-.151.124-.196.243M5.914 11.168l.08.022c.016-.05.065-.04.072-.107l-.118-.033-.034.118m24.526 5.833l.078.021.023-.078-.08-.022-.021.079m-14.033-4.415c-.005.196.27.362.49.223.246-.589-.479-.63-.49-.223m-3.822-1.541c-.25.273.104.592.358.397.103-.258-.09-.448-.358-.397m1.533.302l-.078.276c.098.162.227.181.423.162.193-.328-.093-.557-.345-.438M5.93 6.577c-.067.129.098.18.173.134.067-.128-.097-.18-.174-.134m38.031 9.545c-.088 0-.245-.122-.287-.038.089 0 .246.121.287.038M6.054 5.676c.004.065.03.116.035.18.156.06.28.063.32-.08-.123-.093.045-.145-.012-.258-.176-.058-.268.035-.343.158m36.009 8.721c-.074.164.164.177.169.005-.068-.022-.125-.026-.17-.005M4.075 3.035c.028.166.237.206.355.1.103-.271-.309-.421-.355-.1M0 1.635c.09.038.035.157.164.173.083.011.107-.085.19-.074.09-.28-.287-.41-.354-.1m3.79-.466l.158.045c.04-.1.033-.174-.075-.191-.027.05-.076.06-.083.146M5.483.75c.122-.494-.623-.248-.321.08-.102.015-.165.101-.196.244.028.194.347.237.417.031.012-.107-.085-.152-.052-.27.084.032.135.003.152-.085m1.78-.732c-.032.095-.06.188-.027.247.125.046.202.007.241-.102C7.46.096 7.453.021 7.352 0c-.017.028-.046.037-.09.017m42.515 10.55c-.059.113-.145.177-.292.13-.008-.04-.015-.08-.056-.1.048-.308.275-.185.348-.03" fill="currentcolor" fill-rule="evenodd"/></svg>