<svg xmlns="http://www.w3.org/2000/svg" width="257.059" height="122.116" viewBox="0 0 68.013 32.31"><path d="M49.2 31.197c-.018.012-.024.033-.013.051l.146.22c-.011-.018-.009-.045.01-.057.017-.012.04-.01.052.009l-.14-.21c-.011-.017-.037-.025-.055-.013M35.15 15.245c-.02.015-.024.042-.008.061l.22.276c.104.122.202.236.277.364a.044.044 0 0 0 .061.017.046.046 0 0 0 .017-.062 2.57 2.57 0 0 0-.286-.378l-.215-.27c-.016-.019-.046-.024-.066-.008M14.705 6.59a.038.038 0 0 0-.02.05c.054.117.162.176.266.233.098.053.19.104.234.197a.038.038 0 0 0 .05.019.039.039 0 0 0 .019-.051c-.055-.116-.163-.175-.267-.232-.097-.053-.19-.104-.232-.197a.037.037 0 0 0-.05-.019m24.693 11.452a.07.07 0 0 0-.024.096c1.263 2.13 5.877 3.23 9.003 2.754a.07.07 0 0 0 .058-.08.07.07 0 0 0-.08-.06c-3.082.47-7.625-.6-8.861-2.685a.07.07 0 0 0-.095-.025m11.63-.407l-.17.113-.048.034a.088.088 0 0 0-.021.122.087.087 0 0 0 .12.022l.048-.033.162-.107c.04-.027.054-.084.028-.124a.084.084 0 0 0-.118-.027m-30.068-.166a.107.107 0 0 0 .075.13l.17.046c.442.117.898.24 1.292.465a.107.107 0 0 0 .105-.185c-.418-.24-.888-.365-1.342-.486l-.17-.046a.107.107 0 0 0-.13.076m11.897-1.556l-.35.266c-.205.146-.416.297-.583.49a.06.06 0 0 0 .09.08c.158-.184.363-.331.56-.473l.36-.272c.026-.02.029-.056.009-.081-.02-.027-.06-.03-.086-.01m.874-1.987a.068.068 0 0 0-.045.086c.029.094.035.198.042.307.012.197.025.401.175.565a.068.068 0 0 0 .1-.092c-.118-.128-.128-.3-.139-.481a1.44 1.44 0 0 0-.048-.34.068.068 0 0 0-.085-.045m.867.177l-.028.075c-.027.075-.043.12-.1.187a.086.086 0 0 0 .01.12.085.085 0 0 0 .12-.01.678.678 0 0 0 .13-.238l.027-.07a.087.087 0 0 0-.05-.112.083.083 0 0 0-.109.048m-.382.526l-.09.021-.23.071c-.068.022-.087.086-.066.154.02.068.112.1.18.08l.17-.051.104-.024a.126.126 0 0 0 .092-.155.133.133 0 0 0-.16-.096m5.173 3.355a.126.126 0 0 0 .086.237c.382-.14.797-.096 1.236-.048.244.026.496.053.743.046a.126.126 0 0 0-.008-.253c-.229.007-.462-.018-.708-.044-.448-.048-.912-.098-1.35.062m-.78-.288a.16.16 0 0 0 .064.215c.224.122.456.247.705.34a.16.16 0 0 0 .11-.298c-.228-.085-.45-.205-.664-.321a.159.159 0 0 0-.215.064m-1.393-2.39a.051.051 0 0 0-.016.072l.562.862c.338.497.686 1.01.932 1.55a.052.052 0 0 0 .07.026.053.053 0 0 0 .026-.07c-.25-.549-.601-1.066-.94-1.565l-.56-.858a.054.054 0 0 0-.074-.017m1.465 2.36c-.18.109-.387.076-.604.041-.195-.031-.395-.064-.599-.002a.118.118 0 0 0 .068.226c.151-.046.318-.019.493.009.239.039.508.082.763-.07a.118.118 0 0 0-.12-.204m-6.169-.647a.102.102 0 0 0 .074.123c.792.196 1.628.29 2.436.382.821.093 1.67.19 2.464.393a.102.102 0 1 0 .05-.197c-.807-.207-1.663-.304-2.492-.398-.801-.09-1.63-.185-2.41-.378a.1.1 0 0 0-.122.074m.595-.795a1.255 1.255 0 0 1-.242.276c-.094.088-.19.18-.257.295a.044.044 0 0 0 .016.06.043.043 0 0 0 .06-.015c.06-.105.148-.188.241-.276.094-.088.19-.18.258-.296a.044.044 0 1 0-.076-.044m.757-1.417c-.044.124-.132.222-.224.326-.104.116-.212.238-.264.404a.095.095 0 0 0 .061.12.094.094 0 0 0 .119-.063c.04-.127.13-.228.224-.335.1-.113.204-.23.262-.388a.095.095 0 0 0-.057-.121.094.094 0 0 0-.12.057m4.186-1.768c-.1.035-.18.063-.27.169a.107.107 0 0 0 .012.15.106.106 0 0 0 .15-.012c.053-.063.087-.075.178-.107a.107.107 0 0 0 .066-.135.106.106 0 0 0-.136-.065m-24.711-.008a.094.094 0 0 0 .035.128c2.637 1.502 5.144 2.56 7.663 3.236a.093.093 0 0 0 .114-.066.093.093 0 0 0-.066-.114c-2.504-.671-4.996-1.724-7.62-3.22a.093.093 0 0 0-.126.036M9.03 9.725c-.026.033-.008.088.025.116l.156.128c.058.058.119.119.201.158a.077.077 0 0 0 .066-.137c-.06-.028-.108-.078-.16-.13l-.194-.155c-.033-.027-.067-.013-.094.02m31.19 1.571c-.055.02-.124.044-.14.11-.005.026.011.044.036.054.025.01.055-.007.069-.029.006-.01.05-.026.07-.033a.054.054 0 0 0 .033-.068.054.054 0 0 0-.068-.034m-2.484 1.13l-.335.073-.179.048c-.06.016-.101.08-.084.14.015.06.071.097.131.081l.196-.053.288-.064c.061-.014.115-.076.102-.137-.014-.06-.058-.102-.119-.089m-.261 5.345a.062.062 0 0 0-.01.088c3.446 4.35 8.56 7.482 14.398 8.82a.063.063 0 0 0 .028-.123c-5.811-1.33-10.9-4.446-14.329-8.775a.061.061 0 0 0-.087-.01m12.328 2.658a.147.147 0 0 0 .03.205c1.798 1.34 3.386 2.582 4.605 4.19a.146.146 0 0 0 .204.028.147.147 0 0 0 .027-.205c-1.242-1.638-2.846-2.893-4.662-4.248a.145.145 0 0 0-.204.03m.394-3.735a.091.091 0 0 0-.066.112c.057.222.085.456.111.68l.03.239a.09.09 0 0 0 .101.078.092.092 0 0 0 .08-.102l-.03-.236a5.381 5.381 0 0 0-.115-.705.092.092 0 0 0-.111-.066m-3.768-7.667c-1.065.841-2.439 1.522-4.084 2.021a.113.113 0 1 0 .066.217c1.671-.508 3.07-1.201 4.158-2.06a.114.114 0 0 0 .018-.16.113.113 0 0 0-.158-.018m.307-.147a.086.086 0 0 0 .025.12l.373.239c.6.374 1.22.763 1.393 1.5.016.29.007.607-.003.914-.023.755-.046 1.535.335 2.24a.087.087 0 0 0 .119.034.087.087 0 0 0 .035-.118c-.36-.663-.336-1.42-.314-2.15.01-.312.019-.633 0-.946-.19-.822-.843-1.23-1.473-1.623l-.368-.235a.089.089 0 0 0-.122.025m-29.292-.514a.075.075 0 0 0 .008.106c.214.183.476.292.729.396.292.122.568.236.76.454a.074.074 0 0 0 .105.007.074.074 0 0 0 .007-.105c-.215-.244-.52-.37-.815-.494-.243-.1-.493-.204-.69-.372a.074.074 0 0 0-.104.008m-8.025.776l-.16.028-.119.018a.107.107 0 0 0-.089.126.114.114 0 0 0 .13.092l.11-.017.18-.032c.06-.01.093-.066.083-.127-.01-.06-.075-.099-.135-.088M6.5 6.17l-.183.392c-.14.293-.283.595-.39.9a.065.065 0 0 0 .124.044c.103-.3.246-.598.383-.887l.185-.395a.064.064 0 0 0-.032-.086.066.066 0 0 0-.087.032m4.18 6.417a.124.124 0 0 0 .046.168c3.02 1.735 5.768 3.262 8.79 4.377a.123.123 0 1 0 .085-.23c-3.005-1.11-5.742-2.631-8.753-4.361a.123.123 0 0 0-.168.046m3.672 3.682a.086.086 0 0 0 .072.097c1.557.236 3.167.48 4.68 1.209a.085.085 0 0 0 .114-.04.085.085 0 0 0-.04-.115c-1.536-.74-3.16-.986-4.73-1.224a.085.085 0 0 0-.096.073m11.38 7.225c-1.285.453-2.966.493-4.611.109a.073.073 0 0 0-.033.142c1.671.39 3.381.348 4.692-.115a.073.073 0 0 0-.048-.136m-2.65-3.347a3.327 3.327 0 0 1-.535.17l-.307.087a.124.124 0 0 0-.085.155.13.13 0 0 0 .16.087l.296-.082c.19-.05.386-.101.573-.186a.126.126 0 0 0 .064-.167.126.126 0 0 0-.167-.064m-1.344-.29v.215c0 .023.019.041.041.041a.041.041 0 0 0 .042-.041v-.215a.041.041 0 1 0-.083 0m.09 1.374a.061.061 0 0 0-.034.08l.01.024c.048.119.103.253.061.36a.061.061 0 0 0 .035.079.061.061 0 0 0 .079-.035c.058-.153-.009-.317-.062-.45l-.01-.024a.06.06 0 0 0-.08-.034m-.613 1.804c-.107.238-.17.43-.206.62a.099.099 0 0 0 .194.036c.032-.174.092-.351.192-.575a.1.1 0 0 0-.049-.13.099.099 0 0 0-.13.049m-2.603.279a.11.11 0 0 0 .082.128l.624.146c.6.15 1.22.307 1.808.19a.106.106 0 0 0-.041-.208c-.543.109-1.139-.041-1.716-.187l-.635-.148a.102.102 0 0 0-.122.079m5.026-4.922a.075.075 0 0 0 .032.101c2.416 1.274 5.036 2.037 8.01 2.333a.074.074 0 0 0 .082-.067.075.075 0 0 0-.066-.082c-2.955-.295-5.558-1.052-7.957-2.316a.075.075 0 0 0-.1.031m2.815-1.394l-.733.179c-.731.174-1.488.353-2.197.658a.122.122 0 1 0 .096.224c.69-.297 1.436-.474 2.157-.645l.738-.18a.12.12 0 0 0 .088-.147.123.123 0 0 0-.148-.09m3.14.743c-.504.288-1.17.48-1.975.565a.05.05 0 1 0 .01.1c.82-.087 1.498-.282 2.016-.578a.05.05 0 0 0 .019-.069.05.05 0 0 0-.07-.018m20.264 1.783a1.612 1.612 0 0 1-.205.392l-.04.062a.044.044 0 0 0 .014.06.043.043 0 0 0 .06-.013l.04-.062c.082-.13.169-.264.215-.414a.044.044 0 0 0-.03-.054.043.043 0 0 0-.054.03m3.846 2.068a.097.097 0 0 0 .029.134c4.506 2.954 7.982 5.397 11.271 7.92a.096.096 0 0 0 .116-.152c-3.293-2.527-6.772-4.972-11.283-7.93a.096.096 0 0 0-.133.028m-3.582-2.17a.124.124 0 0 0 .052.167 26.98 26.98 0 0 1 1.595.936c.45.278.915.565 1.386.824a.124.124 0 1 0 .119-.217 31.116 31.116 0 0 1-1.376-.819c-.52-.32-1.057-.653-1.61-.943a.123.123 0 0 0-.166.052m.453-5.248a.08.08 0 0 0 .04.106c.55.254 1 .768 1.175 1.342.095.314.148.788-.14 1.26a.08.08 0 0 0 .026.112.08.08 0 0 0 .11-.026c.254-.415.308-.897.157-1.393a2.402 2.402 0 0 0-1.26-1.441.08.08 0 0 0-.108.04m-5.051-5.821a.038.038 0 0 0 .002.054c.092.082.202.144.309.204l.09.05a.039.039 0 1 0 .038-.066l-.091-.052c-.103-.057-.21-.117-.294-.194a.039.039 0 0 0-.055.004m1.344.228l-.083.152-.032.056a.11.11 0 1 0 .19.108l.031-.054.09-.167c.03-.053.008-.115-.045-.143-.053-.03-.122-.005-.15.048M36.281 4.72a.111.111 0 0 0 .086.132l.053.012.156.035a.114.114 0 0 0 .136-.083.108.108 0 0 0-.08-.132l-.166-.038-.053-.011a.111.111 0 0 0-.132.085m.042-1.178l-.014.007-.01.01c-.118.123-.25.273-.34.456a.084.084 0 0 0 .038.112.083.083 0 0 0 .11-.038 1.62 1.62 0 0 1 .297-.4.678.678 0 0 1 .452-.019c0 .006.038.042.038.042.036.04.084.095.168.101a.082.082 0 0 0 .087-.078.083.083 0 0 0-.077-.088c-.014 0-.028-.015-.054-.045l-.107-.088c-.236-.06-.424-.049-.588.028m1.53 6.729c-.21.317-.462.618-.705.909-.312.372-.633.756-.877 1.185a.11.11 0 1 0 .19.11c.235-.413.55-.79.855-1.153.247-.296.503-.602.72-.93a.11.11 0 0 0-.032-.152.11.11 0 0 0-.151.031m-4.516 2.508a.042.042 0 0 0-.011.058c.092.134.16.271.209.419a.04.04 0 0 0 .052.026.042.042 0 0 0 .027-.053 1.732 1.732 0 0 0-.219-.44.042.042 0 0 0-.058-.01M8.934 3.28c-.6.114-1.13.561-1.623 1.366l-.503.873-.123.218a.06.06 0 0 0 .022.082.06.06 0 0 0 .082-.023l.124-.218.5-.87c.474-.773.979-1.202 1.544-1.31.962-.184 1.988.588 3.074 1.405.469.353.953.717 1.447 1.015a.06.06 0 0 0 .082-.02.06.06 0 0 0-.02-.083c-.49-.295-.971-.657-1.437-1.008-1.108-.834-2.154-1.621-3.169-1.427m2.396-1.606c-.05.128-.134.234-.223.348l-.202.291c-.014.02-.006.042.013.055.02.015.05.005.063-.015l.193-.278c.09-.113.182-.23.236-.37a.043.043 0 0 0-.024-.055.043.043 0 0 0-.056.024m-1.92 2.77c.02-.108.307-.302.143-.358-.02.107-.307.301-.143.358M33.36 15.53c-.275.01-.28.29-.499.358l.036.071-.035.072c.066.076.262.022.213.215h.071v.071c.245-.135.284-.479.428-.715l-.107-.036zm1.14-1.215a1.005 1.005 0 0 0-.356.357l.107.084-.035.13c.287.09.36.284.713.144.09-.096-.211-.405-.285-.573l-.108-.035zm-23.594-1.717c-1.211-.907-2.758-1.476-3.85-2.503.194-.977 1.383.112 1.854.429 1.433.962 3.12 2.06 4.42 2.645l.092-.092.122-.05c-.972-.628-2.438-1.544-3.493-2.289-.304-.214-1.286-.724-.927-.858l-.035-.107.106-.036c-.079-.224-.033-.189.071-.358l-.107-.083.036-.131c-.676-.115-1.325.146-1.853-.072-.526-.216-.996-1.256-1.283-1.645l-.072.036-.07-.036c-1.164.276-1.936-.304-2.71-.572-.54-.187-1.057-.187-1.568-.286-.857-.166-1.666-.407-1.64.715.515.614 1.015-.334 1.64-.429.627-.095 2.32.6 2.424 1.001.168.65-.804 1.726-.713 2.218.141.762.898.355 1.426.215 1.194-.319 1.785.117 2.566.571a74.404 74.404 0 0 0 3.35 1.86l.093-.093zm3.493 3.576c-.477.003-.613-.169-.926-.358-.177-.105-.129.01-.286-.071.058.03-.051-.184-.142-.215-.966-.325-1.859.342-1.711 1.645.31.293.313.479.57.572 1.426.52 1.73-1.477 2.566-1.359l-.035-.107zm8.696 4.22c.685-.191 1.259.234 1.711-.072-.426-.275-1.301-.534-1.781-.143l.106.083zm-1.14.93v-.287a2.078 2.078 0 0 1 .427-.428l-.106-.084.035-.131c-.24-.07-.355-.263-.499-.43l-.035.108-.036-.107c-.431.275-.766-.112-1.283-.143-.797-.048-1.7.223-1.782 1.001-.083.788.593 1.214 1.212 1.216.642.001 1.231-.621 1.924-.644l.036-.107zm-.57 1.859c.33-.384.77-.657.642-1.502l-.108.035-.035-.106c-.369.37-.669.807-.713 1.502l.13-.036zm10.336-2.36c.154.261.685.14.641-.214-.194-.16-.572-.045-.712.07l.035.072zm-8.127-3.004c-.257.134-.745.217-1.068.071l.025.128-.097.087c.375.196.888.254 1.283.43l-.035-.108.106-.036c-.03-.136-.203-.13-.142-.357l-.097-.088zm30.866 7.01c.036.297.25.416.285.714-.277.288-.786.825-1.283 1.001-.465.165-.987.017-1.568-.071l-.018.143-.125.072c1.118.295 2.984.924 3.422-.286.2-.552-.145-1.346-.57-1.789l-.05.122zM64.94 29.62c1.122.35.782 3.06 2.494 2.647.882-.213.717-1.856-.213-2.218-.363-.14-.712-.012-1.212 0a3.602 3.602 0 0 0-.856-.572l-.092.093zm-11.833-8.296c.149.207.43.283.641.429l.036-.108.036-.107c-.023-.168-.113-.269-.072-.5-.229-.016-.301.126-.57.07l.036.132zm-2.21-3.577c-.218.052-.26-.073-.428-.07l-.107.035-.107-.036v.358c-.2.299-.558.44-.712.786.01.323.249.418.285.715h.071v.072c.136-.134.179-.008.356 0l-.025-.128.097-.086c-.255-.671.193-1.165.57-1.431l-.036-.107zm-.142-3.576c-.112-.175-.665-.373-.713 0 .025.237.41.113.641.144l-.035-.108zm-1.926-.286v.215c-.43.37-1.167.005-1.568.357.034.252.166.475.357.644.181.16.567.113.428.286.509.062 1.092.429 1.426.43.039 0 .08.057 0 .07.322.201.402.646.64.93l.108-.035.107.035a.338.338 0 0 1 .071-.214c.368.166.72.614.57 1.073l.107.036-.035.107h.142c.763.621.898 2.484 2.281 2.289.683-.097.915-1.022.642-1.645-.388-.883-1.923-.774-2.281-1.574l-.107.036-.036-.107c-.091.01-.098.082-.214.071-.448-.042-1.102-.84-1.425-1.287-.455-.63-.703-1.45-1.07-1.86l-.035.107zm-1.781-5.15c.237-.227.406-.612.285-1.001-.785-.632-1.674.446-2.424.286-.311-.283.026-.747-.071-1-1.516-.378-1.713 1.483-.57 1.644.47.066.887-.329 1.283-.214v-.072h.07c.26-.441 1.307-.534 1.213.286l.13-.035zm-.5.501c.107-.037.18-.105.286-.143l-.024-.166.166.023v-.143l-.13.036-.084-.107c-.175.236-.514-.092-.356.286l.093.093zM36.499 4.66a.835.835 0 0 1-.356-.572l-.107-.036-.036-.107c-.267.424-.966.413-1.14.93.467.211 1.02-.059 1.567 0l-.035-.131zm1.497 5.793c.522-.785 1.127-1.22 1.924-1.716.365-.227.888-.646 1.212-.572.729.163.951 2.836-.071 2.932-.184.017.098.123 0 .286-.327.047-.546.361-.856.214v-.214l-.07.036-.072-.036c-.756.053-1.05-.315-1.497-.215-.436.098-.76.57-.927 1.288l.107.083-.035.13c.206.033.324.152.356.359l.036.108.035.106c1.715-.401 2.68-1.554 4.348-2.002l-.106-.084.035-.13H42.2c-.324-.323-.122-.713-.07-1.074.193-1.364-.565-2.131-1.141-2.932-.28-.387-.51-.854-.927-1.073-.172-.09-.096.1-.286.072-.113-.016-.282-.19-.356-.215-1.067-.346-1.665-1.02-2.85-1.144l.035.13-.107.085c.525.306 1.32.342 1.64.857.093.692-.23 1.242-.143 2.075.06.589.437 1.088.356 1.573-.062.372-.462.5-.499.859l.093.093zM25.59 14.029c.381.238.324.946.072 1.287-1.433.305-1.563-1.776-.072-1.288m.286-.787v.43c-.186.133-.68.1-.785-.072-.017-.513.515-.709.785-.358m-6.88-3.969l-.107-.036c-.643.193-1.936-.022-3.064-.071-2.226-.098-4.504-.125-6.487 0l.106.083-.035.13c2.357-.004 5.476.023 7.841.216 1.813.148 3.927.327 5.346.93.607.257 1.523.825 1.569 1.001.308 1.182-1.406.985-2.138 1.216-.683.214-.815.63-1.212 1.001.303.59.426.983.997 1.288.69.368 1.68-.025 1.782.715-.235.247-.807.443-1.283.5-.43.053-.879-.008-1.283-.07l.036.13-.107.083c-.108.55-.929.77-1.426.501l.026.128-.097.087v.215c-.083.06-.19.094-.356.07l.035.108-.107.036c-.108.405-.839.868-1.354.93-.783.093-1.682-.267-1.711.571-.017.5.477.36.57 1.002-1.122 1.757.374 3.362 2.21 3.433l-.035-.131.107-.083c-1.147-.392-2.274-.96-2.21-2.289.033-.702 1.086-1.987 1.497-2.29.505-.371 1.513-.753 2.067-.714.307.021.49.34.855.286.367-.18-.325-.47.072-.643l-.036-.108.036-.107c-.016-.08-.08-.111-.143-.143.363-.83 1.843-.527 2.923-.644.903-.097 2.264-.844 2.494.43l.108.083-.036.13c.943-.216 1.705.035 2.28.215.276.086.769-.003.785.358l.107-.036-.035.107c.984-.298 1.934-.771 3.065-.715l-.036-.13.107-.084v-.143h-.071v-.072c-.174.135-.423.198-.57 0v-.072l-.108.036.036-.107c-.219-.01-.32.252-.499.071-.211-.424.292-.563.499-.786.25-.488.392-1.084.499-1.717.21-.19.914-.2 1.211-.071l.036-.107.107.036c.194-.16.573-.045.713.07l.107.036.036.108c1.033-.93 2.075-.57 3.207-.143 1.001.377 1.9.76 2.78 1.144.512.223 1.069.617 1.355.572.04 0 .081.058 0 .072.45.31 1.006.516 1.497.786.133.388-.012.755-.143 1.073-.54.197-1.329.144-1.996.215l.036.13-.107.084c1.519-.043 3.284.381 4.42-.214.399.162.892.56 1.568 1.002.892.581 2.082.994.998 1.787l.035.072.036.071c.568.42.825-.31 1.426-.285l.092-.094.122-.05c-.083-.18-.284-.24-.285-.5L49.65 20l.035-.107c-.715-.14-1.275-.673-1.853-1.073-.945-.653-2-1.184-2.638-2.002-2.225-.533-3.614-1.905-5.703-2.575-.183-.174-.184-.53-.427-.644-.399.014-.982.235-1.07-.214v-.144l-.13.036-.083-.107c-.44.21-.886-.188-.428-.43l-.107-.082.036-.132c-.37.062-.57.226-.784-.071v-.072l-.13.036-.084-.107c-.497.416-1.842.095-2.71-.358-.302-.159-.502-.488-.783-.644-.794-.44-2.652-.7-2.566.5.087 1.225 2.167.585 3.136 1.074v-.072h.071c.323-.037.466.106.428.43-.124.005-.222-.016-.285-.072v.071h-.071c-.108.295-.922.533-1.355.501-.28-.02-.56-.295-.855-.357-1.513-.32-3.527.482-4.705-.286-.257-.505-.625-.899-.926-1.36-1.042-.488-1.794-1.166-2.923-1.573-1.124-.405-2.584-.67-3.707-1.002zm-7.626-7.581l-.036.107c.795-.107 1.463-.875 1.069-1.503-.07-.111-.492-.35-.856-.285-.668.12-.793 1.21-.285 1.716zm43.874 23.208c.326.028.371-.228.286-.429-.294-.054-.45.244-.286.43M38.28 23.397c-.091-.004-.099-.092-.214-.072-.111.176.242.21.214.072m-8.982-1.43c.208.105.208-.32 0-.215zm-9.98-7.869c.227.062.22-.112.357-.143-.01-.181-.104-.277-.285-.286-.087.112-.229.279-.072.43m1.782-2.79c-.41 1.378 1.315 1.229 1.497.572.213-.77-.264-1.169-.927-1.001-.364.092-.543.338-.57.429M8.483 8.593c-.12-.195.113-.336-.142-.43-.154.153-.027.39.142.43m34.715-1.074c-.006-.195.119-.143 0-.286a.152.152 0 0 0 0 .286m8.34.072c.08.015.111.08.143.143.353.021.52-.146.499-.501-.257-.25-.709-.11-.642.358M8.34 6.947c-.02-.125.2-.357 0-.429.019.125-.201.357 0 .43m43.618 1.938l.15-.008c.515.58.89 1.301 1.425 1.86.597.22 1.012.157 1.426.5.811.674.899 2.487-.072 2.718-.857.205-1.545-.488-1.781-1.359-.14-.51.039-1.119-.072-1.645-.155-.742-.952-1.324-1.212-2.002z" fill="white" fill-rule="nonzero"/></svg>