<?xml version="1.0" encoding="UTF-8" standalone="no"?>
<!-- Created with Inkscape (http://www.inkscape.org/) -->

<svg
   xmlns:dc="http://purl.org/dc/elements/1.1/"
   xmlns:cc="http://creativecommons.org/ns#"
   xmlns:rdf="http://www.w3.org/1999/02/22-rdf-syntax-ns#"
   xmlns:svg="http://www.w3.org/2000/svg"
   xmlns="http://www.w3.org/2000/svg"
   xmlns:sodipodi="http://sodipodi.sourceforge.net/DTD/sodipodi-0.dtd"
   xmlns:inkscape="http://www.inkscape.org/namespaces/inkscape"
   width="51.157482mm"
   height="64.793488mm"
   viewBox="0 0 51.157482 64.793488"
   version="1.1"
   id="svg3924"
   inkscape:version="0.92.2 2405546, 2018-03-11"
   sodipodi:docname="paint02.svg">
  <defs
     id="defs3918">
    <clipPath
       clipPathUnits="userSpaceOnUse"
       id="clipPath126">
      <path
         d="M 0,600 H 600 V 0 H 0 Z"
         id="path124"
         inkscape:connector-curvature="0" />
    </clipPath>
  </defs>
  <sodipodi:namedview
     id="base"
     pagecolor="#ffffff"
     bordercolor="#666666"
     borderopacity="1.0"
     inkscape:pageopacity="0.0"
     inkscape:pageshadow="2"
     inkscape:zoom="0.35"
     inkscape:cx="8.5714304"
     inkscape:cy="559.99999"
     inkscape:document-units="mm"
     inkscape:current-layer="layer1"
     showgrid="false"
     fit-margin-top="0"
     fit-margin-left="0"
     fit-margin-right="0"
     fit-margin-bottom="0"
     inkscape:window-width="3840"
     inkscape:window-height="2095"
     inkscape:window-x="0"
     inkscape:window-y="0"
     inkscape:window-maximized="1" />
  <metadata
     id="metadata3921">
    <rdf:RDF>
      <cc:Work
         rdf:about="">
        <dc:format>image/svg+xml</dc:format>
        <dc:type
           rdf:resource="http://purl.org/dc/dcmitype/StillImage" />
        <dc:title></dc:title>
      </cc:Work>
    </rdf:RDF>
  </metadata>
  <g
     inkscape:label="Layer 1"
     inkscape:groupmode="layer"
     id="layer1"
     transform="translate(4.8202146e-7,-232.20651)">
    <g
       transform="matrix(0.35277777,0,0,-0.35277777,-71.779946,440.34514)"
       id="g120">
      <g
         id="g122"
         clip-path="url(#clipPath126)">
        <g
           id="g128"
           transform="translate(239.4033,494.1367)">
          <path
             d="m 0,0 c -0.34,-0.26 -0.441,-0.757 -0.238,-1.156 0.048,-0.094 0.162,-0.13 0.255,-0.083 0.094,0.049 0.13,0.163 0.083,0.255 -0.122,0.239 -0.066,0.533 0.13,0.684 0.083,0.063 0.1,0.182 0.036,0.265 C 0.202,0.048 0.083,0.064 0,0 m -11.099,-24.281 -1.74,-1.987 c -1.169,-1.314 -2.378,-2.672 -3.421,-4.097 -0.075,-0.104 -0.053,-0.248 0.051,-0.325 0.103,-0.076 0.248,-0.053 0.324,0.05 1.03,1.408 2.231,2.758 3.392,4.064 l 1.748,1.994 c 0.084,0.097 0.072,0.241 -0.024,0.326 -0.096,0.084 -0.245,0.071 -0.33,-0.025 m 2.353,2.737 c -0.058,-0.199 -0.202,-0.347 -0.355,-0.504 l -0.374,-0.492 c -0.043,-0.057 -0.017,-0.111 0.039,-0.153 0.056,-0.044 0.151,-0.007 0.195,0.049 l 0.323,0.417 c 0.168,0.173 0.343,0.351 0.418,0.61 0.02,0.068 -0.019,0.139 -0.087,0.159 -0.067,0.02 -0.139,-0.019 -0.159,-0.086 m 98.528,-34.327 c -0.026,-0.154 0.082,-0.272 0.239,-0.298 0.156,-0.025 0.305,0.109 0.333,0.265 l 0.054,0.322 c -0.026,-0.155 -0.171,-0.245 -0.326,-0.219 -0.155,0.026 -0.258,0.188 -0.231,0.344 z M 51.96,15.179 50.358,6.355 C 49.834,3.323 49.292,0.188 48.68,-2.848 c -0.033,-0.169 0.075,-0.333 0.243,-0.367 0.169,-0.034 0.333,0.075 0.367,0.244 0.613,3.044 1.156,6.184 1.681,9.22 l 1.599,8.808 c 0.032,0.169 -0.08,0.336 -0.249,0.367 -0.169,0.03 -0.329,-0.076 -0.361,-0.245 m 0.66,4.17 v -0.552 c 0,-0.109 0.089,-0.197 0.197,-0.197 0.109,0 0.196,0.088 0.196,0.197 v 0.552 c 0,0.108 -0.087,0.196 -0.196,0.196 -0.108,0 -0.197,-0.088 -0.197,-0.196 m 5.564,0.554 c -0.102,-0.033 -0.16,-0.144 -0.127,-0.247 0.128,-0.398 0.127,-0.894 -0.002,-1.359 -0.029,-0.104 0.032,-0.212 0.137,-0.241 0.104,-0.029 0.211,0.032 0.241,0.136 0.15,0.537 0.149,1.114 -0.002,1.584 -0.034,0.103 -0.145,0.16 -0.247,0.127 m 0.034,-3.257 c -0.133,-0.014 -0.229,-0.133 -0.215,-0.266 0.353,-3.302 0.502,-6.702 0.646,-9.989 0.115,-2.636 0.234,-5.361 0.457,-8.033 0.012,-0.133 0.129,-0.232 0.261,-0.221 0.134,0.01 0.233,0.128 0.222,0.262 -0.223,2.662 -0.342,5.381 -0.457,8.013 -0.143,3.295 -0.293,6.702 -0.648,10.019 -0.014,0.133 -0.132,0.229 -0.266,0.215 m 47.232,-78.574 c -0.138,-0.12 -0.161,-0.319 -0.042,-0.457 l 0.202,-0.235 0.067,-0.074 c 0.122,-0.137 0.332,-0.148 0.469,-0.026 0.136,0.122 0.148,0.33 0.027,0.467 l -0.069,0.077 -0.178,0.204 c -0.119,0.138 -0.338,0.164 -0.476,0.044 m -1.96,15.615 c -0.194,-3.917 0.941,-7.932 3.469,-12.272 0.053,-0.091 0.169,-0.122 0.26,-0.068 0.091,0.052 0.121,0.169 0.068,0.259 -2.489,4.276 -3.606,8.222 -3.416,12.062 0.005,0.105 -0.076,0.195 -0.182,0.2 -0.104,0.006 -0.194,-0.076 -0.199,-0.181 M 65.21,-4.963 C 63.969,-5.07 62.77,-5.405 61.609,-5.729 l -1.044,-0.285 c -0.148,-0.04 -0.238,-0.193 -0.197,-0.341 0.04,-0.147 0.19,-0.235 0.338,-0.196 l 1.053,0.288 c 1.187,0.33 2.309,0.643 3.499,0.747 0.153,0.013 0.266,0.147 0.253,0.3 -0.013,0.153 -0.147,0.266 -0.301,0.253 M 53.091,50.185 c -1.938,-0.306 -3.8,-2.961 -4.068,-5.8 -0.01,-0.114 0.074,-0.215 0.187,-0.225 0.115,-0.011 0.216,0.073 0.226,0.187 0.251,2.664 1.954,5.151 3.72,5.429 1.023,0.162 1.876,-0.479 2.467,-1.852 1.201,-2.791 1.418,-6.567 1.648,-10.565 l 0.103,-1.736 c 0.345,-5.507 0.449,-10.602 0.479,-13.15 0.002,-0.115 0.095,-0.206 0.21,-0.204 0.114,0.001 0.205,0.095 0.205,0.209 -0.032,2.551 -0.135,7.655 -0.481,13.171 l -0.103,1.734 c -0.231,4.036 -0.451,7.847 -1.681,10.705 -0.896,2.083 -2.21,2.208 -2.912,2.097 m -5.473,-2.131 -0.151,-1.612 c -0.155,-1.436 -0.316,-2.922 -0.031,-4.312 0.016,-0.076 0.09,-0.126 0.167,-0.11 0.077,0.016 0.126,0.09 0.11,0.167 -0.275,1.346 -0.118,2.81 0.035,4.225 l 0.151,1.624 c 0.008,0.078 -0.05,0.143 -0.127,0.15 -0.078,0.007 -0.147,-0.054 -0.154,-0.132 M 27.111,-5.925 c -0.057,-0.128 -0.003,-0.288 0.125,-0.345 0.129,-0.056 0.276,-0.007 0.333,0.122 l 0.252,0.565 c -0.058,-0.129 -0.21,-0.191 -0.34,-0.135 -0.128,0.057 -0.188,0.203 -0.13,0.331 z m 0.224,-0.49 c -0.095,-0.002 -0.171,-0.083 -0.169,-0.179 0.018,-0.648 -0.062,-1.299 -0.14,-1.929 -0.083,-0.688 -0.171,-1.399 -0.136,-2.121 0.005,-0.095 0.087,-0.169 0.183,-0.165 0.095,0.004 0.17,0.087 0.165,0.182 -0.034,0.693 0.052,1.389 0.134,2.061 0.079,0.643 0.16,1.307 0.141,1.982 -0.001,0.096 -0.082,0.172 -0.178,0.169 M 17.176,-6.797 c -0.107,-0.147 -0.077,-0.354 0.071,-0.463 0.148,-0.108 0.354,-0.077 0.464,0.071 0.958,1.302 1.967,1.817 2.998,1.53 2.175,-0.605 3.942,-4.522 4.155,-6.846 0.016,-0.183 0.178,-0.317 0.36,-0.3 0.182,0.017 0.317,0.179 0.299,0.36 -0.241,2.629 -2.122,6.725 -4.637,7.425 -0.909,0.253 -2.293,0.151 -3.71,-1.777 m 20.759,58.883 c -0.098,-0.041 -0.145,-0.153 -0.104,-0.252 1.596,-3.856 3.212,-7.993 4.222,-12.113 0.025,-0.103 0.129,-0.166 0.232,-0.141 0.104,0.025 0.167,0.129 0.142,0.233 -1.016,4.145 -2.639,8.298 -4.239,12.168 -0.042,0.099 -0.155,0.146 -0.253,0.105 m 2.275,6.189 -0.272,-0.414 -0.087,-0.126 c -0.07,-0.1 -0.044,-0.236 0.055,-0.306 0.101,-0.069 0.239,-0.043 0.308,0.057 l 0.086,0.123 0.29,0.44 c 0.067,0.102 0.034,0.23 -0.069,0.298 -0.101,0.067 -0.244,0.03 -0.311,-0.072 M 39.856,57.716 39.58,57.298 39.495,57.175 c -0.064,-0.093 -0.041,-0.221 0.053,-0.285 0.093,-0.065 0.222,-0.041 0.286,0.052 l 0.084,0.121 0.291,0.442 c 0.062,0.095 0.032,0.215 -0.064,0.277 -0.094,0.063 -0.227,0.029 -0.289,-0.066 m -9.56,5.594 c -0.049,-0.044 -0.052,-0.119 -0.009,-0.168 1.721,-1.932 3.193,-3.961 4.406,-5.691 0.038,-0.054 0.112,-0.067 0.165,-0.029 0.055,0.037 0.067,0.111 0.03,0.165 -1.218,1.735 -2.695,3.771 -4.424,5.713 -0.044,0.049 -0.119,0.053 -0.168,0.01 m 18.841,2.015 c -0.095,-0.001 -0.172,-0.078 -0.171,-0.174 0.025,-4.816 -0.306,-9.259 -1.01,-13.583 -0.015,-0.094 0.049,-0.182 0.143,-0.198 0.094,-0.016 0.182,0.048 0.198,0.143 0.707,4.342 1.039,8.804 1.014,13.64 -10e-4,0.096 -0.079,0.173 -0.174,0.172 m -0.204,5.714 v -1.472 c 0,-0.063 0.05,-0.113 0.113,-0.113 0.062,0 0.114,0.05 0.114,0.113 v 1.472 c 0,0.063 -0.052,0.113 -0.114,0.113 -0.063,0 -0.113,-0.05 -0.113,-0.113 M 0.115,-0.15 0.023,-0.426 C 0.272,-0.483 0.375,-0.688 0.759,-0.61 0.725,-0.883 0.314,-0.779 0.023,-0.794 l -0.092,-0.276 -0.276,0.092 c 0.046,-0.799 1.07,-0.98 1.104,-2.023 0.034,-1.077 -1.173,-1.994 -1.655,-2.76 -4.151,-0.622 -5.416,-3.288 -5.519,-6.255 -0.051,-1.453 0.183,-3.439 0.92,-4.782 0.182,-0.332 0.723,-0.486 0.92,-0.735 0.852,-1.085 1.128,-2.225 1.655,-3.496 0.662,-1.596 1.513,-3.179 1.84,-4.784 0.218,-1.07 -0.504,-1.795 0.551,-2.206 1.044,-0.34 1.677,1.452 1.84,2.024 2.26,1.24 3.519,1.513 5.702,2.759 0.35,0.344 0.463,0.02 0.92,0 2.05,1.703 3.522,3.307 2.392,5.703 -0.464,0.98 -1.981,2.061 -3.128,3.126 -1.079,1.003 -2.19,2.045 -2.943,3.312 -0.343,0.577 -0.42,1.371 -0.736,1.84 -0.777,1.151 -2.702,1.71 -2.943,3.126 -0.087,1.601 2.469,3.702 2.024,5.886 -0.2,0.979 -2.255,2.597 -2.76,0.184 z m -16.28,-30.077 c -0.626,-0.484 -1.71,0.027 -2.391,0 -3.992,-0.154 -5.246,-4.115 -3.863,-6.253 0.908,-1.404 4.647,-1.893 5.886,-0.92 2.118,1.661 0.758,5.174 0.736,6.989 l -0.275,-0.091 z m 6.623,7.727 c -1.064,-0.163 -1.445,-1.008 -1.656,-2.023 l 0.276,0.091 0.092,-0.276 c 0.872,0.416 1.536,1.04 1.656,2.208 l -0.184,-0.092 z m 0.919,0.92 v -0.184 c 0.727,0.192 1.394,0.445 1.84,0.919 0.324,3.9 -3.597,1.4 -4.047,-0.184 0.352,-0.913 1.311,-0.169 2.023,-0.551 z m 114.234,-41.022 c 0.522,-0.799 1.887,-1.418 3.128,-0.919 1.092,2.05 -0.716,3.951 -1.471,5.334 l -0.145,-0.302 -0.224,-0.25 c 0.161,-1.065 1.039,-1.413 0.92,-2.759 -0.538,-0.259 -0.634,-0.959 -1.655,-0.736 l -0.24,-0.239 z M 65.143,-5.576 c 3.343,0.154 6.269,-0.108 8.645,-0.921 1.428,-1.26 2.285,-3.349 4.967,-2.942 1.393,0.211 2.484,1.712 2.207,3.31 -0.198,1.149 -1.569,2.217 -2.759,2.392 -2.401,0.352 -3.185,-1.28 -4.783,-1.472 -1.229,-0.147 -2.756,0.477 -4.047,0.552 -1.724,0.101 -3.111,-0.099 -4.414,-0.368 l 0.275,-0.214 z m -6.071,4.046 c -0.86,-1.349 -0.305,-3.01 0.184,-4.414 -1.169,-2.965 -5.959,-0.478 -6.807,-3.68 -0.505,-1.907 1.027,-3.686 0,-5.886 -0.892,-0.947 -2.973,-0.705 -2.575,-2.944 1.515,-0.504 2.609,0.759 3.863,1.105 1.841,-1.55 2.049,-5.654 5.887,-4.599 0.158,2.672 -2.328,2.7 -3.863,3.678 -0.43,1.757 -2.393,3.99 -2.024,6.071 0.229,1.296 2.034,2.652 3.128,2.944 1.151,-1.406 0.316,-3.515 0.919,-4.968 0.737,-1.773 2.641,-1.885 4.599,-2.391 3.364,-6.408 6.995,-13.7 10.67,-21.154 1.719,-3.49 2.755,-7.769 4.23,-11.773 1.457,-3.952 4.195,-7.265 5.152,-10.853 0.407,-1.528 0.282,-3.21 0.919,-4.599 0.463,-1.01 1.847,-1.862 2.023,-2.944 0.127,-0.781 -0.44,-1.88 -0.552,-2.942 -0.183,-1.748 -0.39,-4.326 -0.183,-6.071 0.125,-1.06 0.858,-2.471 1.103,-3.863 0.574,-3.252 0.666,-6.048 3.128,-6.806 0.398,-0.123 0.899,0.056 1.287,-0.185 2.796,1.726 2.337,4.962 0.92,6.623 -1.113,1.306 -3.163,1.57 -3.863,2.759 -0.363,0.616 -0.366,1.482 -0.552,2.391 -0.501,2.449 -0.71,4.689 -0.552,7.91 0.439,0.721 1.586,1.022 1.839,2.024 0.352,1.388 -0.648,2.983 -0.551,4.599 0.172,2.875 1.901,3.497 2.944,5.519 l -0.278,0.091 -0.275,0.092 h -0.551 c -0.001,0.185 0.148,0.219 0.183,0.368 h 0.368 v -0.184 l 0.338,0.092 0.215,-0.276 c 0.594,1.247 1.905,1.834 3.31,1.84 4.976,0.019 8.584,-6.524 11.773,-8.462 l 0.239,0.24 0.312,0.128 c -2.527,1.785 -5.56,7.596 -9.933,8.829 -0.747,0.211 -2.274,0.38 -2.575,0.368 -1.669,-0.061 -4.867,-1.631 -5.519,-2.575 -0.72,-1.044 -0.219,-2.856 -1.103,-4.047 -3.027,-0.516 -3.731,1.916 -4.6,4.599 -0.571,1.772 -0.63,3.647 -1.103,5.151 -0.996,3.172 -3.274,5.704 -4.415,8.277 -1.345,3.037 -2.706,5.815 -4.046,8.462 -1.479,2.918 -2.636,5.841 -4.599,8.094 -0.495,2.879 -4.013,6.296 -4.967,9.382 -0.33,1.068 -0.19,2.565 -0.736,3.863 -0.803,1.914 -3.588,3.959 -1.472,5.15 l -0.276,0.215 0.093,0.338 c -0.254,-0.009 -0.405,0.085 -0.553,0.183 -0.135,1.251 0.498,3.178 -0.551,4.231 l -0.277,-0.092 z m -9.934,46.172 c -0.529,-0.758 0.038,-2.613 -1.655,-2.207 l 0.092,-0.277 -0.276,0.092 c -0.956,-1.922 -0.928,-5.092 0.735,-6.254 1.061,1.095 2.334,2.022 2.391,3.495 0.058,1.461 -1.575,2.962 -0.919,4.967 L 49.23,44.366 Z M 27.432,-6.864 c 0.399,-0.032 0.083,0.651 0.183,0.92 l -0.275,-0.093 -0.092,0.276 c -0.962,0.289 -1.33,-1.112 -0.184,-0.919 l 0.276,0.092 z M 17.314,-6.68 c -1.484,-0.614 -1.101,-3.536 -1.103,-5.519 -0.003,-2.888 -0.384,-4.299 2.208,-4.231 1.571,1.8 -0.607,3.228 -1.105,4.967 -0.398,1.394 -0.272,2.772 0.369,4.231 l -0.239,0.239 z M 33.87,-39.976 c 0.531,-3.678 2.802,-8.082 3.128,-11.957 -0.851,0.042 -1.298,1.035 -1.84,1.656 -0.51,0.584 -1.353,1.161 -1.656,1.839 -0.485,1.087 -0.43,2.682 -0.735,4.046 -0.292,1.308 -0.85,2.561 -0.921,3.865 0.86,0.265 0.746,0.948 2.024,0.551 m 10.67,58.497 c -0.632,-0.939 -2.06,-0.274 -3.312,-0.184 -1.695,0.121 -3.603,-0.335 -4.782,0.368 -0.672,2.899 2.836,3.21 5.15,2.575 0.614,-0.169 1.162,-0.881 1.656,-1.287 0.319,-0.264 1.54,-0.332 1.288,-1.472 m -46.172,5.886 c -0.103,0.265 -0.287,0.449 -0.552,0.552 -0.191,1.152 0.847,1.95 1.288,2.943 0.254,0.575 0.132,1.448 0.551,2.024 1.06,1.458 4.136,1.535 4.047,-0.736 C 3.653,27.931 2.329,27.87 1.495,27.167 0.392,26.237 0.24,24.184 -1.632,24.407 m 15.82,13.244 c 3.266,-3.202 -4.054,-6.229 -4.968,-3.311 -0.761,2.436 2.606,4.56 4.968,3.311 M -0.161,52.184 c -0.08,-0.226 -0.235,-0.378 -0.551,-0.368 -0.086,0.393 0.262,0.35 0.551,0.368 M 48.985,-2.91 48.771,-2.634 c -0.586,-0.824 -0.306,-2.515 -0.92,-3.31 -1.128,-0.059 -2.625,0.716 -4.048,1.471 -4.02,2.133 -5.544,5.156 -7.725,9.013 -1.609,2.845 -4.566,5.263 -3.864,9.014 0.178,0.943 1.203,2.589 2.024,3.127 1.498,0.984 4.113,0.454 6.623,0.368 1.349,-0.046 2.645,0.337 3.494,-0.368 0.286,-0.677 -0.393,-2.034 0.369,-2.575 1.193,-0.266 0.672,2.177 2.023,2.575 0.469,0.139 1.048,0 1.839,-0.184 0.042,-0.293 0.511,-0.791 0.552,-1.103 0.095,-0.737 -2.527,-6.129 0.184,-5.519 1.514,0.34 0.697,4.191 1.103,5.519 0.581,-0.09 0.651,0.331 1.288,0.183 0.039,-0.206 0.205,-0.286 0.369,-0.367 l 0.183,-0.092 0.184,-0.093 c 1.455,0.764 3.684,0.548 5.703,1.104 l 0.092,0.276 0.276,-0.092 c 0.916,0.687 0.685,1.287 0,2.024 l -0.276,-0.092 -0.092,0.276 C 57.064,17.901 54.292,18.346 53,18.705 l -0.183,0.092 -0.184,0.092 c -0.139,-0.474 -0.587,-0.639 -1.287,-0.552 -0.516,0.76 0.655,1.537 1.287,1.103 L 52.817,19.349 53,19.257 c 0.885,1.131 4.228,1.169 5.152,0.183 l 0.092,0.276 0.276,-0.091 c 2.542,0.115 1.92,2.827 -0.184,2.943 L 58.06,22.476 57.968,22.752 C 57.825,22.711 57.754,22.598 57.784,22.384 51.118,19.01 53.197,29.363 48.218,29.006 46.609,28.891 46.162,27.084 45.091,25.511 44.772,25.042 43.648,23.846 43.252,23.304 43.14,23.15 43.01,22.92 42.884,22.752 c -1.34,-1.79 -3.374,0.232 -5.886,0.368 -2.242,1.671 -3.441,4.941 -3.679,8.277 -0.09,1.252 0.397,2.984 0,4.416 -0.397,1.42 -3.822,3.388 -5.519,4.415 -3.8,2.299 -8.192,4.258 -6.806,9.933 -1.143,1.532 -3.101,1.514 -4.231,2.759 -0.879,0.968 -0.905,2.824 -2.024,4.415 -1.541,2.189 -5.273,3.014 -9.197,2.575 -3.861,-0.432 -9.4,-4.274 -10.117,-7.726 -0.649,-3.119 1.366,-6.383 0.919,-9.749 -0.215,-1.623 -1.141,-2.229 -2.391,-3.864 -0.828,-1.08 -1.653,-2.153 -2.391,-2.758 -1.954,-1.601 -5.368,-1.42 -6.991,-3.128 -0.72,-0.758 -1.305,-2.497 -1.287,-3.495 0.041,-2.405 1.715,-4.413 4.598,-4.599 1.969,-0.127 4.2,1.253 6.807,0.552 0.716,-0.193 1.488,-0.949 2.391,-1.472 C -1.265,22.714 0.8,21.962 2.599,21.28 3.585,20.906 4.86,20.718 5.542,20.176 5.626,20.109 5.332,19.866 5.358,19.809 5.376,19.768 5.856,19.691 5.91,19.625 6.405,19 6.74,18.128 6.829,17.417 7.538,11.747 0.421,4.808 4.622,0.494 c 1.095,-1.125 2.899,-1.167 4.415,-2.208 0.602,0.869 1.231,0.148 1.471,0.184 1.293,0.193 2.94,2.059 3.311,2.944 2.13,5.052 -3.534,12.925 -1.839,15.635 0.814,1.302 2.383,0.56 4.415,0.368 2.909,-0.274 4.334,-0.184 5.702,-1.288 0.993,-1.752 2.19,-3.802 2.392,-6.806 0.068,-1.001 -0.079,-2.088 0,-3.127 0.158,-2.063 1.061,-4.158 0.736,-6.07 -0.252,-1.478 -1.621,-2.601 -0.736,-4.048 0.262,-0.534 1.316,-0.277 1.471,-0.919 0.418,0.599 1.438,0.256 1.288,-0.735 l 0.337,0.091 0.215,-0.276 c 2.666,-0.343 1.65,-4.717 -0.552,-4.782 l -0.184,-0.092 -0.183,0.092 c -0.27,-0.773 -0.231,-1.856 -1.473,-1.656 l -0.214,-0.277 -0.337,0.093 c 0.862,-2.617 -0.89,-3.615 -2.024,-4.783 -0.587,-0.519 -0.252,-1.092 -0.551,-1.655 -0.398,-0.746 -1.485,-1.171 -1.839,-1.84 -0.313,-0.587 -0.151,-1.378 -0.553,-2.024 -1.378,-2.21 -5.2,-2.715 -5.334,-6.07 1.644,-0.768 2.269,-1.895 3.311,-3.495 0.565,-0.868 1.439,-1.935 1.655,-2.575 0.32,-0.952 0.147,-2.58 0.553,-3.863 0.298,-0.948 0.96,-1.625 1.102,-2.392 0.229,-1.216 -0.607,-3.546 1.473,-3.679 1.922,2.863 -2.503,5.546 -1.656,8.279 0.025,0.079 0.567,0.162 0.183,0.551 0.726,0.277 3.149,0.809 2.944,-0.183 0.385,0.549 0.889,0.47 1.471,0.367 1.801,-0.318 3.934,-2.813 5.152,-3.863 -0.615,-2.857 1.464,-6.398 1.287,-9.75 -0.073,-1.388 -0.847,-2.722 -0.736,-4.046 0.065,-0.773 0.476,-1.181 0.551,-2.024 1.033,-0.473 1.479,-1.453 2.76,-1.471 1.241,-0.018 1.728,1.084 2.759,0.92 0.01,-3.058 1.639,-5.474 3.496,-6.071 -0.113,0.01 -0.218,0.028 -0.184,0.184 0.804,-0.24 0.924,-0.328 1.839,-0.184 0.571,0.678 1.223,1.496 1.287,2.391 0.197,2.728 -2.61,4.662 -4.047,6.622 -1.745,2.384 -3.103,7.633 -4.23,11.038 -0.466,1.41 -0.994,2.886 -1.104,3.863 -0.438,3.88 0.626,7.869 2.024,10.301 0.553,0.047 0.453,-0.169 1.287,0.184 0.607,1.086 1.407,1.302 1.656,2.391 0.647,2.836 -1.763,6.695 -1.103,9.382 0.427,1.745 2.486,2.949 4.414,2.943 1.316,0.869 2.192,3.029 4.231,2.575 -0.068,-1.899 -0.713,-3.73 -1.104,-5.702 -0.349,-1.764 -0.368,-3.906 -1.103,-5.702 -0.543,-1.325 -2.058,-2.169 -2.576,-3.496 -1.134,-2.906 0.622,-5.543 2.576,-5.335 1,0.108 2.297,1.743 2.391,3.68 0.068,1.402 -0.639,2.656 -0.736,4.047 -0.11,1.563 0.288,3.385 0.552,5.151 0.751,5.013 1.648,10.382 2.391,14.899 z m -7.021,42.769 c 0.043,-1.992 -0.727,-4.29 1.288,-4.598 1.561,1.556 -0.531,3.425 -0.92,4.782 L 42.24,39.767 Z m -1.471,18.028 c 1.041,0.28 2.142,1.367 1.471,2.759 -1.504,0.093 -1.735,-1.086 -1.839,-2.391 L 40.4,58.163 Z m -0.368,-0.552 c 0.143,0.04 0.214,0.153 0.184,0.367 l -0.276,-0.091 -0.093,0.276 c -0.143,-0.041 -0.213,-0.155 -0.184,-0.368 l 0.277,0.092 z m -9.566,5.886 c -1.054,2.694 -2.683,5.469 -5.334,3.679 -0.725,-0.489 -1.017,-2.036 -1.287,-3.311 -0.56,-2.635 -1.076,-5.365 1.102,-5.702 3.265,-0.505 2.415,4.909 5.335,5.15 v 0.184 z m 7.45,-11.313 0.277,-0.092 c 1.284,1.045 1.417,3.242 1.654,5.334 l -0.275,-0.091 -0.092,0.276 c -1.442,0.157 -3.08,0.664 -4.598,0.184 -0.012,0.112 -0.029,0.217 -0.185,0.183 V 57.519 H 34.606 C 33.3,54.79 34.314,51.118 37.917,51.632 Z m 3.955,-116.901 h 0.367 v 0.368 h -0.367 z m 65.304,20.051 c 0.002,0.365 0.502,0.234 0.367,0.736 h -0.552 c 0.031,-0.276 -0.064,-0.679 0.185,-0.736 m -88.481,2.023 h 0.551 v 0.552 H 18.97 c -0.01,-0.236 -0.236,-0.255 -0.183,-0.552 m -32.192,20.051 c 0.584,-0.277 1.496,-0.278 1.471,0.552 -0.166,1.068 -1.869,0.896 -1.471,-0.552 m 1.287,2.759 c 0.537,-0.27 0.537,0.823 0,0.552 z m -22.626,0.552 c 0.253,0.237 0.182,0.798 0.184,1.287 -1.462,0.982 -2.089,-1.664 -0.184,-1.287 m 84.434,3.863 c 0.104,-0.835 1.054,1.053 0.184,0.184 -0.088,-0.088 -0.211,0.034 -0.184,-0.184 m -58.681,2.024 c 0.04,0.205 0.205,0.286 0.368,0.367 0.048,0.6 -0.218,0.886 -0.735,0.92 -0.51,-0.352 -0.463,-1.311 0.367,-1.287 m -0.92,5.702 c -0.024,-0.454 -0.027,-0.886 0.185,-1.104 0.566,-0.129 0.353,-0.129 0.919,0 0.212,0.218 0.209,0.65 0.184,1.104 -0.245,0.263 -1.042,0.263 -1.288,0 M 6.094,-9.624 c 0.566,0.353 0.731,1.459 0.368,2.207 -2.177,1.75 -3.56,-2.827 -0.368,-2.207 m -4.415,5.151 c 0.385,-1.186 -0.635,-2.023 0.551,-2.576 0.041,0.143 0.155,0.214 0.369,0.185 0.546,0.961 -0.454,1.337 0,2.391 -0.567,0.128 -0.354,0.128 -0.92,0 m 2.391,0.369 c -0.148,-1.115 0.843,-0.125 0,0 M -6.047,-5.025 h 0.92 c 0.301,0.445 0.468,0.894 0.184,1.471 -1.144,0.927 -2.069,-0.803 -1.104,-1.471 m -5.703,1.288 c 0.427,-0.059 0.707,0.029 0.92,0.183 -0.063,0.428 -0.119,0.863 -0.736,0.736 -0.154,-0.213 -0.243,-0.493 -0.184,-0.919 m 33.664,1.471 c 0.142,-0.042 0.362,-0.005 0.368,-0.184 2.367,0.217 -0.693,2.892 -0.368,0.184 m 2.575,1.472 v 0.368 c -0.34,0.611 -0.897,-0.552 0,-0.368 m -2.207,0.368 h 0.368 v 0.367 H 22.282 Z M -9.174,0.126 c 0.576,-0.085 0.82,0.16 0.736,0.736 C -8.692,0.853 -8.842,0.948 -8.991,1.045 -9.145,0.832 -9.233,0.552 -9.174,0.126 M 2.599,1.045 C 3.116,1.08 3.382,1.366 3.334,1.965 3.086,2.024 2.983,2.227 2.599,2.149 2.347,1.913 2.347,1.281 2.599,1.045 m 19.498,0.369 c 0.471,0.02 0.366,0.614 0.368,1.104 H 21.729 C 21.446,2.237 21.402,1.256 22.097,1.414 M -0.529,4.54 c 0.058,0.249 0.262,0.352 0.184,0.736 C -0.594,5.334 -0.696,5.538 -1.08,5.46 -1.309,4.929 -1.174,4.622 -0.529,4.54 m 41.573,0.552 c 0.677,-0.177 0.731,0.904 0.184,0.92 -0.162,-0.325 -0.582,-0.537 -0.184,-0.92 m -68.062,6.438 c 0.169,-0.322 0.342,-0.638 0.92,-0.551 0.359,0.503 0.359,0.784 0,1.287 -0.6,0.048 -0.885,-0.218 -0.92,-0.736 m 90.504,5.703 c 1.995,-0.863 2.151,1.631 3.128,2.392 -0.101,2.801 -4.113,3.025 -5.886,1.655 0.964,-0.093 1.574,-1.051 2.207,-0.92 0.276,-0.22 0.338,-2.233 0.551,-3.127 M 41.964,27.534 c 0.01,0.317 -0.141,0.472 -0.368,0.552 -0.263,-0.269 -0.27,-0.712 0.368,-0.552 m 6.07,4.415 v 0.736 h -0.551 c -0.052,-0.48 -0.062,-0.921 0.551,-0.736 m -65.67,4.047 c 0.517,0.035 0.784,0.32 0.736,0.92 -0.772,0.668 -1.499,-0.498 -0.736,-0.92 m 2.575,1.288 c 0.537,-0.27 0.537,0.822 0,0.552 z m 0.736,8.83 c 0.057,0.248 0.262,0.351 0.184,0.735 h -0.552 c -0.051,-0.419 0.044,-0.691 0.368,-0.735 m 66.59,9.933 h -0.552 c -0.95,-1.334 1.503,-1.334 0.552,0 m -35.87,0.368 c 0.185,10e-4 0.219,-0.149 0.368,-0.185 -0.001,0.186 0.149,0.22 0.184,0.369 -0.185,0 -0.219,0.149 -0.368,0.184 10e-4,-0.184 -0.149,-0.219 -0.184,-0.368 m 3.312,1.84 c 0.745,-0.072 1.063,0.285 0.919,1.103 -0.213,0.154 -0.493,0.243 -0.919,0.184 -0.263,-0.246 -0.263,-1.042 0,-1.287 m 9.749,3.311 c -0.149,-1.114 0.842,-0.123 0,0 M 0.943,66.532 H 0.391 c -0.951,-1.333 1.503,-1.333 0.552,0 m -12.877,-1.103 c 0.263,0.044 0.31,0.302 0.552,0.367 0.097,0.833 -0.271,1.202 -1.103,1.104 -0.385,-0.476 -0.206,-1.567 0.551,-1.471 m 44.148,1.839 c 0.207,-0.039 0.287,-0.205 0.369,-0.368 0.75,-0.076 1.16,0.189 1.104,0.92 -0.251,0.943 -1.726,0.563 -1.473,-0.552 m -8.462,3.311 c 0.207,-0.038 0.288,-0.204 0.369,-0.368 0.926,-0.128 1.212,0.382 1.104,1.288 -0.582,0.567 -1.608,0.22 -1.473,-0.92 M 13.268,69.843 c 2.028,-0.199 1.764,3.627 -0.368,2.575 -1.295,-0.638 -0.794,-2.46 0.368,-2.575 m 7.542,3.495 c 0.95,-0.146 1.186,0.531 0.919,1.104 -0.213,0.155 -0.493,0.243 -0.919,0.184 -0.263,-0.245 -0.263,-1.042 0,-1.288 m -9.566,1.84 c 0.306,0.586 0.316,0.77 0.184,1.471 -1.703,1.121 -2.414,-2.017 -0.184,-1.471 m 15.82,5.335 c 0.056,0.484 -0.255,0.603 -0.735,0.551 -0.15,-0.658 0.391,-0.913 0.735,-0.551 M 14.556,79.776 c 1.612,-0.347 2.184,0.987 1.655,2.208 -1.466,1.402 -3.137,-1.199 -1.655,-2.208 m 5.887,2.576 c 1.244,-0.276 1.173,1.871 0.183,1.839 -0.439,-0.512 -0.721,-1.278 -0.183,-1.839 m 16.555,-0.184 c 1.926,0.298 2.062,4.335 -0.735,3.679 -2.614,-0.612 -1.324,-3.996 0.735,-3.679 m 12.14,3.495 c 0.527,0.347 0.597,1.937 -0.367,1.84 -0.655,-0.475 -0.348,-1.687 0.367,-1.84 m -25.2,2.943 c -0.433,2.883 -2.227,-1.349 0,0 m 8.461,-2.943 c 0.803,2.219 -1.227,5.625 -3.128,4.415 -1.289,-0.821 -3.31,-2.251 -2.942,-3.495 0.404,-1.372 3.04,-1.038 4.598,-1.655 0.214,-0.89 0.276,-1.932 1.472,-1.84 0.04,0.143 0.154,0.214 0.368,0.184 0.753,0.948 -0.209,1.4 -0.368,2.391 m 2.576,3.128 h 0.92 c 0.22,0.506 0.397,0.768 0.183,1.287 -0.218,0.212 -0.65,0.208 -1.103,0.184 -0.272,-0.267 -0.272,-1.204 0,-1.471 m 5.15,0.551 c 0.668,0.007 0.808,0.541 0.736,1.288 -1.006,1.302 -2.323,-1.093 -0.736,-1.288 m 2.943,2.76 c -0.163,0.141 -0.525,-0.114 -0.552,-0.185 -0.26,-0.693 0.915,-0.131 0.552,0.185 m 5.703,3.678 c 4.77,0.992 3.132,-7.324 -0.92,-5.15 -0.13,0.069 0.05,0.306 -0.184,0.368 -2.108,0.562 -0.934,4.359 1.104,4.782"
             style="fill:#262626;fill-opacity:1;fill-rule:evenodd;stroke:none"
             id="path130"
             inkscape:connector-curvature="0" />
        </g>
      </g>
    </g>
  </g>
</svg>
