<svg xmlns="http://www.w3.org/2000/svg" width="244.889" height="154.242" viewBox="0 0 64.793 40.81"><path d="M16.655 28.313a.042.042 0 0 0 .027.053c1.398.475 2.985.874 4.716 1.187a.044.044 0 0 0 .05-.035.043.043 0 0 0-.035-.05c-1.727-.31-3.31-.709-4.704-1.181a.042.042 0 0 0-.054.026m.037-.092l-.004.024-.014.07c-.003.013.003.033.016.035.014.004.024.002.027-.012l.02-.087.004-.024a.025.025 0 0 0-.022-.028.024.024 0 0 0-.027.022m-.33.038c-.003.016.01.032.025.035l.143.029.163.032c.015.003.028-.007.031-.023.003-.016-.01-.032-.026-.035l-.154-.03-.15-.03c-.016-.004-.029.007-.032.022m36.53-10.231a.023.023 0 0 0 .011.03c.254.113.494.298.688.447a.023.023 0 0 0 .031-.004c.008-.011.007-.025-.004-.032-.195-.15-.438-.337-.696-.453a.023.023 0 0 0-.03.012m-1.088-.768c-.012.017-.007.041.01.053l.162.118.248.17c.017.011.037.005.048-.012.012-.017.004-.043-.013-.054l-.238-.163-.166-.121c-.017-.013-.039-.008-.05.01m-1.396-.903a.048.048 0 0 0 .016.067l.213.13c.166.098.324.192.474.316a.049.049 0 1 0 .062-.076 3.77 3.77 0 0 0-.486-.324l-.211-.13a.05.05 0 0 0-.068.017M45.501 12.8a.04.04 0 0 0-.005.057c.083.102.187.188.286.27l.244.222c.016.015.045.016.06 0 .015-.017.016-.039 0-.055l-.252-.23c-.096-.08-.197-.163-.276-.258a.04.04 0 0 0-.057-.006m2.807 2.164a.07.07 0 0 0 .017.098l.32.215.427.298c.032.021.08.016.102-.016.023-.033.018-.074-.014-.097l-.438-.305-.313-.211a.073.073 0 0 0-.1.018m-4.592.154a.06.06 0 0 0-.034.077.056.056 0 0 0 .073.032l.085-.036a.06.06 0 0 1-.076-.03.056.056 0 0 1 .03-.075zm-1.233-.964a.04.04 0 0 0 .007.056l.024.018c.125.098.254.198.332.338a.04.04 0 0 0 .054.015.04.04 0 0 0 .015-.054c-.085-.154-.221-.26-.353-.362l-.023-.017a.04.04 0 0 0-.056.007m-1.329-1.092a.022.022 0 0 0 .004.03l.247.194c.151.115.308.234.443.376-.008-.009-.008-.023 0-.03.01-.01.023-.009.031 0-.137-.144-.295-.264-.448-.381l-.245-.192a.022.022 0 0 0-.032.003m4.9 18.813a.048.048 0 0 0 .019.065c.296.163.626.29.946.412l.604.243c.024.01.054-.002.063-.026.01-.025 0-.052-.025-.061l-.608-.245c-.332-.127-.644-.246-.934-.407a.048.048 0 0 0-.065.019m-7.707-2.952a.04.04 0 0 0-.018.052.039.039 0 0 0 .052.018c.035-.018.074-.003.12.015l.105.03c.02.005.033-.008.038-.028.006-.02-.013-.044-.034-.05l-.082-.023c-.054-.022-.115-.046-.181-.014m1.235.76a.06.06 0 0 0-.022.08c.124.22.292.41.455.596l.348.43c.02.025.061.033.087.012.025-.02.031-.055.01-.08l-.356-.44a3.553 3.553 0 0 1-.44-.577.06.06 0 0 0-.082-.021m-6.763-.802l-.02.214-.01.14c-.382.4-1.02.38-1.492.29a.074.074 0 0 0-.027.145c.514.098 1.217.117 1.642-.348l.017-.018v-.012l.03-.368c.004-.04-.024-.09-.064-.094-.04-.004-.073.01-.076.051m1.237.694c-.081.037-.129.071-.155.112a.071.071 0 1 0 .12.077c.003-.005.02-.026.093-.058a.07.07 0 0 0 .036-.095.071.071 0 0 0-.094-.036m.392-.207a.056.056 0 0 0 .024.075c.319.166.676.278 1.022.387l.248.08a.056.056 0 1 0 .034-.106l-.249-.08c-.34-.108-.694-.22-1.003-.38a.056.056 0 0 0-.076.024m4.281 3.277c-.034.018-.072.01-.09-.024l.04.077c.017.033.062.055.096.037.034-.018.05-.051.033-.085l-.052-.103c.017.034.007.081-.027.099m-.943-4.053a.061.061 0 0 0-.007.086l.026.032.057.074c.021.026.064.039.091.019.027-.021.037-.053.017-.08l-.071-.095-.025-.029a.062.062 0 0 0-.088-.007m.412.516a.061.061 0 0 0-.022.083c.113.202.25.394.383.58.164.23.334.467.456.723a.06.06 0 0 0 .108-.052 4.975 4.975 0 0 0-.466-.741c-.13-.183-.266-.372-.376-.57a.06.06 0 0 0-.083-.023m-7.767-1.136a.038.038 0 0 0 .033.044c.34.045.676.184.999.318.352.147.715.298 1.098.336a.04.04 0 0 0 .043-.036.04.04 0 0 0-.036-.042c-.37-.038-.73-.187-1.075-.33-.328-.138-.668-.278-1.019-.325a.04.04 0 0 0-.043.036m-.04.189a.064.064 0 0 0-.038.082l.026.066.039.121c.01.035.05.068.084.058.034-.01.057-.033.046-.068l-.048-.162-.023-.059c-.014-.033-.053-.052-.086-.038m-1.105-.79a.026.026 0 0 0 .01.037 4.22 4.22 0 0 0 .533.247.026.026 0 0 0 .035-.016.027.027 0 0 0-.015-.035 4.26 4.26 0 0 1-.526-.243.027.027 0 0 0-.037.01m.68.396c-.026.174.038.34.1.499.046.119.094.242.104.366a.036.036 0 0 0 .07-.005 1.342 1.342 0 0 0-.107-.387c-.062-.158-.12-.307-.096-.463a.037.037 0 0 0-.03-.04.036.036 0 0 0-.041.03m7.376-.817a.055.055 0 0 0-.015.078c.223.329.48.64.729.94.218.263.442.535.642.817a.057.057 0 0 0 .078.013.056.056 0 0 0 .013-.079c-.202-.284-.428-.557-.646-.822a12.55 12.55 0 0 1-.723-.932.055.055 0 0 0-.078-.015m-6.239.061a.031.031 0 0 0-.008.043c.127.196.39.253.572.208a.031.031 0 0 0 .023-.038.03.03 0 0 0-.038-.023c-.163.04-.398-.016-.506-.181a.03.03 0 0 0-.043-.009m.496-.118c-.029.005-.048.03-.043.06l.052.29a.055.055 0 0 1 .042-.064c.03-.005.056.011.061.04l-.05-.28c-.005-.03-.033-.051-.062-.046m.469.601l-.041.017a.025.025 0 0 0-.014.032c.005.012.02.02.032.014l.107-.043c.359.113.724.273 1.076.427.459.2.933.408 1.428.508a.024.024 0 0 0 .029-.019.025.025 0 0 0-.019-.029c-.49-.1-.962-.306-1.418-.506a9.767 9.767 0 0 0-1.097-.428.592.592 0 0 0-.083.027m-.451-.28a.046.046 0 0 0 .026.06c.073.028.123.083.176.141a.584.584 0 0 0 .2.161.047.047 0 0 0 .06-.024.046.046 0 0 0-.025-.06c-.068-.029-.116-.082-.167-.138-.058-.064-.118-.13-.211-.166a.046.046 0 0 0-.059.027m1.227 1.685c0 .025.02.046.044.046.28.002.53.11.793.224l.438.17c.023.009.046-.004.055-.028.009-.023-.006-.05-.03-.059l-.427-.166c-.26-.113-.53-.23-.828-.232a.045.045 0 0 0-.045.045m-.329-.311c-.022.027-.013.072.015.095l.247.202.069.064a.064.064 0 0 0 .09-.006.066.066 0 0 0-.005-.092l-.068-.062-.263-.215c-.028-.023-.063-.014-.085.014m-.474-1.023a.033.033 0 0 1-.037-.027c.033.191.152.35.267.503.139.186.27.36.261.586a.033.033 0 0 0 .032.035.033.033 0 0 0 .034-.032c.01-.249-.135-.442-.275-.628-.115-.154-.224-.3-.255-.475a.033.033 0 0 1-.027.039m4.82-.378a.058.058 0 0 0-.028.076c.088.195.217.367.342.533.13.174.254.339.336.528a.056.056 0 0 0 .075.03.057.057 0 0 0 .03-.076c-.087-.202-.22-.38-.35-.551-.12-.162-.245-.328-.328-.512a.058.058 0 0 0-.077-.028m-.446.915c-.009.02.003.045.023.053l.4.161c.197.087.402.176.621.228a.039.039 0 0 0 .048-.03.04.04 0 0 0-.03-.048 3.681 3.681 0 0 1-.608-.223l-.405-.163a.037.037 0 0 0-.05.022m-.925-1.956l-.12.047c-.056.012-.12.026-.17.08a.041.041 0 0 0 .062.055c.03-.034.075-.043.125-.055l.155-.063c.021-.01.02-.026.012-.047s-.043-.025-.064-.017m-8.536-.451c-.018.009-.029.025-.02.044l.062.127a.304.304 0 0 1 .059.138.038.038 0 0 0 .04.034.038.038 0 0 0 .035-.04.376.376 0 0 0-.07-.172l-.053-.108c-.01-.018-.034-.032-.053-.023m6.165.87c-.035 0-.067.028-.067.062 0 .035.026.063.06.063h.102l.17.011c.034.002.076-.021.079-.056.002-.035-.012-.062-.046-.065l-.207-.016zm-1.58-.819a.039.039 0 0 0 .007.054c.2.155.434.265.66.372.223.105.452.213.642.362a.037.037 0 0 0 .053-.006.038.038 0 0 0-.007-.053c-.196-.154-.43-.265-.655-.371-.223-.106-.453-.214-.647-.365a.038.038 0 0 0-.053.008m1.315.878c-.188.076-.392.1-.59.123-.224.025-.457.053-.674.154a.045.045 0 0 0-.022.06.046.046 0 0 0 .06.023c.204-.095.42-.12.647-.147.203-.024.414-.048.613-.128a.046.046 0 0 0 .025-.059.046.046 0 0 0-.059-.026m-1.546.22c-.015.044.015.093.058.107l.09.03.14.043c.043.013.079-.014.092-.057.013-.044-.02-.093-.064-.106l-.11-.035-.108-.035c-.044-.015-.084.01-.098.054m-.772-1.189a.034.034 0 0 0-.014.047c.098.191.245.357.387.516.178.2.362.406.445.663a.034.034 0 0 0 .042.021.034.034 0 0 0 .022-.042c-.087-.27-.276-.483-.458-.688-.14-.155-.284-.317-.378-.502a.034.034 0 0 0-.046-.015m.82 1.15l-.06.025c-.082.035-.175.074-.235.163a.072.072 0 0 0 .02.1.071.071 0 0 0 .1-.02c.035-.053.1-.081.17-.11l.066-.028a.07.07 0 0 0 .034-.093.073.073 0 0 0-.095-.037m-.955.185a.067.067 0 0 0 .065.072l.226.007c.143.002.279.004.416.032a.07.07 0 0 0 .027-.136 2.31 2.31 0 0 0-.441-.035l-.22-.007a.07.07 0 0 0-.073.067m-2.76-.76a.028.028 0 1 0 .002.055c.35-.01.711.095 1.062.196.293.084.595.17.888.192a.027.027 0 0 0 .03-.025.027.027 0 0 0-.025-.03c-.289-.021-.588-.107-.877-.19-.355-.102-.722-.208-1.08-.198m-.586-.259a.047.047 0 0 0 .01.065c.089.065.185.097.278.128.097.032.19.064.27.13a.046.046 0 0 0 .065-.007.047.047 0 0 0-.006-.066.887.887 0 0 0-.3-.146.858.858 0 0 1-.252-.114.047.047 0 0 0-.065.01m2.357-.148c-.037.015-.057.051-.042.088l.115.282.115.288c.015.037.06.063.097.048.037-.015.057-.05.042-.087l-.123-.31-.108-.263c-.015-.038-.059-.061-.096-.046m-2.74.153a.039.039 0 0 0-.023.05.039.039 0 0 0 .051.023c.057-.023.118-.014.182-.005a.42.42 0 0 0 .224-.009.038.038 0 0 0 .023-.05.039.039 0 0 0-.05-.023.362.362 0 0 1-.186.004c-.072-.01-.146-.02-.221.01m.943.28c-.004.13.085.19.163.245.067.045.13.089.143.169a.026.026 0 0 0 .03.022.027.027 0 0 0 .023-.03c-.017-.103-.096-.158-.166-.206-.076-.052-.143-.098-.14-.198a.026.026 0 0 0-.025-.027.027.027 0 0 0-.028.025m-1.461-.532a.054.054 0 0 0-.013.074.543.543 0 0 0 .235.194.053.053 0 0 0 .068-.03.054.054 0 0 0-.03-.07.428.428 0 0 1-.187-.155.053.053 0 0 0-.073-.013m.453.396a.061.061 0 0 0-.032.08c.031.07.082.118.13.165l.101.123c.022.025.069.042.095.021.025-.021.038-.047.017-.073l-.128-.16a.423.423 0 0 1-.102-.125.061.061 0 0 0-.081-.031m-3.747.037a.071.071 0 0 0-.002.1c.128.136.274.27.47.328a.072.072 0 0 0 .09-.049.072.072 0 0 0-.049-.089c-.164-.049-.293-.167-.408-.288a.071.071 0 0 0-.101-.002m18.765-.378a.046.046 0 0 0 .007.065c1.976 1.603 3.868 3.205 5.281 5.177a.046.046 0 0 0 .065.01.046.046 0 0 0 .01-.065c-1.42-1.98-3.316-3.587-5.298-5.194a.047.047 0 0 0-.065.007m-1.831 3.722a.048.048 0 0 1-.063.028l4.231 1.634a.05.05 0 0 0 .064-.029.049.049 0 0 0-.028-.063l-4.232-1.634a.05.05 0 0 1 .028.064m-.784-.388a.062.062 0 0 0 .02.084c.081.05.148.117.188.188a.061.061 0 0 0 .084.023.061.061 0 0 0 .023-.084.667.667 0 0 0-.23-.232.06.06 0 0 0-.085.02m-9.681-4.398a.441.441 0 0 0-.023.197c0 .014.012.025.026.024.013 0 .024-.012.024-.026-.001-.06-.003-.13.018-.171a.025.025 0 0 0-.011-.035.025.025 0 0 0-.034.011m-.652-1.11a.03.03 0 0 0 .004.043c.152.124.304.29.442.484a.03.03 0 0 0 .049-.035 2.586 2.586 0 0 0-.453-.495.03.03 0 0 0-.042.004m13.958-.38a.044.044 0 0 0 .033.055c.552.13 1.047.413 1.57.714l.7.385a.043.043 0 0 0 .058-.02.046.046 0 0 0-.019-.06l-.694-.383c-.506-.29-1.03-.592-1.595-.723a.044.044 0 0 0-.053.033m-16.17 1.749a.024.024 0 0 0 0 .034c.028.026.03.064.031.104l.027.116c.003.012.013.013.026.01.012-.002.018-.023.015-.036l-.02-.091c-.001-.046-.004-.097-.045-.138a.024.024 0 0 0-.034 0m-3.002-2.117a.063.063 0 0 0-.016.088c.281.417.629.808.965 1.185l.265.299a.063.063 0 0 0 .089.005.062.062 0 0 0 .006-.088l-.266-.3c-.333-.374-.679-.761-.956-1.172a.062.062 0 0 0-.087-.017m2.9-.26a.047.047 0 0 0 .01.065l.286.204c.452.324.88.631 1.347.9a.046.046 0 0 0 .063-.017.047.047 0 0 0-.017-.063c-.464-.268-.889-.574-1.338-.896l-.286-.205a.046.046 0 0 0-.065.011m3.18 2.044a.04.04 0 0 0 .007.057l.138.105.226.18c.018.014.045.012.059-.006.014-.017.013-.042-.005-.056l-.231-.183-.137-.104a.042.042 0 0 0-.057.007m-1.08-2.588l-.22.02c-.151.008-.308.016-.451.096a.07.07 0 0 0-.027.095.07.07 0 0 0 .094.026c.115-.064.25-.07.392-.078l.237-.023c.038-.003.06-.036.057-.075-.003-.038-.043-.065-.081-.061M26.32 20.97c-.015.012-.016.034-.005.048l.093.119a.943.943 0 0 0 .219.234.033.033 0 0 0 .037-.055c-.083-.055-.141-.135-.203-.218l-.097-.123c-.01-.014-.03-.016-.044-.005m8.242-1.066a.061.061 0 0 0 .042.076c.157.047.342.106.52.188a.061.061 0 0 0 .082-.03.062.062 0 0 0-.03-.082 4.025 4.025 0 0 0-.537-.193.06.06 0 0 0-.077.04m3.73 2.03c-.039.022-.085.02-.134.018h-.08c-.014 0-.024.011-.024.026 0 .014.014.024.028.024h.074c.054.002.109.005.16-.023a.026.026 0 0 0 .01-.035.025.025 0 0 0-.034-.01m-3.316-2.491c-.018.032-.014.068.018.085l.294.164.24.128c.032.016.079.008.095-.025.017-.032.011-.069-.021-.086l-.257-.137-.271-.15c-.032-.017-.08-.011-.098.02m-4.14-.43a.076.076 0 0 0-.009.108l.224.266c.547.65 1.113 1.324 1.609 2.024a.077.077 0 0 0 .124-.089c-.499-.705-1.067-1.38-1.616-2.034l-.224-.266a.077.077 0 0 0-.108-.009m3.296 4.304a.058.058 0 0 0-.022.078c.185.329.41.64.627.94.216.3.44.61.622.937a.056.056 0 0 0 .076.022.056.056 0 0 0 .022-.077 9.744 9.744 0 0 0-.63-.948c-.215-.298-.437-.606-.618-.93a.056.056 0 0 0-.077-.022m-1.676-4.614c-.028.02-.039.05-.02.078l.087.122.065.086c.02.027.062.037.09.017.027-.02.035-.054.015-.08l-.075-.101-.072-.1c-.02-.028-.063-.042-.09-.022m7.348 5.769c-.025.032-.03.07.003.097l.088.07.054.04c.033.024.087.023.112-.01.024-.034.024-.075-.009-.099l-.075-.057-.06-.045c-.032-.026-.088-.028-.113.004m.16.461c-.296.126-.613.22-.92.312-.274.082-.557.166-.823.271a.06.06 0 0 0-.033.077.059.059 0 0 0 .076.033c.261-.103.542-.187.813-.268.31-.093.631-.188.932-.316a.059.059 0 0 0-.045-.109m-5.746-1.768a.053.053 0 0 0-.001.074c.475.498.921 1.084 1.352 1.65l.11.142a.052.052 0 0 0 .082-.063l-.108-.143c-.434-.568-.881-1.156-1.36-1.658a.052.052 0 0 0-.075-.002m-1.446-4.514c-.011.01-.013.025-.003.036l.049.054.048.06c.01.01.03.022.042.013.011-.009.018-.016.01-.027l-.062-.083-.045-.049c-.01-.01-.028-.014-.04-.004m3.824-.762c-.003.034-.038.058-.073.054l.135.015c.034.004.057-.02.06-.056.005-.034-.028-.066-.063-.07l-.11-.012c.035.004.056.034.051.069m-1.103.991c-.013.036.015.078.051.09l.265.093.132.054a.067.067 0 0 0 .088-.039.07.07 0 0 0-.04-.091l-.126-.051-.292-.101c-.035-.013-.065.008-.078.045m-13.339-4.465a.078.078 0 0 0-.01.108l.243.299.329.397c.026.033.073.034.105.008a.079.079 0 0 0 .008-.11l-.323-.39-.246-.303a.075.075 0 0 0-.106-.01m-.965-1.186a.062.062 0 0 0-.022.085c.131.221.333.398.478.508a.061.061 0 0 0 .086-.012.062.062 0 0 0-.012-.087 1.741 1.741 0 0 1-.446-.472.061.061 0 0 0-.084-.021m-.925-.253a.065.065 0 0 0-.041.081l.022.065a.064.064 0 0 1 .04-.081.065.065 0 0 1 .082.04l-.022-.065a.064.064 0 0 0-.08-.04m.191-1.474a.034.034 0 0 0 0 .05c.705.67 1.624 1.115 2.514 1.542l.324.157a.034.034 0 0 0 .046-.015.035.035 0 0 0-.016-.047L23 13.031c-.885-.426-1.799-.867-2.495-1.531a.035.035 0 0 0-.049.001m-1.207-.338c-.02.018-.025.043-.008.063l.186.206.18.202c.018.02.052.026.072.008.02-.018.025-.043.007-.063l-.192-.216-.174-.192c-.018-.02-.052-.026-.071-.008m5.297-.64a.035.035 0 0 0 .002.047c.174.155.367.301.575.432a.033.033 0 0 0 .045-.01.033.033 0 0 0-.01-.046 4.245 4.245 0 0 1-.565-.426.034.034 0 0 0-.047.002m-3.976.81a.056.056 0 0 0 .038.07l.143.043.35.094c.03.008.057-.01.065-.04s-.014-.062-.044-.07l-.339-.091-.144-.044a.054.054 0 0 0-.069.038m-.805-.42a.059.059 0 0 0 .02.08l.315.187a.059.059 0 1 1 .06-.101l-.315-.187a.058.058 0 0 0-.08.021m-5.997-4.56a.064.064 0 0 0 .015.089c1.236.868 2.382 1.895 3.491 2.889l.377.337a.063.063 0 0 0 .09-.005.064.064 0 0 0-.005-.09l-.377-.338c-1.112-.996-2.26-2.025-3.503-2.898a.063.063 0 0 0-.088.016m-.328.15c-.002.089.028.166.057.24l.046.137c.007.022.032.039.054.03.021-.006.034-.025.027-.047l-.049-.15c-.028-.07-.054-.136-.052-.208a.042.042 0 1 0-.083-.002m.359 1.069a.036.036 0 0 0-.027.042l.174.727c.115.469.234.954.314 1.435a.036.036 0 0 0 .041.03.035.035 0 0 0 .03-.041c-.08-.485-.2-.97-.315-1.441l-.174-.726a.036.036 0 0 0-.043-.027m3.005 5.387a.024.024 0 0 0-.003.032c.272.321.583.609.883.886.297.274.605.558.867.87a.023.023 0 0 0 .032.003.023.023 0 0 0 .003-.033 9.751 9.751 0 0 0-.871-.874c-.3-.277-.61-.563-.879-.882a.023.023 0 0 0-.032-.002m47.826 10.16c-4.658 2.933-9.252 5.695-14.238 7.264a.065.065 0 0 0 .038.124c5-1.575 9.603-4.341 14.268-7.279a.065.065 0 0 0-.068-.11m-27.502-5.134c-.012.032-.008.062.024.073l.174.065.048.012c.032.007.068-.013.075-.046a.06.06 0 0 0-.044-.075l-.053-.013-.132-.047c-.033-.012-.08-.002-.092.032m-11.534-6.555a.038.038 0 0 0 .02.05c.115.052.205.14.3.231.081.078.165.16.265.216a.038.038 0 0 0 .053-.014.039.039 0 0 0-.015-.052 1.281 1.281 0 0 1-.25-.205c-.096-.092-.195-.188-.323-.245a.038.038 0 0 0-.05.019M15.18 1.462a.036.036 0 0 0 .01.049l.817.52c2.335 1.477 5.532 3.501 7.834 6.097.686.774 1.48 1.78 1.526 2.704a.036.036 0 0 0 .039.035c.02 0 .035-.018.034-.038-.049-.948-.851-1.967-1.545-2.749-2.309-2.603-5.511-4.63-7.85-6.11l-.815-.52a.037.037 0 0 0-.05.011m4.498 8.327a.037.037 0 0 0 .006.051.036.036 0 0 0 .051-.006c.837-1.066 2.306-.896 4.49.518a.037.037 0 0 0 .05-.01.037.037 0 0 0-.011-.051c-2.221-1.44-3.72-1.603-4.586-.502m-6.796-5.051a.053.053 0 0 0-.042.06c.022.127.072.251.12.372.071.176.138.343.123.513a.052.052 0 0 0 .047.056.053.053 0 0 0 .057-.047c.018-.195-.057-.38-.13-.562a1.8 1.8 0 0 1-.115-.35.052.052 0 0 0-.06-.042m-.698 2.577a.05.05 0 0 0-.014.067c.702 1.07 1.29 1.853 1.905 2.543a.048.048 0 0 0 .069.004.049.049 0 0 0 .004-.07c-.612-.685-1.197-1.466-1.897-2.53a.049.049 0 0 0-.067-.014m2.314 3.085a.031.031 0 0 0-.003.044l1.048 1.204.681.776a.031.031 0 0 0 .044.003.03.03 0 0 0 .003-.043l-.683-.777-1.046-1.203a.031.031 0 0 0-.044-.004m1.827 4.204c-.618.288-1.4.368-2.328.24a.058.058 0 0 0-.065.05.057.057 0 0 0 .05.065c.949.131 1.754.047 2.392-.25a.058.058 0 0 0-.049-.105m2.956.637a.028.028 0 0 0 0 .04c.47.487 1.095.934 1.858 1.332a.027.027 0 0 0 .037-.012.028.028 0 0 0-.012-.037c-.758-.395-1.379-.84-1.844-1.322a.028.028 0 0 0-.04 0m3.03.647a.052.052 0 0 0-.024.069c.42.889 1.037 1.66 1.634 2.407l.365.46a.052.052 0 0 0 .072.009.05.05 0 0 0 .009-.072l-.367-.462c-.592-.74-1.206-1.508-1.621-2.386a.052.052 0 0 0-.069-.025m4.812 6.25l-.61.068c-.04.005-.063.04-.059.079.004.039.044.067.084.062l.61-.068c.039-.004.063-.039.058-.078-.004-.039-.044-.067-.083-.063m-3.01-1.188a.063.063 0 0 0 .018.086c.458.298.892.653 1.296.99a.062.062 0 0 0 .088-.009.063.063 0 0 0-.008-.088c-.407-.34-.844-.697-1.308-.998a.064.064 0 0 0-.087.019m-4.61-3.214a.072.072 0 0 0 .013.1c.609.48 1.28.893 1.927 1.293.785.484 1.596.984 2.302 1.604a.07.07 0 0 0 .1-.008.072.072 0 0 0-.007-.1c-.715-.627-1.53-1.13-2.32-1.617-.645-.398-1.312-.81-1.915-1.284a.071.071 0 0 0-.1.012m1.08 1.582a.062.062 0 0 0-.003.089c.803.861 1.522 1.846 2.218 2.799l.07.095a.063.063 0 0 0 .1-.075l-.069-.094c-.698-.956-1.42-1.944-2.228-2.81a.062.062 0 0 0-.088-.004m-1.025-.773a.04.04 0 0 0 .02.053c.13.059.246.147.356.233l.222.159c.018.013.041.007.054-.01.013-.018.007-.045-.011-.058l-.216-.155a1.887 1.887 0 0 0-.372-.242.04.04 0 0 0-.053.02m-5.026 2.18a.07.07 0 0 0 .055.084l.529.109a.073.073 0 0 0 .086-.056.07.07 0 0 0-.054-.084l-.53-.11a.073.073 0 0 0-.086.056m2.66.887a.058.058 0 0 0 .003.082c.227.215.494.39.753.558.255.166.518.337.738.545a.059.059 0 0 0 .08-.085c-.228-.215-.495-.39-.754-.558-.255-.166-.518-.338-.737-.545a.059.059 0 0 0-.083.003m5.826 2.9l-.295.084c-.257.083-.5.162-.76.06a.039.039 0 0 0-.052.023.04.04 0 0 0 .022.052c.287.112.555.026.815-.058l.287-.083c.021-.006.036-.03.03-.05-.006-.022-.026-.035-.047-.029m-2.864-.5a.025.025 0 0 0 .014.032l.233.09.804.338c.013.006.028 0 .034-.012.005-.014 0-.028-.013-.033l-.806-.339-.233-.09a.025.025 0 0 0-.033.014m-1.277 1.347a.08.08 0 0 0 .071.089c.254.029.514.024.765.02.285-.005.58-.01.86.034a.079.079 0 0 0 .09-.067.08.08 0 0 0-.066-.092 5.018 5.018 0 0 0-.887-.036c-.246.004-.5.008-.744-.019a.08.08 0 0 0-.089.071m12.98 6.667a.084.084 0 0 0-.052.107l.515 1.47a.084.084 0 0 0 .159-.056l-.516-1.47a.084.084 0 0 0-.107-.051m.381-.252a.079.079 0 0 0 .006.113c.846.763 1.754 1.563 2.738 2.215a.08.08 0 0 0 .088-.133c-.975-.647-1.878-1.442-2.72-2.2a.079.079 0 0 0-.112.005m7.549-.344a.071.071 0 0 0-.03.096c.174.32.374.63.568.927l.376.595a.072.072 0 0 0 .099.024.07.07 0 0 0 .022-.097l-.379-.6a13.47 13.47 0 0 1-.56-.916.07.07 0 0 0-.096-.03m1.635.492a.073.073 0 0 0-.005.102l.453.504c.344.385.698.784 1.08 1.149a.072.072 0 0 0 .1-.104 19.238 19.238 0 0 1-1.073-1.141l-.454-.505a.072.072 0 0 0-.101-.005m7.099 1.169a.041.041 0 0 0-.016.056l.564.985c.656 1.098 1.333 2.232 1.222 3.524a.042.042 0 0 0 .083.007c.115-1.319-.57-2.465-1.232-3.574l-.563-.981a.043.043 0 0 0-.058-.017m11.916 4.984c-.008.016.001.036.018.043l.58.26.559.25c.015.007.033 0 .04-.017a.032.032 0 0 0-.018-.042l-.554-.25-.586-.26c-.016-.008-.032 0-.04.016m-11.86-5.129a.052.052 0 0 0 .03.067c3.386 1.218 6.616 2.67 9.635 4.051a.052.052 0 0 0 .042-.093c-3.02-1.383-6.253-2.836-9.643-4.056a.05.05 0 0 0-.065.031m-.413-.189a.063.063 0 0 0 .027.085l.197.108a.06.06 0 0 0 .083-.026.064.064 0 0 0-.026-.086l-.198-.106a.06.06 0 0 0-.083.025m-.752-1.227a.029.029 0 0 0-.012.038c.065.13.153.246.24.358.09.118.184.24.248.377a.028.028 0 0 0 .038.013.028.028 0 0 0 .013-.039 2.146 2.146 0 0 0-.254-.385c-.084-.11-.171-.225-.234-.35a.028.028 0 0 0-.039-.013M19.088 18.311a.055.055 0 0 1-.073.03l.078.034c.029.011.064-.001.076-.03.012-.029 0-.061-.028-.073l-.085-.036a.059.059 0 0 1 .032.075m-2.924-7.662c-.01.013-.006.032.006.043l.033.026.055.038c.014.01.024.002.034-.01.008-.013 0-.035-.014-.044l-.037-.027-.037-.031c-.013-.01-.029-.007-.04.005m15 .245a.07.07 0 0 0-.004.098c.323.357.632.737.931 1.104.395.485.803.987 1.252 1.445a.067.067 0 0 0 .097.001.068.068 0 0 0 .001-.097c-.444-.454-.85-.953-1.243-1.436-.3-.369-.61-.75-.936-1.11a.069.069 0 0 0-.097-.005m8.552 6.73a.073.073 0 0 0 .03.098c.733.395 1.503.773 2.248 1.138l.767.377a.073.073 0 0 0 .098-.033.074.074 0 0 0-.033-.098l-.768-.377a64.254 64.254 0 0 1-2.244-1.135.073.073 0 0 0-.098.03m3.622 1.79a.079.079 0 0 0 .04.105c2.051.888 4.19 1.64 6.258 2.367 1.294.455 2.633.926 3.927 1.423a.079.079 0 0 0 .102-.045.08.08 0 0 0-.046-.103c-1.296-.497-2.636-.968-3.93-1.424-2.066-.726-4.202-1.477-6.248-2.363a.078.078 0 0 0-.103.04m18.893 19.447c-.236-.118-.108.1 0 0m-40.826-9.35l-.072.04c.39.127.894.139 1.385.164.22.253.498.31.69.612.148.23.234.647.367.98.143.358.346.695.367.98.03.43-.194.802-.123 1.225.06.347.382.816.733.898.229.054.66-.054.732-.122.575-.54.003-1.422-.325-1.675-.192-.147-.46-.171-.61-.326-.187-.192-.316-.643-.448-.938-.295-.662-.423-1.184-.652-1.797-.574-.17-1.398.043-2.034-.123zm32.158-11.024c.065.476.52.484.814.735.242.207.423.646.773.449.152-.444-.378-.502-.651-.694-.28-.196-.424-.589-.896-.532v.042zm-7.976-5.635c.029-.454-.264-.79-.692-.653-.219.374.15.743.61.694l.021-.061zm2.848 2.124c-.198-.195-.327-.414-.57-.572-.218-.142-.513-.16-.69-.327-.27-.251-.18-.537-.489-.694-.163-.083-.47-.048-.611-.123l-.02.062-.061-.021c.098.514.341.883.977.857.421.326.74.756 1.342.899l.053-.053zm2.035 1.347c-.235-.486-.788-.652-1.302-.857l-.053.052-.07.029c.403.372.734.816 1.425.898l-.02-.06zm1.424.94c-.134-.275-.384-.431-.732-.491l-.02.06-.061.022c.18.24.402.44.773.49l-.02-.062zm1.018.774h.04c-.067-.15-.128-.306-.203-.448-.192-.012-.288-.12-.53-.083l.021.062-.06.02c.026.382.273.542.732.49zm-10.092-3.51c-.126.37-.502.503-.651.815-.153.324-.187 1.16-.04 1.512.113.275.534.514.69.898.13.315.085.511.286.693.223.002.248-.14.447-.163.675-.079 1.98.821 2.116-.163.053-.384-.271-.781-.529-1.143-.399-.56-.74-.95-1.017-1.47a.567.567 0 0 1-.204.204c.043-.12.206-.12.163-.326-.06-.175-.188-.027-.285-.164l-.06-.047.02-.075c-.252-.238-.667-.311-.855-.612l-.02.06zm-1.018-.9c-.062.499.31.562.692.613l.02-.06.062.02c-.043-.176-.08-.356-.163-.49-.184-.073-.339-.21-.57-.123l.02.062zm-.63-.55l.06.02c-.242-.379-.554-.585-1.057-.816-.177-.082-.348-.139-.489-.246-.142-.108-.231-.276-.366-.367-.137-.092-.38-.088-.529-.163-.196-.1-.383-.337-.61-.45-.27-.133-.593-.142-.814-.285-.186-.12-.286-.371-.489-.49-.233-.137-.432-.119-.691-.204-.12-.196-.088-.563-.041-.817.067-.177.323-.165.285-.449-.561-.144-1.51.024-1.465.653.04.568.695.573 1.058.817.243.163.315.424.529.531.188.093.396.032.651.122.302.107.523.418.814.572.165.088.369.116.529.204.165.091.283.235.447.326.237.132.512.164.733.286.438.242.914.76 1.465.817zm23.622 27.049c-.104.032-.187-.16-.244-.04.121 0 .138.106.244.122zM33.91 29.674c-.23.011-.512.152-.407.367.26.151.455-.114.529-.285l-.07-.029zm3.947-.939c.054.219.215.33.326.49l.047-.061.075.02c-.01-.119.076-.141.122-.204l-.061-.02.02-.062c-.115-.075-.268-.112-.407-.163l-.06.021zm-.448-.204c.088.088.238.115.366.163l.054-.053.069-.028c-.08-.139-.157-.279-.285-.368l-.047.061-.075-.02c.003.07-.01.127-.04.163l.02.062zm-4.557-1.797c.108 0 .232.016.285-.04l-.02-.062.02-.06a.406.406 0 0 0-.245-.123l-.02.06-.061-.02v.164l.061.02zm-6.145-.53c-.003-.072.01-.127.04-.164l-.06-.02.02-.061c-.08-.056-.232-.04-.326-.082l.015.073-.055.05c.064.099.145.18.245.244l.046-.06zm12.493 3.143a1.192 1.192 0 0 0 .366.45l.048-.062.074.02c-.006-.1.064-.126.082-.203l-.02-.062.06-.02c-.136-.08-.3-.134-.488-.164l-.05.057zm-.53-.612v.163c-.04 0-.047.033-.08.04l.02.062-.061.02c.149.096.337.152.53.205l-.015-.073.054-.049c-.062-.183-.22-.269-.325-.409l-.047.062zm-6.022-7.39c.058.357-.385.213-.407.49.032.186.254.181.407.245.166.214.281.48.448.694.614-.262.728.357 1.017.653l.048-.06.074.02c.007-.049-.006-.117.041-.123l-.02-.062.02-.06c-.064-.217-.378-.325-.244-.613-.105-.154-.241-.1-.326-.286-.118-.26.076-.683-.122-.857-.185-.086-.647.11-.814-.082l-.047.061zm-11.516-9.8c.142.093.392.19.57.123-.027-.3-.282-.37-.407-.571-.063.114-.055.298-.204.326l.02.061zm-1.058-.366a.846.846 0 0 0 .366.366l.041-.02.04.02c.044-.038.013-.15.123-.122l-.02-.075.06-.047c-.174-.097-.372-.171-.57-.246l.015.073zm-6.226-3.553c.045-.399-.036-.67-.244-.817l-.02.062-.062-.021c-.148.35.107.584.245.776l.04-.02zm31.11 16.72l-.06.02c-.093.493-.944.155-1.262.041-.559-.2-1.186-.407-.896-1.143l-.06-.02.02-.062c-.084-.27-.239-.468-.407-.653-.854.04-1.527-.906-1.1-1.593.379.097.765.187 1.06.368-.071.39-.044.698.243.695.3-.005.167-.303.407-.45.626.14 1.777.622 2.442.898.276.115.598.193.813.327.153.094.319.367.57.53.19.124.45.165.529.286a.773.773 0 0 1 .082.409c-.036.261-1.574.614-1.872.571-.256-.036-.301-.227-.53-.285zm-7.63-6.227c.339.116.773.31 1.058.409.146.05.32.026.448.081.238.104.684.47.61.817-.06.276-.607.44-.936.449-.268.007-.474-.13-.773-.245-.591-.229-1.278-.494-1.79-.653l.02.075-.061.047c.636.356 1.441.54 2.116.857-.008.292-.179.42-.366.531-.835-.102-1.377-.496-2.035-.775l-.053.053-.069.028c.158.22-.19.23-.366.245l.02.075-.061.048c.102.17.273.27.447.367.853-.19 1.255.56 2.076.286.296.277.7.656.651 1.143h.04v.041h.163c.396.515 2.137.726 2.645 1.388.168.217.243.567.163.735-.15.318-.945.82-1.22.45l-.053.052-.07.029c.08.112.08.174 0 .286l.056.05-.014.072c.114-.02.172-.098.284-.122.507.267.837.711 1.384.94l.02-.062.061.02c-.006-.24.174-.31.285-.53.164-.325.149-.575.407-.613.245-.036.531.266.814.367.332.12.66.1.895.286.27-.188.606-.116.976-.163.23-.03.45-.12.61-.082.575.137.556 1.283 1.425 1.184a.563.563 0 0 0 .489-.53c.03-.4-.326-.526-.204-.98.125-.466 1.289-.394 1.22-1.062-.037-.374-.502-.427-.894-.531-.275-.418-.804-.581-1.465-.612.017-.078.116-.074.081-.204-.228-.028.025.171-.163.163-1.314-.507-3.038-1.245-4.517-1.674-.655-.19-.897-.233-1.343-.613-.369-.314-.617-.46-.528-1.02-.107-.413-.61-.501-.815-.735-.156-.18-.107-.473-.366-.572-.421.09-.795.244-1.261.081l.02.076zm-.691-.163c.158.072.364.097.57.122l-.021-.075.06-.047c-.138-.298-.328-.282-.61-.123l.02.062zM15.19 1.42c.002-.123-.205-.04-.203-.163.055-.861-1.155-1.671-1.67-1.021a.852.852 0 0 0-.121.245c-.17.787.868 1.302 1.71.898.085.063.18.118.284.163l.02-.061zm9.929 9.595c.072.267.137.542.529.49l-.02-.061.06-.021c-.057-.228-.233-.337-.243-.612l-.04.02-.041-.02c-.064.06-.081.164-.245.122l.02.041zm-.895-.653c.053.151.197.211.366.245l-.02-.062.06.02c-.032-.197-.154-.307-.406-.285l.02.04zm-6.592-.694c.442.631 1.046 1.1 1.627 1.592l.02-.061.062.02c-.023-.309.297-.325.488-.204l-.015-.073.056-.05c-.089-.353-.287-.725-.122-1.102l-.041.021-.04-.021c-.416.267-.58-.504-1.059-.571-.46-.065-.436.206-.935.326l.02.075zm-4.68-4.86c-.182-.57.264-.9.203-1.428-.042-.369-.451-.823-.855-.817-.511.008-.753.575-.569 1.102.18.514.992.616 1.098 1.144l.062-.02zM12.26 7.3c-.39-.498-.605-1.442.163-1.551.386.049.58.288.895.408.039.111.066.234.122.327l.04.02.041.02c.054-.107.134-.125.245-.081l.052-.053.07-.03c-.217-.244-.62-.301-.692-.693l-.061.02-.02-.06c-.047.008-.064.045-.082.081-.445-.039-1.253-.668-1.546-.122-.326.605.566 1.505.692 1.837l.032-.067zm2.32 3.144c.017-.33-.263-.363-.244-.694l-.04.021-.042-.02c-.058.009-.069.066-.122.08l-.02.062-.062.02c.196.158.174.534.489.572l-.02-.061zm1.75 4.287c.135.001.27 0 .244-.163-.031-.152-.263-.057-.285.04l.06.049zm3.295 3.022c-.275-.173-.042-.59-.162-.94-.181-.524-1.022-.62-1.058 0-.038.648.773.744 1.098 1.021l.053-.053zm4.599 3.184c-.086-.158-.272-.217-.407-.326l-.029.07-.053.053c.032.178-.11.318 0 .449.228.037.213-.168.448-.123l-.02-.075zm-3.54-1.551c-.02-.32-.203-.477-.53-.49l.02.061-.06.02c.035.278.198.428.488.45l.02-.061zm-6.023 1.307c-3.052-.878-7.019-.788-10.5-1.307-.522-.078-1.097-.111-1.383-.326-.244-.185-.348-.55-.57-.777-.064-.066-.187-.16-.284-.245-.33-.284-1.431-.87-1.831-.204-.195.325-.043.92.122 1.144.519.703 1.43.56 2.523.653.456.039.925.156 1.424.204.495.048 1.014.049 1.546.082 3.003.187 6.559.384 8.912.898l-.02-.075zm2.645.98c-.026-.324.224-.614.081-.94-.265-.604-1.164-.106-1.75-.245-.158-.037-.406-.3-.691-.49A205.766 205.766 0 0 0 9.9 16.731c-1.018-.64-2.125-1.322-3.174-1.837-.21-.103-.366-.222-.57-.327-.686-.352-1.742-1.024-2.604-.98-.913.047-1.61.66-1.547 1.715.2.438.501.635.936.571.346-.05.703-.506.855-.775.2-.356.29-.917.57-.98.257-.058.927.36 1.26.53 2.479 1.26 4.65 2.648 6.878 4.043.52.325 1.215.58 1.384 1.143h.448c.155.22 1.523.763.772.94l.02.074-.06.048c.195.051.239.133.244.245.013.266-.464.189-.407.49.26.24.507-.084.814-.123.473-.061.982.188 1.465.205l.048-.062zm6.267 1.265v-.081c.268-.378 1.369-.349 2.034-.409.422-.037.598.08.814.245l-.02-.06.061-.021v-.164c.042-.04.082-.08.123-.123l-.062-.047.02-.075c-.477.057-.787-.053-1.017-.245l-.06.021-.062-.02c.152.424-.33.315-.895.366-.64.06-1.282.246-1.547-.122l-.047.062-.075-.021v.123c-.139.253-.485.217-.773.245-.292.027-.612.043-.936.08-.901.107-1.853.453-2.36 0l-.048.063-.074-.021c-.042.578-.802.279-1.302.327-.115.141-.41.095-.448.245-.87-.055-1.89.347-3.011.326-.611-.011-1.113-.212-1.628-.163-.956.091-1.446.697-1.913 1.265.463.09.921.347 1.425.368 1.052.044 1.899-.76 2.93-1.02a19.417 19.417 0 0 1 2.441-.45c.14-.016.313.026.448 0 .241-.045.47-.18.732-.245.39-.095.967-.286 1.262-.04.096-.082.22-.198.366-.245.343-.112.937-.124 1.506-.204.753-.107 1.666-.365 1.993.081l.048-.061zm-1.587 1.756c-.139-.273-.383-.353-.774-.286v.04h-.04c.202.136.436.542.773.286v-.04zm-3.012.612c-.002-.024-.006-.048-.04-.04.017-.276-.025-.493-.122-.654-.382-.23-.657.03-.896.205-.246.18-.547.325-.732.53.373.226 1.29.117 1.79.082l-.02-.062zm13.347 8.248c.335 1.148.788 2.384 1.14 3.593.121.415.343.916.326 1.265-.01.207-.216.531-.245.817-.08.809.427 1.867 1.221 1.511.759-.34.3-1.613-.08-2-.197-.2-.445-.283-.57-.49-.179-.293-.264-.774-.408-1.184-.418-1.2-.842-2.533-1.26-3.553l-.048.061zm.041-1.756c-.106-.254-.573-.403-.813-.816-.092-.157-.12-.397-.204-.613-.118-.305-.332-.592-.04-.694l-.02-.075.06-.047c-.573-.093-.575-.757-.814-1.185l-.047.061-.075-.02c.017.14-.012.233-.163.205l-.04.02-.041-.02c-.074.77.969.631.773 1.387-.32.036-.506-.292-.692-.53-.168-.215-.323-.477-.529-.694-.185-.196-1.013-.718-1.057-.98-.051-.3.28-.699.65-.368v-.04h.041c.023-.169.166-.215.366-.205.105.19.29.057.285.368-.053.1-.151-.045-.162.04v.041h-.041c.036.073.15.068.163.164l.04-.02.04.02c.227.046.18.363.327.49l.047-.061.075.02c-.006-.1-.006-.197.04-.245l-.06-.02.02-.062c-.027-.054-.087-.076-.163-.081-.023-.237-.202-.315-.163-.613.077-.086.2-.126.326-.163l-.02-.062.02-.06c-.15-.081-.35-.113-.53-.164-.104-.1-.149-.258-.244-.367l-.047.06-.074-.02a.268.268 0 0 1-.041.205h.04v.04c.332.485-.732.316-1.058.286-.154-.158-.38-.244-.57-.367l-.02.061-.06-.02c-.36.262-.756-.102-.978-.245l-.047.06-.075-.02c-.036.566-1.124.34-1.668.286-.757-.075-1.396-.18-1.79-.285l.02.074-.061.048c.352.2.928.251 1.383.327.451.074.918.146 1.343.245.87.2 1.616.255 2.28.898.272.265.47.575.731.857.522.56 1.05 1.02 1.628 1.552.298.274.648.46.814.775.163.307.185.662.366.94l.048-.062.075.021c-.005-.181.073-.28.284-.245l.053-.053zm6.308.858c.178.698.605 1.344.447 2.246-.36.208-.68.48-1.14.49-.531.01-1.087-.344-1.586-.613-.524-.284-1.005-.587-1.384-.817l.015.073-.055.05c.334.374.905.69 1.465 1.02.545.323 1.118.659 1.709.776.78.155 1.276-.22 1.343-.857.088-.843-.402-1.824-.692-2.41l-.047.062zm2.035.408c.12.505.726.956.732 1.47.003.234-.216.492-.244.735-.064.569.228 1.196.65 1.347.548.196 1.067-.185 1.14-.53.087-.406-.099-.956-.406-1.225-.202-.178-.536-.188-.774-.368-.224-.17-.334-.52-.488-.776a6.455 6.455 0 0 0-.529-.776l-.029.07zm9.604 4.532c-.092.167-.293.39-.57.408-.475.032-.844-.435-1.18-.613-.507-.266-1.057-.428-1.587-.734-1.438-.83-2.954-2.066-3.948-3.103l-.028.07-.053.052c.947 1.196 2.822 2.592 4.232 3.593.524.373 1.094.813 1.668.94.672.149 1.574.145 1.547-.572l-.062.02zm7.894-.53c.727.386 1.349.878 2.279 1.06l-.02-.04.02-.04c-.586-.53-1.457-.772-2.238-1.103l.014.072zm-9.848-4.124c.025.11.08.19.163.245l.02-.062.061.02a.193.193 0 0 1 .04-.122l-.02-.06.02-.062c-.075-.033-.148-.069-.243-.082l.014.073zm-.488-.654v.082c-.063.059-.16.085-.244.122l.02.062-.061.02c.16.152.382.243.651.286l-.02-.075.06-.048c-.103-.182-.207-.363-.366-.49v.041zm-11.639-3.756c-.065.07-.17.101-.325.082-.299-.397.326-.551.325-.082m-7.752-6.404l-.02.075c1-.375 1.06.67 1.587 1.062.01.008.08.04.081.04.512.242 1.21.412 1.75.736.462.276 1.24.642 1.14 1.306-.645-.083-1.514.128-2.198 0-.393-.073-.594-.419-.895-.45l.02.063-.06.02c.046.048.045.144.04.244-.214.258-.814-.196-.855-.285-.05-.11-.061-.274.041-.368.14-.017.123.123.203.163h.041v.042c.048-.048.144-.046.245-.042l-.021-.06.061-.021a1.18 1.18 0 0 0-.488-.572v.041h-.04v.082c-.334.174-.585-.23-.448-.531h.04v-.04h.041c-.244-.465-.872-.757-.855-1.348l-.061-.048.02-.075h-.121c-.19-.15-.353-.327-.326-.694a.208.208 0 0 0 .122-.122c.269.156 1.116.39.895.735zm5.514-3.354c-.453.077-.854-.329-1.302-.531-.37-.168-1.174-.236-.936-.776.446-.001 1.272.342 1.831.612.294.142.677.29.407.695m-7.446-.899c-.033.46-.654.539-.489 1.061.548.332.795-.411 1.343-.366.305.024.485.368.732.612.64.631 1.622 1.273 1.994 2-.248.268-.372.816-.732.858-.257.03-.99-.506-1.262-.653-.484-.264-.95-.424-1.261-.613-.43-.67-1.002-1.639-1.587-2.45-.153-.211-.542-.597-.53-.776.016-.205.316-.396.57-.408.459-.021.91.557 1.222.735m-3.773-2.707l-.052.053v.204c-.427.432-1.227-.873-.57-.898l.053-.052.068-.03c-.144-.155-.04-.448.123-.53.645.142.998.576 1.342 1.02-.068.313-.228.533-.528.613-.214-.072-.228-.343-.407-.45zm27.64 15.276l.02-.075c-.441.12-.97.255-1.547.408-.57.152-1.545.578-1.912.164l-.02.06-.062-.02v.123c-.18.195-.51.212-.814.245-.318.034-.712.105-1.017.082-.432-.033-.778-.312-1.099-.367l.02.06-.06.02c.17.475-.857.242-1.343.205-.515-.04-1.254-.016-1.546-.123-.296-.107-.415-.448-.57-.53l-.048.061-.075-.02v.163c-.48.335-1.019-.157-1.22-.49l-.048.061-.075-.02v.163c-.18.223-.48-.026-.813 0-.523-.36-.893-.896-1.262-1.47-.233-.361-.594-.73-.488-.98h.04l-.02-.04-.02-.041c-.472-.126-.626-.476-.814-.899-.132-.296-.35-.596-.325-.857l-.062-.02.02-.062c-.343.096-.698-.148-.65-.367.077-.358 1.1-.065.854.286l.062.02-.02.061c.652.149.923.679 1.342 1.062l.047-.061.075.02v-.04c.022-.172.245-.207.366-.164l.048-.062.074.022c.209-.553.862-.66.855-1.43l-.061-.02.02-.062c-.251-.077-.554-.325-.814-.367-.612-.1-1.445.272-1.668-.163l-.061.02-.062-.02c.025.16-.09.18-.203.204l-.047.06-.075-.02c.034.116-.057.106-.04.205-.383.092-.935.015-1.384.04-.476-.445-.761-.998-1.14-1.55-.19-.279-.406-.52-.529-.817-.139-.339-.138-.737-.325-1.062-.285-.495-.872-.5-1.303-.817-.302-.222-.302-.6-.69-.612.085-.331-.516-.42-.53-.735-.01-.213.214-.257.488-.49.194-.165.306-.419.448-.49.256-.13.388.176.53.245l.027-.07.053-.052v-.123c.155-.188.34-.013.529-.041.223-.031.435-.25.611-.245.169.006.17.12.366.204l.047-.061.075.02c-.011-.093.01-.153.081-.163-.012-.096-.193-.024-.163-.164.032-.008.048-.033.041-.08.157.148.65.155.53.448a.186.186 0 0 1-.123-.04l-.04.02-.041-.02c.012.107-.056.134-.163.122l-.047.061-.075-.02c-.084 1.458 1.1 1.646 1.75 2.368.032.236-.059.349-.04.572.011.083.11.08.121.163.232.093.391-.159.61-.163.204-.004.157.09.245.122.108.04.26.01.325.04.329.152.657.454 1.018.654.19.105.38.188.57.286.909.473 1.839 1.163 2.645 1.592l.052-.052.07-.029c-.63-.565-1.437-.974-2.117-1.43-.516-.346-.985-.717-1.546-1.02-.217-.118-.444-.236-.651-.367-.205-.132-.365-.325-.57-.45-.407-.249-.95-.334-1.18-.816.29-.064.485-.222.651-.409h.122l-.02-.074.061-.048c-.519-.292-.054-.734.366-.327l-.014-.073.055-.05c.101-.21.246-.38.488-.448l-.02-.075.06-.048c-.234-.062-.303-.268-.487-.409-.425-.323-1.128-.484-1.262-.898.072-.324.51.019.773 0 .145.31.186.66.53.695.32.033.43-.22.69-.367.251.007.405.112.693.08l-.02-.074.06-.048c-.263-.183-.605-.12-.936-.204-.141-.036-.258-.171-.406-.204-.144-.032-.298.022-.448 0-.236-.035-.476-.179-.732-.245-.801-.206-1.81-.195-2.157-.816.037-.208.465-.024.406-.327-.088-.174-.272-.048-.406-.123.035-.334-.278-.32-.448-.448-.206-.016-.282.314-.447.203-.061-.332.207-.336.203-.612-.49-.319-.982.014-1.343 0-.162-.047.079-.286-.163-.286-.08-.047-.271.105-.447 0-.518-.476-.517-1.174-.895-1.714-.266-.38-.654-.455-1.14-.695-.378-.186-.632-.488-1.058-.53l.02.06-.06.021c.015.442-.397.611-.733.653-.373.047-.7-.152-1.017-.163-.666-.021-.62.547-1.018.776h-.081l.02.04-.02.041c-.07.224-.197.163-.366.123-.092-.022-.215-.122-.326-.163-.788-.292-1.627-.636-2.075-.98-.16-.357-.318-.716-.855-.695l-.02.062-.061-.02c-.012.318.253.553.122.857-.62-.028-1.476-.063-2.157-.082.013-.262.15-.399.123-.612-.084-.638-1.041-.61-1.1-.04-.028.274.253.476.163.734-.152.102-.394.004-.488-.082v.04h-.041v.083c-.2.195-.582.257-.936.367-.312.098-.645.184-.976.327-.527.226-1.52.641-1.384 1.265.084.383.617.458 1.099.531l-.02-.075.06-.047c-.141-.103-.433-.055-.488-.245-.049-.159-.076-.38 0-.572.1-.25.744-.56 1.262-.776.754-.315 1.548-.595 1.994-.244v-.041h.04v-.123c.224-.25.803-.262 1.303-.286.505-.023 1.144-.036 1.505.082.27.089.4.358.57.45l.047-.062.075.02v-.163c.386-.245.59.274.814.449l.047-.06.075.019c.033-.52.782-.039 1.058.082.604.266 1.025.41 1.506.694.197.117.426.244.61.367.38.255.662.646 1.058.898.43.276.975.278 1.424.49.616.292.957.756 1.465 1.022.09.268.393.26.407.53.021.417-.475.363-.936.409-.274.027-.54.14-.732.122-.288-.026-.58-.31-.774-.449-.3-.217-.554-.373-.732-.49-.102-.698-.19-1.308-.732-1.714-.199-.15-.478-.216-.692-.368-.683-.487-1.396-1.69-2.523-1.185h-.04l.02.062-.061.02c-.178.507.19.953.121 1.348-.18.159-.51.038-.691-.041.155-.612.38-1.255-.081-1.674-.182-.165-.441-.153-.611-.368l-.048.061-.074-.02c-.073.288-.384.425-.488.735-.111.328-.002.708-.163 1.062-.43.022-.798-.016-1.017-.205v.041h-.041c-.159.226-.512.137-.814.164-.774.07-1.854.27-2.035.857-.207.675.407 1.059.774 1.266.337.19.802.487 1.22.204.016-.206-.294-.086-.325-.245-.162-.028-.083-.298-.285-.286-.793.536-1.332-.703-.65-1.184.433-.306 2.48-.587 2.888-.204v-.04h.04c.071-.188.365-.127.692-.083.884.121 2.073.183 2.238.777l.061-.021.062.02c.009-.032 0-.08.04-.082.065-.232.597-.017.733.082.131.096.229.338.366.531.128.18.278.338.407.49.574.676 1.028 1.368 1.506 2.083.254.38.63.708.61 1.102-.424.188-.676-.263-.895-.531-.248-.303-.542-.61-.773-.857l-.061.02-.062-.02v.081c-.381.277-1.008.11-1.057.653-.078.845.878.51 1.546.572.835.077 1.197.648 1.546.939l.04-.02.041.02c.074-.382.532.028.326.286h-.081l.02.04-.02.042c.148.26.47.345.488.734-.025.003-.048.006-.04.041l.06.048-.02.075h.285c.179.226.969 1.087.61 1.388l.02.061-.06.02c.076.12.338.143.488.327.05.063-.008.096.04.205.134.298.628.723.286 1.02-.675.046-1.739.142-2.238-.122v.04h-.041c-.187.173-.439.25-.61.164-.136-.068-.158-.338-.286-.53-.25-.378-.62-.378-.854-.532l-.028.07-.054.053c.066.212.168.71 0 .898-.2.053-.567-.049-.773-.123-.106.047-.097.131-.244.164a.622.622 0 0 1-.366-.04c-.005-.327.213-.515.122-.858-.115-.086-.359-.027-.448.04l.062.021-.021.061c.058.01.069.068.122.082.006.315-.196.563-.447.612-.201.04-.407-.091-.651-.082-.166.007-.316.103-.489.123-.339.039-.668-.03-.977 0l.02.075-.06.048c.764.063 1.52.134 2.157.326.06.172.053.409.203.49l.029-.07.052-.052c.004-.077-.039-.09-.04-.164-.01-.422.377-.413.732-.408.303.005.663-.066 1.017-.04.585.041 1.206.251 1.466.285l.047-.061.075.02v-.04c.066-.325.53-.038.691.04l.02-.061.062.02v-.081c.422-.256 1.294-.063 1.912-.123.177.109.345.227.448.409l.048-.062.074.02c-.044-.49.86-.458 1.017-.163l.02-.061.061.02c.247-.398.708.041.977.123l-.02-.061.061.02v-.082c.01-.03 0-.08.04-.081.015-.036.085-.074.123-.082.145-.027 1.225-.015 1.424 0 .358.027.612.586.448.94-.09.031-.159.085-.286.081l.021.074-.06.048c.64.324 1.233.912 1.26 1.715l.062.02-.062.022c.072.295-.113.633-.325.775h-.163l.02.075-.06.047c.029.125-.042.15-.041.246l.055.049-.014.073c.183-.048.23-.231.447-.245l-.02-.075.06-.048c.133-.467.409-.824.856-.571.272.154.456.642.366 1.02h-.04l.02.062.02.06c.035.062.102.09.203.082.38.26.407.894.489 1.43.107.704.353 1.395 1.058 1.51.569.094.807-.33 1.139-.285l.028-.07.054-.053c-.084-.492-.506-1.192-.204-1.674.563.075.994.282 1.221.695l.047-.062.075.02c.044-.332.616-.252.895-.122.344.16.502.61.651.653l.029-.07.053-.052c.03-.514.8-.221 1.465-.163.419.036.866.084 1.302.08.779-.004 1.377-.162 1.79.124l.02-.062.061.021c.104-.427.667-.394 1.18-.409.01.046.046.064.082.082v-.04h.04c.07-.214.402-.252.692-.328.806-.21 1.716-.493 2.32-.734zm-9.584 4.825h.204c.194-.326-.425-.361-.204 0m9.075-4.002c.036-.12.036-.125 0-.245h-.204c-.032.182.038.261.204.245m-16.278-.122c.104-.145.004-.367-.163-.368a.246.246 0 0 0 .163.368m-9.034-2.205c.07-.455-.791-.66-.692.082.188.27.645.232.692-.082m-8.83-.775c.088.022.333.097.406 0-.09-.033-.101-.144-.162-.205h-.245zm7.528-.082h.162c.012-.107-.014-.176-.122-.164-.012.056-.057.079-.04.164m28.567-2.654c.018-.128-.035-.183-.163-.164-.02.128.035.183.163.164m-31.497-.49c-.012.107.056.134.163.122.01-.106-.015-.175-.122-.163-.003.025-.006.048-.041.041m6.022-.49c.012-.107-.015-.176-.121-.163-.012.106.014.175.121.163m8.627-1.062c.015.173.232.258.326.123.032-.255-.245-.3-.326-.123m.53-.775c-.005.14.082.19.244.163.064-.202-.141-.256-.245-.163m-.895-.368c-.063.256.225.304.326.163.01-.077-.046-.09-.04-.163-.055-.058-.231-.058-.286 0m-.773 0c.071.1.246.096.366.04.141-.403-.471-.445-.366-.04m22.463-2.286c.016.384.456.618.814.408-.025-.36-.51-.462-.814-.409m2.767-.163c-.014-.033-.108-.049-.122 0-.027.095.159.089.122 0m-3.5.245c.12.029.178.122.367.081.415-.474-.686-.783-.367-.08m-36.563-1.75l.061-.048c-.04-.095-.14-.131-.284-.122.002.161.083.243.244.245zm-5.798-1.64c.023.16.302.16.325 0-.045-.148-.31-.25-.325 0m28.24.082c.024-.133-.027-.19-.04-.286-.576-.256-.388.651.04.286m-8.708-.858c-.223.044-.248.378-.04.531a.884.884 0 0 0 .366-.04c.16-.286-.115-.533-.326-.491m-15.666.082c-.005-.104-.06-.158-.163-.163-.11.13.042.245.163.163m16.033-1.021h.081v-.081h-.081zm12.574-.98c-.196.145.03.433.244.286.035-.212-.064-.29-.244-.286m-21.486-2.082c-.014-.033-.108-.05-.122 0-.027.095.159.088.122 0m3.58.163c.055.073.236.127.326.041.11-.347-.4-.385-.325-.041m-.366-.081c.163.014.297-.001.325-.123-.046-.35-.591-.167-.325.122m-.693-.285c.099-.017.089.074.204.04.094-.114.023-.324-.163-.285-.046.048-.045.145-.04.245m2.075-.326h.122v-.082h-.122zm-3.947.08c.114-.006.173-.07.163-.203-.126-.363-.563.152-.163.204m-8.607-.694l-.02.04c-.052.37.324.637.61.409.067-.435-.298-.436-.61-.49zm37.255 12.534c.178.09.309.285.53.368.203.075.432.059.65.122.226.066.481.185.733.286.238.096.52.184.732.286.233.113.413.315.651.408.166.065.359.067.53.123.132.043.284.224.447.123.063.194.284.319.489.408.452.198 1.22.31 1.586.04.345-.253.53-1.322.366-2-.167-.693-.627-.92-1.383-.898-.72.433-.656 1.655-1.424 2.041-.318-.327-.76-.3-1.221-.45-.211-.067-.431-.198-.651-.285-.25-.099-.51-.148-.733-.245-.366-.16-.621-.525-1.18-.408l-.053.052zM42.74 19.221c.093.125-.044.48.163.49.225.143.343-.172.529-.204l-.02-.062-.02-.06a1.814 1.814 0 0 0-.61-.286l.014.073zm-9.4-5.675c.75 1.011 1.615 1.88 2.808 2.45.594.283 1.225.522 1.83.816.591.287 1.138.685 1.751.899l.053-.053.07-.03c-.5-.355-1.122-.59-1.628-.938.003-.26-.053-.472-.204-.572-.226-.149-.516.052-.814 0-.246-.042-.67-.397-.977-.612-.999-.703-2.089-1.23-2.808-2.082l-.028.069zm-2.128-2.601l.053-.053c-.023-.219-.203-.463-.448-.327-.033.306.217.327.366.45zm-6.377-.502c-.016.153.185.21.285.122.026-.208-.206-.24-.285-.122m-8.871-.082c.029-.22-.095-.285-.244-.327-.035.226.08.3.244.327m25.433-.163c.018.122.108.266.448.245.526-.424-.537-.882-.448-.245m-25.962-.654c-.038.244.108.3.244.368.002-.134.069-.203.04-.368-.053-.058-.23-.058-.284 0m14.528.409c.155.02.26-.012.325-.081-.012-.261-.083-.462-.285-.531h-.08c-.035.172-.1.505.04.612m-17.824-.571c.028-.152-.064-.181-.204-.164-.052.18.103.26.204.164m13.388-.328c.013-.107-.057-.133-.162-.122-.034.147.086.203.162.122m-10.418 0c.085.025.117.102.245.082.017-.077.116-.073.081-.204-.063-.178-.392-.154-.326.122m23.358.124c.124.038.164.162.367.122.124-.08.19-.217.203-.409-.249-.232-.717-.154-.57.287m-1.587-.286c.078.125.323.162.489.081.009-.031.001-.08.04-.082.093-.43-.657-.529-.529 0m-18.067-.857c-.24.385.364.824.691.408.161-.542-.504-.708-.691-.408M10.592 9.3c.544.178 1.037-.115 1.058-.613.026-.658-.607-.992-1.262-1.102-.337.233-.448.693-.692 1.02.292.115.536.577.896.695m4.883-2.042c-.044.23.25.26.284.082-.037-.09-.179-.183-.284-.082m16.928-1.02c.108-.001.232.015.285-.041a.192.192 0 0 1 .04-.123c-.095-.296-.598-.11-.325.164m-9.725-1.021h.08v.081h-.08z" fill="currentcolor" fill-rule="evenodd"/></svg>