<svg xmlns="http://www.w3.org/2000/svg" width="244.888" height="171.601" viewBox="0 0 64.793 45.403"><path d="M23.82 26.754a.049.049 0 0 0 .016.066l.741.476.672.435c.021.014.049.007.063-.014a.049.049 0 0 0-.015-.066l-.668-.433-.746-.48a.044.044 0 0 0-.063.016m1.823 1.171a.038.038 0 0 0 .013.053l.148.086c.126.071.257.144.35.238a.039.039 0 0 0 .055 0 .039.039 0 0 0 0-.056 1.625 1.625 0 0 0-.367-.251l-.145-.084a.04.04 0 0 0-.054.014m6.176-8.58c-.008.01-.007.023.003.03l.107.082c.089.065.18.133.243.218a.022.022 0 0 0 .036-.026c-.066-.09-.161-.16-.252-.229l-.106-.08a.023.023 0 0 0-.031.004m-1.72-1.422a.027.027 0 0 0 .004.038l.65.538.764.628a.027.027 0 0 0 .037-.004.028.028 0 0 0-.004-.038l-.762-.627-.652-.538a.026.026 0 0 0-.037.003m-5.452-5.172a.03.03 0 0 0-.002.042c.894 1.023 1.902 1.972 2.878 2.89l.91.86a.03.03 0 0 0 .042 0 .029.029 0 0 0-.001-.043l-.91-.861c-.974-.917-1.982-1.865-2.875-2.885a.03.03 0 0 0-.042-.003m-1.441-4.127c-.984 1.07.14 2.547.68 3.256a.03.03 0 0 0 .042.006.03.03 0 0 0 .006-.043c-.53-.696-1.632-2.145-.683-3.178a.03.03 0 0 0-.002-.043.03.03 0 0 0-.043.002m3.556 1.227a.08.08 0 0 1-.106.043l1.006.438a.083.083 0 0 0 .11-.042.08.08 0 0 0-.041-.107l-1.014-.44a.084.084 0 0 1 .045.108m23.096 27.548a.035.035 0 0 0 .009.048c.098.067.18.16.258.25l.141.152c.013.014.034.013.048 0 .014-.013.013-.036 0-.05l-.137-.148c-.082-.094-.166-.19-.272-.261a.035.035 0 0 0-.047.009m.752-3.15a.078.078 0 0 0 .026.106l.017.01.133.075c.038.021.08.006.102-.031.02-.038.003-.087-.034-.108l-.121-.069-.018-.01a.077.077 0 0 0-.105.027m4.736 1.706a.087.087 0 0 0-.018.122c.375.512.825.975 1.262 1.422l.065.067a.087.087 0 0 0 .124.001.088.088 0 0 0 .001-.123l-.065-.068c-.432-.443-.879-.9-1.247-1.403a.087.087 0 0 0-.122-.018m-2.143.438a.055.055 0 0 0 .003.078c1.202 1.11 2.461 2.22 3.679 3.294l1.774 1.57a.055.055 0 0 0 .079-.005.056.056 0 0 0-.005-.078l-1.775-1.57a217.371 217.371 0 0 1-3.677-3.292.056.056 0 0 0-.078.003m-12.465-3.538a.026.026 0 0 1-.036-.005c.085.108.192.192.295.274l.162.134a.028.028 0 0 0 .038-.002.025.025 0 0 0-.003-.036l-.165-.137a1.604 1.604 0 0 1-.286-.265.026.026 0 0 1-.005.037m5.052 1.139c-.008.015 0 .026.017.034.016.008.039-.007.047-.023l.045-.089c-.008.016-.025.019-.041.01-.016-.007-.02-.03-.012-.047zm-.608-.63a.043.043 0 0 0 .006.06c.098.082.21.137.32.189.103.05.2.098.286.167a.044.044 0 0 0 .055-.069c-.093-.075-.2-.127-.304-.177-.109-.053-.21-.102-.301-.177a.043.043 0 0 0-.062.006m1.219-.365a.047.047 0 0 0-.012.065c1.13 1.621 2.11 2.855 3.085 3.881a.046.046 0 0 0 .066.002.047.047 0 0 0 .001-.067c-.97-1.023-1.947-2.252-3.075-3.87a.047.047 0 0 0-.065-.01m-2.72-4.059a.048.048 0 0 0-.023.064c.315.669.767 1.301 1.166 1.832a.048.048 0 0 0 .077-.057c-.397-.528-.845-1.155-1.156-1.816a.048.048 0 0 0-.064-.023m.004-.048a.045.045 0 0 0 .026.058c.334.127.626.369.91.602.182.15.37.306.571.432a.045.045 0 1 0 .048-.076 5.524 5.524 0 0 1-.563-.426c-.288-.237-.587-.483-.935-.616a.044.044 0 0 0-.057.026m-.62-.725a.065.065 0 0 0-.026.088c.069.127.171.221.27.313.098.09.19.176.249.287a.064.064 0 0 0 .087.027.064.064 0 0 0 .026-.088 1.22 1.22 0 0 0-.275-.32c-.095-.09-.185-.173-.244-.281a.065.065 0 0 0-.087-.026m2.973-1.252a.04.04 0 0 0 .019.054c.08.038.15.099.223.163.13.114.266.232.465.221a.042.042 0 0 0 .04-.043.042.042 0 0 0-.044-.039c-.166.008-.283-.094-.407-.202-.075-.064-.152-.132-.242-.174a.04.04 0 0 0-.054.02m.765.752v.152a.054.054 0 1 0 .107 0v-.152a.054.054 0 0 0-.053-.054.054.054 0 0 0-.054.054m-7.31-.82c-.336.094-.615.181-.876.363a.062.062 0 0 0 .071.103c.245-.171.514-.254.84-.346a.063.063 0 0 0 .043-.077.062.062 0 0 0-.077-.043m7.32.817a.044.044 0 0 0 .04.047c.125.007.21.086.299.17a.707.707 0 0 0 .271.183.043.043 0 0 0 .055-.03.044.044 0 0 0-.029-.055c-.093-.028-.163-.094-.237-.163-.097-.09-.197-.184-.353-.194a.044.044 0 0 0-.047.042m-.096-.431c-.043.014-.065.066-.05.11l.09.275.02.073a.083.083 0 0 0 .103.056.085.085 0 0 0 .056-.104l-.02-.072-.096-.289c-.014-.044-.06-.063-.103-.049m-4.712.205c-.014.017-.01.044.006.059l.314.268c.225.206.456.42.76.497a.039.039 0 0 0 .05-.028.04.04 0 0 0-.03-.049c-.285-.073-.508-.28-.726-.479l-.32-.274c-.017-.014-.04-.01-.054.006m-2.031-.253a.08.08 0 0 0-.05.102l.033.1a.08.08 0 0 0 .1.052.08.08 0 0 0 .051-.102l-.034-.1a.08.08 0 0 0-.1-.052m3.044.786v.253a.078.078 0 1 0 .155 0v-.253a.078.078 0 0 0-.155 0m-.905-.642a.074.074 0 0 0 .055.09l.087.02.15.042c.04.011.095-.007.106-.047.012-.04.002-.076-.037-.088l-.188-.055-.08-.019a.077.077 0 0 0-.093.057m5.276-1.158a.081.081 0 0 0-.047.107l.086.206a.086.086 0 0 1 .045-.11.082.082 0 0 1 .108.043l-.082-.198a.086.086 0 0 0-.11-.048M40.58 23.16a.049.049 0 0 0-.031.063c.322.963.827 1.885 1.316 2.778l.655 1.23a.05.05 0 0 0 .067.021.049.049 0 0 0 .022-.065l-.658-1.234c-.487-.888-.99-1.807-1.31-2.762a.05.05 0 0 0-.061-.03m-.017.043a.032.032 0 0 0 .03.036c.197.014.327.164.464.322.118.136.24.277.411.334a.032.032 0 0 0 .042-.02.033.033 0 0 0-.02-.042c-.156-.052-.272-.185-.384-.315-.14-.16-.285-.328-.508-.345a.033.033 0 0 0-.036.03m-.453-.757a.059.059 0 0 0-.02.081l.303.478.153.233a.06.06 0 0 0 .083.018.06.06 0 0 0 .017-.083l-.152-.234-.3-.473a.061.061 0 0 0-.084-.02m3.472 2.36a.027.027 0 0 0-.002.04c.28.308.61.562.929.807.276.213.562.433.813.688a.028.028 0 0 0 .04 0 .03.03 0 0 0 0-.04c-.255-.256-.543-.477-.82-.69-.317-.245-.645-.498-.921-.802a.027.027 0 0 0-.04-.002m-1.418-1a.025.025 0 0 0 .018.03.596.596 0 0 1 .223.134l.176.119c.012.007.023.002.031-.01.008-.01.001-.028-.01-.036l-.166-.112a.63.63 0 0 0-.243-.142.025.025 0 0 0-.03.018m-.641-4.743a.074.074 0 0 0 .025.1l.27.168c.14.093.286.19.444.257a.071.071 0 0 0 .055-.13c-.145-.063-.28-.152-.422-.246l-.278-.173c-.033-.021-.074-.01-.094.024m1.143.844a.06.06 0 0 0-.028.08l.073.147.078.156c.015.03.053.046.084.03.03-.015.043-.049.028-.079l-.081-.165-.07-.14a.063.063 0 0 0-.084-.029m.568 1.472a.053.053 0 0 0-.036.067c.072.254.166.497.257.73l.173.463a.054.054 0 0 0 .069.032.053.053 0 0 0 .031-.067l-.174-.467c-.094-.242-.183-.47-.254-.721a.054.054 0 0 0-.066-.037m3.435 5.586a.345.345 0 0 0-.015.219l.005.098c.002.049.04.115.089.113.049-.001.084-.014.084-.063v-.18c-.01-.05-.014-.083-.001-.11a.09.09 0 0 0-.043-.12.089.089 0 0 0-.12.043m-3.935-1.856a.082.082 0 0 0 .007.115c.358.318.682.685.996 1.04l.677.736a.079.079 0 0 0 .113.003.085.085 0 0 0 .003-.119l-.67-.73c-.318-.358-.646-.728-1.01-1.053a.082.082 0 0 0-.116.008m-1.55-2.018a.032.032 0 0 0-.016.042.032.032 0 0 0 .042.016c.088-.042.16.004.244.057l.09.052c.016.009.033.003.042-.013.009-.015.001-.036-.014-.045l-.083-.048c-.087-.055-.186-.118-.306-.062m-1.287-1.472a.062.062 0 0 0 .007.089c.23.196.405.438.59.695.194.268.395.547.665.766a.062.062 0 0 0 .078-.097c-.256-.209-.453-.48-.642-.743-.182-.25-.37-.51-.61-.717a.062.062 0 0 0-.088.007m1.279 1.44a.066.066 0 0 0-.04.083c.049.137.134.329.318.425a.065.065 0 0 0 .088-.028.066.066 0 0 0-.027-.088c-.11-.058-.19-.167-.256-.353a.065.065 0 0 0-.083-.04m.539-5.84a.063.063 0 0 0-.04.08l.352.98c.14.376.286.764.405 1.147a.065.065 0 0 0 .08.042.065.065 0 0 0 .043-.08c-.12-.387-.265-.777-.407-1.154l-.35-.975a.065.065 0 0 0-.083-.04m-25.939-4.503a.07.07 0 0 0-.012.097c.153.198.334.379.509.554.207.206.42.42.582.658a.07.07 0 1 0 .114-.078c-.17-.25-.388-.468-.599-.679-.172-.171-.35-.349-.497-.54a.069.069 0 0 0-.097-.012m-3.453-.392a.075.075 0 0 0 .021.103c.458.307.961.58 1.448.846.43.233.876.475 1.29.74a.074.074 0 1 0 .08-.126c-.418-.268-.866-.51-1.299-.746-.484-.263-.984-.535-1.436-.838a.074.074 0 0 0-.104.021m-2.064-.671a.059.059 0 0 0-.031.077.058.058 0 0 0 .077.03c.12-.052.254-.004.384.043l.028.01a.059.059 0 0 0 .074-.036.06.06 0 0 0-.036-.075l-.027-.01c-.144-.051-.307-.109-.47-.039m45.312 24.171a.034.034 0 0 0 .004.047 13.802 13.802 0 0 1 2.418 2.527.033.033 0 0 0 .046.006.032.032 0 0 0 .007-.046 13.873 13.873 0 0 0-2.429-2.539.033.033 0 0 0-.046.005M5.649 1.728a.062.062 0 0 0-.017.086c1.623 2.432 3.722 4.562 5.752 6.623l.819.832a.061.061 0 0 0 .087.001.061.061 0 0 0 0-.087l-.819-.833c-2.025-2.056-4.12-4.183-5.737-6.604a.061.061 0 0 0-.085-.018M.009 4.23a.078.078 0 0 0 .038.103c1.927.884 3.903 1.725 5.813 2.539 2.025.862 4.12 1.753 6.152 2.695a.077.077 0 0 0 .103-.038.076.076 0 0 0-.038-.103c-2.035-.943-4.13-1.835-6.156-2.698-1.91-.812-3.884-1.653-5.81-2.537a.078.078 0 0 0-.102.039m12.767 5.558c-.031.037-.038.081-.001.112l.17.146c.058.04.113.08.149.132a.088.088 0 0 0 .144-.1.725.725 0 0 0-.193-.176l-.135-.114c-.037-.03-.103-.037-.134 0m.996.909a.064.064 0 0 0-.01.09c.161.197.345.378.522.554l.44.46c.024.025.066.028.09.004.025-.024.029-.062.004-.087l-.446-.467c-.174-.173-.355-.352-.511-.545a.064.064 0 0 0-.089-.01m-6.57.593c-.977.94-.256 2.252.324 3.307l.335.637c.018.033.06.048.091.03a.066.066 0 0 0 .03-.088l-.34-.643c-.586-1.068-1.25-2.279-.348-3.147a.066.066 0 0 0 .002-.094.066.066 0 0 0-.094-.002m.924 4.223a.056.056 0 0 0-.016.078c1.83 2.76 4.801 4.36 7.445 5.643a.056.056 0 0 0 .075-.027.056.056 0 0 0-.026-.076c-2.629-1.276-5.586-2.867-7.4-5.603a.056.056 0 0 0-.078-.016m9.648 7.677a.075.075 0 0 0-.044.097c.113.297.305.548.49.79.118.154.24.313.338.481a.075.075 0 1 0 .13-.077 5.004 5.004 0 0 0-.349-.496c-.187-.244-.364-.475-.468-.751a.075.075 0 0 0-.097-.044m18.288 5.525a.024.024 0 0 0-.002.033c.443.478.97.956 1.568 1.42a.023.023 0 0 0 .033-.003.024.024 0 0 0-.004-.034 12.959 12.959 0 0 1-1.563-1.415.023.023 0 0 0-.032-.001m-.82 2.122c-.003.043.016.078.059.081l.272.02c.083-.003.16-.005.233.014a.078.078 0 0 0 .039-.152c-.094-.024-.186-.02-.276-.02l-.23-.014c-.043-.002-.093.028-.096.07m-6.1-1.225a.075.075 0 0 0 .036.1c1.508.72 3.243.915 4.92 1.104l.153.017a.075.075 0 0 0 .082-.066.076.076 0 0 0-.066-.083l-.152-.017c-1.665-.187-3.387-.38-4.873-1.09a.075.075 0 0 0-.1.035m-2.191-.889a.039.039 0 0 0 .028.048c.136.034.26.107.392.184.132.078.267.158.416.196a.04.04 0 0 0 .019-.077c-.138-.035-.269-.112-.395-.186a1.616 1.616 0 0 0-.413-.194.04.04 0 0 0-.047.03m23.638 9.352a.04.04 0 0 0 0 .057c.81.809 1.848 1.586 3.088 2.311a.04.04 0 0 0 .055-.014.04.04 0 0 0-.014-.056c-1.234-.721-2.267-1.495-3.072-2.299a.04.04 0 0 0-.057 0m-1.217-8.23a.044.044 0 0 0 .005.062c.523.431.937.83 1.232 1.184a.044.044 0 0 0 .062.006.045.045 0 0 0 .006-.063c-.298-.358-.716-.76-1.244-1.196a.044.044 0 0 0-.061.006M32.63 4.147a.056.056 0 0 0 .01.077c4.423 3.455 7.766 6.9 10.521 10.842 1.669 2.387 3.95 5.973 4.493 9.541.11.721.135 1.288.081 1.838a.055.055 0 0 0 .05.06.055.055 0 0 0 .06-.05c.055-.559.03-1.134-.082-1.865-.547-3.59-2.837-7.192-4.512-9.587C40.49 11.05 37.14 7.598 32.708 4.137a.055.055 0 0 0-.077.01m-2.87-2.858a.219.219 0 0 0 .03.205.031.031 0 0 0 .044.008.032.032 0 0 0 .008-.045.157.157 0 0 1-.021-.15.032.032 0 0 0-.022-.04.031.031 0 0 0-.039.022M42.97 19.953a.028.028 0 0 0 .013.037.9.9 0 0 1 .196.148.028.028 0 0 0 .038-.001.028.028 0 0 0 0-.04 1.002 1.002 0 0 0-.21-.156.028.028 0 0 0-.036.012M32.459 6.088a.041.041 0 0 0 .01.057c2.29 1.545 4.283 3.196 6.094 5.045a.04.04 0 0 0 .057 0 .041.041 0 0 0 .001-.057c-1.814-1.854-3.811-3.507-6.106-5.056a.04.04 0 0 0-.056.01m-2.783-2.23a.03.03 0 0 0-.011.04c.4.702 1.095 1.155 1.766 1.593l.213.139a.029.029 0 0 0 .04-.008c.009-.014.006-.033-.008-.041l-.213-.14c-.665-.433-1.354-.883-1.747-1.573a.029.029 0 0 0-.04-.01M40.623 14.57a.082.082 0 0 0-.044.108l.076.179c.062.141.12.275.156.418a.082.082 0 0 0 .1.06.084.084 0 0 0 .06-.1 2.794 2.794 0 0 0-.165-.445l-.074-.174a.084.084 0 0 0-.11-.046m-.38 4.156c-.005.043.017.08.06.084l.185.017.03.001a.078.078 0 0 0 .006-.156l-.032-.001-.155-.014c-.043-.004-.09.026-.095.069m-.345-.04c-.353.104-.588.291-.7.556-.267.632.213 1.549.564 2.217l.12.234a.067.067 0 0 0 .09.029.067.067 0 0 0 .029-.09l-.122-.235c-.319-.609-.8-1.529-.558-2.103.097-.23.298-.387.614-.48a.067.067 0 0 0-.037-.128m-.005 2.963c-.054.184.023.338.097.489.059.12.114.233.103.356a.052.052 0 0 0 .046.056.052.052 0 0 0 .056-.047c.014-.151-.05-.283-.114-.41-.068-.139-.132-.27-.09-.416a.051.051 0 0 0-.035-.063.05.05 0 0 0-.063.035m-6.555-5.802a.022.022 0 0 0 0 .03 457.508 457.508 0 0 0 4.832 4.844l1.743 1.73c.014.008.123.038.123.038l.105.032c.011.003.02-.004.024-.016V22.5c0-.01-.008-.02-.018-.023l-.095-.029-.122-.034c0-.007-1.729-1.724-1.729-1.724a447.485 447.485 0 0 1-4.832-4.843.022.022 0 0 0-.032 0m7.876 11.174c-.01.037.007.075.044.086l.21.064c.12.032.232.063.336.118a.07.07 0 1 0 .065-.124 1.77 1.77 0 0 0-.364-.13l-.2-.06c-.038-.011-.08.008-.09.046m-.39-.464a.033.033 0 0 0 .007.047.56.56 0 0 1 .143.143.034.034 0 0 0 .046.01.033.033 0 0 0 .01-.046.607.607 0 0 0-.16-.161.032.032 0 0 0-.046.007m-.718.283a.067.067 0 1 0 .025.132c.158-.03.318-.005.489.02.142.02.29.042.437.032a.067.067 0 0 0-.009-.135c-.134.01-.267-.01-.41-.03-.172-.026-.352-.052-.532-.02m-1.02-1.62a.027.027 0 0 0 .008.037c.263.178.514.381.756.577l.556.436a.026.026 0 0 0 .036-.005c.01-.012.007-.029-.005-.038l-.554-.434c-.243-.197-.494-.4-.76-.58a.027.027 0 0 0-.036.007m-9.464-8.76a.076.076 0 0 0 .002.107c1.368 1.333 2.813 2.627 4.212 3.878.919.823 1.869 1.673 2.786 2.526a.076.076 0 1 0 .104-.112 203.66 203.66 0 0 0-2.79-2.527c-1.397-1.25-2.84-2.544-4.207-3.875a.075.075 0 0 0-.107.002m5.323 5.415a.029.029 0 0 0 .006.04l.744.589c.28.231.568.47.872.678a.028.028 0 0 0 .04-.007.028.028 0 0 0-.008-.04c-.302-.206-.59-.444-.868-.674l-.747-.591a.028.028 0 0 0-.039.005m2.629 1.936c-.038.032-.04.092-.006.13l.364.414.496.55c.034.037.088.037.125.004.037-.034.036-.095.003-.132l-.487-.54-.37-.42a.088.088 0 0 0-.125-.006m1.39 1.695a.092.092 0 0 0-.022.129c.243.337.42.626.554.908a.092.092 0 0 0 .123.043.093.093 0 0 0 .044-.123 6.09 6.09 0 0 0-.571-.937.092.092 0 0 0-.129-.02m-4.974-4.385c-.007.01 0 .027.011.034l.165.106.135.095c.01.008.023.003.03-.007.008-.01.003-.027-.008-.034l-.128-.09-.178-.113c-.01-.008-.02-.003-.027.008m-1.515-1.276a.03.03 0 0 0-.002.043c.114.126.25.228.382.327.15.112.306.229.424.38a.029.029 0 0 0 .042.005.03.03 0 0 0 .005-.042c-.124-.157-.283-.276-.436-.391-.13-.097-.263-.197-.374-.32a.03.03 0 0 0-.041-.002m1.517 7.05a.022.022 0 0 0 .003.03l.223.195c.242.208.492.423.683.664a.023.023 0 0 0 .03.004.023.023 0 0 0 .004-.032c-.193-.244-.445-.461-.688-.67l-.223-.194a.023.023 0 0 0-.032.002m-15.44-4.266a.065.065 0 0 0 .033.085c3.299 1.417 6.77 2.66 10.61 3.802a.064.064 0 0 0 .08-.044.066.066 0 0 0-.044-.08c-3.835-1.14-7.3-2.381-10.595-3.796a.064.064 0 0 0-.085.033m-1.304-.605c-.012.028.012.064.039.077l.125.057.06.037a.054.054 0 0 0 .076-.018.056.056 0 0 0-.02-.077l-.056-.035-.162-.073c-.028-.012-.049.004-.062.032m9.264-.496a.029.029 0 0 0 .013.038c2.7 1.3 4.922 3.117 6.558 4.555a.028.028 0 0 0 .04-.002.03.03 0 0 0-.002-.042c-1.638-1.44-3.865-3.261-6.57-4.563a.028.028 0 0 0-.04.014m-2.847-1.054a.047.047 0 0 0 .045.05c.326.013.65.14.963.262l.54.191c.025.009.048-.005.057-.03.009-.024-.007-.05-.03-.06l-.532-.188c-.32-.125-.653-.254-.994-.27a.046.046 0 0 0-.049.045m-3.969-.147a.07.07 0 0 0-.039.092.07.07 0 0 0 .092.038c1.046-.427 2.403-.428 3.63 0a.07.07 0 0 0 .089-.044.07.07 0 0 0-.044-.09c-1.257-.438-2.65-.436-3.727.004m-2.305-5.848a.08.08 0 0 0 .006.113c.519.461 1.013.977 1.491 1.475l.839.86a.078.078 0 0 0 .111 0 .08.08 0 0 0 0-.114L19 15.953c-.48-.501-.977-1.02-1.5-1.485a.08.08 0 0 0-.113.007m4.825 1.587a.097.097 0 0 0 .009.136l.235.208a56.554 56.554 0 0 1 1.751 1.592.095.095 0 0 0 .135-.002.096.096 0 0 0-.003-.136 55.57 55.57 0 0 0-1.757-1.598l-.235-.208a.095.095 0 0 0-.135.008m4.824 3.377c-.016.011-.04.005-.053-.012l.206.285c.012.016.033.017.05.005.015-.012.017-.038.005-.055l-.198-.273c.012.017.007.037-.01.05m-13.083-8.943a.068.068 0 0 0 .03.092c4.97 2.442 8.958 5.065 12.193 8.02a.068.068 0 1 0 .092-.101c-3.244-2.964-7.243-5.594-12.224-8.042a.068.068 0 0 0-.092.032M44.886 36.06c-.008.016.006.037.022.044l.089.046c-.016-.007-.018-.024-.01-.04.007-.014.029-.018.044-.011l-.113-.056c-.014-.007-.025.002-.032.017m15.236-4.257a.07.07 0 0 0-.005.098c.557.626.802 1.484.952 2.162a.069.069 0 0 0 .083.053.07.07 0 0 0 .052-.083c-.154-.694-.406-1.574-.985-2.224a.068.068 0 0 0-.097-.006m-9.14-5.186a.09.09 0 0 0-.025.125c.266.402.642.896 1.2 1.147a.09.09 0 1 0 .073-.165c-.512-.23-.855-.676-1.123-1.082a.09.09 0 0 0-.125-.025m2.672-3.44a.09.09 0 0 0-.016.125l.101.132.345.438a.086.086 0 0 0 .124.013.091.091 0 0 0 .013-.127l-.341-.433-.101-.132a.09.09 0 0 0-.125-.016M25.273 27.69l-.025.05c.028.21.206.267.454.254l-.026-.05.026-.052c-.094-.142-.198-.273-.454-.252zm8.507-1.064c-.067.008-.152-.206-.202-.05.067-.008.188.17.202.05m-10.148-.05c-.154-.065-.135-.304-.353-.305-.011.04-.043.06-.101.051v.203c.08.057.444.09.454.05m.858-14.031c-.045-.069-.243-.265-.202-.203.106.158.234.25.202.203m-.403-.456c-.076-.107.257.362 0 0m3.534-1.774c.174.238.463.607.908.406.025-.497-.451-.493-.858-.557l.025.092zm-4.393-1.671v.05c.683-.103.988.45 1.515.659.669.265 1.36.262 1.968.557l-.025-.093.076-.059c-.506-.136-1.126-.73-1.817-1.013-.568-.233-1.504-.442-1.768-.101zM45.746 33.72c-.011.095.057.111.05.202l.076-.025-.025.076c.256.042.52.085.707-.051-.13-.249-.438-.326-.757-.253l.025.076zm-1.97-4.712c.032-.003.06-.007.052-.05l-.101-.051.1-.05c-.02-.064-.065-.104-.151-.102l-.061.069-.09-.019c.016.119.052.22.151.254l.025-.076zm-.1-4.154c.148-.244.39-.48.354-.76-.088-.67-1.12-.475-1.465-.05l.026.025-.026.025c.038.588.343.906 1.06.81l-.025-.075zM18.532 24.5c.097.527.373.63.758.962.494.426.72.61 1.212.963 1.03.738 1.995 1.376 3.13 2.178.43.303 1.1.651 1.212.962.07.196-.007.495.05.71.114.427.345.66.707.76.578.16.949-.15.96-.659.014-.769-.593-.987-1.415-1.064-1.482-1.294-3.379-2.282-4.897-3.495-.229-.183-.51-.319-.707-.507-.292-.28-.416-.732-.858-.86l-.061.068zm10.754 5.167c.075-.489.328-1.539-.151-1.672-.596-.166-.903 1.304-1.363 1.064l.025.05-.025.05c.382.276.68.635 1.414.558l.025-.075zm6.11 1.114c-.356-.1-.78-.307-1.161-.101l.025.076-.025.076c.27.198.708.151 1.11.101l-.025-.093zm18.277 9.676c.31.65.935 1.228 1.666 1.013.654-.192.874-1.288.303-1.672-.8-.537-1.53.406-1.97.558l.026.05zm4.292-2.077v.101c-.533-.225-.763-.754-1.212-1.064l-.036.086-.065.067c.788.965 1.71 1.796 2.575 2.685-.017.455-.298.647-.455.962h-.1l.024.076-.075.025c.374.874 1.002 1.494 1.716 2.027.091.38.175.77.657.76.29-.339-.15-.65-.152-1.014.173-.283.291-.62.657-.709.3.343.884.5 1.11 1.064.211.523.083 1.068.354 1.469.362.537 1.655.792 1.817-.102.095-.518-.28-1.01-.454-1.165-.382-.338-.794-.27-1.313-.506-.633-.29-.996-1.041-1.615-1.267-.442-.704-.989-1.304-1.818-1.62a18.999 18.999 0 0 0-1.262-1.267c-.01-.31-.122-.52-.303-.659v.05zM32.77 4.135c-.61-.611-1.325-1.156-1.868-1.773-.33-.376-.561-.898-1.11-.962l.024.076-.075-.026c.153.491.468.672.808 1.014.666.668 1.37 1.312 2.12 1.824l.006-.107zm9.644 15.248c-.065.003-.07.065-.152.05l.026.094-.076.059a1.85 1.85 0 0 0 .404.406l.075-.026.076.025c.108-.296-.223-.358-.252-.658l-.025.076zM29.74 3.883c.198-.295-.161-.655-.455-.457-.077.382.184.424.405.507v-.05zm2.777 2.177c-.124-.331-.367-.543-.858-.506v.05h-.05c.107.382.464.513.908.558l-.025-.051zm8.23 8.612c-.428-1.48-.984-2.83-2.12-3.597l-.036.086-.066.066c.667 1.188 1.41 2.3 2.07 3.496l.06-.076zm-.858 4.154h.454l-.025-.093.075-.059c-.13-.072-.215-.19-.353-.253-.03.105-.106.163-.152.254l.026.075zm1.868 8.46c.083.101.135.235.303.253l-.026-.076.076-.025h.1l-.024-.093.075-.059a.938.938 0 0 0-.454-.152l.025.093zm-.808-.253c.076.075.222.081.353.1l-.025-.092.075-.06c-.05-.17-.26-.177-.353-.303v.05h-.05v.153l.101.075zM29.74 16.445c-.23-.513-.977-.798-1.11-1.368-.067-.28.059-.592 0-.861-.221-1.005-1.755-1.013-1.717.102.024.71.737 1.016 1.464 1.013.417.425.808.877 1.262 1.266l.036-.086zm7.977 7.396a11.446 11.446 0 0 0-1.01-1.012l-.035.085-.065.066v.152h-.051l.025.025-.025.025c.342.248.62.56 1.01.76l.066-.065zm1.364 1.672c-.016-.119-.109-.218.05-.253l-.025-.026.025-.025a5.835 5.835 0 0 0-.606-.456l-.035.086-.066.066c.146.293.35.528.556.76l.035-.086zm.403 1.469c.184.086.357.183.455.354l.059-.075.092.025c-.033-.186.11-.194.101-.355l-.076-.025.026-.076c-.121.02-.11-.093-.252-.051-.065-.138-.181-.224-.253-.354l-.059.076-.093-.026c.037.194.034.244-.05.406l.076.025zM50.82 34.37l-.076.058c1.066.578.268 3.293-.454 3.344v.05h-.05c.041.297-.306.47-.404.456-.4-.11-.072-.626.05-.81v-.05h.05c.032-.982-.132-1.968-.302-2.888.377-.016.773-.206 1.06-.152l-.018-.09.068-.062c-.009-.11.042-.161.152-.152-.012.09.051.253-.1.202zm-10.098-1.538l.026.026c.372-.2.922-.223 1.161-.557.546.026.99.155 1.211.507.833-.112 1.322.52 2.07.658l.026-.076.076.026c.035-.405.791-.51 1.11-.305l.025-.075.077.025c.204-.302.835-.302 1.211-.253.121.015.205.11.353.151.172.047.35 0 .455.051.82.396 1.308 3.075.96 3.85l.024.05-.025.051c.005 1.134-1.192 2.42-2.524 2.28-.39-.198-.049-1.197-.656-1.266-.657-.075-.967.971-1.616 1.063-.689.098-1.547-.524-2.02-.911-.6-.492-.964-.93-1.414-1.52-.223-.08-.456-.15-.656-.254-.185-.746-.096-1.781-.151-2.633-.022-.32-.17-.621 0-.862.188-.004.144-.056.303 0zm-1.69-1.342c.225.136.33-.038.655.102.097.25-.075.306-.151.506-.33-.04-.762-.286-.505-.608m3.534.406c-.048.247-.382.09-.555.05-.197-.044-.419-.149-.606-.202-.388-.111-.96-.155-1.06-.507-.014-.082.048-.087.05-.152.521-.236.8.332 1.263.507.375.142.68-.018.908.304m-2.827-.659c-1.077.066-1.948-.51-1.868-1.773 1.237-.26 1.942.717 1.868 1.773m-10.603-4.762c.467.235 1.023.365 1.566.507.536.14 1.07.312 1.615.456 1.273.336 2.823.751 3.736 1.317l.025-.025.026.025v-.101c.867.094 1.726.46 1.514 1.469l.026.025-.026.025c.147.196.344.515.152.76-.693-.014-1.267-.147-1.97-.152l.026.093-.076.059c.827.278 1.685.025 2.323.355.286.148.43.526.656.76.265.273.599.434.707.76.202-.029.339-.178.556-.051.244.356.094.748.1 1.165.007.47.16.972.152 1.47-.006.374.046.846 0 1.164-.033.231-.239.44-.252.659-.026.401.211.922.403 1.216.446.68 1.385 1.278 2.474 1.367.26.022.539-.02.808 0 .867.067 1.715.37 2.575.304.344-.027.606-.182.96-.101.292-.254.657-.276 1.01-.456.318-.162.575-.455.908-.608.575-.265 1.1-.347 1.414-.81.01.04.042.058.1.05l-.025-.076.076.026c.252-.58.679-1.047.757-1.824.036-.347-.114-.629.101-1.013.758.203.72 1.203 1.667 1.216l.024-.076.077.025c.063-.685-.276-.804-.606-1.115-.43-.402-.731-.834-1.112-1.215-.19-.19-.543-.358-.504-.71.499-.589.775.217 1.262.66.166.15.452.301.556.404.175.175.284.456.454.558.248.148.557.125.808.202.597.182.831.485 1.161.861l.06-.076.09.025c0-.086.04-.13.103-.151v-.051h.05c-.253-.375-.736-.442-1.06-.709-.432-.358-.61-.942-1.06-1.267-.213-.596-.713-.754-1.111-1.114a3.31 3.31 0 0 1-.556-.659c-.14-.23-.146-.472-.303-.608-.244-.21-.674-.17-.858-.455l-.05.025-.05-.025v.202c-.79.197-1.483-.618-1.212-1.317h.05l-.026-.05.026-.051c-.213-.153-.367-.381-.606-.608-.212-.201-.535-.339-.657-.608-.077-.173-.087-.54-.151-.86-.1-.504-.273-.856-.151-1.318l-.076.025-.026-.076h-.201l-.059.076-.093-.025c.021.392.366.703.253 1.063-.217-.116-.28-.444-.404-.709-.152-.325-.45-.71-.303-1.013.243.076.232.408.404.558l.058-.077.093.025c-.035-.498-.639-1.074-.808-1.772-.134-.556.05-1.292-.353-1.57-.238-.165-.534-.048-.808-.153-.277-.34-.445-.93-.656-1.57-.182-.552-.467-1.213-.505-1.722-.046-.609.2-1.103-.05-1.52-.109-.181-.44-.334-.657-.304-.995.138-.063 1.52-.1 1.874a.638.638 0 0 1-.405.507l.026.075-.077-.024c.016.133-.07.166-.201.151l-.076.026-.076-.026c.114.46.243.905.455 1.267l.025-.076.076.025v-.152c.362-.057.735.18.959.456.431.53.69 1.348 1.06 2.128.547 1.15 1.2 1.835 1.313 3.14l.092-.025.06.076c.07-.013.057-.111.1-.152.254.22.54.674.505 1.014l.025.075.026.076c.113.241.468.24.454.609-.546.682-1.704.048-1.868-.507-.11-.372 0-.802 0-1.216h.05l-.024-.05-.026-.051c-.302-.342-.446-.357-.707-.609v.051h-.05c-.097.275-.461.36-.758.558l-.066.066-.085.035c.174.342.428.783.353 1.216-.46.008-.937-.367-1.363-.557.006-.247.254-.253.303-.457-.054-.367-.28-.563-.606-.658-.062-.422-.577-.832-.303-1.266h.051l-.026-.093.076-.06c-.148-.46-.851-.63-.656-1.266l-.025-.025.025-.026c-.255-.244-.264-.704-.353-1.215-.065-.369-.145-.763-.202-1.115-.133-.808-.355-1.612-.202-2.229a.236.236 0 0 0 .15-.05l-.024-.077-.026-.075c-.464-.214-.683-1.691.102-1.723l.075-.025.076.025c-.201-.794-.445-1.546-.858-2.127l-.059.075-.093-.025v.102c-.5.36-.918.8-1.212 1.367.45.453 1.545 1.136.96 1.976h-.05l.025.076.024.076c.507.313.527 1.209.657 1.976.147.863.348 1.816.353 2.38v.051h-.05c.003.065.065.07.05.152-.05 0-.06.041-.1.05l.025.077-.076.025c.042.059.067.136.05.253l.026.076-.076.026c.129.273.535.424.707.76.115.224.158.649.303 1.013.224.562.69 1.035.353 1.57-.059-.008-.143.009-.151-.05l-.05.025-.051-.026c.002.088-.04.13-.101.152l.025.076.026.076c.052.302.433.274.555.507l.076-.025.075.025c.38-.084 2.075.947 2.171 1.165.09.205.06.521 0 .71h-.151l.025.075-.076.026c.18.234.051.756-.303.76l.025.075-.075.026c.012.04.001.1.05.101-.143.806-1.344 1.67-1.969.912.168-.636.64-.615.555-1.317-.062-.52-.644-.82-1.06-.912-.388-.086-.83.032-1.161-.202-.287-.204-.412-.761-.555-1.064a11.97 11.97 0 0 0-.556-1.064l-.058.076-.093-.026c.202.76.67 1.254.858 2.027-.593.419-1.011-.068-1.363-.355-.39-.319-.888-.585-1.11-.962.15-.238.466-.31.403-.76l-.076-.025.025-.077c-.171.048-.37.068-.554.102-.142.162-.079.53-.253.659-.785.261-1.705-.24-2.12-.811-.359-.492-.612-1.453-.91-2.28a21.05 21.05 0 0 0-.403-1.064c-.181-.427-.423-.815-.455-1.064-.03-.231.05-.475.05-.708 0-.344-.097-.61-.05-.862h.05l-.024-.025.024-.025c-.244-.21-.427-.483-.757-.608l.025.076-.075-.026v.152c-1.78.013-1.366 2.456.454 2.23.559.823.919 2.377 1.262 3.596.123.434.46 1.083 0 1.216l-.025.025-.025-.025v.101c-.88-.181-1.714-.408-2.474-.71.01-.49.038-.982-.404-1.012-.521-.036-.408.535-.808.76-.633-.16-1.406-.444-1.969-.507l-.025.076zM17.422 22.17c.17.443-.204 1.119.353 1.165l.026-.075.075.025c.107-.332.382-.495.758-.557l-.025-.077.024-.075c-.123-.423-.599-.683-1.16-.507l.024.076zm7.724-1.215c-.043.775.842.997 1.313.557.012.04.043.059.102.05l-.026-.025.026-.025c-.18-.291-.119-.716-.456-.862-.325-.14-.601.029-.908.203l.025.076zm-1.817-.507c-.008.126.08.157.101.253.205.02.232-.138.353-.202l-.075-.026.025-.076c-.143-.008-.21-.093-.354-.1l.019.09zm-7.826.76c.482.429 1.172.648 1.818.912l-.026-.076.077-.025c-.103-.49.634-.522 1.06-.71.547-.242.986-.76 1.363-.861l-.076-.059.025-.093c-.612.145-.96.556-1.565.71-.565-.501-1.477-1.587-2.474-.862-.14.232-.06.682-.152.963l.026.075zM7.83 15.179c0 .254.161.345.303.456l.025-.076.076.025c-.018-.218-.104-.368-.252-.456l-.06.076zM19.694 16.9c.192.422.607 1.114 1.16.71-.011-.597-.628-.585-1.009-.811l-.065.066zm-2.878-2.938v.101c-.476.7-1.143-.009-1.717-.202l.018.09-.068.062c.264.32.722.403 1.16.608.303.14.454.311.658.303.25-.01.375-.212.606-.303l-.026-.093.076-.06a3.427 3.427 0 0 0-.556-.557l-.059.076zm7.371 4.002c.146.295.64 1.083 1.01.506.113-.4-.524-.486-.858-.607l-.066.065zm-9.491-6.18c-.003.064-.065.07-.05.152-1.224-.086-3.017.268-3.939-.254l.025.076-.075.026c.108.124.037.374-.152.354-.113-.073-.134-.237-.152-.405l-.076-.025.026-.077c-.934-.209-2.139-.98-3.13-.354l.075.059-.025.093c.07-.002.111.024.152.05-.056 1.02.076 1.525.606 1.773 1.123.53 1.794-.518 2.473-.81.628-.27 1.404-.23 1.868 0l.06-.076.092.025v-.202c1.198-.087 2.804-.147 3.282.658l.059-.075.092.025c-.003-.089.012-.158.05-.203.634.04 1.23.351 1.768.608 1.708.816 3.116 1.91 4.494 2.989l.065-.066.086-.035c-1.479-1.331-3.03-2.564-4.998-3.344-.843-.333-2.09-.478-2.576-1.064l-.025.076zm11.46 6.838c.238.302.391.688.808.81l.05-.024.051.025c-.09-.5-.514-.666-.808-.963l-.035.086zm-13.076-8.46c.176.246.421.422.656.609l.076-.026.075.026a.244.244 0 0 1 .05-.153h.102l-.025-.093.075-.058c-.242-.18-.562-.28-.858-.406l-.065.066zm-.909-.962v.152c-.065.003-.07.065-.152.05l.026.094-.076.059c.218.17.53.244.808.354l.065-.066.086-.035a4.882 4.882 0 0 0-.656-.659l-.025.076zM5.627 1.83l.025-.075.075-.025C5.501 1.432 5.544.866 5.475.41c-.73-.928-.673 0-1.01 0 .134.983.814.906 1.162 1.418m49.46 42.072c-.036.176.177.182.252.103.036-.177-.177-.183-.252-.103m3.029-.962c.146.121.416.043.354-.203-.06-.058-.179-.057-.304-.05.02.122-.092.11-.05.253m-1.515-.557H56.4c-.08.235.261.176.202 0m-6.715-.507c.066-.067.067-.188-.05-.202-.066.067-.067.188.05.202m-2.979-1.165h.253c.02-.173-.015-.289-.202-.253a.33.33 0 0 0-.05.253m3.584-1.317c.126.007.21-.026.252-.101-.095.022-.304-.07-.252.101m-10.451.253c.137.101.485.075.454-.151-.026-.076-.074-.128-.1-.203-.277-.04-.394.077-.354.354m14.894-.911h.152v-.101h-.152zm-2.726-.507c-.01-.075-.122-.046-.202-.051-.108.187.257.23.202.05m-16.46-.1c-.05-.69-.598.268 0 0m28.678-.456c.072.012.085.083.151.101.016-.068.073-.097.051-.202-.115-.015-.19.012-.202.1m-29.486-.303c-.043.191.226.18.304.1.043-.19-.227-.178-.304-.1m19.64-.253h.101c0-.051.042-.061.051-.102-.064-.003-.07-.064-.151-.05zm-9.567-.988l-.076-.026c.026.212-.148.223-.1.456.1 0 .064.138.201.102.211-.178.354-.558-.05-.609zm-3.762.227c.874.025.985-1.476-.05-1.266-.825.168-.655 1.247.05 1.266m6.867-1.823c.067.066.188.067.202-.05-.067-.066-.188-.068-.202.05m-.354-.102c-.052.295.22.022 0 0m-18.68-.202c.077.522.934.47.908-.101-.014-.316-.315-.507-.656-.355-.274.122-.275.302-.252.456m-.353-1.064c.204.02.351-.018.352-.203-.038-.13-.16-.176-.352-.151-.073.067-.073.287 0 .354m-.203-.81c.12-.002.15.087.303.05.369-.306-.433-.667-.303-.05m32.515 1.671v.81c-.101.246-.45.435-.555.76-.209.651.092 1.336.706 1.267.452-.05.666-.59.556-1.216-.044-.247-.315-.471-.404-.76-.107-.347.021-.64-.152-.911l-.058.076zm-.876-2.167l.069-.061c-.003-.2-.104-.302-.304-.305-.074.233.028.396.253.456zm-32.8-.416c-.023.158.108.162.253.152.056-.205-.156-.25-.253-.152m.151-1.773h.102v-.102h-.102zm2.474-1.317h.203c.044-.163-.078-.159-.152-.203-.016.069-.072.097-.05.203m-2.475-.254v.203c.145.13.34.004.354-.152-.071-.076-.245-.16-.354-.051m23.377-.1c.072.011.085.082.151.1.016-.068.072-.096.05-.203-.114-.014-.189.013-.201.102m-10.148-1.57c-.094.048-.169-.151-.202 0 .03.014.194.126.202 0m-14.592-.405c.236-.002.236-.253 0-.254a.19.19 0 0 0 0 .254m1.162-.558c.205.02.351-.018.353-.202-.084-.307-.572-.085-.353.202m-9.088-.202v-.102c-.093-.168-.247.152 0 .102m3.029-.051h.252a.357.357 0 0 1 .101-.152c-.025-.445-.68-.152-.353.152m5.2.101c.257.037.459-.183.303-.557-.61-.324-.754.493-.303.557m-.706-.81c.067.072.285.072.352 0 .104-.376-.467-.41-.352 0m4.443-1.166h.1c.003-.064.065-.07.05-.151h-.15zm-3.635-.202c.15.146.403.11.353-.203-.14-.133-.399-.105-.353.203m-1.112-.152c-.007.126.08.157.102.253.204.02.351-.018.353-.203-.032-.24-.37-.246-.455-.05m3.585-.912h.101v-.101h-.101zm-9.24.101c.057.01.08.057.102.102.158.024.197-.072.303-.102.068-.362-.492-.413-.404 0m32.313 5.674c.178.37.69.895 1.161.507.12-.667-.487-.74-1.01-.608l-.065.065zm-1.075-1.15l.065-.066c-.39-.774-.708-1.89-.959-2.837-.09-.336-.218-.716-.253-1.012-.1-.849.012-1.51-.454-1.774-.723-.408-1.467.168-1.313 1.014.127.696.853.795 1.464 1.063.458 1.247.71 2.7 1.414 3.698zm3.044-2.852c.074.324.356.773.707.507.017-.39-.31-.432-.556-.557l-.076.025zm-.369-.593l.066-.066c-.067-.257-.42-.524-.505-.911-.05-.23.04-.44 0-.659-.212-1.164-1.819-1.04-1.515.203.243.465.67.747 1.313.81.2.24.351.526.606.71zM37.92 19.333c.065.068.247.078.253-.051-.065-.069-.248-.078-.253.05m-14.894.051c.159.078.282.032.404-.05v-.254c-.19-.251-.622-.005-.404.304m-.1-1.064h-.203c-.08.236.261.176.202 0m-3.383-.405c-.742-.276-.093.764 0 0m-7.17-.355v.153c.367.261.367-.415 0-.152m24.892-.811h.1v-.101h-.1zm.05-.76c-.187.393.148.603.455.659.127-.362-.015-.716-.454-.66m-24.588-.05c-.02.206.017.354.2.355.185-.001.223-.15.203-.355-.115-.032-.304-.1-.403 0m-3.03-.607c.208-.357-.413-.566-.455-.152.06.232.263.29.455.152m22.164-1.622c-.023.159.109.163.253.153.056-.205-.155-.25-.253-.153m-10.551-.253c.043.074.075.16.2.152.075-.044.161-.076.153-.203-.06-.178-.361-.2-.353.051m9.643-.304h.151v-.101h-.151zm-2.171-2.28v.203c-.145.01-.276.007-.253-.151.059-.043.135-.067.253-.051" fill="white" fill-rule="evenodd"/></svg>