<svg xmlns="http://www.w3.org/2000/svg" width="193.351" height="244.889" viewBox="0 0 51.157 64.793"><path d="M12.677 33.817a.33.33 0 0 0-.084.408.067.067 0 0 0 .119-.06c-.043-.085-.023-.189.046-.242a.067.067 0 0 0 .012-.093.067.067 0 0 0-.093-.013M8.76 42.383l-.614.701c-.412.464-.839.943-1.206 1.446a.082.082 0 0 0 .017.114.082.082 0 0 0 .115-.017c.363-.497.787-.973 1.196-1.434l.617-.704a.081.081 0 0 0-.008-.115.083.083 0 0 0-.117.01m.83-.966c-.02.07-.071.122-.125.177l-.132.174c-.015.02-.006.04.014.054.02.016.053.002.069-.017l.113-.147c.06-.061.122-.124.148-.216a.045.045 0 0 0-.087-.025m34.759 12.11c-.01.054.029.095.085.105.054.008.107-.039.117-.094l.019-.113c-.01.054-.06.086-.115.077-.055-.01-.091-.066-.081-.122zM31.007 28.463l-.565 3.112c-.185 1.07-.376 2.176-.592 3.247a.11.11 0 0 0 .215.043c.216-1.073.408-2.181.593-3.252l.565-3.107a.111.111 0 0 0-.089-.13.109.109 0 0 0-.127.087m.233-1.472v.195a.07.07 0 1 0 .139 0v-.195a.07.07 0 0 0-.07-.069.07.07 0 0 0-.07.07m1.964-.196a.07.07 0 0 0-.045.087.862.862 0 0 1 0 .48.07.07 0 0 0 .133.037.997.997 0 0 0-.001-.56.07.07 0 0 0-.087-.044m.012 1.149a.085.085 0 0 0-.076.094c.124 1.165.177 2.364.228 3.524.04.93.082 1.891.161 2.834a.086.086 0 1 0 .17-.015c-.078-.939-.12-1.898-.16-2.827-.051-1.162-.104-2.364-.23-3.534a.085.085 0 0 0-.093-.076m16.662 27.72a.113.113 0 0 0-.015.16l.072.083.023.027a.117.117 0 0 0 .175-.156l-.024-.027-.063-.072c-.042-.049-.12-.058-.168-.016m-.691-5.508c-.069 1.381.332 2.798 1.224 4.329a.067.067 0 0 0 .092.024.066.066 0 0 0 .023-.091c-.878-1.509-1.272-2.901-1.205-4.256a.067.067 0 0 0-.134-.006M35.682 35.568c-.438.038-.861.156-1.271.27l-.368.101a.098.098 0 1 0 .05.19l.37-.102c.42-.117.816-.227 1.236-.264a.098.098 0 1 0-.018-.195m-4.275-19.455c-.684.108-1.34 1.045-1.435 2.046a.073.073 0 0 0 .146.014c.088-.94.689-1.817 1.312-1.916.36-.057.662.17.87.654.424.984.5 2.316.582 3.727l.036.612c.122 1.943.159 3.74.17 4.64a.073.073 0 0 0 .073.071.073.073 0 0 0 .072-.073 96.528 96.528 0 0 0-.169-4.647l-.037-.612c-.08-1.423-.158-2.768-.592-3.776-.317-.735-.78-.78-1.028-.74m-1.93.752l-.054.569c-.055.506-.111 1.03-.01 1.52a.05.05 0 0 0 .097-.02c-.097-.474-.042-.99.012-1.49l.053-.573a.048.048 0 0 0-.044-.053.051.051 0 0 0-.055.047m-7.234 19.043a.093.093 0 0 0 .044.121.087.087 0 0 0 .117-.043l.09-.2a.092.092 0 0 1-.12.049.088.088 0 0 1-.047-.117zm.079.173a.062.062 0 0 0-.06.063c.007.228-.022.458-.05.68-.028.243-.06.494-.047.748a.061.061 0 1 0 .123-.006c-.012-.244.018-.49.047-.726a4.61 4.61 0 0 0 .05-.7.06.06 0 0 0-.063-.06m-3.584.135a.117.117 0 0 0 .189.138c.338-.459.694-.64 1.057-.54.768.214 1.391 1.596 1.466 2.416a.117.117 0 1 0 .233-.021c-.085-.928-.749-2.373-1.636-2.62-.32-.089-.81-.053-1.31.627m7.325-20.773a.068.068 0 0 0-.037.09c.563 1.36 1.133 2.82 1.489 4.273a.068.068 0 1 0 .132-.033c-.358-1.462-.931-2.927-1.495-4.293a.068.068 0 0 0-.09-.037m.803-2.183l-.096.146-.03.045a.078.078 0 1 0 .127.088l.03-.044.103-.155c.024-.036.012-.081-.024-.105-.036-.024-.086-.01-.11.025m-.125.198l-.097.147-.03.043a.073.073 0 1 0 .12.082l.029-.042.103-.156a.07.07 0 0 0-.023-.098c-.033-.022-.08-.01-.102.023m-3.373-1.973a.042.042 0 0 0-.003.06c.607.68 1.127 1.396 1.555 2.007a.042.042 0 0 0 .058.01.042.042 0 0 0 .01-.058c-.43-.612-.95-1.33-1.56-2.016a.042.042 0 0 0-.06-.003m6.647-.711a.06.06 0 0 0-.06.061 28.68 28.68 0 0 1-.356 4.792.061.061 0 0 0 .05.07.06.06 0 0 0 .07-.05c.25-1.532.367-3.106.358-4.812a.061.061 0 0 0-.062-.061m-.072-2.016v.52a.04.04 0 0 0 .08 0v-.52a.04.04 0 0 0-.08 0M12.717 33.871l-.032.097c.088.02.124.092.26.065-.013.096-.158.06-.26.064l-.033.098-.097-.033c.016.283.377.346.39.714.011.38-.414.703-.585.974-1.464.22-1.91 1.16-1.946 2.206-.018.513.064 1.214.324 1.687.064.117.255.172.325.26.3.382.398.785.583 1.233.234.563.534 1.122.65 1.688.076.377-.178.633.194.778.368.12.592-.512.65-.714.796-.438 1.24-.534 2.01-.973.124-.122.164-.008.325 0 .723-.601 1.243-1.167.844-2.012-.164-.346-.698-.727-1.103-1.103-.381-.354-.773-.722-1.039-1.169-.12-.203-.148-.483-.26-.649-.273-.405-.953-.603-1.038-1.102-.03-.565.872-1.306.714-2.077-.07-.345-.795-.916-.973-.065zM6.974 44.48c-.22.17-.603-.01-.843 0-1.409.054-1.851 1.452-1.363 2.206.32.495 1.639.668 2.076.324.747-.585.267-1.825.26-2.465l-.097.032zm2.336-2.726c-.375.057-.51.356-.584.714l.098-.032.032.097c.308-.147.542-.367.584-.78l-.065.033zm.325-.325v.065c.256-.067.491-.157.649-.324.114-1.376-1.27-.494-1.428.065.124.322.462.06.714.194zm40.299 14.472c.184.282.666.5 1.104.325.385-.724-.253-1.395-.52-1.882l-.05.106-.08.088c.057.376.367.499.325.974-.19.091-.224.338-.584.26l-.085.084zM35.658 35.784c1.18-.054 2.212.039 3.05.325.503.445.806 1.182 1.752 1.038.491-.074.876-.604.778-1.167-.07-.406-.553-.783-.973-.844-.847-.124-1.124.451-1.687.519-.434.052-.973-.168-1.428-.195a5.746 5.746 0 0 0-1.557.13l.097.076zm-2.142-1.427c-.303.476-.108 1.062.065 1.557-.412 1.046-2.102.169-2.401 1.299-.179.672.362 1.3 0 2.076-.315.334-1.05.249-.909 1.039.535.177.92-.268 1.363-.39.65.547.723 1.994 2.077 1.623.055-.943-.822-.953-1.363-1.298-.152-.62-.844-1.408-.714-2.142.081-.457.717-.936 1.103-1.039.406.496.112 1.24.325 1.753.26.625.931.665 1.622.843 1.187 2.261 2.468 4.834 3.764 7.463.607 1.231.972 2.741 1.492 4.153.514 1.395 1.48 2.563 1.818 3.83.144.538.1 1.132.325 1.622.163.356.65.656.713 1.038.045.276-.155.663-.195 1.038-.064.617-.137 1.526-.064 2.142.044.374.302.871.389 1.363.202 1.147.235 2.133 1.103 2.4.14.044.318-.02.454.066.987-.61.825-1.75.325-2.337-.393-.46-1.116-.553-1.363-.973-.128-.217-.13-.523-.195-.843-.176-.864-.25-1.655-.194-2.79.155-.255.559-.361.649-.715.123-.49-.23-1.052-.195-1.622.06-1.015.67-1.234 1.038-1.947l-.098-.032-.097-.033h-.194c0-.065.052-.077.065-.13h.13v.065l.119-.032.075.097c.21-.44.673-.647 1.168-.65 1.756-.006 3.028 2.302 4.153 2.986l.085-.084.11-.046c-.892-.63-1.962-2.68-3.504-3.114a4.995 4.995 0 0 0-.909-.13c-.589.021-1.717.575-1.947.908-.254.369-.077 1.008-.389 1.428-1.068.182-1.316-.676-1.623-1.622-.2-.626-.222-1.287-.389-1.817-.351-1.12-1.155-2.013-1.557-2.92a63.149 63.149 0 0 0-1.428-2.986c-.521-1.03-.93-2.06-1.622-2.855-.175-1.016-1.416-2.221-1.752-3.31-.117-.377-.067-.905-.26-1.363-.283-.675-1.266-1.396-.52-1.817l-.097-.075.033-.12a.3.3 0 0 1-.195-.064c-.047-.441.176-1.121-.194-1.493l-.098.033zM30.011 18.07c-.186.267.014.921-.583.778l.032.098-.097-.033c-.338.678-.328 1.797.259 2.207.374-.387.823-.714.844-1.233.02-.515-.556-1.045-.325-1.753l-.097.033zm-7.657 18.17c.141.011.03-.23.065-.325l-.097.033-.033-.097c-.34-.102-.47.392-.065.324l.098-.033zm-3.57-.065c-.523.217-.387 1.247-.388 1.947-.002 1.019-.136 1.517.778 1.493.555-.635-.214-1.14-.39-1.753-.14-.492-.095-.978.131-1.492l-.085-.085zm5.841 11.746c.188 1.298.989 2.851 1.104 4.218-.3-.015-.458-.365-.65-.584-.18-.206-.477-.41-.584-.649-.17-.383-.151-.946-.259-1.427-.103-.461-.3-.903-.324-1.364.303-.093.262-.334.713-.194m3.764-20.636c-.223.331-.726.096-1.168.064-.598-.042-1.271.119-1.687-.13-.237-1.022 1-1.132 1.817-.908.216.06.41.311.584.454.113.093.543.117.454.52m-16.288-2.077a.328.328 0 0 0-.195-.195c-.067-.406.299-.688.454-1.038.09-.203.047-.51.195-.714.374-.514 1.459-.541 1.428.26-.018.444-.485.465-.779.713-.39.328-.443 1.053-1.103.974m5.58-4.672c1.153 1.13-1.43 2.198-1.752 1.168-.268-.86.92-1.609 1.753-1.168m-5.062-5.127c-.028.08-.083.133-.194.13-.03-.139.092-.124.194-.13m17.338 19.436l-.076-.097c-.207.29-.108.887-.325 1.167-.397.021-.926-.252-1.428-.518-1.418-.753-1.955-1.82-2.725-3.18-.567-1.004-1.61-1.857-1.363-3.18.063-.333.424-.914.714-1.103.529-.348 1.451-.16 2.337-.13.476.016.933-.12 1.232.13.101.238-.138.717.13.908.421.094.237-.768.714-.908.166-.05.37 0 .65.065.014.103.179.279.193.389.034.26-.891 2.162.065 1.947.535-.12.246-1.479.39-1.947.204.031.23-.117.454-.065.014.073.072.101.13.13l.065.032.065.033c.513-.27 1.3-.193 2.011-.39l.033-.097.097.032c.323-.242.242-.454 0-.714l-.097.033-.033-.097c-.383.218-1.361.061-1.817-.065l-.065-.033-.065-.032c-.049.167-.207.225-.454.194-.182-.268.232-.542.454-.389l.065.032.065.033c.312-.399 1.491-.413 1.817-.065l.033-.097.097.032c.897-.04.678-.997-.065-1.038l-.097.032-.032-.097c-.05.014-.076.054-.065.13-2.352 1.19-1.619-2.462-3.375-2.336-.568.04-.725.678-1.103 1.233-.113.165-.51.587-.649.778-.04.054-.085.136-.13.195-.473.631-1.19-.082-2.076-.13-.791-.59-1.214-1.743-1.298-2.92-.032-.442.14-1.053 0-1.558-.14-.5-1.348-1.195-1.947-1.557-1.34-.811-2.89-1.502-2.401-3.504-.403-.54-1.094-.535-1.492-.974-.31-.341-.32-.996-.715-1.557-.543-.773-1.86-1.064-3.244-.909-1.362.153-3.316 1.508-3.57 2.726-.228 1.1.483 2.252.325 3.44-.076.572-.403.785-.844 1.362-.292.381-.583.76-.843.973-.69.565-1.894.501-2.466 1.104-.254.267-.46.88-.454 1.233.014.848.605 1.557 1.622 1.622.695.045 1.481-.442 2.401-.195.253.068.525.336.843.52.584.337 1.313.603 1.948.843.347.132.797.198 1.038.39.03.023-.074.109-.065.13.006.014.175.04.195.064.174.22.292.528.324.779.25 2-2.26 4.449-.779 5.97.386.397 1.023.412 1.558.779.212-.307.434-.052.519-.065.456-.068 1.037-.726 1.168-1.038.751-1.783-1.247-4.56-.65-5.516.288-.46.842-.198 1.558-.13 1.027.097 1.53.065 2.012.454.35.618.773 1.342.844 2.401.024.354-.028.737 0 1.104.056.727.374 1.466.26 2.14-.09.522-.572.918-.26 1.429.092.188.464.098.519.325.147-.212.507-.091.454.258l.119-.031.076.097c.94.12.582 1.664-.195 1.687l-.065.032-.064-.032c-.096.272-.081.654-.52.584l-.075.098-.12-.033c.305.923-.313 1.275-.713 1.687-.207.184-.09.385-.194.584-.141.263-.525.413-.65.65-.11.206-.052.485-.195.713-.486.78-1.834.958-1.881 2.142.58.27.8.668 1.168 1.233.199.306.508.682.584.908.112.336.051.91.195 1.363.105.334.338.573.388.844.082.429-.214 1.25.52 1.298.678-1.01-.883-1.957-.584-2.921.009-.028.2-.057.064-.194.257-.098 1.112-.286 1.039.064.136-.194.314-.166.519-.13.635.113 1.388.993 1.817 1.363-.217 1.008.517 2.257.454 3.44-.025.49-.298.96-.26 1.427.024.273.169.417.195.714.365.167.522.513.974.52.438.006.61-.383.974-.325.003 1.078.577 1.93 1.233 2.141-.04-.003-.077-.01-.065-.065.283.085.326.116.649.065.2-.239.43-.527.453-.843.07-.963-.92-1.645-1.427-2.336-.616-.841-1.095-2.693-1.493-3.894-.164-.498-.35-1.018-.389-1.363-.155-1.369.22-2.776.714-3.634.195-.017.16.06.454-.065.214-.383.496-.46.584-.843.228-1-.622-2.362-.389-3.31.15-.616.877-1.04 1.557-1.038.465-.307.774-1.069 1.493-.909-.024.67-.252 1.316-.39 2.012-.123.622-.13 1.378-.389 2.011-.191.468-.726.766-.908 1.234-.4 1.025.219 1.955.908 1.882.353-.038.81-.615.844-1.299.024-.494-.226-.937-.26-1.427-.039-.552.102-1.194.195-1.817.265-1.769.581-3.663.843-5.257zM27.48 19.756c.015.703-.257 1.513.454 1.622.55-.549-.187-1.208-.325-1.687l-.032.097zm-.52-6.36c.368-.099.756-.482.52-.973-.53-.033-.612.383-.65.843l.098.033zm-.13.195c.051-.014.076-.054.066-.13l-.098.032-.032-.097c-.05.014-.076.055-.065.13l.097-.033zm-3.374-2.077c-.372-.95-.946-1.93-1.882-1.298-.255.173-.358.719-.454 1.168-.197.93-.38 1.893.39 2.012 1.151.178.851-1.732 1.881-1.817v-.065zm2.628 3.991l.098.033c.453-.369.5-1.144.584-1.882l-.097.032-.033-.097c-.509-.056-1.086-.235-1.622-.065-.004-.04-.01-.077-.065-.065v.065h-.065c-.46.963-.103 2.258 1.168 2.077zm1.396 41.24h.13v-.13h-.13zm23.038-7.073c0-.129.177-.083.13-.26h-.196c.011.098-.022.24.066.26m-31.214-.714h.194v-.194h-.13c-.004.083-.083.09-.065.194M7.948 41.885c.206.097.527.098.519-.195-.059-.377-.66-.316-.52.195m.455-.974c.189.096.189-.29 0-.194zM.42 40.717c.089-.084.064-.282.065-.454-.516-.347-.737.587-.065.454m29.786-1.363c.037.294.372-.372.065-.065-.03.031-.074-.012-.065.065m-20.7-.714c.013-.072.071-.101.129-.13.017-.211-.077-.312-.26-.324-.18.124-.163.462.13.454m-.325-2.012c-.008.16-.01.313.065.39.2.046.125.046.325 0 .074-.077.073-.23.065-.39-.087-.092-.368-.092-.455 0m5.646.585c.2-.125.258-.515.13-.78-.768-.616-1.256.998-.13.78m-1.557-1.817c.136.418-.224.713.194.908.015-.05.055-.075.13-.065.193-.339-.16-.472 0-.843-.2-.046-.124-.046-.324 0m.843-.13c-.052.393.298.043 0 0m-3.569.324h.325c.106-.157.165-.315.065-.519-.404-.327-.73.283-.39.52m-2.012-.455c.151.02.25-.01.325-.065-.022-.15-.042-.304-.26-.26-.054.076-.085.174-.065.325m11.876-.52c.05.016.128.003.13.066.835-.077-.244-1.02-.13-.065m.909-.52v-.13c-.12-.215-.317.195 0 .13m-.779-.13h.13v-.129h-.13zM9.44 33.774c.203.03.29-.057.26-.26a.303.303 0 0 1-.195-.064c-.055.075-.086.174-.065.324m4.153-.324c.183-.013.277-.113.26-.325-.088-.02-.124-.092-.26-.065-.088.083-.088.306 0 .39m6.879-.13c.166-.008.13-.217.13-.39h-.26c-.1.1-.115.445.13.39m-7.982-1.103c.02-.088.092-.124.065-.26-.088-.02-.124-.092-.26-.065-.08.187-.033.296.195.325m14.666-.195c.239.062.258-.319.065-.325-.057.115-.205.19-.065.325M3.146 29.75c.06.113.12.225.324.194.127-.177.127-.276 0-.454-.212-.017-.312.077-.325.26m31.928-2.012c.704.304.759-.575 1.104-.844-.036-.988-1.451-1.067-2.077-.584.34.033.555.371.779.325.097.077.119.788.194 1.103m-7.592-3.634c.003-.112-.05-.167-.13-.195-.093.095-.095.251.13.195m2.141-1.558v-.26h-.194c-.019.17-.022.326.194.26M6.455 21.12c.182-.013.277-.113.26-.325-.273-.236-.53.176-.26.325m.908-.455c.19.096.19-.29 0-.194zm.26-3.115c.02-.087.092-.123.065-.259h-.195c-.017.148.016.244.13.26m23.492-3.505h-.195a.19.19 0 0 0 .195 0m-12.655-.13c.066 0 .078.053.13.066 0-.066.053-.078.065-.13-.065 0-.077-.053-.13-.066 0 .065-.052.078-.065.13m1.169-.649c.263.026.375-.1.324-.389-.075-.054-.174-.086-.324-.065-.093.087-.093.368 0 .454m3.44-1.168c-.053.393.296.043 0 0m-10.06-1.752h-.194a.19.19 0 0 0 .194 0m-4.542.39c.092-.016.109-.107.194-.13.034-.294-.095-.424-.389-.39-.136.168-.073.553.195.52m15.574-.65c.073.015.101.073.13.13.265.027.41-.066.39-.324-.089-.333-.61-.199-.52.195m-2.985-1.168c.073.013.101.071.13.13.327.044.428-.135.39-.455-.206-.2-.568-.078-.52.324m-3.699.26c.716.07.623-1.28-.13-.908-.456.225-.28.868.13.908m2.66-1.233c.336.052.42-.187.325-.39-.075-.054-.174-.085-.324-.064-.093.086-.093.367 0 .454m-3.375-.649c.108-.207.112-.272.065-.519-.6-.395-.851.712-.065.52m5.581-1.883c.02-.17-.09-.213-.26-.194-.052.232.139.322.26.194m-4.412.26c.568.122.77-.348.584-.779-.518-.495-1.107.423-.584.779m2.076-.909c.44.098.414-.66.065-.649-.155.181-.254.451-.065.65m5.84.064c.68-.105.728-1.53-.259-1.298-.922.216-.467 1.41.26 1.298m4.282-1.233c.186-.122.211-.683-.129-.649-.231.168-.123.595.13.65m-8.89-1.04c-.153-1.016-.786.477 0 0m2.984 1.04c.284-.784-.433-1.985-1.103-1.558-.455.29-1.168.794-1.038 1.233.142.484 1.072.366 1.622.583.076.314.097.682.52.65.013-.05.054-.076.13-.065.265-.335-.075-.494-.13-.843m.908-1.104h.325c.077-.179.14-.271.064-.454-.077-.075-.23-.074-.389-.065-.096.094-.096.424 0 .519m1.817-.194c.236-.003.285-.192.26-.455-.355-.46-.82.385-.26.454m1.038-.973c-.057-.05-.185.04-.195.065-.091.244.323.046.195-.065M29.882.028c1.683-.35 1.105 2.584-.325 1.817-.045-.024.018-.108-.064-.13-.744-.198-.33-1.538.389-1.687" fill="white" fill-rule="evenodd"/></svg>