<svg xmlns="http://www.w3.org/2000/svg" width="244.89" height="176.676" viewBox="0 0 64.794 46.745"><path d="M16.901 36.86c-.024.017-.021.04-.005.065.015.023.056.022.08.007l.119-.08c-.024.016-.049.006-.064-.018-.016-.023-.003-.06.02-.075zm-.224.217a1.196 1.196 0 0 0-.252.207.026.026 0 0 0 0 .038.026.026 0 0 0 .037-.001c.08-.084.159-.15.243-.2a.026.026 0 0 0 .008-.035.026.026 0 0 0-.036-.01m-1.07-8.016l-.228.26c-.156.182-.303.355-.488.505a.035.035 0 0 0-.005.05.036.036 0 0 0 .05.005c.19-.154.346-.336.497-.513l.226-.258a.036.036 0 0 0-.002-.051.035.035 0 0 0-.05.002m41.887-7.022l-.075.016-.028.004a.028.028 0 0 0-.024.031.028.028 0 0 0 .032.025l.026-.003.097-.022c.015-.004.017-.016.013-.031-.002-.016-.025-.023-.04-.02m-1.728-6.57a.027.027 0 0 0-.018.034.026.026 0 0 0 .034.017c.058-.017.116-.001.176.015.068.017.137.035.208.007a.027.027 0 0 0 .016-.034.028.028 0 0 0-.035-.016c-.055.021-.113.006-.174-.01-.066-.017-.134-.034-.207-.013m-33.73-4.04c-.038.016-.13.059-.16.13l.003.094c.002.005.077.071.077.071l.028.021a.027.027 0 0 0 .037-.005.029.029 0 0 0 .005-.016.025.025 0 0 0-.01-.02l-.03-.022-.063-.053a.12.12 0 0 0 .002-.027v-.024c.015-.036.063-.074.13-.1a.026.026 0 0 0 .014-.034.026.026 0 0 0-.033-.015m-9.248 22.115l-.8.846-2.264 2.409a.092.092 0 0 0 .003.13.094.094 0 0 0 .132-.005l2.261-2.407.802-.846a.092.092 0 0 0-.004-.13.091.091 0 0 0-.13.003m9.988-3.698c-.035.015-.066.061-.05.096.015.034.04.055.074.04l.16-.07c-.035.015-.084.004-.1-.03-.015-.035-.008-.072.026-.087zm3.078.698l-1.128.696c-1.39.855-2.826 1.738-4.184 2.662a.073.073 0 0 0 .081.121c1.356-.922 2.79-1.804 4.178-2.658l1.13-.697a.073.073 0 0 0 .024-.1.073.073 0 0 0-.1-.024M27.116 25a1.508 1.508 0 0 1-.256.3l-.052.053a.043.043 0 0 0 0 .06.042.042 0 0 0 .06 0l.051-.052c.098-.096.198-.195.27-.318a.043.043 0 0 0-.014-.058.042.042 0 0 0-.059.015m-2.002 2.23a7.86 7.86 0 0 1-.648.716l-.432.455a.09.09 0 0 0 .005.127.093.093 0 0 0 .13-.005l.427-.449c.226-.23.46-.47.662-.733a.092.092 0 0 0-.017-.128.09.09 0 0 0-.127.017m13.924-2.958l-.022.048c-.028.062-.054.122-.103.151a.062.062 0 0 0 .062.108c.084-.05.121-.134.154-.209l.02-.044a.063.063 0 0 0-.03-.084.061.061 0 0 0-.08.03m-10.71-.886c-.03.114-.107.2-.213.297a.04.04 0 0 0-.002.056.039.039 0 0 0 .055.003c.094-.085.197-.188.237-.336a.038.038 0 0 0-.028-.048.04.04 0 0 0-.048.028m4.875.038l-.071.09a.52.52 0 0 0-.137.238.03.03 0 0 0 .023.034.028.028 0 0 0 .034-.024.47.47 0 0 1 .123-.21l.075-.095c.01-.012.007-.028-.006-.038-.012-.01-.032-.007-.041.006m1.227-1.5l-.016.034-.046.104a.06.06 0 0 0 .033.08.062.062 0 0 0 .083-.033l.043-.099.016-.034a.063.063 0 0 0-.03-.083.063.063 0 0 0-.083.031m9.498 4.036c-.085.588-.117 1.188-.148 1.768-.033.622-.067 1.265-.167 1.89a.054.054 0 0 0 .045.062.054.054 0 0 0 .062-.045c.1-.63.135-1.277.169-1.901.03-.578.063-1.176.147-1.758a.055.055 0 0 0-.046-.062.055.055 0 0 0-.062.046m-5.32-.295a.037.037 0 0 0-.014.05c1.245 2.289 2.544 4.421 4.72 5.368a.037.037 0 0 0 .05-.02.037.037 0 0 0-.02-.05c-2.156-.936-3.446-3.056-4.685-5.333a.037.037 0 0 0-.05-.015M28.02 27.05l-.321.122c-.213.076-.434.154-.629.287a.029.029 0 0 0-.007.04.029.029 0 0 0 .04.008c.188-.129.406-.206.615-.28l.325-.124c.015-.005.021-.022.016-.037a.03.03 0 0 0-.039-.016m-1.914 1.917a.03.03 0 0 0-.015.042.031.031 0 0 0 .041.016c.199-.093.525-.171.787-.09a.032.032 0 0 0 .02-.06c-.28-.087-.624-.005-.833.092m-.164-1.02c-.273.16-.614.423-.693.769a.037.037 0 0 0 .03.046.037.037 0 0 0 .045-.028c.072-.32.397-.568.657-.721a.038.038 0 0 0 .013-.053.038.038 0 0 0-.052-.013m6.223-6.609l-.399.376-.184.163a.04.04 0 0 0-.003.057.042.042 0 0 0 .057.002l.183-.162.405-.382c.016-.016.014-.038 0-.054s-.043-.015-.06 0m-3.95-.011l-.305.19-.192.127a.044.044 0 0 0-.014.06c.013.02.038.028.058.014l.197-.129.296-.185c.02-.013.03-.041.017-.062-.013-.02-.036-.028-.057-.015m-.205-.588c-.442.29-.867.613-1.277.926l-.042.031a.083.083 0 0 0 .1.132l.041-.032c.408-.311.83-.633 1.268-.92a.082.082 0 1 0-.09-.137m-2.705 1.965l-.24.183-.322.254c-.039.03-.04.083-.009.122.032.04.095.041.134.01l.302-.237.253-.192c.04-.031.044-.085.013-.126-.03-.04-.09-.044-.131-.014m31.834-3.247l-.64.176c-.4.104-.812.212-1.208.366a.036.036 0 0 0-.02.047.035.035 0 0 0 .046.02c.391-.154.803-.262 1.2-.365l.642-.177a.034.034 0 0 0 .024-.042.036.036 0 0 0-.044-.025m-.625.554l-.388.138c-.247.085-.502.172-.743.287a.079.079 0 0 0-.038.105.079.079 0 0 0 .105.038c.233-.11.484-.196.727-.28l.392-.14a.078.078 0 0 0 .047-.1.08.08 0 0 0-.102-.048m-25.689-.794l-.077.098-.044.06c-.027.037-.026.096.01.124.037.027.083.027.11-.01l.063-.082.05-.067c.028-.036.03-.098-.005-.126-.036-.028-.078-.033-.107.003m-.579-.077l-.21.163c-.109.073-.22.148-.298.262a.07.07 0 0 0 .017.097.069.069 0 0 0 .097-.018.935.935 0 0 1 .26-.225l.234-.182c.03-.023.028-.06.005-.091-.023-.03-.074-.03-.105-.006m2.913-1.94a.035.035 0 0 0-.03.038c.014.11-.047.182-.118.264-.05.057-.101.116-.128.195a.034.034 0 0 0 .02.043.034.034 0 0 0 .045-.022.532.532 0 0 1 .114-.171c.075-.087.153-.176.134-.318a.034.034 0 0 0-.037-.03m12.068.716a.578.578 0 0 1-.21.036c-.118.006-.253.013-.346.136a.045.045 0 1 0 .07.054c.069-.09.167-.095.28-.1a.64.64 0 0 0 .243-.045.045.045 0 1 0-.036-.08m-12.762-1.166a.366.366 0 0 1-.159.241.046.046 0 0 0-.015.063.045.045 0 0 0 .061.015c.1-.06.173-.169.201-.3a.045.045 0 0 0-.034-.054.044.044 0 0 0-.054.035m-.894.122a.071.071 0 0 0-.044.09l.03.091a.072.072 0 0 0 .09.045.071.071 0 0 0 .044-.09l-.03-.09a.07.07 0 0 0-.09-.046m1.925-.1c-.076.146-.209.26-.337.37l-.043.037a.071.071 0 0 0 .092.109l.043-.037c.14-.12.282-.242.37-.413a.07.07 0 0 0-.029-.096.07.07 0 0 0-.096.03m-.348.398a.766.766 0 0 0-.434.272.064.064 0 1 0 .1.08.63.63 0 0 1 .362-.226.065.065 0 0 0 .049-.076.065.065 0 0 0-.077-.05m9.463-3.608a.072.072 0 0 0 .047.09c.612.197 1.171.565 1.69.925a.072.072 0 0 0 .101-.019.073.073 0 0 0-.018-.1c-.528-.367-1.098-.742-1.73-.943a.072.072 0 0 0-.09.047m-.307 2.433c-.023.009-.032.04-.024.064l.092.25.088.245c.009.023.032.03.055.022s.033-.04.024-.063l-.081-.23-.099-.267c-.008-.024-.032-.03-.055-.02m-2.124-2.307v.135a.07.07 0 1 0 .14 0v-.135a.07.07 0 0 0-.14 0m4.382.208a.084.084 0 0 0 .01.117l.053.045.017.016a.081.081 0 0 0 .114-.006.082.082 0 0 0-.006-.116l-.016-.014-.06-.052a.08.08 0 0 0-.112.01m-3.092-.678a.056.056 0 0 1-.077.024c.118.062.246.088.372.112l.137.028a.058.058 0 0 0 .069-.043.055.055 0 0 0-.043-.068l-.141-.03a1.255 1.255 0 0 1-.34-.1.056.056 0 0 1 .023.077m1.903-.245a.047.047 0 0 0-.01.065c.124.173.323.277.498.369a.047.047 0 0 0 .063-.02.048.048 0 0 0-.02-.063c-.166-.087-.354-.185-.466-.34a.047.047 0 0 0-.065-.011m-3.675.097l-.36.06a.079.079 0 0 0-.065.09.076.076 0 0 0 .088.063l.36-.06a.079.079 0 0 0 .065-.09.076.076 0 0 0-.088-.063m1.204-1a.071.071 0 0 0 .045.09l.09.03a.071.071 0 0 0 .09-.045.07.07 0 0 0-.045-.09l-.09-.03a.071.071 0 0 0-.09.045m.697-1.68a33.41 33.41 0 0 1-1.438 1.262.034.034 0 0 0-.006.049.034.034 0 0 0 .049.004c.524-.428 1.023-.88 1.441-1.265a.035.035 0 0 0-.046-.05m-2.1-.64a8.974 8.974 0 0 0-1.356.498.034.034 0 0 0-.017.045.034.034 0 0 0 .045.017c.39-.173.856-.368 1.345-.495a.034.034 0 0 0 .024-.04.034.034 0 0 0-.041-.025m13.121.278l-.402.404a.08.08 0 0 1 .114.002.083.083 0 0 1-.002.116l.408-.41a.08.08 0 0 0-.001-.113.084.084 0 0 0-.117.002m-1.01 1.059l-.38.426-.235.273a.09.09 0 0 0 .007.125.085.085 0 0 0 .121-.007l.24-.279.369-.413c.032-.036.033-.095-.003-.128-.035-.031-.086-.033-.118.003m-2.524 2.704c-.05.022-.081.035-.114.02a.037.037 0 0 0-.049.019.037.037 0 0 0 .018.049c.065.03.124.003.176-.02.043-.02.08-.038.12-.024a.037.037 0 0 0 .047-.023.037.037 0 0 0-.023-.047c-.067-.023-.125.003-.175.026m-1.091.525l-.294.183-.833.54a.03.03 0 0 0-.007.042c.009.015.029.017.043.008l.83-.537.294-.184a.03.03 0 0 0 .01-.043.03.03 0 0 0-.043-.01m6.817-8.486l-.062.126c.008-.018.033-.03.05-.022.018.01.028.026.02.044l.049-.1c.01-.019.006-.048-.012-.057-.018-.009-.035-.009-.045.01m-4.229 3.346l-.568.208c-.41.146-.834.3-1.235.493a.044.044 0 0 0-.02.06.044.044 0 0 0 .058.02c.397-.193.819-.344 1.227-.49l.57-.209a.043.043 0 0 0 .025-.056.044.044 0 0 0-.057-.026m-4.216 1.774l-.123.07c-.013.009-.019.026-.011.04.007.012.023.018.036.01l.127-.073c.12-.074.234-.144.375-.127a.027.027 0 0 0 .03-.024.028.028 0 0 0-.024-.031c-.159-.019-.287.06-.41.135m-7.517 13.323a.07.07 0 0 0-.066.073l.002.03.023.187c.004.038.037.057.075.052.038-.005.063-.048.059-.086l-.02-.159v-.03a.069.069 0 0 0-.073-.067m11.851-10.798c-.004.018.009.037.027.042l.114.029c.08.023.165.046.254.039a.033.033 0 0 0 .032-.036.034.034 0 0 0-.037-.032c-.078.006-.152-.015-.23-.036l-.121-.03c-.018-.005-.034.006-.039.024m9.444-3.92a.073.073 0 0 0-.044.092c.158.446.252.828.296 1.204a.073.073 0 0 0 .144-.017A5.649 5.649 0 0 0 60.24 9.6a.072.072 0 0 0-.093-.045m.298 2.543l-.033.12-.042.152c-.01.038.014.067.052.077.038.01.08-.022.09-.06l.034-.12.042-.151c.01-.038-.015-.067-.052-.077-.038-.012-.08.02-.09.06m-.394.65c-.547.706-1.151 1.368-1.735 2.008-.47.515-.956 1.047-1.415 1.604a.056.056 0 0 0 .009.08.056.056 0 0 0 .079-.008c.456-.555.941-1.086 1.41-1.6.586-.641 1.191-1.305 1.74-2.014a.056.056 0 0 0-.009-.079.056.056 0 0 0-.079.01m-8.13 8.944l-.405.192c-.36.168-.731.342-1.085.548a.067.067 0 0 0-.023.092.066.066 0 0 0 .09.024c.349-.204.717-.376 1.074-.543l.407-.192a.066.066 0 0 0 .032-.089.067.067 0 0 0-.09-.032m-1.947 2.222c-.041.084-.013.16.012.225l.028.112c.006.025.033.05.057.045.025-.006.042-.02.035-.045l-.033-.144c-.024-.065-.038-.107-.016-.151a.047.047 0 0 0-.021-.063.046.046 0 0 0-.062.021m-3.525-1.127a.06.06 0 0 0 .037.075c.854.29 1.722.924 2.38 1.742a.059.059 0 0 0 .084.009.059.059 0 0 0 .008-.083c-.672-.835-1.56-1.483-2.434-1.78a.06.06 0 0 0-.075.037m1.19-3.985a.048.048 0 0 0 .006.067c.176.15.389.254.595.354l.4.214c.023.012.055.006.067-.018s.006-.05-.017-.061l-.41-.22c-.2-.098-.407-.199-.574-.342a.047.047 0 0 0-.067.006m-.685-.283a.032.032 0 0 1-.046-.004c.06.07.14.098.219.123l.063.022a.034.034 0 0 0 .043-.02.032.032 0 0 0-.019-.041l-.067-.023c-.073-.024-.142-.046-.19-.102a.033.033 0 0 1-.003.045m16.87-14.557l-.018.242c.003-.037.036-.073.074-.07.039.003.067.03.065.068l.014-.209c.002-.039-.025-.083-.064-.085-.037-.002-.069.016-.072.054m-.282 1.893c-.482 2.066-1.447 4.074-2.79 5.808a.081.081 0 0 0 .014.115.082.082 0 0 0 .115-.014c1.358-1.753 2.333-3.783 2.82-5.871a.083.083 0 0 0-.06-.1.082.082 0 0 0-.1.062M57.61 6.91a.066.066 0 0 0 .02.091c.878.547 1.459 1.046 1.885 1.618a.066.066 0 0 0 .093.013.067.067 0 0 0 .014-.093c-.437-.586-1.03-1.095-1.922-1.651a.066.066 0 0 0-.09.022m-2.834-1.072a.066.066 0 0 0 .05.08l.082.02c.39.09.793.183 1.145.37a.067.067 0 0 0 .062-.117c-.367-.195-.778-.291-1.176-.384l-.082-.019a.067.067 0 0 0-.08.05m-2.583-.39a.071.071 0 0 0 .065.077l.345.033c.736.069 1.497.14 2.217.363a.071.071 0 0 0 .089-.046.072.072 0 0 0-.048-.09c-.734-.228-1.501-.3-2.244-.369l-.346-.032a.072.072 0 0 0-.078.064m-6.276.565c-.947 1.077-2.218 2.476-3.642 3.745a.033.033 0 0 0-.003.045.033.033 0 0 0 .046.003c1.426-1.27 2.698-2.672 3.647-3.75a.032.032 0 1 0-.048-.043M47.293 4.5l-.143.155c-.174.189-.355.384-.511.593a.03.03 0 0 0 .046.035c.155-.207.335-.4.508-.588l.144-.155a.03.03 0 0 0-.002-.041.029.029 0 0 0-.042 0M41.028 9.73a.044.044 0 0 0 .002.062c.082.078.185.106.285.133l.048.013a.045.045 0 0 0 .054-.03.044.044 0 0 0-.03-.055l-.05-.014a.54.54 0 0 1-.247-.111.044.044 0 0 0-.062.002m-1.835-.281l-.452.2c-.233.09-.473.186-.68.346a.046.046 0 0 0-.008.064.046.046 0 0 0 .065.008c.195-.152.43-.245.657-.333l.462-.205c.023-.01.03-.035.02-.059-.011-.023-.041-.031-.064-.021m-7.343 3.314a.036.036 0 0 0 .007.051.39.39 0 0 0 .19.062l.131.032c.02.005.047-.004.052-.024.004-.02 0-.037-.02-.041l-.153-.04c-.059-.008-.113-.015-.156-.047a.036.036 0 0 0-.05.007m-1.85.437c-.035.027-.09.012-.116-.022l.134.173c.026.035.064.03.099.003s.03-.089.003-.124l-.1-.133c.026.035.014.077-.02.103m.84 1.447a.087.087 0 0 0-.047.113c.257.62.427 1.104.552 1.57a.086.086 0 1 0 .167-.045 12.416 12.416 0 0 0-.559-1.591.086.086 0 0 0-.113-.047M7.598 34.93a.73.73 0 0 0-.19.285.037.037 0 0 0 .024.046.037.037 0 0 0 .045-.023.654.654 0 0 1 .171-.257.036.036 0 0 0 0-.05.035.035 0 0 0-.05-.001m.486 3.744l-1.152 1.31-.722.832a.097.097 0 0 0 .009.136.095.095 0 0 0 .134-.008l.724-.835 1.148-1.304a.098.098 0 0 0-.008-.138.093.093 0 0 0-.134.007m7.28-7.006c-.042.074-.124.101-.21.13l-.189.089c-.013.006-.013.018-.007.032.006.014.027.016.04.01l.172-.08c.092-.03.188-.063.24-.154a.026.026 0 0 0-.01-.036.026.026 0 0 0-.036.01m5.261 1.226l-.23.46a.068.068 0 0 0 .031.092.073.073 0 0 0 .097-.033l.23-.46a.069.069 0 0 0-.032-.093c-.034-.018-.078 0-.096.034m-1.421 2.145c-.108.029-.187.105-.264.18l-.106.095c-.013.011-.016.032-.004.045s.028.014.04.003l.112-.1c.074-.071.145-.14.238-.166.016-.004.026-.021.021-.036a.03.03 0 0 0-.037-.021m-1.001.73l-.112.101c-.14.128-.286.261-.448.37a.028.028 0 0 0-.007.04.028.028 0 0 0 .04.008c.165-.112.312-.246.453-.375l.112-.102a.029.029 0 0 0 .002-.04.03.03 0 0 0-.04-.003m.997.009l-.189.389c-.084.153-.169.31-.224.482a.076.076 0 0 0 .05.095.075.075 0 0 0 .094-.05c.051-.157.133-.308.213-.454l.197-.41c.019-.037 0-.076-.037-.094-.038-.018-.086.005-.104.042m.638-1.371l-.055.125-.052.107c-.018.037-.018.102.02.12.035.02.065.025.085-.01l.09-.17.036-.086c.016-.038.006-.096-.032-.111-.038-.017-.074-.012-.092.024m18.244-10.178a.028.028 0 0 0-.019.035l.027.085c.07.233.144.473.292.69a.029.029 0 0 0 .04.007.028.028 0 0 0 .007-.039c-.143-.21-.215-.446-.285-.674l-.026-.086a.029.029 0 0 0-.036-.018m5.354 7.015l-.066.457-.144.94a.073.073 0 0 0 .06.083.07.07 0 0 0 .08-.058l.143-.944.066-.457a.07.07 0 1 0-.139-.021m.285-.05a.043.043 0 0 0 .025.055c.861.324 1.694.323 2.286-.003a.043.043 0 0 0 .016-.058.042.042 0 0 0-.057-.016c-.57.313-1.377.312-2.215-.003a.043.043 0 0 0-.055.024m5.709-6.157a.04.04 0 0 0-.008.056l.073.1c.19.256.385.521.63.72a.04.04 0 0 0 .057-.006.04.04 0 0 0-.005-.056c-.239-.193-.431-.454-.618-.706l-.073-.1a.04.04 0 0 0-.056-.008m.909 1.494l-.121.154c-.244.305-.526.658-.526 1.021 0 .184.078.372.266.555l.058.432c.003.026.026.038.051.035.026-.004.043-.033.04-.058l-.028-.21-.034-.245-.01-.005c-.522-.492-.108-1.01.256-1.467l.122-.155a.046.046 0 0 0-.008-.065.047.047 0 0 0-.066.008m.23-.005a.047.047 0 0 0-.001.066c.16.165.296.357.427.542.155.22.316.447.52.634a.047.047 0 0 0 .066-.004.047.047 0 0 0-.004-.065c-.196-.18-.354-.403-.506-.619a4.509 4.509 0 0 0-.436-.554.046.046 0 0 0-.066 0m.192-3.52a.068.068 0 0 0 .01.097c.845.664 1.504 1.309 2.017 1.972a.068.068 0 0 0 .108-.085c-.519-.672-1.186-1.325-2.039-1.996a.068.068 0 0 0-.096.012m.097-.106l-.03.051-.044.067c-.013.02-.012.053.007.066.02.013.042.014.055-.005l.057-.086.026-.044c.012-.02.007-.05-.013-.062-.02-.012-.045-.008-.058.013m-.446-.18a.067.067 0 0 0-.01.095c.114.143.272.239.384.293a.066.066 0 0 0 .088-.03.066.066 0 0 0-.03-.09.99.99 0 0 1-.339-.257.066.066 0 0 0-.093-.01m10.76 2.972c-.18.156-.426.347-.724.43a.031.031 0 0 0-.022.038.031.031 0 0 0 .04.022c.309-.087.561-.282.746-.443a.032.032 0 0 0 .004-.044.032.032 0 0 0-.045-.004m-1.623-6.194a.079.079 0 0 0 .011.11c.194.16.364.36.529.555l.076.09a.078.078 0 1 0 .118-.102l-.076-.09c-.169-.198-.344-.405-.548-.574a.078.078 0 0 0-.11.011m-2.318-.916c-.008.043.015.082.057.091l.34.066c.195.033.378.063.548.14a.078.078 0 0 0 .103-.039.078.078 0 0 0-.04-.103c-.187-.085-.39-.119-.586-.152l-.326-.063c-.043-.009-.088.018-.096.06m3.083-5.694l-.119.335c-.055.17-.108.33-.187.482a.033.033 0 1 0 .06.03c.08-.157.136-.327.19-.49l.118-.332a.034.034 0 0 0-.02-.044c-.017-.006-.036.002-.042.019m-4.224 8.633l-.07-.006.02.046.018.003c.039.004.077.031.128.074a.03.03 0 0 0 .042-.004.031.031 0 0 0-.003-.043c-.059-.05-.106-.082-.16-.089zm-40.415-3.42a.07.07 0 0 0-.024.095c.051.085.15.18.261.169a.068.068 0 0 0 .061-.076.068.068 0 0 0-.074-.06c-.037.003-.093-.04-.13-.104a.069.069 0 0 0-.094-.024m14.61-2.505c-.03.007-.04.035-.033.065.007.03.045.045.076.038l.142-.034c-.03.007-.053-.012-.06-.043-.008-.03.017-.06.047-.068zm.897-5.117l-.002.03-.011.095c-.005.039.021.08.059.085.038.005.071-.014.076-.053l.014-.118.003-.028a.07.07 0 1 0-.14-.01m31.724 4.513c-.848.368-1.783.418-2.686.468l-.575.034a.047.047 0 0 0 .007.094l.572-.034c.912-.05 1.856-.1 2.72-.475a.047.047 0 0 0 .024-.063.047.047 0 0 0-.062-.024M16.826 33.893c.77.24 1.628-.568 1.035-1.4-.13-.181-.624-.357-.9-.315-1.012.153-.845 1.495-.135 1.715M1.21 20.8c.083-.156-.022-.24-.045-.406-.624-.156-.388.67.045.406m26.011-5.328c-.031.695 1.114.62 1.125.09.007-.335-.503-.591-.855-.451-.25.1-.264.242-.27.36m-3.33-.495c-.064.677 1.037.677.945 0-.038-.278-.376-.434-.675-.317-.185.073-.254.15-.27.317m-4.366-8.806a.292.292 0 0 0 .226-.044c.027-.178-.101-.2-.226-.226-.06.057-.06.213 0 .27m-2.587 30.727l-.022-.067c-.196-.016-.237.124-.27.27h.045v.046c.12-.06.294-.067.315-.226zm-1.305-7.811l.022.067c.236-.34.647-.135 1.036-.135.962.002 1.581-.603 1.305-1.761-.654-.296-1.478-.084-1.845.407-.309.41-.213 1.065-.586 1.444zm11.948-4.041c-.087.167 0 .335.09.451h.315c.134-.092.232-.458.18-.587-.122.118-.516-.036-.585.136m29.927-2.98v.044c0 .724 1.167.863 1.215.181.027-.382-.285-.683-.9-.587-.142.099-.245.236-.36.362zm-1.35-6.548v.046c.073.426.74.457.9.09-.155.003-.159-.261-.36-.316-.208-.057-.482-.013-.585.18zm-4.636-1.67c-.06-.224-.212-.07 0 0m-29.476-2.393v.045c.003.078-.01.14-.045.18v.045h-.045c.156.066.54-.028.675-.135.066-.247-.115-.246-.18-.361-.174.05-.365.085-.45.225zm-2.97.36c.005.082-.055.096-.045.182-.138-.035-.185-.215.045-.181m-.676-.993c-.146.429-.5.491-.674.812-.51.933.193 2.01 1.035 2.032.97.026 1.82-1.158 1.62-2.302-.064-.369-.387-.363-.63-.678-.266-.038-.528-.052-.766 0-.104.023-.302.216-.314.045.024 0 .05-.037 0-.045a.448.448 0 0 1-.27.136m14.806 12.687c1.03.116.538-1.19-.09-.542-.005.186-.01.37.044.497l.068-.022zm1.17-1.49c-.168-.092-.283.016-.45.046-.02.246.019.432.18.496.303.023.533-.233.405-.496l-.083.022zm-7.29 5.419c-.74-.695-1.33.69-.406.587.276-.031.361-.24.45-.542h-.045zm-.227-2.122c-.012-.005-.032.006-.044 0-.793-.397-1.115.287-1.08 1.128-.209.287-.543.448-.63.858l.08-.016.055.062c.4-.073.508-.507.765-.723.102-.085.24-.083.315-.135.331-.23.492-.674.585-1.085l-.067-.022zm4.771-3.477c-.565.08-.724.567-1.035.903.176.4.612.145.63-.226.18-.166.387-.304.45-.587l-.067-.023zm10.756-5.78c.1-.47-.641-.637-.586-.09.083.128.339.082.496.135l.022-.067zm-.495-2.664a.663.663 0 0 0 .81.271l-.023-.083.068-.052c-.202-.175-.46-.29-.855-.271l.022.067zm1.935 0c.153.313.46.471.765.632l.031-.076.059-.06c0-.472-.35-.711-.81-.586l.023.068zm8.415-2.98c-.26.175-.513.359-.63.677l.059.06.032.076c.238-.197.509-.362.63-.677l-.059-.059zm-2.205 9.933c-.003.122-.103.218-.18.136-.014-.119.063-.148.18-.136m-1.394-.902c.116.71-.037 1.692.134 2.348.466.19.8.342 1.305.27.122-.017.035-.085.045-.09.06-.03.164.029.225 0 .36-.165.71-.525.81-.858.319-1.059-.302-1.577-.675-2.077-.077-.264.225-.317.09-.496-.082-.173-.38-.13-.63-.136-.234.137-.177.352-.36.497-.14.11-.29.064-.45.135-.183.081-.279.22-.45.317h-.044l.022.044zm-1.486-.813c.145.11.25.26.495.27l.023-.067.068.023c-.02-.29-.297-.457-.54-.272v.046zm12.33-10.069c.144.443.404.769.63 1.129l.053-.068.083.023c-.065-.523-.284-.89-.63-1.13l-.055.062zM45.943 6.08c.345-.18.629-.422.765-.812h-.045V5.22c-.366.16-.6.452-.765.813h.045zm-6.75 3.477c.12.026.281-.133.36 0 .109.105-.071.12-.09.226h.045v.045c.509-.103 1.051-.089 1.575 0l-.023-.068.068-.022c.03-.541.53-.612.405-1.31-.218-.246-.572-.47-.9-.45-.789.042-.897 1.198-1.485 1.489l.067.022zm-7.246 3.251c.037-.198-.46-.285-.45-.045.022.117.307.201.405.09l-.022-.068zm-1.934.271c-.06-.261-.34-.329-.361-.587-.015-.205.2-.316.18-.587-.027-.22-.419-.189-.27-.451-.265.04-.285-.166-.45-.226-.655.257-1.159-.348-1.71-.045.136.529.726.37 1.08.541.658.32.912 1.066 1.44 1.49l.032-.076zm.945 1.67c-.246-.55-.312-1.282-.856-1.535l-.03.077-.06.06c.161.59.589.914.81 1.444l.053-.068zM6.25 40.803c-.266.374-.774.679-1.17 1.174-.261.326-.474.733-.765 1.083-.28.337-.558.743-.855.994-.23.195-.498.294-.675.497-.145.165-.363.537-.405.722-.324 1.41 1.393 1.976 2.025.948.15-.801-.145-1.567-.45-2.167.68-1.153 1.673-1.994 2.385-3.116l-.058-.059zm9.136-9.076c.169-.041.323-.097.45-.18-.138.001-.23-.042-.27-.136-.176-.01-.163.168-.226.27h.046zm12.33-10.114c-.266.23-.68.31-1.035.451-.04-.174.11-.16.135-.27l-.076-.032-.059-.059c-.129.01-.233.14-.27.181-.043.048-.081.004-.135.045-.127.097-.15.207-.18.226.012-.008-.044-.035-.09 0-.24.184-.438.33-.72.587l.077.031.058.06c.203.003.268-.308.45-.181-.077.135-.22.364-.046.496 1.08.118 1.436-.877 1.981-1.445l-.067-.022zm-8.865 13.681c-.39 0-.604.178-.675.497h.045v.045c.404.015.594-.186.674-.496h-.044zm-.046 1.31c-.066.204-.276.316-.36.542-.142.386-.07.84-.27 1.174-.229.383-.698.55-.854.993-.245.693.07 1.563.72 1.625 1.006.097 1.235-1.107.944-1.76-.15-.339-.511-.436-.54-.813-.024-.334.31-.605.406-.948.074-.27-.022-.483.09-.768l-.083.022zm.946-1.987c-.162.184-.446.245-.585.451h.044v.046c.19.133-.042.374 0 .632l.06.058.03.077c.282-.275.398-.716.54-1.129l-.058-.059zm.855-.723c-.02-.16-.12-.24-.09-.45l-.058-.06-.032-.077c-.312.244-.705.407-.586 1.084l.06.06.03.076c.214-.207.527-.315.72-.542l-.067-.023zm18.09-8.172c-.25-.458.142-.781.27-1.129l-.021-.068.021-.067h-.044l-.045.09-.09-.046c-.147.14-.164.408-.405.452l.022.068-.067-.023c-.01.306-.38.477-.496.678-.111.194-.093.426-.224.677-.155.296-.491.635-.765.994-.533.695-1.08 1.325-1.576 1.986-.274.366-.507.8-.764 1.038-.152.141-.366.207-.496.317-.362.307-.663.691-.72 1.219-.111 1.034.578 1.376 1.125 1.806.189.148.654.571.945.632.83.172 1.235-.467 1.17-1.039-.052-.464-.394-1.105-.674-1.625-.109-.2-.28-.445-.45-.678-.187-.256-.463-.448-.45-.722.01-.219.467-.68.675-.948.289-.374.529-.707.72-.948.739-.933 1.337-2.011 2.295-2.619l-.023-.068zm4.546 6.863c-.373 1.167-.294 2.603-1.08 3.251-.392.323-2.089.422-2.34.813-.262.406.128 1.178.54 1.264.706.149 1.634-.453 1.98-.903.192-.25.463-.739.54-1.083.065-.294.031-.594.09-.859.181-.816.351-1.472.405-2.438l-.083.023zm2.745-1.31c.328-.007.596-.57.18-.677-.092.179-.075.467-.225.587l.068.023zm-2.34-1.715c-.262.324-.026 1.147-.315 1.444v.046h-.045c.05.07.146.094.135.225l.082-.021.053.067c.06-.015.086-.065.18-.046l.022-.067.068.023c-.003-.388.318-.363.315-.633-.003-.314-.511-.406-.405-.993l-.068.023zm-10.62-5.802l-.045-.023c-.157.199-.376.01-.45-.135.155-.401.281-.832.495-1.174-.114-.249.073-.549.18-.723.415-.155 1.093-.128 1.215.271l.067-.022.023.067c.308.053.556.4.675.723.155.421.133.97.135 1.535a3.73 3.73 0 0 1-1.215.362c-.166-.361-.516-.675-.99-.588-.172-.084.002-.28-.045-.316zm-4.995 3.319v.045c-.01.348-.33.53-.54.812-.234.314-.33.769-.585.903l.022.068-.068-.023c.058.324-.679.497-.674.091l-.068.022.022-.067c-.32.005-.608-.022-.81-.136v-.09l-.045.023-.044-.023c-.163.2-.797.164-1.081.09-.088-.084-.013-.165 0-.27l-.058-.06-.032-.076c-.199.311-.547.337-.9.496-.368.167-.787.645-1.17.362.044-.425.377-.71.63-.993.256-.288.492-.63.766-.903.37-.373.857-.583 1.259-.904.22-.175.34-.455.54-.677.465-.516 1.234-.901 1.62-1.355.369-.052.34.375.27.633l.068-.023.022.068c.623-.173.674-.92 1.036-1.355l-.068-.023.023-.067c-.132-.038.026-.146 0-.226h.134l.068-.023.023.067c.157-.217.437-.312.72-.405.214-.681.816-1.077 1.394-1.49.556-.397 1.26-1.06 1.62-.225l.069.021-.023.069c.255-.087.566.069.675.27-.174.56-.3 1.137-.496 1.716-.098.295-.176.643-.314.903-.151.284-.412.363-.54.632-.243-.017-.362.163-.54.136-.312-.048-.37-.447-.54-.723-.252-.408-.598-.489-.766-.767-.314.136-.41-.3-.72-.226-.225.054-.191.28-.27.497-.136.377-.301.735-.224 1.128.05.26.438.728.45.994.028.666-.478.806-.9 1.084zm17.213-9.122l-.023.046c.237.289.88.17 1.08.496a.964.964 0 0 1-.404.587c-.705-.075-.942-.418-1.126-.948l-.067-.022.022-.068a.556.556 0 0 1-.27-.451c.001-.08.473-.987.54-1.039.3-.234.493-.016.63.09.08.637-.347.764-.405 1.264zm-11.686-1.15l.053.067c.075-.019.202-.213.27-.09.733.525-.009 1.818-.855 1.58-.09-.173-.216-.453-.045-.632l-.067-.023-.023-.067c-.067-.009-.042-.11-.045-.181l-.083.022-.052-.067c-.076.074-.202.098-.27.18-.197-.136-.075-.322-.045-.541l-.068-.023.022-.068c-.274-.035-.423.056-.54.18-.123.02-.042-.168-.134-.18l-.053.067-.082-.021c.25.865-.093 1.562-.765 1.76-.212-.029-.213-.268-.45-.271-.067.024-.114.067-.18.09-.046.257.134.287.09.543l.058.058.032.077c.204-.096.308-.293.584-.316.049.168-.111.129-.09.27l.059.06.031.077c.176-.126.264-.339.405-.497.092.013.12.09.18.135-.1.366-.264.668-.675.722v-.226l-.058-.057-.031-.077c-.184.227-.428.616-.856.45v-.225l-.082.023-.052-.068c-.217.116-.234.07-.496 0-.28.2-.406.556-.81.632-.19-.2-.452-.329-.72-.452-.315-.476.39-.778.72-.993.935-.607 2-1.313 2.746-1.806h.27c.01.05.05.07.09.09l.052-.068.083.023c-.092-.553.69-.652.764-.18l.069-.023.022.067c.23-.25.746-1.45 1.215-.903.136.16-.018.278-.045.452-.212-.025-.356-.08-.45.091-.012.207.189.202.225.36zm11.137-2.791l-.059.058c-.024.187-.148.273-.27.362l.023.082-.068.053c.183.185.34.404.36.722.032.5-.224.867-.405 1.084-.039.157-.234.157-.315.271-.08.433-.38.732-.765.722-.488-.012-.57-.432-.675-.902l-.022.067-.067-.023v.272c-.56.101-.607.716-.9 1.083-.227-.043-.376.134-.586-.045-.095-.081-.132-.335-.18-.452-.11-.268-.273-.54-.27-.767.005-.452.597-1.293.81-1.49.155-.143.455-.13.406-.361.023-.22-.298-.093-.405-.18-.499-.3-.601-1.192.134-1.31l-.023-.068.023-.068c.04-.461.633-.194 1.035-.18.383.013.724-.084.9.135l.023-.067.067.022v-.09c.222-.252.988-.123 1.35-.09.135.226.247.474.54.54.08.286-.268.507-.495.633-.064-.01-.076-.074-.135-.09zm-9.014-.844c-.051.234-.219.352-.18.677.245.004.281-.2.54-.18.092.042.125.145.18.225-.195.724-1.05.316-1.62.361-.104-.122-.157-.295-.27-.406.098-.428.537-.514.585-.994.323-.206.656.044.765.317m1.53-1.987c.078.04.117.158.045.226-.096-.068.032-.111-.045-.226m11.07-.678c-.05.101-.074.227-.134.317-.251.026-.43-.022-.54-.136-.075-.423.513-.362.675-.18m-5.22-6.096c.08.033.006.082 0 .136-.08-.034-.007-.083 0-.136m3.465 18.332c-.618-.322-1.586-.433-2.34-.361-.105-.218-.205-.27-.136-.497.094-.31.647-.228.9-.316.121-.043.367-.227.585-.362.237-.145.463-.254.54-.406.13-.254.056-.67.18-.948.086-.192.265-.308.315-.452.078-.221.012-.889.36-.857v-.046h.045c-.135-.386.603-.677.9-.902.323-.245.751-.627.766-1.039.008-.225-.198-.466-.18-.677.017-.21.277-.353.405-.542.117-.174.249-.473.405-.723.198-.319.448-.66.405-.813 0-.025.036-.05.045 0 .125-.31.655-.215 1.035-.27l-.022-.046.022-.044c-.026-.276-.123-.48-.225-.678.16-.321.453-.509.585-.858l-.059-.058-.032-.077c-.372.225-.515.661-.765.993-.26.346-.64.572-.854.948-.079-.003-.14.01-.18.046l.022.044-.022.046c.062.55-.466.891-.72 1.309-.145.239-.162.529-.406.678-.49-.155-1.166-.125-1.17-.768h-.045v-.045c-.07.004-.035.115-.135.09a7.228 7.228 0 0 1-.405-.903c-.273-.048-.306.144-.54.135-.296-.1-.26-.601-.045-.767.41-.184.64.13.856.225.433.191 1.001.18 1.35.452v.09h.044v.046c.314-.168.695-.268.946-.498v-.044h.045c-.01-.051-.05-.07-.09-.09.143-.863-.093-1.775.315-2.348.216-.305.709-.536 1.08-.768.4-.251.812-.471 1.17-.677.367-.212.693-.505 1.035-.723.352-.225.72-.604 1.17-.406-.165.602-.796.737-1.08 1.22l.076.03.059.06c.377-.268.698-.599 1.08-.904.353-.282.72-.68 1.08-.903.596-.37 1.356-.298 1.89-.587.346-.187.492-.73.9-.723l-.022-.082.067-.053v-.135c.524-.664 1.312.105 2.16.09 1.394-.025 2.033-1.537 1.035-2.258-.462-.13-.98-.102-1.395-.044-.255.186-.481.224-.72.45-.328.313-.426.861-.72 1.13-.142.13-.681.396-.81.405-.45.037-.747-.309-1.215-.36l.016.08-.061.055c-.38.66-1.2 1.02-1.98 1.445a10.583 10.583 0 0 1-1.17.542c-.322.126-.978.421-1.26.452-.152.016-.347-.08-.495-.046-.263.061-.39.347-.585.497l.067.023-.022.067c.173-.036.375-.035.45.136-.038.325-.362.484-.585.632-.258.17-.541.303-.766.497-.039.14-.168.192-.27.27-.325-.035-.537-.183-.72-.36-.001-.213.145-.276.135-.497l-.022-.046.022-.045c-.173-.127-.579-.02-.674-.225-.013-.372.265-.68.45-.994.67-1.14 1.353-2.385 2.34-3.115h1.35l-.023-.083.067-.053a4.304 4.304 0 0 0-1.17-.045c-.353-.402-.084-.645.09-.993.274-.547.48-1.183.856-1.536.196-.183.475-.25.675-.406.667-.52 1.135-1.564.495-2.258-.294-.068-.703-.23-1.035-.135-.407.116-.753.651-.81 1.083-.064.48.229 1.008.18 1.49-.039.379-.334.666-.54.994-.292.463-.46.93-.946 1.038-.401.09-.884-.071-1.26 0-.572.11-.955.513-.9 1.265.303.449.982.52 1.17 1.084-.178.373-.414.72-.63 1.083-.21.356-.379.793-.72 1.039-.246-.175-.35-.492-.764-.497-.011.25-.115.554.044.722.04.217.424.086.45.317-.19.47-.334.99-.81 1.174l.068.022-.067.023c-.119.36-.379.64-.586.948-.196.291-.368.662-.72.813-.662-.573.088-.702.496-1.039.232-.194.272-.394.405-.542h-.046V11c-.28-.289-.108-1.034-.674-1.037-.403.492-.412 1.066-.766 1.534-.2.266-.56.373-.765.633-.117.149-.113.42-.315.497-.83.021-1.602.06-1.71-.632-.05-.324.247-.738.225-1.13-.012-.213-.176-.309-.18-.315-.145-.261.103-.647.27-.768h-.045v-.045c-.002-.028-.007-.053-.045-.045-.305-.69-.154-1.51 0-2.394.087-.496.18-1.269.45-1.49.162-.132.433-.099.63-.18.674-.279 1.32-1.039.81-1.851-.458-.317-1.31-.37-1.98-.316.001.272-.355.439-.36.767-.002.166.179.493.27.723.093.234.265.465.27.722.007.282-.155.702-.225 1.038a15.76 15.76 0 0 0-.18 1.13c-.096.721-.143 1.505-.585 1.986l.023.068-.067.022c.083.156.426.245.269.497h.045v.045c.058.003.063.058.135.045.11.718.181 1.608-.72 1.536l.023.082-.068.053c.45.06.356.62.045.722-.27.089-.602-.165-.855-.135-.303.036-.343.232-.495.316l.022.068-.022.067c.253.168.679.163.855.407-.008.142-.084.217-.225.226l-.067-.023-.068-.023c-.547.325-1.178.564-1.755.858-.943-.716.375-1.321.99-1.399l-.067-.053.022-.083c-.19-.058-.356.138-.406-.045-.074-.397.469-.55.63-.858.505.025.882-.08 1.396-.045l-.022-.083.067-.052c-.169-.177-.725.035-.81-.226v-.135h-.045v-.046c-.122.065-.256.29-.405.362-.134.063-.32.021-.54.09-.483.15-.812.588-1.035 0-.079-.208.05-.307.045-.406-.01-.163-.1-.215-.09-.316.017-.172.02-.383.18-.452-.205-.034-.227-.445-.135-.633h-.045v-.225l-.067-.023.022-.067h-.135c-.158-.229-.13-.442 0-.678-.02-.13-.159-.14-.135-.316.217-.188.589-.221.72-.496.002-.258-.214-.298-.225-.542-.067.189-.174.102-.315.045-.326.154-.719.242-.9.541.096.175.303.238.36.452-.216.162-.19.353-.225.632-.453.621-1.105 1.035-2.115.903-.175-.022-.36-.137-.54-.135-.923.012-1.166.914-.81 1.626-.112.118-.296-.096-.315.135.02.25.155.386.405.406.222-.035-.088-.325.135-.361.646.362.178.917-.45.858-.106-.165-.047-.494-.225-.587-.384-.164-.44.324-.675.451-.195 0-.286-.105-.495-.09l.023.068-.068.022c.271.278.635.187.99.362.14.04.132.229.27.27.52-.02 1.218.777.405.904-.145-.051-.127-.264-.18-.407-.427-.07-.744-.386-1.17-.36-.477.027-.646.465-.99.54.173.321-.362.211-.27.588.166.206.363-.074.54.045.126.091.15.215.27.316.252.212.618.196.585.542-.03.312-.782.544-.99.632-.01-.035-.038-.053-.09-.045l-.068.022-.067-.022c-.083.342-.64.602-.99.813-.423.253-.815.457-1.126.632-.826.465-1.394 1.118-2.07 1.49.01-.204-.21-.155-.27-.18-.398-.173-.617-.013-1.034.044-.777.107-1.49.007-1.891.587a1.396 1.396 0 0 0-.18.407c-.12.512.212 1.241.09 1.625-.052.162-.393.41-.54.587-.019.023-.075-.054-.09-.045-.148.093-.307.324-.405.407-.847.709-1.526 1.193-2.205 1.941-.564.62-1.144 1.095-1.575 1.761-.162.25-.356.535-.315.903-.01.235.303.148.27.407-1.08.974-2.235 1.993-3.33 3.07-.222.218-.899.942-1.17.993-.293.056-.593-.11-.855-.09-.55.042-.888.337-1.485.451-.823-.398-1.64-.304-2.206.18-.533.458-.748 1.254-1.26 1.626-.057.063-.212.063-.27 0-.083.293-.451.3-.63.497-.155.037-.172-.067-.315-.045-.026.237.08.342.046.587l.067.023-.022.067c.5.081.398-.442.855-.406.126.275.063.785-.046 1.083-.115.317-.393.63-.764.588-.138-.256-.14-.83-.136-1.084l-.067.023-.022-.068c-.351.12-.377.534-.36.768.029.416.425.928.63 1.444.169.427.351.925.404 1.309l.059.06.031.076c.201-.252.548-.067.765-.18.179-.093.203-.348.27-.542.086-.244.204-.475.18-.678.198-.118.343-.288.45-.496l-.058-.059-.031-.077c-.225.35-.508-.067-.585-.406-.1-.431-.022-1.552.18-1.942.287-.559.837-.283 1.17-.767-.952-.826.811-1.67 1.62-1.13.322.217.766.789.63 1.084l.08-.016.055.062c.69.057.733.393 1.035.948.172.317.414.58.45.813.055.36-.106.759-.09 1.084.07 1.432 1.568 1.613 1.98.586.041-.658-.177-1.056-.225-1.625-.487-.059-.833-.361-1.395-.271-.12-.201-.202-.397-.315-.587-.117-.196-.312-.351-.315-.587-.004-.289.335-.504.54-.903.269-.523.171-1.089.45-1.22h-.045v-.044c.003-.014-.005-.032 0-.045.108-.338.773-.85 1.125-1.174.45-.416.829-.816 1.17-1.13 2.464-2.263 5.111-4.263 7.605-6.275l-.076-.032-.058-.059c-1.535 1.065-2.932 2.266-4.411 3.387-.694-.586.05-1.268.54-1.716 1.056-.963 2.378-2.044 3.15-2.8 0-.025.037-.051.045 0 .33-.255.995-.175 1.396-.36.141-.008.27-.003.315.09.114-.34.55-.403.944-.768.312-.288.437-.851.81-.904.227-.031.446.145.676.271.029.24-.114.308-.225.407l.067.052-.022.084h.135a.397.397 0 0 1 0 .451l.067.022-.022.069h.09c.112.192.114.564.045.812-.504.81-1.258 1.452-1.98 2.122-.827.766-1.712 1.57-2.836 1.942-.107.765-.632.907-1.215 1.31-.35.24-.795.684-1.08.722-.172.023-.356-.078-.495-.09-.573-.05-1.147.109-1.485.496-.296.34-.35 1.047-.315 1.535.38-.006.39.211.72.271.858.156 1.439-.674 1.665-1.264.08-.204.07-.464.18-.678.077-.149.305-.292.45-.406.168-.132.377-.336.54-.271-.174.541-1.222 1.175-.945 1.852.118.285.513.18.63.542-.438.476-.649 1.108-1.035 1.625-.219.293-.547.514-.54.993l.083-.022.052.067c.196-.12.288-.343.45-.496.035-.446.242-.565.45-.858.398-.56.765-1.376 1.215-1.67l-.067-.053.022-.083c-.065-.04-.174-.036-.135-.18.11.112.184-.022.225.135l.022.067.023.068c.493-.059.705-.605 1.035-.768.184-.09.43-.092.63-.09.547.005 1.28.17 1.62.452-.085.44-.485.544-.405 1.038l.068.053-.022.083h.09c.215.098.365.264.674.27.28.292.623.52 1.125.588.184.033.155-.146.36-.09.165.234.413.368.676.315.283-.056.383-.511.584-.677.271-.223.787-.278 1.215-.451.343-.14.852-.332 1.126-.587.139-.13.2-.397.36-.587.146-.173.408-.275.495-.407.045-.068.052-.226.09-.316.136-.317.26-.468.54-.587.158-.474.485-.777.81-1.083-.02-.917.675-.296 1.08-.452.058-.023.232-.142.27-.27.215-.723-.642-.487-.63-.994.006-.242.211-.276.405-.407.272-.692.916-.097 1.62-.18.5-.06.911-.572 1.35-.452l-.022-.067.067.022c.157-.089.522-.06.63.045v.045l.067-.022.068.022c.067-.042.073-.325.09-.045l.083-.022.052.067a37.895 37.895 0 0 0 1.17-1.715c.33-.424 1.193-1.108 2.16-1.22.5-.057 1.087-.023 1.35.362.023.565-.144.94-.584 1.038-.044.238.18.364.224.587.08.406-.012.956-.18 1.264-.106.194-.303.254-.315.452.084.257.401.183.586.316.176.127.204.351.36.497v.045l.066-.023.023.068c.934.273 1.628.015 2.25-.406.007-.228.138-.42.18-.678.111-.669-.096-1.485.09-2.077l-.022-.067zm6.254 2.348c.032.139.032.087 0 .226-.184.112-.315-.094-.45-.181-.47-.304-.874-.611-1.485-.723-.268-.049-.583.045-.764-.225l-.023.068-.067-.023c-.17.28-.598.303-1.035.316l-.046.022-.044-.022c-.378.373-.842.902-1.576.768-.077.007-.176-.256-.18-.045-.237.456-.588 1.36.09 1.444.591.074.744-.597.9-1.129.37-.231.759-.634 1.306-.541l.045.022.044.023c.43-.697 1.258.161.72.722h-.09l.023.068-.067.023c.1.199.29.31.225.677l.067-.023.023.068h.18l.022-.068.068.023c-.096-.33.094-.63.045-.994-.03-.217-.209-.305-.18-.541.693-.145 1.364.112 1.845.677.119.14.217.41.36.632.148.23.345.423.405.587.27.744-.37 1.383-.99 1.354-.258-.011-.45-.305-.36-.586-.038-.161-.111-.006-.27-.045l.022.067-.067.023c.036.19.158.293.18.497-.267.454-.57.873-1.126 1.038.023.263-.012.468-.09.632.327.44.581.646 1.126.632.53-.013 1.005-.561 1.44-.316.148.111.162.378.27.588.133.258.45.59.585 1.038.14.463.135 1.165.36 1.534.178.295.423.413.45.633.035.297-.196.572-.225.903-.052.575.243 1.181.675 1.174.487-.008.726-.722.54-1.31-.142-.448-.542-.547-.585-.993-.024-.24.096-.415.09-.632-.022-.802-.62-1.053-.99-1.535-.314-.408-.475-.792-.675-1.31.167-.289.592-.133.63-.541.027-.297-.388-.501-.45-.858-.052-.3.067-.609.09-.903.034-.428-.151-.858.09-1.13.339.406.543 1.023.81 1.626.24.543.638 1.196.675 1.761.021.323-.146.694-.09 1.083.059.406.359.916.81.903.25-.006.529-.232.585-.496.196-.915-.647-1.261-.945-1.715-.11-.17-.21-.445-.315-.678-.695-1.546-1.55-3.271-2.52-4.425l-.032.077zm-2.34-2.664c-.208.207-.528.04-.81.135-.54.579-.2 1.12.316 1.4l.068-.022.022.067c.052-.114.188-.142.27-.225-.076-.113-.27-.291-.27-.542 0-.241.088-.472.36-.407l.054-.06.08.015c.02-.11-.081-.099-.044-.226l-.023-.068zm9.72-2.168c.81 1.131 1.915 3.772.991 5.419l.038.037.007.053c.754-.452.655-1.261.495-2.303-.214-1.39-.761-2.679-1.44-3.341l-.032.077zm-2.024-1.4c.002.558-.68.432-1.035.632h.045v.046h.18c-.118.334-.626.275-.855.497l.067.052-.022.083c.384-.075.814-.262 1.26-.406.735-.238 1.335-.611 1.845-.136l-.016-.08.061-.055v-.181c.623-.541 1.14.383 1.8.587.754.233 1.096-.354 1.44-.767.159-.192.651-.607.63-.903-.029-.421-.67-.552-.99-.587-.94-.104-1.561.196-2.115.541-.346.216-1.031.736-1.395.768-.388.034-.541-.205-.855-.226l.023.083zm-1.215-2.528c-.16.095-.282.229-.405.361-.371.014-.737-.066-1.035.046-.374.14-.465.528-.72.812-.367.409-.761.452-1.215.632-.49.195-.768.66-.766 1.175.004.525.606.997.45 1.49-.114.363-1.192.58-1.35.857l.068.053-.022.083c1.259-.154 2.524-.687 3.51-1.264l-.022-.068.022-.068c-.046 0-.054-.036-.09-.045-.086-.11-.124-.268 0-.361h-.045v-.046c-.2-.165-.07-.594.045-.768.308-.46 1.283-.63 1.98-.541l-.022-.083.067-.053c-.262-.148-.672.08-.765-.18-.105-.28.127-.633.135-.994.003-.137-.072-.33-.045-.451.053-.236.286-.305.315-.497l-.067-.022zm3.465-4.019c-.146.125-.235.306-.36.452l.068.022.022.068h.18v.045h.045v.046c.088-.168.167-.345.18-.587l-.082.022zm.45-.677h-.135c-.182-.163-.016-.676-.18-.858l-.052.068-.083-.022c.025.426.066.837.045 1.308l.083-.022.052.068c.11-.13.229-.252.315-.406l-.067-.053zm2.97-7.45c-.308.353-.136 1.188-.27 1.716l.083-.023.053.068c.159-.539.542-1.187.27-1.761l-.068.023zm.135-.135l-.052-.068-.082.022M.399 45.362c-.17-.023-.11-.28-.359-.226-.174.241.266.52.36.226m14.491-5.373c.248.039.33-.09.36-.27-.19-.17-.517-.012-.36.27m6.75-.316v-.18h-.18c-.021.14.039.2.18.18m-6.75-.677h.09v-.09h-.09zm-.63-.27c.009.126.078.191.225.179.035-.175-.149-.251-.225-.18m5.355-1.355c.02.202.498.285.495 0 0-.293-.496-.293-.495 0m1.26-.406c.031-.167-.071-.2-.226-.181-.032.216.098.237.226.181m-16.74-.181c-.166.016-.042-.259-.27-.18-.164.147.186.42.27.18m17.91-.27c.107-.113.018-.283-.18-.226-.033.169.051.22.18.225m-5.264-.496c-.015.119.061.148.18.135-.004-.12-.104-.216-.18-.135m-10.486-.27c.191-.192.06-.64-.315-.543-.2.201-.06.64.315.542m4.995-1.625c.06.058.167.059.18-.046-.113-.005-.141-.086-.18.046m18.406-2.032c-.414.479-.28 1.75.675 1.851 1.521.162 1.428-2.328-.09-2.122-.356.048-.462.128-.585.27m-7.02-.586c-.012.147.053.217.18.225.172-.089-.006-.375-.18-.225m.315-.09h.134v-.136h-.134zm8.055-.181c.008.127.078.193.225.18a.215.215 0 0 1 .045-.135c-.07-.054-.175-.144-.27-.045m-14.446.045c.112.007.187-.023.225-.09-.111-.007-.187.023-.225.09m15.75-.497c.093.025.089.137.18.046.013-.132-.174-.174-.18-.046m.586-.135c.006-.417-.455.044 0 0m-21.78-.272c-.01.086.05.1.044.182.104.014.173-.007.225-.046.01-.151-.167-.233-.27-.135m-3.69-.677c-.02-.146-.069-.262-.27-.226-.03.227.108.313.27.226m27.226-.452h.225a.215.215 0 0 1 .045-.136c-.073-.061-.11-.16-.27-.135-.088.085-.014.165 0 .271m-21.78-1.038c-.117 1.213 1.623 1.212 1.664.18.024-.579-.58-.91-.945-.857-.477.068-.688.341-.72.677m21.196.632c.726.182 1.318-.613.9-1.22-.102-.148-.421-.372-.855-.316-1.074.142-.488 1.425-.045 1.536m17.596-1.58h.18c.039-.146-.07-.142-.135-.181-.014.061-.064.086-.045.18m.135-.36c.192.026.315-.016.27-.227-.2-.035-.288.043-.27.226m-39.872-.226h.09v-.09h-.09zm47.703-.226c.102.013.169-.01.18-.09-.085.01-.1-.05-.18-.045zm-39.243-.722c-.23.352.37.582.405.18-.06-.135-.177-.214-.405-.18m.81-.722c-.067.28.208.4.405.271.05-.142.004-.102 0-.272-.124-.108-.264-.081-.406 0m25.967-.36c.064.068.219.142.316.045.104-.3-.403-.398-.316-.045m-15.886-.362c.087.092.13.157.27.09.08-.211-.252-.242-.27-.09m-7.245.316c-.223-.042-.305.055-.405.135-.056.376.158.508.36.498.225-.013.262-.355.45-.362.26.035.393-.057.54-.136a.599.599 0 0 0 0-.451c-.378-.372-.742.1-.945.316m2.205-.677c-.02.14.096.144.225.135.05-.183-.138-.223-.225-.135m8.326.045c.009-.186-.182-.373-.495-.226-.22.459.476.6.495.226m-3.465-.18v-.136H31c-.008.098.037.143.136.136m2.07-.046c.104.061.149.182.36.136v-.226c-.177-.042-.249-.022-.36.09m-15.436.136c.182.018.313-.017.315-.181-.03-.135-.18-.151-.36-.136-.053.128-.01.192.045.317m22.366-.587c.07-.004.156.006.135-.09h-.09c0 .045-.037.053-.045.09m-39.512 0c.052.038.12.06.225.045-.025-.11-.038-.233-.18-.226-.014.06-.064.086-.045.18m18.226-.451c.085-.01.099.051.18.045.077-.058.177-.093.18-.226-.064-.116-.146-.215-.36-.18-.067.066-.067.295 0 .361m-12.06-.09c.056-.117.098-.137.044-.27-.053-.053-.159-.052-.27-.047-.065.146-.003.34.225.317m39.692-.316c.008-.098-.16-.02-.225-.045-.066.142.259.217.225.045m-1.89-.317a.372.372 0 0 0 .27 0c-.006-.144-.102-.198-.27-.18zm-26.551.046c-.272-.45-1.222-.179-.81.587.548.411 1.067-.16.81-.587m25.29-.226c-.07-.004-.034-.115-.134-.09-.04.093.116.202.135.09m13.906-.135c.013-.12-.062-.148-.18-.136-.014.12.062.148.18.136m-51.348.09c.172.107.338-.017.45-.18-.107-.691-.887-.091-.45.18m6.886-.678c-.018.207.143.236.27.181.07-.223-.156-.282-.27-.18m18.765-.091c-.06-.014-.086-.063-.18-.045-.033.154.172.176.18.045m-21.51 0c-.041.282.077.404.314.407.112-.054.167-.164.135-.361-.089-.074-.327-.146-.45-.046m9.676.136c.197.116.521.026.45-.271-.182-.17-.535-.084-.45.271m33.166-.407v-.18h-.18c-.02.14.04.2.18.18m-38.296-.18c.013-.18-.087-.245-.27-.226-.114.16.096.366.27.226m-5.85-1.13c-.172.529.588.613.494.091-.063-.151-.331-.167-.495-.09m43.067.135c.01-.035.038-.053.09-.045.046-.21-.078-.252-.27-.226-.018.17.037.266.18.271m-39.331-.225c.06-.076.118-.151.09-.316-.348-.316-.581.333-.09.316m38.386-.497c.075.136.258.178.27-.046-.058-.061-.269-.078-.27.046m-37.037.316c.165.127.397.18.54 0 .161-.629-.806-.538-.54 0m-7.47.271c.005.405.45.596.765.587.875-.025.783-1.628-.405-1.264-.077.307-.363.408-.36.677m45.992-.993c-.01.152.167.233.27.135.062-.203-.18-.22-.27-.135m-3.195-.09h.135c.008-.1-.036-.145-.135-.136zm-3.87-.046c.005-.417-.455.045 0 0m-37.082-.18c.092.025.088.136.18.045.034-.155-.172-.176-.18-.045m5.58-.18c.092.024.088.135.18.044.034-.154-.171-.176-.18-.045m19.936 0c.045-.15-.062-.148-.18-.136-.013.12.063.148.18.136m-17.993.113l.083.022v-.135a.212.212 0 0 1 .135.045c-.003.058-.058.063-.046.136l.023.067.023.068c.663-.208-.314-1.004-.36-.271-.003.077.034.116.09.136zm33.834-.565c-.032.138.046.165.045.271.106 0 .133.078.27.045.02-.086.13-.081.09-.225-.012-.15-.294-.18-.405-.09m2.25 0c.062.013.086.063.18.045.012-.132-.174-.174-.18-.045m-.54.135c.066-.04.143-.068.135-.18-.035-.01-.052-.039-.045-.091h-.27c-.018.169.036.265.18.271m-.585-.045c-.052-.008-.049-.072-.045-.136-.94-.41-.166.897.045.136m-38.162-.045c.194.013.364.003.36-.181-.046-.378-.59-.184-.36.18m15.211-.36h.135c.008-.1-.037-.144-.135-.136zm25.336.09c.165.03.24-.03.316-.09.037-.128-.064-.118-.045-.227-.253-.207-.512.152-.27.316M9.49 17.232c.06.135.177.215.405.18.351-.31-.418-.713-.405-.18m33.212-.723c.005.115.065.176.18.181.01-.064.074-.076.09-.135-.092-.033-.178-.142-.27-.046m-28.846.046a.215.215 0 0 1 .044-.136c-.085-.02-.081-.129-.224-.09-.02.154.013.257.18.226m27.901.18c.11-.078.106-.272.045-.406-.463-.23-.54.48-.045.407m8.82-.543c.05.237.165.407.45.407.18-.279-.195-.564-.45-.407m-34.156 0c-.058-.002-.063-.057-.135-.044-.07.11.152.132.135.044m.09-.135h.135v-.136h-.135zm26.19-.361c-.092.312.368.363.361.09-.054-.098-.239-.198-.36-.09m-17.821-.09c.006.144.102.198.27.18.12-.188-.151-.358-.27-.18m-14.13-.317c-.024.25.073.378.314.362.044-.046.09-.092.135-.136.034-.246-.267-.34-.45-.226m7.246-.045c.02-.141-.04-.201-.18-.18-.021.141.039.202.18.18m4.14-.18c-.021.14.096.144.225.135.05-.182-.139-.223-.225-.135m37.352-.136h.09c.07-.11-.153-.132-.135-.045.027.003.053.007.045.045m-38.117.09c.085-.01.1.051.18.046 0-.09.123-.058.09-.18-.086-.02-.113-.098-.225-.091-.038.052-.059.12-.045.226m31.007-.316c.026-.222-.163-.228-.315-.271-.045.23.18.362.315.27m-39.287-.135c.012-.118-.016-.194-.135-.18-.081.077.013.177.135.18m47.117-.18c-.342.476.29 1 .675.631.21-.511-.25-.867-.675-.631m-18.856-.362c-.052-.037-.12-.06-.225-.045-.032.244.222.277.225.045m-18.18.271a.443.443 0 0 0 .494 0c.034-.519-.558-.552-.495 0m18.361-.451c-.068.254.206.336.36.225v-.225c-.165.033-.25-.111-.36 0m-21.78-.046h.09v-.09h-.09zm35.01-.406c-.014-.036-.119-.054-.134 0-.03.105.175.098.135 0m4.23-.09h-.18c-.01.148.211.178.18 0m-34.066 0c.02-.142-.04-.202-.18-.18-.022.14.038.2.18.18m-1.846.136c.115.118.31.18.45.044.12-.409-.56-.514-.45-.044m7.336-.633c.007.19.159.262.315.18.07-.232-.202-.271-.315-.18m.494-.316c-.093.108.064.237.18.27.001-.089.123-.057.091-.18-.032-.1-.212-.15-.27-.09m.945-.135c-.006.155.09.21.27.18.071-.223-.155-.282-.27-.18m-9.496-.046v-.135h-.135c-.008.099.037.144.135.135m10.441-.451c.072-.126-.195-.125-.18-.045.06.014.086.065.18.045m20.836-.18c.06.013.086.064.18.044.034-.153-.172-.175-.18-.044m-.766-.136c-.052-.038-.12-.06-.224-.045.006.193.182.21.225.045m-27.857.045c.071-.067.05-.202-.09-.18-.012.103.011.169.09.18m34.112-.361h.09c.07-.112-.153-.133-.135-.045.027.002.053.007.045.045m-3.015-.045h.09c.07-.111-.153-.133-.135-.045.028.002.053.006.045.045m-2.295-.09h.09c0-.046.036-.054.045-.091-.058-.003-.063-.058-.135-.045zm-28.802-.136c.02-.141-.096-.145-.225-.135-.039.171.15.211.225.135m26.236-.18c-.06-.015-.085-.065-.18-.046-.033.154.173.176.18.045m-21.24 0c-.119.663.93.626.855.046-.032-.246-.398-.332-.495-.317-.274.044-.338.147-.36.271m2.744-.271c-.061.259.104.288.136.452-.412.34.004.884.495.857.16-.391-.114-.602-.27-.812.032-.164.197-.193.135-.451-.158-.1-.318-.176-.495-.046m9.676-.18h-.18a.096.096 0 0 0 .18 0m-12.376.135v-.136h-.135c-.009.1.037.145.135.136m-6.03-.18c-.016-.037-.12-.055-.136 0-.03.104.176.097.136 0m-.361 0c-.06-.015-.086-.065-.18-.045-.012.131.175.172.18.044m-1.98 0c-.01.162.065.236.225.226.159-.155-.086-.369-.225-.226m5.13-.134c.02.158.095.19.225.134.04-.17-.15-.211-.224-.134m4.365.406c-.08.04-.157.083-.135.225.035.01.052.038.045.09h.224c.051-.142.005-.102 0-.27l-.082.022zm.067-.068l.067.022c.802-.31-.723-.77-.134 0zm-5.918-.429c-.07.282.25.336.36.18-.038-.167-.203-.257-.36-.18m28.757-.046c.009.143.084.218.225.226.038-.052.059-.12.045-.226-.156.037-.19-.083-.27 0m-24.302 0c.014-.118-.062-.148-.18-.135-.034.159.119.202.18.136m4.636-.18c-.043.204.189.283.315.18v-.18c-.14.015-.216-.106-.315 0m-15.39-.046c.02-.141-.097-.145-.227-.135-.002.135.133.228.226.135m16.11-.226c-.024.24.183.318.361.226v-.226c-.139.007-.255-.106-.36 0m-2.655.226c-.005-.214-.37-.345-.586-.18-.117.638.595.527.586.18m-2.43-.09c-.235.642.919.932.944.225.013-.333-.38-.513-.674-.406-.144.053-.234.08-.27.18m16.065-.225c-.015.196.124.237.27.27.04-.08.126-.114.09-.27-.176.045-.261-.1-.36 0m-21.375 0c-.04-.067-.114-.097-.225-.09-.07.234.218.288.225.09m6.03-.316c-.044.166.22.18.224.045-.093-.025-.145-.129-.224-.045m5.4.767c.727.096.31-1.328-.315-.767-.018.404.06.734.315.767m26.745 5.116l.032.077c.385-.245.724-.537.81-1.084.19-.193.756-.272.81-.677.06-.457-.477-.997-.54-1.49-.16-1.218.986-1.664.72-2.845-.296-.186-.782-.26-1.17-.135-1.325.426-.271 2.706-.9 3.838-.043.138-.238.123-.316.226.547.189.913.559 1.17 1.038a3.485 3.485 0 0 1-.675.994zM35.547 8.79c.085-.081.199-.132.18-.316-.416-.522-.856.267-.18.316m11.115-.768c-.043.166.222.18.225.045-.079-.04-.131-.143-.225-.045m-10.26.045h.135v-.09h-.135zm-9.54-.135c-.008.187.082.278.27.27 0-.09.122-.056.09-.18-.034-.117-.253-.185-.36-.09m2.79-.045h.18v-.09h-.18zm-6.526-.046c-.018.169.036.266.18.272.115-.006.175-.066.18-.181-.034-.118-.252-.185-.36-.09m6.93-.046c-.01.086.051.1.045.181.13.009.246.005.226-.136-.06-.064-.2-.12-.27-.045m1.125 0c-.087.647 1.083.636.945-.18-.342-.22-.888-.247-.945.18m-7.29-.225c.03-.122-.094-.088-.136-.136-.026.118.018.162.135.136m28.172-.136c-.061-.014-.086-.064-.18-.045-.034.154.172.176.18.045m-17.776 0c.008.19.159.262.315.18.07-.232-.202-.27-.315-.18m3.96-.317c-.01.173.185.289.315.181.039-.201-.202-.27-.315-.18m-4.95.045c-.15.653.89.73.765.045-.164-.2-.605-.323-.765-.045m18.99-.136a.214.214 0 0 1 .046-.135c-.08-.04-.115-.126-.27-.09-.032.182.043.257.225.225m-4.816.226c.188.016.36-.055.315-.406-.51-.47-.784.368-.315.407m-11.385-.227c.02-.086.097-.113.09-.225-.1-.066-.193-.137-.36-.135-.15.156-.035.413.27.36m9.9-.631c.152.136.137-.168 0 0m-14.986.135c.008-.285-.314-.408-.54-.316-.701.286.521 1.077.54.316m-8.73-.948c-.068.255.205.336.36.226a.211.211 0 0 1 .045-.136c-.081-.152-.26-.23-.406-.09m6.166-.045c.378-.426-.668-.462-.27 0zm-8.28-.723c.039-.145-.07-.141-.136-.18-.066.062-.023.214.136.18m5.58-.045c.16.024.197-.073.27-.136-.04-.443-.667-.086-.27.136m.495-.316c-.013.224.092.33.315.316.044-.047.089-.092.135-.136a.265.265 0 0 0-.45-.18m-4.456-.632c-.028.165.031.24.09.316.12 0 .258.017.316-.046v-.27c-.14-.001-.294-.107-.405 0m9.9-.226c.058.003.063.058.135.045.003-.077-.034-.116-.09-.135 0 .045-.036.054-.044.09m4.68-.542h.09c.07-.111-.153-.133-.136-.045.028.002.053.007.046.045m13.59-.993c-.004.177.27.16.225-.045-.104-.015-.173.007-.225.045M26.907 1.7c.06.014.085.064.18.045.033-.154-.173-.176-.18-.045m22.905-.316c.014-.12-.062-.149-.18-.135-.014.118.063.147.18.135m-8.595-.135c-.05.175.268.18.27.044-.07-.054-.176-.144-.27-.044m-18.091-.181c-.058-.003-.062-.058-.135-.046-.07.111.153.133.135.046M55.302.344c.152.138.137-.166 0 0M42.162.21c-.103.097-.28.016-.27-.136.089-.084.331-.067.27.136" fill="currentcolor" fill-rule="evenodd"/></svg>