<svg xmlns="http://www.w3.org/2000/svg" width="257.058" height="180.941" viewBox="0 0 68.013 47.874"><path d="M23.773 41.19c-.01.02.002.033.022.042.02.01.048-.008.058-.028l.045-.088c-.01.02-.032.023-.052.013-.02-.01-.025-.039-.015-.059zm7.8-1.521l-.088.025-.112.026c-.017.004-.034.022-.03.038.003.017.014.029.03.025l.132-.03.08-.022c.016-.005.028-.023.023-.04-.004-.016-.018-.026-.035-.022m3.148-1.825l-.302.235-.445.36c-.013.01-.014.029-.004.042.012.015.033.015.046.004l.44-.355.305-.237a.03.03 0 0 0 .005-.044.033.033 0 0 0-.045-.005m-.808 1.622c-.043.008-.071.054-.064.098l.02.116.014.086a.078.078 0 0 0 .09.064.082.082 0 0 0 .067-.093l-.013-.08-.023-.13c-.007-.044-.047-.068-.091-.06m.15.928a.081.081 0 0 0-.06.097 3.117 3.117 0 0 1 .084.554.08.08 0 0 0 .084.076.08.08 0 0 0 .076-.084 3.15 3.15 0 0 0-.088-.582.08.08 0 0 0-.096-.06M14.844 34.26c-.068.068-.16.152-.25.202a.03.03 0 0 0-.012.04.03.03 0 0 0 .04.011 1.28 1.28 0 0 0 .263-.21.03.03 0 0 0 0-.043.03.03 0 0 0-.04 0m-.536.403c-.264.358-.6.694-.954 1.05l-.404.41c-.643.67-1.107 1.262-1.461 1.865-.366.622-.813 1.383-.32 2.152a.052.052 0 0 0 .07.015.053.053 0 0 0 .017-.071c-.46-.715-.03-1.446.314-2.032.357-.608.817-1.195 1.454-1.859l.402-.408c.358-.359.696-.697.965-1.06a.05.05 0 0 0-.01-.072.051.051 0 0 0-.073.01m2.01-1.766l-.43.359c-.259.21-.526.427-.758.676a.058.058 0 0 0 .003.082.057.057 0 0 0 .081-.004 7.05 7.05 0 0 1 .746-.665l.433-.363a.056.056 0 0 0 .006-.079.058.058 0 0 0-.082-.006m46.237-.066l-.308.156c-.032.015-.042.053-.025.085s.058.043.091.028l.145-.074.164-.082c.032-.016.041-.053.024-.086-.015-.032-.058-.043-.091-.027m-21.796-.012a.03.03 0 0 0 .008.042.219.219 0 0 0 .206.03.03.03 0 0 0 .02-.038.03.03 0 0 0-.038-.02.16.16 0 0 1-.154-.021.03.03 0 0 0-.042.007m23.585-1.004c-.055.06-.133.1-.215.141a.741.741 0 0 0-.25.17.06.06 0 0 0 .007.086.06.06 0 0 0 .086-.007c.05-.06.128-.099.21-.14a.813.813 0 0 0 .251-.168.061.061 0 0 0-.004-.086.06.06 0 0 0-.085.004m-37.863-6.49l-.145.047a.637.637 0 0 1-.21.055.03.03 0 0 0-.03.032.03.03 0 0 0 .032.03c.082-.003.157-.031.23-.06l.136-.044c.016-.006.028-.024.022-.04-.005-.017-.02-.026-.035-.02m20.447-10.202a3.042 3.042 0 0 0-.178.433.03.03 0 0 0 .019.04.032.032 0 0 0 .038-.02c.051-.143.103-.292.175-.423a.03.03 0 0 0-.013-.041.03.03 0 0 0-.04.011m-.39.853l-.04.09-.242.557c-.008.016 0 .034.016.041.016.007.036-.002.043-.017l.242-.554.04-.09a.032.032 0 0 0-.015-.043.033.033 0 0 0-.043.016m8.523-10.769l-.288.184-.122.073a.03.03 0 0 0-.01.04.03.03 0 0 0 .041.01l.12-.072.294-.187c.013-.009.016-.026.007-.04-.009-.013-.028-.016-.043-.008m-20.99 29.704a.04.04 0 0 0-.04.043c.003.096.021.232.152.293a.04.04 0 0 0 .054-.02.04.04 0 0 0-.02-.053c-.07-.033-.102-.1-.105-.223a.04.04 0 0 0-.042-.04m.702-.887l-.262.184c-.177.116-.361.236-.49.416a.03.03 0 0 0 .008.044.03.03 0 0 0 .043-.007c.121-.17.3-.288.472-.4l.268-.188c.014-.01.016-.028.006-.042a.033.033 0 0 0-.045-.007m-1.214.075a.037.037 0 0 0-.003.052c.117.131.193.264.223.397a.037.037 0 0 0 .073-.018.99.99 0 0 0-.24-.429.036.036 0 0 0-.053-.002m-1.761-1.187a.055.055 0 0 0 .024.107c.398-.09.812.05 1.264.427a.054.054 0 0 0 .077-.007.055.055 0 0 0-.006-.077c-.474-.396-.932-.547-1.359-.45m.947 2.203a1.01 1.01 0 0 1-.38 0 .08.08 0 0 0-.03.156c.155.028.308.028.442 0a.079.079 0 0 0 .062-.095.079.079 0 0 0-.094-.061m-1.836-.742c-.027.033-.006.091.027.119l.121.1c.047.049.1.104.174.136a.078.078 0 1 1 .063-.142c-.046-.02-.084-.06-.125-.102L31 34.352c-.033-.027-.065-.012-.092.022m.625-.93c-.007.025.004.05.028.056l.091.025c.058.013.113.026.148.066a.046.046 0 0 0 .065.003.046.046 0 0 0 .004-.065c-.055-.062-.13-.079-.196-.094l-.08-.022c-.024-.007-.053.007-.06.031m-.96-.294c-.004.044.028.072.073.076.043.004.08-.038.085-.082l.015-.187c-.003.044-.04.067-.084.063-.043-.004-.074-.052-.07-.096zm3.198 1.57l-.043.028c-.09.058-.183.119-.283.15a.032.032 0 0 0-.021.038.032.032 0 0 0 .04.021c.107-.033.205-.096.298-.156l.043-.028a.032.032 0 0 0 .01-.044.032.032 0 0 0-.044-.01m-5.084-2.576a.025.025 0 0 0-.013.034c.032.076.09.14.146.204.082.093.16.18.16.301 0 .015.012.026.026.026a.026.026 0 0 0 .026-.026c0-.14-.089-.24-.174-.335a.73.73 0 0 1-.137-.19.026.026 0 0 0-.034-.014m.821.98a.027.027 0 0 0-.011.036c.067.137.205.238.316.32a.026.026 0 0 0 .037-.007.027.027 0 0 0-.005-.037c-.107-.078-.24-.176-.3-.3a.027.027 0 0 0-.037-.012m4.35 2.782c-.639.962-1.379 1.88-2.095 2.767l-.78.978a.08.08 0 0 0 .012.113.081.081 0 0 0 .115-.012l.78-.975c.719-.89 1.461-1.812 2.104-2.78a.082.082 0 0 0-.023-.114.08.08 0 0 0-.113.023m-2.985 3.846l-.175.162-.2.175c-.032.029-.046.084-.018.117.028.032.067.043.1.015l.228-.199.157-.146c.032-.028.04-.083.011-.114-.03-.032-.072-.039-.103-.01m-.465.483a26.59 26.59 0 0 1-5.543 4.686.05.05 0 0 0-.015.07.05.05 0 0 0 .069.016 26.69 26.69 0 0 0 5.564-4.705.051.051 0 0 0-.003-.071.05.05 0 0 0-.072.004m-6.82 1.342a.292.292 0 0 0-.117.117.037.037 0 0 0 .013.052.037.037 0 0 0 .052-.013.227.227 0 0 1 .09-.09.039.039 0 0 0 .013-.052.038.038 0 0 0-.052-.014m-.396.536c-.08.17-.19.33-.296.484l-.19.286a.032.032 0 0 0 .009.044.034.034 0 0 0 .046-.01l.188-.284a3.35 3.35 0 0 0 .302-.493.032.032 0 1 0-.059-.027m-1.018 1.473c-.074.09-.127.193-.178.292l-.132.227c-.016.027-.01.067.017.083.028.016.06.011.076-.016l.14-.24c.051-.1.1-.191.166-.273a.057.057 0 1 0-.089-.073m1.978-3.406a.043.043 0 0 0 .019.058c1.534.78 3.397.433 5.04.126a.043.043 0 0 0 .035-.05.043.043 0 0 0-.05-.034c-1.63.304-3.477.649-4.986-.119a.043.043 0 0 0-.058.019m2.826-2.437c-.15.042-.304.053-.466.063l-.24.02a.085.085 0 0 0-.077.093.09.09 0 0 0 .096.08l.232-.02c.165-.01.335-.021.502-.07a.087.087 0 0 0 .06-.107.087.087 0 0 0-.107-.06m-1.7.404l-.357.14c-.403.148-.819.302-1.074.702a.064.064 0 0 0 .02.089.064.064 0 0 0 .088-.02c.231-.364.61-.503 1.01-.65l.365-.144c.033-.013.047-.049.034-.082-.013-.033-.053-.048-.085-.035M23.51 29.81a.093.093 0 0 0-.056.117l.085.258a.088.088 0 0 0 .114.055.092.092 0 0 0 .056-.117l-.085-.257a.088.088 0 0 0-.114-.056m-1.374 6.026l-.047.006-.113.003c-.04.002-.087.033-.086.072 0 .04.017.07.057.07l.164-.003.036-.005c.04-.005.072-.042.066-.081-.006-.04-.038-.068-.077-.063m4.145-6.65l-.49.796c-.241.379-.49.77-.701 1.179a.08.08 0 1 0 .141.073c.207-.402.454-.79.694-1.166l.493-.802a.078.078 0 0 0-.026-.107.081.081 0 0 0-.11.027m1.265-.538c-.034.01-.052.05-.04.085l.192.609.22.681c.01.035.045.05.08.04.034-.01.051-.051.04-.086l-.215-.672-.196-.617a.063.063 0 0 0-.08-.04m-1.91 3.45l-.091.135-.163.223c-.01.014-.01.037.005.047.013.01.031.01.042-.004l.169-.231.09-.133a.033.033 0 0 0-.008-.046.03.03 0 0 0-.043.008m-.68.756l-.103.104a.053.053 0 0 0 0 .073.052.052 0 0 0 .074 0l.102-.103a.052.052 0 0 0-.072-.074m14.332-3.94c-.006.124-.073.224-.144.331-.054.083-.112.169-.144.27a.069.069 0 1 0 .13.043c.028-.083.077-.158.13-.236.077-.118.158-.24.166-.4a.07.07 0 0 0-.138-.007m-.648 1.09c-.068.045-.108.11-.147.174-.033.054-.065.106-.11.137a.057.057 0 0 0-.016.078.056.056 0 0 0 .079.015c.066-.044.105-.109.144-.17.033-.056.065-.108.112-.138a.057.057 0 0 0-.062-.096m-1.057-.924a.043.043 0 0 0-.034.051c.013.069.055.107.094.141l.063.075c.015.018.049.032.067.016.019-.015.027-.032.012-.05l-.085-.106c-.033-.03-.059-.052-.066-.092a.044.044 0 0 0-.05-.035m-14.493-.998a.05.05 0 0 0 .04.06c.239.04.466.13.685.216l.39.143c.026.01.052-.005.062-.031a.052.052 0 0 0-.032-.066l-.383-.14a3.581 3.581 0 0 0-.704-.223.05.05 0 0 0-.058.041m1.14.6c-.156.234-.39.418-.616.597l-.145.117a.049.049 0 0 0-.008.067.05.05 0 0 0 .069.008l.144-.116c.232-.183.471-.373.637-.617a.048.048 0 0 0-.013-.067.048.048 0 0 0-.067.012m4.762-1.572a.077.077 0 0 0-.067.086c.013.121-.01.24-.035.365l-.034.211c-.007.043.022.078.064.085.042.007.082-.026.089-.068l.033-.199c.025-.13.052-.267.035-.411a.077.077 0 0 0-.085-.069m.552.81a1.99 1.99 0 0 1-.198.478l-.173.383c-.018.038.002.076.04.093.037.017.085-.006.102-.044l.166-.363c.084-.162.17-.331.21-.515a.076.076 0 1 0-.147-.033m-15.445-1.35a.047.047 0 0 0 .016.065c.802.484 1.668.882 2.505 1.266l.461.213a.047.047 0 0 0 .04-.087l-.462-.212c-.834-.383-1.697-.78-2.496-1.26a.047.047 0 0 0-.064.015m16.9-.04a.059.059 0 0 0-.04.073c.055.194.182.34.305.48l.206.265c.02.025.062.036.087.016.026-.02.035-.051.014-.077l-.218-.283c-.12-.136-.232-.265-.28-.434a.06.06 0 0 0-.074-.04m-2.613-.208c-.055.178-.177.32-.305.471l-.15.184c-.018.022-.013.052.009.071a.054.054 0 0 0 .074-.01l.145-.177c.13-.152.264-.31.326-.508a.052.052 0 0 0-.035-.065.05.05 0 0 0-.064.034m4.53-.483a.68.68 0 0 1-.202.25.072.072 0 0 0-.017.1.07.07 0 0 0 .099.017.822.822 0 0 0 .244-.3.07.07 0 0 0-.03-.096.07.07 0 0 0-.094.03m-5.562.102a.043.043 0 0 0-.006.06.043.043 0 0 0 .06.007c.179-.143.457-.282.65-.2a.043.043 0 1 0 .034-.08c-.229-.095-.53.047-.738.213m2-.345l-.029.097c-.108.353-.22.718-.28 1.097a.061.061 0 0 0 .05.07.061.061 0 0 0 .069-.05c.06-.371.17-.732.277-1.082l.03-.097a.06.06 0 0 0-.04-.075.061.061 0 0 0-.077.04m-.526 1.473l-.159.075c-.227.109-.462.221-.707.283a.045.045 0 1 0 .022.088c.254-.065.493-.18.724-.29l.158-.074a.046.046 0 0 0 .021-.06.045.045 0 0 0-.059-.022m.804-1.8c-.02.02-.016.056.006.077l.304.286c.114.117.232.238.365.334a.053.053 0 0 0 .074-.012.052.052 0 0 0-.012-.074 2.665 2.665 0 0 1-.352-.322l-.315-.295c-.021-.02-.05-.016-.07.005m.29 1.49c-.211.02-.418.08-.618.136l-.16.045a.044.044 0 0 0-.03.054.042.042 0 0 0 .053.03l.16-.045c.197-.056.4-.114.604-.135a.043.043 0 0 0 .039-.047.042.042 0 0 0-.047-.039m2.759-.39a.031.031 0 0 0 .002.043c.123.11.282.144.437.176.164.035.319.067.436.184a.029.029 0 0 0 .042 0 .03.03 0 0 0 0-.042c-.13-.13-.3-.165-.466-.2-.154-.031-.299-.062-.41-.162a.03.03 0 0 0-.041.001m-.934 1.2a.044.044 0 0 0-.004.063l.081.091c.137.156.278.315.377.494a.044.044 0 0 0 .06.018.045.045 0 0 0 .018-.062c-.103-.187-.248-.35-.388-.51l-.08-.09a.046.046 0 0 0-.064-.004m-.5-3.482c-.149.385-.324.767-.492 1.137l-.209.458a.09.09 0 0 0 .045.119.09.09 0 0 0 .12-.045l.207-.457c.17-.372.346-.756.498-1.147a.09.09 0 1 0-.169-.065m-13.248 2.61a.332.332 0 0 0-.097.156l-.04.085c-.007.018-.002.043.015.05.018.009.036.005.044-.012l.046-.098c.018-.049.036-.095.075-.126a.035.035 0 0 0 .006-.048.035.035 0 0 0-.05-.007m.41-.06a.07.07 0 0 0-.03.095c.279.534.347 1.02.202 1.44a.07.07 0 1 0 .132.046c.158-.46.088-.981-.21-1.552a.07.07 0 0 0-.094-.03m-1.2 1.407a.047.047 0 0 0 .018.064c.216.125.458.18.692.235l.219.054a.048.048 0 0 0 .058-.035.046.046 0 0 0-.034-.056l-.222-.054c-.227-.053-.462-.108-.667-.225a.047.047 0 0 0-.064.017m.5-.793l-.198.31c-.104.157-.212.317-.292.492a.035.035 0 0 0 .017.046.035.035 0 0 0 .045-.017c.077-.17.184-.328.286-.482l.201-.315a.033.033 0 0 0-.011-.046c-.016-.01-.038-.004-.048.012m-.46.712h-.023l-.136.005c-.057.003-.096.05-.093.109.002.057.057.102.115.1l.116-.004h.023a.104.104 0 0 0 .103-.107.104.104 0 0 0-.105-.103m-.909-3.174c-.017.58.433.802.867 1.018.215.107.437.217.592.37a.06.06 0 0 0 .086-.001.061.061 0 0 0 0-.088c-.169-.165-.4-.28-.623-.391-.42-.208-.814-.404-.799-.905a.062.062 0 0 0-.06-.062.062.062 0 0 0-.063.06m10.87-1.47a.05.05 0 0 0 .016.069c.66.405 1.481.957 1.992 1.638a.05.05 0 0 0 .08-.06c-.52-.695-1.353-1.254-2.02-1.664a.05.05 0 0 0-.068.016m-14.507-2.855l-.047.074a.485.485 0 0 1-.15.178.078.078 0 0 0 .077.135.625.625 0 0 0 .205-.23l.043-.069a.08.08 0 0 0-.022-.11.075.075 0 0 0-.106.022m-.095 3.265a.084.084 0 0 0-.058.104c.109.398.264.782.415 1.153.133.33.271.671.374 1.016a.084.084 0 0 0 .104.056.085.085 0 0 0 .056-.104 11.413 11.413 0 0 0-.38-1.031c-.147-.367-.302-.746-.408-1.135a.084.084 0 0 0-.103-.059m22.209-3.43c-.314.237-.618.498-.912.748-.381.327-.776.665-1.196.954a.036.036 0 0 0-.009.05.035.035 0 0 0 .05.008c.422-.291.818-.63 1.201-.958.293-.25.596-.51.908-.745a.036.036 0 0 0 .007-.05.035.035 0 0 0-.05-.007m-2.768 2.785a.032.032 0 0 0 .027.06.357.357 0 0 1 .164-.023.032.032 0 0 0 .034-.031.032.032 0 0 0-.03-.034.418.418 0 0 0-.195.028m2.298-.796l-.076.205-.077.206c-.012.031 0 .073.032.085.03.012.064.003.076-.029l.086-.226.068-.188c.012-.032-.001-.072-.033-.084-.032-.012-.065 0-.076.03m-.611 1.402a4.87 4.87 0 0 1-.308.629l-.257.504c-.013.025-.002.054.024.067.026.013.059 0 .072-.025l.253-.495a4.84 4.84 0 0 0 .313-.643.052.052 0 1 0-.097-.037M32.547 25.8l-.028.122-.007.036a.08.08 0 1 0 .156.034l.007-.038.026-.114a.083.083 0 0 0-.06-.098.078.078 0 0 0-.094.058m-1.542.753a.036.036 0 0 0-.016.05.036.036 0 0 0 .05.014c.304-.16.734-.196 1.095-.091a.037.037 0 0 0 .045-.025.036.036 0 0 0-.025-.045c-.378-.11-.83-.071-1.15.097m-9.074-4.021a.05.05 0 0 0-.006.07.05.05 0 0 0 .07.005c1.064-.911 2.458-.547 3.807-.018a.049.049 0 0 0 .063-.028.049.049 0 0 0-.027-.063c-1.377-.54-2.803-.911-3.907.034m4.279.098a.047.047 0 0 0-.021.064c.06.12.182.168.289.212l.043.017a.048.048 0 0 0 .062-.026.047.047 0 0 0-.025-.062l-.045-.018c-.096-.038-.196-.079-.24-.165a.048.048 0 0 0-.063-.022m.866 1.564a.079.079 0 0 0-.066.09c.023.143.02.287.016.44v.273c0 .045.035.077.08.077s.078-.039.079-.083v-.263a2.542 2.542 0 0 0-.019-.468.078.078 0 0 0-.09-.066m-.05 1.007v.258a.08.08 0 1 0 .159 0V25.2a.08.08 0 0 0-.08-.08.08.08 0 0 0-.079.08m-4.692 2.552a.04.04 0 0 0 .038.042c.093.004.175.046.262.089l.138.063c.02.01.041-.001.05-.02.009-.02-.002-.046-.022-.055l-.131-.06a.728.728 0 0 0-.293-.097.04.04 0 0 0-.042.038m-.735-.473a.064.064 0 0 0-.037.082c.068.184.253.267.374.322a.064.064 0 1 0 .053-.116c-.136-.062-.263-.127-.308-.25a.062.062 0 0 0-.082-.038m4.21-1.698l-1.611.607-2.061.777c-.219.081-.466.173-.546.36a.034.034 0 0 0 .017.044c.017.007.037 0 .043-.017.07-.162.303-.25.508-.326l2.062-.776 1.61-.607a.033.033 0 0 0 .02-.042.034.034 0 0 0-.043-.02m-4.755 1.666a.085.085 0 0 0 .052.108.996.996 0 0 0 .287.042l.208.023c.046.006.1-.025.105-.071.006-.047-.016-.087-.062-.092l-.244-.03a.828.828 0 0 1-.24-.032.085.085 0 0 0-.106.052m-2.57-.763a.035.035 0 0 0 .028.04c.254.043.511.122.76.198.23.07.467.143.705.189a.035.035 0 0 0 .014-.069c-.236-.046-.47-.118-.699-.187a6.143 6.143 0 0 0-.768-.2.035.035 0 0 0-.04.029m-.667-1.164c-.02.003-.033.018-.029.037l.056.286.047.207c.005.02.024.034.044.03.02-.004.031-.021.027-.04l-.048-.216-.054-.272c-.004-.02-.024-.036-.043-.033m-.78-1.402c-.01.023.016.054.038.064l.096.044.135.06c.023.01.035-.005.044-.028.01-.023-.014-.053-.037-.063l-.091-.044-.14-.06c-.024-.01-.034.005-.044.027m-.939-.544a.046.046 0 0 0-.044.049.046.046 0 0 0 .048.044c.146-.005.318.062.366.2a.046.046 0 0 0 .058.03.047.047 0 0 0 .03-.06c-.066-.19-.283-.27-.458-.263m-2.115-1.413a10.108 10.108 0 0 1-1.48.068.076.076 0 0 0-.005.152A10.308 10.308 0 0 0 14 22.11a.076.076 0 0 0-.018-.15m-4.658-2.21a.091.091 0 0 0 .075.105c.656.105 1.435.215 2.225.224a.092.092 0 0 0 .002-.182c-.778-.01-1.548-.118-2.198-.223a.09.09 0 0 0-.104.076m-.963 2.221a.075.075 0 0 0-.005.106 21.286 21.286 0 0 0 4.98 4.064.074.074 0 0 0 .102-.026.075.075 0 0 0-.027-.102 21.144 21.144 0 0 1-4.946-4.036.073.073 0 0 0-.104-.006m5.607 4.837a.049.049 0 0 0-.02.065c.384.757 1.27 2.04 2.153 2.044.411.002.764-.277 1.049-.826a.049.049 0 0 0-.021-.066.048.048 0 0 0-.065.022c-.266.515-.59.775-.963.773-.837-.003-1.719-1.304-2.068-1.99a.048.048 0 0 0-.065-.022m4.219 1.648l-2.444 1.04c-1.286.538-2.616 1.096-3.883 1.695a.05.05 0 0 0-.024.068.05.05 0 0 0 .068.024c1.264-.598 2.593-1.155 3.879-1.693l2.445-1.04a.051.051 0 0 0-.041-.094m-7.263 3.103l-1.558.709-2.53 1.14a.081.081 0 0 0-.041.106.08.08 0 0 0 .105.041l2.532-1.14 1.558-.709a.081.081 0 0 0 .04-.107.08.08 0 0 0-.106-.04m10.184-4.314c-.517.398-1.194.618-1.849.83l-.55.185a.038.038 0 0 0-.023.048.038.038 0 0 0 .048.023l.549-.183c.66-.215 1.343-.437 1.871-.843a.038.038 0 0 0 .007-.053.037.037 0 0 0-.053-.007m1.219.92a.054.054 0 0 0 .018.073c.375.227.596.635.81 1.03l.045.085a.053.053 0 0 0 .094-.05l-.046-.085c-.21-.39-.448-.83-.848-1.07a.053.053 0 0 0-.073.017m.836 1.536a24.55 24.55 0 0 0-4.226 4.55.052.052 0 0 0 .012.072.051.051 0 0 0 .07-.012 24.45 24.45 0 0 1 4.209-4.532.052.052 0 0 0 .007-.071.051.051 0 0 0-.072-.007m-4.59 4.964l-.116.195c-.594.995-1.209 2.023-1.567 3.167a.07.07 0 1 0 .132.042c.354-1.129.964-2.15 1.554-3.137l.117-.195a.07.07 0 0 0-.024-.095.07.07 0 0 0-.095.023m2.707 7.49l-.127.356a4.24 4.24 0 0 0-.236.79.067.067 0 1 0 .132.02c.044-.266.138-.52.23-.763l.128-.361a.066.066 0 0 0-.041-.085c-.035-.012-.073.008-.086.043m.331 2.884a.049.049 0 0 0 .014.067c.512.336 1.197.46 2.038.368a.048.048 0 0 0 .043-.053.049.049 0 0 0-.054-.042c-.806.087-1.489-.035-1.974-.354a.049.049 0 0 0-.067.014m12.654-9.2a.044.044 0 0 0-.03.054c.09.306.04.628-.007.94l-.046.333a.041.041 0 0 0 .038.048.045.045 0 0 0 .049-.039l.044-.329c.05-.32.1-.653.006-.978a.044.044 0 0 0-.054-.03m-.248 1.783a3.726 3.726 0 0 1-2.141 1.893.032.032 0 0 0-.02.04.031.031 0 0 0 .04.02 3.791 3.791 0 0 0 2.177-1.925.032.032 0 0 0-.014-.042.032.032 0 0 0-.042.014m9.048-15.05c-.962 1.82-2.052 3.881-3.328 5.73a.083.083 0 0 0 .021.114.083.083 0 0 0 .115-.02c1.28-1.857 2.373-3.923 3.337-5.747a.083.083 0 0 0-.146-.077m-8.702 4.692a.032.032 0 0 0-.01.044c.133.202.216.401.253.607a.032.032 0 0 0 .038.026.033.033 0 0 0 .025-.037 1.721 1.721 0 0 0-.262-.631.032.032 0 0 0-.044-.01M38.34 23.3a.052.052 0 0 0-.017.07l.027.045c.057.1.123.21.264.237a.052.052 0 0 0 .018-.101c-.095-.017-.141-.096-.194-.187l-.029-.048a.05.05 0 0 0-.069-.016m9.057-14.326l-.138.36c-.018.048.01.095.057.113.047.018.103-.013.122-.061l.064-.168.073-.194c.018-.048-.008-.094-.056-.112-.048-.018-.104.014-.122.062m-1.034 1.975c-.996 1.303-2.216 2.444-3.396 3.548-.953.89-1.936 1.81-2.803 2.815a.085.085 0 0 0 .009.12.084.084 0 0 0 .12-.008c.86-.998 1.84-1.915 2.79-2.802 1.185-1.108 2.41-2.254 3.414-3.57a.085.085 0 0 0-.134-.103m-7.845 8.33l-.504.626-.604.758a.08.08 0 0 0 .014.112.083.083 0 0 0 .116-.015l.6-.751.506-.63a.08.08 0 0 0-.013-.113.082.082 0 0 0-.115.014m-2.36 2.895l-.136.153c-.095.094-.193.192-.232.329a.058.058 0 1 0 .112.031c.03-.107.113-.19.201-.277l.151-.17c.021-.024.014-.055-.01-.076-.023-.021-.064-.013-.086.01m-1.43 1.593c-.354.495-.771.95-1.175 1.392l-.432.477a.068.068 0 0 0 .006.096.067.067 0 0 0 .096-.005l.43-.475c.407-.445.827-.904 1.186-1.405a.07.07 0 0 0-.016-.096.068.068 0 0 0-.095.016m.294-2.118c-.039.063-.035.134-.03.201v.096c0 .017.014.035.032.035.017 0 .031-.01.031-.028v-.106c-.003-.061-.006-.118.021-.165a.033.033 0 0 0-.01-.044.032.032 0 0 0-.044.01m1.462-2.96l-.04.072-.035.052c-.01.015-.004.033.01.042.016.01.037.003.047-.011l.03-.044.05-.09c.008-.017 0-.03-.015-.039-.016-.008-.038.003-.047.019m-4.474 3.147c-.205.103-.34.284-.47.458l-.133.17a.072.072 0 0 0 .01.1c.031.024.073.02.096-.01l.138-.176c.12-.162.246-.329.421-.418a.07.07 0 0 0 .03-.094.068.068 0 0 0-.092-.03M29.463 9.079c-.808 2.64-1.326 4.728-1.682 6.769a.079.079 0 1 0 .155.027c.355-2.034.872-4.115 1.678-6.75a.079.079 0 1 0-.151-.046m-1.803 7.44c-.381 2.386-.588 4.373-.653 6.254a.08.08 0 0 0 .077.083.08.08 0 0 0 .083-.078c.063-1.874.27-3.854.65-6.233a.08.08 0 1 0-.157-.026M61.717.13c-1.67 1.934-3.895 3.36-6.048 4.742l-.04.025a.031.031 0 0 0-.01.043.031.031 0 0 0 .043.01l.04-.026C57.858 3.54 60.088 2.11 61.762.17a.032.032 0 0 0-.002-.044.03.03 0 0 0-.043.004M54.702.028c-.651 1.525-1.514 2.997-2.349 4.42-.617 1.051-1.255 2.139-1.807 3.248l-.01.019.026.063a.047.047 0 0 0 .091-.017.054.054 0 0 0-.003-.019l-.01-.023c.55-1.099 1.182-2.179 1.795-3.223.836-1.426 1.7-2.9 2.355-4.43a.049.049 0 0 0-.026-.064.048.048 0 0 0-.062.026m-4.134 7.7l-.226.254-.21.237a.049.049 0 0 0 .003.069.05.05 0 0 0 .07-.005l.21-.234.228-.256a.048.048 0 0 0-.004-.07.05.05 0 0 0-.071.005m-.41.49c-.436.147-.806.436-1.163.716-.199.156-.405.317-.618.45a.034.034 0 0 0-.01.045.034.034 0 0 0 .045.01c.216-.133.423-.295.624-.452.352-.276.717-.562 1.144-.705a.034.034 0 0 0 .02-.042.033.033 0 0 0-.042-.021m-.024.015a82.445 82.445 0 0 1-1.082 2.246c-.621 1.257-1.263 2.556-1.773 3.871a.038.038 0 0 0 .021.05.038.038 0 0 0 .05-.022c.509-1.311 1.15-2.61 1.77-3.865.364-.734.739-1.494 1.084-2.247a.038.038 0 0 0-.07-.033m3.593-2.256l-1.306.757c-.578.344-1.177.699-1.774 1.007a1.637 1.637 0 0 1-.03-.012.032.032 0 0 1 .018.043.031.031 0 0 1-.041.017l.056.024.014-.007c.603-.312 1.206-.67 1.79-1.016l1.305-.756a.033.033 0 0 0 .012-.045.032.032 0 0 0-.044-.012m6.441 28.026a.071.071 0 0 0-.068.074.072.072 0 0 0 .075.07c.064-.004.183-.016.247-.069a.07.07 0 0 1-.1-.01.072.072 0 0 1 .01-.1c-.015.012-.071.031-.164.035m-12.035-1.939l-1.34.115-1.386.118a.077.077 0 0 0-.07.081.074.074 0 0 0 .08.07l1.39-.119 1.335-.114a.076.076 0 0 0 .07-.081.073.073 0 0 0-.08-.07M65.64 31c-.021.015-.02.04-.004.061.015.021.051.02.072.004l.092-.069c-.022.016-.046.009-.061-.013-.016-.02-.006-.054.015-.07zM48.442 28.12a.058.058 0 0 0 .035.076.773.773 0 0 0 .336.025l.139-.006c.032-.002.06-.03.06-.062-.002-.033-.026-.058-.058-.056l-.15.007c-.102.007-.198.014-.286-.019a.059.059 0 0 0-.076.036M23.864 41.093l-.025.077c.903-.203-.247-.816-.052-.103zm10.208-.077v.206c-.654.254-1.384.54-1.235 1.341.104.55.744.767 1.44.826.353.626.147 1.38.515 1.806.393.454 1.33.393 1.44-.103.137-.619-.45-1.081-.771-1.238-.336-.165-.641-.063-.772-.413-.122-.33.17-.823.103-1.238-.076-.468-.58-.773-.565-1.239l-.06.078zm-.205-1.29v.206c-.079.198-.457.093-.412.413.015.243.424.09.565.206l.06-.077.095.026c-.061-.387-.068-.63.155-.826h-.31l-.06.078zm.153-1.342c-.19-.002-.298.08-.41.155-.14.409.049.859.257 1.084l.06-.078.093.025c-.053-.304.002-.78.052-1.134l-.077.025zm.72-.516v.051c.19-.049.29-.19.412-.309-.144-.164-.126-.492-.463-.464-.232.19.096.366 0 .722zm-23.604 2.22c-.018.377-.144.596-.103.876.19 1.295 2.475.78 2.983-.052.065-1.504-1.817-1.152-2.777-.877l-.026.078zm3.471-5.6l.026-.077c-.066-.07-.243-.07-.308 0-.06.061-.059.182-.052.31l.078-.026.025.077a.39.39 0 0 0 .309-.31zm26.356-1.625v.052c.208.157.564.19.823.051-.183-.176-.142-.58-.617-.464-.083.123-.185.228-.258.361zM27.44 24.97c.09-.03.213-.027.256-.103-.096-.006-.375.062-.256.103m.719-.258a.374.374 0 0 0 .155-.103c-.07-.009-.284.08-.155.103m18.617-9.133v-.052c-.137.103-.304.178-.258.464h.052v.052c.184-.056.288-.193.257-.464zM30.73 33.018c.122-.11.01-.42-.206-.361-.146.068.04.229.051.31l.094-.027zm-1.183.155c.088-.187.412-.137.463-.361.012-.22-.107-.306-.258-.362-.318-.03-.4.405-.72.207l-.025.025-.026-.025c-.259.201-.081.55.052.774.323.084.228-.253.462-.258l.026-.026zm1.49 1.187a.69.69 0 0 1 .104-.774c.211.04.264-.08.463-.052l-.026-.078.077-.025c-.226-.27-.875.166-.925-.31l-.078.026-.077-.026c-.214.146-.645.075-.77.31l.024.025-.025.026c.155.584.785.692 1.183 1.032l-.019-.091zm1.39.773c-.428-.155-.77-.398-1.183-.567l.018.092-.07.062c.213.372.566.603 1.183.568l-.025-.094zm1.028-.257c-.065-.195-.063-.606.155-.671l-.026-.078.076.026c-.035-.329.218-.366.258-.62-.019-.492-.57-.457-.823-.206l.026.078-.078.026c.45.486.193 1.487-.359 1.702l.077.06-.026.095c.355-.022.52-.236.772-.36h-.052zm.669.103v-.362l-.077.026.025-.077c-.09.003-.16-.012-.205-.052l-.052.026-.052-.026c.043.146-.072.134-.05.258l.076-.025-.026.077c.036.102.138.138.257.155l.052-.026zM23.273 42.15c.162-.065.454-.202.308-.413l-.077-.026.026-.077c-.275.018-.406.178-.36.516l.051-.026zm-1.029 1.548c.376-.088.536-.39.566-.826l-.077.026.025-.077c-.298.164-.67.256-.617.774l.078.025zm4.73-5.78h.31c.344.171.66.633 1.234.62.43-.01.884-.32.874-.67-.008-.33-.37-.519-.617-.568-.86-.174-1.259.503-1.851.464l.077.06zm-1.696.362c.413-.05.802-.125 1.08-.31l-.077-.06.026-.094c-.349-.262-.89.032-1.029.31l.026.077zm.36-6.089c.407.023.686-.275.515-.67-.396-.14-.739.204-.566.619l.077-.026zm-.668.774c.407.07.633-.216.514-.516l-.078.026.027-.077c-.282.044-.54.112-.515.464l.078.026zm12.702-3.663c-.176.792.77.757.823.31.036-.306-.403-.6-.72-.362l-.026.078zm-8.588-2.58c-.077.044-.075.166-.103.258-.032.071-.198.008-.206.103l.078.026-.026.078c.01.057.056.08.103.102l.077-.103.077.103c.062-.109.193-.15.206-.309h-.13l.078-.103c-.011-.04-.002-.102-.05-.104l-.079.026zm-1.903-1.496c-.001-.077.21-.23 0-.207l-.077-.026-.077-.025c-.035.102-.177.22 0 .257l.077-.025zm-4.423 2.734c.007.15-.028.338.052.413.224.036.285-.093.36-.206l-.026-.078.077-.025c-.11-.113-.3-.146-.463-.207l.026.052zm-2.828-1.083c.272.225.82.174 1.08.412l.121-.014.085-.089c-.37-.077-.474-.827-.875-.774-.233.031-.201.203-.36.413v.052zm-2.16-.774c.042.233.126.424.206.619h.051v.051c.111-.116.176.043.36 0l.06-.077.095.026c-.004-.09.01-.16.05-.206l-.076-.027.077-.025c-.075-.372-.53-.362-.669-.67v.05h-.051c.004.09-.011.161-.051.207l.025.077zm-1.337-2.477a3.549 3.549 0 0 0-.103 1.135l.077.026.077.026c-.057-.54.41-.553.618-.825l-.026-.053.026-.05a1.545 1.545 0 0 0-.566-.31l-.026.077zm-2.468-1.497c.267.015.58.115.77.052.176.112.176.27.567.156.124-.447-.331-.43-.618-.517-.367-.11-.576-.067-.771.155l.077.06zm-2.315-2.063c.215.279.38.694.309 1.083-.06.334-.453.49-.463.774.042.32.508.213.669.413.086.567.196 1.11.41 1.548l.06-.077.095.025c-.07-.548-.282-.954-.308-1.547.057-.012.08-.057.102-.104l-.025-.077.026-.078c-.37-.239-.196-1.017.103-1.186l-.078-.06.026-.096c-.34.073-.25-.57.052-.463.059.06.057.182.05.309l.095-.025.06.076c.24-.171.49-.334.566-.67-.228-.137-.56.006-.823 0-.316-.223-.24-.596-.206-.929.112-1.066.319-1.799.566-2.735.26-.988.654-2.243.72-3.302.05-.817.059-1.675-.257-2.115-.05-.07-.337-.351-.463-.413a.933.933 0 0 0-.72-.052c-.006.063-.015.122-.103.103-.227 1.028.766 1.363.977 2.064.085.283.078.794.052 1.135-.07.905-.382 1.964-.617 2.787-.083.288-.248.545-.31.825-.1.469-.135.965-.205 1.394-.07.42-.014.954-.411 1.238l.026.077zm-3.137 1.909c-.147-.42-.967-.888-.977-1.394-.007-.327.318-.56.566-.824.51-.032.817.142 1.337.102l-.026-.094.077-.06c-.483-.117-1.02-.181-1.491-.31-.524-.568-1.591-1.518-2.571-.825-.28 1.35.81 1.763 1.748 2.063.328.532.734.985 1.132 1.445l.103-.052zm5.554 4.902v-.155c.052 0 .062-.042.103-.052l-.025-.077.077-.026c0-.052-.042-.061-.052-.103-.047-.365.324-.477.515-.67.6-.614 1.114-1.491 1.439-2.323l-.025-.051-.026-.052c-.146-.118-.319-.094-.514-.052-.253.218-.096.68-.206 1.084-.062.23-.472.763-.668.98-.34.375-.874 1.002-1.183.568l-.078.026-.077-.026V26l.026.078-.078.026c.296.996-.974.48-1.593.567-.368.052-.8.26-.874.671-.193 1.051 1.056 1.088 1.542.774.552-.356.804-1.808 1.595-1.187l.025-.077zm-7.2 6.5c-1.183.442-2.454 1.129-3.6 1.652-.398.182-.882.459-1.234.516-.637.104-1.39-.056-1.8.465-.114.145-.305.5-.205.877.122.46.863.556 1.286.413.252-.085.576-.398.72-.62.173-.268.186-.613.308-.773.209-.275.695-.397 1.131-.62 1.042-.532 2.028-1.045 2.983-1.496.18-.085.55-.144.515-.31h-.103zm5.04-2.217c-.42.059-.864.096-1.028.412l.077.06-.026.095c.599.101.708-.287 1.029-.465l-.077-.025zm6.84-2.942v-.051l-.094.026-.06-.078c-.125.081-.22.193-.463.155l.026.077-.078.026c0 .052.042.061.052.103l.077.026-.025.077c.224-.067.454-.128.617-.257l-.077-.026zm3.703-.051c-.043-.112-.133-.176-.103-.362h.051l-.025-.051.025-.052a2.747 2.747 0 0 0-.462-.155l.025.078-.077.025c.19.085.119.432.206.62.107.112.147-.026.308 0l-.025-.077zm.72 1.65c.199-.044.183.127.308.155l.06-.077.095.026c-.003-.17-.087-.257-.052-.464l-.077-.026.026-.077c-.164.044-.16-.081-.258-.104l-.025.078-.077-.026c-.006.149.028.338-.051.413l.077.025zm-4.474 4.954c.23-.06.34-.243.36-.516l-.077.026-.026-.077c-.234.075-.364.254-.411.515l.091-.018zm3.034 10.32c-.17-.393.199-.602.257-.929l-.077-.026-.026-.077c-.28.126-.253.493-.565.413-.343-.087-.222-.694-.258-1.187l-.077.026-.077-.026c-.305.544.102 1.09.154 1.6-.516.433-1.393.14-1.491.877-.073.554.355.803.823.722.837-.144.583-1.476 1.286-1.341l-.026-.078zm3.188-.207c-.627-.01-.88.355-1.337.517l.077.025-.025.078c.31-.088.208.238.463.206.386-.146.637-.427.874-.722l-.078-.026zm5.555-4.798c-.244-.024-.077.045-.103.206l.076-.025.027.077a.261.261 0 0 0 .154-.155l-.088-.035zm.514-.464a.259.259 0 0 0-.155.154l.088.037.067.067c.238.038.21-.059.154-.207l-.094.026zm3.188-2.477c-.167.074-.23.25-.206.516l.078-.026-.027.078c.527.138.564-.425.258-.568l-.051.026zm4.834-7.688a2.06 2.06 0 0 0-.412.567l.078.026-.026.077c.395.02.476.313.874.361.242.03.477-.066.772-.103.448-.054.767.014.926-.206.393-.545-.243-.941-.67-.877-.358.053-.522.432-.72.464a.713.713 0 0 1-.668-.206v-.052l-.094.026zm4.165-6.76c.305-.453.532-.945.824-1.496.26-.494.414-1.217.771-1.548.174-.162.442-.172.617-.31a1.354 1.354 0 0 0 .36-1.65c-.306-.064-.525-.378-.977-.31-.621.092-.73.68-.669 1.238.04.357.35.682.309.98-.047.343-.344.32-.463.568-.112.05.214.09.103.31-.3.714-.682 1.345-.977 2.063l.067.067zm-4.525-3.302c.04-.012.102-.002.103-.052.249.009.276.239.565.207.141-.179-.05-.37 0-.62.488-.336.831-.817.978-1.496l-.067-.067-.036-.088c-.249.249-.626.37-.926.568a9.094 9.094 0 0 1-.771 1.445l.087.036zm-5.451 5.366c-.27.315-.623.545-.668 1.084l.094-.026.06.078c.06-.015.214-.228.206 0l.093-.026.06.077a.471.471 0 0 0 .207-.206l-.078-.06.026-.095h-.103c.013-.314.167-.486.206-.774l-.078.025zm1.029-2.115c-.268.264-.4.665-.515 1.083l.077-.025.026.077c.245-.27.469-.562.515-1.032l-.078-.026zm-5.04 2.322c-.205.413-.576.66-1.132.722l.026.077-.077-.025c.098.277-.136.556-.463.568-.043-.113-.133-.177-.102-.362l-.052.026-.052-.026c-.051 0-.06-.042-.102-.052-.032-.123.064-.374-.052-.412l-.077-.026-.077-.026c-.105.084.002.38-.103.464-.234.03-.32-.09-.566-.051-.503.312-.503.994-.771 1.496-.252.472-.692.775-1.08 1.084-.061-.06-.182-.059-.309-.052l.026.078-.077.025c.012.04 0 .102.051.103v.156l.078-.027.025.078c.172-.017.229-.15.463-.103.273.264-.095.522-.308.774-.244.287-.402.67-.772.619l-.06.077-.094-.026c.058.494-.379.974-.72 1.445-.283.39-.591.877-.926 1.239-.353.381-.784.631-.977 1.031-.501 1.041.05 2.032 1.08 2.168l-.026-.095.078-.06c-.079-.145-.367-.08-.412-.258.13-.519.499-.997.668-1.6.16-.565.139-1.382.772-1.548.43.385-.074.863-.206 1.342-.238.869.049 1.754.926 1.702.87-.05 1.04-1.18 1.697-1.238-.035.593-.663.74-1.131 1.187-.17.163-.267.415-.463.62-.161.167-.41.295-.566.464-.24.258-.368.617-.618.774-.368.231-.993.246-1.182.618-.323.638.095 1.61.103 2.271.016 1.302-1.382 1.827-2.571 1.755-1.741-.106-2.752-1.836-2.006-3.922l-.094.026-.06-.078c-.522 1.23-.52 2.921.309 3.715.598.574 1.623.802 2.57.723.5-.042.979-.318 1.492-.206l.077-.026.026.077c.04-.011.06-.043.051-.103.971-.505 2.198-.753 2.212-2.219.297-.023.256.294.514.31l.043-.043.06-.009c-.323-.194-.586-.792-.258-1.186l-.091.018-.062-.07c-.208.222-.31.548-.515.774-.358-.147-.586-.533-.618-.93-.075-.962.354-1.362.875-1.805.453-.385.676-.763 1.183-.877.383-.7.817-1.24 1.389-1.806.208-.207.497-.35.668-.568.112-.141.141-.363.257-.516.378-.497.95-.968 1.595-1.032l.025-.026.026.026v-.103c.388-.47.583-1.136 1.183-1.393.349.043.697-.024 1.028 0 .9.064 1.944.64 2.828.722.374.035.615-.031.824.156v.206c.61.195.356 1.258.41 2.012a1.257 1.257 0 0 1-.257.258h.052v.051c.101.248-.36.99-.617 1.032l.026.078-.078-.026c.042.403-.238.484-.308.774l.111-.009.094.06c.103 0 .066-.14.207-.102l.05-.026.053.026c.121-.79.633-1.188 1.028-1.703 1.678-.036 2.287-1.146 3.394-1.755.27-.556-.085-1.474-.257-2.063l-.078-.027.026-.077c-.04.012-.101.001-.102.052-.354-.257-.874-.439-1.235-.413-.218-.083-.292-.313-.205-.567.153-.104.472-.26.668-.156l.026-.077.077.026c.15-.555 1.154-.56 1.594-.258v.052l.095-.026.06.077c.376-.386.701.591 1.08.052.102-.533-.628-.23-.618-.67l-.077-.027.026-.077c-.734-.195-1.44-.534-2.263-.465-.497.043-.941.283-1.491.259-.168.013-.149-.16-.258-.207-.238.207-.629.263-1.028.31-.1-.055-.072-.238-.154-.31v.052h-.051v.103c-.513.114-.752-.342-1.03-.62.072-.537.583-.273.823-.05v-.053h.052c.141-.377-.199-.366-.205-.722a8.3 8.3 0 0 1 1.954-2.167c.263-.202.508-.5.771-.62.415-.186.929-.116 1.389-.36l.025-.078.077.026c.021-.34.138-.585.206-.877.354-.434 1.093-.424 1.697-.568.279-.066.475-.296.72-.206.17-.278.586-.307.874-.465.186.024.25.133.412.052.113-.113-.051-.21 0-.412.306-.35.68-.358.822-.723.253-.64-.275-1.622-.205-1.96.056-.27.589-.618.874-.93.336-.366.667-.724.875-.98.283-.351.58-.686.771-1.084.204-.423.22-.888.309-1.548.056-.417.39-.695.617-1.032.578-.859 1.146-1.838 1.491-2.786.088-.117.247-.164.308-.31-.185.05-.071-.203-.102-.309.106-.192.203-.624.257-.98.048-.325.222-.885-.206-.928-.466.151-.53 1.153-.771 1.702l.094-.026.06.077c.219-.159.094-.663.462-.67.084.293-.05.685-.154.98-.1.286-.228.71-.514.774-.137-.292.103-.515.103-.826l-.095.026-.06-.077c-.379.479-.606 1.111-.925 1.65l.067.068.036.088c.235-.126.304-.416.617-.465.235.114-.015.39-.051.464-.394.8-1.031 1.456-1.594 2.064-.23.248-.565.505-.72.775-.314.543-.049 1.156-.207 1.857-.075.338-.473.695-.77 1.032-.31.35-.639.702-.875.98-.61.723-1.19 1.376-1.851 1.806-.149.729-1.03.721-1.492 1.136-.058.596-.591 1.355-1.13 1.341-.507-.013-.862-.637-.824-1.393l-.094.026-.06-.078c-.306.244-.464.636-.926.723.123.346-.22.579-.36.825l.077.026-.025.078c.374.077.106.628-.206.618.012-.097-.058-.113-.052-.206l-.077-.026-.026-.077c-.352.282-.656.614-1.233.67-.062.285.163.284.102.569l.095-.026.06.078c.337-.035.645.192.668.412.038.364-.627.836-.925 1.186-.424.498-.712.92-.977 1.187h-.052l.026.078-.077-.026c-.295.6-.587 1.2-1.286 1.393l.026.078-.077-.026c-.047.262-.247.371-.412.516-.188 0-.075-.303-.308-.258-.159.092-.065.348 0 .464.15.27.594.32.668.67.213 1.007-1.146.497-2.057.517-.155-.241.014-.385.103-.568.365-.753 1.16-1.112 1.44-1.858h.206l-.026-.05.026-.053c.195-.474.495-.844.925-1.083l-.025-.077.077.025c-.004-.09.011-.16.05-.206l-.076-.06.026-.095c-.064-.006-.122-.015-.103-.103l-.095.026-.06-.078c-.14.152-.236.347-.36.516h-.051l.026.078-.077.026c-.045.35-.287.503-.463.722h-.103l.026.078-.077.025v.103c-.073.014-.06.113-.103.155-.494-.02-.684-.346-1.183-.36-.054-.475.338-.752.771-.569l.077-.09.026-.116h-.206c-.235-.17-.224-.486-.102-.774l-.094.026-.06-.078c-.107.014-.05.192-.155.207h-.103l.026.078-.077.025c.123.362-.144.693-.412.825l.077.026-.025.078c.092.377-.298.692-.36 1.083l.077-.025.077.025c.394.067.72.343.72.62 0 .176-.318.51-.514.722-.24.257-.54.52-.772.361-.161-.332.175-.57.206-.877l-.092.018-.062-.07c-.399.106-.067-.616-.154-.98l-.095.026-.06-.078c-.27.187-.574.077-.617.362-.05.335.37.266.514.567a4.44 4.44 0 0 0-.051.929c-.211.149-.346.375-.669.412l-.077.026-.077-.026c.268.712-.085 1.475-.566 1.755-.095.733-.634.996-1.08 1.393-.36.322-.638.688-1.028.877-.266-.134-.312-.687-.257-.98l-.078-.026.026-.077c-.48-.379.232-1.232.309-1.652l-.067-.066-.036-.088c-.378.178-.648-.395-.617-.723.04-.428 1.107-1.62 1.749-1.187v.052l.094-.025.06.077c.245-.304.692-.407 1.131-.516l.026-.078.077.026c-.026-.577.067-1.033.411-1.238l-.077-.026.026-.077c-.11-.111-.026-.289.051-.362l-.077-.025.026-.078c-.445-.138.176-.902.36-.567l.077-.026.026.078c.316-.25.494-.64.771-.93.058.011.08.058.103.104l.077.025.026.078c.083-.088.085-.26.206-.31l.025-.077.077.025v-.051c-.063-.449.357-.592.566-.774a6.9 6.9 0 0 0 .669-.67c.127-.007.248-.008.308.051.021.124-.094.112-.05.258l.093-.026.06.078c.246-.355.282-.92.72-1.083h-.051v-.052c-.002-.587.486-.682.72-1.033h-.052v-.051h-.103c.001-.48.158-.804.515-.93.024-1.01.913-2.04 1.8-1.392.018.293.012.563-.155.67h.052v.052c.122.7-.49 1.36-.514 1.91l.076.025.026.078c.369-.173.128-.638.566-.723h.052v.052c.23-.36.089-.985.205-1.548.26-.393.634-.671 1.08-.877.105-.1.08-.333.154-.465h-.051v-.051c-.12.016-.193.081-.36.051-.687-.54-.335-2.159-1.543-2.063-.26.02-.621.25-.772.464-.29.414-.199.933-.308 1.65-.18 1.188-1.083 2.428-1.49 2.994l.076.025-.026.078a.37.37 0 0 0 .103.154c-.075.407-.425.537-.668.774-.19-.16.12-.254.102-.412l-.092.018-.062-.07c-.312.168-.35.613-.771.671-.053.636-.536.838-.67 1.394-.26.099-.336.383-.667.412l-.026.077zm.411-15.79c.168-.478.4-1.097.617-1.805.197-.642.27-1.407.515-1.961.25-.567.898-.952.565-1.754-.09-.22-.562-.64-1.028-.517-.17.046-.384.358-.412.465-.177.664.398 1.264.462 1.702.096.64-.21 1.404-.36 1.962-.181.682-.4 1.27-.513 1.857l.094-.026zm-1.8 7.431c.176-.187.223-.47.155-.775l-.095.027-.06-.078c-.143.166-.176.442-.154.774l.094-.026zm-1.337 6.294c.156.216.421.202.514.517.082.275-.103.622.052.928l.06-.078.094.027v-.877h.102l-.025-.078.077-.026a.74.74 0 0 1-.154-.567l-.094.026-.06-.078c-.049.187-.342.185-.514.103l.025.078zm-.668-.31c.145.045.21.168.41.156l.027-.078.077.026c.02-.236.138-.54-.103-.619-.307-.033-.359.19-.411.413l.025.051zm-3.832-.025l-.025-.077c-.398.204-.766.539-1.286.412-.384-.092-.498-.601-.823-.722-.832.46.259 1.268 1.183 1.084.483-.096.77-.518.977-.62zM9.901 47.827c.017-.136-.07-.17-.205-.155-.042.184.11.256.206.155m16.817-4.85c-.07.231.206.25.308.155-.016-.194-.173-.21-.308-.155M5.376 40.448c.076.114.137.242.36.207a4.58 4.58 0 0 1 .155-.155c.055-.328-.552-.465-.515-.052m8.794-.361h.103v-.103h-.103zm-3.909.051c.017-.069.074-.098.052-.206h-.205c-.046.166.079.162.154.206m14.245-.051c.319.01.42-.198.411-.517-.286-.335-.583.24-.411.517m4.166-1.186h.154v-.104h-.154zm-9.154-.259a.499.499 0 0 0 .514.052c.011-.04.001-.102.051-.104.09-.553-.824-.397-.565.052m-2.16-.413h-.206a.11.11 0 0 0 .206 0m3.65-.051c-.065-.003-.07-.066-.153-.052-.08.127.174.152.154.052m-6.531.361c.002.204.105.307.308.31.208-.136.247-.44.412-.62-.244-.4-.47.237-.72.31m38.93-.67c-.01-.077-.125-.048-.206-.052-.11.19.262.233.206.051m-16.663.051c.091.046.15.164.258.052.049-.19-.253-.204-.258-.052m-22.679-.309c.125.085.25.132.412.052.123-.43-.491-.472-.412-.052m11.674-.257c.066.07.243.07.309 0-.01-.146-.09-.22-.257-.207-.017.07-.073.099-.052.207m-.925.051c-.015.235.206.405.565.258.012-.04.002-.102.052-.104.053-.544-.597-.489-.618-.154m11.983-.103h.206c.023-.162-.045-.23-.206-.207zm.771-.31h.206a.11.11 0 0 0-.206 0m5.246-.258h.102c.08-.127-.174-.152-.154-.051.032.002.061.007.052.05m-21.342.104c0-.102.14-.066.102-.206-.06-.06-.181-.058-.308-.052-.039.194.058.252.206.258m15.325-.257c.023-.162-.11-.166-.258-.156-.057.21.159.255.258.156m20.056-.156c-.035.14.106.1.154.156.017-.07.074-.1.051-.208-.088-.003-.16.012-.205.052m-46.592.052c.073.013.087.085.154.103.017-.07.073-.099.052-.207-.118-.014-.193.013-.206.104M60.3 36.32c-.066-.003-.072-.066-.154-.052-.08.128.174.152.154.052m-2.777 0c-.053.156.114.092.205.103v-.155c-.09-.003-.16.012-.205.052m-1.029-.103h.103v-.103h-.103zm-26.639.154c.069.105.344.156.462.052v-.258c-.176-.126-.498-.043-.462.206m-14.76.104c.233.116.55.048.464-.31-.195-.252-.704-.03-.463.31m34.867-.361c.015-.136-.071-.17-.206-.155-.041.185.11.256.206.155m-8.177-.206c-.016.315.374.39.566.206.085-.46-.45-.48-.566-.206m-16.045-.568c-.061.328.386.407.412.103-.016-.157-.29-.21-.412-.103m4.526.413c.245-.029.42-.129.463-.362-.194-.376-.665.054-.463.362m16.868-.465c.116.015.193-.012.205-.103-.07-.016-.098-.073-.205-.052zm-34.2.052c.041.011.06.043.052.103h.258c.01-.04.001-.102.05-.103-.005-.13-.074-.2-.205-.207-.075.045-.163.078-.154.207m3.753-.155c-.005-.132-.171-.102-.307-.103-.124.288.333.365.308.103m27.204.155c.151-.004.29-.02.258-.207-.044-.076-.13-.11-.258-.103-.07.066-.07.244 0 .31m9.257-.258c.003-.089-.04-.132-.102-.155-.074.075-.076.2.102.155m-8.742.155c.126.007.248.007.309-.052v-.206c-.23-.164-.546.066-.31.258m-1.285-.465h-.257c-.104.337.361.337.257 0m15.17 1.548c.9-.023 1.017-1.275.155-1.6-.535.096-.907.045-1.389.052.451.524.343 1.571 1.235 1.548m-6.171-1.548c-.108.138.55.473.566.052-.075-.124-.433-.148-.566-.052m-6.788 0c-.024.162.11.165.257.156v-.208c-.12-.016-.198.009-.258.052m-11.776-.052h.102c.08-.126-.174-.151-.153-.05.03.002.06.007.05.05m-15.324.362c.028-.206.028-.156 0-.362-.896-.634-.75.997 0 .362m20.88-.207c-.287-.806-1.707-.322-1.184.62.596.486 1.397-.016 1.183-.62m22.73-.515c.052-.173-.07-.17-.205-.155-.016.136.07.169.206.155m-23.914.051c.157.002.339.03.309-.155-.006-.131-.172-.102-.309-.103-.036.159-.036.1 0 .258m11.16-.206c-.086-.07-.173-.137-.36-.104-.067.192.304.205.36.104m-7.097.051c.063.208.52.29.668.104.015-.266-.607-.385-.668-.104m-10.645-.155c-.043.273.251.314.36.156.02-.194-.234-.267-.36-.156m-15.12.31c.153.196.574.114.462-.258-.176-.172-.558-.128-.462.258M47.7 34c.003-.193-.23-.15-.411-.156.008.218.252.228.411.156m-29.776-.104c-.005-.132-.172-.102-.308-.103-.124.288.333.365.308.103m27.77.465c.412-.052.642-.286.823-.568a.964.964 0 0 0-.565-.103c.08.39-.256.363-.257.67m-4.937-.928v.206c.04.012.101.002.103.052.183.012.268-.074.257-.258-.07-.074-.292-.074-.36 0m.823-.104h-.258c-.081.274.34.274.258 0m-14.348.826c.058.011.08.057.102.103.46-.02.473-.488.669-.774-.403-.556-.77.196-.771.671m7.405-1.135c.052 0 .062.042.103.051 0-.051.041-.06.051-.103-.051 0-.061-.042-.103-.051 0 .051-.041.061-.051.103m-13.371-.052h.154v-.103h-.154zm30.239.826c.14-.984-1.152-1.262-1.594-.62-.223.325-.12.712-.155 1.188.678.459 1.654.098 1.749-.568M47.7 32.76c-.167.403.479.446.514.052-.07-.115-.388-.152-.514-.052m11.16.361c.02.604 1.213.564.925-.258-.344-.324-.94-.203-.925.258m-39.701-.361c-.04-.133-.164-.18-.36-.155-.207.294.32.519.36.155m44.381-.516c.009-.113-.043-.164-.155-.155-.009.113.042.164.155.155m-32.965-.31c.023.182.109.22.257.155.018-.222-.128-.199-.257-.154m1.903-.104v.155c.078.08.353.092.309-.104-.044-.098-.226-.14-.31-.05m1.75-.156c-.33-.059-.113.158 0 0m-7.663.206c.188.21.588.032.411-.257-.19-.093-.498-.075-.41.257m-8.846 0c.246.025.403-.041.41-.257-.2-.15-.407.048-.41.257m44.69-.309h.102c0-.052.042-.061.052-.103-.066-.003-.072-.066-.155-.052zm-29.571-.155c-.33-.06-.113.158 0 0m29.005 0v-.155h-.155c-.01.113.043.165.155.155m-15.326.156c.077-.062.23-.045.206-.207-.185-.429-.75.139-.206.206m-20.056-.052c.02-.134.153-.155.155-.309-.07-.016-.1-.073-.206-.051-.06.15-.078.304.051.36m21.702.671c.073.27.635.461.823.155.01-.471-.615-.471-.875-.258l.026.052zm-2.751.181l-.026-.078c-.297-.555-.55-.939-1.131-1.083-1.346-.334-1.821.856-1.337 1.96.432.238.97.37 1.696.31a4.636 4.636 0 0 1 .824-1.032zm13.653-1.264c-.069-.017-.097-.074-.205-.052-.04.176.197.202.205.052m-27.873-.052c-.074.028-.265-.06-.257.052.075-.029.266.06.257-.052m-1.08.206c.168.354.572.029.618-.206-.265.01-.608-.06-.618.206m-11.005.104c.029.17.18.291.514.257.455-.613-.61-.83-.515-.257m45.462-.671h.103v-.103h-.103zm-.875-.103c.003-.089-.039-.133-.102-.155-.074.076-.076.2.102.155m-16.199-.412h.103c.08-.127-.174-.153-.154-.053.031.004.061.008.051.052m-20.878.155c.084.5 1.034.398.72-.31-.341-.322-.783-.061-.72.31m-6.172-.413h.155v-.155h-.155zm45.821.67c.265.19.49.515.926.517.367 0 .612-.212.823-.465v-.67c-.352-.847-1.911-.495-1.749.619m-2.982-1.238c.09.045.15.163.257.05.049-.189-.253-.204-.257-.05m-42.17-.104v.207c.06.06.182.058.308.051.116-.204-.106-.374-.308-.257m7.045-.362c-.013.168.061.248.206.258.066-.003.071-.066.154-.051v-.207c-.069-.074-.29-.074-.36 0m17.331-.258c-.318.22.267.56.309.155-.047-.108-.152-.157-.309-.155m19.953 0c.2.269.266-.205 0 0m-9.617 1.549c.34.033.884-.21.978-.568.187-.716-.354-1.19-1.132-1.033-.865.253-.61 1.524.154 1.6M45.9 28.477c-.007.128-.007.249.052.31.221.016.415.003.411-.207-.014-.171-.336-.204-.463-.103m13.32-.155h.154v-.103h-.154zm-11.777-.206c-.093.282.402.282.309 0-.193-.005-.147-.058-.309 0m2.469.103c-.005-.15-.566-.4-.566.052.135.266.571.174.566-.052m-1.415-.077l.077-.026c-.074-.156-.311-.092-.36.052.055.037.237.201.31.051zm-8.563-1.006c-.005-.132-.171-.103-.308-.104-.196.207.309.41.308.104m-3.085-.104h-.206a.11.11 0 0 0 .206 0m-13.576.052c-.006-.131-.172-.102-.309-.102-.123.287.333.364.309.102m9.77.052c.337.031.284-.325-.05-.258-.017.12.008.198.05.258m28.851 1.444c1.24.105 1.33-2.068-.103-1.754-.909.2-.76 1.682.103 1.754m-21.445-2.476c.069.067.191.068.206-.052-.069-.067-.191-.068-.206.052m-4.371-.052c.242.02.44-.004.411-.258-.138-.372-.752-.015-.411.258m-15.634-.516h.155v-.103h-.155zm3.292.103c.142.125.318.111.41-.051.022-.29-.483-.268-.41.051m10.594-.464c.065.071.223.05.36.051-.012-.097.057-.113.05-.206-.096.003-.109-.04-.05-.103-.218-.063-.416-.07-.36.258m-15.943 0c-.426 1.11 1.207 1.294 1.286.413.046-.52-.436-.615-.72-.93-.106.256-.391.331-.566.517m1.337-.464h.103v-.103h-.103zm16.457-.103c-.012.217.096.315.257.36.113-.04.204-.103.205-.257-.014-.172-.335-.206-.462-.103m-11.983.36c.134-.053.169-.21.155-.412-.124-.066-.19-.189-.411-.155-.138.23.002.565.256.568m-4.731-.568c-.06-.043-.138-.068-.258-.052-.09.231.273.186.258.052m-1.491-.155c-.174-.157-.157.19 0 0m-.258-.103c-.045-.04-.146.032-.154.052-.072.194.256.037.155-.052m33.016.206c-.175-.208-.689-.38-1.08-.36-.358.016-.78.432-.823.877-.089.895.665 1.097 1.028 1.754.08.143.086.384.155.567.074.2.178.342.205.516.077.489-.26.947.566.929.32-.797-.543-1.224-.566-2.012.464-.6 1.177-1.482.515-2.27m-11.418-.207c.024-.161-.11-.165-.256-.154-.058.208.157.254.256.154m-6.993-.103c-.056.2.306.207.308.051-.04-.011-.06-.043-.051-.102-.12-.017-.198.008-.257.05m-3.343-1.238c.04.012.102.002.103.052.145-.01.219-.09.206-.258-.124.021-.112-.094-.258-.052-.043.06-.067.138-.051.258m-5.451.929c-.17-.345-.186-.845-.411-1.135-.548-.14-.967.184-.926.568.05.467.77.52 1.13.722.074.201.262.508.567.31.08-.357-.256-.294-.36-.465m27.719-1.032c.011.447.656.447.668 0-.063-.275-.604-.275-.668 0m-18.102 0c.12-.017.22-.052.256-.155-.069-.016-.098-.073-.205-.051.011.097-.058.114-.051.206m-16.817-.516c-.046-.04-.147.032-.154.052-.073.194.256.037.154-.052m4.063.052c.002-.088-.04-.132-.103-.155-.074.075-.076.2.102.155m20.366-.258c-.097.011-.114-.058-.206-.052-.072.23.236.28.206.052m-1.646-1.394h.154v-.154h-.154zm16.148-.567c.121 0 .151.089.309.052.01-.04.001-.102.05-.104-.006-.164-.116-.227-.308-.205-.043.059-.068.137-.051.257m-22.783-.36c.035.19.32.187.413.05.023-.285-.395-.337-.412-.05m.463-.569c.153.062.174.015.309-.051-.01-.146-.09-.22-.258-.207a.335.335 0 0 0-.051.258m22.525 0c-.57.203-1.053.239-1.543.155-.706-.12-1.53.022-1.594.774-.103 1.19 1.576 1.362 2.108.361.147-.276.098-.465.257-.877.61-.42 1.954.21 2.057-.722-.493-.225-.827.146-1.285.31m-18.72-.516c.099-.023.222-.02.206-.156-.134-.014-.221.02-.206.156m3.858-.207c-.01-.076-.125-.047-.206-.051-.11.19.261.232.206.05m14.81.104c.037.215.43.286.566.104v-.207c-.086-.246-.62-.302-.566.103m-13.576-.207c.069.017.097.075.205.053.039-.177-.196-.201-.205-.053m-6.274-2.734c-.048-.09-.161-.114-.309-.103-.123.288.333.365.309.103m-1.75-.31v.156c.374.266.374-.422 0-.156m8.28-.36c.067.002.072.065.155.05.003-.088-.04-.131-.103-.154 0 .052-.042.061-.051.103m7.61-.154c-.044.314.42.332.36 0-.068-.074-.29-.074-.36 0m-8.279.051h.206c.01-.169-.242-.203-.206 0m-7.816-2.734c.679-.138 1.125.282 1.079.825-.08.944-1.808.988-1.697-.207.022-.24.192-.533.618-.618" fill="white" fill-rule="nonzero"/></svg>