<?xml version="1.0" encoding="UTF-8" standalone="no"?>
<svg id="Layer_1" xmlns:rdf="http://www.w3.org/1999/02/22-rdf-syntax-ns#" xmlns="http://www.w3.org/2000/svg" enable-background="new 0 0 226.777 226.777" xml:space="preserve" height="226.78px" viewBox="0 0 226.777 226.777" width="226.78px" version="1.1" y="0px" x="0px" xmlns:cc="http://creativecommons.org/ns#" xmlns:dc="http://purl.org/dc/elements/1.1/"><metadata id="metadata9"><rdf:RDF><cc:Work rdf:about=""><dc:format>image/svg+xml</dc:format><dc:type rdf:resource="http://purl.org/dc/dcmitype/StillImage"/><dc:title/></cc:Work></rdf:RDF></metadata><path id="path3" fill="#fff" opacity="0.2" d="m113.39 0c-62.623 0-113.39 50.767-113.39 113.39 0 62.62 50.766 113.39 113.39 113.39 62.62 0 113.39-50.77 113.39-113.39 0-62.623-50.77-113.39-113.39-113.39zm0 6.9668a106.42 106.42 0 0 1 106.42 106.42 106.42 106.42 0 0 1 -106.42 106.42 106.42 106.42 0 0 1 -106.42 -106.42 106.42 106.42 0 0 1 106.42 -106.42zm-35.624 69.328l-5.723 18.541h75.787l-11.41 37.114h-76.397l-5.72 18.54h81.227c7.94 0 10.06-1.39 15.74-4.71 5.67-3.33 10.1-9.14 12.5-16.06s8.26-26.44 10.06-32.947c1.8-6.506 2.49-8.998 0-13.839-2.49-4.847-7.61-6.639-11.49-6.639h-84.574zm-21.204 28.505l-5.236 17.03h45.264l5.24-17.03h-45.268z"/></svg>
