<?xml version="1.0" encoding="UTF-8" standalone="no"?>
<svg xmlns="http://www.w3.org/2000/svg" viewBox="0 0 26.987 26.988" height="102" width="102" opacity="0.2"><defs><clipPath id="b"><path d="M643.347 374.719h88.588v70.703h-88.588z"/></clipPath><clipPath id="a"><path d="M0 0h841.89v595.276H0z"/></clipPath></defs><g clip-path="url(#a)" transform="matrix(.15724 0 0 -.15724 -94.698 77.973)" stroke="#fff" fill="#008ce3" fill-opacity="0" stroke-width="4.77"><path d="M688.066 329.303c44.607 0 80.768 36.16 80.768 80.768 0 44.607-36.16 80.769-80.768 80.769-44.607 0-80.768-36.162-80.768-80.77 0-44.607 36.161-80.767 80.768-80.767"/></g><g clip-path="url(#b)" transform="matrix(.15724 0 0 -.15724 -94.698 77.973)" fill="#fff"><path d="M700.375 445.422h-31.701l-2.627-14.683 28.607-.036c14.089.005 18.254-5.114 18.135-13.6-.061-4.35-1.947-11.703-2.761-14.088-2.172-6.353-6.63-13.603-23.353-13.577l-27.808.012-2.632-14.697h31.63c11.157 0 15.9 1.297 20.928 3.62 11.139 5.144 17.767 16.139 20.423 30.487 3.954 21.363-.971 36.562-28.841 36.562M888.046 374.72l5.32 30.223c.959 5.96-1.46 8.514-7.42 8.514h-8.474l-6.811-38.736h-17.24l12.472 70.7h17.24l-3.32-18.77h12.915c15.11 0 20.539-6.596 17.878-21.708l-5.32-30.222z"/><path d="M654.994 417.46c-8.304 0-9.494-5.41-10.28-8.681-1.029-4.281-1.367-6.016-1.367-6.016h32.46c8.304 0 9.494 5.41 10.28 8.682 1.03 4.282 1.367 6.016 1.367 6.016z"/></g></svg>
