<svg xmlns="http://www.w3.org/2000/svg" width="199.779" height="228.626" viewBox="0 0 52.858 60.491"><path d="M30.589 33.352c-.679.6-1.65.884-2.733.798a.045.045 0 1 0-.008.09c1.11.089 2.104-.202 2.802-.82a.046.046 0 0 0-.061-.068m1.377-2.035c-.113.623-.48 1.257-1.06 1.834a.037.037 0 0 0 0 .053.037.037 0 0 0 .053 0c.591-.587.965-1.235 1.08-1.873a.038.038 0 0 0-.029-.044.038.038 0 0 0-.044.03m-19.467-11.65a1.96 1.96 0 0 0-1.12.534.04.04 0 0 0 0 .058.04.04 0 0 0 .057 0 1.881 1.881 0 0 1 1.073-.51.04.04 0 0 0 .036-.047.04.04 0 0 0-.046-.035m.806 13.906c-.012.019-.01.042.008.055l.114.074.058.037c.02.012.048.01.06-.01.013-.019.01-.042-.009-.054l-.067-.044-.104-.068c-.02-.013-.048-.01-.06.01m.15.093c-.217.296-.493.554-.738.783a.07.07 0 0 0-.003.1.07.07 0 0 0 .099.002c.248-.232.53-.496.755-.802a.07.07 0 0 0-.016-.1.07.07 0 0 0-.098.017m1.41-1.63c-.447.567-.94 1.114-1.407 1.62a.074.074 0 1 0 .109.101c.468-.509.965-1.058 1.415-1.63a.074.074 0 0 0-.012-.104.075.075 0 0 0-.104.013m20.02-3.282c-.077.056-.12.13-.156.194a.377.377 0 0 1-.096.13.099.099 0 0 0 .117.159.55.55 0 0 0 .152-.192c.03-.054.056-.1.099-.131a.099.099 0 1 0-.116-.16m-3.17-2.424c-.143.275-.269.561-.39.838-.134.307-.274.624-.434.92a.107.107 0 0 0 .043.146.107.107 0 0 0 .146-.043c.166-.304.306-.626.442-.936.12-.274.243-.557.383-.825a.108.108 0 0 0-.19-.1m-2.34.997v.004c0 .022.018.042.04.043.234.017.383.126.527.232.143.105.292.211.513.222.07.094.17.145.268.192.086.041.168.08.229.149a.045.045 0 0 0 .062.003.044.044 0 0 0 .004-.062.759.759 0 0 0-.257-.17c-.098-.047-.19-.09-.245-.177l-.013-.02h-.024c-.206-.003-.342-.103-.484-.208-.154-.113-.314-.23-.573-.248a.044.044 0 0 0-.047.04m6.096 6.985c-.016.083-.018.165-.021.245a.98.98 0 0 1-.045.317.074.074 0 1 0 .14.053c.046-.121.05-.245.054-.365.002-.078.005-.152.019-.222a.075.075 0 0 0-.147-.028m-.268 1.503l-.017.059a.285.285 0 0 1-.026.077.087.087 0 0 0 .01.12.085.085 0 0 0 .118-.008.347.347 0 0 0 .062-.147l.014-.05c.013-.047-.012-.096-.058-.107a.082.082 0 0 0-.104.056m-.51-2.768l-.052.105a.058.058 0 0 0 .026.077.059.059 0 0 0 .078-.025l.052-.105a.058.058 0 0 0-.104-.052m-1.093.397l-.211.219c-.4.413-.813.838-1.153 1.302a.07.07 0 0 0 .015.095.069.069 0 0 0 .094-.016c.335-.455.744-.878 1.14-1.288l.212-.22a.067.067 0 1 0-.097-.092m-2.089 2.354a29.864 29.864 0 0 0-.852 1.06c-.279.356-.566.725-.87 1.08a.065.065 0 0 0 .098.085c.306-.358.595-.728.875-1.087.271-.348.552-.708.848-1.054a.065.065 0 0 0-.007-.092.065.065 0 0 0-.092.008M28.975 38.9c-.28.311-.539.643-.789.964l-.316.401a.092.092 0 0 0 .144.114l.318-.403c.247-.318.504-.647.78-.953a.092.092 0 0 0-.137-.123m5.355-10.034c-.022.044 0 .087.043.11.043.021.101-.006.124-.05l.05-.097c-.022.044-.071.053-.115.032-.044-.023-.057-.084-.034-.127zm-.494.932l-.24.166a3.203 3.203 0 0 0-.284.2.101.101 0 1 0 .128.158c.083-.068.173-.126.267-.188l.254-.176c.046-.032.053-.092.02-.138-.032-.046-.1-.054-.145-.022m-.59-1.563a37.456 37.456 0 0 1-1.876.92.079.079 0 1 0 .065.144 37.93 37.93 0 0 0 1.884-.925.079.079 0 0 0-.073-.14m5.298-5.363a.074.074 0 0 0-.063.084c.181 1.233-.89 2.163-1.75 2.91a.074.074 0 0 0-.007.104.074.074 0 0 0 .105.008c.84-.73 1.992-1.73 1.8-3.043a.075.075 0 0 0-.085-.063m-1.954 3.1c-.737.704-1.64 1.254-2.514 1.785l-.25.152a.074.074 0 0 0-.025.102.074.074 0 0 0 .101.025l.25-.152c.881-.536 1.792-1.09 2.54-1.804a.073.073 0 0 0 .002-.105.074.074 0 0 0-.104-.002m-5.687 2.189l-.086.104c.036-.042.095-.045.137-.01.043.035.046.102.01.145l.103-.125c.035-.043.024-.1-.019-.134-.042-.036-.11-.023-.145.02m.031.03a.057.057 0 0 0 .025.078c.15.077.266.155.342.29a.057.057 0 1 0 .1-.055c-.096-.17-.244-.263-.39-.337a.057.057 0 0 0-.077.025m-.08-.052v.077a.132.132 0 0 0 .262 0v-.077a.132.132 0 1 0-.263 0m4.253-3.94a3.04 3.04 0 0 1-.803.786.09.09 0 0 0-.025.123.09.09 0 0 0 .124.024 3.219 3.219 0 0 0 .85-.833.089.089 0 0 0-.022-.123.089.089 0 0 0-.124.023M18.555 42.653l-.151.344c-.1.23-.203.469-.318.698a.063.063 0 1 0 .112.056c.117-.232.22-.472.321-.704l.15-.343a.063.063 0 0 0-.031-.082.062.062 0 0 0-.083.03m7.99-.85c-.298.391-.643.768-.977 1.132-.266.292-.541.592-.796.903a.067.067 0 0 0 .01.095.067.067 0 0 0 .095-.01c.252-.306.526-.606.79-.896.337-.366.684-.746.986-1.142a.068.068 0 0 0-.107-.082m-2.68 2.989a4.236 4.236 0 0 0-.576.598.092.092 0 0 0 .016.13.092.092 0 0 0 .13-.017c.15-.192.33-.38.551-.571a.092.092 0 0 0-.12-.14m-2.354 2.35c-.2.043-.327.175-.45.303-.102.105-.2.206-.336.262a.068.068 0 0 0 .052.125c.162-.068.273-.183.38-.293.115-.12.223-.231.384-.267a.067.067 0 1 0-.03-.13m-1.125.79a2.961 2.961 0 0 0-.54.398l-.122.103a.054.054 0 0 0-.006.076.053.053 0 0 0 .075.006l.122-.104c.17-.146.33-.285.521-.385a.055.055 0 0 0 .023-.073.055.055 0 0 0-.073-.022m-9.705-1.664c-.201.63-.489 1.294-.831 1.924a.048.048 0 0 0 .019.065.048.048 0 0 0 .064-.02 11.414 11.414 0 0 0 .84-1.94.047.047 0 0 0-.031-.059.047.047 0 0 0-.06.03m21.264-16.49c-.014.05.008.093.026.128.023.044.032.065.006.095a.031.031 0 0 0 .002.043.031.031 0 0 0 .044-.003c.055-.062.025-.12.003-.164-.017-.03-.03-.056-.023-.083a.03.03 0 0 0-.021-.038.03.03 0 0 0-.037.022m6.216 14.286c-.007-.234.195-.594.313-.887.235-.59.488-1.235.157-1.932-.426-.892-1.663-1.08-2.298-.418-.589.616-.442 1.883 0 2.454.294.38.83.59 1.148.992-.118.625.21 1.471.837 1.358.543-.486-.146-1.113-.157-1.567M29.81 27.565c-.213.039-.18-.168-.418-.104-.001.145.373.18.418.104M19.004 12.686c-.023-.1-.02-.225-.157-.209-.01.131.117.127.157.21m16.602 21.717c.28-.283.414-.987-.314-.887a.264.264 0 0 1-.157.156c-.071.403.14.521.314.679l.095-.026zm-.262 1.514c.274-.203.62-.746.209-1.044l-.078.026-.026-.079c-.363.175-.413.609-.262 1.045l.096-.026zm-.678-2.819c-.573-.088-.507.749 0 .679.218-.046.296-.478.104-.626l-.078.026zm-.992.47c.333-.114.586-.765.992-.47l.078-.026.026.079c.28.008.392-.16.417-.314.05-.298-.342-.446-.26-.626.45-.4.734-.91 1.096-1.358.619-.764 1.243-1.475 1.827-2.245.498-.657 1.017-1.306 1.462-1.931.305-.43.645-.752.835-1.201.167-.008.155-.193.313-.209.04-.256.206-.386.262-.626.162-.082.255-.232.417-.313.022-.24.187-.336.209-.575.34-.181.544-.5.679-.888.678-.58 1.01-1.533 1.513-2.192.237-.31.433-.639.627-.94.345-.536.67-1.094.992-1.618.11-.179.25-.345.366-.523.716-1.102 1.347-2.197 2.035-3.289.446-.706.951-1.4 1.358-2.14.416-.757.802-1.546 1.253-2.297.665-1.108 1.265-2.337 1.827-3.445.29-.572.743-1.202.836-1.828.136-.927-.327-1.342-.47-1.88-.019-.066-.084-.014-.105-.051-.12-.22-.156-.485-.261-.627-.021-.029-.13-.021-.156-.052-.854-.975-2.557-.558-3.55-.105-.732.334-1.346.853-1.932.94-.592.089-1.139-.056-1.619.053-.447.1-1.059.474-1.253.835-.199.37-.142.78-.052 1.253.265.149.398.368.679.417.625.111.993-.176 1.305-.365.536-.325.854-.717 1.253-1.096.278-.264.52-.399.887-.627.816-.506 1.789-1.207 3.08-.992.618.523.127 1.37-.051 2.245-.096.467-.15.753-.261 1.044-.284.744-.666 1.453-.888 2.193-.043.144-.134.26-.156.365-.125.574.044 1.13-.053 1.723-.028.172-.157.444-.26.679-.09.202-.215.43-.314.626-.86 1.707-1.796 3.312-2.715 4.855-.595 1-1.166 2.04-1.774 2.976-.127.194-.249.428-.47.522-.5 1.433-1.65 2.215-2.194 3.602-.313.244-.543.571-.678.993-.29.163-.47.435-.574.783a5.098 5.098 0 0 0-1.045 1.461c-.636.68-1.155 1.453-1.723 2.193-.56.731-1.209 1.423-1.67 2.245-.22.193-.576.436-.731.626-.127.158-.137.362-.26.523-.407.528-1.097.807-1.254 1.513l.079.027zm-2.089 2.349c.562-.012.76-.389.784-.94l-.079.026-.078-.026c-.527.013-.796.283-.732.888l.08-.026zM29.08 39.05c.413-.214.8-.452.836-1.043l-.078-.026-.027-.08c-.417.193-.755.464-.835.993l.068.068zm5.43-10.18c.18-.028.127-.29.366-.26v.156l.067.068.036.088c.218-.314.67-.86.418-1.305-.273-.012-.383.226-.521.366a6.282 6.282 0 0 0-.418.47c-.113-.009-.024.185-.053.261l.068.068zm-.575 1.096c.328-.212.644-.436.837-.783l-.08-.026-.077-.026h-.157c-.021-.125.095-.113.052-.26l-.096.025-.06-.079c-.294.212-.52.49-.523.993l.068.068zm2.768-3.862c.058-.011.081-.058.104-.105l-.026-.078.026-.078c-.183-.165-.255-.044-.261.209l.096-.027zM33.256 28.4c.334-.014.517-.18.678-.366l-.07-.063.018-.094a1.02 1.02 0 0 0-.678.366l.078.06zm-15.14 15.243c-.635.13-1.213 1.264-.522 1.776.758-.065 1.163-1.069.626-1.671l-.077-.027zm5.22 1.723c-.377.272-.792.667-1.096.94-.297.267-.703.406-.782.835l.07.064-.018.093c.158-.05.28-.138.47-.157.253-.252.432-.573.679-.835.237-.253.622-.407.73-.783l-.026-.078zm1.462-1.566c-.215.08-.31.282-.574.313-.015.333-.27.427-.365.68l.068.067.036.089c.393-.269.75-.574.94-1.044l-.078-.027zm-3.601-5.794c.32-.655.797-1.152 1.148-1.776h.365c.844.536-.608 2.46-1.514 1.776m-2.767-5.744c.19-.492.67-.73 1.044-1.043a17.72 17.72 0 0 0 1.097-.992c.41.025 1.06.618.835 1.148-.145.236-.477.225-.73.313-.246.087-.486.184-.731.262-.502.16-1.056.472-1.515.312m7.414-5.376c.264.67-.59 1.104-1.045 1.41-.373.25-.776.536-.939.625-.127.07-.707.163-.731-.156.05-.257.333-.39.522-.522.607-.422 1.345-.842 1.931-1.357zm3.863-2.454c-.023.516-.085.994-.47 1.148-.427-.197-1.077-.132-.992-.626.072-.419.986-.375 1.462-.522m-6.317 2.924c.098-.403.365-.785.626-1.201.397-.632.986-1.314 1.41-1.984.526-.072 1.062.51.836 1.044-.206.485-.781.735-1.358 1.148-.587.422-1.076 1-1.514.993m7.674-4.177c-.092.22-.39.236-.522.418-.205-.279.294-.574.522-.418m4.855-.888c-.045.309-.34.415-.522.627-.41.482-.711 1.092-1.253 1.462-.497-.355-.305-.974 0-1.253.313-.287.919-.85 1.149-1.045.286-.007.399.159.626.21m-8.092 1.722h-.522c-.344-.212-.405-.709-.365-1.306.182-.356.48-.598.783-.835.581-.074 1.343-.15 1.462.261.178.618-1.187 1.512-1.358 1.88m6.735-3.028c.823.717-.498 1.369-.783 1.88-.288.056-.445.047-.626.208-.226.201-.25.664-.418.888-.25.334-.9.677-1.305.94-.464.302-.919.674-1.462.783.166-.513.334-1.023.365-1.67.375-.157.605-.586 1.096-.47.56-.336.622-.994 1.097-1.41.542-.476 1.301-.664 1.88-1.149zm-8.718 1.253c-.793.337-1.411-.75-1.253-1.566.081-.42.464-.5.574-.835.243-.017.29.161.47.208.214.566.35 1.44.209 2.193m-4.385.835c-2.483.018-6.127.35-8.667-.104-.342-.061-.8-.126-.992-.262-.253-.178-.544-.82-.47-1.148.075-.333.89-.642 1.41-.887 2.57-1.213 5.163-2.43 7.674-3.602.53-.248 1.065-.45 1.566-.68.525-.238 1-.542 1.514-.73.245-.09 1.135-.079 1.358 0 .42.15.358.59.47 1.044.13.528.497.932.365 1.566-.078.374-.445.65-.73.992-.208.248-.562.794-.836.888-.59.2-1.312-.18-1.932.104-.411.189-.644.642-.678.992-.058.58.43 1.245-.052 1.827m5.48-1.566c-.487-.34-.096-1.069-.156-1.723-.05-.55-.322-.91-.208-1.41.139-.615 1.068-1.402 1.566-1.931.204-.217.476-.475.731-.73.254-.256.576-.669.73-.731.304-.124.825-.019.94.052.505.307.462 1.948.575 2.766.05.367.19.749.156 1.097-.04.405-.4.83-.574 1.148-.172.313-.36.938-.679.992-.537.091-.817-.767-1.41-.783-.278-.008-.674.211-.835.365-.276.266-.329.768-.835.888m-.365-4.49c-.203-.146-.48-.217-.47-.574-.214-.346-.65-.466-.68-.888-.022-.329.372-.882.68-1.148.215-.187.574-.356.887-.47.665-.241 1.798-.402 1.62.679-.067.393-.752.945-.994 1.253-.377.482-.47.919-1.043 1.148m3.758 5.743c-.302-.43.11-.846.209-.992.373-.55.873-1.154 1.305-1.827.21-.325.352-.705.575-1.045.207-.315.455-.627.678-.94.38-.53.75-1.207 1.253-1.983.382-.589 1.126-1.44 1.149-2.088.039-1.085-1.332-1.15-1.514-2.089-.052-.265.027-.63.156-.991.182-.509.378-.816.784-1.045.795-.031 1.399.177 2.088.47.654.278 1.2.527 1.357 1.149.102.403.08.98.105 1.514.041.885-.084 1.56-.209 2.245-.174.951-.399 1.688-.888 2.35-.65.877-1.572 1.761-2.453 2.506-.11.09-.231.143-.366.26-.517.448-1.43.961-2.088 1.357-.359.216-.7.403-1.044.627-.34.22-.71.488-1.097.522m4.892 13.244l-.037-.088c-.124.224-.493.202-.678.366-.159.468-.433.82-.522 1.357-.211.16-.3.312-.522.47-.326.232-.739.307-1.044.522-.198.138-.31.379-.522.522-.195.13-.499.217-.783.365-.691.36-1.394.955-2.35.94-.342.237-.869.552-1.253.574.09-.328.47-.365.523-.73l-.094.019-.063-.072c-.4.26-.609.715-.94 1.045-.515.041-.927.186-1.462.208-.354-.417-1.162-.244-1.566 0-.14-.649.268-1.19.679-1.462.372-.813.258-1.958.73-2.662.396-.588.953-.809 1.619-1.253.374-.498.295-.954.418-1.514.088-.406.32-.79.522-1.096.508-.773.99-1.447 1.775-1.775.124-.052.27-.001.417-.053.035-.011.07-.135.105-.156.196-.117.505-.15.679-.209.302-.103.597-.245.835-.314.124-.034.25.024.365 0 .556-.114.937-.455 1.41-.73l-.089-.037-.068-.068c-.523.108-.96.567-1.462.523.081-.673-.171-1.013-.366-1.41l-.077-.06.025-.097c-.347 0-.515-.18-.626-.417.11-.048.16-.154.157-.313l-.068-.069-.036-.088c-.146.046-.173.21-.21.365-.933-.093-1.392-.66-1.566-1.513.169-.507.414-.731.888-.888a7.022 7.022 0 0 0 1.618-.783c.245-.163.413-.42.68-.418-.17.44-.429.79-.523 1.305l.068.068.036.089c.184-.077.317-.206.47-.313-.26-.43.05-.917.365-1.201.29.284.51.638 1.045.679-.165.374-.4.68-.627.992-.29.185-.83.413-.783.782.03.24.276.265.418.366.078.055-.01.168.156.157.109-.24.304-.394.47-.574-.03-.223.038-.346.053-.523.29-.232.356-.688.574-.991.01-.16.342.169.314-.105.2-.15-.318-.194-.106-.365-.002-.194.256-.127.262-.314h-.105v-.104c-.172-.03-.074-.197-.052-.313.337-.099.412-.459.783-.522v.156l.096-.026.06.079c.329-.386.531-.898.732-1.41.74-.84 1.777-1.852 2.558-2.715.531-.587 1.04-1.207 1.67-1.618.284-.186.654-.283.888-.523.258-.264.225-.56.314-.94.15-.656.512-1.224.939-1.513.743-.505 1.683-.81 2.297-1.462.58-.616.944-1.726.209-2.662-1.23-.84-2.392.23-2.871 1.044-.244.412-.383.94-.732 1.2-.333.25-.88.263-1.148 0-.492-.483-.422-1.592-.627-2.506-.064-.288-.2-.557-.26-.835-.14-.639-.185-1.302-.418-1.723-.206-.37-.717-.846-1.253-.992-.895-.243-1.788.1-2.402.21-.603.105-1.19.088-1.774.26-.307.09-.877.399-1.044.522-.045.032-.108.07-.157.105-.687.495-1.164 1.15-1.827 1.618-.6.423-1.17.32-2.037.679-1.478.663-2.05 2.371-4.28 2.192-.222-.618-.652-1.172-.993-1.774-.328-.582-.375-1.482-1.148-1.671-.542.578.018 1.102.365 1.67.211.345.353.744.522 1.045.25.44.722.72.784 1.148a2.11 2.11 0 0 1-.887 1.253c-.637.402-1.5.788-2.193 1.096-.33.147-.65.398-.993.575-2.152 1.111-4.425 2.143-6.577 3.132-1.136.522-2.206 1.054-3.185 1.67-1.106 1.635.974 2.087 2.401 2.297.857.127 2 .151 2.715.21.587.048 1.431-.123 2.088-.105.532.015.683.058.992 0 .687-.127 1.724-.097 2.454-.104.271-.002.573-.155.679.104-.309.65-.827 1.088-1.306 1.567-.118.037-.266.046-.365.104-.055.538-.308.784-.574 1.096-.325.38-.565.422-.836.731-.166.191-.295.502-.47.731-1.14 1.5-2.533 3.007-3.758 4.542-.655.82-1.417 1.64-2.193 2.61-.642.802-1.622 2.021-2.454 2.35-.36.142-.76.112-1.096.26-.474.21-.758.617-.992 1.045-.11.198-.28.437-.209.678.163.207.515.048.783.053a4.24 4.24 0 0 0 .992-.575c.169-.13.336-.23.47-.365a89.198 89.198 0 0 0 3.811-4.072l-.078-.06.026-.097c.027-.2.41-.494.574-.73l-.026-.08.078.027c.51-.434.878-1.255 1.41-1.566-.007.005.006.045 0 .053l.096-.027.06.078c1.012-1.197 1.977-2.772 3.237-4.228.867-1.002 1.75-2.035 2.61-2.976.322-.352.534-.78.836-1.044.354-.31 1.593-.248 2.35-.21.418.022.954.006 1.096.366-.711.915-1.367 1.88-1.88 2.924-.17.348-.308.808-.522 1.096-.062.085-.228.141-.365.261-.112.098-.206.281-.313.366-.13.102-.287.16-.418.26-1.176.907-2.296 1.664-3.342 2.663-.477.457-.898 1.015-1.409 1.253-.66.309-1.582.216-1.774 1.149.883.852 1.634-.496 2.4-.835.464-.205 1.179-.343 1.567-.47.872-.287 1.777-.664 2.558-.888.252.302.532.699.679 1.097.352.953.061 1.763-.366 2.505-.425.74-.737 1.4-1.148 2.088-.277.464-.5 1.04-.73 1.358-.773 1.054-1.743 1.992-1.515 3.811l.078-.026.026.078c.678.233 1.18.59 1.88.574 1.307-.03 2.011-1.191 3.393-1.357.48.375 1.339.285 1.618-.209.382.057.695-.194.992-.052v.105l.078.026.027.078c.12-.122.247-.24.365-.365.631-.223 1.405-.302 2.088-.47.396-.413.9-.614 1.41-.836.2-.087.396-.122.575-.209.413-.2.81-.607 1.252-.783.148-.059.295-.032.418-.104.48-.286.799-.988 1.305-1.2-.165.39.073.624.313.626.58.005.39-.89-.104-.783.032-.004.062-.009.052-.052.026-.013.081.016.104 0 .495-.336.823-.921.888-1.671zM21.927 60.403c-.044-.045-.148.038-.157.052-.049.092.193-.016.157-.052m-1.044-1.827c.19.164.29-.097.365-.21-.161-.135-.28.107-.365.21M20.831 58c.16.037.1.037.26 0 .038-.21-.05-.298-.26-.261zm-3.133-.21c.472.003.462-.943-.104-.73-.385.146-.301.73.104.73M13 55.443c-.03.23.282.18.209-.052-.099-.012-.116.06-.209.052m-2.506-.417c.067.002.072.066.156.052.082-.129-.177-.154-.156-.052m11.799-.262h.104v-.104h-.104zm5.481-.522c.027.078.078.132.105.21.318.056.417-.106.47-.314-.11-.2-.59-.234-.575.104M17.02 53.72h.156v-.105h-.156zm5.43-.574c.014-.071-.033-.205-.053-.104-.014.07.033.203.052.104m-8.248.208c.286.37 1.006.21.835-.47-.264-.449-1.01-.243-.835.47m12.633 0c.68.134.635-1.067-.052-.782-.368.152-.324.709.052.782m1.88-.886c-.034-.616-1.136-.64-.992.156.048.264.262.418.73.365.162-.236.274-.301.262-.521m-13-.784a.112.112 0 0 0 0-.209zM3.498 50.118a.249.249 0 0 0 .053.157c.13.008.163-.08.208-.157a.194.194 0 0 0-.26 0m30.749.314c.108.493 1.14.425.887-.314-.078-.228-.387-.316-.626-.209-.303.137-.305.325-.261.523m-17.542-.836c-.107-.643-1.208-.356-.835.47.43.349.905-.055.835-.47m-4.646-.261c.27.374.707-.02.836-.261-.231-.037-.865-.39-.836.26m26.156-.73c.213-.947-1.136-.668-.783.052-.193.07-.386.137-.418.366.004.268.35.314.574.208.097-.114-.003-.389.052-.417.327.065.396-.126.575-.209m-18.455-.13l.026-.079c-.385.032-.674.162-.73.522.115.058.14.207.26.261.248.021.255-.197.47-.208.002-.173.088-.261.052-.47zm-8.118 6.03c-.412.029-.71.627-1.201.73-.384.082-.804-.186-1.253-.156-.398.026-.66.391-.992.417-.522-.389-.99.054-1.462.157-.678.148-2.064.098-2.767.052-1.026-.068-2.325.3-2.715-.418.385-.57.996-1.023 1.619-1.513.564-.446 1.105-.953 1.67-1.462.63-.569 1.324-1.133 1.88-1.619.215-.188.468-.373.679-.522.744-.525 2.23-1.024 1.67-2.244-.09.002-.134-.041-.157-.105-1.183.053-1.089.917-1.513 1.618-.308.508-.98 1.047-1.515 1.515a69.283 69.283 0 0 1-1.67 1.41c-.537.438-1.069.953-1.619 1.409-.581.48-1.248.9-1.67 1.41-.313.376-.637.795-.627 1.409.53.656 1.76-.098 2.506.208.074-.066.003-.275.21-.208a16.014 16.014 0 0 1 3.027-.626c.388-.043.859-.092 1.201-.053.229.025.407.168.626.157.215-.011.438-.245.679-.262.348-.023.768.22 1.149.158.49-.081.849-.568 1.461-.523.42.03.752.35 1.15.209.22-.079.336-.302.469-.574-.151-.32-.375-.608-.835-.575m7.256-6.682h.105v-.104h-.105zm3.237.156c-.046-.502-1.052-.573-.835.314.349.349.869.054.835-.314M2.82 46.986h.26c.01-.132-.08-.163-.156-.208 0 .103-.142.065-.104.208m26.207-.208h.104v-.105h-.104zm9.867.155c-.182-.563-.969-.292-1.044.21-.05.327.074.347.157.626.657.142 1.046-.345.887-.836m-.73-.417c.067-.07.068-.194-.053-.209.009.078-.018.193.053.21m-21.458.312c.096.502.838.401.836-.104-.001-.345-.321-.48-.575-.366a.456.456 0 0 0-.26.47m7.204-.522h.104c.059-.075.057-.127-.052-.157-.003.067-.067.072-.052.157m12.06 0c.166.207.45.162.574-.052.055-.23-.176-.172-.157-.365-.32-.043-.409.148-.417.417M9.92 48.134c-.351.243-.862.481-.888.993-.01.209.151.44.21.678.616-.022 1.352-.46 1.2-1.096-.048-.2-.243-.308-.47-.418v-.053l-.078-.025zm.809-1.853l.026.078c.073-.255.243-.46.156-.73-.31-.242-.562-.082-.521.26.025.213.234.15.26.366v.052zm-.914-.183c.257-.039.432-.16.47-.418-.29-.461-.995.105-.47.418m4.751-.574h.105v-.104h-.105zm4.594.052c.06.043.14.07.261.053.003-.16.03-.344-.157-.314-.021.099-.148.095-.104.261m18.168-.575c.152.077.152-.233 0-.156zm-16.862-.782c-.025.164.045.232.208.208-.012-.098.059-.115.052-.208a.192.192 0 0 0-.26 0M13 43.592c-.794-.355-1.025 1.043-.052.836a.283.283 0 0 1 .208-.209c.058-.318-.09-.432-.156-.627m3.654.314c-.043-.936-1.333-.827-1.67-.105-.127.27-.092.67.052.836.166.19.522.228.992.208.292-.252.647-.489.626-.94m-9.24-.783c.003-.031.008-.061.052-.051-.006-.064-.016-.124-.105-.105.009.06-.008.148.052.155m23.024-.73c.178.04.204-.199.052-.208-.016.07-.074.1-.052.208m.94-.208c.066.002.072.067.156.052.003-.09-.04-.134-.105-.157.001.053-.042.062-.052.105m-5.9.104c.062.044.141.069.262.053.067-.314-.273-.306-.26-.053m.417-.47c.006.194.076.132.209.105-.007-.193-.076-.131-.21-.104m7.049 0h.104v-.105h-.104zm3.445-2.559c.01.147.091.222.261.21.012-.042.044-.062.105-.053.104-.386-.328-.47-.366-.157m-8.405.053c.099-.012.116.058.209.052.016-.123.102-.216 0-.314h-.157c-.043.06-.068.14-.052.261m-2.297-.052h.261c.037-.211-.05-.297-.26-.26zm1.305-.678c.141-.037.1.108.157.156.13.008.162-.082.261-.104v-.261c-.19-.153-.382.042-.418.209m2.872-.888c.016-.07.074-.1.052-.208h-.209c-.015.136.02.224.157.208m4.228-1.2c.358-.067.42-.634.104-.888-.953-.156-.689.998-.104.888m.21-2.402c0 .156.135.177.156.313.834.07.136-.939-.157-.314m-5.273-.573c.14.112.278.112.418 0 .107-.411-.525-.411-.418 0m6.735-1.15c-.015.14.072.173.21.158v-.21c-.092-.003-.164.013-.21.053m-4.96-.156c.082.004.041.133.157.104.07-.035.097-.112.105-.208-.13-.009-.254-.011-.262.104m-.313-.104c.038-.04.13-.256-.052-.21.01.078-.019.194.052.21m9.398-.366c.014-.138-.02-.225-.157-.21-.113.14-.02.33.157.21m-6.631-.575c.07.017.1.075.21.053v-.21c-.131-.008-.165.082-.21.157m-1.148-.678c.007-.037-.02-.304-.053-.157-.046.199.028.262.053.157m-14.096-.523c.253.026.283-.204.209-.365h-.262c.001.14-.019.298.053.365m-.626-.26c.165.213.481.145.522-.157-.066-.022-.107-.067-.105-.156-.288-.045-.415.071-.418.312m14.514-.104c.01-.15-.013-.265-.105-.314-.01.15.013.266.105.314m-11.225-.575c.104.11.223.003.262-.104-.13-.007-.254-.01-.262.105m-10.859-.052h.105v-.105h-.105zm21.665-.105h.106v-.104h-.105zm-20.672-1.409h.208c.046-.168-.08-.164-.157-.209-.016.07-.074.1-.051.21m6.578-2.873c-.16.176.193.158 0 0m13.573-.156c-.176-.159-.158.193 0 0m-3.237-5.273h.157v-.104h-.157zm16.08-1.462c.002-.032.008-.062.052-.052-.006-.064-.016-.124-.105-.104.009.061-.008.148.053.156m-27.356-2.924h.104c.081-.128-.177-.153-.157-.052.032.003.062.008.053.052M39.156 0c.239.035-.042.316 0 0" fill="white" fill-rule="evenodd"/></svg>