<svg xmlns="http://www.w3.org/2000/svg" width="170.523" height="244.888" viewBox="0 0 45.118 64.793"><path d="M40.095 43.238a.078.078 0 0 0-.042.101.402.402 0 0 0 .202.205.077.077 0 0 0 .104-.034.077.077 0 0 0-.034-.105.25.25 0 0 1-.128-.125.078.078 0 0 0-.102-.042m-7.876-15.102a.075.075 0 0 0-.012.105l2.03 2.563c1.834 2.334 3.73 4.746 5.815 6.968a.074.074 0 1 0 .109-.101c-2.082-2.218-3.975-4.628-5.807-6.958l-2.031-2.565a.074.074 0 0 0-.104-.012m-4.385-2.904c-.908 1.623-.966 3.886-.174 6.727a.101.101 0 1 0 .196-.054c-.778-2.788-.726-5 .155-6.574a.102.102 0 0 0-.177-.099m-11.555 12.54a.106.106 0 0 0-.049.142c.29.605 1.054 1.09 1.78.823a.105.105 0 0 0 .063-.136.105.105 0 0 0-.135-.062c-.616.226-1.267-.195-1.517-.716a.106.106 0 0 0-.142-.05M20.46 26.7a.176.176 0 0 0-.169.183c.018.39.126.753.23 1.104l.176.68c.025.093.123.161.217.137.094-.024.153-.108.129-.202l-.185-.715c-.103-.346-.2-.672-.216-1.02a.175.175 0 0 0-.183-.167m-11.801-.09a.164.164 0 0 0-.11.204l.035.111.121.35c.03.085.115.113.2.084.085-.03.124-.139.095-.224l-.104-.303-.034-.115a.162.162 0 0 0-.203-.108m6.836 8.825c-.052.026-.11.014-.136-.038l.1.2c.027.053.094.084.146.058.052-.026.077-.08.051-.132l-.12-.238c.027.051.01.124-.041.15m-.461 5.113a.186.186 0 0 0-.132.227c.081.306.12.614.162.941l.017.135a.186.186 0 1 0 .368-.048l-.017-.133a7.552 7.552 0 0 0-.17-.99.186.186 0 0 0-.228-.132m8.21 4.01l-.325.315c-.284.285-.578.58-.91.713a.096.096 0 0 0-.054.123.096.096 0 0 0 .124.053c.37-.147.677-.456.975-.754l.317-.307a.098.098 0 0 0 .006-.138c-.038-.037-.096-.04-.133-.004m-3.817-.05c-.036.017-.056.052-.037.089l.172.347c-.018-.037-.007-.088.03-.107.037-.019.077-.01.095.026l-.156-.312c-.018-.037-.067-.062-.104-.044m1.875.182a.056.056 0 0 0-.022.078 4.18 4.18 0 0 0 .723.947.058.058 0 0 0 .08 0 .056.056 0 0 0 0-.082 4.057 4.057 0 0 1-.704-.92.056.056 0 0 0-.077-.023m.663.96c-.078.26-.245.492-.525.732a.082.082 0 0 0-.008.115.082.082 0 0 0 .115.008c.304-.26.486-.517.574-.807a.082.082 0 0 0-.156-.048m2.073-.934a.089.089 0 0 0-.04.118c1.863 3.728 3.768 8.005 5.824 13.075a.087.087 0 0 0 .114.048.087.087 0 0 0 .049-.114c-2.058-5.074-3.964-9.355-5.829-13.088a.088.088 0 0 0-.118-.04m-6.536 1.96a.156.156 0 0 0 .083.206c.088.037.172.112.26.19l.28.209c.07.052.143.022.195-.046.052-.07.015-.182-.054-.235l-.212-.162c-.1-.088-.212-.188-.347-.245a.156.156 0 0 0-.205.083M4.776 16.724c-.082.045-.115.14-.071.22l.144.263.045.078a.168.168 0 0 0 .29-.167l-.045-.08-.131-.239c-.045-.08-.151-.119-.232-.074m7.474 17.207a.09.09 0 0 0-.08.097c.26 2.812 1.139 5.675 2.538 8.278a.089.089 0 1 0 .156-.084c-1.387-2.582-2.258-5.422-2.517-8.21a.09.09 0 0 0-.097-.08m2.424 8.855c-.18.203-.479.205-.768.207a.15.15 0 1 0 .002.3c.321-.003.721-.005.99-.307a.15.15 0 1 0-.224-.2m-1.577.589c-1.572.657-3.085 1.524-4.548 2.36l-.3.174a.106.106 0 1 0 .104.184l.301-.173c1.457-.834 2.964-1.697 4.524-2.35a.106.106 0 1 0-.081-.195m2.517.094a.128.128 0 0 0-.06.169l.16.356c.154.365.315.743.643 1.006a.125.125 0 0 0 .156-.196c-.279-.223-.42-.555-.57-.908l-.166-.369a.12.12 0 0 0-.163-.058m1.665 3.537a.102.102 0 0 0-.057.132l.107.283c.148.403.316.86.705 1.085a.1.1 0 1 0 .1-.174c-.325-.188-.473-.591-.616-.98l-.11-.29a.098.098 0 0 0-.129-.056m3.698 3.43a.186.186 0 0 0-.062.257c2.048 3.345 4.131 6.545 7.076 8.952a.187.187 0 0 0 .237-.29c-2.9-2.369-4.964-5.542-6.995-8.857a.186.186 0 0 0-.256-.061m11.889 11.78c-.03.094.053.2.147.23l.25.08.158.06c.092.035.183-.014.219-.107.036-.092-.02-.198-.112-.233l-.129-.05-.343-.104c-.094-.028-.161.03-.19.124m-17.6-27.979v.22c0 .039.032.07.07.07a.07.07 0 0 0 .07-.07v-.22a.07.07 0 0 0-.14 0m3.753 5.552c-.061-.196-.057-.457-.22-.55-.011.207.134.802.22.55m9.563-6.266c.3 1.063-.004-.37 0 0m11.524 4.196l-.092.091c.126.242.368.365.44.66-1.193 2.385 1.039 4.456 3.078 4.287 2.423-.201 1.72-2.778.22-3.628-.812-.46-1.929-.421-2.638-.77-.38-.186-.521-.639-.99-.768zM5.057 16.927c.073-.862-.831-1.266-1.428-1.1-.025.795.507 1.032 1.099 1.21l.128-.165zm3.299 28.911c-.614.156-1.395.144-1.32.99.84.105 1.224-.243 1.43-.77l-.165-.055zm5.606-2.858c-.242-.125-.365-.368-.66-.44-.138.264-.141.665-.33.88l.166.054-.055.165c.306-.097.669-.137.88-.33l-.056-.164zm-.77-17.149c1.073.351.468 2.286-.66 2.089-.285-.787.034-1.855.66-2.089m-4.488.934l.202.055c.108-.748-.285-1.571 0-2.308.249-.647 1.152-.893 1.648-1.429.898-.97 1.258-3.29-.66-3.738-1.647-.384-2.082 1.116-3.517.22-.222-.848.372-1.2.99-1.54.806-.442 1.941-1.014 2.967-.768.493.118.607.638 1.1.989.362.259.876.253 1.099.55.667.887.28 3.465.11 5.276-.09.966-.243 1.94-.66 2.419-.286.227-1.05-.024-1.21.33-.098.501.184.622.221.989.518.182.69-.548.99-.22-.424 1.818-2.539.818-4.068.55-2.293-.403-5.317-.2-6.046-1.32-1.327-2.039 2.457-2.512 3.408-3.078.618-.368.84-.88 1.428-.88.925 0 1.095.926 1.54 1.43-.32.912-.553 2.178.33 2.639zm8.776 20.392c.013-.134.032-.26.22-.22l-.055-.2.164-.13c-.542-.596-1.078-2.318-.11-2.858.93-.087 1.263.423 1.65.88l.11-.055.109.055a.522.522 0 0 1 .11-.33c.753-.02 1.377.088 1.65.55v-.11h.109c.256-.52 1.244-.689 1.759-.33v.22h.11v.11c.148-.035.21-.157.44-.11 0 .145.192.1.219.22l.11-.056.11.055c.634-.837 1.018-1.784.99-2.748-.038-1.287-.962-2.562-1.54-4.067-.425-1.108-1.321-3.443-1.208-4.507.091-.87.756-1.512.659-2.199-.186-1.322-2.005-1.58-2.089-2.858l-.128.165-.201-.055v.44c-.503.535-1.41 1.342-2.199.88-.528-.31-.744-1.765-.33-2.419.408-.646 1.252-.629 2.089-.66.024.086.003.217.11.22l.128-.165.202.055c.55-1.171 2.525-.919 3.078-2.088-.651-.29-1.115-1.206-1.98-1.43-.598-.154-1.428.314-1.868-.33-.2-1.079.127-2.352.22-3.737.05-.735-.133-1.602 0-2.308.258-1.37 2.364-1.59 2.199-3.188-.093-.895-1.605-1.147-2.529-.77-1.04.425-1.022 2.283-2.088 2.529-1.62-.97.169-2.611.989-3.848.707-1.067 1.446-2.23 1.649-3.078.597-2.489-.975-3.4-3.188-3.188-.978.094-1.07.425-1.65.88-1.086.853-1.89 1.73-2.088 3.188-.074.543.152 1.233-.11 1.979-.327.933-1.703 1.791-2.748 2.528-1.09.768-2.496 1.108-3.517 1.759-.677.43-1.1 1.299-1.87 1.209l-.127.164-.202-.054C4.964 20.84.064 19.58.001 22.753c-.013.65.476 1.371.55 2.199.052.589-.253 1.249 0 1.868.43 1.054 3.007 1.455 4.287 1.65 1.538.233 5.574.102 4.617 2.308-.359.484-1.284.401-1.54.99-.05.747.421.971.88 1.208.626-2.85 3.397-.917 3.408 1.21l.055-.165.055.165c.163-.021.1-.266.11-.44.696.036.843.623 1.649.55.382-.095.382-.572.66-.77.89-.275.845-1.398 1.868-1.319.849.066 1.2 1.024.99 1.869-.174.691-1.644 1.17-1.98 1.319l-.054.164-.165-.054c-.567 1.33-.957 3.66-.44 5.386l.129-.165.2.055c.103-1.07-.267-2.613.33-3.188.387-.02.362.371.66.44l.055-.165.165.055c-.008-.191.025-.342.11-.44.684-.322 1.407.182 1.21 1.1l.165.054-.056.166h.66c.434-.76.924-.932.99-1.98.055-.915-.648-1.862-.55-2.528.16-1.095 1.525-1.09 2.638-.55.268 1.821.783 3.395.77 5.497-.585.845-1.428 1.43-2.968 1.32-.1-.196-.447-.14-.33-.55-.15.217-.222.511-.55.55-1.12.056-1.739-1.98-2.748-.66.018.91 1.08 1.856.22 2.638-.577.064-.456-.57-.66-.88l-.128.166-.202-.056c-.117.103-.034.406-.33.33l.055.165-.164-.055v.55l.164.128-.055.202c.461.052.6.425.88.66l.055-.166.165.055c.098-.23.17-.488.33-.66.71.06.53 1.01.55 1.76h-.33l.054.165-.164.054c.217.882.57 1.629.989 2.31l.055-.166zm3.738 3.298c-.006-.372.255-.477.44-.66-1.38-.49-1.74-1.997-2.64-2.968-.407-.077-.471.188-.879.11l.055.202-.165.128c.011.357.387.68.11.99h-.11l.055.164-.165.055c.713.902 1.292 3.064 2.859 2.089.023.123.121.171.22.22l.076-.187zm12.091 12.092c.79.864 1.862 2.544 3.738 2.199 1.03-.19 1.29-1.376.55-2.089-.84-.809-2.8-.462-4.178-.44l.055.202zm-3.408-4.672l-.11-.055c-.053.347.198.388.11.77-.41.395-.871.74-1.649.769l-.142.143-.187.077c.517 1.637 1.106 3.71 2.967 3.738.912.013 1.278-.627 2.2-.88l-.055-.165.054-.165c-.488-.578-.486-1.31-.88-1.868-.451-.643-1.3-.95-1.758-1.65-.154-.235-.132-.565-.44-.768zM13.302 47.597h.22c.006-.14.141-.153.11-.33h-.33zm-2.968-.33c.227-.067.764.177.66-.22-.291.002-.647-.061-.66.22m-4.727-7.475h.22v-.22h-.22zm4.288-2.199c.038.389.288.285.55.22-.039-.388-.29-.284-.55-.22m20.336.33c.35-.09.81-.07 1.099-.22-.14-.409-.584-.514-.88-.77.1.503-.182.624-.219.99M3.63 5.824h-.55c-.035.515.509.294.55 0M21.657-.002a.516.516 0 0 0 .33.11c-.1.191-.246.423-.44.22-.03-.178.104-.19.11-.33" fill="white" fill-rule="evenodd"/></svg>