<svg xmlns="http://www.w3.org/2000/svg" width="244.889" height="161.87" viewBox="0 0 64.794 42.828"><path d="M12.125 28.016l-.299.137-.266.123c-.05.023-.078.086-.055.137.024.051.078.075.128.052l.564-.259c.05-.023.08-.086.056-.137-.023-.051-.077-.075-.128-.053m30.384-10.702l-.595.192-.53.16c-.04.013-.057.053-.044.094.012.042.062.063.102.05l.51-.154.622-.201c.04-.013.054-.053.04-.094-.012-.04-.065-.06-.105-.047m-1.726.569l-.038.044-.056.054c-.017.017-.029.053-.012.07.016.018.034.027.051.01l.087-.078.03-.036c.017-.019.017-.05-.001-.066-.02-.015-.044-.017-.06.002m-9.14 11.324c-.06.001-.137.046-.137.106 0 .061.02.106.08.106l.33.002c-.06 0-.127-.047-.127-.108 0-.06.03-.107.09-.108zm2.951-9.984l-1.845 1.325-.008.016-.023.048a.065.065 0 0 0 .12.052l.013-.03 1.82-1.307c2.732-2.017 5.313-3.923 8.745-3.065l.387.09c.46.106.937.216 1.46.456a.066.066 0 0 0 .086-.032.067.067 0 0 0-.032-.087c-.536-.246-1.018-.356-1.485-.463l-.384-.09c-3.492-.872-6.096 1.05-8.853 3.087m-2.94 2.054c-.297.131-.581.303-.856.47-.373.225-.759.457-1.18.588a.074.074 0 0 0 .044.141c.438-.135.832-.374 1.212-.603.271-.164.551-.333.84-.46a.074.074 0 1 0-.06-.136M29.3 22.51c-.052.086-.088.104-.161.14a.073.073 0 0 0-.034.096.072.072 0 0 0 .097.033c.078-.038.147-.071.22-.194a.072.072 0 0 0-.122-.075m-.74.465c-.352.132-.717.286-.948.589a.074.074 0 0 0 .013.103.073.073 0 0 0 .103-.014c.207-.272.536-.411.884-.542a.072.072 0 0 0 .042-.094.072.072 0 0 0-.094-.042m-.734 1.341a.107.107 0 0 0-.053.143c.043.096.085.187.072.264a.108.108 0 1 0 .213.034c.022-.14-.038-.272-.09-.387a.107.107 0 0 0-.142-.054m.887-.365c-.21 2.215-1.908 3.866-3.71 5.322a.109.109 0 0 0-.016.153.108.108 0 0 0 .153.017c1.84-1.485 3.572-3.176 3.79-5.47a.11.11 0 0 0-.098-.12.11.11 0 0 0-.12.098m-4.972.604l-.087.177-.185.396c-.024.049 0 .102.048.125.05.023.11-.003.132-.052l.179-.38.09-.18a.097.097 0 0 0-.046-.13.1.1 0 0 0-.13.044m-.416-.497c-.15.15-.242.335-.331.516l-.034.066a.065.065 0 0 0 .03.087.064.064 0 0 0 .085-.029l.033-.068c.088-.178.172-.347.307-.481a.064.064 0 0 0 0-.09.064.064 0 0 0-.09-.001m-1.342.112l-.163.16c.036-.034.098-.04.132-.007.034.035.041.084.007.119l.12-.122c.034-.035.048-.103.014-.137-.035-.035-.076-.047-.11-.013m.362-1.48v.21a.11.11 0 0 0 .217 0v-.21a.109.109 0 1 0-.217 0m-.152 1.272a.72.72 0 0 0-.236.238.087.087 0 0 0 .03.12.087.087 0 0 0 .118-.03.562.562 0 0 1 .186-.186.086.086 0 0 0 .022-.12.085.085 0 0 0-.12-.022m-2.655-3.15c-.02.014-.024.045-.01.066l.104.154.035.054a.045.045 0 0 0 .062.015.046.046 0 0 0 .013-.064l-.033-.053-.11-.162c-.013-.02-.04-.023-.06-.01m2.243-6.899c-.01.06.03.104.09.113.059.01.116-.042.126-.1l.021-.124c-.01.059-.064.093-.123.082-.06-.009-.098-.071-.088-.13zm-7.665 2.933c-.52 1.067-1.062 2.474-.641 3.892a.1.1 0 1 0 .192-.058c-.402-1.352.125-2.712.629-3.746a.1.1 0 1 0-.18-.088m5.604 18.526c-.549.245-1.171.524-1.803.673a.108.108 0 0 0-.08.13.107.107 0 0 0 .129.08c.652-.154 1.284-.438 1.841-.687a.108.108 0 0 0 .055-.142c-.024-.054-.088-.078-.141-.054m28.143-4.891l-.142.047a.112.112 0 0 0 .071.212l.141-.047a.112.112 0 0 0-.07-.212m15.088-6.32c-3.16 4.027-8.584 5.339-12.956 6.032a.112.112 0 0 0 .035.221c4.412-.699 9.888-2.025 13.097-6.114a.112.112 0 0 0-.019-.157.111.111 0 0 0-.157.017m-13.906-9.065a.132.132 0 0 0-.069.172.13.13 0 0 0 .171.07c1.82-.78 3.733-.763 5.388.046 1.79.878 2.573 1.88 2.461 3.152-.304 3.486-5.5 9.256-7.207 11.153a.13.13 0 0 0 .01.185.13.13 0 0 0 .184-.01c1.721-1.912 6.962-7.731 7.274-11.304.16-1.835-1.411-2.825-2.607-3.41-1.725-.845-3.715-.864-5.605-.054m-4.802-2.902l-.446.18c-.408.17-.83.345-1.273.453a.07.07 0 0 0-.05.084.068.068 0 0 0 .083.05c.454-.11.88-.286 1.294-.458l.442-.18a.07.07 0 0 0 .039-.092.067.067 0 0 0-.09-.037m-18.15 8.247l-.15.066a2.87 2.87 0 0 0-.565.295.061.061 0 0 0 .071.1 2.77 2.77 0 0 1 .543-.283l.151-.066a.06.06 0 0 0 .03-.08.061.061 0 0 0-.08-.032m4.152-5.3c-.01.021-.042.028-.063.018l.158.077c.021.01.035-.003.046-.023.01-.022-.01-.052-.031-.063l-.125-.063c.021.01.025.033.015.055m11.204 2.491c-.305-.219-.643.033-.704.283h.07v.07c.257.19.6-.024.705-.211l-.106-.036zm-9.586 11.811c1.098-.282 2.08 1.03 2.256-.354.194-.223.616-.535.352-.99-.456.014-.408.534-.634.778-.896.187-1.2.242-2.044.354l.106.082zm-.211-7.991c.101.502.045.822.14 1.201.103.411.404 1.076.353 1.415-.09.605-.898.639-.635 1.414.624.212.793-.649 1.27-1.131.57-.577 1.414-.815 1.41-1.84-.006-.957-.814-1.238-1.34-1.908l-.07.035-.071-.035c-.51.102-.887.336-1.128.707l.106.035zm-2.256 1.201c.106-.082.288-.088.353-.212l-.106-.035.035-.106c-.014-.199-.123-.301-.353-.283-.186.156-.113.304-.07.566l.106-.036zm-1.551 2.052c-.168.257-.476.585-.282.99.593.104.799-.625.494-.99l-.106.035zm-.211-1.203c-.448.195-.092.839.14.99l.083-.105.129.035c.041-.395-.21-.496-.211-.849l-.106.035zm1.269.566c.2-.317-.097-1.134.281-1.273l-.035-.07-.035-.072c-.484-.795.636-1.177.705-1.98.102-1.194-.882-1.845-2.256-1.627.067.785-.098 1.152 0 1.628.194.94 1.323 1.039 1.057 2.192-.079.015-.11.078-.14.141l.105.035-.035.107c.264.065.092.568.141.848l.129-.035zm-5.57.141c.274.054.65-.435.283-.565-.193-.212-.44.121-.353.424l.106.035zm-.775-1.485c.596-.156.982-.523 1.199-1.06-.413-.317-1.238-.22-1.763-.425-.173.173.052.306 0 .566-.008.204-.3.122-.282.354.202.197.53.27.635.565l.105-.035zm-.282 1.415c.477-.005.848-1.011.282-1.203l-.106-.035-.105-.035c-.284.162-.207.687-.212 1.13l.106.036zm-.282.211c.055-.015.14-.001.141-.07l-.105-.035-.036-.106.036.106zm-2.396-3.323c-.293.044-.233.55-.141.778.79.628 1.383-1.004.211-.85l.036.107zm2.396-7.143c.256-.036.486-.364.282-.637-.09-.098-.306-.07-.493-.07-.185.124-.185.511 0 .636l.13-.035zm-7.753 3.111c.25.014.35-.336.211-.494-.293-.036-.338.178-.352.424l.106-.036zm.564 18.177c-.217.407-.665.615-1.129.919-.34.223-.912.717-1.268.708-.493-.014-.802-.437-.775-.92.042-.75 1.224-1.197 1.48-1.697.389.058.494.4.776.565.374.072.792.1.916.425m-2.044-1.415c-.414.293-.57.843-1.269.849.142-.588.548-.91.775-1.415.364-.01.424.282.494.566m13.674-3.395c-.179.386-.716.413-1.128.566-.168.256-.42.426-.845.425-.217-.237-.19-.898.07-1.061.55-.163 1.348.006 1.903.07m-8.459-.707c.093.025.111.125.212.142.1 1.106-.66 2.336-1.48 2.404-.355.03-.88-.178-.917-.495-.055-.483.543-.51.846-.778.337-.296.328-.558.565-.848.376-.023.685-.114.774-.425m-.563-.566c-.085.644-.748.864-1.128 1.203-.285.252-.424.655-.846.707-.812-.86.798-2.252 1.974-1.91m3.947 0c-.116.866-1.194 1.9-2.044 1.132.008-.345.353-.352.423-.636-.05-.28-.25-.41-.423-.567-.093-1.264 1.537-.54 1.903-.212.036.222-.193.316.14.283m-2.818-2.333c.88 1.524-1.612 1.652-2.68 1.484-.287.16-.294.601-.563.778-.691-.101-.016-.718.141-1.06.084-.184.046-.444.141-.637.103-.21.913-1.21 1.128-1.343.984-.608.89.79 1.833.778m6.343-.99c-.086.73-.836 1.323-1.339 1.838-.455.466-1.025 1.066-2.044.849.294-.976 1.342-1.332 1.974-2.05-.07-.264-.151-.186-.07-.496.407-.12 1.154-.587 1.48-.142m22.909 4.74c-4.515.436-8.626.258-12.76-.213-1.058-.12-2.177-.199-3.1-.354-.268-.045-.725-.036-.847-.353.166-.07.347-.124.565-.142l-.036-.13.106-.082c-.116-.644.999-.64.987-1.414-.281-.451-.794-.044-1.199.14-.772.354-1.5.667-1.762 1.345-.73.223-2.214.613-3.03.495-.12-.018-.343.109-.283-.212-.186.405-1.009.164-1.269 0v-.142l-.095-.086.025-.127c-.618.508-1.229-.148-1.41-.706.167-.402.63-.89 1.058-1.486.354-.493.998-1.267.846-1.768-.078-.251-.399-.414-.565-.424-.424-.025-.944.752-1.339.494v-.211l-.13.036-.081-.107c-.082.06-.19.094-.353.07-.17-.226-.085-.248 0-.494l-.105.036-.036-.107c-.2.333-.97.243-.987-.212l-.105.036-.035-.107c-.874.35-1.696.75-2.609 1.06-.213.21-.201.647-.634.638-.326-.259-.942-.462-.987-.92-.037-.37.29-.588.494-.92-.12-.162-.247-.996.21-1.13.746-.032 1.451-.22 1.27-.85-.19-.66-1.238-.186-1.833-.07-.396.408-.243 1.005-.705 1.273-.623.362-1.504-.17-1.903-.708.28-.528.816-.128 1.269-.212.71-.13 1.22-1.145 1.903-.707.214-.47.727-.638 1.269-.778l-.035-.106.106.035c.29-.155.639-.254.986-.353.112-.28-.065-.41.07-.637.179-.177.683.001.776-.424.086-.395-.222-.44-.423-.778-.669-1.124.026-2.473 1.55-2.547.114-.37.405-.49.424-.848.035-.677-.648-1.058-1.058-1.415l-.105.036-.106-.035c-.89.033-1.312.387-2.044.566-.669.162-1.496.101-2.044.424-1.344.79-.03 3.49-1.55 3.89-.584.153-.963-.096-1.27.07-.693.377.147 1.812-1.199 1.84l-.105.035-.106-.035c-.314.497-1.095.49-1.692.778-.568.273-.966.617-1.339.99-.14.188-.457.2-.634.353.06.176.092.378.07.636-.498 1.099.024 2.483 0 3.749-.403.601-1.121.798-1.903 1.06-.715.242-1.71.406-2.044.92-.294.453-.257 1.008-.352 1.485-.25 1.249-.318 2.195.352 2.758 1.108.934 2.684-.061 3.172-.848.604-.973.552-2.35.987-2.97.407-.582 1.32-.473 1.62-1.132l-.105-.082.036-.13c-.308.002-.653.043-.776-.142.03-.84.544-.784.987-1.132a8.684 8.684 0 0 0 1.48-1.485c.624-.797.82-1.93 1.48-2.475.362.204.71.42.987.707-.035.602-.988.282-1.339.566-.158.525-.028 1.339-.07 1.98-.337 1.03-1.83.9-2.327 1.768l.106.084-.035.128c1.011.224 1.282-1.056 2.326-.777.03.549-.336.946-.564 1.343-.51.89-.797 1.776-1.269 2.617-.417.746-.58 1.417-.986 1.98-.436.606-.896 1.308-1.41 1.698-.845.64-2.088.961-2.467 2.051-.682.38-1.367.735-2.115 1.203-.645.402-1.364 1.163-2.044 1.272-.48.078-.917-.158-1.34-.141-1.244.05-2.303 1.02-2.255 2.121.038.853.767 1.318 1.62 1.203 1.109-.148 1.759-1.403 2.045-2.476a33.708 33.708 0 0 1 4.23-2.757c.476.283.959.33 1.339.778.35.41.335.934.775 1.131.706.315 1.597-.335 1.974-.778.278-.327.385-.812.634-1.131.303-.388.77-.64 1.128-.92.404-.316.763-.702 1.198-.849.35.231.583.595 1.128.708.607.123 1.45.003 1.974-.284l-.106-.082.036-.13c-.55.038-.936.24-1.551.212-.158-.219-.422-.33-.423-.707.381-.53.986-.063 1.34.213 1.135.278 1.49-.94 2.325-.496v.142l.096.086-.025.126c.462-.466 1.285-.115 1.973-.212.955-.135 2.505-.982 2.679-1.768.173-.78-.379-1.38.141-1.91.449-.045.778.623 1.199.707.737.149 1.901-.84 2.96-1.06 1.117-.233 2.545-.297 3.665-.354.836-.043 1.707-.063 2.467 0 4.544.373 9.195.205 13.04-.283l-.105-.082zm15.295-6.154c.378-.28.49-.829.493-1.485-.145-.02-.14-.189-.211-.283-.561-.116-1.6-.179-2.115.212-.514.39-.412 1.433-.987 1.838-.61.431-1.933.358-2.749.284-.465-.043-1.341-.478-1.41.424.54.498 1.02.038 1.48 0 1.453-.122 2.586.447 3.314-.707.214-.34.066-.686.352-1.132.36-.562 1.603-.969 1.974-.141-.062.292-.221.486-.283.778l.092.091zm-13.253 5.304c-.287.23-.558.477-.845.707-.413.18-.93-.082-1.198.142l.106.082-.036.13c.169.043.512-.089.564.07-.09.4-.468.637-.775.92-1.578 1.453-3.077 2.683-4.934 3.82-.736.45-1.46 1.053-2.186 1.343-.947.379-2.114.43-2.82 1.343-.485.63-.653 1.913.423 1.982 1.34.084 1.838-1.595 2.539-2.405.522-.606 1.521-1.119 2.325-1.698 1.88-1.353 3.825-2.988 5.428-4.597.585-.587.81-1.123 1.621-1.06l-.035-.13.106-.083c-.133-.141-.256-.111-.142-.353l-.09-.093zM45.29 16.748l-.106-.035c-.729.4-2.09.165-2.749.636l.106.036.035.106c.694-.09 1.5.237 2.397.07.353-.065.741-.502 1.057-.495.6.013.725.834 1.41.92 1.131.141 1.257-.9.847-1.98.12-.42.652-.43.916-.708l-.106-.082.035-.13c-.712.263-1.463.434-2.044.778-.584.345-1.027 1.304-1.833.778zm-1.022-4.49v.07c.12 1.217 2.092 1.25 2.326.283.387-1.6-2.198-2.157-2.396-.354zM10.645 42.102c.004-.043.01-.084.07-.071-.008-.086-.02-.168-.14-.141.01.082-.012.2.07.212m-3.383-.496h.14v-.141h-.14zm3.242 0c-.042-.354-.386-.44-.634-.353-1.167.405.784 1.606.635.353m-2.82-.707c.083.684 1.317.508.986-.353-.437-.455-1.042-.104-.986.353m3.101-.212c.124.173.425.168.634.07.357-.634-.802-.93-.634-.07m-2.467-1.273c-.23.815 1.005.838.846.07-.178-.285-.624-.358-.846-.07m6.062.566c.195-.269.153-.714 0-.99-1.713-.77-1.288 1.925 0 .99m-7.754-.849c.232.283.817.13.776-.282-.136-.485-.939-.452-.776.282m-3.665-8.487c.23.02.339-.083.353-.283-.105-.037-.179-.104-.283-.14-.085.109-.225.274-.07.423m9.586-.636c.237.123.45.041.564-.142-.047-.235-.18-.383-.493-.353-.098.091-.07.307-.07.494m-8.6-2.404c.016-.1.116-.118.14-.212h-.21c.01.084-.013.2.07.212m13.04.142c.127-.084.404-.011.564-.213v-.353c-.353-.41-.883.122-.564.566m16.917-.425c.335.077.288-.23.282-.494-.368-.008-.336.23-.282.494m-27.56-.706c.22.032.314-.063.281-.284-.194-.22-.5.088-.282.284m12.265-1.203a.261.261 0 0 0 .353 0V25.2c-.096-.023-.135-.101-.282-.071.015.134-.08.156-.07.282M8.106 25.13h.212v-.213h-.212zm26.293-.636h.14c.005-.091.091-.099.071-.213H34.4zm-10.08-.213c-.022.338.445.356.494.07-.1-.106-.343-.222-.494-.07m-5.357.778c.358-.111.643-.297.634-.778-.463-.413-.739.44-.634.778m17.481-.92h.211c-.016-.125.071-.353-.14-.282-.023.095-.1.135-.07.283m-17.059-.354c-.09-.097-.333-.097-.423 0-.018.23.084.34.283.354.03-.135.2-.128.14-.354m4.582.141c.084.035.16.076.211.142.236-.047.383-.182.353-.495-.242-.173-.67-.046-.564.354m-17.2-.142c-.153 1.05 1.473 1.145 1.41.07-.028-.483-.441-.774-.986-.565-.368.141-.404.367-.423.495m27.772-.636v.14c.174.111.208-.239.07-.21-.003.042-.01.082-.07.07m-3.1-.566v.141c.042.005.083.01.07.071h.14c.004-.043.01-.084.07-.07v-.142c-.042-.004-.082-.011-.07-.071h-.14c-.005.043-.011.084-.071.07m-6.625.425c.122-.065.244-.131.21-.354-.236-.541-.828.27-.21.354m10.784-.99c.08.015.11.079.14.142.2-.015.3-.124.282-.354-.16-.154-.44-.025-.422.212m-11.349.07c.127.224.369.243.565.072.167-.624-.647-.62-.565-.071m40.179-1.556c.14 0 .09.193.282.142.293-.341-.278-.62-.282-.142m-24.53-.071c.079.015.11.078.14.142.193.05.142-.14.283-.142.013-.346-.437-.346-.423 0m-14.45-.212c.733-.105-.26-.627 0 0m-14.24-.071h.212c.02-.162-.017-.266-.14-.283-.023.096-.101.136-.071.283m10.784-.707c.037.104.105.178.141.283.36.053.56-.052.565-.353-.069-.354-.723-.39-.706.07m-11.419-.425c.06-.081.093-.19.071-.353h-.282c-.014.202-.009.386.211.353m28.407.07c.396.021.578-.173.634-.493-.353-.262-.955.079-.634.494m-.846-.14c.133.015.156-.08.282-.072v-.353h-.282c-.096.09-.096.333 0 .424m-34.68-.283c.263.028.413-.057.423-.283-.12-.426-.7-.088-.423.282m49.483-.282c.22.033.314-.061.282-.283-.194-.22-.502.088-.282.283m-43.632.282c.042-.168.1-.322.07-.565-.778-.86-1.261 1.075-.07.566m-7.401-.141c.311.03.445-.118.493-.354-.005-.09-.091-.098-.07-.212-.41-.328-.788.315-.424.566m51.95-.425c.186.02.232-.098.212-.283-.292-.018-.284.084-.211.283m-26.01-.07c.022-.096.1-.135.07-.283h-.282c-.02.184.025.304.21.282m-11.418-.07h.141c.004-.09.09-.099.07-.212h-.211zm18.68-.212a.327.327 0 0 0 .07.212c.336.055.416-.149.423-.425-.233.003-.5-.028-.493.213m-9.024 2.829c.348.041.544-.069.494-.425-.27-.145-.529-.004-.564.283l.106.035zm-.669.247l.035-.106h-.352c-.068-.396.18-.627.211-.92.13-1.196-.635-1.908-1.057-2.688-.327-.02-.61.001-.775.143-.281.59-.508 1.234-.917 1.697.438.738.674 1.681 1.128 2.405.815.04 1.293-.259 1.833-.496zm1.727-2.652c.471-1.195-1.047-1.79-1.55-.99-.351.556.032 1.378.845 1.414-.347.662.838 1.012.846.213-.181-.126-.559-.053-.705-.212.236-.094.366-.294.565-.425m1.409-1.132c.104.037.177.105.282.141.036-.104.104-.178.141-.282-.138-.188-.416-.158-.423.14m-5.005-.07c.32.038.46-.103.423-.424-.295-.273-.695.129-.423.425m-8.952-.071c.101.791 1.446.06.564-.495-.359.027-.598.224-.564.495m22.91-.637c.404-.018.7-.145.704-.565-.328-.16-.645.23-.705.565m-24.037-.282c-.033-.529-1.093-.716-.916.282.36.35.945.156.916-.282m15.014-.213c.3.065.355-.115.424-.283-.126-.062-.18-.198-.424-.14-.063.206-.063.217 0 .423m-3.947-.212c.166.467.97.376 1.41.212-.139-.353-1.26-.967-1.41-.212m-13.463-.07c.022-.096.1-.135.07-.283-.24-.053-.275.27-.07.282m12.194-.495h.141c0-.07.057-.085.07-.141-.09-.004-.097-.09-.21-.07zm21.781-.565h.212v-.213h-.212zm-20.865-.566h.141c.08-.102.077-.173-.07-.213-.004.091-.09.098-.07.213m-5.146.211c.118.095.236.188.494.142.102-.177.17-.278.07-.495-.242-.174-.67-.045-.564.354m4.159-.283c.475.359 1.164-.082.845-.707-.464-.413-1.2.087-.845.707m3.454-1.061c.008.18.102.274.281.283.023-.095.101-.135.071-.283a.262.262 0 0 0-.352 0m-7.754.212c.055.016.082.06.07.142h.353c.015-.055.002-.14.07-.142-.008-.18-.102-.273-.281-.283-.104.062-.224.106-.212.283m3.806.07c.152-.059.25-.174.212-.423-.32-.429-.786.366-.212.424m-5.498-.99c0 .978 1.534.733 1.269-.212-.07-.253-.271-.436-.705-.353-.414.077-.564.202-.564.565m-2.256 1.344c.08.155.236.235.282.424a1.879 1.879 0 0 0-.211.566c.069.236.305.307.352.565-.202-.013-.384-.008-.352.213-.024.282.201.316.493.282.137-.21-.094-.348.142-.424.36.303.002 1.022.563 1.202-.351.106-.553.255-.564.567-.049 1.359 2.167.052.705-.638.26-.045.37-.241.423-.494-.226-.35-.054-.579 0-.99-.048-.306-.415-.291-.352-.707.178-.222.508-.292.634-.566-.297-.55-.108-1.225-.14-1.769-1.145-.607-2.288.25-1.975 1.769M28.62 11.55h.141c0-.071.057-.085.07-.141-.09-.005-.097-.091-.21-.071zm-4.934.353c.068.551 1.129.67.987-.283-.357-.515-1.048-.21-.987.283m11.208-.707c.004-.121-.055-.181-.141-.212-.102.104-.104.274.14.212m-4.44.213c.113.122.213.256.494.211.093-.118.186-.236.14-.495-.236-.23-.661-.129-.634.284m-14.591-.213h.141c.079-.102.076-.173-.07-.212-.005.09-.092.098-.071.212m7.401-.565c.301.378 1.033.215.987-.354-.146-.524-1.233-.494-.987.354m7.401-1.203c.185.02.304-.026.282-.212-.09-.004-.098-.09-.211-.071-.023.095-.1.135-.07.283m-3.172-.354a.15.15 0 0 0 0-.282zm-11.067-.14h.14v-.142h-.14zm33.059.14c.17.15.552.084.493-.212-.079-.34-.607-.227-.493.212m-22.698-.141c.055.015.082.06.071.14h.353c.015-.054.001-.138.07-.14-.009-.18-.103-.275-.282-.283-.103.061-.224.106-.212.283m-9.445-.495c.004-.044.01-.083.07-.071-.008-.086-.02-.167-.14-.141.01.083-.013.2.07.212m7.12-.142c-.074-.683-1.312-.051-1.622.354.025.21.113.359.212.495.482-.01 1.455-.422 1.41-.849m-3.596-.565h.212c-.007-.112.009-.245-.141-.213a.34.34 0 0 1-.07.213m30.803-.283c.004-.043.01-.084.07-.07-.008-.087-.02-.169-.14-.142.01.082-.013.2.07.212m-20.865.141c.208.158.643.07.564-.282-.126-.332-.699-.225-.564.282m11.35-.566c.391-.001.471-.95-.142-.636-.511.26.013.637.141.636m3.243-.918c.01.131.045.235.14.282.07-.094.19-.14.212-.282a.261.261 0 0 0-.352 0M26.576 7.377c.155.713 1.191 1.39 1.691 1.415.391.02.788-.13.987-.354.96-1.07-.106-2.787-1.34-2.83-.054 0-.068.072-.07.072-.884.077-1.51.587-1.268 1.697m9.516-1.415c.187 0 .402.027.494-.07v-.354c-.307-.231-.74.084-.494.424m-5.78-.353c.329-.001.329-.353 0-.354a.265.265 0 0 0 0 .354m9.163-.212c.062.103.106.224.282.212.103-.061.224-.106.212-.283-.062-.103-.106-.224-.282-.212-.104.061-.224.105-.212.283m-5.427-.07c.088.264.486.353.775.211.463-.696-.876-1.046-.775-.212m9.727-2.688c.274.294.646-.078.353-.353-.286-.05-.403.067-.353.354M41.237.093c.277-.068.556-.128.846-.071.41.08 1.063.552 1.128.99.13.862-.687 1.473-1.128 1.556-1.643.31-2.597-2.048-.846-2.475" fill="white" fill-rule="evenodd"/></svg>