<svg xmlns="http://www.w3.org/2000/svg" width="244.889" height="147.105" viewBox="0 0 64.794 38.921"><path d="M29.976 36.105a.047.047 0 0 0-.018.065.047.047 0 0 0 .065.017c.058-.034.13-.021.208-.008l.132.015c.025.002.043-.017.046-.042.003-.026-.02-.05-.047-.053l-.115-.013c-.086-.015-.183-.032-.271.02m8.163-9.032l-.053.078-.015.023a.021.021 0 0 0 .007.03.021.021 0 0 0 .03-.007l.014-.024.05-.073c.007-.01.005-.024-.005-.031-.01-.007-.022-.005-.028.004m-8.916 10.993c.11.044.115.193.23.231-.068.045-.197-.13-.23-.23m1.14-1.922l-.05.04c-.025.074-.186.012-.264.032v-.033l-.05-.039.016-.06c-.944.086-1.305.894-1.189 1.617.008.048.055.057.067.1.04.153-.015.094.066.165.014.013-.01.081 0 .1.271.55 1.127 1.111 1.915.725.473-.23.759-.712.727-1.519-.215-.6-.554-1.075-1.255-1.188zm-.843-6.796c-.55.046-1.094.177-1.584 0-.237-.086-.373-.319-.595-.298-.21.02-.293.273-.495.33a.829.829 0 0 0-.462.132c-.381-.107-.676-.044-1.024 0-1.67.217-3.418.87-5.284.66-.24-.026-.485-.118-.726-.164-.26-.05-.52-.068-.792-.1-.519-.06-1.037-.207-1.552-.263-.835-.092-1.701-.102-2.444-.297-.44-.116-.848-.465-1.386-.364-.649.123-.02.758.197.859.318.148.91.17 1.454.265a15.96 15.96 0 0 0 1.518.197c.667.047 1.214.03 1.783.132.36.065.695.21 1.057.264.376.057.758.031 1.123.066.314.03.628.11.924.133.363.027.703-.049 1.057-.066.185-.01.388.014.561 0 .898-.078 1.883-.415 2.576-.067 1.247-.178 2.13.05 3.004.595.81.503 1.635 1.076 2.709.793.515-.137.97-.518 1.056-.991.096-.53-.112-.96-.33-1.189-.41-.43-1.228-.657-1.949-.66-.182.05-.117-.147-.263-.132-.061.038.017.215-.133.165m8.619-2.213c.458.014.215-.656-.132-.363-.052.116-.005.277.098.33l.05-.016zm-.05.05l.016-.05c-.112.007-.193-.102-.297-.132-.178-.051-.419-.016-.66-.066-.49-.102-.95-.505-1.387-.56-.112-.016-.25.017-.363 0-.49-.078-1.019-.455-.627-.959.312-.089.578.076.792.132.188.05.45.033.66.066.372.058.87.051 1.222-.066.357-.118.821-.484.958-.858.015-.04-.013-.143 0-.199.03-.125.082-.26.066-.429-.062-.662-.4-1.03-.76-1.32-.303-.245-.687-.375-1.023-.628l-.066-.066c-.271-.311-.198-.949-.099-1.387.1-.44.188-.918.33-1.255.151-.358.29-.623.396-1.023.119-.452.239-.948.33-1.322.153-.62.226-1.265.528-1.683.207-.284.738-.706.992-.397.102.126.239.205.33.298.017.018.054.083.066.099.088.124.143.35.23.562.156.373.312.723.463 1.121.083.22.176.45.198.628.053.423-.02.997-.066 1.255-.04.23-.028.497-.066.727-.007.043-.053.08-.066.132-.019.076.02.169 0 .23-.02.07-.1.123-.132.199-.112.27-.166.44-.33.594.032.429-.144.65-.264.925a1.04 1.04 0 0 1 .066.528c-.019.161-.1.413-.198.561-.244.367-.759.469-.66 1.024.452.461 1.118.708 1.584 1.156.125.48-.129.74-.396.924-.568-.049-1.122.109-1.387.463v.264c.048.106.226.083.297.165.215-.11.407-.168.595-.296.18-.125.336-.288.528-.397.123-.026.251.065.396.066.286.001.515-.168.892-.133.488.045 1.002.229 1.32.595.167.19.278.44.43.66.314.457.646.858.957 1.288.334.461.586.831.133 1.156-.702-.162-.706-1.01-1.156-1.42-.258-.234-.562-.232-.826-.495-.424-.064-.967-.003-1.386-.067-.309-.045-.593-.152-.892-.197-.235-.036-.497-.01-.727-.067-.292-.07-.684-.288-.891-.363zm-5.63-14.48c.306.418-.065.887-.066 1.355 0 .268.119.573.198.89.035.14.065.31.1.463.062.282.063.56.098.957.044.5.22.992.265 1.42.026.268-.016.428-.1.628-.113.267-.211.342-.429.528-.281.24-.65.447-1.222.33-.204-.042-.673-.255-.825-.396-.304-.281-.652-.899-.694-1.123-.069-.37.032-.839.166-1.123.093-.199.237-.38.33-.594.048-.112.089-.218.132-.33.042-.11.064-.23.099-.297.128-.246.39-.405.528-.628.121-.195.177-.437.297-.627a2.48 2.48 0 0 1 .397-.495c.14-.333.239-.708.462-.958zm-8.453-2.345c.127-.027.39-.048.56.034.225.107.4.435.562.693.172.271.318.559.43.793a32.96 32.96 0 0 1 .759 1.717c.28.676.437 1.19.694 1.783.137.318.29.534.462.792.174.261.42.567.429.793.011.283-.194.565-.297.66-.3.276-1.016.422-1.585.265-.236-.066-.637-.388-.892-.562-.143-.098-.318-.178-.462-.265-.075-.044-.128-.116-.198-.164-.098-.067-.198-.084-.231-.133-.015-.02.01-.074 0-.098-.011-.027-.062-.02-.066-.034-.048-.127-.07-.413-.1-.66-.044-.376-.062-.593-.099-.99-.057-.631-.283-1.28-.396-1.949-.054-.32-.084-.69-.132-1.023-.024-.174-.042-.356-.066-.528-.04-.298-.108-.499 0-.727.093-.197.387-.344.628-.397m10.6 7.2c-.231.145-.57.027-.628-.166-.074-.252.178-.407.198-.628.039-.413-.378-.654-.495-.891-.045-.09.003-.188-.1-.264-.084-.547.117-.957.067-1.486-.048-.498-.283-.972-.33-1.486-.035-.374-.06-.775 0-1.155.04-.26.107-.402.23-.628.32-.586 1.276-1.392 2.147-.792.248.17.69.773.858 1.155.112.255.052.63-.033.925-.083.29-.22.55-.297.825-.312 1.13-.894 2.123-1.254 3.27-.012.037.016.095 0 .131-.01.019-.065.028-.066.033-.119.383-.114.787-.298 1.156m-.858-11.788c.033.1-.074.059-.132.066.008-.058.056-.076.132-.066m7.892 17.302c.823-.894 1.501-1.99 2.84-2.41.13-.04.257-.026.363-.066.279-.107.617-.368.627-.693a.964.964 0 0 0-.066-.33c-.315-.673-1.604-.589-2.18-1.057-.197-.161-.417-.59-.33-1.024.037-.183.172-.215.265-.528.34-.198.64-.485.891-.793.244-.298.458-.713.562-1.155.107-.458.085-1.004.131-1.52.058-.64.212-1.328.265-1.98.084-1.037-.52-1.961-1.189-2.18-1.012-.331-1.2.658-1.552 1.255-.085.144-.2.255-.264.363-.155.258-.283.531-.495.76-.204.218-.43.46-.628.628-.205.173-.462.293-.694.462-.224.162-.432.362-.66.527-.485.351-1.107.438-1.551.793-.329.262-.578.66-.826 1.057-.257.41-.476.85-.528 1.353-.025.24.028.564 0 .859-.037.376-.25 1.22-.496 1.288-.14.039-.356-.016-.462-.066-.2-.095-.415-.463-.43-.628-.012-.14.065-.263.133-.462.05-.146.08-.316.132-.463.316-.904.752-1.781 1.056-2.542.346-.864.669-1.75.925-2.675.092-.33.23-.68.265-.957.053-.414-.017-.938-.1-1.156a.857.857 0 0 0-.231-.363c-.017-.014.014-.081 0-.1-.173-.22-.444-.425-.628-.494-.28-.106-.635-.035-.99-.165-.37-.136-.517-.561-.562-1.024-.022-.233.036-.46 0-.727-.056-.431-.334-.889-.66-1.089-1.174-.723-2.656.387-2.84 1.354-.072.381-.034.808 0 1.155.044.446.21.867.264 1.321.029.234.067.512.067.66 0 .107-.056.216-.067.33-.034.393-.047.62-.098.925-.03.179-.05.37-.1.53-.018.06-.103.128-.131.197-.042.1-.028.208-.066.297-.146.335-.394.601-.529.892-.11.236-.174.459-.264.594-.231.346-.606.596-.66 1.09-.418.33-.593.904-.793 1.453-.113.067-.255.076-.396.065-.032-.002-.363-.084-.33-.065-.056-.033-.215-.24-.298-.363-.2-.298-.304-.66-.363-1.024-.51-.457-.658-1.133-.891-1.784-.225-.623-.526-1.247-.826-1.849-.279-.56-.568-1.176-.925-1.75-.319-.513-.7-1.193-1.155-1.552-.173-.136-.477-.28-.694-.297-.85-.069-1.212.661-1.287 1.288-.043.355.06.744.099 1.122.031.311-.004.623.033.893.013.096.078.191.099.296.063.316.092.491.165.727.038.124.057.274.099.396.08.235.213.45.264.694.03.142.007.31.033.462.092.534.28 1.097.364 1.65.037.256.025.562.065.86.062.452.2.834 0 1.122-.109.157-.237.37-.462.363-.19-.006-.352-.229-.495-.363-.16-.15-.284-.302-.462-.397-.448-.553-.938-1.064-1.42-1.584-.605-.65-1.18-1.379-1.784-1.981-.903-.904-2.114-1.405-3.566-1.75-.075-.024-.098-.1-.132-.166-.092.075-.197.049-.297.033-.27-.04-.557-.2-.859-.297-.298-.096-.617-.205-.957-.231-.459-.035-.833.103-1.123.132-.856.088-1.008-.572-1.783-.462-.123.115-.231.095-.363.23-.174.179-.18.478-.397.562-.179.071-.42-.058-.627-.033-.152.018-.344.156-.56.33-.199.159-.43.261-.563.364-.195.15-.341.353-.56.495-.534.346-1.168.634-1.19 1.387.65.2 1.168-.113 1.486-.495.131-.158.2-.374.33-.529.087-.103.239-.204.363-.33.123-.122.245-.258.364-.33.182-.11.393-.127.561-.231.163-.101.273-.395.463-.462.293-.106.52.131.825.131.475 0 .63-.304.957-.396.307-.086.643-.051.86.166.21.21.243.639.56.792.241.116 1.036.007 1.354.099.206.06.432.237.694.363.479.232 1.004.445 1.453.694.052.029.082.104.132.131.13.074.264.104.363.166.066.04.13.062.198.1 1.144.633 2.315 1.4 3.137 2.244.272.28.57.542.826.793.285.281.56.534.858.792 1.122.976 2.599 1.692 3.005 3.335.07.284.125.56.198.826.221.804.579 1.435.958 2.08.234.4.545 1 .99 1.057.343.044.623-.156.925-.198.181-.025.383.027.594 0 .321-.042.655-.172.958-.198 1.52-.133 2.006 1.4 2.675 1.98.34.296.67.403.76.925.101.602-.086 1.02-.265 1.322-.13.217-.317.445-.264.792.303.371.272 1.361.924 1.32.254-.015.346-.302.595-.462.149-.096.36-.16.594-.164 1.147-.022 1.756.984 1.85 2.08.317.305.547 1.37 1.22 1.221.258-.056.383-.355.364-.76.098-.165.122-.33.198-.495.07-.151.175-.283.265-.429.546-.883.96-1.824 1.452-2.774.246-.243.728-.406 1.057-.131.358-.227.835-.646 1.387-.463.137.232-.028.497.198.627.214.124.435-.13.694-.098.217.026.453.306.56.495.057.099.121.233.133.396.187.208.449.348.628.594.29.403.452.956.693 1.487.219.482.517.942.792 1.42.243.42.424.92.66 1.452.226.509.464 1.094.892 1.32.545.291 1.092.041 1.024-.56-.018-.156-.15-.308-.264-.496a8.79 8.79 0 0 0-.628-.924c-.123-.159-.228-.357-.33-.462-.237-.246-.546-.395-.693-.628-.13-.204-.219-.522-.364-.792-.148-.277-.35-.529-.429-.76-.104-.307-.114-.736-.165-1.057-.212-1.337-.736-2.501-1.42-3.335-.283-.344-.638-.627-.858-1.056.067-.13.156-.289.297-.33.434-.13.861.272 1.354.264.518-.01.713-.262.99-.66.078-.552-.13-.817-.264-1.156.093-.148.116-.22.231-.298.126-.084.313-.086.43-.132.59-.231 1.212-.786 1.155-1.618-.068-1-1.077-1.858-2.245-1.552-.185.049-.579.29-.694.396-.199.185-.423.6-.56.925-.146.343-.234.887-.463 1.057-.159.117-.6.18-.958.198-.343.017-.761-.1-.792.198-.036.342.476.4.792.265.246.157.79-.027.99.098.109.493-.634.46-.99.561-.273.08-.509.297-.693.33-.42.079-1.063-.152-1.09-.462-.035-.4.352-.526.76-.56.113-.207.138-.501.23-.727M18.426 5.938c-.096-.223-.219-.513-.264-.76-.031-.17-.07-.407-.066-.594.006-.327.194-.657.264-.99.102-.493.054-1.07-.198-1.388-.443-.56-1.183-.702-1.915-1.155C15.482.578 14.895.13 14.2.027c-.516-.076-.956.012-1.255.165-.67.344-.762.985-.859 1.949-.389.31-.137.765.33.627.58.209 1.207.696 1.684 1.189.388.399.776.99.595 1.684-.113.01-.336.043-.43.165v.297c.11.01.101.112.166.132.195.061.306-.124.495-.132.248-.01.422.211.694.363.225.126.542.265.792.297.237.03.6-.013.726-.066.293-.122.47-.363.925-.429.14.124.2.328.43.364.288-.226.017-.501-.067-.694m5.547 32.822c.105-.071.16-.193.133-.396a.26.26 0 0 0-.133.396m.496-.627c.091.32.553.187.495-.132-.023-.13-.148-.274-.363-.165-.132.067-.176.141-.132.297m.561-.891c-.02-.22-.452-.286-.363.132.186.135.378.038.363-.132m.892-.166c-.163.604.737.501.495 0-.1-.136-.392-.121-.495 0m1.156.397c.307-.032.32-.68-.132-.529-.355.12-.159.56.132.53m-4.194-.827c.048.106.109.2.264.198.089-.055.123-.164.1-.33-.14-.079-.368-.091-.364.132m-2.344-3.632c-.039-.028-.088-.044-.165-.034-.032.122.162.132.165.034m5.118-.727c.033 0 .04.027.066.033-.003-.052.004-.115-.066-.099zm7.562-.76c-.01.108.039.16.132.166-.014-.08.06-.072.033-.166-.063-.061-.083-.003-.165 0m-9.147.1h.165c.021-.129.028-.136-.033-.232h-.132c-.046.105-.007.111 0 .232m-8.652-2.774c.097.048.097-.148 0-.1zm12.615-.033c.065.516.957.171.627-.363a.403.403 0 0 0-.627.363m2.146.364c.439-.211.19-1.084-.397-.826-.402.201-.202.962.397.826m-18.03.032c.509.08.777-.421.529-.792-.172-.256-.896-.33-1.255-.199-.046.42.324.927.727.992m14.496-1.454c.062-.007.073.038.131.033.032-.056.123-.054.1-.165-.056-.044-.071-.128-.198-.099-.046.042-.033.143-.033.23m2.278-.197h.066V27.5h-.066zm-17.963.496c.392-.146.078-.838-.363-.628-.417.198-.034.775.363.628m-1.189-.694c.138.215.56.323.726.066v-.33c-.18-.321-.82-.294-.726.264m-5.284-.957c.046-.042.058-.198-.032-.198-.045.042-.058.197.032.198m24.931-.397c-.2-.07-.482.057-.528.1-.174.163-.112.656.231.627.068-.009.031-.123.1-.132v.132c.487.037.532-.608.197-.727m-1.981.33h.264c.046-.092.088-.19.033-.297-.054-.055-.194-.026-.297-.033-.074.117-.074.215 0 .33m-1.618-.131c.062.007.073-.038.132-.033v-.133c-.038-.027-.088-.043-.165-.033-.004.082-.005.16.033.199m5.416-.199c-.28-.052-.576.006-.628.199-.077.289.411.705.66.66.217-.165.16-.72-.032-.859m-22.322-.066c-.27-.052-.437.074-.462.265-.022.154.102.35.164.396.187.136.536.298.76.33.088-.077.178-.152.198-.297-.172-.141-.386-.64-.66-.694m20.836 1.057c.051.05.216.112.33.099.472-.05.699-1.406-.033-1.189-.265.079-.588.807-.297 1.09M7.66 25.817c.101.195.278.316.627.263a.506.506 0 0 0 .165-.495c-.182-.324-.865-.31-.792.231m20.374-.264c.141.137.413.053.395-.165-.088-.218-.494-.227-.395.166m-.991-.199c-.173.662.633.661.66.231.015-.22-.186-.467-.528-.33-.052.025-.05.105-.132.099m.66-.165c.131.096.304.07.33-.099-.032-.167-.429-.218-.33.099m-4.392.033c.03-.08.1-.12.066-.264-.286-.284-.495.324-.066.264m-.66-.76c.004.225.186.374.495.363.517-.462-.505-1.002-.495-.362m-17.105.165c.003.007.06-.006.066 0 .017.014-.015.082 0 .098.09.104.42.157.528.133.195-.043.386-.32.331-.562-.052-.229-.44-.35-.628-.296a.468.468 0 0 0-.297.627m16.51-.529c.017.327.56.372.595.033.015-.147-.09-.147-.132-.297-.417-.05-.47.1-.462.264M1.09 23.802h.132v-.066H1.09zm14.232-.132c-.016.104.088.087.098.166.079-.021.154-.045.165-.133-.046-.116-.18-.104-.263-.033m8.09-.165c-.228.438.54.617.429.066-.12-.092-.245-.111-.43-.066m-.33.132c.26-.084.28-.444.066-.594-.59-.138-.555.645-.065.594M4.59 23.109c-.086-.146-.17-.293-.297-.397-.383-.072-.463.173-.397.463.15.08.3.163.397.297.007.355.245.481.66.429.35-.277.078-.822-.363-.792m19.812-.33c.079-.09.065-.2.033-.331-.385-.123-.38.41-.033.33m-1.122-1.98c.042.044.161.05.164-.034-.042-.045-.161-.05-.164.033m-7.562-.066c-.104.4.435.42.396.066-.063-.08-.136-.15-.297-.132-.014.042-.043.068-.099.066m-12.086.165c-.083-.342-.66-.427-.858-.066-.192.896 1.016.717.858.066m14.661-.33c.1.077.166.186.364.165.096-.068.116-.214.098-.396-.175-.127-.539-.09-.462.231m-7.99-1.255v.133c.123.013.193-.027.197-.133-.042-.045-.155-.045-.197 0m39.327-.297c-1.025-.393-2.155.242-1.915 1.486.104.54.805 1.148 1.387 1.222.857.11 1.502-.474 1.519-1.255.012-.571-.331-.667-.298-1.123-.298.06-.46-.24-.693-.33m14.694-.198c-.018.26.118.366.397.33.035-.096.093-.17.066-.33-.11-.142-.365-.169-.463 0m-7.396-.066c-.143.45.509.736.726.397.233-.625-.598-.803-.726-.397m-1.19.594c.536-.003.474-.956-.131-.825-.549.118-.296.828.132.825m-33.616-.726c-.274-.277-.611-.02-.528.264.062.208.359.191.528.1 0-.17.05-.218 0-.364m-.858-.033c-.167-.117-.437-.13-.56.033-.193.607.883.536.56-.033m-7.066-.099v.23c.083.028.13.091.231.1.059-.073.13-.134.099-.297-.155-.073-.163-.096-.33-.033m-14.2-.066c.08-.014.073.06.166.033.055-.13.055-.101 0-.231H0zm47.419 1.189c.287-.029.29-.325.363-.628.42-.082.459-.725.132-.825-.367-.114-.625.225-.562.66-.52.109-.404.838.067.793M2.972 18.288c.14.019.153-.09.198-.166-.08-.03-.087-.132-.231-.098-.085.088-.002.195.033.264m59.074.33c.373-.103.215-.877-.298-.694-.489.177-.087.8.298.694m-47.847-.562c-.004-.084-.006-.17-.099-.165 0 .088-.03.207.099.165m37.841.066c-.022.043.015.12 0 .166-.011.037-.066.024-.066.099 0 .287.29.515.562.495.632-.047.57-1.097-.099-.99-.186.029-.34.127-.397.23m-32.096-.066c.041.299.705.389.595-.165-.193-.266-.637-.147-.595.165m43.06-.33c-.053.459.822.41.495-.165-.213-.15-.474-.025-.495.165m-59.405-.23c-.055-.316-.654-.474-.825-.1-.147.796.927.675.825.1m55.178-.331c.002.097.012.186.132.165.049-.028.07-.083.066-.165-.042-.045-.156-.045-.198 0m-58.15.1c-.007-.063.038-.074.033-.133-.042-.002-.046-.042-.098-.033-.053.05-.05.188.066.165m18.524-.165v.231c.08.052.141.124.297.1.014-.042.043-.068.099-.067v-.264c-.186-.028-.235-.096-.396 0m45.304.462c.06-.323-.087-.44-.198-.594-1.13-.1-.311 1.294.198.594m-14.594-.528c.075-.026.032-.205-.066-.165.014.062-.045.199.066.165m-34.045-.132c.093.027.086-.047.165-.033.015-.103-.07-.106-.165-.1zm29.554-.231c.11-.021.152-.113.165-.231a.27.27 0 0 0-.231 0c-.004.102.04.157.066.23m-.034-.264c.029-.16-.056-.208-.165-.23-.008.046-.072.037-.098.065v.165c.048.05.216.05.263 0m-13.373-.198c.01-.086-.046-.108-.132-.099-.033.11.046.108.132.1m21.068-.198c.107.008.158-.04.164-.133-.03-.058-.061-.115-.164-.099-.056.13-.056.101 0 .231m-30.347.033c.349-.006.207-.572-.098-.429-.259.12-.127.433.098.43m-16.807-.166c.127.037.152.078.297.033.26-.277-.41-.535-.297-.033m6.67 1.288c.036.008.023.066.066.066-.014.092-.104.002-.066-.066m-.198-1.552c-.087.081-.191-.095 0 0m-.792 2.741c.78.183 1.49-.194 1.783-.595.14-.192.27-.516.264-.825-.009-.409-.282-.968-.628-1.222-.238-.176-.659-.303-.99-.33a3.7 3.7 0 0 0-.462 0c-.217.014-.536.034-.86.066-.304.029-.758.171-.99.198-.591.068-.57.209-.495.66.029.17.051.312.066.496.543.575 1.362 1.33 2.312 1.552m20.34-2.345c.537-.018.426-.952-.198-.693-.403.233-.127.705.198.693m.496-.594c.053.005.067-.216-.034-.165-.025.022-.085.196.034.165m19.812.363c.23-.617-.764-.834-.76-.23.002.253.22.438.595.396.043-.113.146-.115.165-.166M35.4 14.722c.009-.076-.009-.125-.066-.133-.053.05-.037.148.066.133m23.643-.067c-.002.279.435.473.66.199.123-.633-.659-.602-.66-.2m-4.59.331c.305-.029.388-.492.131-.693-.768-.255-.645.743-.132.693m5.449-.429c-.108.652.876.71.859.099-.01-.333-.309-.463-.562-.396-.17.046-.275.16-.297.297M5.02 14.26c-.216.106-.361.235-.496.33-.065.046-.14.044-.165.066-.2.187-.363.522-.396.693-.118.612.133 1.013.528 1.223 1.385.152 1.22-1.245 1.321-2.378-.298-.17-.466-.094-.793.066m55.904.099c.301-.082.199-.695-.197-.528-.333.14-.092.607.197.528m-51.94-.198c.102-.45-.398-.556-.596-.33-.151.486.4.577.595.33m49.2-.991c.046-.042.052-.162-.033-.164.02.047-.038.17.034.164m-19.615-1.056h.066v-.066h-.066zm21.993.561c-.141 1.035 1.096 1.505 1.65.925a.82.82 0 0 0 .199-.396 1.025 1.025 0 0 0-1.19-1.223c-.394.08-.627.454-.66.694M29.39 10.33c.005-.082.006-.161-.066-.165-.022.08-.067.17.066.165M18.16 9.9c-.011.166.126.183.232.231.095-.067.066-.218 0-.297-.119-.019-.16.039-.232.066m29.422-.032c.049-.046.017-.158-.1-.133-.008.086.013.142.1.133M12.02 9.273c.188.14.51.06.495-.198-.098-.27-.625-.276-.495.198m47.484 0c.435-.3-.158-.938-.462-.495-.039.357.105.532.462.495m-37.875-.76v-.132h-.1c-.008.087-.01.166.1.132m-2.576.33c.337-.026.272-.652-.132-.495-.39.153-.027.509.132.496m-1.684-.43c.01-.044.047-.063.033-.132-.112-.024-.129.127-.033.132m1.123-.494c-.005.295.454.414.594.098-.065-.045-.018-.202-.066-.264-.242-.173-.524-.068-.528.166m-5.613-.199c.051-.003.114.005.098-.066h-.066c0 .033-.026.04-.032.066m-.199-.033c-.074-.307-.697-.275-.594.165.026.111.184.17.33.231.2-.13.312-.2.264-.396m-1.65.033c.106.067.224.072.297-.033.015-.104-.048-.129-.067-.198-.192-.038-.269.04-.231.231m2.047-1.156c.161.197.57.326.793.1.29-.645-.94-.859-.793-.1m7.232-4.26c.133-.031.133.198 0 .166z" fill="white" fill-rule="nonzero"/></svg>