<svg xmlns="http://www.w3.org/2000/svg" width="244.889" height="144.091" viewBox="0 0 64.794 38.124"><path d="M13.2 29.117a.042.042 0 0 0-.038.043.04.04 0 0 0 .043.039.511.511 0 0 1 .247.073c.096.047.197.095.32.08a.04.04 0 0 0-.01-.08c-.1.011-.185-.03-.274-.074-.089-.042-.18-.087-.287-.081m-2.325-.852a.03.03 0 0 0 .003.042c.059.05.15.057.224.059a.03.03 0 0 0 .001-.06c-.058-.002-.142-.007-.186-.045a.03.03 0 0 0-.042.004m-.904-.376a.036.036 0 0 0-.03.04.035.035 0 0 0 .04.03c.055-.007.104.02.156.048.058.031.123.067.202.056a.037.037 0 0 0 .03-.041.035.035 0 0 0-.04-.03c-.056.008-.106-.018-.158-.047-.057-.031-.122-.067-.2-.056m-2.706-1.364a.08.08 0 0 0 .005.113 2.5 2.5 0 0 0 .783.488.078.078 0 0 0 .102-.046.079.079 0 0 0-.045-.103 2.329 2.329 0 0 1-.733-.457.08.08 0 0 0-.112.005m35.249-8.506c-.026.008-.024.027-.017.054.007.027.051.034.078.028l.055-.012c-.026.006-.046-.012-.054-.038-.007-.027.015-.056.041-.064zm-8.117-5.949c-.015.007-.03.028-.022.044.007.015.017.024.032.016l.114-.056c-.014.008-.036.003-.044-.012-.007-.015-.005-.031.01-.039zm7.987-2.415l-.12.039-.038.013a.03.03 0 0 0-.018.04.03.03 0 0 0 .04.019l.037-.014.113-.036c.016-.006.027-.024.022-.04-.005-.016-.02-.027-.036-.022m-30.49-.39a.029.029 0 0 0 .019.038l.123.042.184.061c.016.005.031-.004.037-.019a.03.03 0 0 0-.02-.037l-.182-.06-.125-.043a.029.029 0 0 0-.036.019m-1-2.644c-.004.016.007.033.023.037l.125.031.211.046c.017.004.029-.007.032-.024.004-.016-.01-.032-.027-.036l-.2-.043-.13-.033c-.015-.005-.03.006-.034.022m-1.06-.226c-.002.022.022.041.045.042l.227.01.177.016c.022.002.038-.015.04-.037.002-.022-.018-.042-.04-.043l-.166-.015-.248-.011c-.022 0-.034.016-.035.038m-.376-.093l-.292.02c-.364.012-.777.026-.894.461l-.004.015.006.014c.412.993 1.412 1.45 2.38 1.89l.837.406c.022.01.05.002.061-.02a.049.049 0 0 0 .005-.02.04.04 0 0 0-.024-.038l-.843-.409c-.945-.431-1.922-.878-2.325-1.827.105-.356.46-.372.805-.384l.3-.02c.023-.002.038-.021.038-.044v-.004a.047.047 0 0 0-.05-.04M33.824 22.95a.072.072 0 0 0 .043.091c.125.046.232.121.347.202l.306.187c.033.022.07.007.09-.027.02-.034.003-.083-.03-.103l-.284-.175a1.62 1.62 0 0 0-.38-.218.072.072 0 0 0-.092.043m1.822-2.226a.034.034 0 0 0-.02.044c.19.524.477.969.853 1.324a.034.034 0 0 0 .048-.002.034.034 0 0 0-.001-.048 3.307 3.307 0 0 1-.836-1.297.034.034 0 0 0-.044-.02m-5.143 1.643a.084.084 0 0 0 .002.118c.692.673 1.627 1.166 2.701 1.425a.083.083 0 0 0 .039-.16c-1.046-.254-1.954-.732-2.625-1.385a.083.083 0 0 0-.117.002m4.917-2.93l-.036.224-.032.185a.074.074 0 0 0 .063.086c.04.007.08-.024.088-.065l.03-.178.038-.235a.072.072 0 0 0-.064-.084c-.04-.007-.08.026-.087.067m-.602.447a.053.053 0 0 0 .025.07l.09.046.115.057c.026.013.054.002.067-.024.012-.025 0-.057-.026-.07l-.108-.053-.096-.049a.05.05 0 0 0-.067.023m4.174-.132c-.02.039 0 .089.04.11l.75.379.734.373c.04.02.083.003.103-.036.02-.04 0-.09-.039-.11l-.723-.368-.763-.386c-.039-.02-.082-.002-.102.038m-6.92-.86c-.022.015-.034.03-.02.052l.115.176.09.133c.015.022.051.041.073.026.022-.014.034-.03.02-.053l-.113-.172-.092-.136c-.015-.021-.05-.042-.073-.026m.163.494c-.206.038-.412.041-.631.045l-.489.023c-.052.002-.086.046-.084.098.002.053.052.093.105.09l.47-.021c.218-.004.443-.007.664-.048a.096.096 0 0 0 .076-.11.095.095 0 0 0-.111-.077m6.508.67a.086.086 0 0 0 .007.121c.464.416.906.835 1.201 1.375a.085.085 0 0 0 .116.034.086.086 0 0 0 .034-.117c-.308-.563-.761-.993-1.237-1.42a.085.085 0 0 0-.12.007m-2.864.193a.062.062 0 0 0 .041.078c1.2.368 2.305.935 3.372 1.483l.51.26a.062.062 0 1 0 .056-.111l-.51-.26c-1.072-.55-2.181-1.119-3.391-1.491a.062.062 0 0 0-.078.041m-2.734-.648a.071.071 0 0 0-.037.095.07.07 0 0 0 .093.038c.116-.05.247-.032.385-.013l.2.019c.04.003.07-.025.073-.065.004-.04-.03-.075-.07-.08l-.184-.017c-.151-.02-.307-.041-.46.023m-1.028-1.29c-.036.025-.057.08-.033.116.025.036.061.052.097.028l.118-.078c-.035.024-.088.017-.112-.02-.024-.034-.02-.08.016-.104zm-3.769.352l-.072.144c.01-.018.03-.022.05-.013.019.01.024.036.015.056l.08-.163c.01-.02 0-.037-.019-.047-.019-.01-.044.003-.054.023m-1.357 2.181l-1.382.57c-.829.35-1.685.711-2.55 1.002a.082.082 0 0 0 .052.155c.87-.293 1.73-.655 2.561-1.005l1.379-.57a.083.083 0 0 0 .045-.107.08.08 0 0 0-.105-.045m-4.591 1.835c-1.859.671-4.346 1.464-7.102 1.64a.058.058 0 0 0-.054.063.057.057 0 0 0 .06.053c2.772-.177 5.27-.973 7.135-1.647a.058.058 0 0 0-.04-.11m8.727-5.984l-.169.018c.044-.004.088.026.093.07.004.043-.021.082-.065.087l.138-.016c.044-.005.085-.044.08-.088-.004-.044-.033-.076-.077-.071m-5.554-1.864l-.18.014-.23.02c-.044.005-.06.04-.056.084.004.043.058.073.101.07l.183-.015.226-.02c.043-.004.06-.039.057-.083-.004-.043-.058-.073-.1-.07m1.615.21a.042.042 0 0 0-.018.057c.186.358.516.563.834.76l.482.332c.02.013.049.011.062-.008.014-.02.012-.043-.007-.057l-.492-.339c-.324-.201-.628-.39-.804-.727a.042.042 0 0 0-.057-.018m6.746-.742l-1.96.13-2.343.162a.093.093 0 0 0-.086.1.096.096 0 0 0 .103.089l2.337-.161 1.963-.13a.095.095 0 0 0 .088-.101.096.096 0 0 0-.102-.089m-5.372.888a.11.11 0 0 0 .077.134l.54.148c.643.177 1.308.36 1.974.505a.11.11 0 0 0 .046-.214 38.19 38.19 0 0 1-1.963-.502l-.54-.147a.108.108 0 0 0-.134.076m9.693-.28l-.69.395c-.301.166-.614.337-.904.536a.095.095 0 0 0-.025.131.093.093 0 0 0 .13.024c.283-.193.591-.362.89-.526l.698-.4a.091.091 0 0 0 .032-.128.097.097 0 0 0-.131-.032m-12.178-1.272a.354.354 0 0 0-.184.097l-.084.06c-.014.01-.02.032-.01.046.01.015.027.02.04.01l.095-.067c.047-.04.09-.076.15-.083a.032.032 0 0 0 .029-.036.032.032 0 0 0-.036-.028m-1.348-.531a.052.052 0 0 0 .022.07c.136.071.244.176.358.288l.25.221c.02.02.05.014.07-.007.018-.021.013-.057-.009-.076l-.239-.214c-.114-.111-.233-.226-.382-.304a.052.052 0 0 0-.07.022m17.882.368l-.137.08-.063.04a.076.076 0 0 0-.026.103.074.074 0 0 0 .103.026l.065-.04.129-.075a.078.078 0 0 0 .03-.106c-.022-.036-.065-.05-.101-.028M28.407 6.938a.055.055 0 0 0-.005.078l.465.493c.181.181.369.369.524.567a.057.057 0 0 0 .08.01.058.058 0 0 0 .01-.08c-.16-.204-.35-.395-.533-.578l-.458-.486c-.022-.023-.06-.026-.083-.004m1.004 1.084l-.214.219-.195.191c-.011.012-.01.03.002.042.012.012.034.01.046-.002l.188-.185.222-.227c.012-.013.01-.03-.002-.041s-.035-.009-.047.003m.107-.005a.032.032 0 0 0-.003.045c.305.352.734.638 1.242.83a.031.031 0 0 0 .04-.018.032.032 0 0 0-.019-.04c-.497-.188-.917-.47-1.216-.814a.031.031 0 0 0-.044-.003m.095-.106l-.102.103a.039.039 0 0 1 .055 0 .04.04 0 0 1 0 .054l.102-.102a.039.039 0 0 0 0-.055.04.04 0 0 0-.055 0m-.177.05a.08.08 0 0 0 0 .16h.102a.08.08 0 0 0 0-.16zm7.844 3.42c-.077.051-.17.076-.258.1l-.226.078c-.016.006-.02.021-.015.037s.027.023.043.017l.213-.074a.914.914 0 0 0 .276-.107.031.031 0 0 0 .009-.042.03.03 0 0 0-.042-.009m1.838 1.676a.068.068 0 0 1-.094.001c.119.115.26.21.398.3.212.14.411.272.522.47a.068.068 0 0 0 .09.026.068.068 0 0 0 .027-.091c-.128-.227-.35-.374-.566-.517a2.567 2.567 0 0 1-.378-.284.068.068 0 0 1 .001.095M38.6 14.18l-.754.011c-.757.007-1.54.014-2.281.144a.095.095 0 0 0 .032.187c.726-.127 1.5-.134 2.25-.141l.757-.011a.094.094 0 0 0 .093-.097.095.095 0 0 0-.097-.093m-9.678.46l-.048.002-.223.018c-.043.004-.065.04-.062.084.004.043.052.075.096.071l.19-.015h.05a.08.08 0 0 0-.003-.16m-.016-1.68a3.84 3.84 0 0 1-.65.1l-.524.07c-.036.004-.058.038-.053.075.005.037.043.063.08.058l.51-.067c.224-.022.454-.046.673-.106a.068.068 0 0 0-.036-.13m-1.392-5.945a.058.058 0 0 0-.023.077c.518.959 1.24 1.792 1.936 2.598l.59.69a.057.057 0 1 0 .087-.074l-.591-.691c-.693-.801-1.41-1.63-1.922-2.578a.056.056 0 0 0-.077-.022m2.292 4.868l-.263.141-.158.079a.056.056 0 0 0-.024.077.059.059 0 0 0 .079.024l.153-.076.277-.148c.028-.016.034-.048.02-.076-.016-.028-.055-.037-.084-.021m1.351-.342a.05.05 0 0 0-.025.065c.045.103.121.18.195.256l.165.209c.017.02.053.032.074.016.02-.017.03-.04.013-.06l-.183-.232c-.07-.073-.137-.141-.175-.228a.049.049 0 0 0-.064-.026m.965 1.116a.066.066 0 0 0-.031.087.908.908 0 0 0 .207.26c.091.09.177.173.197.289a.065.065 0 0 0 .13-.023c-.028-.157-.134-.26-.236-.36-.072-.071-.141-.138-.18-.221a.065.065 0 0 0-.087-.032m-7.914-4.712c-.15.232-.221.493-.29.746-.063.226-.127.46-.248.668a.035.035 0 0 0 .012.048.035.035 0 0 0 .05-.012c.126-.216.19-.455.254-.685.068-.247.138-.503.282-.726a.035.035 0 0 0-.01-.05.035.035 0 0 0-.05.01m-2.841 5.251a.027.027 0 0 1-.038.006c.186.137.391.251.59.36.198.11.402.222.588.359a.026.026 0 0 0 .038-.006.027.027 0 0 0-.006-.038 5.295 5.295 0 0 0-.594-.362c-.197-.108-.401-.22-.584-.357a.027.027 0 0 1 .006.038m-.022-.289a.054.054 0 0 0 .035.068c.792.245 1.508.472 2.25.769a.054.054 0 1 0 .039-.1c-.745-.298-1.464-.526-2.257-.773a.053.053 0 0 0-.067.036m1.507 1.188c-.004.016.002.032.017.038l.126.04.102.036c.016.005.038-.002.043-.018.006-.015.002-.03-.013-.036l-.116-.04-.118-.039c-.016-.005-.035.004-.04.02m5.645-7.828a.07.07 0 0 0 .057.077c.157.024.279.12.407.222l.067.053a.067.067 0 0 0 .094-.012.069.069 0 0 0-.011-.095l-.066-.051c-.137-.11-.28-.222-.47-.25a.068.068 0 0 0-.078.056m-2.728-.239c-.121.061-.193.179-.251.284a.068.068 0 1 0 .119.066c.05-.092.107-.185.193-.228a.068.068 0 0 0 .03-.092.067.067 0 0 0-.091-.03m-3.27 6.469c-.008.013-.001.03.011.04l.343.212c.132.092.268.188.427.25a.028.028 0 0 0 .036-.015.029.029 0 0 0-.016-.036 1.96 1.96 0 0 1-.415-.245l-.351-.217c-.013-.008-.028-.002-.036.01m-8.967-4.878a.032.032 0 0 0 .017.042 43.89 43.89 0 0 1 7.855 4.133.032.032 0 0 0 .045-.01.032.032 0 0 0-.01-.044A43.98 43.98 0 0 0 13.575 7.6a.032.032 0 0 0-.042.018m10.36 5.662c-.03.008-.046.042-.038.072l.03.116.02.085a.052.052 0 0 0 .065.04.057.057 0 0 0 .04-.069l-.017-.079-.035-.13c-.008-.03-.036-.043-.066-.035M13.218 9.918a.053.053 0 0 0 .033.067l1.3.453c1.875.651 3.814 1.324 5.594 2.173a.053.053 0 0 0 .07-.026.053.053 0 0 0-.025-.07c-1.785-.852-3.727-1.526-5.605-2.177l-1.299-.453a.053.053 0 0 0-.068.033m-.437-.426a.041.041 0 0 0-.027.052c.042.13.156.18.257.225.096.04.186.08.219.18a.04.04 0 0 0 .052.025.04.04 0 0 0 .026-.053c-.045-.133-.16-.184-.263-.229-.098-.042-.182-.079-.213-.173a.04.04 0 0 0-.051-.027m-.5.309a.039.039 0 0 0 .001.077c.129-.002.262.034.39.068.2.055.409.112.612.024a.038.038 0 0 0 .02-.05.038.038 0 0 0-.05-.02c-.178.077-.365.026-.562-.028-.134-.036-.272-.074-.411-.071m-3.193.14a.055.055 0 0 0-.033.07.054.054 0 0 0 .069.034c.848-.3 1.786-.297 2.591-.254a.054.054 0 0 0 .057-.052.054.054 0 0 0-.051-.057c-.816-.042-1.767-.046-2.633.26m-.277 1.051a.048.048 0 0 0 .011.068c1.164.82 2.55 1.289 3.892 1.742.826.278 1.68.567 2.466.934a.049.049 0 0 0 .064-.024.049.049 0 0 0-.024-.064c-.79-.369-1.646-.658-2.475-.938-1.335-.45-2.715-.917-3.867-1.73a.047.047 0 0 0-.067.012m7.4 3.118a.07.07 0 0 0 .037.091l.735.31c2.335.985 4.748 2.004 7.257 2.603a.07.07 0 0 0 .032-.136c-2.497-.596-4.906-1.613-7.235-2.596l-.735-.31a.07.07 0 0 0-.09.038m7.981 3.136a1.092 1.092 0 0 1-.358.08c-.118.012-.24.026-.357.073a.047.047 0 0 0-.025.061.046.046 0 0 0 .06.026 1.21 1.21 0 0 1 .331-.067c.13-.014.263-.03.389-.088a.047.047 0 0 0 .022-.063.047.047 0 0 0-.062-.022m-1.114.145c-3.21.451-6.128 1.175-8.921 2.212a.052.052 0 0 0-.03.067.052.052 0 0 0 .065.03c2.787-1.035 5.698-1.757 8.9-2.206a.052.052 0 0 0 .045-.059.052.052 0 0 0-.059-.044M12.886 20.37l-.072.087-.022.028a.084.084 0 0 0 .012.116.08.08 0 0 0 .114-.011l.025-.03.065-.08c.029-.035.026-.09-.009-.118-.035-.03-.084-.027-.113.008m-.715 1.04c-.335.611-.328 1.263.023 1.834.449.733 1.392 1.222 2.292 1.189a.086.086 0 0 0 .083-.09.087.087 0 0 0-.089-.083c-.841.03-1.721-.424-2.14-1.106-.223-.365-.409-.95-.017-1.66a.086.086 0 1 0-.152-.083m29.508 1.758a.057.057 0 0 0 .018.078l.057.036.166.074c.027.012.049-.004.061-.032.013-.029-.01-.065-.039-.078l-.127-.059-.06-.037a.054.054 0 0 0-.076.018m2.067 1.41a.086.086 0 0 0 .003.121c.533.508 1.146.944 1.739 1.365l.805.584a.087.087 0 0 0 .122-.019.085.085 0 0 0-.018-.12l-.81-.586c-.588-.418-1.196-.849-1.72-1.348a.085.085 0 0 0-.121.002m3.608 2.709c-.013.017-.02.027-.004.04l.124.095c-.017-.012-.03-.041-.017-.058.012-.017.026-.026.043-.014l-.082-.058c-.017-.012-.051-.022-.064-.005M44.77 22.6a.082.082 0 0 0 .066.096c.224.043.433.118.655.199l.256.09a.08.08 0 0 0 .102-.051.083.083 0 0 0-.05-.105l-.253-.089c-.218-.078-.443-.16-.68-.205a.082.082 0 0 0-.096.065m-4.044-4.675c-.003.03.022.056.051.06l.533.062c.255.04.519.08.778.067a.054.054 0 0 0-.006-.108c-.248.013-.506-.027-.756-.065l-.544-.063c-.03-.004-.052.017-.056.047m.186-3.337c-.224.383-.287.754-.187 1.105.11.389.425.737.884.98.466.246 1.081.333 1.624.41.47.068.916.131 1.171.285a.072.072 0 0 0 .099-.025.073.073 0 0 0-.025-.099c-.28-.167-.739-.233-1.225-.303-.531-.075-1.133-.16-1.577-.395-.425-.225-.714-.542-.813-.892-.089-.312-.03-.646.172-.993a.071.071 0 1 0-.123-.073m.321-.051a.044.044 0 0 0 .005.062c.405.35.947.606 1.707.806a.044.044 0 0 0 .054-.032.044.044 0 0 0-.032-.053c-.746-.196-1.277-.447-1.672-.788a.044.044 0 0 0-.062.005m2.249 1.008c-.027.02-.03.062-.009.088l.361.47.303.403a.06.06 0 0 0 .085.01.064.064 0 0 0 .01-.088l-.3-.396-.367-.478c-.02-.027-.057-.03-.083-.01M33.58 9.859a.084.084 0 0 0 .008.168c.875-.04 1.724.122 2.59.307a.084.084 0 0 0 .1-.065.084.084 0 0 0-.065-.1c-.877-.187-1.738-.351-2.633-.31m11.657-1.53l-.042.049-.105.1c-.012.011-.018.035-.007.047.012.012.025.018.038.006l.122-.114.039-.046a.032.032 0 0 0-.003-.045.03.03 0 0 0-.042.003M43.793 2.47c-1.579.36-3.167 1.001-4.57 1.568l-1.667.656c-.004-.004-.03-.004-.03-.004a.063.063 0 0 0-.062.063.062.062 0 0 0 .063.063h.051a269.55 269.55 0 0 0 1.693-.66c1.398-.566 2.982-1.206 4.55-1.563 1.49-.339 2.645-.42 3.797.224l.623.385.192.126c.329.211.505.474.526.78.041.615-.532 1.434-1.703 2.437a.064.064 0 0 0-.006.089.062.062 0 0 0 .088.007c1.22-1.045 1.791-1.876 1.747-2.541-.024-.348-.22-.644-.584-.879l-.191-.125-.631-.39c-1.188-.663-2.367-.582-3.886-.236M17.627 30.427a.034.034 0 0 0 .016.046.632.632 0 0 0 .325.055.035.035 0 0 0 .032-.037.034.034 0 0 0-.037-.031.561.561 0 0 1-.29-.05.034.034 0 0 0-.046.017m3.92-4.227a.505.505 0 0 1-.183.183.062.062 0 0 0 .065.104.623.623 0 0 0 .226-.23.062.062 0 0 0-.025-.083.062.062 0 0 0-.083.026m-.927.82c-.193.146-.37.307-.526.477a.086.086 0 0 0 .126.116c.149-.163.318-.317.503-.457a.085.085 0 1 0-.103-.136m-1.197 1.04l-.162.155a.62.62 0 0 0-.199.208.034.034 0 0 0 .014.045.034.034 0 0 0 .045-.014c.043-.083.11-.133.18-.186l.177-.17c.013-.014.009-.029-.004-.042-.012-.014-.038-.009-.051.004m30.06-16.983a.07.07 0 0 0 .068.122c1.358-.759 3.01-.553 4.608-.354l.925.108a.068.068 0 0 0 .076-.061.07.07 0 0 0-.062-.078l-.923-.108c-1.544-.192-3.294-.41-4.692.37m5.429.249l-.35.093-.524.148c-.05.014-.074.064-.06.113.013.05.069.078.118.064l.513-.144.355-.095a.092.092 0 0 0 .063-.113.095.095 0 0 0-.115-.066m-20.863-2.49l-.146.022c-.055.016-.101.029-.142.009a.054.054 0 1 0-.047.096c.077.039.152.018.218-.001l.109-.019c.028-.005.06-.033.056-.062-.005-.03-.02-.05-.048-.045M22.047 1.304c-.456.458-.678 1.05-.66 1.754a.061.061 0 0 0 .062.06.062.062 0 0 0 .06-.063c-.017-.67.194-1.23.625-1.664C23.169.347 25.22.275 26.055.292a.061.061 0 0 0 .062-.06.061.061 0 0 0-.06-.062c-1.055-.022-2.98.096-4.01 1.134m-.308 2.522a.055.055 0 0 0-.037.069c.05.161.097.314.076.49a.055.055 0 0 0 .047.062.056.056 0 0 0 .06-.048c.025-.2-.027-.37-.078-.536a.055.055 0 0 0-.068-.037m.74.854a.049.049 0 0 0 .021.065l.045.021.053.027c.024.012.058.006.07-.018.013-.024.008-.05-.015-.063l-.067-.035-.04-.02a.05.05 0 0 0-.067.023M31.977.722a.07.07 0 0 0 .065.076 4.263 4.263 0 0 1 .957.185.07.07 0 0 0 .089-.045.07.07 0 0 0-.046-.089c-.308-.1-.64-.163-.989-.192a.07.07 0 0 0-.076.065M7.324 26.578l.067-.067c-.121-.255-.121-.631-.512-.616-.036.43.19.597.41.77zm20.14-15.07c.037-.024.25-.22.154-.153-.125.086-.205.189-.153.154m13.518-1.233a.36.36 0 0 0 .154-.103c-.068-.008-.282.08-.154.103M10.924 6.628h.051c-.116-.209-.363-.287-.716-.257l.025.051-.025.051c.096.2.436.296.665.206zm25.143-1.233a.357.357 0 0 0 .154-.103c-.068-.008-.282.08-.154.102m.256-.102a.357.357 0 0 0 .154-.103c-.069-.008-.282.081-.154.103m.36-.155a.359.359 0 0 0 .152-.102c-.068-.008-.282.08-.153.102m.512-.205a.356.356 0 0 0 .153-.103c-.068-.007-.282.081-.153.103m-1.844 14.9c-.106.03-.146.128-.307.103l.026.077-.077.026c.035.444.57.387.665.77v-.05h.052c0-.137-.02-.294.051-.36.07-.017.098-.074.205-.052l-.026-.077.077-.026c-.187-.12-.459-.156-.512-.41l-.077.025zm-7.015-1.079c-.176-.04-.244.029-.205.206.142.057.287.08.256-.154l-.077.025zm.615-3.956c.14.188.67.118.767-.052l-.076-.06.025-.093c-.274-.054-.551-.071-.768.051l.026.077zm3.533-1.49c-.141.126-.186.633.153.565.14.038.104-.102.205-.102-.036-.238-.049-.5-.256-.566l-.025.077zm-1.024-1.284c.206.504-.446.528-.462.976-.121.083-.37.038-.41.205-.043.25.12.292.257.36.35-.009.22-.499.717-.36.177-.097.164-.383.359-.462h.153l.077-.026.077.026c-.017-.12.008-.198.051-.257-.381-.028-.386-.435-.717-.514l-.026.077zm-5.684-5.858c.596.31 1.276.535 1.74.977l.026-.078.077.026c.093-.319.675-.33.819-.051l.009-.06.042-.043c-.183-.137-.094-.512.103-.565l-.026-.094.077-.06c-.588-.555-.403-1.625-1.075-2.055.024.015-.028.105-.052.102-.002 0-.04-.099-.05-.102-.243-.097-.576-.21-.718-.206-.601.017-1.048.536-1.074 1.233-.011.28.122.553.05.873l.077.026zm-3.227 6.32c.014-.634-.6-.842-1.126-.77v.05h-.052c-.327.816.65 1.26 1.178.771l-.025-.025zm-2.407.154c.41.19.812.385 1.23.565l-.026-.026.025.026c-.003-.089.012-.16.052-.205l-.026-.077.077-.026c-.364-.2-.87-.258-1.28-.41l-.026.076zM12.87 9.556c.022-.325-.373-.184-.46-.05.204-.052.153.153.358.101l.025-.076zm-1.177.257c.15.09.356.121.614.103l-.026-.077.077-.026c-.09-.15-.524-.226-.717-.103l.077.026zm-2.766 1.233c-.228-.344-.018-.873.256-1.027l-.077-.026.025-.077c-.694.003-.83.888-.306 1.182l.026-.077zm7.426 3.032c-.186-.363-.676-.419-1.178-.463l.025.077-.077.026c.294.27.536.593 1.178.514l-.026-.094zm6.707 3.442c.086.167.472.121.513-.051l-.077-.026.025-.078c-.125-.1-.43-.05-.512.053l.077.025zM12.973 20.5c.58-.12 1.093-.306 1.28-.822l-.077-.025.026-.078c-.734-.164-1.214.123-1.28.771l.025.077zm-.666 1.028c.146-.367.519-.507.614-.925l-.066-.067-.036-.087c-.394.17-.544.584-.666 1.027l.094-.025zm3.02 2.775c-.293-.067-.567-.121-.87-.052l.026.094-.077.06c.186.166.78.135.973 0l-.076-.026zm7.785-1.902c-.412-.054-.559.159-.769.308l.077.026-.025.077c.28-.06.596-.086.768-.256l-.077-.06zm24.324 4.984c.293.33.65.268.87.617.226.357.099.671.41.924.2.163.359.19.563.206.313.024.524-.221.922-.154.368.062.491.56.973.72.238.078.623.09.819.05.276-.056.559-.358.564-.462.034-.832-1.281-.798-2.151-.72-.479-.393-.88-1.079-1.895-.77-.297-.145-.737-.643-1.024-.462v.051zm-1.178-.77c.294.303.696.5 1.075.719l.051-.026.052.026v-.052c.038-.097.153-.035.05-.154-.414-.149-.67-.457-1.075-.616l-.066.066zm-.564-3.649c.18.111.398.184.615.257.202.326.286.728.666.977.63.411 1.582.118 1.587-.566.007-.965-1.334-.882-2.15-.616-.166-.125-.393-.189-.666-.206l.025.095zm-11.145.4l-.07.063c.175.178.063.45-.102.565-.529.088-.89-.684-.46-.925l-.026-.094.077-.06c-.448-.218-.646-.688-.563-1.439.38-.781.865-.224 1.33.36.276.345.545.742.667.976-.128.35-.469.684-.871.463zm2.798-4.818c-.586-.014-.998-.085-1.024-.463-.06-.889 1.766-.302 1.024.463m-11.752-3.64l-.025.095a.961.961 0 0 1 .563.102c.007.247-.048.43-.153.565-.449.02-.996-.287-.718-.667l-.076-.06.026-.095h-.103c-.262-.592.46-.7.512-.154-.072.014-.058.113-.103.154zm.487-1.241v.051c.14.001.122.242.051.308-.163.044-.158-.08-.256-.102v-.103h-.052v-.051c-.186.136-.252-.202-.46-.206l.026.077-.077.026c.433.996-1.587-.094-.512-.463l-.026-.077.077.026c-.063-.672.492-1.143 1.23-1.182.087.441.236 1.355-.052 1.696zm10.651 2.158c-.344.16-.553-.29-.768-.565-.193-.248-.475-.54-.308-.771l-.076-.06.026-.095h-.154c-.571-.505-.37-1.786-1.28-1.952-.526.302.027 1.42-.307 1.952l.076.06-.025.095c.24-.032.326.18.563.256.197.063.469.005.666.103.247.123.774.842.768 1.08-.023.824-1.367.653-1.997.462-.511-.265-.65-.822-1.025-1.028-.065-.036-.117.016-.153 0-.106-.046-.416-.16-.512-.154-.408.03-.653.479-1.076.565l.026.095-.077.06c.011.04.043.06.102.05.127.224.11.542-.05.72H31.1l.026.077.025.077c.27.037.485.322.256.566-.38.077-.578-.356-.358-.566l-.077-.06.025-.094c-.296-.087-.52-.124-.87-.051-.162-.06-.206-.238-.358-.308-.205 0-.307.102-.513.102-.254-.12-.39-.361-.768-.36l.026.078-.077-.026c.246.49-.347.782-.717.514-.191.387-.919.065-1.024-.258.006-.08-.007-.177.103-.153-.143-.149-.452-.129-.513-.36-.013-.305.057-.526.103-.77.362.013.514-.312.768 0l.051-.027.052.026c.338-.327.937.201 1.433.206l-.025-.094.077-.06c-.073-.069-.073-.291 0-.36l-.077-.06.025-.094c-.23.043-.255-.12-.41-.154-.253.155-.493.327-.972.256-.208-.206-.616-.068-.87-.308-.11-.207.013-.409.05-.616.515-.117 1.147-.117 1.332-.565l-.077-.06.026-.095c-.374-.198-.789-.234-1.332-.154.011-.493-.16-.688-.102-1.079.07-.467.55-.684.512-1.181-.039-.513-.604-.676-.82-1.182-.074-.176-.113-.435-.205-.668-.09-.228-.253-.506-.255-.667-.005-.282.225-.5.255-.72.06-.415-.024-.605-.152-1.13l-.095.025-.06-.077a1.777 1.777 0 0 1-.819-.103c-.809.018-.871 1.162-.46 1.696-.04.011-.06.043-.052.103h.051v.051c.058-.01.08-.057.103-.103.273.172.695.193.973.36.05.207.063.451.05.72-.304.45-1.067.62-1.587.359l-.076.025.025-.077c-.428.112-1.173.042-1.536-.205-.606.56-1.312-.24-1.843-.514-.124.22-.276.408-.36.668.167.319.409.72.77.874.187.08.422.032.613.102.62.228.982.796 1.332 1.336.264.409.72.864.615 1.387h-.052l.026.026-.026.026a3.855 3.855 0 0 0 .615.41l.026-.076.076.026c.062-.059.093-.147.256-.103.016.119-.008.197-.051.257-.097.011-.113-.058-.205-.052l-.025.077-.077-.025c-.008.112-.13.11-.256.102l.025.077-.076.026v.052c-.015.26-.452.095-.461.36v.05h-.052c.104.137.323.156.308.412-.167.363-.888.17-1.025.565.518.776 1.403-.377 2.305 0 .34.55.301 1.5-.205 1.85-.096.011-.113-.059-.205-.052l.019.092-.07.062a.243.243 0 0 1-.051.154l.077.026-.026.077c.148.072.26-.14.307 0 .285.074.318.4.359.72.158.251.433.387.665.564.196-.043.213-.266.307-.41.412-.25.942-.076 1.537-.103.215-.01.166.244.256.36.254-.214.54-.135.717.102v.103l.05-.026.052.026c.138.074.409.208.308.36.208-.06.557.325.46.565-.507.656-1.791.53-2.253 1.233l.07.062-.018.092c1.042-.102 1.458-.832 2.406-1.027-.38.62.047.995.256 1.54.088.23.079.453.154.566.165.246.493.303.717.411l.025-.077.026-.077c-.046-.536-.413-.75-.768-.977-.136-.309-.343-.917-.103-1.284.088-.07.393-.185.513-.051.14-.304.55-.339.921-.411l-.025-.077.025-.078c-.239-.487.519-.615.922-.462l.026-.078.077.027c-.03-.22.036-.34.051-.514l-.077-.06.026-.095c-.108-.045-.228-.079-.308-.153.1-.256-.01-.247-.204-.308-.017-.12.007-.198.05-.258.192-.055.147.128.308.103-.146.3.117.23.256.36.012.097-.058.113-.05.206l.024.077.026.076c.06-.043.137-.067.256-.051.157.194.25.768 0 .925-.14.038-.103-.102-.205-.103l-.026.077-.076-.025c.003.089-.012.16-.051.205l.076.06-.025.094c.305-.05.417.096.563.206-.06.575-.18 1.155 0 1.695-.103.137-.122.357-.41.309.135.395.552.508.87.72.05.422.351.9.052 1.232H33.2l.026.095-.077.06c.01.075.124.046.204.05.515.386.51 1.172.769 1.748.078.175.242.376.358.565.653 1.064 1.638 2.049 2.919 2.157.17.015.337-.027.512 0 .275.044.594.257.973.155.463-.125.467-.646.665-1.13.103-.249.327-.446.462-.72.379-.774.69-1.838.716-2.826.01-.382-.177-.701.154-.925.318.075.453.334.87.309l-.025-.078.076-.025c-.079-.584-.846-.42-1.177-.72-.32-.29-.171-.669-.563-1.027l-.036.087-.067.067c-.002.17.021.363-.153.36l.025.077-.076.026c.39.19.638.919.665 1.438.072 1.362-.744 3.087-1.229 3.854-.733-.016-.899.708-1.383.822-.395.093-.874-.142-1.228-.308-.924-.436-1.454-1.057-1.895-1.901-.277-.53-.584-1.089-.615-1.593.244-.282.718-.062 1.127-.103.446-.044 1.043-.252 1.126-.514.143-.45-.286-.713-.563-1.13-.1-.15-.128-.308-.205-.412-.298-.402-.78-.817-1.178-1.232-.212-.223-.398-.45-.614-.617-.234-.18-.643-.303-.512-.617l-.077-.06.026-.094c-.348-.199-.263-.832-.308-1.335.486-.502 1.585-.044 1.997.308-.072.51-.53.631-.665 1.079-.198.028-.25-.092-.461-.052l.025.095-.076.06c.325.153.84.115 1.177.257l-.025-.077.077-.026c-.027-.284.34-.604.46-.411l.094-.026.06.077c.128-.389.646-.796 1.076-.77.895.052.489 1.19 1.075 1.592.493.083.648-.172 1.076-.154l.025-.078.077.026v-.205c.069-.016.098-.073.204-.051l-.025-.095.077-.06c-.12-.204-.493-.156-.563-.41-.023-.194.1-.242.153-.36.69-.054.752.37 1.178.72.34.278.904.41.768.719-.065.002-.07.066-.154.05l.026.095-.077.06c.302.23.946.44 1.178.565.257.14.813.38.87.565.154.494-.348 1.12-.614 1.49l.025.077-.076.026c.466.629 1.097 1.091 1.895 1.387l.06-.077.093.026c.047-.436.5-.55.666-.925.161-.365-.006-.696.307-1.028l-.025-.094.077-.06c-.446-.107-.66-.353-1.025-.513-.272-.12-.597-.14-.82-.258-.263-.14-.454-.416-.716-.616-.538-.408-1.051-.736-1.536-1.13-.257-.209-.564-.431-.615-.77.755-.268 1.113.82 2.1.719.525-.055.972-.659.563-1.08-.547-.562-1.773.19-2.458-.154-.032-.443.383-.437.41-.822h-.051v-.051c-.095-.239-.3-.579-.615-.72-.147-.065-.307.004-.512-.05-.069-.02-.174-.124-.256-.155-.282-.107-.765-.297-.973-.308-.388-.022-.769.242-1.127.154-.229-.216-.528-.36-.511-.822l-.07-.062zm7.63 1.54c.084.533 1.125.749 1.178.206.046-.466-.706-.498-1.127-.36l.026.095zm-.256-.872c.036.323.159.56.563.513.134-.326-.222-.502-.46-.616l-.026.077zm-1.46-2.955l.026.077c.077.077.005.266-.153.257v-.154l-.07-.062.018-.092c-.366.085-1.097.88-1.536.257.143-.356.605-.448.922-.617.4-.213.869-.459 1.178-.617h.153c.192.476-.243.744-.563.874zm-2.739.232c-.066.516-.882.279-1.331.41l.025.095-.077.06c.011.058.057.08.103.102.057.366-.302.314-.41.514l.087.036.067.067c.604-.254 1.739-1.254 2.56-.514-.04.012-.06.043-.05.103l.09-.019.062.07c.124.021.112-.094.257-.051l-.026-.078.077.027c.025-.643 1.005-.327 1.588-.411.215.282.275.886 0 1.13l.025.051-.025.052c.284.005.38.2.614.256l-.026-.077.077-.025c-.062-.417-.36-.814-.256-1.234.225-.254.565-.103.87-.153.313-.052.66-.184.973-.258.345-.08.655-.168.922-.308.217-.305.186-.72.666-.822.29-.062.598.104.87.052.873-.17.453-1.195-.46-1.08-.293.037-.404.271-.666.258-.293-.152-.478-.411-.512-.822.123-.216.451-.29.768-.412.27-.103.565-.251.87-.36.536-.189 1.388-.517 1.998-.462.22.02.441.171.666.206.53.083 1.202-.061 1.485-.411.446-.553.073-1.436-.513-1.592-.276.044-.53.06-.82 0-.562.307-.812.93-1.126 1.49a16.018 16.018 0 0 0-3.584 1.335c-.306-.262-.997-.52-1.434-.36-.42.155-.359.969-.717 1.336-.137.142-.517.305-.82.463-.292.153-.6.315-.87.462-.518.283-1.345.835-1.843.822l-.06.077zm-3.738-3.443c.221.466 1.163.473 1.075 1.079h.051v.051c.85.295.755 1.538 1.792 1.644l-.018-.091.07-.063c-.165-.432-.75-.565-.768-1.027-.006-.144.122-.303.205-.463.202-.395.27-.424.102-.77-.068-.14-.146-.265-.204-.308a1.219 1.219 0 0 0-.36-.103c-.21-.011-.414.112-.665.103-.35-.21-.865-.49-1.28-.206l.026.077zm-7.1-3.762l-.07.063c.22.401.884.615.82 1.13.481.026.864.563 1.23.873.032.188-.036.274-.103.36.22-.033.286.088.41.154.313.783-.357 1.268-1.076 1.336-.051-.068-.05-.19-.154-.205l-.066.067-.087.036c.419.367.095 1.222-.205 1.49l.07.062-.02.092c.303-.233.832-.654 1.332-.36l.026-.077.077.026c.141-1.177 1.36-1.273 2.356-1.593l-.026-.077.026-.078c-.06-.26-.348-.525-.205-.822-.33.194-.567-.005-.922-.102-.252-.07-.54-.089-.666-.154-.184-.097-.418-.407-.666-.616-.321-.274-.74-.494-.614-.72.02-.056.061-.124 0-.052-.671.07-.9-.739-1.485-.925zM45.26 8.35l-.025.077c.324-.034.557-.16.87-.206a3.952 3.952 0 0 1 1.28-1.592l-.087-.036-.066-.067c-.359.165-.602.466-1.024.617-.242.086-.534.058-.769.154-.388.157-.656.532-.87.822.195.095.526.054.614.257zM3.038 38.123h.102c.08-.127-.174-.15-.153-.051.031.003.06.008.05.051m-.511-1.387c-.156.173.19.155 0 0m-1.024-.411c.172.156.155-.19 0 0m3.38-.36c-.05.234.215.324.358.206v-.206c-.068-.073-.29-.073-.358 0m3.072-.256v-.206H7.75c-.025.16.044.23.204.206m-4.045-.206c.15.19.465.183.563-.051.054-.385-.698-.457-.563.051m-1.998-.77c-.036.156.053.187.052.307.12 0 .15.089.307.052.022-.098.147-.093.103-.257-.014-.171-.335-.205-.462-.103m4.66-.616c-.045.285.143.336.41.308.046-.15.046-.158 0-.308-.074-.076-.335-.076-.41 0m11.113-.154h.102v-.103h-.102zm1.177-.257c.009.216.181.298.359.205v-.205c-.069-.074-.29-.074-.359 0m36.87-.206c-.082.143.222.142.206.052-.105-.03-.101-.155-.206-.052m-46.446-.617c.078.189.307.252.461.103v-.257c-.135-.131-.508-.165-.46.154m-2.715-.205c-.106.355.42.414.41.102-.06-.11-.272-.225-.41-.102m5.531-.308v.205c.128.075.201.125.358.052v-.258c-.068-.072-.29-.072-.358 0m-4.762 0c-.023.23.13.28.358.258.012-.04.002-.102.052-.103.026-.212-.277-.262-.41-.154m6.554-.411c-.066-.004-.07-.066-.153-.052-.08.127.173.152.153.052m8.347-.463c.024-.16-.044-.229-.204-.205-.036.172.085.188.204.205m-7.835-.308c-.335.213.165.615.36.308-.025-.199-.133-.312-.36-.308m.769-.103c.09.136.375.14.41-.051-.061-.162-.439-.252-.41.051m2.79-.59l-.076.025c.196.288.935.399.87-.205-.26-.218-.741-.068-.87.154zm-4.43-.745c.07.016.099.073.206.051.038-.175-.196-.2-.205-.051m3.636-.309c-.1.343.248.443.46.309a.243.243 0 0 1 .052-.155c-.053-.159-.32-.296-.512-.154m-.666-.308c.016.156.289.209.41.102.093-.342-.42-.411-.41-.102m11.42-.617c.011-.224-.244-.408-.564-.256-.282.582.54.678.563.256m-17-1.747c-.054.416.544.324.357 0-.068-.073-.29-.073-.358 0m33.746 0c.09.046.15.163.257.052.049-.19-.252-.205-.257-.052m-18.997-.41h.152c.01-.112-.04-.164-.152-.154zm-6.555 2.003c-.167-.03-.239.036-.36.051-.066.345-.639.18-.613.617.418.244.827-.306 1.023-.617l-.077.026zm.972-.873c-.304.14-.643.246-.717.616l.078-.025-.026.077c.47.008.621-.301.819-.566l-.087-.035zm1.28-1.13c-.348.13-.657.299-.768.668l.07.062-.018.091c.375-.137.699-.326.82-.72l-.078-.024zm.231-.13l.026.078c.697-.24 1.268-.713 2.304-.462.252.34.623.477.922.72.314.253.711.822 1.024 1.232.305.4.854 1.018.87 1.438.017.416-.335.734-.358 1.182-.022.415.183.986.41 1.234.227.248.77.595 1.331.462.578-.138.92-1.007.665-1.695-.135-.37-.56-.72-.87-.874-.206-.103-.494-.091-.665-.206-.208-.139-.355-.544-.564-.873-.2-.318-.431-.617-.614-.874-.289-.405-.716-.829-1.025-1.181-.133-.153-.2-.377-.307-.463-.111-.088-.391-.082-.614-.205-.193-.107-.275-.313-.41-.36-.868-.298-1.959.342-2.202.822zm4.481-1.618c.051-.171-.071-.168-.205-.153-.015.134.07.168.205.153M3.5 24.713c.121-.127.02-.322-.205-.256-.038.192.058.25.205.256m17.155-.308a.42.42 0 0 0 .358 0c.04-.245-.107-.304-.307-.309-.06.062-.058.182-.051.31m-1.025-1.594c.01.162.096.247.257.257.01-.058.056-.08.102-.103.02-.192-.233-.265-.359-.154m-4.966.103c.011-.04.042-.06.102-.051.051-.24-.09-.288-.308-.257-.02.192.042.301.206.308m45.677.411c.606-.05.34-1.099-.205-.822-.58.295-.055.843.205.822m-46.753-1.028c-.07-.016-.098-.073-.205-.051-.013.15.199.197.205.051m9.166-.051c-.065-.003-.07-.065-.153-.052-.08.127.174.152.153.052m-3.585-.36c-.045-.04-.146.032-.153.052-.073.194.255.037.153-.052m7.682-.256c-.017-.043-.136-.063-.154 0-.034.118.2.11.154 0m3.636-.36c.068.103.342.155.46.052.228-.35-.575-.657-.46-.052m-8.654-.617c-.252.005-.605.207-.666.463-.32 1.346 2.096 1.075 1.28-.206-.314-.076-.304-.263-.614-.257m2.97.309c.147-.006.335.028.41-.052.036-.157-.053-.187-.052-.308-.305-.156-.582.07-.358.36m-8.398-.617c-.03.218.138.239.255.308-.015-.135.199-.04.154-.205-.016-.156-.289-.21-.41-.103m5.429-1.13c-.046-.04-.147.03-.154.051-.073.194.254.037.154-.051m5.223.051v-.154H26.9c-.009.112.042.163.154.154m-1.74.206c.14.13.373.122.46-.052.05-.386-.586-.424-.46.052m28.266-.874c-.018-.041-.136-.062-.154 0-.034.119.2.111.154 0m-19.562.051c-.011.098.058.114.051.206.075.075.335.075.41 0 .057-.35-.35-.448-.461-.206m8.808-.72c.09-.01.256.053.205-.102-.117-.014-.192.013-.205.103m-19.152-1.387c.036-.19-.081-.227-.256-.205-.065.225.128.327.256.205m.973-.103c.051-.24-.09-.287-.307-.257-.051.24.09.288.307.257m-1.28-.565c.09.004.159-.011.205-.051.024-.161-.13-.145-.205-.206a.193.193 0 0 0 0 .257m20.585-.257h.103c.08-.126-.174-.15-.154-.051.032.003.06.007.051.051m-9.934-.72c-.03.29.123.391.41.36.07-.066.05-.223.05-.36-.164-.087-.305-.137-.46 0m-11.931-.513c.077.06.216.18.255 0-.076-.06-.214-.18-.255 0m5.377-.154c-.098-.022-.093-.147-.257-.103-.078.222.234.277.257.103m-8.604-.103c.07.016.098.073.205.052.039-.176-.195-.201-.205-.052m.667-.72c-.05.235.214.324.358.206.049-.234-.215-.323-.358-.205m-3.278-.051c.127.007.248.01.256-.103-.076-.027-.13-.076-.205-.103-.016.07-.073.098-.051.206m13.57 0c.065-.061.022-.194-.051-.258-.07.066-.08.252.05.258m-.46-.412c-.328-.059-.112.157 0 0m.46-.05c-.09.029-.3-.063-.306.05.09-.03.3.062.307-.05m.512-.104c-.328-.059-.112.157 0 0m3.84-.668c-.327-.059-.112.157 0 0m15.363-1.079c-.22.053-.398.15-.358.463.283.044.377-.102.41-.308l-.07-.063zm4.558.514c-.413.002-.825-.14-.871.308.228.319.778.074.922-.154l-.077-.06zm.998-.677l-.077.06c.105.192-.022.319-.153.412l.077.06-.026.094c1.475-.492 2.236.001 3.277.514 1.037.51 2.05 1.172 2.92 1.798.5.36 1.05.617 1.433.924.249.2.476.663.768.822.626.344 1.38.09 1.485-.564-.42-.641-1.308-.277-1.844-.463-.752-.262-1.495-.917-2.252-1.439-.566-.388-1.146-.785-1.69-1.078-.196-.106-.496-.1-.563-.36.359-.541 1.59-.445 1.228-1.541a.988.988 0 0 0-.46-.206c-.78-.158-1.134.51-1.69.771-.756.355-1.705.343-2.458.102zm-35.257-1.79c.052-.24-.089-.286-.306-.256-.052.24.089.287.306.257m2.151-.205c.015-.136-.07-.17-.205-.155-.051.172.071.169.205.155m-9.012-.31c.065.004.07.067.153.052.003-.088-.04-.131-.102-.153 0 .051-.042.06-.051.102m41.325-.668c-.098-.022-.129-.11-.257-.103-.058.287.22.298.257.103M7.442 3.237c.006.13.074.199.205.205.205-.115-.03-.353-.205-.205m12.034-.257c.757.276.885-1.001.102-.822-.501.114-.502.676-.102.822M8.518 2.826c.281.282.913.24 1.126-.103.3-.483-.165-.86-.513-1.028-.672-.052-1.048.695-.613 1.13m17.922-1.13c.024-.16-.11-.164-.256-.154-.024.16.11.165.256.154M4.216 1.027h.154c.008-.112-.042-.163-.154-.154zM.17.822C.105.819.1.756.017.77-.063.897.19.92.17.82m21.61 3.546c-.096.098-.005.129 0 .257.167.14.549.066.768.154l-.025-.077.077-.026c.007-.35-.36-.324-.717-.308l-.051.026zm-.41-1.336c-.287.38.09.784.36.925l.025-.077.077.025c0-.428-.188-.668-.359-.924l-.025.077zM32.944.976c.214 1.069 1.355.434 2.304.565 1.012.14 1.39 1.312 2.356 1.182.178-.203.343-.439.255-.77-.113-.428-1.703-.867-2.355-1.029-.823-.203-1.883-.522-2.51-.102l.027.094zM26.03.154c.262.09.474-.143.716-.155.244-.01.496.135.768.155.717.053 1.521-.039 2.305.051.276.032.551.177.82.206.6.064 1.116-.08 1.485.256l-.077.06.025.095c-.473.222-.791-.116-1.178-.205-.43-.1-1.056-.05-1.639-.104-.551-.05-1.14-.17-1.587-.154-.275.01-.555.119-.82.103-.25-.014-.517-.185-.767-.154L26.056.23z" fill="white" fill-rule="evenodd"/></svg>