<svg xmlns="http://www.w3.org/2000/svg" width="101.832" height="244.89" viewBox="0 0 26.943 64.794"><path d="M9.011 43.244c-.169.339.017.673.18.967l.153.302c.012.024.044.038.07.024.024-.011.035-.039.023-.063l-.159-.312c-.158-.286-.322-.581-.177-.874a.05.05 0 0 0-.09-.044m.922.623a.07.07 0 0 0-.053.083l.01.048c.02.1.041.194-.004.275a.07.07 0 1 0 .123.068c.07-.127.042-.258.018-.372l-.01-.047a.07.07 0 0 0-.084-.055m6.882-11.792a.115.115 0 0 0-.09.136.73.73 0 0 1 0 .322.115.115 0 0 0 .087.139.116.116 0 0 0 .138-.086.965.965 0 0 0 0-.421.115.115 0 0 0-.135-.09m3.473-8.026a.118.118 0 0 0-.064.153c.396.974.559 1.785.511 2.55a.119.119 0 0 0 .11.126.117.117 0 0 0 .125-.11c.05-.804-.118-1.647-.529-2.655a.117.117 0 0 0-.153-.064M7.758 43.235a.046.046 0 0 0 .002.065c.1.094.231.09.347.085l.127.002c.025 0 .05-.02.05-.046 0-.025-.016-.046-.042-.046l-.138-.002c-.108.004-.21.007-.28-.06a.046.046 0 0 0-.066.002m4.372-3.279a.043.043 0 0 1-.06-.009l.182.256c.015.02.044.028.063.013.02-.014.027-.038.012-.058l-.188-.264a.046.046 0 0 1-.01.062m6.052 9.913c-.03.007-.042.035-.034.065.007.03.044.046.074.039l.137-.034c-.03.008-.055-.012-.063-.042-.007-.03.017-.061.047-.068zm1.603-17.657c-.577.305-1.303.84-1.494 1.66a.113.113 0 0 0 .219.052c.172-.738.845-1.23 1.38-1.513a.113.113 0 0 0-.105-.198m-17.26-1.425c-.523.697-.705 2.074-.405 3.072a.127.127 0 1 0 .242-.073c-.273-.914-.106-2.217.366-2.846.201-.267.44-.402.71-.4.758.008 1.086 1.126 1.356 2.27a.127.127 0 1 0 .247-.057c-.293-1.243-.659-2.458-1.6-2.467-.351-.002-.668.17-.916.501m-1.08-17.34c-.591.046-1.18.987-1.116 2.313a.103.103 0 0 0 .108.099.104.104 0 0 0 .099-.109c-.06-1.25.498-2.063.925-2.096.305-.024.528.339.596.97.11 1.028.116 2.47.12 3.741.004.79.007 1.536.035 2.08a.103.103 0 0 0 .109.098.104.104 0 0 0 .098-.11c-.028-.537-.03-1.281-.034-2.068-.005-1.277-.01-2.724-.122-3.763-.12-1.12-.657-1.168-.819-1.154m17.834-5.782c-.033.022-.032.078-.01.11l.136.206c-.022-.032-.01-.071.023-.093.033-.021.08-.008.101.025l-.162-.24c-.021-.033-.056-.03-.088-.008M9.39 44.493h-.075c.153.428.804.344.744-.223l-.112.037-.037-.111c-.179.07-.197.299-.52.223zm8.921-10.707c-.508.373-.659 1.686.075 1.636.65-.044.43-1.08.148-1.56l-.135.036zm-.52 11.45c-.187.241-.65.41-1.041.224.024-.477-.176-.805.075-1.116.525.059.994-.067.966.892m-2.156-1.115c.702-.417.806.854.743 1.784-.057.87-.39 1.583-.446 2.306-.113 1.45.32 2.482.372 3.866.017.44.096.86-.223.967-.964.32-.696-2.134-.67-2.677.055-1.083.163-2.575.075-3.42-.049-.47-.288-.886-.297-1.264-.006-.242.21-1.422.446-1.562m1.263-.446c-.329-.433-.603-1.252-.445-1.933.151-.149.198-.02.297.074-.157-.777.506-.733.744-1.115-.093-.862-.83-1.431-.446-2.528h.148c.544.068 1.803.937 1.933 1.933.07.527-.115 1.21-.223 1.86-.195 1.182-.406 1.972-2.008 1.71M6.79 36.908c.18.45.07 1.627-.67 1.339-.02-.476-.193-.799-.149-1.339.384-.08.337-.196.818 0m6.84 2.454c-.31-.137-.7-1.626-.52-2.305.208-.783 1.301-.887 1.412 0 .038.295-.176.885-.297 1.338-.121.456-.184 1.04-.594.967m5.204-.967c-.777-.115-1.217-.567-1.71-.967.132-.792.646-1.6 1.412-1.189.542.29.629 1.635.298 2.156m6.692 4.09c-.956.049-.89-.86-.967-1.562-.216-1.958-.415-4.904-.595-6.617-.054-.203.148-.15.149-.297h.223c.714 1.078 1.524 2.667 1.636 4.312.022.32-.08.628-.074.967.002.15.138.16.148.222.013.081 0 .473 0 .595 0 .788-.005 1.777-.52 2.38M13.555 19.66c-.31.484-.55 1.037-.967 1.412-.528-.027-.613-.62-.521-.966.15-.564.884-.56 1.487-.446M7.792 43.266l.111.037c.179-.271.813-.125 1.115-.074.14-.207.418-.276.67-.372-.12-.023.006-.105.148-.074.383-.464.769-.879 1.116-1.413.316-.486.547-1.161 1.19-1.338l-.038-.111.112.037c.1-.187.483-.356.669-.223.333 1.402.587 2.883 1.412 3.792.326.07.618.175.818.371-.089.556-.214 1.075-.52 1.413-.365.055-.694.115-1.04 0-.68-.759-.194-2.682-.893-3.42.335-.643.042-1.453-.372-1.785v.074h-.074c-.214.587-.018 1.406.149 1.86-.258.139-.527.266-.967.223-1.124.662-1.188 2.286-.818 3.94.276.21.669-.136.967.074 1.13 1.583-.977 2.894-.372 4.313.172.405 1.011.591 1.115 1.04.144.622-.449 1.624-.818 2.306-.616 1.137-1.95 2.551-.669 3.792.512-.066.708.184.967.372-.033 1.615-.992 2.996-1.19 4.46-.106.785.103 2.177.967 2.231.804.05 1.164-1.047 1.19-1.784.02-.614-.306-1.503-.224-2.454.059-.676.54-2.862.893-3.049.604-.317.7.244 1.264.373.266.06.683-.06 1.04 0 .593.098.873.404 1.116.371.534-.07.953-.741 1.04-1.264.243-1.459-.665-2.466-.445-3.717.757-1.232 1.741.291 2.304.892.622.663 1.013.928 1.487 1.636.32.476.497 1.024.893 1.412.433.426 1.137.926 1.635 1.041.983.228 2.173-.23 2.157-1.115-.028-1.457-1.484-1.474-2.677-1.859-.28-.09-.575-.266-.893-.372-.359-.12-.762-.14-1.04-.297-.307-.172-.725-.725-1.19-1.19-.93-.93-2.655-1.986-1.859-3.42l-.037-.074.037-.074c-.045-.005-.088-.012-.074-.075.105-.963.041-2.248.297-3.346.178-.76.572-1.527.818-2.528.08-.325.205-.746.297-1.338.108-.688.028-1.189.52-1.19.263 0 1.133 1.326 1.191 1.785.065.518-.262 1.003-.15 1.636.15.824 1.035 1.357 1.637 1.71.273.16.534.365.817.371.741.016 1.15-.82 2.008-.892.542-.045.789.4 1.264-.149.303-1.049-.34-1.723-.371-2.602-.042-1.166.32-2.445.223-3.718-.129-1.657-.804-3.694-1.487-4.684.087-.011.21.013.223-.074-.428-.147-.53-.738-.893-1.19-.245-.304-.724-.569-1.04-.966-.388-.485-.538-.94-.893-1.115-.886-.44-1.952.566-2.9.743l.112.087-.037.136h.372c.251.44-.662 3.524.445 3.718.36.063.777-.258.819-.67.08-.806-.806-.989-.893-1.56-.108-.717.613-1.718 1.116-1.785.338-.046 1.08.274 1.263.52.443.592.592 2.708.67 4.461a27.853 27.853 0 0 1-.15 4.387c-.074.702-1.108 1.05-1.71.967-.404-.281-.704-.82-1.115-1.413-.293-.423-.85-1.016-.966-1.636-.051-.273.016-.583 0-.892-.075-1.425-.324-3.077-1.413-3.048-.738.02-.765.84-1.339.892-.083-1.1.15-2.528.075-3.867l-.136.038-.087-.112c-.3 1.534-.071 3.597-.446 5.056a1.596 1.596 0 0 1-.669.075c-.421-.254-.258-.91-.446-1.488-.127-.39-.466-.672-.595-1.04-.65-1.852.633-3.38 2.156-2.752l.087-.111.136.037v-.149c.219-.178.408-.305.744-.446.296-.124.616-.109.967-.223.73-.238 1.486-.665 2.304-.743.944-.09 2.477.358 2.38-.595-.132-1.28-2.342.445-2.752-.595-.01-.408.284-.51.224-.966-.136-.31-.59-.303-.818-.521.386-.358 1.023-.463.966-1.264l-.137.037-.086-.111c-.386.664-1.51 1.944-2.305 1.04-.03-.525.482-.509.446-1.04-.393-.622-.872-.175-1.338-.223-.894-.093-1.132-.707-1.413-1.487-.125-.348-.316-.583-.297-.818.05-.669.876-1.163 1.71-.893.386.126.705.69.966.744.84.176 1.524-.72 1.711.297l.086-.111.137.037c-.23-.783-.626-1.189-.52-2.007.044-.346.328-.548.297-.893-.052-.579-.875-1.329-1.561-1.412-.55-.067-1.105.269-1.636.148-.375-.085-.565-.47-.893-.743-.377-.315-.768-.457-.966-.744-.494-.713-.126-1.861-.967-2.23-.585.515.198 1.315.297 1.859-.057.246-.21.274-.297.52-.084.236.2.725-.371.67.018-.515-.02-.972-.15-1.34-.196-.224-.632-.209-.668-.594-.818-.173-1.45-.533-1.934-1.04.131-.8-.857-1.645-1.338-.893-.005.487.745.355.743.966-.001.41-.485.441-.743.893-.37.647.021 1.943-.149 2.528-.095.327-.607.53-.669.743.61 1.376-.125 2.756-.371 4.238-.435 2.61-.43 6.644-2.008 7.807-.377.278-1.015.41-1.487.223-.011-.087.013-.21-.074-.223l-.087.112-.136-.037v.223c-.49.532-1.585.837-2.454.743l-.087.112-.136-.038c-.042 1-1.183.9-1.339 1.785.358.463.82.07 1.264.074.752.008 1.44.422 2.23.595.424.092.947-.038 1.265.298-.012 1.033.443 2.234.372 3.643-.025.483-.19.9-.149 1.338.055.596.374.897.52 1.413.103.36.184 1.032.15 1.487-.03.372-.318.808-.372 1.338-.107 1.032.314 2.166 1.263 2.082.38-.034.734-.46.818-.67.63-1.554-1-2.254-1.04-3.42.47-.287-.059-.284.52-.52-.186.292-.081.217.223.148zm9.034-1.078c.02-.1-.046-.29-.075-.149-.02.102.046.29.075.15M5.747 29.473c.173.147.199.147.372 0-.026-.173-.048-.348-.298-.297.017.14-.083.164-.074.297m-2.974-.595c-.302-1.143-2.524-.706-1.859.967.743.933 2.158.166 1.859-.967m4.238-5.427c-2.168.412-2.146 3.91.223 3.866.539-.574.802-1.019.818-1.71.022-.93-.562-1.383-.669-2.008-.055-.315.29-.82-.075-1.04-.143.252-.153.639-.297.892m-.595-1.041h.223v-.223H6.49c-.004.095-.095.103-.074.223m.892-1.19h.149c0-.075.06-.089.075-.149-.096-.004-.103-.095-.224-.074zm8.551-3.272c.217.11.217-.332 0-.223zm-.074-.743c.374.052.49-.154.446-.52-.296-.36-.72.132-.446.52M.989 16.091c.083.015.115.082.149.148.202.055.149-.148.296-.148.036-.234-.092-.304-.222-.372-.083.115-.242.155-.223.372m7.88-.223c.278-.104.093-.766-.222-.744-.16.232-.046.705.223.744m8.03-.075c.665.108 1.063-.37.744-.817-.593-.072-.718.324-.745.817m-2.75.074c.391-.131.533-.951 0-1.04-.51.025-.482 1.01 0 1.04m-5.13-1.858c-.066-.057-.213.046-.223.074-.105.28.37.053.222-.074M.32 15.719c-.156.946-.835 2.393.445 2.602.155-.241.17-.624.298-.892.101-.246.567-.127.52-.52-.13-.372-.63.001-.818-.373-.08-.266-.115-.577-.223-.817l-.111.037zm1.995 4.721l-.137-.037c-.098.557.029 1.212-.149 1.71-.161.455-.95.907-1.04 1.71-.11.969.465 1.697 1.263 1.71.923.016 1.323-.85 1.19-1.784-.095-.675-.743-1.14-.892-1.636-.153-.51.026-1.297-.149-1.784zm15.18-6.728c.191-.057.258-.238.223-.521-.11-.039-.188-.11-.297-.149-.258.095-.342.683.074.67m2.825-.595h.297v-.372h-.223c-.062.086-.098.2-.074.372m-6.394.371c.389.203.721-.06.67-.52-.272-.511-1.019-.012-.67.52M1.36 12.745c.207.119.206-.321.074-.297-.023.1-.105.142-.074.297m4.982 1.487c1.05-.205 1.006-2.509-.52-2.156-1.434.33-.69 2.392.52 2.156m7.435-2.305c.007.183.139.27.372.372.894-.501-.407-1.24-.372-.372m-.595-1.115c.058.016.147.002.149.074.238-.01.328-.169.298-.446-.11-.039-.188-.11-.298-.149-.099.125-.197.25-.149.52m.67-1.486c-.305-.677-1.03.443-.223.446.155-.068.226-.22.223-.446m5.501-1.413c-.178.497-.76.71-1.04 1.115-.299.433-.534 1.123-.52 1.71.013.617.4.865.37 1.562.163-.014.237.06.224.223.154.143-.025.62.298.595.485.18.454-.49.818-1.041.304-.464.783-.842 1.114-1.339.365-.546.753-1.205.819-1.71.153-1.177-.924-1.245-1.933-1.19l-.038.112zm-.037-.186l.112.037c-.01-.189-.108-.288-.298-.297.009.19.014.383.223.372zM8.87 7.838c.016-.058.062-.087.148-.075.189-1.208-1.14-.056-.148.074m11.896-.817c-.017.14.084.164.075.297.189-.009.288-.108.297-.297a.277.277 0 0 0-.372 0m-6.617.148c.398.027.558-.185.52-.594-.383-.495-.978.248-.52.594m2.156-.446c.242.02.358-.088.372-.297-.065-.11-.112-.236-.298-.223-.112.105-.234.361-.074.52m3.941-.223c0-.147.202-.094.148-.297-.1-.024-.142-.106-.297-.074-.01.184-.014.36.149.371m-1.86-.371c.018-.058.063-.087.15-.075.003-.226.043-.49-.224-.446-.189.138-.187.46.075.52m3.197-1.189c.263.249.527.755.966.595.022-.493-.188-.753-.371-1.041-.41-.064-.547.147-.595.446M5.896 3.897c.058.017.146.002.149.074.77.162.745-.97.074-.892-.259.112-.386.5-.223.818M7.606.105c.167.323-.012.658-.223.818-.956.125-.588-1.32.223-.818" fill="white" fill-rule="nonzero"/></svg>