<svg xmlns="http://www.w3.org/2000/svg" width="144.358" height="244.889" viewBox="0 0 38.195 64.794"><path d="M23.21 19.42l-.116.353-.082.241a.058.058 0 0 0 .037.074.06.06 0 0 0 .075-.037l.081-.24.118-.357a.058.058 0 0 0-.038-.073.06.06 0 0 0-.075.039m-11.572-2.814c-.043.02-.114.056-.132.14a.06.06 0 0 0 .046.073.06.06 0 0 0 .072-.046c.006-.024.024-.037.067-.058a.06.06 0 1 0-.053-.109m4.222 31.618c-.23.223-.307.514-.38.795l-.137.426c-.017.051.008.117.06.133.051.017.102-.001.12-.053l.146-.456c.07-.267.137-.519.328-.704a.098.098 0 0 0-.137-.14m-1.427-4.515l-.043.253c-.028.18-.053.351-.143.51a.11.11 0 0 0 .04.148.11.11 0 0 0 .15-.04c.11-.194.14-.393.168-.586l.042-.239c.01-.06-.029-.12-.088-.131a.106.106 0 0 0-.126.085m-2.23-1.81c-.118.14-.126.308-.133.47l-.03.252c-.006.04.02.089.061.094.041.005.076-.012.08-.053l.037-.286c.007-.144.013-.28.098-.381a.074.074 0 1 0-.113-.096m-1.431-.795a.111.111 0 0 0 .049.149l.198.1a.111.111 0 0 1-.05-.15.11.11 0 0 1 .15-.05l-.198-.098a.11.11 0 0 0-.15.049m8.445-3.466a.153.153 0 0 0-.094.194c.026.074.026.16.026.253l.039.34c.01.083.078.112.162.103.083-.009.138-.115.13-.199l-.024-.245c0-.108-.001-.23-.044-.352a.153.153 0 0 0-.195-.094m-.136 1.595c-.129.163-.187.35-.245.53-.066.21-.129.409-.299.542a.112.112 0 0 0 .139.176c.224-.175.3-.417.374-.65.053-.17.103-.328.207-.459a.113.113 0 0 0-.02-.157.112.112 0 0 0-.156.018m.204-4.431a.105.105 0 0 0-.088.12 5.835 5.835 0 0 1 0 1.655.105.105 0 0 0 .208.03 5.956 5.956 0 0 0 0-1.717.106.106 0 0 0-.12-.088m-3.153.375l-.056.363c-.016.182-.031.353-.13.502a.098.098 0 1 0 .164.109c.126-.19.144-.395.162-.593l.05-.327c.007-.054-.027-.116-.08-.124-.053-.008-.101.016-.11.07m1.864 4c-.052.008-.086.061-.077.113l.06.358c.033.212.065.432.142.646a.095.095 0 0 0 .178-.065c-.07-.195-.1-.396-.131-.608l-.064-.372c-.009-.051-.056-.082-.108-.073m3.59-7.63a.1.1 0 0 0-.043.132c.056.112.07.237.086.37.022.196.046.396.201.57a.1.1 0 0 0 .147-.133c-.113-.126-.131-.28-.151-.46-.017-.143-.034-.293-.106-.436a.1.1 0 0 0-.134-.044m.044 1.323c-.025.098.04.16.138.187.098.027.205-.07.233-.168l.08-.279c-.028.098-.127.146-.225.12-.099-.027-.154-.135-.13-.234zm.166-.057c-.436.13-.788.39-1.128.64-.293.215-.57.419-.897.547a.07.07 0 1 0 .051.13c.344-.135.641-.354.929-.565.33-.243.672-.495 1.085-.618a.07.07 0 1 0-.04-.134m-8.485 2.749l-.24.178-.101.064c-.027.017-.032.05-.015.077.018.027.056.032.082.015l.092-.057.262-.196c.026-.019.025-.05.006-.075-.02-.025-.061-.026-.086-.006m.47-4.52c-.023.008-.041.002-.062-.002l.016-.03-.03.02c-.02-.008-.044-.011-.053-.036l.022.058-1.662 1.17-1.303.912a.108.108 0 0 0-.026.15.11.11 0 0 0 .152.027l1.301-.91 1.792-1.261-.02-.041-.065-.21c.018.057-.005.133-.061.153m-.294-1.092v.198a.06.06 0 1 0 .122 0v-.198a.061.061 0 0 0-.061-.061.061.061 0 0 0-.06.061m.772 3.202c-.26.303-.194.727-.141 1.068l.016.109a.108.108 0 1 0 .215-.031l-.018-.111c-.048-.312-.104-.666.091-.894a.108.108 0 0 0-.011-.152.107.107 0 0 0-.152.011M26.983 28.7a38.525 38.525 0 0 1-5.122 3.785.08.08 0 1 0 .084.135 38.662 38.662 0 0 0 5.142-3.8.08.08 0 1 0-.104-.12m-4.228-3.386a.137.137 0 0 0 .041.189c.322.208.68.374 1.027.535.52.242 1.059.492 1.482.888a.137.137 0 0 0 .187-.2c-.456-.425-1.015-.684-1.555-.935-.352-.165-.686-.32-.993-.517a.137.137 0 0 0-.19.04m2.58 1.48c-.328.668-.923 1.136-1.498 1.59-.527.415-1.072.844-1.424 1.43a.07.07 0 0 0 .025.098.07.07 0 0 0 .097-.024c.338-.564.874-.986 1.39-1.393.587-.463 1.195-.941 1.538-1.637a.07.07 0 0 0-.032-.096.072.072 0 0 0-.096.032m1.406 1.425c-.548.27-1.127.516-1.686.755-.71.301-1.443.613-2.135.982a.106.106 0 1 0 .1.187c.683-.366 1.412-.675 2.117-.975.562-.24 1.143-.486 1.697-.76a.106.106 0 1 0-.093-.19M14.352 26.93a.102.102 0 0 0 .047.135l.178.09.22.109c.05.025.105.002.129-.047.024-.049 0-.11-.05-.135l-.206-.102-.189-.096a.096.096 0 0 0-.129.046m-.363-7.192a.207.207 0 0 0-.14.255l.166.592.267.904c.032.108.141.159.25.128.107-.032.165-.155.133-.263l-.257-.874-.17-.605a.199.199 0 0 0-.249-.137m-.45-3.151a.075.075 0 0 0-.067.075v.01c.057.426.167.858.273 1.275.152.594.31 1.208.31 1.815l-.001.044-.067.079a.076.076 0 0 0 .007.107.077.077 0 0 0 .108-.008l.102-.12v-.028c.014-.65-.152-1.3-.312-1.927-.105-.412-.214-.84-.268-1.257a.076.076 0 0 0-.086-.065m-.871-.609a.097.097 0 0 0-.05.128c.241.549.4 1.138.555 1.708.199.737.405 1.498.788 2.168a.096.096 0 0 0 .132.036.096.096 0 0 0 .036-.132c-.371-.648-.565-1.364-.77-2.122-.156-.577-.317-1.174-.565-1.736a.096.096 0 0 0-.127-.05m2.516-5.379c-.667.312-1.171.893-1.617 1.406a.124.124 0 1 0 .188.163c.45-.518.915-1.054 1.534-1.344a.124.124 0 0 0 .06-.165.125.125 0 0 0-.166-.06m1.59 6.942a.062.062 0 0 0-.062.063c.005.78.191 1.558.372 2.31.164.683.333 1.39.371 2.106a.063.063 0 1 0 .125-.007c-.038-.727-.21-1.44-.374-2.128-.18-.746-.364-1.517-.37-2.282a.064.064 0 0 0-.062-.062m-2.076 3.972a.115.115 0 0 0 .086.214 2.702 2.702 0 0 1 2.663.38.115.115 0 0 0 .142-.181 2.934 2.934 0 0 0-2.891-.413m-2.243 38.326a.059.059 0 0 0-.054.064c.014.183.093.281.212.429a.059.059 0 1 0 .092-.074c-.124-.155-.175-.223-.186-.364a.06.06 0 0 0-.064-.055m7.291-20.527a.166.166 0 0 0-.105.21c.303.916.653 1.845.99 2.742l.202.536a.166.166 0 1 0 .311-.116l-.202-.537a74.915 74.915 0 0 1-.986-2.73.166.166 0 0 0-.21-.105m1.637 8.471c-.652 5.363-1.097 11.039-1.322 16.87a.135.135 0 0 0 .129.14.136.136 0 0 0 .14-.13c.226-5.823.67-11.492 1.322-16.847a.135.135 0 0 0-.269-.033m.424-15.027a.123.123 0 0 0-.112.135c.26 2.81.218 5.876-.136 9.94a.124.124 0 0 0 .247.021c.356-4.08.398-7.159.135-9.984a.124.124 0 0 0-.135-.112m6.855-4.27c-.053.078-.045.175.033.228l.195.133.06.038a.173.173 0 0 0 .237-.053.17.17 0 0 0-.052-.236l-.063-.04-.159-.107c-.079-.054-.197-.042-.25.036m-2.786-1.803a.195.195 0 0 0-.074.265c.149.26.394.41.61.543l.215.14c.09.057.218.036.276-.054.059-.09.04-.206-.05-.263l-.237-.154c-.194-.12-.377-.232-.475-.404a.195.195 0 0 0-.265-.073m8.862-6.196c-3.085 1.142-6.225 3.379-8.84 6.299a.1.1 0 0 0 .147.132c2.595-2.897 5.706-5.115 8.762-6.246a.099.099 0 1 0-.069-.185m-9.328 6.04a.308.308 0 0 0-.309.3c0 .166.126.301.292.301h.185l.329.018c.165.009.353-.11.363-.276.01-.165-.068-.3-.233-.312l-.469-.032zm3.785-16.526c-2.294 2.648-4.158 5.53-5.697 8.81a.076.076 0 0 0 .036.102.076.076 0 0 0 .102-.036c1.533-3.268 3.39-6.138 5.674-8.776a.077.077 0 0 0-.115-.1m1.493.465c-1.73 5.388-5.142 10.234-7.921 13.855a.159.159 0 0 0 .252.193c2.794-3.64 6.226-8.516 7.971-13.951a.159.159 0 1 0-.302-.097M18.68 24.566a.13.13 0 0 0 .05.254c.982-.197 1.964-.092 2.692.285a.13.13 0 1 0 .12-.23c-.78-.404-1.824-.516-2.862-.309m-4.523-2.656c-.723.454-1.35 1.288-1.81 2.41a.067.067 0 1 0 .123.052c.314-.765.875-1.794 1.758-2.35a.067.067 0 0 0 .022-.092.067.067 0 0 0-.093-.02m-.888 6.748a.06.06 0 0 0-.02.082c.084.138.103.295.122.461.02.163.04.331.125.48a.06.06 0 0 0 .082.022.06.06 0 0 0 .022-.082c-.074-.127-.092-.276-.11-.434-.02-.172-.042-.35-.139-.509a.06.06 0 0 0-.082-.02m.17 1.127c-.261.02-.485.126-.701.228-.199.094-.386.183-.59.201a.132.132 0 1 0 .023.263c.251-.023.47-.126.68-.225.203-.096.396-.187.608-.205a.132.132 0 0 0 .121-.142.132.132 0 0 0-.142-.12m-1.638.688a5.305 5.305 0 0 1-1.46.877.094.094 0 0 0 .07.173 5.536 5.536 0 0 0 1.514-.909.094.094 0 0 0-.123-.14m-1.32-2.233c-.02.13-.066.23-.136.384l-.034.075a.143.143 0 0 0 .07.19.144.144 0 0 0 .19-.072l.034-.074c.074-.162.132-.29.159-.459a.143.143 0 1 0-.282-.044m-.153 13.325l-.06.031-.193.122.015.04c-.044 2.392.155 4.808.347 7.146.141 1.717.287 3.492.336 5.243a.096.096 0 0 0 .193-.003v-.002c-.049-1.757-.195-3.535-.336-5.255-.174-2.11-.353-4.287-.353-6.447 0-.21.002-.42.005-.628l.073-.043.065-.035a.094.094 0 0 0 .04-.13.098.098 0 0 0-.132-.04m.737.268a.115.115 0 0 0-.112.119c.01.343.145.65.425.965a.115.115 0 0 0 .173-.153c-.246-.277-.359-.53-.368-.82a.115.115 0 0 0-.119-.11m2.104 3.457c-.49 1.394-.695 2.937-.895 4.43l-.249 1.733a.087.087 0 0 0 .073.1.085.085 0 0 0 .097-.072l.25-1.74c.198-1.483.402-3.017.887-4.393a.086.086 0 0 0-.053-.11.086.086 0 0 0-.11.052m-.127 13.85l-.058.369c-.027.215-.052.417-.137.61a.061.061 0 0 0 .032.081.06.06 0 0 0 .08-.031c.092-.21.12-.431.147-.645l.056-.358c.005-.034-.018-.068-.05-.074-.034-.005-.065.014-.07.047M9.58 40.988c-.22.002-.356.02-.427.057a.068.068 0 0 0-.03.091.069.069 0 0 0 .092.03c.035-.018.127-.04.366-.043a.068.068 0 0 0-.001-.135m-1.263.899a4.2 4.2 0 0 1-.872.776.095.095 0 0 0 .106.158 4.408 4.408 0 0 0 .912-.811.096.096 0 0 0-.011-.135.096.096 0 0 0-.134.012m-1.7 1.49c-.252.522-.708.911-1.148 1.289l-.328.285a.132.132 0 0 0-.012.187.136.136 0 0 0 .19.012l.323-.28c.462-.396.939-.805 1.215-1.376a.134.134 0 0 0-.062-.179.135.135 0 0 0-.179.062m-1.022-7.073c-.217.046-.39.183-.557.316-.138.11-.28.223-.447.283a.092.092 0 0 0 .062.174c.195-.07.35-.194.5-.313.157-.125.305-.243.48-.279a.092.092 0 1 0-.038-.18m.376-2.535c-.13.243-.28.472-.514.492a.1.1 0 0 0-.092.108.1.1 0 0 0 .108.092c.33-.028.52-.304.676-.599a.1.1 0 1 0-.178-.093M27.708.163l-.041.012c-4.983 1.374-6.49 6.884-6.239 11.582a.103.103 0 0 0 .206-.01C21.387 7.127 22.857 1.714 27.721.373l.042-.012c.483-.133 1.03-.28 1.639.038.163.29.233.59.233.896 0 .649-.294 1.324-.581 1.983l-.281.677a.096.096 0 0 0-.008.038.102.102 0 0 0 .065.093.106.106 0 0 0 .136-.059l.278-.667c.426-.98.91-2.091.325-3.093l-.015-.025L29.53.23c-.695-.377-1.294-.212-1.822-.066M14.39 33.37c.222-.108.174-.487.397-.595-.062-.236-.433-.162-.298-.595-.294.179-.515.584-.297.992l.148.05zm5.553 6.149a16.045 16.045 0 0 0-.496-1.29l-.115.149-.182-.05c-.135.262-.117.677-.198.992l.215-.017-.017.216c.305-.07.19-.07.496 0l.148-.05zm1.687 3.173c-.19.186-.25.01-.497 0l-.148.05-.15-.05c.913 1.075-.015 2.36.1 3.669.043.493.475 1.034.397 1.488l.181-.05.116.149c.927-.222 1.806-.528 1.984-1.29.426-1.823-1.926-2.13-1.786-3.867l-.148.05zm7.239-13.884c1.22.763 2.31 1.657 3.966 1.983.543.792 1.14 2.337 1.983 2.678 1.611.651 3.236-.53 3.173-1.884-.105-2.324-3.512-2.013-5.255-1.29-1.22-.532-2.335-1.168-3.57-1.685l-.13.129zm-2.281-1.289c.176.133.306.574.099.793h.099v.1c-.022.188.112.218.099.396l.149-.05.05.15c.319-.395 1.079-.527 1.586-.199l.13-.129.167-.069c-.529-.767.15-.831.496-1.19.218-.226.652-.559.298-.694-1.026.228-1.754 1.55-2.975.694l-.05.148zm8.23-6.842c.551 1.424-1.504 2.499-.297 3.669 1.983.349 2.57-2.038 2.38-3.868-.53-.386-1.508-.234-2.182 0l.05.1zM30.952 10.66c.275-.267.312-1.33 0-1.587-.979-.085-1.372.413-1.785.893l.083.082.016.116c.305-.414 1.165-.352 1.389.1v.297l.181-.05zm-15.668.198h.099c.504.011.88.062 1.09.199.266.171.625.88.695 1.289.255 1.483-.694 1.81-.992 2.677-.41 1.193.05 1.782.496 2.579h.1v.099c.853-.258 1.945-1.309 1.685-2.975-.065-.412-.476-.884-.595-1.389-.227-.96-.104-1.807-.397-2.28-.457-.74-1.982-.981-2.38-.397l.149.05zm-2.48 5.256c.714-.972 1.145-2.227.992-4.066l-.149.05-.05-.149c-1.07-.02-.8-1.381-1.883-1.388-.52.414.057.85.099 1.487.05.774-.467 1.639-.397 2.48.06.729.48.905.595 1.586h.595l.1-.05zm-.892 14.578a.706.706 0 0 0 .297-.198l-.05-.15.05-.148c-.197-.001-.126-.27-.396-.199.071.303-.102.362-.1.596l.15-.05zm.099 11.9c-.115.083-.266.13-.496.099l-.05.149-.148-.05c.111.418.607.451.694.892-.047-.41.464-.263.694-.396.014-.41-.638-.155-.496-.694l-.099.05zm2.826-15.42l-.148.049c.021.111.11.154.198.198-.019.147-.24.091-.397.1v-.397l-.05-.15.15-.05c-.284-.839-.717-1.53-.695-2.676.125-.04.203-.128.199-.298.262-.001.583.055.595-.198.076.022.195.003.198.1.268 1.062 1.214 2.53.297 3.37-.155-.042-.084-.312-.396-.198zm-1.735 32.08c.059-.74.497-1.619.595-2.578.097-.947-.329-2.113.397-2.678 1.958.029 2.531-.767 2.28-2.182-.138-.78-1.094-1.29-.793-2.28l-.148-.05-.05-.149c-.053.67-.525 1.125-1.19.893-.229-1.86-.155-4.245.297-5.753l-.148.05-.05-.148c-.517.053-.504-.422-.496-.893.117-.114.35-.112.595-.099v.297l.149.05.05.15c.113-.538.769-.37 1.19-.2.33 1.009-.147 2.08-.1 3.075.026.554.31 1.11.1 1.487l.148.05-.05.149c2.11.088 3.232-1.05 3.273-2.579.037-1.39-1.194-2.999-.893-4.363.084-.378.286-.584.496-.992l-.149-.116.05-.182c-.173.008-.308-.021-.397-.098l-.05.148-.148-.05c.12.823-.475 1.158-.991 1.092-.935-.121-1.25-2.508-1.091-4.066.055-.55.402-.892.198-1.19l-.149.05-.049-.15c-.768.108-.234-1.416.099-.694l.149-.05.049.15c.116-.017.108-.157.1-.298.388.098.575-.22.793 0 .818 1.118.142 3.123.793 4.363l.05-.148.148.049c.225-.734-.034-1.951.397-2.48.491.071.38.746.595 1.092l.116-.149.181.05v-1.29l-.148.05-.05-.149c-.727.018-.825-1.457 0-1.388l.05-.149.148.05c-.032-.43.137-.657.397-.794l-.05-.099-.049-.099c-.121-1.444.82-1.823 1.587-2.38.1 0 .118.08.198.1l.1-.05.098.05c-.006-.999.805-1.18 1.389-1.587l-.15-.05.05-.149c-.172.008-.308-.022-.396-.099l-.149.05-.05-.149c-.8.623-1.484-.347-1.586-1.09-.187-1.353.996-3.224 2.082-3.075l-.05-.149.15-.05v-.793l-.13-.129-.069-.168c-.315.312-.78.477-1.29.595l-.048.149-.15.05c.614 1.996-3.121 2.133-2.578-.2l-.05-.148.05-.149c-.876-.412-.846-1.732-1.19-2.677l-.05.149-.148.05v.594c-.81.098-2.707-.051-2.48-.991l-.148-.05.05-.149c-.021-.111-.11-.154-.199-.198l-.115.149-.182-.05v.298c-.14.025-.113.217-.198.297h.099v.1h.198c.418.621-.37.791-.496.99-.264.42-.308.903-.595 1.29-.371.058-.563.299-.793 0h-.1v-.099c-.503 1.194-.802 2.086-1.289 3.173.886-.38 1.668.768 2.182 1.388v-.099h.1c.228.102.205.456.197.794H13.5l.049.148-.149-.05c0 .1-.08.119-.099.2l.149.115-.05.182h.1l.049-.149.05.149c.26.029.078-.385.396-.298.265.276.206.783.1 1.19.005.105.127.078.099-.1.297.01.105.17.297.497.227.387.896.823.992 1.289.212 1.03-.706 2.655-1.19 1.487l-.05.15-.148-.05c.03.54-.306.555 0 .892-.145.505-.649 1.107-1.091.992.005-.127.127-.138.099-.298h-.099v-.099c-1.365.234-2.017-1.085-2.082-2.479l-.15-.05.05-.148h-.297c-.022-.078-.083-.116-.199-.1-.2-.47-.097-1.213.199-1.487l-.149-.05.05-.148c-.006-.06-.015-.118-.1-.1-.03-.854.119-1.606.298-2.479l-.182.05-.116-.149c-.744.828-1.09-.375-1.983-.099-.59.182-.769 1.165-.595 1.984.106.497.457.655.595.99.515 1.254-.638 1.672-1.29 2.183.298 1.414-.937 1.55-.892 2.479.016.312.503.968.893 1.19.365.208.925.128 1.289.297 1.114.517 1.876 1.673 1.388 2.777.108.454.563.562.496 1.19l.15.05-.05.149c.438.075.078-.65.595-.496l-.05-.15s.148-.049.743-.446c-.012.318-.224.437-.595.397l.05.15-.148.049c.136.313.021.331 0 .694l.148-.05.149.05c.264-.105.918-.76.892 0l.15-.05-.05.148c.316.086.306-.155.496-.198.78.817.702 2.214.396 3.471l.149-.049-.05.149h.298c.458 1.302.06 3.187-.199 4.363-.183.837-.471 2.044-1.09 1.586l-.1.05-.099-.05c.13.788.316 2.148-.297 2.876-.209.31-.55-.087-.595.298-.217 1.307-.12 2.983.198 4.066.512.115 1.24.016 1.686.198v.298h.099zm-.446 1.04l-.15-.049c.077.288.158.57.397.694.154-.144.088-.507.1-.793h-.1v-.099c-.126.005-.137.127-.297.099zm-.942-6.594h.198v-.198h-.198zm-9.62-2.975c.001-.197.271-.126.199-.397a.464.464 0 0 1-.297-.098c.053.144-.117.512.098.495m9.719-2.181c-.001-.145.037-.812-.1-.496.002.145-.037.811.1.496m-9.123-1.29c.005-.06.014-.117.099-.099-.012-.12-.03-.234-.199-.198.015.117-.017.282.1.297m.793 1.19c-.323-.588.246-1.05.495-1.388.476.341.133 1.499-.495 1.389m1.785-3.57c-.407.188-.673.517-1.19.595.105-.005.251.046.099.099-.203.095-.393.202-.595.297-.047.675-.826 1.233-.793 2.083.02.524.611.84.396 1.487 1.999-.15 1.952-2.345 2.182-4.264l-.134-.12zm2.28-2.281a.836.836 0 0 0-.892.099c-.153.144-.087.507-.099.793l.182-.05.115.149a3.583 3.583 0 0 0 .793-.793l-.148-.05zm1.637-1.488l.05-.1c-.577.086-.908.416-.992.993l.148-.05.05.148c.378-.184.71-.413.794-.892zm-7.587-3.372h.199v-.396h-.199zm3.025-.743l.05-.15c-1.3.762-1.55-1.158-2.38-1.982-.793-.787-2.447-.867-2.281.892.07.751.848 1.262 1.388 1.785.17-.16.039-.623.397-.595.21.353.326.798.694.992 1.108.05 1.708-.408 2.28-.893zm33.568-3.52c-.012-.166.054-.899-.099-.596.012.165-.054.899.1.595m-24.297-1.388c.027-.135-.061-.387-.1-.198-.026.135.062.387.1.198m8.528-10.314c.08-.185.166-.363.199-.594-.304.072-.292-.172-.595-.1-.003.367.044.683.396.694m-9.221-.297c.258.028.425-.036.395-.297-.126-.006-.137-.127-.297-.1-.031.134-.141.19-.099.397m-6.248.199c.299-.1.176.22.199.396-.175-.024-.226-.17-.199-.396m3.471-3.471c-.885.172-1.796-.103-2.479.198-.723.32-1.63 1.472-1.785 2.182a2.141 2.141 0 0 0 0 .694c.095.62.184 1.456.297 1.983.06.278.314.61.397.893.373 1.265.405 2.748 1.29 3.173.66.009 1-.584 1.388-1.091.347-.454.864-.965 1.09-1.487.64-1.476.834-4.139.298-5.653-.126-.391.289-.24.298-.496-.57.172-.374-.419-.794-.396m-1.19-3.372c.16-.276-.428-.274-.396-.1.187-.022.218.112.396.1m19.834-10.81c-.293 1.334-1.454 2.63-2.083 4.166-.528 1.29-.653 2.59-1.686 3.372-.404.305-.92.363-1.388.594-.394-1.622.265-2.717 1.19-3.57.459-.422 1.084-.584 1.488-.991 1.088-1.097 1.3-2.517 2.181-3.769l.1.174z" fill="white" fill-rule="evenodd"/></svg>