<svg xmlns="http://www.w3.org/2000/svg" width="244.889" height="212.729" viewBox="0 0 64.794 56.285"><path d="M22.792 29.575a.04.04 0 0 0-.025.051c.065.192.18.338.3.491l.027.035a.04.04 0 0 0 .057.006.04.04 0 0 0 .007-.056l-.027-.034c-.116-.148-.227-.289-.288-.468a.04.04 0 0 0-.051-.025m1.368 1.25a.048.048 0 0 0-.014.067c.074.116.197.17.316.22l.208.112c.023.013.06.009.072-.014.012-.024.01-.048-.012-.06l-.23-.125c-.111-.048-.215-.093-.274-.185a.048.048 0 0 0-.066-.015m15.293-9.616a.03.03 0 0 0 0 .042l.075.075c.094.093.19.188.24.302a.03.03 0 0 0 .04.015.03.03 0 0 0 .015-.04c-.054-.123-.156-.223-.253-.32l-.074-.074a.031.031 0 0 0-.043 0m-3.913-4.053a.032.032 0 0 0-.012.043l.018.03.043.091c.008.017.029.029.045.02.016-.007.025-.021.017-.037l-.05-.107-.017-.028a.033.033 0 0 0-.044-.012m-1.984-2.061a.034.034 0 0 0-.024.042c.018.063.065.105.107.143.038.035.075.068.085.112a.035.035 0 0 0 .041.027.035.035 0 0 0 .026-.041c-.015-.066-.062-.108-.107-.149-.038-.034-.074-.066-.086-.11a.033.033 0 0 0-.042-.024M8.082 8.755a.046.046 0 0 0 .032.058c.443.122.895.289 1.332.45l1.108.384a.045.045 0 0 0 .057-.028.047.047 0 0 0-.03-.06l-1.103-.384c-.44-.16-.893-.328-1.34-.451a.046.046 0 0 0-.056.032M5.097 7.698a.044.044 0 0 0 .022.086c.088-.023.16.013.246.057.079.04.16.081.26.072a.045.045 0 0 0 .04-.047.044.044 0 0 0-.047-.04c-.075.006-.142-.028-.214-.064-.087-.045-.187-.095-.307-.064m-2.15-.751a.047.047 0 0 0 .017.064 2.262 2.262 0 0 0 .722.262.047.047 0 1 0 .017-.092 2.166 2.166 0 0 1-.692-.252.048.048 0 0 0-.064.018m45.707 18.13a.072.072 0 0 0 .013.143 9.153 9.153 0 0 1 2.23.064.071.071 0 0 0 .082-.06.071.071 0 0 0-.059-.081 9.267 9.267 0 0 0-2.266-.065m-1.461-.31a.08.08 0 0 0-.006.115c.23.253.594.316.952.347a.081.081 0 1 0 .015-.162c-.326-.028-.654-.084-.847-.295a.081.081 0 0 0-.114-.005m7.969-1.133c-.002.028.012.052.04.054l.17.014c.1.002.206.003.25.063a.05.05 0 1 0 .08-.06c-.073-.1-.209-.103-.329-.105l-.149-.011c-.028-.002-.06.018-.062.045m-3.966-.125c-.007.054.024.102.079.109l.157.02.16.022c.054.007.114-.029.122-.083.007-.054-.02-.102-.075-.11l-.19-.027-.135-.017c-.055-.006-.112.03-.118.086m-11.187-.855a.069.069 0 0 0-.01.096c.267.33.665.548.984.724a.069.069 0 0 0 .067-.12c-.31-.17-.694-.382-.944-.69a.068.068 0 0 0-.096-.01m-10.071-.171c-.018.051.016.108.068.126l.15.051c.1.038.203.077.32.08a.098.098 0 0 0 .008-.195.809.809 0 0 1-.258-.068l-.17-.057c-.052-.018-.1.012-.118.063m-1.289-.408a.101.101 0 0 1-.128.065l.128.042a.101.101 0 0 0 .129-.064.101.101 0 0 0-.064-.128l-.129-.043a.101.101 0 0 1 .064.128M1.455 18.91a.055.055 0 0 0 .047.063l.837.117 1.41.205a.057.057 0 0 0 .065-.048.055.055 0 0 0-.046-.063l-1.413-.204-.837-.117a.056.056 0 0 0-.063.047m5.003.75a.064.064 0 0 0 .055.07c4.847.603 9.712 1.461 14.417 2.292 3.423.605 6.963 1.23 10.442 1.744a.064.064 0 0 0 .071-.053.062.062 0 0 0-.053-.072c-3.476-.515-7.016-1.14-10.438-1.744-4.706-.831-9.573-1.69-14.423-2.292a.063.063 0 0 0-.071.055m24.344 5.005a.098.098 0 0 0 0 .197h.129a.098.098 0 0 0 0-.197zm-1.69 2.41a.068.068 0 1 0 .04.13.655.655 0 0 1 .407 0 .068.068 0 0 0 .087-.041.068.068 0 0 0-.041-.088.791.791 0 0 0-.493 0m-7.673.257l-.168.045-.217.06c-.063.018-.082.078-.065.14.017.063.099.094.162.077l.165-.044.221-.063c.063-.018.082-.077.064-.14-.017-.062-.1-.092-.162-.075m3.707-.396a.096.096 0 0 0-.093.1.097.097 0 0 0 .1.093c1.135-.034 2.341-.058 3.52.064a.097.097 0 0 0 .02-.193c-1.19-.123-2.405-.1-3.547-.064m5.072.195c-.004.039.028.075.067.079l.465.052c.325.047.662.096.971.01a.071.071 0 0 0 .05-.087.07.07 0 0 0-.088-.05c-.28.08-.602.032-.913-.013l-.478-.054c-.04-.004-.07.024-.074.063m-2.744 5.566c-.018.028.006.073.036.09l.137.085.183.109c.03.016.053 0 .07-.03.017-.028-.007-.072-.036-.09l-.14-.086-.18-.107c-.03-.017-.053 0-.07.029m.98.633a.053.053 0 0 0-.004.076c.365.408.78.778 1.183 1.138.372.333.758.677 1.098 1.047a.054.054 0 0 0 .079-.073c-.343-.374-.731-.72-1.106-1.055-.4-.357-.813-.726-1.174-1.13a.054.054 0 0 0-.076-.003m3.76 3.61a.112.112 0 0 0-.025.157c.404.554.843 1.102 1.269 1.632.431.537.878 1.093 1.288 1.657a.113.113 0 0 0 .157.025.113.113 0 0 0 .024-.157 43.965 43.965 0 0 0-1.295-1.666 44.771 44.771 0 0 1-1.261-1.623.112.112 0 0 0-.157-.024m23.639-2.327l-.03.069c-.053.12-.106.242-.204.292a.097.097 0 0 0 .087.174c.161-.082.232-.245.294-.389l.028-.065a.099.099 0 0 0-.048-.129.096.096 0 0 0-.127.048m-1.355-12.532l-.35.03c-1.123.099-2.395.21-3.295.909a.09.09 0 0 0-.015.126.09.09 0 0 0 .126.016c.857-.666 2.102-.774 3.2-.87l.35-.032a.09.09 0 0 0 .082-.098.09.09 0 0 0-.098-.081m-8.111 1.639a.102.102 0 0 0 .068.193c1.025-.364 2.113-.386 3.232-.377a.102.102 0 1 0 .002-.204c-1.137-.01-2.246.013-3.302.388m-8.004-1.994a.065.065 0 0 0 .048.079c.192.047.349.163.515.285.156.115.316.233.51.292a.065.065 0 1 0 .038-.124c-.172-.053-.317-.16-.47-.272-.17-.125-.345-.254-.562-.307a.066.066 0 0 0-.079.047m-2.241-1.558a.066.066 0 0 0 .024.09c.585.335 1.066.623 1.464 1.017a.065.065 0 0 0 .093 0 .065.065 0 0 0-.001-.093c-.41-.405-.897-.698-1.49-1.039a.066.066 0 0 0-.09.025M19.24 8.884a.093.093 0 0 0 .015.132c3.402 2.684 7.148 5.054 10.77 7.347l3.425 2.183a.094.094 0 0 0 .129-.028.092.092 0 0 0-.028-.128l-3.427-2.185c-3.618-2.29-7.359-4.658-10.753-7.335a.093.093 0 0 0-.13.015M1.65 7.489a.058.058 0 0 0 .026.078c2.748 1.38 5.595 2.677 8.347 3.932 1.939.884 3.943 1.797 5.905 2.736a.057.057 0 0 0 .078-.028.058.058 0 0 0-.028-.077c-1.963-.939-3.968-1.853-5.907-2.737-2.751-1.253-5.596-2.55-8.344-3.929a.057.057 0 0 0-.077.025m.048-.887c-.008.02.005.044.025.051l.106.043c.08.035.162.072.265.055a.038.038 0 0 0 .031-.045.039.039 0 0 0-.044-.031c-.08.013-.149-.018-.22-.05l-.116-.046c-.02-.007-.04.003-.047.023m20.432-2.946a.07.07 0 0 0 0 .1l2.904 2.831c2.284 2.21 4.646 4.497 6.807 6.854a.07.07 0 0 0 .1.004.07.07 0 0 0 .005-.1c-2.164-2.36-4.527-4.648-6.813-6.86l-2.902-2.83a.072.072 0 0 0-.101.002m3.572 27.977a.067.067 0 0 0 .022.091 1.925 1.925 0 0 0 .366.167.067.067 0 0 0 .045-.125 1.786 1.786 0 0 1-.341-.155.067.067 0 0 0-.092.021m30.613-7.779a.054.054 0 0 0 .043.063c.695.125 1.422.103 2.124.081l.905-.016a.055.055 0 0 0 .054-.055.053.053 0 0 0-.054-.053l-.909.017c-.696.02-1.416.043-2.1-.08a.055.055 0 0 0-.063.043m-43.36-13.25c-.015.028-.01.06.02.076l.16.087c.074.035.144.07.195.12a.059.059 0 0 0 .083 0 .059.059 0 0 0 0-.084.776.776 0 0 0-.227-.142l-.145-.079c-.029-.016-.07-.008-.085.021m10.105 19.524c.19.474.52.808 1.156.835l-.032-.096.096.031v-.449c-.453-.06-.692-.335-1.156-.385v.064zm-.257-.514h.064c.126-.145.056-.483 0-.642-.152.001-.189-.11-.385-.065-.308.283-.007.735.32.771zm10.15-15.095c-.058-.087-.31-.337-.257-.258.134.202.297.318.257.258M11.692 10.02c.424.112-.52-.164 0 0M7.131 8.415c.513.167-.428-.193 0 0m40.983 16.83c.166.285.442.104.643-.064l-.096-.032.032-.096h-.579l.033.096zM6.617 19.592c-.896-.217-1.735-.491-2.89-.45l.032.097-.096.032c.78.354 1.843.426 2.89.514l-.032-.118zm24.218 5.075c-.357-.63-.68.548 0 .193l-.032-.097zm-9.7 2.762c-.84-.138-1.277.543-1.991.771-.637.203-3.057.22-3.148.899-.04.292.469.73.642.836.74.448 2.311.599 2.956 0 .25-.56.002-1.123.256-1.542.282-.463.973-.39 1.35-.771l-.097-.075zm4.047-.514c-.32-.086-.868.054-.963-.257-.41.214-.917.214-1.414.321-.48.104-1.009.21-1.413.386l.096.075-.032.117c1.241-.172 2.643-.183 3.79-.45l-.096-.074zm3.983.129c-.048-.145-.36-.025-.514-.065l.032.118-.096.074a.397.397 0 0 0 .642 0l-.096-.031zm1.22.064c-.103-.176.032-.274-.128-.45-.398-.033-.242.487-.707.386l.032.096-.096.032c.092.144.206.264.32.385.278 0 .237-.32.515-.32l-.032-.097zm-2.762 5.589c-.002-.234-.189-.283-.45-.258.023.234.152.363.386.386l-.032-.096zm.964.706c.196-.133.004-.417.063-.77-.412-.07-.554.13-.834.192l.032.096-.097.032c.15.278.303.554.771.514l-.032-.096zm3.79 3.661c-.106-.686-.628-.956-.964-1.412-.114.13-.413-.099-.578-.13l-.064.033-.065-.032c-.022.32-.176.508-.128.899.218.575 1.055.53 1.67.707l.032-.096zm23.318-2.12c-.352.013-.812-.084-.77.322.098.472.8.207.834-.128l-.096-.075zm-6.102-11.433c.503.118 1.186.055 1.734.128l-.032-.118.096-.075c-.139-.118-.455-.06-.386-.385l-.096.032-.032-.096c-.285.23-.614.414-1.22.321l.031.118zm-10.214-1.157c.166.197.352.376.642.45l.032-.096.096.031c-.017-.217.05-.52-.064-.642-.324-.067-.367.147-.643.129l.033.096zm-1.799-1.156c-.032.353.045.597.193.77.305.028.525-.03.706-.127l-.032-.097.096-.032c-.177-.293-.528-.414-.834-.578l-.033.096zM19.4 8.865c-.243-.393-.68-.422-.963-.835-.204-.3-.207-.735-.45-1.028-.55-.667-1.888-.904-2.12.063-.25 1.048 1.148 1.692 2.441 1.35.367.19.627.487 1.028.642l-.023-.114zM1.737 7.45c-.313-.106-.493-.712 0-.77v-.065H1.8C1.3 6.426.614 5.896 0 6.231c.061.966 1.154.902 1.735 1.349l-.033-.064zM30 22.42c-.266-.334-.865-.334-1.35-.45l.033.117-.096.076c.003.039.01.076.063.063-.028 1.353.909.953 1.414.387l-.032-.097zm18.757 9.764c-.308-.004-1.003-.143-1.349-.321.067-.839 1.753-.54 1.35.32m3.725.708c-.283-.564.204-.743.193-1.286-.01-.44-.4-.71-.386-1.091.044-1.26 1.908-.681 2.762-.322 1.054.444 1.792 1.145 2.955 1.67.676.306 1.303.485 1.285 1.029-.022.674-.813.847-1.542.641-1.1-.31-1.365-1.783-2.505-1.027-.02.013.102.09 0 .128-.082.03-.524.458-.77.514-.701.16-1.224-.263-1.992-.256m1.285-7.002c.116.807-1.117.93-1.863 1.156-.59.177-1.734.537-2.377.193-.068-.037-.084.05-.193 0-.328-.152-.882-.476-.963-.9.371-.368 1.281-.507 1.99-.578a12.452 12.452 0 0 1 3.406.129M31.38 23.703l-.032.065c.224.418-.15.791-.45.899l.032.096-.032.097c.143.264.522.291.707.514-.08.383.297.558.32.899.025.355-.17.564-.32.899l.096.032-.032.097c.339.265.06.615.514.835.295.143.694-.076 1.028 0 .31.07.62.203.578.578-.046.404-.492.235-.642.642.27.286.688.138 1.028.193 1.062.17 2.093.516 2.697 1.092.057.234-.113.342 0 .45.265.008.403-.112.707-.065.815.382 1.542 1.001 1.284 1.927-.094.343-.604.838-.963 1.285-.35.436-.841.765-1.156 1.156-.322.4-.546.94-.835 1.156-.233.175-.76.217-.771.514.346.683 1.64.654 2.313.386.38-.152.79-.656 1.091-1.028.318-.39.499-1.12 1.029-.963-.542 1.203-1.526 2.642-2.185 3.982-.389.792-.492 1.84-1.734 1.607-.277-.259-.474-.598-.771-.836l-.045.11-.083.083c.128.371.444.8.706 1.285.271.5.493 1.039 1.028.963.568-.08.659-1.3.964-2.055.786-1.952 1.715-3.366 2.697-4.946.227-.365.362-.784.579-.964.607-.509 1.133-.231 1.734-.064.155-.263-.109-.318-.064-.643.225-.566.73-.853 1.477-.9.238-.413.223-1.261.9-1.412.6-.134 1.205.171 1.67.321 1.802.58 3.916 1.028 5.91 1.35 1.524.244 2.963.326 3.468 1.348l.118-.032.075.096c.32-.69 1.638-.692 2.44-.385.154.058.226.23.386.32.148.083.364.118.514.193.89.45 1.98 1.179 3.02 1.286 1.797.183 3.144-1.403 1.991-2.7-.448-.502-1.302-.579-2.184-.834-.055-.753-.467-1.282-.321-1.863.107-.425.679-.63.514-1.22-.676-.752-1.769-.205-2.698-.064-1.192.18-2.415.029-3.533.063-.138-.244-.393-.369-.386-.705.01-.472.723-.801 1.027-1.093.595-.57 1.11-1.578 1.992-1.927.305-.12.688-.08.964-.193.792-.322 1.42-1.103 2.12-1.413.3-.684-.069-1.204-.579-1.477-1.4-.75-4.953-.713-6.873-.643l.096.076-.032.117c2.171-.029 4.14.141 5.718.707.171.52.027.823 0 1.349-.395.229-1.079.887-1.607.9-.324.006-.444-.182-.706-.322-.214-.114-.521-.151-.643-.385-.783.134-1.485-.352-2.055-.643a.302.302 0 0 1 .064-.193l-.032-.064.032-.064c-1.33.223-2.34-.04-3.662-.129l.033.118-.097.075c1.457.34 3.4.411 4.561 1.22-.278 1.204-1.649.6-2.89.515-1.534-.105-3.104.033-4.176.32-.611.165-1.129.483-1.606.579-.584.117-1.358.019-1.798-.129-.374-.124-1.11-.675-1.092-1.156.02-.545.648-.85 1.284-.77.6.074.82.74 1.413.706l.032-.096.097.031c.025-.624-.73-.468-.835-.963l-.088-.078.024-.115c-.205.01-.283.146-.514.129-.254-.518-.489-1.053-.835-1.478.073-.27.362-.322.257-.77-.196-.215-.305-.12-.578-.258-.562.193-.362.842-.771 1.093-.449.274-.863-.119-1.478-.129-.395-.007-.69.223-1.092.193-.225.203-.179.677-.45.835l.032.096-.095.032c0 .065.051.077.063.129.027.554-.464.82-.835.835-.573.021-.864-.503-1.156-.77-.367.112-.51.69-.963.513.114-1.017-.184-1.77-1.35-1.67-.397.266-.027 1.3-.642 1.349-.228-.008-.259-.213-.257-.45-.17 0-.367.025-.45-.064-.317-.314-.092-.726-.064-1.092.019-.237-.087-.47-.064-.707.062-.631.552-.962 1.028-1.22l-.032-.096.096-.033c.044-.374.044-.515-.064-.835-.615-.306-1.275-.567-1.8-.963-.292-.036-.27.242-.577.193-.152-.02-.12-.224-.321-.193l-.032.096-.096-.032v.129c-.273.177-.523.376-.514.834-.226.182-.498.316-.707.514-.097.424-.127.752-.45.835-.804.207-1.13-1.226-1.413-1.734-1.073-.139-.985-1.642-1.991-1.606-.915.033-.745 1.303-1.35 1.863-1.054-.445-2.273-.725-3.34-1.156-.05-.265.099-.33.065-.578-.683-.874-1.722-1.294-2.955-1.606-1.709-.433-3.352-1.308-4.818-1.863l.023.114-.087.078c.677.373 1.576.823 2.505 1.285 1.169.582 2.65 1.106 2.312 2.762.637.725 1.606 1.067 2.505 1.542.433.229.843.497 1.285.707.448.212 1.048.28 1.285.77.01-.14.162-.137.321-.128.796.36 1.555.758 2.506.964l-.032-.118.096-.075c-.353-.376-.815-.406-1.35-.578-1.802-.58-3.32-1.56-4.817-2.441.074-.316.462-.64.707-.578 1.036.257 2.829.924 3.918 1.22.054.074.085.172.064.321.24-.005.184-.072.386 0 .34.41.76.74 1.028 1.22 1.139-.06 2.03.444 1.99 1.35-.063 0-.075.052-.128.064l.033.096.032.097c.403.174.85.306.835.9zM22.182 3.707l.11-.046c-.323-.464-.865-.907-1.286-1.541-.256-.388-.36-.875-.642-1.22-.316-.389-1.071-.907-1.541-.9-.577.007-.934.453-.836 1.028.201 1.166 1.621 1.108 2.57 1.541.754.345 1.004.96 1.542 1.22zm7.946 52.115c-.007.257.198.526.707.45.524-.711-.686-1.152-.707-.45m-.706-3.084c.088.17.235.278.514.258.5-.447-.52-.968-.514-.258m17.857-2.762a.3.3 0 0 1 .065-.192c-.095-.034-.162-.096-.257-.129-.125.124-.067.393.193.321m-18.95-.192c.137.14.311.244.642.192a.922.922 0 0 0 .193-.45c-.133-.424-1.005-.461-.835.258m-1.542-3.534c.012.435.694.722 1.028.258.156-1.034-1.046-.908-1.028-.258m3.725-2.44c.05.165.206.222.45.192.014-.05.002-.127.065-.129.009-.315-.504-.46-.514-.063m-4.882-.193c.05.014.126.002.128.063.484-.003.807-.575.514-.963-.563-.063-.831.415-.642.9m16.958-1.35c.03-.2-.137-.204-.32-.192-.073.26.197.318.32.193m.321-.193c.018-.146-.015-.242-.128-.257-.101.095-.071.287.129.257m-9.957-.578h.321c.014-.05.002-.127.064-.128.005-.219-.189-.24-.32-.321-.187.123-.211.268-.065.45m12.783-.772a.3.3 0 0 1 .064-.193c-.122-.027-.116-.183-.321-.128-.027.22.02.366.257.32m-4.497-.384c.02-.17-.089-.21-.257-.193-.048.226.168.287.257.193m-11.113.064c.069.302.665.442.835.128.07-.98-.964-.699-.835-.128m9.25-.514c-.052.34.314.39.45.193.025-.24-.292-.332-.45-.193m-13.361-.193c-.023.316.211.446.45.321.083-.33-.241-.483-.45-.32m16.766.128c.014-.072.072-.1.129-.129-.009-.205-.146-.282-.386-.257-.102.206.009.365.257.386m-19.464.192c.017-.09.141-.073.193-.128v-.321c-.473-.517-.878.456-.193.45m35.138-.514c.087.02.123.09.257.064.048-.22-.245-.25-.257-.064m-8.35-.065c.086-.148.257-.213.192-.514-.537-.858-1.373.643-.193.514m-8.415-.578c.03-.201-.056-.286-.257-.256-.03.2.056.286.257.256m-18.693-.45c-.097.363.293.48.514.322.097-.362-.294-.479-.514-.321m-7.259-.579h.129v-.128h-.129zm39.056.642c.157.733 1.518.85 1.607-.063.064-.67-.48-1.085-1.157-.835-.462.17-.54.477-.45.899m-33.789-1.156c-.019.169.09.21.258.192.017-.168-.024-.276-.193-.257-.004.04-.01.077-.065.065m12.399-.964c-.057-.05-.184.04-.193.064-.091.243.32.047.193-.064m-3.92.064h.13v-.128h-.13zm14.711 1.285c.13 1.435 2.484 1.52 2.634.064.119-1.148-.726-1.61-1.477-1.477-.751.132-1.237.526-1.157 1.413m-3.855-1.67h.193c.018-.147-.015-.242-.128-.258-.02.088-.092.124-.065.258m16.124-.385c.085.083.239.084.257-.065-.085-.083-.239-.085-.257.065m-15.032-.707c-.122-.027-.116-.184-.32-.129-.074.359.273.373.32.129m.578.45c.19.004.155-.025.321-.13-.012-1.235-1.163.112-.32.13m12.076-.964c.012.27.243.389.386.193.015-.216-.239-.332-.386-.193m-19.978.385c.014-.072.072-.1.129-.128.03-.202-.092-.251-.129-.386h-.385c-.143.278.024.555.385.514m16.573-.514c.086.084.24.085.258-.064-.086-.083-.24-.084-.258.064m-13.875-.064c.014.289.438.43.707.257.014-.05.002-.127.064-.128.021-.448-.72-.639-.77-.129m9.828-.32h.192c.012-.141-.053-.205-.192-.194zm-22.548-.065c-.052.389.284.533.578.385.13-.502-.336-.616-.578-.385m11.756-.9c-.133.498.463.655.707.386.079-.47-.431-.652-.707-.386m-10.985.129c.082.088.303.088.385 0-.043-.15-.115-.27-.32-.257.014.122-.073.141-.065.257m.193-.964c.107.085.215.17.45.128.008-.158.01-.309-.065-.384-.24-.026-.377.05-.385.256m5.589-.385c-.016.216.238.331.385.192.014-.121-.072-.141-.064-.256-.15-.021-.247.01-.321.063m-4.53.098l-.096.031c.078.308.374.398.771.385-.062-.343-.297-.516-.706-.513zm1.51-.29c-.233.304.376.086 0 0m.642-.193c-.025.351.436.517.643.257.03-.458-.433-.532-.642-.257m6.873.257c.319.185.727-.024.836-.257-.206-.158-.396-.333-.771-.321-.13.086-.194.43-.065.578m-1.542-.385c-.2-.077-.16-.396-.513-.321-.319.853-1.688 1.132-1.8 2.248-.095.967.68 1.668 1.607 1.542 1.08-.147 1.395-1.61 2.313-1.863-.102-.37-.136-.806-.257-1.156-.432-.168-.814-.386-1.35-.45m-4.882-.321c.004-.11-.049-.165-.128-.193-.092.094-.095.249.128.193m-2.955-.129c.111.004.165-.049.193-.128-.1.006-.222-.008-.193.128m4.304-.192c-.384.065-.388.51-.385.963.136.057.19.196.385.193.293-.179.518-1.08 0-1.156m3.148 0a1.386 1.386 0 0 0 .578.063c.827-.803-1.185-1.288-.578-.063m-2.955 0c.36.137 1.211.076 1.156-.579-.309-.618-1.568-.252-1.156.579m-3.147-.386c.028.186.135.293.32.321.306-.187.712-.273.836-.642-.263-.495-.973-.022-1.156.321m5.203-.256c.295-.836-.931-.115 0 0m-6.039-.643c-.051.39.295.043 0 0m.771-.193c-.034.291.095.42.386.386.074-.077.073-.227.064-.386-.086-.092-.364-.092-.45 0m3.083 0c.03-.201-.055-.286-.257-.256-.03.2.057.286.257.256m1.414-.321c.012.338.358.472.578.257.072-.437-.439-.559-.579-.257m-5.909-.193h.193v-.128h-.193zm-2.698-.064c.234.042.342-.043.45-.128.014-.122-.073-.142-.064-.257-.083-.089-.28-.064-.45-.065-.092.198-.03.29.064.45m7.9-.385v-.129c-.118-.213-.312.193 0 .129m-6.487.257c.001-.128.176-.082.129-.257-.049-.166-.205-.223-.45-.193-.124.239.005.473.32.45m6.682-2.056c.158.009.31.01.385-.064.067-.614-.816-.334-.385.064m-.322-.835c.122.157.322.236.45.064.018-.209-.076-.309-.257-.32-.094.055-.203.094-.193.256m-8.543-.193c.02-.17-.089-.21-.257-.193-.053.23.137.32.257.193m3.726-.321a.137.137 0 0 0 .257 0c-.175.006-.13-.107-.257 0m3.982-.579H30v-.128h-.129zm-12.975 0c.085.084.239.085.257-.063-.086-.084-.24-.085-.257.063m11.754-.256c.18-.33-.304-.158 0 0M40.47 22.29c.056-.132-.167-.288-.193-.128.092.015.108.105.193.128m-15.417-.45h.257c.054-.074.084-.172.064-.32-.076-.075-.227-.074-.385-.065-.009.158-.01.31.064.386m3.918-.129c.086.092.364.092.45 0 .02-.256-.123-.347-.385-.321-.054.074-.085.172-.065.32m14.004-.641c.033.409.404.703.771.578.067-.17.077-.395.064-.643-.177-.243-.745-.274-.835.065m-16.766-.964c.24.049.48.102.514-.193-.075-.356-.794-.172-.514.193m-.77-.514h.128c0-.064.052-.077.064-.128-.082-.004-.089-.083-.193-.065zm12.269-.128c.056-.132-.167-.289-.193-.129.092.016.108.106.193.129m-6.103.192c.001-.127.176-.081.128-.257-.048-.165-.204-.223-.449-.193-.124.24.005.473.321.45m-30.384-.834c-.094.034-.332-.076-.321.063.093-.035.331.076.32-.063m-.385-.065c-.093.035-.331-.075-.32.065.093-.036.33.074.32-.065m-.513-.064c-.412-.075-.142.196 0 0m24.602-1.606c.011-.16-.098-.2-.192-.257-.182.155.063.413.192.257m.321-.257h.129v-.128h-.129zm-6.295-2.698c.02-.087.092-.122.064-.257h-.192c-.018.146.016.242.128.257m23.768-1.991c-.014.121.072.141.065.257.148.02.246-.01.32-.065.016-.215-.238-.331-.385-.192m-28.586-.707h.257c.03-.201-.055-.287-.256-.257zm-1.092-.706c-.65.073-.887-.269-1.156-.578.461-.332 1.076.062 1.22.45l-.095.031z" fill="white" fill-rule="nonzero"/></svg>