<svg xmlns="http://www.w3.org/2000/svg" width="251.334" height="175.212" viewBox="0 0 66.499 46.358"><path d="M51.9 37.195c-.007.018-.006.034.012.04l.152.057.037.008a.035.035 0 0 0 .041-.026.034.034 0 0 0-.026-.042l-.038-.008-.127-.046c-.017-.006-.045 0-.051.017m-5.902-5.99a.039.039 0 0 0 .011.054c.716.466 1.477.761 2.192 1.01a.038.038 0 0 0 .049-.023.038.038 0 0 0-.023-.05c-.711-.248-1.467-.54-2.176-1.002a.039.039 0 0 0-.053.011m5.871-3.585a.083.083 0 0 0 .009.117c1.145.985 2.094 1.521 2.901 1.64.595.088 1.058.011 1.429-.051.263-.044.49-.082.705-.057.677.078 1.204.5 2.013 1.608.347.476.578.836.96 1.434l.386.603a.082.082 0 1 0 .138-.09l-.386-.602c-.384-.6-.615-.962-.966-1.443-.84-1.151-1.397-1.59-2.126-1.674-.239-.027-.476.012-.75.058-.38.064-.81.136-1.38.052-.775-.115-1.697-.64-2.817-1.604a.083.083 0 0 0-.116.01m-.577-.53a.014.014 0 0 1-.02 0l.178.178c.019-.019-.158-.197-.158-.197a.014.014 0 0 1 0 .02m-.79-.734a.02.02 0 0 0 0 .027l.413.415a.02.02 0 0 0 .027 0 .02.02 0 0 0 0-.028l-.413-.414a.02.02 0 0 0-.027 0m-.828-.708a.028.028 0 0 0 .006.038c.09.063.134.095.161.16a.026.026 0 0 1 .015-.035.027.027 0 0 1 .035.015c-.032-.08-.088-.12-.18-.184a.028.028 0 0 0-.037.006M5.751 11.315c-.01.018.008.043.025.052l.105.054c-.019-.01-.022-.029-.012-.046.008-.018.034-.023.052-.014l-.132-.065c-.018-.009-.029.002-.038.02M4.728 9.464c-.017.012-.026.027-.014.044l.093.136.083.127c.011.018.04.034.058.023.017-.012.027-.025.016-.043l-.1-.159-.078-.11c-.012-.018-.04-.03-.058-.018m15.797-3.666a.028.028 0 0 0-.015.037c.05.114.143.206.233.295l.068.068a.028.028 0 0 0 .04 0 .028.028 0 0 0 0-.038l-.07-.07a.976.976 0 0 1-.22-.277.028.028 0 0 0-.036-.014m14.212 18.492a.092.092 0 0 0 .035.126c.794.453 1.59.946 2.36 1.423 1.279.793 2.601 1.613 3.96 2.271a.092.092 0 0 0 .08-.166c-1.35-.654-2.669-1.471-3.944-2.262-.77-.478-1.568-.972-2.366-1.426a.092.092 0 0 0-.125.035m7.369 4.163a.094.094 0 0 0 .015.133l.234.18c.15.11.29.213.405.342a.096.096 0 0 0 .135.008.096.096 0 0 0 .008-.135c-.128-.146-.283-.26-.434-.371l-.226-.172a.1.1 0 0 0-.137.015m-2.216.78c-.02.034-.019.07.014.09l.164.1.132.078c.033.02.087.016.107-.017.02-.034.02-.07-.014-.09l-.164-.1-.13-.077c-.034-.02-.088-.018-.109.016m-1.683-.21a.034.034 0 0 0 .023.043c.49.143.889.211 1.22.209.02 0 .035-.016.035-.035a.035.035 0 0 0-.036-.035c-.323.002-.716-.066-1.2-.206a.035.035 0 0 0-.042.024m2.418.667a.063.063 0 0 0-.018.088c.123.188.303.316.475.44.184.132.357.256.468.445a.063.063 0 0 0 .086.023.064.064 0 0 0 .023-.086c-.124-.213-.317-.351-.503-.485-.17-.122-.332-.238-.444-.407a.063.063 0 0 0-.087-.018m-2.94-.459a.092.092 0 0 0 .045.12l.905.424c.88.416 1.792.846 2.7 1.197a.09.09 0 0 0 .065-.168c-.902-.35-1.81-.778-2.689-1.192l-.906-.425a.09.09 0 0 0-.12.044m-2.946-1.443a.088.088 0 0 0 .038.12l.254.13c.51.265 1.038.538 1.585.742a.088.088 0 1 0 .061-.166c-.537-.2-1.06-.47-1.565-.732l-.255-.132a.088.088 0 0 0-.118.038m-1.942-.905a.075.075 0 0 0 .054.09c.29.074.562.226.826.375l.28.152a.073.073 0 0 0 .1-.03.076.076 0 0 0-.032-.102l-.276-.15c-.271-.153-.552-.311-.86-.39a.075.075 0 0 0-.092.055m-3.886-2.149a.07.07 0 0 0 .026.099l1.587.866c.555.29 1.13.59 1.659.91a.073.073 0 0 0 .1-.025.074.074 0 0 0-.025-.101 31.855 31.855 0 0 0-1.667-.914l-1.579-.863c-.036-.019-.082-.007-.101.029m.06-.225l-.04.151-.02.09a.07.07 0 0 0 .049.084.065.065 0 0 0 .08-.047l.022-.1.035-.133c.01-.035-.01-.078-.046-.088-.036-.009-.071.007-.08.043m-.35.117c-.014.034 0 .07.032.082l.295.119c.032.013.073-.002.086-.035.013-.032 0-.068-.033-.081l-.295-.12c-.033-.012-.073.003-.085.035m-7.127-4.034a.056.056 0 0 0 .013.078c.406.285.84.523 1.26.753.407.223.827.454 1.219.726a.055.055 0 0 1-.014-.076.055.055 0 0 1 .077-.015c-.397-.276-.82-.508-1.229-.732a13.066 13.066 0 0 1-1.25-.748.054.054 0 0 0-.076.014m-.983-.94c-.013.014-.006.04.008.054l.105.107c-.013-.014-.007-.029.006-.043.013-.013.04-.006.053.007l-.13-.13c-.014-.014-.028-.008-.042.005m14.054 4.94a.081.081 0 0 0-.003.114c.817.858 1.756 1.635 2.663 2.386.771.638 1.567 1.298 2.277 1.997a.08.08 0 0 0 .113-.001.08.08 0 0 0 0-.114c-.715-.704-1.514-1.366-2.287-2.006-.904-.749-1.839-1.523-2.65-2.373a.08.08 0 0 0-.113-.003M23.23 14.938a.079.079 0 0 0 .073.084c.277.02.551.106.815.19l.592.165c.042.011.079-.015.09-.057.012-.043-.019-.087-.06-.1l-.574-.157c-.273-.088-.556-.178-.852-.198a.078.078 0 0 0-.084.073m12.657 7.793l-.148.095c.025-.016.051-.004.068.021.017.027.002.065-.024.082l.186-.121c.025-.017.022-.043.006-.069-.017-.026-.062-.025-.089-.008M23.048 15.19a.081.081 0 0 0 .014.114l2.167 1.674c1.924 1.474 3.913 2.998 5.717 4.657a.082.082 0 1 0 .11-.12c-1.81-1.664-3.802-3.19-5.728-4.667l-2.165-1.672a.082.082 0 0 0-.115.014m21.739 14.229a.078.078 0 0 0 .078.134.378.378 0 0 1 .362-.014.078.078 0 1 0 .072-.138.536.536 0 0 0-.512.017m-4.263-5.072a.048.048 0 0 1-.068-.018l.084.153.021.012c.294.097.684.2 1.092.134l.017-.003.11-.13.039-.043a.05.05 0 0 0-.004-.071.05.05 0 0 0-.072.003l-.037.041-.087.104c-.372.056-.73-.036-1.009-.126l-.067-.127c.013.025.005.058-.02.071M9.373.016a.054.054 0 0 0 .004.076c2.686 2.365 5.641 4.454 8.5 6.474 2.128 1.504 4.33 3.06 6.404 4.719a.054.054 0 0 0 .074-.009.054.054 0 0 0-.008-.075c-2.077-1.661-4.28-3.218-6.41-4.723-2.855-2.018-5.808-4.105-8.49-6.466a.053.053 0 0 0-.074.005m15.483 11.65c-.034.032-.029.092.002.126l.252.273.024.03a.084.084 0 1 0 .129-.107l-.024-.03-.273-.294c-.031-.034-.077-.029-.11.002m.634.892a.074.074 0 0 0-.07.079.771.771 0 0 0 .104.32l.075.171c.017.038.064.064.101.048.038-.017.059-.053.042-.09l-.084-.198c-.044-.085-.085-.167-.09-.258a.075.075 0 0 0-.078-.072M13.2 8.901c-.024.043.004.102.047.126l.324.176c.14.088.282.18.453.222a.089.089 0 0 0 .107-.065.089.089 0 0 0-.065-.109 1.412 1.412 0 0 1-.4-.2l-.357-.192c-.043-.023-.086-.001-.11.042M.002 3.709a.058.058 0 0 0 .043.07c3.033.74 6.087 1.877 9.608 3.579a.058.058 0 0 0 .077-.028.059.059 0 0 0-.027-.078C6.173 5.547 3.113 4.407.072 3.666A.058.058 0 0 0 0 3.71m14.806 6.102a.075.075 0 0 0 .024.104l.612.383c1.873 1.17 3.808 2.38 5.64 3.7a.075.075 0 0 0 .104-.018.075.075 0 0 0-.018-.104c-1.834-1.322-3.772-2.534-5.646-3.705l-.613-.383a.074.074 0 0 0-.103.023m4.506 4.327a.1.1 0 0 0 .082.116l1.423.219a.105.105 0 0 1-.088-.118.1.1 0 0 1 .114-.086l-1.41-.216a.106.106 0 0 0-.12.085m3.55 4.256a.094.094 0 0 0 .068.114c2.587.672 4.998 1.956 7.328 3.2l.501.266a.094.094 0 1 0 .087-.166l-.5-.267c-2.34-1.247-4.76-2.537-7.37-3.214a.093.093 0 0 0-.113.067m-4.628-.873a.039.039 0 0 0 0 .055.86.86 0 0 1 .17.255c.008.019.03.027.049.019a.038.038 0 0 0 .02-.05.932.932 0 0 0-.185-.278.038.038 0 0 0-.054 0m-1.746-1.976a.06.06 0 0 0-.016.082c.144.214.324.402.498.584.18.187.365.382.505.599a.058.058 0 0 0 .08.017.058.058 0 0 0 .017-.08 4.197 4.197 0 0 0-.518-.617 4.521 4.521 0 0 1-.486-.569.058.058 0 0 0-.08-.016m-5.499-1.012a.049.049 0 0 0 .018.068l2.133 1.243c1.248.72 2.538 1.466 3.737 2.22a.05.05 0 0 0 .053-.085c-1.201-.754-2.493-1.5-3.741-2.221l-2.132-1.243a.05.05 0 0 0-.068.018m-.82-.509a.048.048 0 0 0 .007.066l.021.019.167.107c.022.013.044.003.058-.018.014-.022 0-.054-.021-.068l-.144-.093-.022-.019a.046.046 0 0 0-.065.006m7.753 4.501a.052.052 0 0 0 .014.072c.492.338 1.037.645 1.563.941l.889.512a.053.053 0 0 0 .07-.02.05.05 0 0 0-.018-.07l-.89-.512c-.525-.295-1.068-.6-1.556-.936a.052.052 0 0 0-.072.013m6.44 3.787a.072.072 0 0 0 .033.096c.794.386 1.566.82 2.313 1.24l1.285.713a.07.07 0 0 0 .097-.029.073.073 0 0 0-.03-.098l-1.282-.712a43.533 43.533 0 0 0-2.319-1.243.072.072 0 0 0-.097.033m20.432 10.636a.044.044 0 0 0 .014.061l1.72 1.113c1.512.99 3.076 2.014 4.731 2.827a.044.044 0 0 0 .06-.02.044.044 0 0 0-.021-.059c-1.65-.81-3.212-1.833-4.723-2.822l-1.72-1.113a.043.043 0 0 0-.06.013m.068-.538c-.021.057.012.12.068.142l.43.164.456.172c.055.02.113-.01.133-.065.022-.057-.012-.12-.068-.142l-.885-.335c-.056-.021-.113.008-.134.064m-1.463-.583a.094.094 0 0 0 .06.119l.117.039a.094.094 0 0 1-.06-.118.095.095 0 0 1 .12-.06l-.12-.04a.093.093 0 0 0-.117.06m-.627-2.432c-.398.054-.813.034-1.213.013l-.907-.014c-.03 0-.051.024-.052.054 0 .03.028.055.058.056l.896.014c.405.02.824.041 1.233-.015a.054.054 0 0 0 .046-.061.054.054 0 0 0-.06-.047m1.09.369a.056.056 0 0 0-.002.079c.372.394.83.675 1.273.946l.497.314-.023-.037.118.032-.013-.076-.02-.012-.501-.316c-.438-.268-.89-.544-1.251-.928a.055.055 0 0 0-.079-.002m.922-.06c-.007.017-.004.033.014.04l.299.118.083.024a.22.22 0 0 0 .064-.022.034.034 0 0 1-.045-.015.034.034 0 0 1 .014-.045l-.034.018c-.002-.007-.064-.025-.064-.025l-.282-.11c-.017-.007-.042-.001-.05.016m5.139-.046c-.046.123-.149.214-.256.309s-.22.193-.291.334a.082.082 0 0 0 .036.11.081.081 0 0 0 .11-.036 1 1 0 0 1 .252-.284c.12-.105.242-.213.303-.375a.082.082 0 0 0-.048-.106.082.082 0 0 0-.106.048m-5.98-.278a.092.092 0 0 0 .036.18.873.873 0 0 1 .374-.001.092.092 0 0 0 .042-.178 1.057 1.057 0 0 0-.453 0m-5.607-4.498a.09.09 0 0 0-.008.126c.445.505.965.974 1.467 1.427.479.432.974.878 1.406 1.357a.09.09 0 0 0 .126.006.09.09 0 0 0 .006-.126c-.438-.486-.937-.935-1.42-1.37-.498-.45-1.013-.915-1.451-1.412a.089.089 0 0 0-.126-.008m11.62-2.79c-2.345 1.344-4.658 2.519-7.167 2.156a.05.05 0 0 0-.057.042.05.05 0 0 0 .042.056c2.541.369 4.871-.814 7.232-2.166a.05.05 0 0 0 .018-.068.05.05 0 0 0-.068-.02m1.82-.98l-.403.184-.477.21c-.047.02-.075.077-.055.124.02.047.067.07.114.05l.498-.218.391-.177c.046-.022.071-.078.05-.125-.02-.046-.071-.068-.117-.047m3.29-.576a.05.05 0 0 0 .047.05c.515.01 1.014.145 1.522.294a.05.05 0 1 0 .027-.095c-.515-.15-1.02-.287-1.547-.298a.05.05 0 0 0-.05.049M41.091 9.563c-2.93.157-5.715 1.592-7.268 3.745a.062.062 0 1 0 .1.073c1.532-2.123 4.281-3.538 7.175-3.694 2.59-.139 4.952.756 6.48 2.456a.061.061 0 0 0 .087.004.063.063 0 0 0 .005-.088c-1.553-1.728-3.95-2.638-6.579-2.496m-3.529 9.467a.097.097 0 0 0 .05.126l.097.043c.221.097.45.197.7.22a.096.096 0 1 0 .018-.19c-.22-.02-.424-.111-.64-.206l-.099-.043a.095.095 0 0 0-.126.05m5.323-1.407a.068.068 0 0 0-.037.089c.182.444.37.904.715 1.247a.068.068 0 0 0 .096 0 .068.068 0 0 0 0-.097c-.326-.323-.509-.77-.686-1.202a.068.068 0 0 0-.088-.037m.771 1.685l-.026.098c-.014.062-.025.116-.072.146a.046.046 0 0 0-.016.063.046.046 0 0 0 .063.015c.082-.05.1-.132.115-.205l.022-.083c.006-.025-.007-.055-.03-.062-.025-.007-.049.003-.056.028m5.15-5.408a.102.102 0 0 0-.058.132c.265.692.54 1.43.744 2.18a.102.102 0 1 0 .197-.053c-.207-.76-.485-1.504-.75-2.2a.102.102 0 0 0-.132-.059m-6.725 10.323l-.185.044-.147.026c-.069.013-.106.077-.094.147.013.069.088.112.156.1l.121-.02.256-.067c.068-.017.085-.078.069-.145-.017-.068-.109-.101-.177-.085m-1.604.016a.051.051 0 0 0-.033.065.05.05 0 0 0 .064.034c.354-.108.88-.056 1.25.126a.052.052 0 0 0 .046-.094c-.392-.191-.95-.247-1.327-.13m-1.528-.306a.09.09 0 0 0 .055.116c.248.089.507.13.758.171.234.038.475.077.702.154a.09.09 0 0 0 .114-.058.09.09 0 0 0-.056-.115c-.242-.08-.49-.12-.731-.16a4.041 4.041 0 0 1-.726-.163.09.09 0 0 0-.116.055M24.257 8.4a.04.04 0 0 0-.005.058 415.867 415.867 0 0 0 4.858 5.588l.7.788c2.573 2.906 5.235 5.91 8.155 8.21l.271.203c.31.227.631.461.762.737a.04.04 0 0 0 .054.02.042.042 0 0 0 .02-.056c-.14-.294-.469-.535-.787-.768l-.27-.201c-2.914-2.296-5.573-5.296-8.145-8.199l-.699-.788a413.004 413.004 0 0 1-4.857-5.587.04.04 0 0 0-.057-.005m14.723 15.5l-.076.028-.196.047c-.047.011-.092.06-.08.108.01.047.042.079.09.068l.246-.058.072-.025a.09.09 0 0 0 .054-.114.087.087 0 0 0-.11-.054m-2.967-1.124a.084.084 0 0 1-.09.078c.104.007.168.07.25.151a.7.7 0 0 0 .27.19.083.083 0 0 0 .106-.053.084.084 0 0 0-.053-.106c-.081-.027-.142-.087-.206-.15-.089-.088-.19-.188-.355-.2a.084.084 0 0 1 .077.09m-9.687-6.906a.058.058 0 0 0 .032.075c3.414 1.405 6.71 3.778 9.53 6.864a.057.057 0 0 0 .08.003.058.058 0 0 0 .004-.08c-2.831-3.099-6.14-5.482-9.57-6.893a.058.058 0 0 0-.076.031m-.709-3.45a.066.066 0 0 0 .016.092c.74.525 1.43 1.155 2.098 1.765.483.44.983.897 1.499 1.312.028.022.07.018.093-.011a.066.066 0 0 0-.01-.094c-.513-.41-1.01-.866-1.492-1.305-.672-.613-1.366-1.246-2.111-1.776a.066.066 0 0 0-.093.016m-4.468-5.86a.053.053 0 0 0 0 .074c1.427 1.424 2.476 2.776 3.207 4.133a.052.052 0 0 0 .072.02.052.052 0 0 0 .02-.07c-.735-1.366-1.79-2.726-3.224-4.158a.053.053 0 0 0-.075 0m34.15 31.704c-.006.03-.007.053.024.061l.15.038c-.03-.008-.059-.04-.052-.072.007-.03.029-.053.06-.046l-.093-.018c-.031-.007-.082.005-.089.037m.607-14.775c-.647.154-1.316.313-1.957.214a.066.066 0 0 0-.02.132c.666.102 1.348-.06 2.007-.218.991-.235 1.928-.458 2.859.107a.065.065 0 0 0 .09-.022.066.066 0 0 0-.022-.091c-.977-.594-1.983-.354-2.957-.122m-4.18 13.573c-.342-.17-.155.146 0 0m-3.128-4.678c.471.154-.393-.178 0 0m11.744.489l-.118-.015c.965 1.548 2.063 3.46 3.069 5.032.366.572.882 1.068 1.121 1.6.182.404.22 1.025.65 1.361.343.27.908.469 1.416-.059.182-1.23-.91-1.175-1.594-1.658-.21-.148-.37-.456-.59-.71-1.464-1.697-2.58-3.791-3.836-5.566zm-6.905-9.252c-.142.044-.477-.146-.354 0 .104-.017.295.167.354 0M5.9 11.39l-.088-.03c-.02.435.313.515.767.474-.056-.358-.247-.582-.708-.533zM4.868 9.762c-.3.406.076.93.413 1.066-.103-.39.022-1.01-.354-1.125v.06zm-.118-.266l.059.03c-.011-.475-.35-.829-.708-.711-.522.172-.022 1.012.59.71zm15.786-3.671l.03.03c.355-.809-.767-1-.767-.415 0 .264.307.422.708.414zM39.45 29.242v.06c.243-.046.303.09.531.06l-.03-.09.03-.088c-.125-.072-.171-.223-.354-.237l-.069.088-.108-.029v.178c-.036.003-.07.009-.059.059zM13.366 8.874c-.151-.164-.385-.245-.59-.355-.206-.438-.198-.858-.472-1.244-.607-.853-2.02-.944-2.657-.059l.03.089-.088.03c.2.87.72 1.454 1.534 1.54.39.04.783-.163 1.298-.119.332.028.55.28.886.296l-.03-.109zm1.593.948c-.181-.261.216-.489.06-.71-.336-.147-.661.088-1.004.118l.03.108-.09.07c.237.256.589.396.945.532l-.03-.089zm4.544 4.263c-.697-.189-1.478-.293-2.124-.533-.177-.486-.838-1.729-1.594-1.48-.452.148-.356.942-.118 1.243.573.722 2.812.704 3.777.948l-.03-.11zm3.718 1.184v-.178c.06 0 .07-.047.118-.058l-.03-.09-.029-.089c-.893-.15-1.522-.563-2.124-1.006l-.03.089-.088.03v.296H20.8l.03.108-.088.07c.978.083 1.676.448 2.301.888l.069-.09zm7.495 6.69c1.487.72 2.62 1.794 3.836 2.784l.069-.089.108.03v-.178c.06 0 .07-.048.118-.06l-.03-.108.089-.069c-1.437-.769-2.69-1.722-3.836-2.783l-.069.089-.108-.03v.238h-.118l.03.108zm-12.393-4.38c-.052-.502-.432-.673-.767-.889l-.03.089-.088-.03c.14.393.285.78.767.83l.06-.03zm-7.259-3.08c-.157-.216-.333-.415-.708-.414l.03.089-.089.03c.123.27.423.364.767.414l-.03-.06zm6.964 4.086c.025-.591.563-.323.945-.355.085-.008.2-.104.294-.119 1.174-.185 2.912.315 3.718.415l-.03-.109.089-.069c-1.206-.48-3.008-.568-4.544-.533-.004-.036-.009-.07-.059-.06v.06h-.059c-.303.211-.95.32-1.416.178l-.06.03-.058-.03c-.043.536-.587.516-.886.651-.401-.073-.56-.323-.944-.355-.972-.082-2.084.692-1.77 1.717.098.323.567.662.708.71.957.335 1.677-.32 2.007-.77.191-.261.206-.618.354-.829.26-.37 1.012-.747 1.593-.532l.059-.03zm3.6 2.013c-.245-.385-.562-.7-1.003-.888l.03.089-.09-.03c0 .06-.047.07-.058.119-.06 0-.071.048-.118.059l.03.06-.03.058c.415.196.613.609 1.18.652l-.03-.09zm2.891 1.717c-.145-.13-.301-.25-.53-.296l.029.089-.089.03c.059.337-.363.433-.177.71.441.067.501-.248.709-.414l-.03-.09zm4.25 2.31c-.242-.153-.477-.312-.767-.415l.029.089-.089.03c.013.045.002.116.06.118-.05.353-.374.578-.06.829.553.12.525-.342.768-.533l-.03-.089zm4.13 2.19c-.154-.2-.433-.275-.708-.355l.03.089-.089-.03c.053.203.13.383.236.533.238.04.337-.057.532-.06l-.03-.088zm2.007.948a1.335 1.335 0 0 0-.885-.415l-.03.09-.088.03c.216.256.502.442.944.472l-.03-.108zm2.892 1.421c-.036-.154.024-.213.177-.178-.424-.167-.88-.3-1.358-.415l.03.11-.089.069c.386.224.808.412 1.24.591l-.03-.088zm7.967 3.67c1.438.64 2.85 1.178 4.485 1.54.529.118 1.22.398 1.652.415.444.017 1.072-.246 1.534-.237.567.012 1.074.266 1.594.178.487-.083 1.008-.476 1.18-.948.14-.38.108-.88 0-1.125-.268-.613-1.167-.705-1.83-.532-.323.084-.762.647-.885.888-.146.288-.06 1.06-.649 1.243-.239.074-.649-.06-1.003-.06-.28.002-.512.071-.708.06-.89-.05-1.853-.432-2.715-.71-.915-.296-1.79-.632-2.596-.889l.03.109zm-2.243-.887c.202.334.756.486 1.004.77.15.173.122.313.236.473 0-.059.047-.07.058-.118l.015-.119.103-.059c-.067-.071-.168-.107-.118-.296.076-.004.082-.076.177-.06l-.029-.108.088-.069c-.445-.243-.96-.418-1.475-.592l.03.109zm-2.007-1.362c-.062.055-.018.218-.176.177l.029.11-.088.068c.656.318 1.41.709 2.242 1.007l-.03-.109.089-.069c-.702-.36-1.313-.815-1.948-1.244l-.029.09zm-.826-1.244h-.472l.03.09-.03.088c.155.082.203.27.413.296l.03-.089.088.03v-.297l-.088-.029zm9.384.415c.344-.08 1.01-.301 1.003-.71-.002-.123-.193-.425-.354-.475-.533-.164-.917.355-.826 1.126l.108-.03zm-4.898-.237c.018.08.083.114.059.236-.037.004-.071.01-.06.06h.06v.06c.906.187 1.312.946 2.242 1.065.62.08 1.214.022 2.006.06.113-.144.038-.477.06-.711l-.09.03-.028-.09h-.118c-.18.017-.058-.362-.237-.177-1.371.182-2.263-.604-3.422-.83-.07.109-.308.048-.413.12l.029.108zm-.886 0c.141.116.363.15.531.236v-.058h.06a.273.273 0 0 1 .058-.178l-.112-.053-.006-.125h-.472l.03.11zm-1.534-.414c.019.137-.01.227-.06.295l.089.03-.029.089c.568-.076.82.165 1.121.356l.03-.09.088.03v-.237c.036-.003.07-.009.06-.06l-.09-.068.03-.109c-.493-.018-.741-.282-1.12-.414l-.042.1zm-1.594-1.421c.005.103-.013.183-.058.236l.03.09-.03.088c.29.203.652.332 1.003.473l.077-.076.1-.041c-.31-.282-.568-.615-.944-.83l-.07.09zm15.462-6.81a4.528 4.528 0 0 1-.236 1.6c.657.548 1.902.516 2.007-.356.115-.957-.854-1.217-1.77-1.362l.03.059zm-4.839.415c.935-.424 2.178-.539 3.364-.71l-.03-.06.03-.06c-1.175-.417-2.55.208-3.423.652l.088.069zm-13.396-1.895c.529.196 1.476.203 1.534-.415-.251-.208-.72-.242-1.062-.118-.252.091-.273.32-.472.355l.03.09zm-4.603-6.1c-.384.571-.669 1.156-.59 2.074.155 1.802 1.355 1.957 2.596 2.723.783.483 1.137.892 1.889 1.066l-.03-.108.088-.07c-.53-.379-1.345-.755-1.947-1.48-.332-.4-.53-.869-.885-1.125-.48-.348-1.025-.43-1.24-.947-.282-.681-.025-1.425.296-2.072l-.089-.03zm9.737 5.626c-.04.217.128.228.118.415l.059-.03.059.03c.153-.084.4-.073.354-.356-.163-.073-.3-.173-.53-.177l.028.088zm5.43-4.915v-.236c.644-.242 1.494.345 2.301.77.73.383 1.596.87 1.947 1.361.403.563.646 1.573 1.535 1.363.083-.02.371-.226.413-.356.259-.799-.67-1.2-1.475-1.243-1.143-.75-2.454-1.781-3.777-2.31-.91-.363-1.8-.632-2.243-1.362l-.03.09-.088-.03v.177c-.547.547-1.45.251-2.124.297-.922.061-1.935.316-2.479.947-.738.856-.717 2.986-.118 4.145l.089.03.088.029c-.142-1.245-.558-2.658 0-3.672.833-1.511 4.266-1.355 5.606-.296a.588.588 0 0 0 .177.356l.069-.09zm1.003 8.172h.176c.287.24.214.615.06.947.54.974-.136 2.843.767 3.434a1.4 1.4 0 0 0 1.003.178c.667-.153.64-.916.236-1.362-.36-.398-.964-.518-1.18-1.006-.276-.625-.407-2.454 0-2.724l-.088-.069.029-.109h-.118c-.288-.321-.29-.81-.354-1.243-.224-1.514-.407-2.965-.826-4.145l-.07.089-.108-.03c.103.66.327 1.589.473 2.546.163 1.076.577 2.817 0 3.375l.03.06zm-7.85 2.25c.28.023.493-.02.709-.06l-.03-.088.09.03c-.096-.182-.036-.518-.296-.533-.333 0-.338.331-.531.473l.088.07zM24.344 8.459c-.087-.395-.321-.929-.767-.77.023.451.394.552.649.77l.06-.03zm14.635 15.632h.06l-.003-.126-.115-.051.088.069zm-2.596-.947c.014.55-.226.863-.118 1.303.19.773 1.228.806 2.065.592l.07-.089.107.03c-.024-.38.157-.554.236-.83l-.03-.089.03-.088c-.47-.457-1.126-.725-2.065-.71-.083-.076-.004-.313-.236-.237l.03.088zm-10.8-10.066c.036.537-.42.68-.59 1.066-.163.37-.063.685-.295 1.065l.03.09-.03.089a9.854 9.854 0 0 0 1.71.591l-.028-.088.088-.03c.069-.621.476-.784.472-1.303-.006-.97-.932-.76-1.18-1.48l-.088.03zm3.6 2.487c.325.33.555 1.054 1.298.77.022-.733-.93-.489-1.239-.889l.03.09zM25.11 12.07c.122.173.133.459.295.593l.088-.03.089.03c0-.06.048-.071.06-.119h.058l-.03-.09.09-.029c-.14-.155-.235-.356-.473-.414l-.088.03zm-.797-.829l-.029.06c.202.19.377.411.649.532l-.021-.106.08-.071c-.185-.308-.247-.74-.531-.947l-.06.029-.058-.03c.058.205.206.389-.059.474zm21.511 35.113c.112.013.13-.067.236-.06.027-.185-.126-.189-.295-.177-.004.103.013.184.06.237M33.843 42.98c.014.084.097.1.118.177.235.038.318-.075.413-.177-.018-.336-.524-.375-.531 0m-.767-3.967c.007.15.086.23.236.236.189-.008.26-.134.236-.355-.113-.097-.492-.1-.472.119m22.897-.651c.086-.033.306.068.295-.06-.088-.094-.24-.043-.295.06m2.243-.179c.04.046.352.155.295-.058-.025-.132-.323-.057-.295.058m-27.62-.354c-.165 1.247 2.036.977 1.359-.356-.52-.379-1.28-.237-1.358.356m1.417-1.659c.28.288.845.003.59-.414-.29-.167-.73-.039-.59.414m-1.417-.887c.069.049.158.077.295.058.058-.217-.29-.235-.295-.058m31.75-.415c.185.027.264-.052.236-.237h-.236zm-16.288-.592h.177v-.118h-.177zm-2.773-.06h.117v-.118h-.117zm9.736-1.835c-.123.141.059.131.119.355.17-.007.386.033.472-.06.114-.379-.434-.473-.59-.295m.53-.71c.08.084.335.084.414 0v-.237c-.165-.136-.47-.033-.413.236m-18.353 1.776c.266-.069.605-.467.649-.592.441-1.256-1.435-1.832-2.479-1.243-.015 1.154.706 2.128 1.83 1.835m-3.129-3.138c-.185.615.514 1.317 1.122.948.104-.761-.487-1.122-1.122-.948m21.777.83c.473-.005.58-.68.295-.948-.75-.178-.652.762-.295.947m-28.09-.947h.176v-.118h-.177zm-8.204-.415c.199.18.18-.218 0 0m13.987-.236c-.127.542.798.664.767.118-.073-.27-.572-.304-.767-.118m-2.951 0c.078.077.22.078.236-.06-.078-.077-.22-.078-.236.06m23.31-.533h.118v-.118h-.118zm-28.503-.06h.117v-.118H23.4zm31.513-.414c.349.054.501-.09.531-.355-.045-.013-.068-.05-.059-.119-.365-.245-.77.21-.472.474m-24.49-.651c-.396.553.548 1.605 1.06.888-.032-.618-.594-.705-1.06-.888m24.962-.71c.028-.33-.673-.518-.59.118.283.211.57.123.59-.119m-23.783.119c.235.038.32-.076.414-.178.003-.442-.731-.184-.414.178m3.482-.415c.17.012.323.008.295-.177-.008-.13-.148-.128-.295-.119-.04.182-.04.114 0 .296m24.904 1.777c.11.469.606.98.827 1.066.889.343 1.474-.321 1.24-1.066-.23-.727-1.123-1.316-1.24-2.191-.085-.015-.1-.098-.177-.119-.609.062-.838 1.5-.65 2.31m-4.013-2.25c.004-.103-.046-.152-.117-.178-.085.086-.087.23.117.178M18.5 25.216c-.027.186.126.19.295.178.036-.27-.132-.244-.295-.178m34.347.652c.034 1.21 1.926 1.417 2.124.355.204-1.093-.7-1.424-1.298-1.303-.556.113-.841.441-.826.948m-4.722-1.244c-.018.156.082.194.236.178.017-.155-.021-.255-.177-.237-.004.036-.009.07-.059.06m-.767-.534h.177v-.118h-.177zm-18.236-1.243c.183.041.114.041.295 0 .038-.315-.316-.254-.295 0m7.2-.118c.26.023.4-.073.413-.297-.236 0-.44.032-.413.297m-2.537.414c.214.737 1.6.487 1.77-.237-.171-1.075-2.128-.995-1.77.236m-8.852-2.486c.002.179.481.183.413-.06-.004-.178-.482-.183-.413.06m33.895 3.007l-.08.072c.918.359 1.9 1.469 3.01 1.717.255.057.574.119.885.06.97-.187 1.957-2.486 1.77-3.79-.199-1.39-2.288-2.648-3.068-1.066.572.655 2.248 1.168 2.36 2.19.071.65-.49 1.603-.767 1.837-.89.745-1.82.088-2.597-.356-.525-.3-1.025-.607-1.534-.77zm-38.262-4.547c.208.033.304-.05.354-.177-.046-.013-.069-.05-.059-.119h-.295c-.041.183-.041.114 0 .296m-.118-2.427h.295c.093-.367-.388-.367-.295 0m-5.193-.948c-.011-.087-.143-.054-.237-.059-.125.218.3.267.237.06m-5.489-1.895c.06-.198-.082-.194-.236-.178-.018.156.082.195.236.178m5.135-1.6c.06-.882-1.379-1.138-1.594-.354-.272.994.76.988 1.18 1.125.127-.484.387-.385.414-.77M2.33 7.098c-.13-.837.883-.573.825-.119-.04.32-.55.438-.826.119" fill="white" fill-rule="nonzero"/></svg>