<svg xmlns="http://www.w3.org/2000/svg" width="197.884" height="238.781" viewBox="0 0 52.357 63.177"><path d="M45.67 5.22a.049.049 0 0 0 .065.024c.206-.098.422-.157.65-.22l.475-.145c.026-.009.038-.035.03-.06-.008-.026-.037-.04-.064-.032l-.468.143c-.221.06-.45.123-.666.225a.049.049 0 0 0-.023.065M9.446 32.823c-.177.229-.333.483-.484.73-.22.356-.446.726-.733 1.007a.05.05 0 0 0-.001.07.05.05 0 0 0 .07 0c.295-.29.525-.664.748-1.026.15-.244.305-.496.478-.72a.049.049 0 0 0-.009-.07.049.049 0 0 0-.069.01m.378-1.141l.02.071.022.088c.01.04.052.073.092.063.04-.01.066-.04.056-.08l-.027-.114-.018-.065a.077.077 0 0 0-.093-.054.073.073 0 0 0-.052.09m14.651-16.384l.001-.002a.314.314 0 0 0 .065-.135.123.123 0 0 0-.106-.025c-.024.006-.065.025-.071.055a.137.137 0 0 0 .033.07c.017.02.05.027.078.037m-.087-.335a.297.297 0 0 1 .317.107l.012.016.005.02c.023.117-.044.214-.098.292l-.037.054a.07.07 0 0 1-.017.02.086.086 0 0 1-.065.024.338.338 0 0 1-.318-.304.268.268 0 0 1 .201-.23m21.587 21.843a.67.67 0 0 0 .177.346l.045.055a.122.122 0 0 0 .169.02.117.117 0 0 0 .02-.165l-.05-.061c-.062-.076-.112-.137-.125-.228a.12.12 0 1 0-.236.033m.207-.243l.06.114.052.103c.031.062.113.105.176.074.062-.03.095-.088.065-.15l-.071-.149-.054-.101a.13.13 0 0 0-.173-.057.123.123 0 0 0-.055.166m-.156.236a.068.068 0 0 0 .078.057l.23-.034.09-.013a.067.067 0 0 0 .057-.077.067.067 0 0 0-.077-.057l-.089.013-.232.035a.066.066 0 0 0-.057.076m-.234-.926l.088.163.029.051a.121.121 0 0 0 .212-.117l-.03-.053-.082-.152a.125.125 0 0 0-.167-.053.117.117 0 0 0-.05.161m.596-4.04c.087.151.146.313.21.484l.135.339c.026.067.1.095.167.067.067-.026.098-.107.07-.175l-.127-.322a3.571 3.571 0 0 0-.227-.523.131.131 0 0 0-.228.13m-.078 5.005l.118.186.06.111a.137.137 0 0 0 .188.052.146.146 0 0 0 .055-.195l-.054-.097-.16-.249c-.042-.065-.112-.063-.178-.022-.065.041-.07.148-.029.214M35.5 41.15c-.281 1.587-.717 3.177-1.14 4.715-.342 1.247-.696 2.536-.966 3.819a.155.155 0 0 0 .303.063c.268-1.273.62-2.557.961-3.8.424-1.544.863-3.141 1.146-4.743a.155.155 0 1 0-.304-.054m-.646-.351a.121.121 0 0 0 .023.17.121.121 0 0 0 .17-.023c.107-.142.236-.255.37-.327a.121.121 0 0 0 .05-.163.121.121 0 0 0-.162-.049 1.421 1.421 0 0 0-.45.392m-.567.64c-1.138 1.207-2.316 2.455-3.616 3.542a.14.14 0 0 0 .18.215c1.312-1.098 2.496-2.352 3.64-3.565a.14.14 0 1 0-.204-.192m9.635-15.221c.555.933.986 1.951 1.403 2.936l.507 1.177a.134.134 0 0 0 .178.069.139.139 0 0 0 .07-.18l-.504-1.172c-.42-.994-.855-2.02-1.42-2.969a.136.136 0 0 0-.186-.047.135.135 0 0 0-.048.186m-7.697 6.577l-.083.142a.123.123 0 0 0 .213.124l.083-.141a.122.122 0 0 0-.044-.169.123.123 0 0 0-.169.044m6.413-13.24a.12.12 0 0 0 .048.163c1.227.675 2.157 1.302 2.924 1.97a.12.12 0 0 0 .157-.181c-.78-.68-1.722-1.315-2.966-2a.12.12 0 0 0-.163.048M25.93 38.624l.128.536c.077.353.156.717.326 1.058a.09.09 0 1 0 .162-.082c-.16-.32-.233-.657-.31-1.015l-.13-.546a.089.089 0 0 0-.11-.064c-.048.012-.077.065-.066.113m3.16-15.991a.099.099 0 0 0 .055.128c.263.105.455.323.658.555l.302.32c.037.04.095.038.135 0 .039-.037.036-.104-.001-.143l-.288-.307c-.21-.238-.426-.485-.733-.607a.098.098 0 0 0-.128.054m1.367 1.787l.088.275c.029.123.059.251.13.37a.116.116 0 0 0 .161.04.116.116 0 0 0 .04-.16c-.053-.087-.077-.192-.103-.303l-.109-.332c-.02-.061-.078-.076-.14-.056-.06.02-.087.104-.067.166M17.021 35.375a.044.044 0 0 0 .063.01c.229-.165.483-.28.73-.39l.409-.193c.023-.01.03-.037.02-.06a.046.046 0 0 0-.061-.02l-.405.19c-.25.113-.51.229-.746.4a.045.045 0 0 0-.01.063m4.483.811a.146.146 0 0 0 .147.14h.158a.14.14 0 0 0 .142-.139.141.141 0 0 0-.139-.142H21.639c-.078 0-.135.063-.135.141m-3.099 3.603a.12.12 0 0 0 .16.06c.892-.407 1.825-.77 2.727-1.123l1.397-.554a.12.12 0 0 0 .067-.155.122.122 0 0 0-.158-.067l-1.394.551c-.905.354-1.841.72-2.74 1.129a.12.12 0 0 0-.059.159m5.35 11.303a.277.277 0 0 0-.013.2.048.048 0 0 0 .063.03.05.05 0 0 0 .03-.063.181.181 0 0 1 .01-.13.05.05 0 0 0-.027-.065.05.05 0 0 0-.064.028m-.407.454l-.229.2c-.02.018-.025.051-.008.071.018.02.045.025.065.007l.239-.208c.125-.121.244-.235.393-.296a.048.048 0 1 0-.036-.089c-.166.068-.297.194-.424.315m5.163-6.756a.096.096 0 0 0 .013.136c.177.148.292.358.413.58.11.197.222.402.386.573a.097.097 0 0 0 .14-.135c-.146-.153-.252-.345-.354-.532-.126-.228-.256-.464-.461-.635a.097.097 0 0 0-.137.013m-.028 2.373a.083.083 0 0 0 .11.125l.322-.283a.082.082 0 0 0 .008-.116.082.082 0 0 0-.117-.008zm2.666 1.698a.13.13 0 0 0 0 .185c.157.158.263.352.376.559l.037.067a.13.13 0 1 0 .23-.126l-.037-.067c-.117-.213-.237-.434-.42-.618a.131.131 0 0 0-.186 0m14.229-13.07c.073.247.222.455.407.573a.126.126 0 0 0 .175-.04.127.127 0 0 0-.038-.175.78.78 0 0 1-.3-.432.127.127 0 0 0-.159-.085.127.127 0 0 0-.085.159m.359.453c-.022.203.066.408.272.625a.116.116 0 0 0 .166.004.116.116 0 0 0 .004-.165c-.157-.166-.224-.306-.21-.439a.117.117 0 0 0-.232-.025M43.62 42.77c.033.049.105.057.153.024l.553-.38c.314-.202.64-.411.911-.694a.106.106 0 0 0-.002-.15.106.106 0 0 0-.15.002c-.256.265-.57.468-.874.663l-.569.391c-.048.033-.055.096-.022.144m3.191-1.106c.02.235-.044.501-.189.768a.118.118 0 1 0 .208.112c.167-.307.242-.619.217-.9a.119.119 0 0 0-.236.02m-.58 2.33c.027.17-.038.324-.106.487a1.216 1.216 0 0 0-.123.429.046.046 0 1 0 .093.003c.005-.136.059-.263.114-.396.072-.168.145-.342.113-.538a.046.046 0 0 0-.053-.038.046.046 0 0 0-.039.053m-.515 1.88l-.24.772c-.12.365-.243.743-.329 1.127a.049.049 0 0 0 .037.059.049.049 0 0 0 .058-.037c.085-.381.208-.755.327-1.119l.241-.775a.048.048 0 0 0-.032-.06.05.05 0 0 0-.062.033m-1.019 3.376c-.12.342-.2.7-.278 1.048l-.196.788c-.014.058.02.122.078.136.058.014.116-.016.13-.074l.2-.803c.076-.341.155-.693.27-1.022a.107.107 0 0 0-.066-.138.108.108 0 0 0-.138.066m-.864 3.657c.025.146-.01.29-.049.444l-.062.362c-.008.045.023.075.068.083.044.008.088-.033.095-.078l.058-.328c.04-.163.082-.33.051-.51a.082.082 0 0 0-.094-.067.082.082 0 0 0-.067.094m4.22-19.25l-.022.33a.073.073 0 0 0 .07.078.073.073 0 0 0 .077-.068l.023-.33a.073.073 0 0 0-.069-.079.073.073 0 0 0-.078.069m-4.172-18.11l-.037.038-.13.135.002.019v.063l.013.219c0 .026.022.042.05.041.026-.002.046-.028.044-.054l-.011-.205v-.046l.1-.104.037-.038a.047.047 0 0 0 .002-.065l-.002-.003a.048.048 0 0 0-.068 0m-5.025.49a.056.056 0 0 0 .07.039.056.056 0 0 0 .04-.07c-1.258-4.614 1.935-8.902 5.749-10.38a.058.058 0 0 0 .032-.074.057.057 0 0 0-.074-.032c-3.86 1.497-7.091 5.84-5.817 10.516M32.55 29.085a.074.074 0 0 0 .069.078l.101.007c.14.012.286.024.43-.034a.073.073 0 0 0 .039-.095.072.072 0 0 0-.095-.04c-.111.045-.233.035-.362.024l-.106-.008a.071.071 0 0 0-.076.068m-13.46-9.712a.058.058 0 0 0 .056.06c2.402.046 4.477 1.033 5.552 2.64a.057.057 0 0 0 .08.017.057.057 0 0 0 .016-.08c-1.096-1.64-3.207-2.646-5.646-2.693a.058.058 0 0 0-.059.056M8.692 28.771a.12.12 0 0 0 .09.142c1.371.296 2.804.429 4.189.558l1.935.196a.12.12 0 0 0 .132-.106.118.118 0 0 0-.104-.13l-1.94-.197c-1.379-.128-2.804-.26-4.16-.554a.119.119 0 0 0-.142.09M32.744 3.229c1.67-.586 1.221-3.176-.337-3.228-.382-.013-.935.37-1.086.535-1.158 1.267.11 3.154 1.423 2.693m18.734.919c-.154-.182-.335.044-.485-.198l-.293.257c.35.452.454-.141.778-.06m-3.178.397c.608-.012-.227.004 0 0m-.954.213c.544-.044.083-.245 0 0m-2.025.528c-.488.128-.028.28 0 0M8.263 34.596l.06-.052c-1.364-1.143-2.997-.435-3.23 1.167-.117.805.503 1.569.293 2.23-.253.8-1.105 1.301-1.68 1.989-.36.43-.599 1.006-.925 1.43-.342.447-.996.857-.704 1.446.658-.004.885-.758 1.24-1.189.097-.117.288-.222.41-.359.872-.971 1.545-2.723 2.32-3.272.589-.418 1.417-.286 1.996-.918.633-.691.537-1.578.271-2.413zm1.633-2.932l.106.063c.181-.154.12-.324.198-.485-.62-.391-.589-.874-.682-1.372-.164-.018-.326-.075-.499.022-.166.793-.475 1.98.814 1.879zM45.87 36l-.058.05.041.206.157.14.205.235.082-.123.145.027c-.023-.204-.188-.417-.345-.631l-.081.124zm-11.373 5.598c.216.067.425.243.652.153.334-.272-.223-.603-.051-.887l-.148.009-.064-.134c-.201.245-.48.484-.603.734l.107.063zm-1.094 8.108c-.11.441-.524.889-.991.763-.24-.33-.334-.65-.653-.984l-.082.124-.146-.028c.489.681.742 2.03 1.622 2.208.504-.684.38-1.411.529-2.12l-.137.046zm10.368-7.103c-.445-.026-.692-.316-1.13-.462-.437-.144-.988-.026-1.306-.308-.815-.72-.018-1.534-.61-2.473-1.4.368.149 1.977.317 2.73.115.515-.19 1.05-.155 1.482.024.29.129.813.264 1.013.623.912 1.979 1.117 2.642.176.392-.555.002-1.292.022-1.989l-.106-.062zm-.015 11c-.399.404-.062.404-.433.69.153.71-.486 1.368.08 2.106.494-.409.673-1.27.955-1.871-.038-.279-.367-.578-.44-.86l-.114.049zm.507-2.62c-.467.65-.535 1.328-.412 2.018l.063-.106.105.062c.441-.597.476-1.22.456-1.848l-.148.008zm.88-3.258c-.472.503-.872 1.011-.492 1.57l.148-.007.065.133c.688-.526.428-1.115.389-1.689l-.059.052zm.859-2.928c-.558.218-.62.758-.3 1.197l.061-.107.048.114.47-.41c-.034-.261.049-.514-.169-.786l-.063.106zm.66-2.442c-.45.164-1.285.37-1.284 1.02.157.44.515.519.836.719l.063-.107.048.114c.582-.514.457-1.075.55-1.622l-.148.008zm1.513-8.579c.34-.29.527-.59.227-.924-.14-.122-.297.027-.44-.03-.257.278-.196.577.052.889l.113-.048zm-1.468-1.203c.16 1.576 1.767 3.25.514 4.733-.185-.007-.361-.118-.529-.367l-.082.124-.145-.029-.059.052-.114.047-.114.049c.993 1.048-.411 1.431-1.035 2.252-.418.552-.066 1.299-.601 1.562.273.089.523.27.513.588l.107.062.047.114c.557-.056 1.13-.367 1.659 0l.062-.106.106.062c.316-.502.292-1.365.786-1.827.269-.252.516-.2.859-.44.23-.638.03-1.231-.095-1.886-.125-.64-.462-1.317-.536-1.915-.077-.621.326-1.106.169-1.703l-.114.048-.048-.113a10.595 10.595 0 0 0-.117.102c-.773.034-.557-1.036-1.005-1.504l-.082.123zM31.186 39c.219.18.18.343.242.513-.256.248-.497.26-.741.338-.4-.383.12-.815.5-.85M18.52 51.53c-.4-.02-1.484-.031-1.842-.564-.77-1.148 1.454-1.803 2.04-.748.13.232-.022.974-.198 1.313m17.811-18.675s.065.133.953-.747c.194.41-.046.864-.14 1.262-.093.402-.147.871-.36 1.247-.518-.203-.735-.755-.388-1.629l-.148.009s-.064-.133-.3.072c-.29-.227.048-.573.236-.205zm-5.394 5.74c-1.458-.945.346-2.741 1.196-2.187.437.285.62 1.259-.044 1.489-.263.091-.092-.03-.294.257-.195.28-.644.348-.858.44m2.569-6.185c.262.154.464.2.461.528l-.352.308c-.37-.083-.676-.528-.11-.836m7.346-7.36c.095.614-.63 1.175-.947 1.762-.54-.393.166-1.97.947-1.761m.374-2.297c1.174.753.713 2.273.61 3.302.543.685.427 1.29.579 2.083a17.76 17.76 0 0 0 .755 2.76c.347.945.767 1.54.448 2.407-.547.47-1.09.87-1.622 1.107-.255-.532-.854-.579-1.203-1.02-.344-.433-.304-1.377-1.034-1.064-.342.147-.395.707-.625 1.064-.237.37-.651.74-.785.998-.46.892-.038 1.847-.44 2.459-1.227-1.15-.706-2.04-.39-3.288.144-.56.187-1.41.39-1.688.74-1.014 2.288-.911 3.023-1.401.499-.333.775-.95.478-1.35-.304-.408-.923-.188-1.24-.47-.288-.256-.562-.648-.316-1.071.338-.583.817-.361 1.277-.91.543-.649.483-2.075-.33-3.339.178-.19.112-.397.425-.58M18.8 33.255c-.105-.33-.474-.353-.396-.69-.069-.06-.078-.116-.044-.169a42.432 42.432 0 0 1 2.062-1.907c.528.037 1.08-.18 1.534.212.536.464.708 1.325.095 1.886-.468.43-1.055.285-1.629.389-.601.109-1.078.27-1.622.278m-3.353-2.766c1.143.369 1.51 2.169.168 2.444-1.276-.32-1.516-1.858-.168-2.444m2.755 4.274l-.003.055c.189.345-.004.663.153 1.006-.087.105-.479.088-.241.315 1.152.676 2.369.393 3.58.184l-.046-.136.01-.143c-.691-1.072 1.367-2.021 2.04-1.578.269 1.097-1.047 1.711-1.93 1.585l.046.136-.01.143c.204.256.447-.07.646.265.093.466.199.934.073 1.387l.124.081-.028.146c1.023.952 2.113.911 3.235.381l.052.059.114-.047.106.062c-.168-.41.448-.879.829-.83.782.812.16 1.813-.323 2.357l-.05-.06-.114.048-.107-.062c.032.3.132.858-.191 1.203-.26.278-.664.259-1.189.419-2.173.66-3.961 1.474-6.112 2.134-.823.253-1.787.697-2.341.287-.52-.386-1.072-2.15-.66-2.532.675-.627 1.79-1.248 2.773-1.805l-.123-.082.027-.146c-.825.13-1.905.876-2.868 1.577-.504.368-1.06.532-1.328.852-.322.384-.216 1.256 0 1.658.464.869 1.516 1.449 2.391 1.432 1.263-.026 2.912-.861 4.462-1.416 1.688-.606 3.276-1.243 4.469-1.527.255.871-.448 1.446-.697 2.165-.148.426-.154.937-.316 1.416-.352 1.042-.455 1.854-.521 2.84-.033.491-.143 1.012-.154 1.482-.01.387.24.79-.132 1.152l-.059.051-.059.052c-.116.631-.977 1.013-1.497.895-.24-.339-.612-.417-.946-.727-1.211-1.116-2.021-3.243-3.287-3.757-1.501-.607-2.48 1.667-4.036 1.666-1.688-.89-3.696-1.891-5.372-1.52-2.24.497-3.12 3.59-.609 4.16.797.183 1.911-.023 2.884-.138 1.063-.126 2.102-.524 2.964-.52.9.001 1.806.62 2.818.85 1.665.38 2.89-.001 4.373.734.607.301 1.517 1.007 1.497.764.828 1.521 2.01 1.618 3.09 1.754a31.386 31.386 0 0 0 2.457 2.927c1.696 1.77 3.6 2.798 5.268 3.89.52.34 1.154 1.277 1.835.675-.701-.93-1.858-1.386-2.847-2.07-2.498-1.725-4.552-3.997-6.597-6.354-.197-1.377-.505-2.76.382-4.065-.06-1.11.637-2.65 1.087-3.853.335-.895.425-1.534 1.438-1.672l-.048-.114.062-.107c.116-.974-.617-2.513.757-3.045.167.69.21 1.422.352 2.18.118.636.617 1.555-.088 2.15-.07-.073-.146-.016-.213-.126l-.062.107-.114.047c-.056.292-.347.567-.499.852l.08.033.081.033c.218.043.465-.339.675-.177 1.343 1.31.517 2.944.264 4.33-.191.093-.526-.152-.565.183.01.38.497.042.521.477-.449 1.079-.346 2.418-1.71 3.259.033.354.348.663.675.652 1.3-1.24.703-2.606 1.585-3.874.866-.039.993.985 1.167 1.57.21.706.503 1.455.418 2.019-1.035.85-1.647 2.04-1.526 2.994.225 1.78 2.188 2.129 3.052.645.46-.79.198-1.918-.315-2.73-.188-.296-.484-.516-.66-.872-.302-.608-.316-1.354-.477-1.967-.176-.67-.165-1.565-.477-1.966-.21-.27-.603-.235-.844-.61-.324-.504-.044-1.451.345-1.856.035.033.07.062.11.007l.063-.107.113-.047c-.777-1.231-.56-2.396-.645-3.581l.176-.154-.124-.082.029-.145c-.46-.618-.49-1.349-.587-1.974-.105-.667-.158-1.323-.308-2.011.394-.595 1.196-.782 2.003-1.027 1.323-.402 2.763-.887 3.764-.08-.085.196-.271.387-.425.579l.123.082-.028.146c.333.038.139.376.183.564l.136-.046.143.01c.329-.542.117-1.09.44-1.63.207-.343.647-.723.962-1.15.319-.435.629-.91.961-1.153.65-.476 2.262-.828 2.81-.697.64.153.961.817 1.527.323.659-.575-.169-1.337-.257-1.952.545-.44 1.091-.886 1.63-1.218.964.222.897 1.437 1.57 2.15l.062-.106.107.062c.076-.05.144.037.212.125l.082-.123.145.028c-.254-1.002-1.543-2.246-.946-3.214.218-.354.79-.794 1.218-.859l.103.117.082-.123.145.028c-.288-.792.764-1.796 1.108-2.524 1.156-2.44.706-5.583-2.076-7.822l.009.148-.133.065c2.396 2.426 2.686 4.711 1.915 6.927-.106.267-.286.195-.514.242.378.555-.17 1.5-.764 1.496l-.154-.176-.082.125-.145-.03c-.077.088.07.19.146.287-.02.552-.28 1.087-.99 1.592-.767-.26-.965-1.573-1.152-2.62-.185-1.033-.533-2.503 0-3.316.052.059.11.028.162.066l.062-.106.114-.048a36.331 36.331 0 0 1-1.086-2.78c-.477-1.405-1.479-2.79-.315-3.56l-.009-.148.134-.064c-.093-1.112.866-2.154 1.43-3.222.524-.113 1.043-.155 1.564-.227 1.883-1.183.415-2.645.704-3.934.13-.574.918-1.856 1.263-2.347.587-.837 1.437-1.46 1.695-2.209.5-1.454-1.053-3.056-2.326-1.592-.738.848-.161 2.201-.39 3.346-.123.618-.666 1.795-1.093 2.303-.37.442-.84.67-1.115.977-.9 1.006-.886 1.905-.807 2.986l.113-.048-.062.107a.36.36 0 0 1 .095.227c-.039.028-.077.053-.11-.007l-.062.106-.048-.113c-.635.989-.93 2.001-1.526 2.993-1.377.111-1.96-2.096-3.229-2.98l-.062.107-.048-.113c-.044.02-.072.087-.118.102-1.25.418-2.208 1.062-1.848 2.033.476 1.288 2.261.92 2.619 2.165.461.136.667-.013 1.027.345.695.689.294 2.07-.235 2.692-.203.239-.548.34-.756.557-.647.678-.469 1.688-1.027 2.144.002.408.74.295.448.748-.475-.07-.942-.253-1.431-.096-.263.393-.064.655-.397.969-.781.737-2.451.048-3.294-.33-.303-.145-.612-.831-1.08-.404-.13.4.534.522.559.756-.092.473-.176.946-.316 1.416l.106.062-.062.107c.351.565.437 1.338-.059 1.71-.882.66-1.79-1.008-.33-1.68l-.048-.114.115-.048c-.494-1.33-1.835-.904-2.68-1.285-.078-.407.343-.636.507-.96.316-.624.505-1.345.683-1.945-.113.204-.192.285-.389.029l-.082.123-.145-.028c-.061.734-.236 1.458-.698 2.165-.199.22-.377.126-.565.183-.17.297-.1.355-.315.588-1.386 1.494-3.448-.164-2.091-1.799.224.218.18.418.454.639.61.274 1.063-.374.72-.837-.22-.295-.526-.163-.866-.278.41-.968 1.22-1.909 1.96-2.854l-.048-.114.113-.048c-.203-.29-.161-.564-.33-.851.69-.798 1.453-2.131 2.546-2.539 1.009.932-.035 1.706-.5 2.51-.344.597-.332 1.297-.777 1.716l-.062.107-.114.047c.12.267.307.537.389.8l.114-.047.114-.048c.312-.272.592-.038.887-.051.1-.164.353-.775.573-.294.33-.19-.262-.237-.088-.337a21.977 21.977 0 0 0 .895-1.82c.285-.655.5-1.478.954-1.871.253-.219.557-.04.69-.396-.863-.621.024-1.45-.8-2.1-.407-.32-1.202 0-1.68.331-1.256.868-2.663 2.617-3.39 3.588-.324.185-.585-.257-.764-.161-.972-.057-2.023 1.049-2.994.96l-.153-.176-.059.052-.051-.059c.406.597-.595.945-1.306 1.35-.548.311-.976.52-1.373.683-2.796 1.147-5.664 1.606-8.16 2.163-1.763.394-3.555.832-5.386 1.189-1.83.357-3.851.494-5.349-.191-1.12-.514-1.953-1.58-3.119-.485.13 1.457 1.64 1.272 2.561 1.387 1.534.19 3.126.293 4.55.58.44.09 1.042.105 1.35.477.123-.193.224-.05.345-.198l.001-.142.123-.07c-.345-.25-.977-.032-1.13-.463.064-.088.04-.182.184-.264 4.04-.625 8.109-1.679 12.151-2.34.263.204.745.6.822.94-.205.3-.358-.146-.565.183-.39.57.413.976.851.499.203.688.188 1.619-.69 2.054-.34.075-.666-.472-.843-.609-1.623.567-3.204.52-4.8.675l.01.148-.134.065.102.117c-.068.553-.787.58-1.122 1.086-.304.458-.099 1.18.279 1.622.2.233.661.402 1.005.675.261.208.402.472.624.594.824.455 1.92.088 2.348.433-.033.2.293.425.124.617zm27.85 20.874c.746-.629-.395-2.04-1.138-1.18-.737.854.509 1.711 1.138 1.18m.366-2.187c.442-.33-.142-1.073-.513-.586-.358.47.183.835.513.587m1.659-3.317c.087-.086.21-.17.073-.271l-.117.103c.052.059.014.112.044.168m-1.828.874c.151.112.294.056.559-.074.392-1.132-1.37-.528-.559.074m-3.257 2.436c.498-.347.336-.931-.088-1.167-.562.135-.484 1.128.088 1.167m3.662-4.344l.234-.206c-.01-.111-.06-.224-.198-.345-.099.11-.187.048-.286.147.005.214.02.29.25.404m.733-1.886l.155.176c.479-.28.89.473 1.394-.183.066-.353-.258-.723-.616-.704-.307.453-.81.362-.933.711m-5.995 4.52c.42.058.853-.526.279-.866-.427-.06-.794.529-.279.866m9.467-12.635c.266.237.042-.63.007-.11-.003.052-.077.048-.007.11M39.91 48.26c-.149-.146-.571-.197-.675.176-.127.986 1.248.384.675-.176m-9.363 7.777l.176-.154c-.101-.148-.208-.208-.323-.132.05.095.015.185.147.286m5.269-5.23c-.046-.078-.016-.15.014-.222-.152-.204-.316-.22-.491-.088-.065.254.218.548.477.31m3.162-3.494a.291.291 0 0 0 .294-.257c-.12-.155-.251-.105-.382-.08.102.117-.095.214.088.337m-5.914 4.967l-.103-.117c-.279-.1-.132.427.103.118m7.456-6.523c.303-.183.234-.39.095-.602-.413-.132-.55.53-.095.602m-4.308 2.42c.077-.044.148-.014.22.016.198-.097.016-.22.132-.323-.24-.298-.615.03-.352.308m7.727-6.45c.59-.03.766-.79.125-1.04-.631-.033-.784.827-.125 1.04m-7.213 5.379l.176-.154-.103-.118-.176.154.103.118m-6.26 5.164c.096-.05.186-.014.286-.146-.117-.168-.242-.233-.381-.08a.363.363 0 0 1 .095.227m-2.238 2.062c-.149-.253-.32-.178-.499.022.151.324.474.244.499-.022M49.993 35.5c.057-.237.078-.51-.235-.625-.705.132-.25.962.235.625m-12.218 9.964c.129.007.266-.115.404-.25-.166-.195-.03-.37-.294-.571-.247.26-.347.529-.11.821m-10.354 8.541c.117-.102.215.094.337-.089.173-.228.01-.478-.117-.726-.38.058-.617.528-.22.815m15.227-13.633l.235-.205-.206-.235c-.322-.041-.354.438-.029.44m-4.36 4.02c.21-.096.08-.215.243-.315l-.257-.293c-.1.11-.188.047-.286.146-.104.155.106.45.3.462m.58-2.061c.169.24.35.303.544.147-.027-.057-.011-.112.065-.162l-.256-.294c-.146-.014-.348.163-.353.309m-10.185 9.325c.287-.239.181-.503-.058-.778-.338.021-.333.708.058.778m.851-1.16c.221-.169.234-.352.037-.55-.114.046-.224.043-.338.089-.016.16.064.446.301.462m-.653-.154c-.01-.111-.06-.226-.198-.346l-.234.206c.135.179.273.327.432.14m19.543-17.823l.117-.102c-.063-.078.004-.147-.095-.228l-.177.155zM31.669 47.49c.134-.072.26-.002.397-.14-.008-.165-.016-.332-.242-.513-.34.018-.514.416-.155.653m-3.654 3.404c.155-.117.101-.25.191-.374-.202-.292-.422-.307-.66-.043-.01.236.296.431.47.417m-1.321-.087l-.206-.235-.176.154c.118.168.238.31.382.08M41.1 37.893c.143.056.287.109.447-.08.007-.129-.115-.266-.249-.404-.057.026-.118.1-.169.044-.143.138-.153.285-.03.44m-2.436 4.205c1.136-.662.049-1.471-.183-2.223-.102.567-.699.485-1.093.645 0 .598.49 1.704 1.276 1.578m-6.075 3.242c.377.153.885-.138 1.144-.586-.45-.724-1.507-.032-1.144.587m6.516-5.701c.2.043.403.022.623-.235.075-.86-1.329-.45-.623.235m-9.914 8.569c.082-.167.037-.488-.242-.513l-.236.205c-.009.241.297.423.478.308m-2.114 1.02c.152-.119.291-.238.301-.367-.42-.76-1.003.204-.3.367m20.642-19.407c.24.273.532.017.294-.257a.292.292 0 0 0-.294.257m1.776-.932c.647-.426-.291-1.277-.624-.594-.272.558.326.79.624.594m-.844-2.267c.218-.059.29-.026.403-.25-.118-.151-.238-.29-.366-.3-.22.17-.233.353-.037.55m3.288-2.876c.396-.268.416-.562.059-.88-.65-.12-.72.911-.06.88m-9.275 7.286c.444-.39-.398-1.283-.733-.602-.276.558.392.901.733.602m5.6-7.697c.11-.011.224-.06.344-.198a.366.366 0 0 1-.095-.228c-.134.073-.253-.075-.396.14.11.099.047.187.146.286m-.27-1.732c.116-.101.213.095.336-.088.212-.189.107-.398-.124-.617-.375-.02-.607.377-.213.705m-.896-2.326c.254-.075.288-.205.36-.419-.412-.654-.918.275-.36.419m-.785-1.49c.239.064.56-.218.529-.462-.322-.623-1.14.033-.529.462m-8.974 6.919a1.885 1.885 0 0 0 .55.037c.816-.983-1.24-1.12-.55-.037m8.402-8.284c.12.152.24.291.368.301.22-.17.232-.353.036-.55-.218.058-.29.026-.404.25m-6.736 6.515c.164.119.38.127.675-.176-.06-1.105-1.323-.295-.675.176m-1.915.535c.218-.173.314-.456-.11-.836-.999.006-.45 1.277.11.836m-4.257 2.48c-.37-.37-1.101.17-.49.741.57.1.779-.453.49-.741m.698-1.335c-.027-.058-.01-.112.066-.162a.893.893 0 0 0-.462-.528c-.918.144-.23 1.474.396.69m2.12-2.789c.13-.011.255.055.382.081 1.049-.913-1.106-1.143-.381-.08m16.71-16.795l-.104-.118c-.279-.1-.132.427.103.118m-9.782 5.76c.266.202.541.003.573-.294l-.257-.294c-.31-.014-.511.288-.316.587m-9.884 6.472c.143-.139.153-.285.03-.44-.112.01-.226.06-.346.198.096.24.109.179.316.242M19.99 28.69c.433-.071.931-.536.395-.969-.522-.046-.705.62-.395.969m8.203-7.8c.35-.253.407-.526.11-.822-.056.027-.11.011-.161-.066-.648.072-.489.905.051.888m-2.964.52c.068.084.14.106.213.126.17-.118.122-.25-.03-.39-.106.085-.17.173-.183.265M43.377 4.6c.178-.135.326-.273.14-.433-.112.01-.226.06-.346.199l.206.235M22.323 22.709l.154.177c.266.001.494-.335.147-.544-.152.12-.29.239-.3.367m1.907-2.083c.253-.15.178-.32-.022-.5a.37.37 0 0 1-.227.096c.009.153.012.393.25.404m17.31-15.871l.118-.102c-.009-.142-.063-.199-.213-.125.063.077-.005.147.095.227m-19.806 16.81l.176-.155c-.101-.137-.211-.144-.33-.021l.154.176m6.37-5.987c.172.174.356.187.55.036-.101-.117.095-.215-.088-.337-.126-.042-.25-.11-.389.029-.071.087-.014.183-.073.272m9.569-8.373c-.694-.633-.397.804 0 0m-6.296 4.888l.176-.155-.154-.176-.118.103c.063.078-.004.147.096.228m-11.631 8.62c-.186-.254-.377-.428-.587-.315.072.296.349.27.587.315m-2.172 1.9c-.01-.129.057-.254-.03-.388-.294-.012-.584-.078-.887.05.087.408.616.455.917.338M30.806 9.07c.112-.01.226-.06.346-.198.014-.145-.162-.347-.308-.353-.221.17-.234.354-.037.551m-1.798 1.262l.117-.103c-.052-.058-.014-.111-.044-.169-.077.063-.147-.003-.227.096l.154.176m-1.028 1.313c.482.245 1.16-.509.507-.96-.525-.18-1.015.481-.507.96M17.847 20.2c.25-.186.22-.391-.014-.61a.305.305 0 0 0 .014.61m-2.48 1.548c.168.004.572-.287.308-.477-.242-.106-.517.25-.308.477M29.53 6.662c.206.184.341.14.448-.081-.142-.295-.435-.132-.448.081m-4.8 3.162c.137.24.39.031.397-.139-.137-.239-.39-.03-.396.14m3.801-4.777c.22.361.707-.016.792-.279l-.205-.235c-.185.004-.558.33-.587.514m1.292-1.96c.251.037.767-.155.587-.513-.256-.163-.905.124-.587.514m-6.04 1.034c.078-.045.149-.015.221.015.288-.22.316-.459.103-.712-.408-.232-.83.296-.323.697m2.73-1.974c.73-.544-.403-1.764-.888-.778-.29.588.388 1.15.888.778m-3.471 1.482c-.086-.104-.177-.11-.272-.074-.009.16.113.304.272.074m-2.216-.756l.176-.154-.103-.117-.176.154.103.117m-1.732 1.1c.235-.15.259-.314.198-.483-.057.027-.111.01-.162-.066l-.234.204c.01.112.06.226.198.346M20.248.79c.227.417.668-.084.242-.315-.153.1-.217.207-.242.315m-.426-.25l.258.294c-.01.129-.15.248-.301.367-.438-.079-.372-.623.043-.66" fill="white" fill-rule="evenodd"/></svg>