<svg xmlns="http://www.w3.org/2000/svg" width="178.331" height="245.71" viewBox="0 0 47.183 65.011"><path d="M39.254 37.758a.11.11 0 0 0-.064.14c.845 2.268 1.48 4.642 2.095 6.937l.889 3.233a.107.107 0 0 0 .133.074.11.11 0 0 0 .075-.135l-.887-3.228c-.616-2.3-1.253-4.68-2.101-6.957a.109.109 0 0 0-.14-.064m-1.781-5.251v.133a.04.04 0 1 0 .081 0v-.133a.04.04 0 0 0-.04-.04.04.04 0 0 0-.04.04M17.551 10.251a.052.052 0 0 0-.047.057c.01.11.059.203.106.293.043.08.082.156.091.237a.053.053 0 1 0 .105-.012.769.769 0 0 0-.103-.274.71.71 0 0 1-.095-.254.053.053 0 0 0-.057-.047m2.827 21.495l-.17.445-.133.337a.102.102 0 0 0 .06.133.106.106 0 0 0 .134-.06l.13-.332.175-.455a.102.102 0 0 0-.06-.13.107.107 0 0 0-.136.062m1.284-7.374c-.011.041.017.072.058.082.041.01.085-.027.095-.068l.03-.114c-.011.04-.051.06-.092.05-.042-.01-.065-.058-.055-.1zm1.544 1.031l-.156.461c-.134.387-.272.787-.353 1.204a.108.108 0 0 0 .086.127.108.108 0 0 0 .126-.087c.077-.4.212-.793.344-1.173l.158-.465a.106.106 0 0 0-.069-.136.109.109 0 0 0-.136.07m-1.947-1.095a.042.042 0 0 0-.02.055c.166.344.311.707.452 1.059.24.598.486 1.217.836 1.755a.042.042 0 0 0 .057.012.042.042 0 0 0 .012-.058c-.345-.53-.591-1.145-.829-1.74-.14-.353-.286-.718-.453-1.064a.04.04 0 0 0-.055-.02m-4.037-.022a.092.092 0 0 0-.088.098.837.837 0 0 1-.071.32 1.15 1.15 0 0 0-.083.331.092.092 0 0 0 .088.097.092.092 0 0 0 .098-.087.983.983 0 0 1 .071-.277c.044-.122.09-.249.082-.394a.093.093 0 0 0-.097-.088m-9.419-1.244a.082.082 0 0 0-.077.087l.046.665.086 1.448a.083.083 0 0 0 .087.078.08.08 0 0 0 .077-.085l-.086-1.453-.045-.664a.082.082 0 0 0-.088-.076m8.995-1.635a.116.116 0 0 0 .01.164c.126.113.212.263.303.432a.116.116 0 0 0 .204-.112c-.102-.188-.199-.355-.353-.493a.116.116 0 0 0-.164.01m.886 1.5a.083.083 0 0 0-.08.087c.008.164-.05.308-.112.46l-.014.034a.084.084 0 0 0 .047.109.083.083 0 0 0 .108-.046l.014-.034c.065-.162.133-.33.124-.53a.083.083 0 0 0-.087-.08m-1.067 1.147l-.133.175c-.166.212-.337.432-.369.733a.102.102 0 1 0 .203.022c.026-.243.172-.43.327-.628l.138-.183a.1.1 0 0 0-.021-.14.104.104 0 0 0-.145.021m2.996-3.382c-.02.01-.032.032-.021.054l.281.62c.142.29.289.59.375.896a.043.043 0 1 0 .082-.023c-.089-.314-.237-.617-.38-.91l-.28-.614a.044.044 0 0 0-.057-.023m1.078 3.542l-.175.462c-.023.061.01.12.071.143.061.024.133-.016.157-.077l.082-.215.093-.249c.024-.061-.01-.12-.072-.144-.061-.023-.133.018-.156.08m-2.934-.053a.105.105 0 0 0-.021.147c.159.217.268.463.383.722l.022.051a.104.104 0 0 0 .138.054.105.105 0 0 0 .053-.139l-.022-.05c-.115-.26-.233-.527-.407-.762a.105.105 0 0 0-.146-.023m.76-5.151c-.057.11-.073.224-.089.335l-.019.122a.108.108 0 0 0 .085.124.1.1 0 0 0 .12-.083l.021-.134a.816.816 0 0 1 .067-.267.104.104 0 1 0-.184-.097m4.384-1.26a.058.058 0 0 0 .036.074c.294.105.553.318.693.569a.058.058 0 0 0 .079.022.058.058 0 0 0 .021-.08 1.432 1.432 0 0 0-.755-.62.058.058 0 0 0-.074.036m-3.445-2.353l-.23.425c-.19.379-.387.771-.765.954a.05.05 0 0 0 .042.088c.409-.197.613-.604.81-.998l.226-.417c.013-.024.006-.057-.018-.07a.047.047 0 0 0-.065.018m-5.67-.778l-.024.005c-.103.021-.23.047-.32.16a.123.123 0 1 0 .191.155c.033-.04.09-.055.178-.073l.026-.005a.123.123 0 0 0 .095-.146.124.124 0 0 0-.146-.096m.002.07a.057.057 0 0 0-.028.074c.07.154.114.316.16.488l.159.492c.01.03.04.04.068.03.03-.009.044-.046.035-.076l-.153-.475c-.046-.17-.092-.344-.166-.506a.056.056 0 0 0-.075-.028m.017-.188l-.027.036-.088.125a.14.14 0 0 0 .038.198c.065.046.16.025.205-.04l.078-.11.027-.038a.145.145 0 1 0-.233-.171m1.604-.36a.09.09 0 0 0 .077.164c.105-.049.222-.041.345-.032l.291-.005c.05 0 .074-.04.074-.09 0-.05-.057-.088-.106-.088l-.246.002c-.134-.01-.286-.02-.435.05m2.438 1.108a.083.083 0 0 0-.037.112c.203.41.38.854.593 1.485a.083.083 0 1 0 .158-.052c-.216-.64-.396-1.09-.602-1.507a.083.083 0 0 0-.112-.038m.469 1.556l-.005.24-.004.205c-.002.092.07.178.162.18.092.002.167-.06.169-.153l.01-.443c.002-.092-.07-.179-.163-.18-.091-.003-.167.06-.17.151m.13.406l-.103.047c-.139.061-.297.131-.378.285a.059.059 0 0 0 .025.08.059.059 0 0 0 .08-.025c.061-.117.187-.173.321-.231l.109-.05a.058.058 0 0 0 .028-.078.061.061 0 0 0-.082-.028m-.56.257a.102.102 0 1 0 0 .205h.131a.102.102 0 0 0 0-.205zm.115.043a.061.061 0 0 0-.043.076c.058.215.18.662.574.737a.061.061 0 0 0 .072-.048.062.062 0 0 0-.049-.072c-.28-.054-.396-.344-.479-.65a.061.061 0 0 0-.075-.043m-2.358-2.766a.04.04 0 0 0 .019.053c.125.06.232.158.335.252.143.132.291.268.497.313a.04.04 0 0 0 .047-.031.04.04 0 0 0-.03-.047c-.184-.04-.318-.164-.46-.294a1.472 1.472 0 0 0-.355-.265.04.04 0 0 0-.053.019m1.05.86c-.027.004-.046.032-.042.06l.056.374.017.009c.52.367.838.993 1.117 1.545a.05.05 0 0 0 .067.022.048.048 0 0 0 .022-.067c-.267-.529-.6-1.183-1.13-1.566l-.052-.339c-.003-.027-.028-.043-.055-.038m1.15 1.94a.292.292 0 0 1-.114.116.049.049 0 0 0-.018.066.048.048 0 0 0 .067.018c.056-.033.1-.07.148-.15a.049.049 0 1 0-.083-.05m.42 2.98l-.099.47c-.074.37-.15.754-.292 1.103a.085.085 0 1 0 .158.065c.149-.365.226-.756.302-1.134l.098-.465a.087.087 0 0 0-.066-.104.084.084 0 0 0-.1.065m2.696-6.893l-.11.33a.119.119 0 0 0 .072.15.114.114 0 0 0 .146-.07l.11-.331a.12.12 0 0 0-.073-.15.113.113 0 0 0-.145.07m-9.802 2.98c-.9.879-1.666 1.878-2.215 2.89a.109.109 0 0 0 .042.147.109.109 0 0 0 .148-.043 12.117 12.117 0 0 1 2.176-2.838.109.109 0 1 0-.151-.155m7.45-3.106c-.068.181-.02.35.021.497l.05.235c.01.052.063.1.115.09.052-.011.087-.047.077-.1l-.056-.278c-.04-.137-.073-.255-.027-.377a.096.096 0 1 0-.18-.067m-.672 1.281a.096.096 0 0 0-.08.11.097.097 0 0 0 .11.082c.44-.069.89.054 1.323.173l.086.023a.098.098 0 0 0 .119-.068.098.098 0 0 0-.069-.12l-.085-.023c-.453-.124-.923-.252-1.404-.177m-1.704-.617c-.016.04-.004.083.035.1l.228.095.23.1c.04.017.095.004.112-.035.018-.04.008-.082-.031-.098l-.258-.115-.206-.086c-.04-.016-.093-.001-.11.039m-2.04.236l-.202.037-.09.02a.13.13 0 0 0-.098.15c.015.067.077.11.143.095l.106-.024.151-.029c.068-.013.129-.08.116-.147-.012-.067-.06-.114-.127-.102m-.173-4.85c-.64 1.574-.808 2.954-.498 4.098l.003.013.01.009c.202.212.242.506.281.79l.012.083.058.069a.05.05 0 0 0 .09-.032.047.047 0 0 0-.012-.032l-.04-.048-.007-.053c-.04-.295-.085-.598-.298-.833a4.441 4.441 0 0 1-.147-1.155c0-.86.215-1.82.642-2.872a.044.044 0 0 0 .004-.02.05.05 0 0 0-.098-.018m-.776-4.21a.074.074 0 0 0 .034.1c.705.343.966 1.086 1.218 1.804l.152.421a.072.072 0 0 0 .093.043.075.075 0 0 0 .044-.096l-.15-.416c-.262-.747-.533-1.519-1.293-1.89a.073.073 0 0 0-.098.034m1.34 2.247l-.023.074a.144.144 0 0 1 .178-.096.14.14 0 0 1 .095.173l.014-.048c.022-.075-.016-.164-.09-.187-.075-.023-.15.009-.174.084m1.558-2.077c-.241.29-.44.624-.632.948-.24.408-.49.83-.823 1.15a.044.044 0 0 0-.001.06.042.042 0 0 0 .06.001c.342-.328.594-.754.838-1.167.19-.32.386-.653.624-.936a.044.044 0 0 0-.006-.061.044.044 0 0 0-.06.005m-4.172.357c-1.135.766-1.678 2.077-2.059 3.26a.042.042 0 0 0 .027.052.04.04 0 0 0 .052-.026c.376-1.17.912-2.466 2.025-3.217a.04.04 0 0 0 .011-.058.04.04 0 0 0-.056-.01M9.12 12.908c-.086.212-.172.441-.183.694a.1.1 0 1 0 .2.009c.01-.221.089-.431.169-.627a.1.1 0 1 0-.186-.076m-1.91 10.256C6 26.703 5.59 30.759 6.02 34.895a.075.075 0 0 0 .084.067.077.077 0 0 0 .067-.084c-.429-4.113-.02-8.146 1.182-11.664a.076.076 0 0 0-.047-.097.075.075 0 0 0-.097.048m4.565 8.853a.097.097 0 0 0-.063.123c.134.416.23.77.305 1.114a.097.097 0 1 0 .19-.042 11.795 11.795 0 0 0-.31-1.132.098.098 0 0 0-.122-.063m9.845-9.953a.07.07 0 0 0-.046.089.677.677 0 0 1 .03.238.07.07 0 0 0 .065.074.07.07 0 0 0 .074-.065.803.803 0 0 0-.036-.29.07.07 0 0 0-.087-.045m-1.892-1.668a.091.091 0 0 0 .008.128c.503.447.803 1.112.986 1.574a.091.091 0 0 0 .118.051.091.091 0 0 0 .05-.118c-.189-.48-.502-1.17-1.033-1.643a.091.091 0 0 0-.129.008m-1.173-1.355a.059.059 0 0 0 .04.073c.263.08.346.342.42.651a.058.058 0 0 0 .07.043.058.058 0 0 0 .044-.07c-.064-.267-.152-.633-.501-.737a.059.059 0 0 0-.073.04m-.014-.896c-.066.002-.116.072-.114.14l.01.293c-.004.17-.007.346.063.524a.12.12 0 1 0 .222-.088c-.052-.132-.049-.278-.046-.43l-.013-.34c-.003-.065-.056-.102-.122-.1m-.105-.985a.11.11 0 0 0-.066.143c.09.247.08.536.069.817l-.005.142a.11.11 0 0 0 .107.115.112.112 0 0 0 .115-.109l.005-.14c.01-.287.023-.614-.082-.902a.11.11 0 0 0-.143-.066m5.805 1.686a.059.059 0 0 0-.013.081c1.502 2.076 2.137 4.588 2.658 6.983a.059.059 0 0 0 .07.046.06.06 0 0 0 .044-.07c-.524-2.408-1.162-4.933-2.678-7.027a.058.058 0 0 0-.081-.013m.314-9.254c-1.326 1.327-2.89 3.155-3.222 5.522a.088.088 0 1 0 .175.024c.325-2.315 1.865-4.113 3.172-5.42a.09.09 0 0 0 0-.126.088.088 0 0 0-.125 0m-1.764.79l-.068.035-.057.026a.062.062 0 0 0-.029.084.064.064 0 0 0 .086.03l.052-.025.087-.046c.03-.015.036-.05.02-.08-.016-.031-.06-.04-.092-.024M20.865 12.9a2.361 2.361 0 0 0-.476.818.07.07 0 0 0 .044.088.069.069 0 0 0 .087-.044 2.222 2.222 0 0 1 .447-.768.07.07 0 0 0-.004-.099.069.069 0 0 0-.098.005M33.91 38.72a.066.066 0 0 0-.05.08c.062.267.106.53.13.785a.066.066 0 0 0 .072.06.066.066 0 0 0 .06-.073 6.187 6.187 0 0 0-.134-.802.066.066 0 0 0-.078-.05m-5.664-2.05l-.001.254c-.003.635-.006 1.292.033 1.93a.048.048 0 0 0 .05.044.047.047 0 0 0 .045-.05c-.039-.636-.036-1.29-.034-1.923l.001-.254a.048.048 0 0 0-.047-.048.047.047 0 0 0-.047.047m5.368-.678c-.007.027.009.059.035.066.026.006.052-.004.058-.03l.036-.144c-.008.027-.035.048-.061.042-.027-.007-.044-.028-.037-.056zm-21.171-1.87a.072.072 0 0 0-.06.082l.005.033.032.144c.008.037.042.053.08.045s.06-.053.052-.09l-.025-.118-.005-.037a.07.07 0 0 0-.08-.058m25.596.106a.106.106 0 0 1-.132-.073c.091.316.212.636.33.945.166.434.336.882.425 1.327a.107.107 0 0 0 .208-.043c-.092-.461-.266-.918-.434-1.36a12.14 12.14 0 0 1-.325-.928.106.106 0 0 1-.072.132m-4.561-.009c-.018.272.02.539.055.797l.01.08a.085.085 0 1 0 .17-.024l-.01-.08a3.764 3.764 0 0 1-.055-.762.085.085 0 0 0-.17-.01M2.77 40.866C2.734 39.813 1.163 39.121.4 39.81a7.145 7.145 0 0 0-.33.728c-.19.526.058.993.198 1.321 1.038.738 2.548.306 2.503-.99m39.507 7.17l-.121-.034c.023.856.35 1.405.527 2.049.412 1.505.688 2.756 1.054 4.295.291 1.227.63 3.046.922 4.362.125.563.346 1.162.263 1.52-.084.365-.733.754-.988 1.056-.334.399-.633.868-.659 1.389-.088 1.826 2.256 3.067 3.426 1.85.968-1.007.308-2.74-.461-3.502-.313-.31-.694-.466-.857-.86-.168-.408-.163-1.007-.263-1.52-.483-2.493-1.138-4.906-1.778-7.137-.365-1.269-.533-2.67-.988-3.568zM16.47 8.484c-.228-.343-.41-.733-.856-.859-.136.194-.39.27-.329.661.067.065.133.13.197.198.519.05.722-.514.988 0m-8.628 16.72c-.039.237.077.32.132.463.164.026.195-.413.066-.463l-.1.034zm9.682-1.784c-.269.214-.794.173-.856.595l.033.099.033.098c.181-.173.362.026.395.2l.098-.034.1.033c.13-.062.313-.215.46-.066l.033-.099.033-.1c-.009-.254-.222-.305-.197-.594l-.099-.033zm-.395-1.388c.039.215-.045.308-.066.462-.096.103-.337.059-.527.067-.023.331.295.32.461.462.3.038.279-.249.593-.198v.198l.099-.032.098.032c.109-.288.241-.551.264-.924l-.099.032-.033-.099c-.265.14-.482-.06-.659-.199l-.046.114zm-.461-7.6c.069.444-.103.646-.264.86l.1.033-.1.033c.077.099.083.27.198.33l.099-.033.099.033c-.063-.746.85-.8 1.053-.264l.034-.1.098.034c-.008-.163-.01-.319.066-.397l-.099-.077.033-.121c-.608.037-.784-.36-1.251-.462l.033.099zm-.593-.132h.263l-.032-.098.032-.1c0-.33-.23-.103-.329 0l.1.077zm-4.083 18.9c-.032.318.116.456.329.53.156-.19-.006-.484-.132-.596l-.076.1zm10.735-6.212c-.084.004-.09.085-.198.066l.034.1-.1-.034c.237.417.008.913.132 1.388-.604.82-1.421 1.538-.987 2.776.38 1.086 2.796 1.781 3.556.793.275-.357.226-1.035 0-1.454-.627-1.16-2.794-1.662-2.24-3.569l-.12.034zm-2.042-4.956c.022.153-.01.254-.065.33-.207.032-.174-.178-.33-.197v.065h-.065c-.04.138-.164.189-.132.397.545.234.888.96.592 1.652l.121-.033.077.1c.13-.002.084-.18.264-.134.031.079.07.15.131.2v-.067h.066c-.046-.164.282-.28.33-.133l.098.034.033.1c.052-.016.077-.057.066-.134.336.149.803.164 1.185.265.08.295.17.58.132.992l.121-.033.077.099c.212-.14.294-.411.395-.661-.066-.308-.442-.306-.46-.662.439-1.181-.34-2.15-1.581-1.85l-.066.034-.066-.034c-.37.26-.657-.131-.725-.396l-.077.1zm-1.712-2.313h-.33c-.01-.078.012-.188-.065-.198l-.066-.033-.066-.033c-.102.338-.145.736-.197 1.123l.098-.033.099.033c.051-.014.077-.055.066-.131.446-.393 1.018-.262 1.12.33v-.067h.065c.014-.074.074-.103.132-.132l-.033-.12.1-.078c-.163-.344-.599-.413-.791-.727l-.033.1zm5.73-9.979c.472-.176.596-.523 1.12-.528.365-.004.617.316 1.054.462 1.056.353 2.601.203 2.766-.793.156-.946-.798-1.328-1.383-1.388-1.792-.183-2.562 1.399-3.755 2.115l.113.047zm-3.82 3.305c.373.077.048.386.066.66l.12-.033.078.1c.39-.648.503-1.425.856-2.05.24-.423.719-.682.79-1.189l-.098-.032.032-.1c-.743-.009-.88.732-1.185 1.256-.288.493-.566.894-.725 1.255l.099.034zm-.33 3.899h.198c.363.605.813 1.122 1.58 1.321.325.273.44.99.198 1.454-1.619.995-2.42-1.08-1.975-2.775m3.128 1.42l-.099-.032v.263c-.435.228-.847-.335-.658-.726h.066l-.033-.1.098-.033c-.417-.154-1.035-.584-.658-1.123.643.236 1.106.653 1.647.992.027.29-.018.51-.132.66h-.198zM12.32 16.35c.343.017.335.758.131.925-.354-.008-.62-.863-.131-.925m-.395-6.476c-.066 1.211-.084 2.272.131 3.833.106.763.436 2.054-.329 1.982-.38-.035-1.142-2.074-1.383-2.51-.15-.27-.46-.598-.527-.992-.24-1.395 1.105-3.73 2.108-2.313m2.14-.298l-.033.1c1.419.398.46 2.734.659 4.23a2.907 2.907 0 0 1-.527.527l.033.1-.033.098c.462.005.535.855.132.992h-.132l-.033.099-.099-.033c.08.301-.18.26-.132.53.102.117.396.042.461.197.118.56-.047 1.168-.131 1.718a.753.753 0 0 1-.922-.264c-.11-.165-.512-1.72-.395-2.247.103-.464.498-.508.724-.727l-.099-.033-.032-.099c-.216.004-.252.188-.527.132-.376-.263-.35-.838-.396-1.322a37.117 37.117 0 0 1-.132-3.965c.247-.475 1.262-.658 1.515-.066v.066zm.631-1.87l-.137-.013c.276 1.54-1.692.473-1.844-.463-.12-.733.28-1.365.592-1.784V5.38h.067c-.004-.085-.085-.092-.066-.198-.003-1.382.811-1.674 1.383-2.511.604-.886.913-2.413-.263-2.644-1.216-.238-2.139 1.125-2.174 2.18-.025.768.414 1.428.395 2.115-.019.712-.377 1.055-.724 1.586h.066v.066c.805.743-.41 1.65-.79 2.049-.636.668-.785 1.405-1.055 1.388-.163-.01-.137.014-.131-.265H9.95v-.065c-.013.571-.77.258-1.054.198-.252-.054-.53-.217-.856-.133-.97.252-.581 1.643-.132 2.181.424.508 1.297.758 1.185 1.653l.122-.033.076.099h.198c.402.333.595.933.922 1.52.362.65 1.023 1.298.724 2.048l.099.077-.033.121c.642-.14.92.97.922 1.19.004.37-.554 1.73-.724 1.982-.247.366-.782.612-.79.926-.014.476.769.798 1.053 1.123.375.429.682.933.461 1.652-1.724.3-3.628-1.502-2.173-2.908-.175-.507-.806-.556-.791-1.255l-.12.033-.077-.099c-.696.318-.735-.476-.856-1.256-.096-.609-.263-1.299-.264-1.652-.002-.693.96-1.224 1.185-1.784.15-.37.125-.772.132-1.19l-.12.033-.077-.098c-.16.037.03.427-.198.396-.739-.252-.277-1.254-.856-1.718-.638-.513-1.575.013-1.712.594-.308 1.31.82 1.945 1.12 3.107.087.34.035.866.065 1.255.076.989.389 1.801.527 2.577-.147.418-.472.784-.79 1.256-.305.45-.464 1.005-.857 1.255-.297.19-.88.373-1.317.265-1.03-.256-1.022-2.753-2.635-2.445-.933.178-.637 1.728-.395 2.115.326.517 1.181.967 1.91 1.057 1.505.185 2.91-1.091 3.36 0l.098-.033.033.099c.092-.101.244-.286.396-.132l.098-.034.099.034v-.133c.313-.238.635-.46.988-.396.324.058.482.513.79.793.663.603 1.46.894 2.503.792.811.618.146 1.798 0 2.776-.053.353.009.687-.066.991-.116.475-.438.844-.527 1.19-1.066.22-1.227 1.069-1.844 1.784-.38.441-1.017.697-1.317 1.058-.81.973-.533 2.948-2.174 3.172.027-.16-.12-.144-.065-.33l-.1.032-.098.033c.026.481.199.814.132 1.388.137.304.444.435.527.793.34-.254.703-.213.988-.396.393-.254.483-.743.856-1.322.267-.414.756-.739.922-1.058.368-.709.457-1.62 1.054-1.982.324-.196.814-.225 1.251-.132l.077-.1.12.034c.28-.603.58-.838.593-1.388.019-.786-.957-1.786-.066-2.445.381.146.566.49.593.992.834.635.718 1.982 1.054 3.37.182.75.45 2.023 1.251 1.982.392-.02.613-.57.988-.661.62-.149 1.296.265 1.977.132.573-.11.756-.663 1.382-.462.195-.378.501-.643.593-1.123l-.117.023-.08-.09c-.64-.295-.461-.685-.79-1.123-.187-.247-.694-.624-.988-.727-.713-.25-1.725.03-1.713-.793.006-.37.408-.508.79-.793.506-.376.887-.941 1.515-.859.412.054 1.3 1.03 1.515 1.652.252.726.062 1.257-.066 1.983l.12-.033.078.099c.642-1.031.385-2.214-.198-2.974-.257-.335-.846-.61-.856-.991-.007-.265.478-.761.725-1.057.592-.716.79-1.028.526-2.181l-.12.033-.077-.1c-.606.21-1.747 1.232-2.24.33l-.077.1-.12-.033v.198c-.212.159-.718.198-.922 0v-.198l-.121.033-.077-.1c-.119.25-.446.207-.659.067v-.066l-.12.033-.078-.1c-.35.042-.57-.319-.394-.594-.076-.056-.177-.087-.33-.067-.154-.373-.302-.753-.263-1.321.535-.413.567-1.876 1.647-1.321l.085-.087.112-.046c-.132-.285-.538-.297-.79-.462-.39-.884.677-1.343.263-2.05-.713.109-1.34.502-1.712-.197.005-.48-.019-.989.197-1.256-.1-.798-.121-2.05.198-2.643h.527v-.066h.066c-.174-.155-.301-.16-.198-.462l-.099-.078.033-.121c-.11-.026-.315-.071-.395-.198-.122-.194-.081-2.512 0-2.974.021-.119.084-.192.132-.264.68.005 1.19.646 1.778 1.123.71.576 1.421 1.02 1.58 1.784l.121-.033.078.1c.559-.164 1.222.822.724 1.321h-.132l.033.122-.098.076c.09.041.01.255.131.265h.066v.066c.116-.06.192-.16.33-.199.782.464.25 1.441.197 2.248-.097 1.466.226 2.806 1.515 2.841.567.015 1.003-.53 1.58-.397.321.075.553.665.79 1.124.197.378.636.962.593 1.321-.046.4-.459.36-.46.728 1.112.966 1.742 2.39 2.436 3.832.509 1.058 1.012 2.18 1.318 3.305.35.4.493.999.724 1.52.663 1.491 1.563 3.354 1.91 4.956.102.468.023 1.424.66 1.321.166-.495-.115-1.03-.264-1.453-.834-2.355-1.587-4.628-2.503-6.807-.373-.887-.925-1.732-1.12-2.644-.1-.468-.006-.908-.197-1.321l-.066.033-.066-.033c-.38.173-.632-.885-.857-1.388-.537-1.204-.956-2.043-1.515-3.172-.412-.833-1.265-1.767-.328-2.313h.131l-.033-.098.099.032v-.132c1.16-1.038 2.198.792 1.778 2.181.237-.023.317-.101.527 0 .653.684 1.296 1.189 1.58 2.115.115.371.048.787.199 1.19.472 1.261 3.098 1.425 2.766-.596-.177-1.072-1.066-1.038-1.58-1.85-.318-.5-.168-.963-.265-1.652-.06-.439-.585-.811-.921-1.124-.286-.265-.728-.838-.989-.859-.33-.026-.708.474-1.12.463-.356-.01-.834-.183-.856-.727-.014-.356.486-.78.725-.991.373-.33.632-.557.922-.793.48-.391 1.525-1.303 2.108-1.388 1.222-.178 2.673 1.288 3.688.462.093-.074.273-.274.33-.528.215-.97-.548-1.633-1.186-1.785-1.577-.372-2.31.622-3.227 1.256-.677.467-1.712 1.045-2.24 1.52-.278.25-.715.777-.922.992-.188.195-.63.764-1.186.726-.43-.029-.9-.594-1.514-.925-.694-.374-1.792-.531-1.449-1.388l-.121.034-.077-.1c-.598.01-.33-.688-.263-1.058l-.12.034-.078-.099c-.066 0-.078.054-.132.065-.173.02-.216-.09-.197-.263l-.1.032-.032-.098c-.547.243-.884-.498-1.251-.86-.417-.409-.848-.665-1.054-.99-.116-.105-.087-.355-.198-.464.04.172-.026.239-.198.199-1.137-1.084-2.977-1.462-2.897-3.767zm24.232 51.929c.004-.114-.05-.17-.131-.198-.094.096-.096.256.132.198m3.622-2.974h.132v-.132h-.132zm-3.623-2.643h.198v-.133h-.198zm-1.053-1.85c.004-.114-.05-.17-.132-.199-.094.097-.097.256.132.198m-1.646-6.872c.203.14.676.092.592-.265-.096-.348-.761-.23-.593.265m-10.538-.53v.2c.478.34.478-.54 0-.2m9.09-.197h-.264a.141.141 0 0 0 .263 0M.202 43.576c.084.09.322.102.33-.065-.085-.09-.323-.102-.33.065m5.072-.66c.098.105.375.096.329-.133-.164-.01-.32-.012-.33.132m14.161-.925c.045.052.393.173.33-.066-.028-.146-.361-.063-.33.066m4.874.133c.063.259.54.378.725.132v-.33c-.2-.255-.716-.128-.725.198m-7.31-1.85c.128.077.368.216.526.065.038-.242-.502-.283-.527-.066m17.059-.694l-.066-.032c-.188.123-.199.623.132.594.014-.052.055-.077.131-.066-.01-.187.057-.454-.131-.462zm-26.148-1.09c.003.199.468.192.396-.066-.066-.162-.403-.177-.396.066m12.712-.265c.045.052.392.173.329-.066-.027-.146-.36-.063-.33.066m-18.112-.066v.265c.211-.01.504.065.461-.199-.001-.191-.372-.156-.46-.066m31.35-.33c.01-.046-.023-.384-.066-.198-.057.252.036.33.066.198M14.1 37.232c.088.095.373.095.461 0v-.263c-.222-.114-.498-.063-.46.263m6.98-.462c-.125-.028-.118-.19-.329-.132-.238.298.261.427.33.132m7.245 2.082l-.066-.034c-.038.117.08.389-.066.397-1.13.457-1.614-.895-2.7-.727-.456.07-.858.403-.79 1.058.074.726.965.797 1.514 1.189.718.512.96 1.36 1.778 1.454.795.09 1.46-.406 1.58-.925.301-1.288-.703-1.531-1.185-2.115v-.264zm-12.251-2.214h.132c.003-.085.084-.092.065-.199h-.197zm17.586-.628l-.066-.033c-.144.282-.086.86.197.925.043-.257.172-.778-.065-.925zm-20.22-.496h-.396c-.269.325.539.533.395 0m3.426-.793c.174 0 .387.037.394-.132-.128-.175-.388-.148-.395.132m-4.38-.363l-.098-.034c-.015.237.095.346.329.331.07-.175.05-.376-.198-.396zm15.84.297c.137-.357.155-.644-.131-.859-.295.276-.168.678.132.859m-3.162-.727h.198v-.132h-.198zm-1.58.066c-.543-.851-2.193-.912-2.57.067-.14.365-.12.916-.065 1.19.158.768 1.175 1.208 1.646 1.65.225-.258.459-.509.988-.462-.12-.982.555-1.575 0-2.445m13.832-2.048c.065-.262.091-.48-.066-.661-.661-.014-.278.608.066.66m-28.98-.99c-.016.25.41.25.395 0-.028-.148-.35-.052-.395 0m.592-.265c.099.105.376.096.33-.132-.163-.01-.32-.012-.33.132m24.535 3.535l.099.034c.15-.07.024-.416.066-.595.982-.695 1.904-1.324 1.383-2.445-.572-1.23-3.338-1.206-3.03.859.158 1.06 1.49.99 1.383 2.18zM18.71 28.773c-.058-.05-.189.041-.198.067-.094.249.328.047.198-.067m17.585.2c.085.09.311.09.395 0v-.265c-.185-.08-.42-.039-.395.264M20.29 28.51v.199c.233.035.34-.056.395-.199-.084-.09-.31-.09-.395 0m15.741-.793v.265c.194.06.203.06.395 0v-.265c-.083-.09-.31-.09-.395 0M8.04 27.584c.088.094.373.094.46 0v-.264c-.222-.113-.498-.062-.46.264m3.161-.463c.214.208.72.17.725-.198-.09-.39-.821-.323-.725.198m24.238-.726c.045.197.262.221.527.198-.002-.155.114-.194.065-.396-.179-.176-.557-.117-.592.197m-25.423-1.387c.208-.012.393-.046.395-.265-.168-.488-.905.048-.395.265m5.664-2.247c.074.014.102.073.132.132.126-.028.283-.024.263-.198-.09-.187-.328-.104-.395.066m-5.928-3.04h.198v-.198h-.132c-.003.085-.085.092-.066.198m24.304-.132c.179.131.633.097.592-.198-.088-.381-.87-.172-.592.198m-12.185-.925h.132v-.132h-.132zm-19.825-1.19c-.058.303.52.265.395-.066-.162-.009-.317-.01-.395.066m17.19-.197c.214.037.331-.02.396-.133.038-.347-.313-.304-.395-.529-.03.304-.217.43 0 .661m15.083-.594c.214.016.316-.08.328-.265-.077-.077-.232-.075-.395-.066-.073.208-.03.175.067.33m-.33-1.321c-.057.25.295.234.395.132.056-.25-.295-.234-.395-.132m-.198-1.652c-.578-.462-.396.592 0 0m-29.77-.529c.188.012.36.008.33-.198-.166-.057-.353-.087-.33.198m29.507-1.52c.391.047.391-.378 0-.33a.246.246 0 0 0 0 .33m-9.55-4.362c-.22-.887-1.885-.818-2.042.066-.171.96.638 1.196 1.383 1.388.428-.485.819-.806.659-1.454m1.976-4.56h.263a.14.14 0 0 1-.263 0" fill="white" fill-rule="nonzero"/></svg>