<svg xmlns="http://www.w3.org/2000/svg" width="244.889" height="165.976" viewBox="0 0 64.793 43.914"><path d="M27.117 29.232c-.097.04-.144.126-.186.202a.362.362 0 0 1-.095.128.06.06 0 0 0-.015.082.057.057 0 0 0 .08.015c.062-.043.097-.107.132-.169.035-.064.069-.126.129-.151a.059.059 0 0 0 .03-.077.058.058 0 0 0-.075-.03m4.753-.334a.032.032 0 0 0 .023.038c.157.04.305.095.425.16a.03.03 0 0 0 .042-.013.03.03 0 0 0-.012-.042 2.022 2.022 0 0 0-.44-.166.032.032 0 0 0-.038.023m-1.985-2.518c-.103.05-.193.126-.28.2l-.158.128a.034.034 0 0 0-.006.046.03.03 0 0 0 .043.006l.163-.13c.088-.076.17-.146.265-.193a.032.032 0 0 0 .015-.043.031.031 0 0 0-.042-.014m18.512-5.27a.032.032 0 0 0-.028.036.032.032 0 0 0 .036.028c.235-.028.417.115.593.253l.087.067a.031.031 0 0 0 .045-.006.032.032 0 0 0-.006-.045l-.086-.067c-.187-.146-.38-.297-.641-.265m-23.666-2.708a.038.038 0 0 0 .002.054c.1.096.22.175.335.251.138.09.268.176.366.289a.038.038 0 1 0 .057-.05c-.104-.12-.245-.213-.381-.303-.113-.075-.23-.15-.325-.243a.039.039 0 0 0-.054.002m22.19 1.52l-.149.112-.068.05a.032.032 0 0 0-.006.046.034.034 0 0 0 .046.007l.067-.05.15-.113a.034.034 0 0 0 .005-.046.034.034 0 0 0-.045-.006m-21.096-2.71a.026.026 0 0 0-.007.036l.337.471.097.128a.028.028 0 0 0 .044-.033l-.097-.127-.335-.469c-.01-.012-.027-.016-.039-.007m11.339 13.445a.042.042 0 0 0-.028.051l.014.049.169.05.035.01a.04.04 0 0 0 .05-.028l.001-.011a.04.04 0 0 0-.03-.04l-.035-.01-.124-.037-.001-.006a.041.041 0 0 0-.052-.028m-5.367.352l-.085.057-.174.126c-.044.032-.047.088-.015.133.032.044.101.048.146.016l.15-.107.1-.069c.045-.03.051-.088.021-.133-.03-.046-.098-.054-.143-.023m-.831-.283a.03.03 0 0 0-.01.04c.055.086.126.156.195.223.07.068.134.132.184.211a.029.029 0 0 0 .04.01c.015-.009.018-.027.01-.041-.054-.085-.125-.154-.193-.222a1.173 1.173 0 0 1-.186-.212.028.028 0 0 0-.04-.009m13.74-.916a.09.09 0 0 0-.019.127c.146.194.33.356.509.513l.196.177a.092.092 0 0 0 .128-.006.089.089 0 0 0-.005-.126l-.2-.18a3.406 3.406 0 0 1-.484-.487.09.09 0 0 0-.126-.018m-7.542-.474l-.17.068c-.357.142-.725.288-1.004.563a.035.035 0 0 0 0 .048.034.034 0 0 0 .048 0c.269-.265.63-.409.98-.548l.172-.069a.035.035 0 0 0 .018-.044.034.034 0 0 0-.044-.018m-.443-.762l-.524.327c-.237.138-.482.28-.696.462a.04.04 0 0 0-.004.057.04.04 0 0 0 .056.004c.208-.177.45-.317.685-.454l.53-.331c.018-.011.022-.034.01-.053-.011-.02-.038-.024-.057-.012m-3.92 2.943c-.15.066-.236.212-.311.34l-.037.06a.053.053 0 0 0 .018.073.051.051 0 0 0 .07-.017l.037-.062c.072-.121.145-.247.265-.298a.052.052 0 0 0 .027-.068.052.052 0 0 0-.069-.028m-.358.291a.137.137 0 1 0 0 .274h.054a.137.137 0 0 0 0-.274zm-4.926-3.163l-.03.046-.053.096c-.01.016 0 .03.016.04.015.008.04-.004.048-.02l.043-.075.036-.055c.01-.016.004-.034-.01-.044-.017-.011-.04-.004-.05.012m3.503 2.832l-.14.072a1.194 1.194 0 0 1-.337.141.038.038 0 0 0-.03.045.039.039 0 0 0 .043.03c.131-.025.247-.088.36-.149l.136-.07a.039.039 0 0 0 .018-.053.037.037 0 0 0-.05-.016m.645-.16a.037.037 0 0 0-.01.052c.134.197.332.323.523.443l.243.163a.04.04 0 0 0 .053-.01c.011-.017.008-.039-.009-.05l-.248-.166c-.193-.121-.375-.236-.5-.422a.037.037 0 0 0-.052-.01m.743.594c-.19.194-.323.418-.451.634-.127.215-.248.418-.422.6a.049.049 0 0 0 .07.067c.182-.189.311-.406.436-.617.125-.211.255-.43.437-.616a.049.049 0 0 0-.07-.068m-.858 1.211c-.34.123-.617.372-.887.612-.152.136-.309.277-.471.387a.06.06 0 0 0 .066.099c.17-.116.33-.259.484-.397.26-.233.53-.474.848-.59a.06.06 0 0 0 .035-.075.058.058 0 0 0-.075-.036m-9.145.438a.085.085 0 0 0 .07.097c1.139.183 2.275.485 3.374.776l.622.164a.085.085 0 0 0 .103-.061.085.085 0 0 0-.06-.104l-.621-.164c-1.104-.292-2.244-.594-3.39-.778a.085.085 0 0 0-.098.07m-1.552-.382c-.009.037.011.074.049.082l.571.129c.271.054.528.106.776.195a.069.069 0 1 0 .047-.13c-.258-.093-.532-.148-.796-.2l-.561-.127c-.038-.009-.078.014-.086.051m3.173-1.487l-.727.286-.57.22a.079.079 0 0 0-.044.102.08.08 0 0 0 .104.046l.566-.22.734-.287a.078.078 0 0 0 .042-.103.081.081 0 0 0-.105-.044m-2.373.818l-.429.126-.428.124a.072.072 0 0 0-.047.09.075.075 0 0 0 .093.05l.42-.122.439-.13a.071.071 0 0 0 .047-.09c-.012-.038-.055-.06-.095-.048m-6.331.052c-.01.045.016.087.06.096l.399.084.306.061a.083.083 0 0 0 .097-.063.08.08 0 0 0-.061-.095l-.312-.063-.39-.081c-.044-.01-.09.017-.099.061m-1.45-.305a.07.07 0 0 0 .055.084l.259.057c.199.046.405.095.616.106a.07.07 0 1 0 .008-.14c-.2-.01-.39-.055-.592-.103l-.264-.058a.068.068 0 0 0-.08.054m.02-2.866a.048.048 0 0 0 .043.051c.5.045.99.082 1.467.054a.048.048 0 0 0 .045-.05.048.048 0 0 0-.05-.044c-.471.027-.956-.01-1.454-.054a.047.047 0 0 0-.051.043m3.563-.254a.04.04 0 0 0 0 .081h.163a.04.04 0 0 0 0-.081zm-5.784.013a.057.057 0 0 0 .022.077c.142.081.293.084.44.087.097.002.189.005.277.027a.056.056 0 0 0 .069-.04.057.057 0 0 0-.04-.07 1.345 1.345 0 0 0-.303-.03c-.14-.003-.27-.006-.388-.073a.056.056 0 0 0-.077.022m18.888-3.285l-.143.11c-.064.056-.124.109-.202.132a.032.032 0 0 0-.022.04.032.032 0 0 0 .04.022.603.603 0 0 0 .227-.146l.131-.101c.015-.01.02-.034.011-.048-.011-.015-.028-.02-.042-.009m-1.453 1.104l-.32.28c-.28.24-.57.486-.77.816a.052.052 0 0 0 .016.07.052.052 0 0 0 .071-.016c.192-.317.476-.558.75-.79l.323-.285a.05.05 0 0 0 .003-.071c-.018-.022-.052-.022-.073-.004m5.312-.745c-.044.05-.104.077-.166.107-.082.038-.167.078-.217.171a.034.034 0 0 0 .013.046.034.034 0 0 0 .046-.015c.04-.072.11-.106.187-.142.065-.03.134-.062.187-.122a.034.034 0 0 0-.003-.047.035.035 0 0 0-.047.002m-6.822-2.082a.086.086 0 0 0 .058.108l.062.016.08.028c.045.014.12.007.137-.037.016-.044.021-.078-.022-.096l-.151-.065-.053-.015a.09.09 0 0 0-.111.061m13.825-.812c-.083.115-.202.196-.329.282-.109.075-.222.152-.315.255a.068.068 0 1 0 .1.09c.082-.091.184-.16.29-.232.131-.09.266-.181.364-.316a.068.068 0 0 0-.015-.094.068.068 0 0 0-.095.015m-14.941.486a.106.106 0 0 1-.132.067l.657.2c.054.018.107-.014.124-.068a.106.106 0 0 0-.072-.13l-.641-.196c.054.016.08.072.064.127m5.826-1.761a.03.03 0 0 0 .016.039c.204.089.362.27.502.452a.03.03 0 0 0 .04.006.03.03 0 0 0 .006-.042c-.145-.189-.309-.376-.526-.47a.029.029 0 0 0-.038.015m1.39-2.22a.044.044 0 0 0 .037.05l.043.005c.05.005.1.01.158.044a.044.044 0 0 0 .044-.077.44.44 0 0 0-.194-.055l-.038-.004a.045.045 0 0 0-.05.038m-.084.833c-.114.054-.177.058-.217.011a.045.045 0 0 0-.063-.005.045.045 0 0 0-.005.064c.101.117.257.042.323.011a.045.045 0 0 0 .022-.06.044.044 0 0 0-.06-.021m-17.845-3.705c-.075.24-.037.482 0 .716l.03.216a.093.093 0 0 0 .102.08.088.088 0 0 0 .078-.1l-.032-.223c-.034-.224-.067-.435-.004-.635a.091.091 0 0 0-.173-.054m6.598 4.042a.03.03 0 0 0-.016.041l.021.05.293.102c.016.006.036-.002.041-.018a.032.032 0 0 0 .002-.011.029.029 0 0 0-.02-.028l-.27-.095-.01-.024a.03.03 0 0 0-.04-.016m1.354.57a.055.055 0 0 0-.044.064c.014.077.063.123.104.16l.062.071c.02.023.062.039.086.019.022-.02.034-.043.014-.065l-.088-.108c-.039-.035-.063-.059-.07-.096a.056.056 0 0 0-.064-.045m.172-.15a.031.031 0 0 0 .012.042c.188.101.393.163.592.223l.171.052a.033.033 0 0 0 .04-.021.03.03 0 0 0-.021-.04l-.172-.052c-.196-.06-.398-.12-.58-.216a.031.031 0 0 0-.042.012m.352 1.897a.086.086 0 0 1-.109.054l.109.036a.086.086 0 0 0 .054-.163l-.108-.036a.087.087 0 0 1 .054.11m-5.363-1.13a.09.09 0 0 0 .071.105c.23.043.46.113.682.182.287.088.584.179.893.216a.089.089 0 0 0 .1-.078.088.088 0 0 0-.078-.1c-.293-.035-.582-.125-.863-.21a6.508 6.508 0 0 0-.7-.187.09.09 0 0 0-.105.072m-1.286-.822a.08.08 0 0 0 .01.116l.138.113.18.153c.036.03.095.032.125-.003.03-.036.032-.083-.003-.113l-.2-.172-.13-.104c-.036-.03-.091-.026-.12.01m-.739-2.85a.06.06 0 0 0 .042.073c.375.101.748.263 1.107.42.398.174.81.353 1.221.448a.06.06 0 0 0 .071-.044.06.06 0 0 0-.044-.072c-.401-.092-.808-.27-1.2-.44-.364-.16-.74-.323-1.124-.428a.06.06 0 0 0-.073.042m4.115 1.723a.064.064 0 0 0 .027.085l.449.245c.21.122.428.247.656.337a.061.061 0 0 0 .08-.036.061.061 0 0 0-.036-.08 4.885 4.885 0 0 1-.64-.328l-.455-.249c-.03-.016-.065-.004-.081.026m-5.156-3.27a.042.042 0 0 0 .02.054c.88.388 1.684.996 2.46 1.584l.975.72a.04.04 0 0 0 .057-.01.042.042 0 0 0-.01-.06l-.971-.715c-.781-.592-1.589-1.204-2.476-1.595a.042.042 0 0 0-.055.02m-.162-.502c-.062.024-.086.11-.062.173l.064.17.094.24c.024.061.085.074.148.05.062-.025.084-.113.06-.175l-.07-.184-.086-.222c-.024-.062-.085-.076-.148-.052m10.95-.551a.073.073 0 0 0-.037.097c.054.12.123.209.206.265a.072.072 0 0 0 .102-.02.074.074 0 0 0-.02-.101.47.47 0 0 1-.154-.205.073.073 0 0 0-.097-.036m.442 3.192c-.017.009-.04-.004-.048-.02l.06.12c.009.017.025.017.043.008.017-.008.02-.036.011-.053l-.048-.097c.009.017 0 .034-.017.042m-3.738-1.81c-.014.028-.007.062.022.076l.506.26c.243.116.494.236.726.404a.058.058 0 0 0 .08-.013.058.058 0 0 0-.013-.08 4.613 4.613 0 0 0-.743-.416l-.497-.255c-.03-.015-.067-.005-.081.024m-4.64-7.074a.067.067 0 0 0-.028.09c.288.562.572 1.16.845 1.739l.82 1.691a.065.065 0 0 0 .09.03.068.068 0 0 0 .03-.09l-.819-1.688c-.274-.58-.558-1.18-.848-1.744a.067.067 0 0 0-.09-.028m3.77 2.667a.033.033 0 0 0-.004.046 60.837 60.837 0 0 1 2.784 3.554.032.032 0 0 0 .046.007.034.034 0 0 0 .007-.046 61.467 61.467 0 0 0-2.787-3.558.033.033 0 0 0-.047-.003m-3.56-3.695a.048.048 0 0 0 .009.067c.99.757 1.899 1.688 2.56 2.622a.048.048 0 0 0 .067.011.049.049 0 0 0 .01-.067c-.666-.94-1.582-1.88-2.58-2.643a.047.047 0 0 0-.066.01m-.386.136c-.066.107-.039.211-.014.303.02.072.036.134.01.192a.054.054 0 1 0 .098.043c.041-.092.017-.183-.004-.263-.022-.081-.041-.151.001-.218a.055.055 0 0 0-.017-.075.053.053 0 0 0-.074.018m-2.22 4.969a.072.072 0 0 0-.006.102.071.071 0 0 0 .101.005c.952-.867 2.1-.18 3.113.426.325.194.63.378.921.508a.072.072 0 1 0 .059-.13 9.12 9.12 0 0 1-.907-.5c-1.055-.633-2.252-1.349-3.282-.411m-.398.784c-.12.277-.141.571-.162.856-.016.206-.032.42-.085.62a.074.074 0 0 0 .052.09.075.075 0 0 0 .09-.052c.058-.213.074-.434.09-.647.02-.285.04-.554.15-.809a.073.073 0 0 0-.038-.097.073.073 0 0 0-.097.04M5.649 10.292a.044.044 0 0 0 .019.06c2.865 1.504 6.051 3.672 9.069 5.766l.224.16c.26.191.433.318.731.348a.044.044 0 0 0 .049-.04.044.044 0 0 0-.04-.048c-.274-.028-.43-.142-.689-.332l-.225-.162c-3.02-2.094-6.209-4.264-9.078-5.772a.044.044 0 0 0-.06.02m10.463 8.334a.073.073 0 0 0-.063.081c.09.743.498 1.407.892 2.048l.089.146a.073.073 0 0 0 .1.024.073.073 0 0 0 .024-.1l-.089-.147c-.385-.628-.784-1.277-.872-1.988a.073.073 0 0 0-.081-.064m1.614 3.291a.038.038 0 0 0-.038.038c0 .022.016.039.038.039h.216a.039.039 0 0 0 .038-.039.038.038 0 0 0-.038-.038zm3.75.857a.097.097 0 0 0 .059.123c.174.061.354.087.528.112.157.022.306.043.45.088a.096.096 0 0 0 .056-.184c-.158-.05-.32-.072-.478-.095-.173-.025-.336-.048-.493-.103a.096.096 0 0 0-.122.059m-7.89-1.782c-.013.045.026.096.072.109l.143.04.18.05c.047.013.082-.017.094-.063.013-.045-.026-.095-.072-.108l-.143-.042-.181-.05c-.046-.011-.08.018-.093.064m1.731.49a.085.085 0 0 0 .06.103l.094.025c.114.03.222.058.32.113a.085.085 0 0 0 .116-.034.085.085 0 0 0-.034-.115 1.49 1.49 0 0 0-.36-.128l-.091-.024a.086.086 0 0 0-.105.06m-1.681-3.842a.088.088 0 0 0 .078.096c.428.042.854.165 1.264.283l.4.113a.086.086 0 0 0 .105-.061.088.088 0 0 0-.061-.108l-.396-.111c-.418-.121-.851-.245-1.295-.29a.086.086 0 0 0-.095.078m-3.353.43a.045.045 0 0 0 0 .063l.108.109a.045.045 0 0 0 .062 0 .045.045 0 0 0 0-.064l-.108-.108a.044.044 0 0 0-.062 0m2.663 3.498a.097.097 0 0 0-.01.135.813.813 0 0 0 .208.16.095.095 0 0 0 .13-.032.096.096 0 0 0-.033-.131.633.633 0 0 1-.16-.121.095.095 0 0 0-.134-.011M6.696 31.806l-.165.099-.26.151a.08.08 0 0 0-.028.11.078.078 0 0 0 .107.029l.26-.154.165-.098a.08.08 0 0 0-.08-.137m1.116-6.055c-.191.08-.358.22-.505.344l-.017.014a.036.036 0 0 0-.005.05.036.036 0 0 0 .05.004l.018-.014c.15-.126.305-.257.487-.333a.035.035 0 1 0-.028-.065m1.48-.642c-.063.06-.144.08-.23.1a.6.6 0 0 0-.227.087.034.034 0 0 0-.007.045.032.032 0 0 0 .046.008c.058-.042.128-.058.202-.076a.507.507 0 0 0 .262-.117.032.032 0 0 0 0-.047.033.033 0 0 0-.047 0m-2.464 1.439c-.147.165-.274.354-.397.536-.121.18-.247.365-.387.523a.034.034 0 1 0 .05.045c.144-.16.27-.348.393-.53.122-.18.248-.367.392-.529a.034.034 0 0 0-.003-.048.034.034 0 0 0-.048.003M5.67 28.284c-.153.281-.275.583-.393.875l-.043.107a.05.05 0 0 0 .029.066.051.051 0 0 0 .066-.028l.042-.107c.117-.289.238-.589.388-.865a.05.05 0 0 0-.02-.069.05.05 0 0 0-.07.02m-.715 1.618a.849.849 0 0 0-.098.302.084.084 0 0 0 .078.088.083.083 0 0 0 .087-.078c.005-.076.044-.16.083-.242a.083.083 0 1 0-.15-.07m-.439 1.48l-.029.126-.008.04a.084.084 0 1 0 .164.035l.009-.04.026-.119a.086.086 0 0 0-.062-.103.081.081 0 0 0-.1.06m6.35-.882a.056.056 0 0 0 .008.08 21.916 21.916 0 0 0 1.138.87.057.057 0 0 0 .066-.093 21.69 21.69 0 0 1-1.133-.866.056.056 0 0 0-.08.009m2.817 3.561l-.28.11a2.31 2.31 0 0 0-.482.218.033.033 0 0 0-.01.045.032.032 0 0 0 .045.01c.143-.094.309-.154.47-.212l.284-.111c.016-.007.023-.025.016-.042a.033.033 0 0 0-.043-.018m2.249-.538l-.65.109a.05.05 0 0 0-.042.06.054.054 0 0 0 .062.044l.65-.11a.052.052 0 0 0 .042-.06.054.054 0 0 0-.062-.043m4.278-.63l-.218.037-.213.035c-.045.008-.087.052-.08.099.007.046.04.079.086.072l.244-.04.192-.033c.046-.008.086-.053.078-.1-.008-.046-.043-.077-.09-.07m11.346.242a.048.048 0 0 0-.031.06c.037.116.004.232-.032.356-.034.123-.07.25-.043.386a.048.048 0 0 0 .056.037.047.047 0 0 0 .036-.056c-.022-.114.009-.224.042-.341.038-.132.076-.269.03-.412a.046.046 0 0 0-.058-.03m.898-1.22a.053.053 0 0 0 .011.074c.326.244.712.325 1.086.405.24.05.488.103.71.2a.053.053 0 0 0 .07-.03.053.053 0 0 0-.028-.069 3.898 3.898 0 0 0-.73-.206c-.362-.077-.737-.156-1.043-.385a.054.054 0 0 0-.076.011m.604-.083c-.008.017.002.028.02.037.016.009.04-.008.048-.025l.05-.095c-.009.017-.028.02-.045.011-.017-.008-.021-.033-.013-.05zm6.876 2.286a.873.873 0 0 0-.206.175c-.056.058-.109.114-.174.151a.061.061 0 0 0-.023.084.061.061 0 0 0 .084.024c.08-.046.143-.11.202-.173a.774.774 0 0 1 .177-.153.062.062 0 0 0-.06-.108m2.065-.389a.095.095 0 0 0-.013.135l.06.07.02.021a.098.098 0 1 0 .145-.13l-.02-.022-.052-.061a.102.102 0 0 0-.14-.013m-.909-5.266a.064.064 0 0 0 .018.127c.818-.116 1.636.215 2.398.591a.064.064 0 0 0 .056-.114c-.743-.366-1.618-.724-2.472-.604m4.251-7.635c-.27.19-.558.365-.836.534-.412.25-.84.51-1.223.825a.056.056 0 0 0-.007.078.055.055 0 0 0 .078.008c.377-.311.8-.568 1.21-.817.279-.17.568-.346.842-.537a.056.056 0 0 0 .014-.078.056.056 0 0 0-.078-.013m-11.417.04a.034.034 0 0 0-.026.04c.068.314.182.62.293.918l.168.469a.035.035 0 0 0 .043.02.033.033 0 0 0 .02-.041l-.168-.472a6.63 6.63 0 0 1-.29-.909.033.033 0 0 0-.04-.026m-6.563-4.048a.044.044 0 0 0-.014.06c.192.306.462.57.723.825.331.322.673.656.843 1.069a.044.044 0 0 0 .058.024.044.044 0 0 0 .023-.058c-.176-.43-.525-.77-.862-1.1-.257-.25-.523-.51-.71-.807a.044.044 0 0 0-.061-.013m-1.993-2.057a.053.053 0 0 0 .01.074c.116.086.21.194.311.307.132.15.269.305.453.403a.053.053 0 0 0 .072-.022.053.053 0 0 0-.022-.071c-.167-.09-.292-.23-.423-.38-.1-.113-.203-.23-.327-.323a.053.053 0 0 0-.075.012M13.682 2.527a.066.066 0 0 0-.01.092c2.379 3.001 5.156 5.717 7.842 8.343 1.073 1.05 2.183 2.135 3.252 3.224a.065.065 0 0 0 .092 0 .064.064 0 0 0 .001-.092 223.75 223.75 0 0 0-3.255-3.226c-2.682-2.623-5.456-5.336-7.83-8.33a.065.065 0 0 0-.092-.011m-9.34 35.569c-.084.024-.147.073-.207.12l-.127.082c-.036.023-.056.076-.033.111s.059.051.093.029l.16-.102c.051-.04.1-.077.156-.094a.076.076 0 0 0 .052-.094.076.076 0 0 0-.094-.052m21.124-3.45a.052.052 0 0 0 .038.063c.19.046.36.13.555.24a.052.052 0 1 0 .05-.092 2.218 2.218 0 0 0-.58-.25.053.053 0 0 0-.063.04m6.575-6.703a.044.044 0 0 0-.016.06c.033.058.082.08.135.105l.045.02a.045.045 0 0 0 .06-.02.043.043 0 0 0-.02-.058l-.05-.022c-.05-.023-.076-.036-.095-.069a.043.043 0 0 0-.059-.016m-7.162-9.82a.054.054 0 0 0 .009.075c.288.231.637.398.878.497a.053.053 0 0 0 .07-.03.053.053 0 0 0-.03-.07 3.6 3.6 0 0 1-.852-.481.054.054 0 0 0-.075.009m3.094-3.16c-.025.017-.036.043-.019.068l.073.102.017.02a.057.057 0 0 0 .08.005.055.055 0 0 0 .004-.078l-.019-.021-.054-.075c-.018-.024-.057-.04-.082-.021M50.52 8.652l-.828.65c-.562.454-1.143.923-1.76 1.262a.074.074 0 0 0-.03.102.074.074 0 0 0 .101.03c.63-.346 1.216-.82 1.782-1.277l.824-.647a.076.076 0 0 0 .014-.106.072.072 0 0 0-.103-.014M32.333 29.068l-.081-.028c.022.284.249.341.487.272.056-.296-.244-.448-.433-.325zm15.283-7.681c.318.072-.195.256 0 0m.785-.244l.081-.028c-.398-.067-.706-.329-1.082-.27-.795.12-.895 1.461 0 1.519.746.048.807-.66 1.082-1.195zm-22.533-1.928c.323.273-.121-.102 0 0m21.072.733l-.027.082h.109c1.37.92 2.67-.926 1.677-1.792-.257-.223-.678-.062-1.028-.38-.168.222-.454.119-.65.272-.507.398-.412 1.344-.161 1.845zM31.765 31.32v-.054h-.162v-.162h-.271l.027.08-.081-.027a1.564 1.564 0 0 1-.325.327l.082.026-.028.082c.297.008.372-.207.704-.163l-.027-.082zm-7.737.543c.686-.249.812.369 1.19.652.22.164.55.307.812.325 1.221.088 2.358-1.167 1.623-2.171-.382-.522-1.068-.702-1.623-.651-1.165.106-1.273 1.278-2.056 1.682l.082.064zm-2.38.814c.428.27.994.02 1.136-.325l-.027-.082.027-.081c-.132-.174-.271-.343-.487-.434-.394.093-.547.428-.703.76l.081.063zm-6.276-3.148c.247.246.018.665.055.977.043.37.283.75.649.814.305.055.794-.012.92-.488.148-.565-.263-.745-.109-1.357.167-.14.566-.048.65-.272l-.082-.026.027-.082c-.741.114-1.587-.036-2.164.326l.081.026zm-3.03-.217c.492.194 1.082.455 1.624.163l-.027-.082.08-.026c-.446-.321-.97-.252-1.622-.163l.027.08zm14.608-5.265c.222.102.49.16.757.216l-.027-.1.082-.062c-.13-.07-.155-.243-.217-.38-.132.102-.268.202-.54.162l.026.1zm-3.138-2.226c.002.313.288.516.487.326 0-.254-.126-.38-.379-.38l-.026.08zm.162-.38c-.166-.104-.334-.207-.486-.326-.306.09-.72-.23-.812 0v.054h-.054c.325.218.7.385 1.082.543l.027-.08.081.026c-.003-.093.042-.139.108-.163v-.054zm-4.76-2.171c0 .054-.044.064-.055.108l.081.028-.026.08c.239.158.384.412.54.652.513-.178.783.232 1.299.218l-.027-.082.081-.027c-.5-.458-1.313-.6-1.84-1.032l.028.082zm2.218-7.437c-.407.325-.433 1.14.108 1.303.347.105.552-.091.92-.163v-.054h.054c-.079-.247-.117-.536-.217-.76-.293-.068-.375-.347-.757-.326l-.054.027zm-2.868-2.388c.13-.05.144-.219.38-.163l-.028-.055.027-.054c-.1-.146-.296-.257-.487-.162 0 .097-.145.315 0 .38l.081-.028zm.217.814c-.017-.182-.056-.342-.162-.434l-.082.027-.027-.082c-.088.202-.397.181-.379.489.094.141.36.11.596.108l-.027-.081zm-2.814 4.94c.13-.088.347-.087.487-.163.018-.253-.108-.363-.108-.598l-.027-.08-.027-.082c-.11.039-.214.17-.325.054.12.269-.135.475-.108.814l.082-.027zm.217 3.582c.115-.192.44-.173.757-.163l-.027-.08.082-.029c-.147-.323-.687-.251-.975-.434-.093-.033.005-.257-.108-.271l-.027.082-.08-.028c-.198.376.143.488.215.87l.1-.028zm1.569 2.606c-.165-.233-.307-.488-.595-.597l-.066.073-.096-.019c.116.3.269.561.595.651l.07-.07zm1.298.76c-.215-.31-.69-.357-1.027-.543l-.038.092-.07.07a.256.256 0 0 1-.055.164l.081.026-.027.082c.31.113.63.477 1.082.271l-.027-.099zm2.597.597c-.132-.4-.782-.483-1.136-.217l.027.081.027.082c.204.184.65.384 1.028.217l-.027-.1zm2.597.489c-.116-.1-.383-.05-.325-.326-.41.283-.84 0-1.406 0l.027.099-.081.063c.532.154 1.128.244 1.73.326l-.026-.1zm-8.494-1.521c-.016.233.075.359.162.489.439-.049.81-.166 1.19-.272-.074-.485-.746-.373-1.298-.38l.027.1zm-1.84-.543c.299.353.978.323 1.516.435l-.028-.1.082-.063c-.52-.131-.864-.436-1.515-.434l.027.1zm-.81.435c-.407-.408.105-.729.594-.489l-.027-.1.081-.063c-.144-.287-.58-.235-.865-.38-.129-.065-.356-.313-.595-.488-.77-.564-2.367-1.939-.704-2.388.604-.163 1.497-.045 2.164.054l-.027-.1.081-.063c-.745-.277-1.68-.373-2.271-.163-.519.184-.848.465-1.136.706l.026.081-.081-.027c-.02.25-.197.346-.433.38-.3-.243-.038-.668.054-.977-.119-.261-.108-.652-.324-.814a.689.689 0 0 0-.974.543c-.055.482.306.833.54 1.14.171.221.35.5.433.596.15.172.537.37.758.598.684.705.827 1.693 1.353 1.9.287.113.656-.038.865 0 .153.027.239.216.325.162l.07-.07zm-3.788 3.583c.145.226.465.05.487-.163-.07-.278-.566-.177-.541.108h.054zm-1.515.651c.577-.102.908-.14 1.136-.543l-.08.027.026-.081c-.439-.11-.841.223-1.082.488l.027.055zm-.973.814c.37.009.513-.208.54-.543l-.054.028-.053-.028c-.212-.083-.554.117-.487.489l.08-.027zm-1.083 1.737c.305-.114.477-.386.379-.76h-.054v-.054c-.17.063-.301.169-.433.271-.014.25-.057.263 0 .49l.082-.028zm-.65 1.629c.225-.12.312-.376.272-.76l-.081.027-.028-.081c-.282.054-.453.467-.324.76l.1-.028zm-.432 1.466c.186-.376.413-.709.379-1.304l-.1.028-.062-.082c-.29.271-.397.723-.38 1.303l.1-.027zm1.678.542c-.758.129-1.665.524-1.678-.489l-.098.027-.064-.08c-.29.23-.324.994-.162 1.356.656.305 1.823-.016 2.056-.651l-.082-.064zm7.682.217c-.26-.639-.962-1.245-1.894-.868-.012-.042-.045-.063-.108-.055l.027.081-.081.028c.14.564.318 1.185.812 1.303.62.149.8-.185 1.19-.38l-.027-.082zm1.46.272a.924.924 0 0 0-.27-.49c-.223.03-.327.18-.433.327l.028.081-.028.082c.178.093.417.124.65.162l-.028-.099zm-2.542 1.845c-.335-.25-.76.176-.433.435.346.057.41-.17.487-.381h-.054zm2.38-.76c-.499.01-1.459.016-1.677.489h.054v.054c.478.095.65-.14.92-.217.331-.096.645.002.757-.217l-.08-.027zm4.49-.651c-.78-.03-1.29-.624-2.164-.38-.104-.076-.33-.03-.27-.272-.21.232-.338.204-.595.272-.311.082-.377.127-.703.054l.026.1-.08.063c.156.151.596.018.54.38.002.363-.605.116-.703.38l.082.028-.028.08c.331.151.549-.02.812-.054.585-.076 1.17.172 1.677.109.574-.072.911-.604 1.46-.597l-.08-.064zm1.137.163c-.018-.074-.078-.104-.054-.217l-.074-.066.02-.097c-.207.064-.47.072-.65.163l.027.08.028.082c.2.107.412.201.703.217l-.027-.08zm1.569.38c-.063-.046-.145-.072-.271-.055l.027.082-.027.081c-.067.165-.041.211.054.326.2.038.135-.19.217-.272l-.027-.08zm7.682.597c-.4-.043-.736.272-1.136.325-.317.043-.679-.114-1.083-.108-.551.008-1.016.34-1.514.108l.027.1-.081.064c.79.165.96.974 1.731.922.245-.016.507-.235.812-.38.648-.307 1.143-.359 1.352-.977l-.081.027zm4.003-1.574c-.038.2-.108.427.054.542.31.11.564-.564.434-.542-.187.023-.304-.022-.434-.055l.028.082zm5.357 1.9c-.125.073-.303.094-.271.325.162.136.364-.036.379-.217l-.082-.027zm2.488-.489c.2.387.668.48.866.977.101.256.037.599.162.869.24.517.832 1.02 1.46.922.82-.127.88-1.343.109-1.791-.466-.27-1.03-.2-1.515-.325-.305-.256-.532-.589-.92-.76l-.07.07zm-8.17-14.005c.052.412-.174.549-.324.76l.081.027-.026.082c.13-.023.117.099.27.054.012.042.001.107.054.108v-.054h.054c.26-.131.115-.541.162-.977-.095.015-.167-.255-.216-.108l.027.081zm3.301 10.775l.054.027v-.108h.163v.108h-.055l.027.054-.027.055c.724.368.94 1.137 1.894.869.498-.14.8-1.086 1.46-.869.26.085.38.514.38.869-.003.727-.504 1.543-1.136 1.52-.556-.021-.587-.568-1.029-.923-.325-.263-.855-.357-1.352-.597-.24-.116-.473-.314-.703-.435-.246-.13-.68-.22-.704-.489-.055-.617.65-.123.974-.054zm8.278-.136h-.109c.345.82 2.467 1.785.92 2.389-.744-.324-1.442-.77-2.164-1.14-.734-.377-1.528-.637-2.164-1.14.187-.297.71-.383 1.136-.543.537-.202 1.26-.42 1.623-.163l.063-.08.1.026c.081-.477.829-.65 1.298-.597.18.02.433.215.757.326.268.09.57.071.812.163.218.082.47.312.703.433.634.333 1.01.454 1.19.978.842-.449 1.754.785 1.677 1.41-.083.685-1.234 1.058-1.731 1.304-1.78-.747-2.714-2.342-4.111-3.474zm-4.87-1.52c.013.411-.202.593-.54.652-.076-.231-.23-.15-.27-.325-.106-.457.524-.76.81-.327m-3.84-.434v.054c.363-.145.811-.009.865.327-.129.16-.418.16-.487.38h.054v.054c.342.195.394-.216.704-.217.554.258.418 1.047-.109 1.193-.484.135-.849-.132-1.136-.217-.229-.067-.498.042-.541-.162v-.055l-.081.028.027-.082c-.279-.046-.346-.304-.433-.542l-.08.026.026-.081c-.402-.348-.403-1.025-.108-1.249.392-.296 1.46.178 1.244.543zm-14.5-2.66c.047.174-.085.168-.108.272-.095-.013-.123-.094-.108-.217.048-.042.122-.059.216-.055m8.332-.054v.054c.295.023.376-.245.649-.271.425-.04.944.305 1.244.488.054.384-.489.89-.379 1.412.041.192.197.222.27.434.593.174.954-.196 1.3-.434-.009-.334.103-.547.27-.706.4.203 1.032.27 1.136.652.098.357-.228.793-.487 1.031-.176.162-.557.305-.866.488-.313.187-.646.522-.973.544-.17.01-.391-.104-.595-.163-.674-.198-1.263-.378-1.623-.76.16-.344.076-.753-.433-.706-.218.07-.21.368-.433.434-.577-.018-1.147-.043-1.515-.27l-.081-.028.027-.082c-1.288-.082-2.153-.59-3.3-.814-.134-.271-.382-.631-.217-1.032.415-.2.828-.4 1.353-.488.101-.013-.03-.09.054-.109.438.006 1.363 0 2.435 0 1.004 0 2.32-.166 2.11.326zm3.868.353l-.027.082c.08.028.136.08.216.108.043.188-.06.229-.108.325-.157-.04-.311-.085-.379-.216v-.054l-.08.027.026-.082c-.627-.113-1.056-.424-1.57-.651.09-.526.775-.25 1.191-.218.174.261.493.375.65.652v.054zm7.98-1.33c-.001.218-.222.499-.217.543-.909.257-.368-1.355.217-.543m-14.57-.69l-.091.038c1.007 1.284-1.872.624-2.706.815-.47-.742.546-1.39 1.353-1.194l-.027-.1.08-.063c-.234-.868 2.205-.9 2.165-.055-.014.281-.228.433-.704.489zm-5.231-7.344c-.01.153-.094.231-.27.217-.042-.048-.059-.122-.055-.217.07-.074.256-.074.325 0m6.276 1.846c-.144.064-.168.047-.108.217-.556.12-1.118.244-1.732.163l.027.081-.08-.027c-.034.003-.065.008-.055.054-.449-.134-.445.12-.65.272-.17.09-.22-.202-.27-.054-.02.085-.07.148-.27.325-.132-.249-.215.123-.38.163-.428.122-.543-.293-.756-.543-.262-.306-.716-.594-.974-.922-.107-.138-.119-.283-.217-.38-.207-.209-.903-.412-.432-.815.194-.013.198.163.378.163l-.02-.096.074-.067c-.315-.252-.783-.425-.703-.923-.3.14-.327-.036-.378-.271-.258-.077-.135.227-.38.163-.932-.458-.97-1.813-1.568-2.605l-.038.091-.07.07c.106.466.634 1.093.108 1.413l.027.08-.081.028c.683.44.975.986 1.515 1.629.454.54.988 1.07 1.46 1.573.154.165.315.368.487.543.325.33.862.775.974 1.086.179.497.042 1.096-.054 1.52h-.054v.054h-.054c.385.231.712.905.432 1.466-.225.133-.517.116-.811.055l.027.099-.081.063c.053.056.107.11.162.163-.002.325-.298.504-.487.76-.273.37-.457.818-.811.869-.9-.02-1.929.444-2.921.325-.505-.348-.998-.445-1.515-.705-.19-.207-.325-.471-.542-.652-.751.071-1.081-.193-1.514-.434-.241-.134-.497-.263-.704-.38-.482-.272-1.04-.51-1.352-.76-.388-.31-.602-.92-1.244-.869l-.071.07-.092.039c.228.285.219.535.487.706.195.124.445.055.703.163.32.133.639.493 1.028.76.748.51 1.458.851 2.273 1.302.38.21 1.098.43 1.136.652.087.512-.334.376-.758.488-.296.079-.571.28-.865.38-.339.115-.692.168-1.028.272-.63.195-1.25.454-1.84.705-1.404.599-2.656 1.456-4.166 1.846-.225.206-.243.467-.433.651-.3.292-.788.343-1.136.543-.262.15-.467.494-.757.706-.412.301-.872.4-1.082.814l.073.066-.019.097c.834-.176 1.057-.967 1.948-1.086.374-.346.789-.974 1.352-.923.482.044.398.568.92.652l-.027-.082.081-.027c-.07-.274-.368-.318-.433-.597.145-.47.52-.71 1.19-.651l-.026-.082.08-.027c.032-.03-.052-.067-.053-.054.03-.445 1.817-1.144 2.596-1.466.44-.181.939-.36 1.461-.542.569-.2 1.122-.456 1.515-.544.215-.047.437-.011.65-.053.67-.134 1.252-.43 1.73-.489.846-.104 1.564.392 2.165.597.213.072.469.099.595.162.376.19.609.72 1.028.87.396 0 .816.022 1.081-.11.93.407 2.062.61 2.922 1.086v.054h.054v.055c.596-.226.547.762.812 1.14.197.282.518.333.973.542.628.29.91.623 1.677.435l-.027-.082.081.027c-.031-.753 1.257-1.207 1.353-.488.067.505-.472.396-.649.76l.092.038.07.07c.293.023.32-.222.595-.217.146.125.25.293.217.597l.081.027-.027.082c.135-.009.167.085.27.109l.082-.028-.027.082c.684-.04 1.44-.578 2.218-.543.575.026 1.499.544 1.677.815.14.213.154.512.216.814.27.164.47.397.758.542.772-.337 1.751-.058 1.893.706l.081.027-.027.081h.108c.22-.02.167.232.325.272.128-.197.574-.075.866-.109.257-.14.32-.475.595-.597.069.003.075.07.162.055l.07-.07.092-.039c-.062-.173-.335-.134-.378-.326-.157-.244.032-.568 0-.868-.063-.582-.804-1.15-.109-1.629.826.388 1.636.872 2.543 1.358.809.432 1.861.88 2.38 1.52.527.647.871 1.904 2.002 1.79.846-.084.63-.945 1.137-1.302.134-.095.341-.051.595-.163.593-.262 1.132-1.104 1.677-1.357.822-.382 1.558-.305 2.326-.109 2.555.656 6.075.684 8.007-.488.377-.228.674-.562 1.028-.923.607-.618 1.923-1.232 1.244-2.334-1.33-.224-1.184.915-1.677 1.628-.12.175-.391.374-.649.544-1.045.682-2.757 1.324-4.274 1.41-1.692.097-2.885-.193-4.22-.488-.344-.364-.41-1.07-.865-1.249-.35-.136-.912-.057-1.245 0-.208.036-.473.218-.703.218-.546 0-1.022-.428-1.623-.76-.534-.296-1.303-.6-1.57-.76-.13-.079-.14-.115-.216-.163-.44-.28-1.331-.495-2.001-.543-.868-.062-1.42.483-2.056.271l.027.081-.081.028c.163.502-.622.751-1.082.489-.328.166-.296.6-.649.597-.567-.004-.589-1.1-.542-1.683l-.08-.027.026-.082c-.096-.358-.06-.572.054-.814.14-.294.572-.368.704-.705.167-.427-.225-.662.216-.978.594-.084 1.128-.112 1.136-.597.008-.462-.564-.497-.811-.868.339-.777 1.526-.42 1.623-1.14.076-.57-.634-.58-.65-1.14l-.08.027-.027-.081c-.277.241-.468.01-.758-.109-.997-.41-2.016-.671-2.813.109.29.685 1.372.578 1.677 1.248l.081-.027.027.081c.166-.039.198.056.325.055-.045.153.076.14.054.271-.202.224-.707.501-.974.326v-.163l-.08-.027-.028-.082c-.611.437-1.837.409-2.11-.325-.22-.04-.187.175-.433.108-.994-.8.382-1.718-.162-2.55-.176-.15-.504-.147-.703-.272-1.03.278-1.732 1.425-3.03 1.41l.026.083-.08-.028c-.355.224-1.175.565-1.46.217v.055h-.055v.108c-.119.062-.221.14-.433.109-.018-.231-.217-.434 0-.597l-.027-.082.081.028c-.22-.77.14-1.529.92-1.303l.027-.082.081.028c.098-.318.482-.35.379-.87l-.082-.027.028-.081c-.238.001-.411-.094-.38-.217-.257.151-.606.243-.919.272a.521.521 0 0 1-.162 0c-.15-.098.075-.074-.108 0-.189.076-.425-.078-.541-.109-.066-.018-.276.027-.27-.108-.226-.01-.267.166-.487.162-.133-.138-.324-.218-.433-.38.023.278-.383.123-.596.163-.288-.272-.653-.467-.865-.814l-.054.027zm-2.164-2.443c-.086.484.359.436.595.597l.054-.027.054.027c-.01-.358.327-.746.054-1.031-.367-.042-.409.241-.704.271l.028.1zm-.65-.76c.059.285.218.47.487.543l.063-.082.1.028c.047-.265-.075-.36-.109-.543a1.16 1.16 0 0 0-.486-.054l.026.081zm-1.352-1.41c.14.329.394.544.649.759l.027-.082.081-.027c-.214-.254-.196-.743-.703-.706l.027.082zM13.722 2.576l.081-.026c-.387-.413-.02-1.15-.27-1.737-.17-.4-.465-.522-.811-.815h-.758c-1.122.813.106 2.473 1.407 2.335.085.131.194.24.324.325zM54.596 43.86c.054 0 .064.044.108.054 0-.054.044-.065.054-.108-.054 0-.065-.045-.108-.055 0 .055-.044.064-.054.109m-14.878-.706h.108v-.109h-.108zm9.143-.217c.123.015.203-.013.216-.109-.077-.013-.091-.09-.162-.108-.017.073-.077.103-.054.217m-15.149-3.311c-.386 1.274 1.933 1.22 1.3-.054-.126-.253-.486-.381-.867-.272-.277.08-.39.185-.433.326m-14.498-1.032c.094.005.168-.012.216-.054.016-.143-.075-.179-.216-.163zM4.065 38.27c-.476-.055-.643-.25-1.082-.218-.918.069-1.348 1-.865 1.683.6.849 2.361.373 2.001-1.303l-.08-.063zm.298-.1l-.027.1a.513.513 0 0 0 .432-.163c-.113-.096-.397-.178-.486 0zm3.706-.063c.002-.093-.042-.14-.109-.163-.077.08-.08.21.109.163m20.504.054c.094.004.168-.012.217-.054-.007-.138-.08-.21-.217-.217a.202.202 0 0 0 0 .27m4.815-.162c.178.111.476-.043.541-.217v-.109c-.206-.109-.533.063-.541.326m.324-.705c.017-.144-.074-.179-.216-.163-.044.194.115.27.216.163m3.68-.11c.102-.011.119.062.216.055.122-.128.04-.358-.163-.325-.045.063-.07.145-.053.27m-.866-.325c.063.046.145.072.27.055.07-.325-.283-.318-.27-.055m-16.339-.163h.163v-.163h-.163zm-14.877.163c.21.034.222.045.378-.054v-.272c-.09-.071-.18-.143-.378-.108-.08.079-.08.356 0 .434m20.829-.814c.015-.143-.075-.178-.217-.162-.045.193.115.269.217.162m-15.906.108c.044.574 1.1.3 1.028-.217-.303-.091-.885-.029-1.028.217M.224 35.99c.016-.144-.075-.178-.216-.163-.044.194.115.27.216.163m24.237-.108h.109v-.11h-.109zm2.976-.11v.163c.07.074.255.074.325 0 .011-.102-.062-.12-.055-.217-.125-.017-.208.009-.27.055m-.65.054c.015-.177-.063-.262-.216-.272-.022.186.016.31.216.272m-16.663-.163c.096.048.159.172.271.054.052-.2-.265-.215-.27-.054m14.823-.597c-.048-.043-.154.033-.162.054-.077.205.269.039.162-.054m-13.417.543c.366.094.527-.301.379-.544-.23-.049-.687.217-.379.544m-5.626-.38h.162c.015-.124-.013-.205-.108-.217-.017.073-.077.104-.054.217m32.785-.217c-.043.188.06.229.108.325.202-.014.316-.117.27-.38-.143 0-.309-.02-.378.055m-28.566.217c.169-.115.142-.491-.162-.434-.165.173-.058.373.163.434m19.963-.217c.245.046.337-.06.379-.217-.173-.083-.459-.1-.38.217m-4.57-.353l.08-.027c-.059-.198-.447-.228-.432.054.053.06.295.204.378.054zm5.274-.081c.046.116.133.191.325.162.062-.064.061-.192.054-.326-.157-.07-.366-.052-.38.164m-13.957-.11v-.162h-.162c-.01.118.044.173.162.163m19.53-.435c.007.14.08.21.217.218.017-.074.077-.104.054-.218a.202.202 0 0 0-.27 0m6.384 0h.216v-.217c-.15-.169-.385.067-.216.217m-35.87-.108c.004-.094-.041-.139-.108-.163-.077.08-.08.21.108.163m28.62-.217c.007.137.078.21.217.217.079-.128.113-.101.053-.272-.125-.017-.207.01-.27.055m-.162-.325c.077.012.09.089.162.108.018-.074.078-.104.054-.218-.123-.015-.204.014-.216.11m-7.737.162c.08-.128.114-.101.054-.272h-.216c-.026.17.067.222.162.272m-17.582-.543c-.024.24.09.344.27.38.014-.076.118-.061.162-.109.04-.336-.262-.438-.433-.271m12.66-.054c.076.082.263.171.379.054.126-.361-.483-.478-.38-.054m12.228-.434c.02.251.184.358.379.434.012-.043.045-.064.108-.054 0-.145-.02-.31.054-.38a.42.42 0 0 0-.541 0m13.092-.055c.016-.143-.075-.178-.216-.162-.045.194.115.269.216.162m-41.008 0c.016-.143-.075-.178-.217-.162-.044.194.115.269.217.162m21.803 0c.012-.043 0-.107.053-.108-.01-.153-.093-.232-.27-.217-.122.139-.051.412.217.325m-12.714-.325c-.057.315.234.022 0 0m-4.87.488c.133-.095.128-.327.055-.488-.508-.3-.687.605-.055.488m24.4-.38c.05.095.1.189.27.162.063-.063.062-.19.054-.324-.042-.013-.105-.002-.107-.055-.138.007-.21.079-.217.217m.704.217c.137.115.218.287.27.489a.255.255 0 0 1 .162.054c.087-.129.195-.24.27-.38-.498.25-.199-.583-.54-.65-.091.124-.018.415-.162.487m-6.493-.271c.384.077.443-.171.541-.38-.343-.23-.85.001-.54.38m-20.884-.434c.038-.22-.052-.31-.27-.271-.039.218.051.31.27.27m2.056-.217c-.028.247.08.355.325.326.062-.064.06-.192.054-.326-.148-.106-.23-.106-.379 0m37.222-.434c.006.138.078.21.216.217.017-.073.077-.103.054-.216a.2.2 0 0 0-.27 0m-19.422.433c.46.272.716-.36.378-.597-.495-.149-.59.356-.378.597M5.905 30.94c-.057.315.234.023 0 0m12.714-.054c-.045.154.076.14.053.271h.217c.074-.068.074-.256 0-.325-.125-.018-.208.009-.27.054m2.326-.054c.17.024.241-.047.216-.217-.149-.17-.384.067-.216.217m32.406-.217h.109v-.109h-.109zm-.108-.597c-.022.22.056.342.27.325.078-.073.078-.307 0-.38-.124-.017-.207.009-.27.055m-16.176.054c.086-.081.079-.31-.109-.272-.115.112-.028.259.109.272m4.815-.217h.108c.084-.134-.183-.16-.162-.054.033.003.064.008.054.054m11.903 0v-.109c-.1-.18-.265.163 0 .109m-42.362-.163h.108v-.108h-.108zm37.546-.108c-.045.207.115.21.216.27.075-.069.075-.256 0-.325-.094-.004-.168.012-.216.055m-6.492-.326h.162v-.11h-.162zm-21.153-.326c-.014.177.064.261.216.271.135-.164-.036-.402-.216-.271m-3.03.108c.079.08.354.08.433 0 .14-.494-.573-.494-.433 0m2.543-.65c-.017.142.075.177.216.162.041-.191-.141-.243-.216-.163m-.812.054c.259.163.731.148.65-.325-.272-.245-.64-.011-.65.325M42.1 28.01c.107 0 .068.148.216.11V27.9c-.124-.014-.204.014-.217.11m-9.873.08l-.081.028c.005.161.297.312.433.162-.127-.09-.132-.303-.38-.271zm-.947-.624c-.02.249.173.283.325.218.086-.269-.187-.34-.325-.218m-24.02-.217c-.586-.177-.665.475-.38.706h.433c.182-.241.166-.517-.053-.706m20.665-.162c-.02.202.044.318.217.325.078-.012.092-.089.163-.108.008-.136-.086-.168-.109-.272-.125-.017-.207.009-.27.055m3.03-.055c-.086-.023-.047-.17-.217-.108-.1.181.194.228.216.108m14.824-.054c.025-.17-.115-.174-.27-.163-.06.22.166.268.27.163m2.38.054c.198.035.289-.036.38-.108.038-.167-.056-.199-.055-.326-.352-.258-.597.226-.324.434m-2.272-.325c.157.08.157-.244 0-.163zm-3.3-.272c.084-.08.06-.242-.109-.217-.015.123.013.204.108.217m5.519 0a.356.356 0 0 0-.054-.272h-.163c-.023.186.017.31.217.272m-19.26-.217c.103.023.098.155.27.109.083-.235-.247-.293-.27-.11m16.933-.488c.073.055.106.147.217.163.045-.063.071-.145.054-.27-.135-.01-.263-.011-.27.107m-30.46-1.139c.017-.144-.075-.179-.216-.163-.044.194.115.27.216.163m-4.057.27c.255.022.39-.078.378-.325-.042-.012-.063-.045-.054-.108-.352-.258-.597.225-.324.434m11.253-.434c.069.003.075.07.162.054.003-.093-.042-.139-.108-.163 0 .054-.044.065-.054.109m-3.95-.76h.108v-.109h-.108zm3.733-.38c-.056.315.235.022 0 0m27.916-.326c.032-.033.127-.257 0-.271.033.096-.158.225 0 .271m-10.874-.76c-.01.136.083.17.162.217.013-.078.09-.092.109-.163-.108 0-.069-.148-.217-.108-.003.033-.008.064-.054.054m-21.857-.326c-.078.03-.28-.063-.27.055.078-.03.28.063.27-.055m32.57.055c.048.206.28.45.54.271.096-.428-.404-.524-.54-.272M39.88 20.573c-.108.112-.042.36 0 .488.129.033.246.078.432.054.111-.087.126-.272.108-.488-.107-.089-.393-.175-.54-.054m-3.95-.054c-.05-.19-.216-.379-.541-.218-.852.42.794 1.2.54.218m-5.572-1.358h.163v-.109h-.163zm-5.193-.163c-.048-.041-.155.034-.162.054-.077.205.269.04.162-.054m14.715.435c.03-.546-1.154-.836-.973.163.286.357.95.268.973-.163m-1.786-.38h.11v-.11h-.11zm-6.978 0c-.116-.102-.12-.315-.379-.272-.051.235.224.423.379.271m10.658-.271h.108v-.109h-.108zm-11.145.054c.07-.072.071-.202-.054-.217-.07.073-.072.202.054.217m5.248-.108h.27c.038-.219-.052-.31-.27-.271zm-2.651.054a.276.276 0 0 0 .379-.38c-.34-.19-.613.12-.38.38m-7.438-.136l-.081.027c.042.142.332.315.487.163-.114-.12-.18-.29-.434-.271zm14.634-.407c-.082-.8-.713.26 0 0m-10.766-.217c-.06-.24-.484-.358-.703-.108-.257.772.857.73.703.108m-10.55-.217c.073.017.104.077.217.054v-.162c-.124-.016-.204.013-.217.108m11.416 0c.09.072.18.144.379.109.074-.07.053-.236.053-.38-.231-.135-.492-.138-.432.27m-.65-.27c-.104-.023-.042-.211-.216-.163-.15.09.114.344.216.163m-6.221-.543c-.048-.042-.155.034-.162.054-.077.205.27.039.162-.054m9.36.054v-.108c-.1-.18-.264.163 0 .108m-.65-.054c.093.003.139-.042.162-.11-.084.007-.187-.006-.162.11m7.412-.11h.216c.026-.169-.046-.24-.216-.216zm-9.468-.053v-.217h-.216c.006.138.079.21.216.217m-4.274-.217c.108 0 .069.148.216.109V16.5c-.122-.015-.203.014-.216.109m2.76-.163h.162c.01-.118-.045-.173-.162-.163zm-6.655-.543c.206.027.346-.015.433-.108.032-.176-.037-.253-.054-.38-.37-.26-.669.25-.379.488m-6.925-.325c.103.012.12-.061.217-.055v-.217c-.063-.046-.145-.071-.27-.054-.065.162-.016.184.053.326m1.515-.272c.016-.143-.074-.178-.216-.163-.055.181.075.178.216.163m18.07.054c.12-.095.333-.1.27-.38-.384-.245-.677.26-.27.38m-5.843-.325h.162v-.163h-.162zm4.382-.055c.094.005.168-.012.216-.054.01-.136-.083-.17-.162-.217-.08.128-.114.101-.054.271m-11.145-.434c.042-.353-.34-.411-.487-.326-.62.363.413.946.487.326m3.625-.38v.109c.033.003.064.008.054.054h.108c.003-.033.008-.064.054-.054v-.109c-.033-.003-.064-.008-.054-.054h-.108c-.003.033-.008.064-.054.054m6.167-.108c.233.138.463-.093.325-.327-.127.002-.16-.092-.325-.053-.077.072-.077.306 0 .38m-17.42.217c.218.115.468.023.595-.109.024-.186-.022-.304-.054-.435-.377-.365-.906.166-.541.544m28.565-.76c-.047-.042-.154.033-.162.054-.078.207.27.039.162-.054m-11.902-.272c-.156.072-.111.344-.054.488a.61.61 0 0 0 .487 0c.012-.041.001-.106.054-.107a.341.341 0 0 0-.487-.38m11.956.054c.076.547 1.105.466.866-.272-.361-.367-.932-.21-.866.272m-8.06-.489c.054 0 .064.044.107.054 0-.054.044-.064.055-.108-.055 0-.065-.044-.109-.054 0 .054-.044.064-.054.108m-14.715-.108v-.163h-.162c-.01.118.044.173.162.163m4.49-.652c.054 0 .064.044.108.054-.005-.085.007-.188-.108-.162zm12.551-.054c.031.263.332.33.434.108.003-.184-.16-.201-.271-.27a4.702 4.702 0 0 1-.163.162m-4.652-.163c-.017.126.008.208.054.271.17.08.368.01.324-.27-.123-.027-.276-.109-.378 0m2.543.162c.201.022.317-.044.324-.218-.115-.357-.642-.03-.324.218m-15.311-.109c.133.007.261.009.325-.054.028-.246-.08-.354-.325-.325-.077.072-.077.306 0 .38m10.009-.218c.025-.17-.048-.242-.217-.217-.025.17.047.243.217.217m-3.247 2.009c.514-.12 1.066-.909.65-1.629-.17-.295-.582-.266-.812-.597 0-.03-.044-.06-.054 0-1.868.004-1.423 2.61.216 2.226m.704-2.171c.015-.124-.013-.204-.108-.217.012.095-.055.271.108.217m6.33 0c.028.08.08.136.108.216h.27c.334-.319-.308-.716-.378-.216m-19.585-.055c.018-.126-.008-.208-.054-.271h-.162c-.014.177.064.26.216.271m21.75.162c.112.46 1.16.479.919-.324-.429-.49-1.052-.209-.92.325m-.325-.543h.109v-.108h-.109zm-4.544.435c.455-.027.327-.778-.109-.652-.483.14-.245.672.109.652m-7.574-.814c.038-.168.038-.105 0-.272h-.217c-.078.165-.009.278.217.272m16.554-.49c.103-.012.12.061.217.055.117-.124.02-.339-.162-.326-.046.064-.072.145-.055.272m-10.928.325c.008-.02.114-.096.162-.054.108.093-.24.261-.162.054m.108-.597c-1.246-.14-1.103 1.404-.216 1.466.5.035.644-.32.974-.597.155-.061.364-.068.378-.272-.11-.208-.31-.115-.487-.163-.016-.164-.2-.325-.054-.488-.27.017-.208-.297-.432-.326-.095.136.053.299-.163.38m-7.466.054c.116.567 1.187.488 1.082-.217-.05-.334-.417-.462-.703-.38-.377.108-.43.35-.379.597m1.136-.65c-.017.125.01.207.055.27.133.008.26.009.324-.054v-.217c-.072-.077-.306-.077-.379 0m-.811-.163c.1-.096-.014-.167-.108-.217-.085.08-.06.243.108.217m15.96.109c.133.007.26.008.324-.055.076-.537-.699-.27-.324.055M23.542 9.01h.108c.06-.077.058-.132-.054-.162-.003.069-.07.075-.054.163m18.123.814c.208-.014.614-.21.595-.652-.017-.451-.526-.675-.865-.597-.825.192-.405 1.293.27 1.249m-13.092-.977v-.272c-.527-.46-.642.608 0 .272m-1.947-.652c-.349.347.354.714.432.217-.1-.116-.158-.275-.433-.217m.65-.054h.162c.015-.142-.02-.234-.163-.217zm-14.986-.163c-.402 1.585 2.285 1.913 2.001 0-.355-.779-1.783-.861-2.001 0m35.706 2.551c-.223-.044-.277.084-.27.272.143 0 .319.03.325-.108l-.082-.064zm2.57-1.818l-.027.081c.382.045.697.208 1.028.163.803-.11 1.262-1.06.595-1.737-1.021-.394-1.811.233-1.677 1.466zm-8.953-1.439c.055.222-.253.29-.217.055.048-.043.122-.06.216-.055m.487 0c-.129-.406-1.028-.607-1.352-.162-.55 1.47 1.755 1.428 1.352.162m-11.36-.38c.219.022.376-.02.378-.217-.055-.126-.186-.175-.379-.162-.077.072-.077.307 0 .38m-12.768-.76h.163c.01-.119-.044-.174-.163-.164zm12.498-.109c-.058-.394-.906-.555-.757.217.28.384.814.184.757-.217m1.352-1.412c.054.729 1.427.73 1.19-.216-.334-.522-1.241-.473-1.19.216m-17.853-.705c.266.02.375-.178.27-.38h-.324c-.072.162-.056.275.054.38m18.123-.38c-.218-.19-.127.175 0 0m-6.708-.055v-.162h-.162c-.01.118.044.172.162.162m-12.66-.325c.203.022.318-.044.325-.217-.103-.315-.544-.061-.325.217M24.787 1.9c.028.191-.047.279-.163.325-.174-.007-.238-.123-.217-.325.102-.108.256-.027.38 0" fill="white" fill-rule="evenodd"/></svg>