<svg xmlns="http://www.w3.org/2000/svg" width="244.89" height="153.894" viewBox="0 0 64.794 40.718"><path d="M36.87 24.619c-.004.017.002.032.019.037l.073.019.14.051c.017.006.043.002.05-.014.005-.017.005-.031-.012-.037l-.166-.063-.061-.015c-.018-.004-.039.005-.043.022m-4.195-.082a.034.034 0 0 0 .013.045l1.088.61.826.473a.032.032 0 0 0 .044-.012.032.032 0 0 0-.013-.045l-.824-.472-1.092-.612c-.015-.009-.034-.002-.042.013m6.632-.24a.026.026 0 0 0 .016.033l.035.014.115.037c.013.003.025-.004.03-.018.004-.013-.006-.027-.02-.032l-.108-.035-.036-.013a.025.025 0 0 0-.032.015m-7.023 0a.028.028 0 0 0 .017.034l.035.014.116.036c.014.005.027-.003.031-.018.005-.014-.005-.03-.02-.035l-.107-.035-.037-.013a.027.027 0 0 0-.035.016m-2.478-4.351a.056.056 0 0 0 .023.075c.376.196.795.235 1.2.272l.293.03a.055.055 0 0 0 .061-.05.054.054 0 0 0-.048-.061l-.297-.03c-.411-.037-.8-.074-1.157-.26a.054.054 0 0 0-.075.024m-3.428-.874a.044.044 0 0 0 .029.054l.522.164c.514.167 1.044.34 1.552.33.024 0 .042-.02.042-.043a.042.042 0 0 0-.043-.042c-.494.01-1.018-.162-1.524-.327l-.526-.164a.042.042 0 0 0-.052.028m2.283.529a.03.03 0 0 0-.01.042c.081.129.216.151.347.173a.56.56 0 0 1 .25.08.03.03 0 0 0 .042-.004.031.031 0 0 0-.005-.043c-.08-.06-.18-.077-.277-.094-.123-.02-.239-.039-.305-.145a.03.03 0 0 0-.042-.009m-4.63-1.212c-.004.017.015.034.031.037l.112.023c-.017-.004-.024-.019-.02-.036.003-.016.025-.026.041-.022l-.135-.027c-.016-.004-.025.008-.03.024m.663.155a.04.04 0 0 0 .007.056.885.885 0 0 0 .328.133l.079.021a.04.04 0 0 0 .048-.028.038.038 0 0 0-.027-.048l-.08-.021a.794.794 0 0 1-.3-.12.04.04 0 0 0-.055.007m25.51.362c-.35.282-.65.631-.94.968-.357.414-.726.843-1.191 1.147a.042.042 0 0 0-.012.058.042.042 0 0 0 .057.012c.475-.31.848-.744 1.21-1.163.286-.334.583-.679.929-.958a.042.042 0 1 0-.052-.064m-1.82 2.513a.03.03 0 0 0 .023.036.993.993 0 0 1 .38.167.03.03 0 0 0 .043-.006.03.03 0 0 0-.005-.042 1.04 1.04 0 0 0-.405-.178.03.03 0 0 0-.036.023m-14.11-4.04a.031.031 0 0 0-.031.032c0 .017.014.03.03.03h.099a.031.031 0 0 0 0-.061zm-13.302-.133c-.009.025.007.054.032.063l.665.25c.262.108.533.22.81.292a.048.048 0 0 0 .058-.034.048.048 0 0 0-.035-.058 6.474 6.474 0 0 1-.797-.29l-.674-.252c-.025-.01-.049.005-.059.029m-2.246-.982a.038.038 0 0 0 .02.048l.748.324.725.316a.035.035 0 0 0 .046-.02.038.038 0 0 0-.02-.048l-.721-.314-.752-.326c-.018-.008-.038.001-.046.02m-2.067-1.056l-.106.006.022.05.568.277.368.19c.024.014.052.003.065-.021a.053.053 0 0 0-.023-.069l-.362-.187-.56-.273zm2.097-.743a.04.04 0 0 0-.037.043.04.04 0 0 0 .043.036.731.731 0 0 1 .27.045.04.04 0 0 0 .022-.077c-.095-.028-.192-.057-.298-.047m-6.362-1.306a.035.035 0 0 0 .016.047 116.03 116.03 0 0 0 3.88 1.873.036.036 0 0 0 .047-.018.036.036 0 0 0-.018-.047 116.882 116.882 0 0 1-3.877-1.872.036.036 0 0 0-.048.017m37.652 12.717a.038.038 0 0 0 .03.045c.738.145 1.496.516 2.23.876l.682.328a.038.038 0 0 0 .05-.018.039.039 0 0 0-.018-.05l-.68-.328c-.738-.362-1.501-.736-2.25-.882a.037.037 0 0 0-.044.03m3.499 1.403a.074.074 0 0 0 .018.104l.44.293c.206.13.42.267.607.423a.077.077 0 0 0 .107-.01.077.077 0 0 0-.01-.107 5.906 5.906 0 0 0-.622-.435l-.432-.288a.078.078 0 0 0-.108.02m1.428 1.1a.083.083 0 0 0-.013.117l.235.295c.278.347.564.705.797 1.086a.082.082 0 0 0 .114.027.082.082 0 0 0 .027-.114c-.238-.39-.528-.752-.809-1.103l-.234-.294a.083.083 0 0 0-.117-.014m2.394 5.938l-.297.107c-.272.101-.529.197-.806.216a.077.077 0 0 0-.072.082.077.077 0 0 0 .083.072c.299-.02.578-.124.848-.225l.292-.104a.08.08 0 0 0 .05-.1.075.075 0 0 0-.098-.048m-9.488-6.06a.053.053 0 0 0-.051.054c0 .03.025.053.054.052 1.927-.04 4.254.96 5.79 1.91.635.394 1.157.81 1.552 1.237a.052.052 0 0 0 .074.002.053.053 0 0 0 .003-.074c-.4-.434-.931-.856-1.574-1.254-1.548-.958-3.898-1.968-5.848-1.926m5.11 6.561a.09.09 0 0 0 .076.101c.59.085 1.196.084 1.781.084h.147c.049 0 .089-.04.089-.09a.09.09 0 0 0-.09-.09h-.146c-.579.001-1.178.002-1.756-.081a.09.09 0 0 0-.1.076M45.76 24.47a.033.033 0 0 0 .005.066c.127-.009.244.027.368.065l.112.033a.033.033 0 0 0 .04-.023.034.034 0 0 0-.023-.04l-.11-.033c-.125-.038-.253-.077-.392-.068m-.799-.19c-.103.06-.224.052-.353.045a.815.815 0 0 0-.33.026.031.031 0 0 0-.018.04.032.032 0 0 0 .04.019.773.773 0 0 1 .306-.023c.132.008.267.016.386-.054a.031.031 0 1 0-.03-.054m-3.864 1.015a.037.037 0 0 0 .02.047l.493.204c1.825.757 4.095 1.7 5.915.44a.036.036 0 0 0 .009-.05.036.036 0 0 0-.05-.008c-1.788 1.236-4.038.302-5.846-.448l-.495-.204a.035.035 0 0 0-.046.02m1.798-1.343c-.36.075-.712.188-1.052.297l-.769.23a.096.096 0 0 0-.066.117.09.09 0 0 0 .112.063l.78-.233c.335-.108.683-.219 1.032-.292a.093.093 0 1 0-.037-.182m.59-.976a.499.499 0 0 1-.31 0 .053.053 0 0 0-.066.034.053.053 0 0 0 .035.065.6.6 0 0 0 .376 0 .052.052 0 0 0 .032-.067.052.052 0 0 0-.067-.032m-1.775-.167a.032.032 0 0 0 .006.045.031.031 0 0 0 .045-.007c.09-.122.27-.1.434-.06a.032.032 0 0 0 .038-.025.031.031 0 0 0-.024-.039c-.12-.028-.373-.087-.5.086m1.385.018a.053.053 0 0 0 .032.101.493.493 0 0 1 .31 0 .053.053 0 0 0 .067-.033.054.054 0 0 0-.032-.067.606.606 0 0 0-.377 0M23.65 26.062c-.01.011-.007.028.004.037l.563.467a.025.025 0 0 1-.002-.036c.009-.01.025-.011.037-.002l-.567-.47a.024.024 0 0 0-.035.004m-4.436-1.782h-.038a.05.05 0 0 0-.048.051.05.05 0 0 0 .05.049l.038-.001c.258-.006.551-.013.813.024a.05.05 0 0 0 .057-.042.05.05 0 0 0-.043-.055 5.088 5.088 0 0 0-.83-.026m13.17-1.118a.029.029 0 0 0 .016.036l.267.104c.556.217 1.131.441 1.7.587a.027.027 0 0 0 .033-.02.027.027 0 0 0-.02-.034c-.565-.145-1.139-.369-1.693-.585l-.267-.104a.028.028 0 0 0-.036.016m4.922 1.052l-.075.012-.125.022c-.042.007-.065.045-.058.087.007.041.051.068.093.06l.11-.018.083-.013a.074.074 0 0 0 .06-.087.078.078 0 0 0-.088-.063m2.298.68a56.227 56.227 0 0 1-4.069.967.088.088 0 0 0 .034.172c1.377-.273 2.75-.6 4.082-.97a.089.089 0 0 0 .06-.108.088.088 0 0 0-.107-.06m-4.667.922c-.02.013-.041.012-.054-.007l.09.133c.012.018.043.034.062.022.018-.013.029-.026.017-.045l-.107-.164c.012.019.01.049-.008.06m-3.191.087a.074.074 0 0 0 .061.086l.082.014.11.019c.042.007.086-.02.093-.061.007-.042-.015-.08-.057-.088l-.125-.022-.075-.011a.077.077 0 0 0-.089.063m-1.055-1.877l-.065.145c.013-.03.049-.046.079-.033.03.014.044.046.03.076l.055-.122c.013-.03.005-.073-.025-.087-.03-.014-.06-.009-.073.021m-5.78.64c-.005.02.002.039.022.044l.106.026c-.02-.005-.035-.026-.03-.045.005-.02.02-.033.04-.028l-.09-.023c-.02-.005-.044.006-.048.026m-3.819-.304a.078.078 0 0 0 .05.1l.098.032a.077.077 0 0 0 .098-.049.078.078 0 0 0-.05-.099l-.098-.033a.078.078 0 0 0-.098.05M15.69 26.39c-.005.05.043.093.091.099l.222.024.093.016a.087.087 0 0 0 .1-.073.09.09 0 0 0-.074-.103l-.087-.014-.261-.028c-.049-.005-.08.03-.084.08m15.704-2.706a.046.046 0 0 0 .003.064c.156.141.353.157.542.172l.263.035c.024.003.052-.013.055-.038.003-.024-.01-.046-.034-.05l-.277-.037c-.183-.014-.355-.028-.489-.15a.045.045 0 0 0-.063.004m11.484-3.548c-.039.027-.044.086-.018.125l.053.08.02.03a.085.085 0 0 0 .117.026.086.086 0 0 0 .026-.118l-.018-.028-.067-.098c-.026-.04-.074-.043-.113-.017m-6.683.37a.044.044 0 0 0 .036.05l1.411.217 2.222.35a.045.045 0 0 0 .051-.038.044.044 0 0 0-.036-.05l-2.224-.35-1.41-.217a.044.044 0 0 0-.05.037m2.35.84c0 .028.016.051.043.054l.426.035c.26.015.507.029.744.11a.05.05 0 0 0 .031-.093c-.25-.086-.514-.101-.769-.115l-.418-.036c-.028-.001-.054.018-.056.046m2.094 1.17c-.209.21-.452.37-.71.538l-.057.038a.107.107 0 0 0-.032.149.107.107 0 0 0 .148.031l.058-.038c.256-.167.52-.34.745-.568a.108.108 0 0 0 0-.151.107.107 0 0 0-.152.001m-6.384-1.613a.05.05 0 0 0 .006.071c.597.51 1.282.951 1.944 1.378.52.334 1.057.68 1.549 1.057a.05.05 0 0 0 .07-.009.05.05 0 0 0-.01-.07 22.866 22.866 0 0 0-1.555-1.063c-.66-.424-1.34-.863-1.933-1.37a.05.05 0 0 0-.07.006m.01.003a.04.04 0 0 0 .054.06.377.377 0 0 1 .159-.092c1.057.177 2.21.32 3.719.467a.04.04 0 0 0 .044-.037.041.041 0 0 0-.037-.044 55.87 55.87 0 0 1-3.73-.466.42.42 0 0 0-.209.112m-.708-.318a.08.08 0 0 0 .055.1c.115.034.214.094.32.158l.335.166c.04.02.077 0 .097-.04.02-.04-.007-.093-.047-.113l-.303-.152a1.525 1.525 0 0 0-.357-.174.08.08 0 0 0-.1.055m-.186-.299c-.028.024-.039.055-.015.083l.117.141.101.126c.023.028.073.046.101.023.029-.022.042-.05.02-.08l-.13-.164-.094-.11c-.023-.029-.072-.042-.1-.019m.035.015a.037.037 0 0 0-.028.044.037.037 0 0 0 .043.027c.473-.106.986-.035 1.482.035.31.043.63.087.94.09a.036.036 0 0 0 0-.073 7.201 7.201 0 0 1-.93-.09c-.503-.07-1.022-.142-1.507-.033m-.54-.21c-.018.04.007.09.046.107l.224.102.252.112c.04.018.08-.002.098-.043.018-.04-.007-.09-.047-.107l-.474-.214c-.04-.018-.08.003-.098.042m1.328-2.064a.075.075 0 0 0 .038.098l.42.187 1.065.461a.073.073 0 0 0 .096-.04.077.077 0 0 0-.04-.099l-1.06-.458-.421-.187a.074.074 0 0 0-.098.038m4.519 1.961c-.006.041.016.08.058.088l.125.021.075.012a.078.078 0 0 0 .089-.063.074.074 0 0 0-.061-.087l-.082-.013-.11-.019c-.042-.007-.086.02-.094.061m4.182-9.304l-.276.185c-.265.17-.54.345-.69.638a.029.029 0 0 0 .013.039.028.028 0 0 0 .04-.012c.142-.28.41-.45.668-.616l.28-.187a.029.029 0 0 0 .007-.04.03.03 0 0 0-.042-.007m-8.542 5.829a.087.087 0 0 0-.01.123c.141.166.324.283.467.368a.087.087 0 0 0 .088-.15 1.65 1.65 0 0 1-.423-.332.087.087 0 0 0-.122-.01m.273.744c-.001.021.018.04.039.041l.078.006.132-.008c.02-.001.024-.017.023-.037 0-.022-.03-.036-.052-.035l-.094.003-.089-.005c-.02-.002-.036.014-.037.035m3.91 1.689a.04.04 0 0 0-.03.046.038.038 0 0 0 .045.03c1.022-.212 2.077-.114 2.897.268a.039.039 0 0 0 .052-.018.04.04 0 0 0-.02-.052c-.833-.39-1.907-.49-2.945-.274m-.158.498a.07.07 0 0 0 .052.085c.247.059.486.184.717.304a.07.07 0 0 0 .095-.03.072.072 0 0 0-.03-.095c-.24-.124-.485-.253-.75-.316a.07.07 0 0 0-.084.052m-9.635-3.805a.086.086 0 0 0 .051.109c.988.355 1.964.81 2.909 1.25l1.653.751a.084.084 0 0 0 .11-.043.087.087 0 0 0-.044-.114l-1.648-.748c-.948-.442-1.928-.9-2.922-1.257a.085.085 0 0 0-.11.052m-3.455-1.502c-.01.028 0 .058.028.068l.485.193c.359.132.697.257.976.49a.053.053 0 0 0 .074-.008.054.054 0 0 0-.006-.075c-.293-.244-.656-.378-1.007-.508l-.478-.188c-.027-.012-.061.001-.072.028m-.185.286a.048.048 0 0 0 .01.068 8.797 8.797 0 0 0 .789.545.048.048 0 0 0 .05-.083 9 9 0 0 1-.781-.539.048.048 0 0 0-.068.01m5.436 3.927a.068.068 0 0 0 .01.095c.33.27.693.515 1.044.752.448.304.912.618 1.301.977a.068.068 0 1 0 .091-.1c-.396-.365-.864-.682-1.317-.989-.348-.236-.708-.48-1.035-.745a.067.067 0 0 0-.094.01m2.384 1.747c-.194.117-.43.102-.682.087l-.426-.001c-.018 0-.029.014-.029.032 0 .018.02.032.037.032l.414.001c.25.016.509.032.72-.096a.032.032 0 0 0 .01-.044.032.032 0 0 0-.044-.011m-1.293.257c-.004.023.014.046.037.05l.657.13c.447.105.91.213 1.32.116a.042.042 0 0 0 .032-.05.042.042 0 0 0-.05-.032c-.393.093-.845-.013-1.283-.116l-.666-.13c-.023-.005-.042.01-.047.033m-4.978.46a.04.04 0 0 0 .02.052c1.443.615 3.078 1.31 4.666 1.922a.039.039 0 0 0 .051-.023.04.04 0 0 0-.023-.05c-1.586-.612-3.22-1.308-4.663-1.922a.04.04 0 0 0-.051.021m-1.83-.69a.078.078 0 0 0 .05.098l.098.033a.078.078 0 0 0 .049-.148l-.098-.033a.078.078 0 0 0-.098.05m-11.688-2.884c0 .042.026.076.068.078l1.325.032c.042.001.084-.031.084-.074.002-.041-.025-.076-.067-.077l-1.326-.032c-.042-.002-.082.031-.083.073m13.34 3.74a.048.048 0 0 0 .017.064l1.36.758 2.716 1.508a.047.047 0 0 0 .064-.019.049.049 0 0 0-.019-.065l-2.716-1.507-1.359-.758a.047.047 0 0 0-.064.018m-8.125-.843a.067.067 0 0 0 .053.077c2.373.469 4.695 1.186 6.94 1.878 1.686.52 3.429 1.058 5.184 1.488a.066.066 0 0 0 .08-.05.066.066 0 0 0-.05-.079c-1.75-.429-3.49-.967-5.175-1.486-2.248-.694-4.574-1.411-6.954-1.881a.068.068 0 0 0-.078.053m-7.178 3.882a.08.08 0 0 0-.012.113c1.041 1.297 2.718 1.79 4.198 2.226l.396.116a.08.08 0 0 0 .045-.154l-.396-.117c-1.528-.45-3.108-.914-4.117-2.172a.08.08 0 0 0-.114-.012m4.556 2.357l-.04.134c.009-.028.04-.048.067-.04.027.009.043.034.036.061l.033-.113c.009-.028-.005-.063-.032-.07-.029-.009-.055 0-.064.028m25.517 5.073a.067.067 0 0 0 .024.09l1.315.758c2.236 1.3 4.772 2.775 7.254 3.438 1.567.418 3.756.695 5.283-.357a.066.066 0 0 0-.075-.108c-1.485 1.024-3.633.75-5.175.338-2.464-.658-4.992-2.128-7.221-3.425l-1.316-.759a.065.065 0 0 0-.09.025m13.892-3.212a.062.062 0 0 0 .02.085c1.069.647 2.287 1.433 3.225 2.572a.062.062 0 0 0 .088.01.062.062 0 0 0 .008-.089c-.95-1.154-2.18-1.947-3.256-2.6a.062.062 0 0 0-.085.022m-6.474-3.757a.05.05 0 0 0 .025.067c1.454.662 2.992 1.392 4.41 2.408a.05.05 0 0 0 .06-.082c-1.427-1.022-2.97-1.755-4.428-2.418a.05.05 0 0 0-.066.024m-1.382-.53a.06.06 0 0 0-.056.063.059.059 0 0 0 .062.056c.265-.015.525.114.776.238l.329.152c.03.014.062 0 .075-.03.014-.03-.002-.068-.032-.081l-.32-.147c-.265-.132-.539-.269-.834-.251m.782-1.528a.057.057 0 0 0 .045.067c2.133.393 4.252.619 6.044.789a.058.058 0 0 0 .063-.052.057.057 0 0 0-.052-.062c-1.79-.17-3.906-.397-6.033-.788a.057.057 0 0 0-.067.046m.245-.256a.513.513 0 0 0-.282.114.07.07 0 0 0 .088.109.379.379 0 0 1 .209-.084.07.07 0 1 0-.015-.139m-2.578-.106a.086.086 0 0 0 .073.094l.665.096.56.084a.08.08 0 0 0 .092-.07.085.085 0 0 0-.071-.094l-.555-.084-.674-.097c-.045-.007-.083.026-.09.07m-3.432-2.349a.07.07 0 0 1-.074.067c.06.004.109.038.166.079a.484.484 0 0 0 .222.102.07.07 0 0 1-.062-.079.07.07 0 0 1 .078-.062c-.055-.006-.102-.04-.157-.078a.452.452 0 0 0-.24-.103.07.07 0 0 1 .067.074m-6.068-2.804a.06.06 0 0 0-.052.067.06.06 0 0 0 .067.051c1.284-.168 2.882-.376 4.246.276a.06.06 0 0 0 .079-.028.06.06 0 0 0-.029-.08c-1.394-.667-3.012-.456-4.311-.286m7.402-6.636a.048.048 0 0 0 .038.089c1.38-.595 3.026-1.186 4.752-1.056a.048.048 0 0 0 .052-.044.048.048 0 0 0-.044-.052c-1.748-.13-3.406.464-4.798 1.064m5.485 1.21a3.627 3.627 0 0 1-.46.5.092.092 0 0 0 .122.135c.18-.164.343-.34.483-.525a.091.091 0 0 0-.145-.11m-2.896.547a.068.068 0 0 0-.027.092.067.067 0 0 0 .092.027c.522-.282 1.334-.44 1.904.042a.068.068 0 0 0 .095-.008.068.068 0 0 0-.008-.096c-.622-.526-1.496-.36-2.056-.057m1.884.461l-.157.14-.093.07c-.04.03-.043.083-.014.123a.092.092 0 0 0 .129.014l.082-.06.2-.183c.035-.033.025-.075-.008-.112-.033-.036-.102-.024-.14.008m.545-.059a.068.068 0 0 0-.009.095c1.18 1.418.871 3.844.582 5.164-.255 1.16-.66 2.02-1.204 2.555-.64.628-1.706 1.09-2.853 1.235a.067.067 0 0 0-.058.075.067.067 0 0 0 .075.059c1.175-.149 2.27-.625 2.93-1.272.563-.553.98-1.435 1.241-2.623.295-1.344.607-3.817-.61-5.28a.067.067 0 0 0-.095-.008m-41.01-2.087a.032.032 0 0 0 .005.046c1.267 1.004 2.674 1.76 3.884 2.369a.032.032 0 0 0 .044-.015.033.033 0 0 0-.015-.044c-1.206-.607-2.61-1.362-3.873-2.36a.032.032 0 0 0-.046.004m4.28-4.927a.027.027 0 0 0-.004.039 40.931 40.931 0 0 0 1.67 1.972.028.028 0 0 0 .04.002.028.028 0 0 0 .001-.04 40.664 40.664 0 0 1-1.668-1.969.028.028 0 0 0-.039-.004m14.706 19.477c-.002.023.023.042.046.043l.392.025c.022.002.035-.015.037-.038 0-.023-.023-.042-.046-.044l-.184-.012-.21-.012c-.022-.001-.034.015-.035.038m6.528-.789c-.002.024.013.044.036.046l.404.03c.242.011.493.022.715.115a.042.042 0 0 0 .056-.023.043.043 0 0 0-.023-.057c-.236-.098-.494-.109-.744-.12l-.395-.03c-.024-.001-.047.016-.05.04m1.517-.126a.03.03 0 0 0-.03.03c0 .017.013.03.03.03h.097a.03.03 0 0 0 .03-.03.03.03 0 0 0-.03-.03zm-2.117.001c-.002.017 0 .03.017.032l.188.026.045.001a.03.03 0 0 0 .03-.03.03.03 0 0 0-.028-.03l-.047-.001-.162-.021c-.016-.002-.04.007-.043.023m-9.44-8.324a.068.068 0 0 0 .056.08c.194.032.387.097.573.16l.055.018a.068.068 0 0 0 .088-.044.07.07 0 0 0-.044-.087l-.056-.02c-.19-.063-.388-.13-.593-.164a.068.068 0 0 0-.079.057m5.37 3.92l-.025.074c-.007.107.175.022.246.049l-.024-.074.073.024c.027-.174-.041-.254-.147-.295-.05.098-.217.078-.196.246zm-4.296-1.158h-.05c.08.214.37.405.59.197v-.05h.05a.533.533 0 0 0-.246-.344c-.15.013-.22.107-.344.148zm24.549 3.153c-.025.254.067.392.294.394.284-.1.119-.558-.245-.443l.024.073zm-.688-.542c-.29.045-.475-.11-.687 0-.224.087-.209.414-.442.493.539.115.952-.188 1.522-.05l-.024-.05.024-.049c-.039-.174-.35-.076-.294-.344l-.05.024zm2.185-2.093l.024.073c.706-.6.938.382 1.72.345.17-.008.528-.138.637-.296.57-.829-.529-1.274-1.178-1.034-.21.077-.321.355-.54.493-.233.146-.482.088-.688.344zm-31.176-4.385l-.074.024c.075.256.526.332.687.1-.148-.135-.356-.347-.638-.198zM53.15 34.774c-1.265-.307-2.282-.28-3.24-.837-.558-.324-.922-.887-1.522-1.084-.407-.133-.92-.21-1.375-.098.156.53.403.921.737 1.182.506.397 1.106.374 1.914.443 1.087.094 2.314.603 3.437.542l-.024-.09zM37.145 24.233h-.441c-.259-.205-.637-.597-1.13-.542-.966.107-.734 1.478.344 1.28.209-.037.299-.204.442-.295.16-.103.36-.099.344-.246.15-.03.423.063.49-.05l-.073-.057zm2.456.837c.757-.34.899.14 1.522.296l.008-.058.04-.041c-.122-.155-.37-.185-.343-.493.077-.086.263-.064.343-.147l-.073-.058.025-.09c-.354-.166-.691.153-1.031-.099-.18.036-.227.233-.442.1-.006.141.027.322-.05.393-.03.003-.058.007-.048.05l.073.057zm-7.709.788c-.14-.323-.709-.528-1.03-.246-.065.659.659.787.981.394l-.024-.09zm-10.703-1.38c.01.074.119.046.197.05.212.385.302.7.589.887.297.194.615.077.982.246.257.12.32.423.54.542.085.004.152-.011.196-.05l-.025-.073.075.024c.057-.452-.44-.347-.54-.64-.013-.323.033-.59.147-.788.2-.005.402-.01.54.05.19.088.084.473.294.54.258-.003.212-.312.344-.442.183.003.31-.05.442-.099l-.025-.049.025-.05a1.27 1.27 0 0 1-.736-.541c-.298-.019-.21.348-.442.394-.442.06-.788-.166-1.08-.099.046-.153-.262-.186-.394-.196-.335-.03-.79.152-1.08.147l.025.09zm-1.227-.097c.177.11.248.037.344.246.32-.025.583-.105.883-.148l-.024-.09.074-.058c-.263-.56.158-2.061-.835-1.724-.29.383-.183 1.163-.344 1.675h-.05l.025.074zm15.71-5.617c.141.997 1.256 1.094 2.308 1.035.205.009.183.244.295.345.224.028.306-.087.54-.05l-.025-.09.074-.057c-.128-.15-.45-.106-.442-.394h.05l-.025-.09.074-.058c-.056-.092-.191-.105-.246-.197-.099-.1-.013-.13.049-.197-.42.061-.496-.493-.835-.69-.277-.16-.537-.11-.883-.246-.34.135-.597.353-.884.542l.024.09zm-2.356-1.034c.24.187.429.424.884.395l.064-.065.083-.034c-.168-.308-.598-.353-.982-.443l.025.09zm-8.1-3.3v-.05a.249.249 0 0 0 .147-.148l-.025-.073.074-.025c-.125-.446-.641-.258-1.031-.394-.39-.136-.592-.777-1.08-.492-.073.57.52.456.834.59.372.16.608.683 1.031.69l-.024-.074zm5.449 3.94c-.39-.479-1.044-.692-1.473-1.132-.036-.151.085-.145.049-.296-.15-.135-.198.13-.442.05-.332-.22-.326-1.06.05-1.232l-.025-.09.074-.058c-.01-.055-.055-.077-.099-.099-.048-.295-.1-.59-.196-.837-.327-.05-.43-.254-.687-.246-.346.01-.764.532-1.08.345l-.025.073-.074-.024v.098c-.279.194-.438-.052-.834 0l.024.074-.074.025c.113.42.46.41.59.739.082.209.002.44.049.591.151.483.566.722 1.08.788.365.047.49-.071.835 0 .54.112 1.213.747 1.473 1.084.288.022.463.158.687.246l.025-.074zm-17.38-1.181c-3.697-.346-7.754.837-10.949-.198-.322-.783-.79-1.66-1.964-1.429-.815.678-.171 1.822.786 1.922.333.035.686-.101 1.03-.098.591.003 1.212.204 1.867.246 2.987.186 6.471-.376 9.18-.296l-.024-.09zm11.685 2.906c-.82-.383-1.92-.82-2.799-1.182-.303-.125-.733-.288-.883-.444-.381-.395-.26-1.057-.835-1.133-.461-.06-.777.33-1.13.345-.376-.115-.677-.305-1.03-.443-.297-.487-.773-1.303-1.473-1.133-.56.135-.244.79-.442 1.28-.78.011-1.196-.643-1.866-.196l.025.09-.074.057c.22.134.279.259.54.296.246.035.487-.103.736-.098.34.005.736.193 1.13.295.817.21 1.583.31 2.307.542.375.12.723.308 1.08.394.807.192 1.552.322 2.26.591.714.272 1.317.683 1.963.936.194.063.1-.162.294-.099.009.058.078.053.148.05l-.025-.09zm1.62.886c-.07-.086-.045-.112.098-.098v-.05h.049a11.536 11.536 0 0 0-1.767-.738l.024.09-.073.058c.545.273 1.048.59 1.62.837l-.025-.074zm3.928 2.61c.2.3.48.293.933.198l-.025-.074.073.025c.306-.826-.551-1.028-.932-.542l.025.074-.074.025v.148l.024.074zm-19.197.494c-.699-1.035.05-2.415.687-3.054 1.362-1.367 4.358-1.3 6.432-.788l-.025-.09.074-.058c-.153-.17-.415-.158-.639-.198-.67-.118-1.464-.262-2.209-.295-1.678-.074-2.707.274-3.633 1.084-.918.804-1.873 2.43-.785 3.498v-.1zm4.37 2.414c-.272-.003-.356.308-.246.541.116.017.184.078.343.05.212-.09.177-.493 0-.591l-.049.024zm25.677 4.926c-.607-.383-1.096-.797-1.62-1.182-.218-.16-.443-.244-.54-.444-.12-.247-.07-.578-.196-.837-.294-.602-1.06-.768-1.572-1.133-.382.29-.475.87-.884 1.133-1.097-.25-2.386-.646-3.436-.936-.741-.205-1.24-.306-1.719-.64-.156-.11-.457-.212-.343-.444.2-.234.633-.194.982-.247.378-.055.776-.098 1.08-.196.413.2.807.137 1.178.246.922.271 1.36 1.332 2.504 1.182.353-.258.225-.876 0-1.182-.408-.345-1.224.017-1.375-.59.285.055.097.023.197-.149l-.074-.057.024-.09c-.16.015-.402.113-.54 0l-.024.073-.073-.024c-.23.218-.802.094-1.228.147-.258.032-.437.161-.639.148-.401-.026-.72-.422-1.08-.345l.025.09-.073.058c.739.503-.542.562-.982.64-.197-.157-.082-.427-.147-.64-.086-.276-.313-.417-.345-.64-.059-.429.253-.702.295-1.182l-.088.017-.06-.067c-.258.151-.413.406-.588.64-.441.09-.743-.017-1.031-.196-.427.031-.347.571-.835.541.272.198-.137.494-.147.838-.01.339.3.616.147.936-.155.008-.296.002-.343-.1-.378.269-.994.172-1.572.198-.512.024-1.032.117-1.473 0-.183-.16-.184-.505-.54-.492v.049h-.049c.073.124.174.22.197.394-.605.194-1.72.098-2.406.05-.19-.008-.194-.2-.344-.247-.555.254-.896-.099-1.424-.394-.313-.175-.815-.368-.982-.591-.253-.34-.29-.986-.05-1.38.031-.002.06-.007.05-.049h-.05v-.05c-.143-.138-.071-.05-.244-.196-.541.291-1.441-.163-1.817.148.155.866.279 1.58.933 1.871.545.243 1.502.012 1.571.74-.333-.059-.605.057-.933-.05-.189-.062-.26-.265-.441-.295-.246-.043-.458.108-.688.098-.289-.012-.562-.226-.883-.246-.239-.016-.413.09-.59 0l.025.09-.074.058c.172.08.305.352.54.394.225.04.54-.152.835-.1.203.038.392.27.589.297.207.028.43-.088.638-.1.366-.017.868.147 1.375.198.349.036.748-.063.982 0 .246.067.335.293.491.394.565-.025 1.184.234 1.473.64.059.208-.08.217-.098.346.26.428.105 1.082.392 1.477.211.291.715.461 1.08.345.446-.141.625-1.099 1.08-1.132.183-.014.44.199.59.246.513.16.972.188 1.374.393.312.16.524.46.786.543.27.084.598.017.933.098.423.101.872.374 1.326.542.957.356 1.887.61 2.847.936.522.178 1.04.468 1.424.493.235.015.47.07.687-.246-.212-1.029-2.358-.39-2.602-1.281-.117-.426.248-.912.05-1.33-.182-.381-.719-.38-1.179-.444-.347.33-.275 1.32-.884 1.429-.17.03-.547-.115-.834-.197-.269-.078-.67-.165-.835-.247-.288-.142-.444-.471-.736-.541-.212-.051-.463.033-.688 0-.353-.053-.89-.321-1.277-.493-.89-.396-1.47-.512-1.767-1.232-.694.183-1.655-.03-1.915-.591.856-.213 1.668.09 2.504.05.107-.006.247-.088.344-.1.241-.026.515.014.786 0 .742-.033 1.58-.217 2.11-.147.448.06.857.535 1.277.591.257.035.535-.08.786-.05.225.029.425.207.638.247.192.036.4-.027.59 0 .36.053.741.274 1.128.395 1.244.387 2.432.606 3.682.886.365.553.738.918 1.375 1.084.321.083.68.046 1.08.148.373.095.803.369 1.179.542.418.192.78.449 1.129.59l-.018-.088zm14.926 3.202c-.35-.189-.004-.498.048-.887.163-1.207-.554-1.752-.982-2.315l-.097.05-.099.048c.171.282.73.776.835 1.478.132.876-.172 1.947-1.03 1.823l.024.09-.075.058c.076.069.213.182.099.296l.067.06-.018.087c.436-.203.674-.604 1.276-.64l-.073-.057zm2.062-3.744c.14.385.5.71.54 1.28.052.755-.456 1.73-1.08 1.676-.462-.04-.715-.879-.835-1.478-.227-1.133-.35-1.988-.884-2.611l-.034.084-.064.063c.165.43.412.925.54 1.528.128.601.117 1.25.295 1.773.143.425.558.734.49 1.133l.067.06-.018.088c.863-.157 1.935 1.444 2.946.443-.003-.965-1.211-.722-1.522-1.379.739-.752.34-2.221-.343-2.759l-.025.074zm-3.78-2.808c.082.197.234.323.392.443l.057-.074.09.025c-.003-.085.038-.126.098-.147l-.024-.05-.025-.05a.913.913 0 0 0-.442-.245l-.063.063zm-1.62-.985a1.957 1.957 0 0 0 .588.295l.064-.064.083-.034a1.43 1.43 0 0 0-.589-.443l.025.074-.074.024c.01.062.077.1-.05.098v.05zm1.178-3.793c.008.073.118.045.195.049.426.712 1.258 1.118 1.817.345.17-.801-.49-1.052-1.03-.936-.412.088-.605.603-.982.394l.024.074zm-5.794-.985c.208.14.56.004.49-.296-.214-.113-.407.034-.54.148l.025.074zm-1.375 0c.357.102.751.165 1.179.197l-.025-.075.074-.024v-.05l-.123-.024.024-.123c-.414.038-.687-.066-1.08-.05l.025.091zm-4.418-2.365c.093.136.208.25.343.345l.034-.084.064-.064c-.043-.18.087-.262 0-.345-.108-.108-.2.05-.393 0l.025.09zm3.706 4.655l.025.025c.12.266.025.615-.148.739-.169.02-.275-.02-.392-.05-.13-.214-.165-.524-.295-.738.005-.06.015-.117.098-.1-.136-.092-.248-.21-.245-.442.292-.568 1.335 0 .932.542zm-.515-1.945c-.551.822-1.588-.245-1.964-.543-.036-.134.097-.099.098-.196.871-.199 1.422.344 1.866.739m-5.303-5.37c.572.429 1.413 1.055 1.228 1.921h-.197v.05h-.05c.18.118.306.228.296.443-.04.885-2.156.306-2.553 0l.024.074-.024.074v.098h-.196l.024.09-.074.058c.077.128.505.113.393.148.244.231.737.212.687.738-.062.003-.068.064-.147.05l.025.05-.025.048c0 .05.04.059.049.099.008.123-.075.154-.147.197l.025.074-.074.024c-.17.487-.797.513-1.228.74-.104.24-.35.336-.442.59.299.54 1.203.49 1.67.197.372-.232.533-.932.933-.64.019.07.059.083 0 .148l.083.034.064.065c.407-.26 1.48-.73 1.915-.198-.027.22-.23.262-.492.247v.05h-.048c.175.163-.26.195-.344.098v-.05l-.074.025.025-.074c-.236.14-.5.254-.59.542-.346.07-.789.283-1.178.148v-.198l-.063-.064-.035-.083c-.262.03-.505.418-.834.492-.472.106-.87-.065-1.228-.246l-.05.025-.048-.025c0 .05-.04.059-.05.099-.607-.217-1.675-.234-2.061-.64-.269-.283-.234-.79-.491-.937-.306-.174-.784-.021-1.179-.05-.746-.052-1.805-.885-2.553-.393-.235.315.009 1.01-.049 1.28v.05h-.049c.317.208.694.356 1.13.443l-.025-.025.025-.024v-.099c.732-.356 1.51.158 2.257.198.26.013.534-.08.786-.05.393.049.83.292 1.228.394.424.11 1.04.049 1.178.493-.213.048-.467.057-.637.148l.073.057-.025.09c.752-.003 1.074-.373 1.62-.344.066-.048.064-.166.148-.198.282-.074.565-.026.883-.049.485-.033.957-.17 1.375-.295.749-.226 1.13-.634 1.866-.394l-.025-.074.074-.025c0-.05-.04-.058-.05-.098l-.073-.025.025-.074c-.071-.012-.084-.081-.148-.098.087-.356.842-.316.835.098-.097.098-.28.032-.393 0l.025.074-.074.025c0 .049.04.058.05.098l.073.025-.025.074c.162.067.36.099.393.295-.145.325-.877.374-1.031.542-.008.01.007.04 0 .05l.074.057-.025.09c.574-.127 1.721-.694 2.013.197l.074-.024-.025.074c.154.24.223.564.393.787.027.205-.35.167-.196.346.07.146.191-.065.343 0 .155.26.3.593.59.59.314-.002.341-.354.588-.541.36.033.623.164.786.394h.05v.05c.577-.138 1.438.55 2.11.443.172-.028.597-.146.54-.592l-.073.025.024-.074c-.34-.274-.863-.274-1.276-.492-.163-.087-.28-.287-.442-.345-.203-.073-.392-.036-.59 0-.315-.127-.586-.56-.49-.936l-.025-.025-.024-.025c-.259-.228-.331-.531-.54-.788-.317-.388-.777-.605-.982-1.034h.098l-.025-.09.074-.058a2.195 2.195 0 0 0-.835-.197c-.118-.094-.075-.351-.294-.345-.587-.002-.867-.313-1.228-.542.007-.401-.293-.494-.49-.69l-.035.085-.064.063c-.305.381-.936-.21-.785-.59h.098l-.025-.09.074-.058c-.263-.262-.168-.745-.294-1.084-.25-.667-.87-1.073-1.425-1.38l-.066.06zm-5.646-.296c.005.123.092.153 0 .247l.074.024-.025.074c.076.102.143-.047.148-.05.422-.192.571.328.883.297.222-.023.375-.274.442-.592l-.074-.024.025-.074c-.51-.17-.99.295-1.424-.05l.018.088zm7.169-5.468v-.05c-.32.155-.722.042-1.228 0-2.848-.227-7.398-.457-7.708 2.267-.169 1.478.628 2.328 1.325 2.906l.064-.063.084-.035c-.072-.093-.236-.242-.099-.394-.176.008-.307-.06-.442-.197-.355-.364-.67-1.451-.589-2.069.19-1.43 1.882-2.148 3.78-2.266 1.478-.092 3.116.056 4.37.197.166-.003.213.115.295.197.215-.273.52.083.785-.05.275.074.458.55.884.69.536.178 1.166-.01 1.277-.443a.752.752 0 0 0-.442-.887c.107.038-.166.046-.147.05-.281-.047-.624-.058-.835 0-.246.066-.434.272-.638.295-.272.03-.488-.085-.687-.147zm5.891 1.182c-.342.212-.697.427-1.08.64-.351.197-.818.512-1.178.592-.463.103-1.11-.11-1.67.05-.823.234-1.456 1.458-.245 1.674 1.233.22 1.765-.892 2.16-1.428.366-.175.695-.387 1.03-.591.158-.12.174-.06.345 0-.06-.438.617-.474.785-.838l-.083-.034zm.835-.738c-.097.067-.281.047-.393.099l-.057.073-.09-.025c-.007.143.026.323-.05.395l.084.035.063.063c.118-.03.224-.07.393-.049l.058-.074.09.025v-.394l-.064-.065zm-.258-2.71l-.086.05c.698.078 1.255.537 1.227 1.231-.015.392-.29.603-.442.936l.064.064.035.084c.386-.417.75-.857.687-1.724-.244-.494-.794-.681-1.473-.739zM7.663 10.366l.074.025c.027-.416.23-.657.294-1.035-.676-.132-.84-.74-1.62-.443-.375.143-.555.635-.54.935.042.813 1.068 1.085 1.817.592zm6.8-1.946c.06-.163-.172-.28-.196-.197.1.03.014.25.196.197m-.54-.64c-.024-.036-.21-.241-.147-.149.082.121.18.198.147.149m-1.988-2.34l.073.024c.11-.474.307-.832.098-1.182-.115-.194-.57-.42-.785-.394-.98.12-.784 1.866.54 1.577.01.038.041.056.098.049zM28.16 40.686c.849.213 1.485-.738.982-1.38-.138-.176-.487-.325-.884-.245-.877.175-.774 1.455-.098 1.625m.147-5.862c.057.041.132.065.246.049.242-.323-.319-.488-.246-.05m-1.178-.147c.07.012.083.081.147.098.012-.07.081-.082.098-.147-.07-.012-.082-.081-.147-.099-.011.07-.081.083-.098.148m.59-1.231c.037.01.096.001.098.049.157-.007.215-.112.196-.296-.057-.041-.132-.064-.246-.049-.056.058-.055.174-.05.296m-2.012-.1c.125-.005.19-.07.197-.196-.135-.153-.35.061-.197.197m4.124-1.527c.168-.013.256-.106.246-.296-.194-.24-.495.108-.246.296m5.646-1.084v.099c.121.076.145-.167.05-.148-.003.03-.008.058-.05.049m-.687-.147h.098v-.1h-.098zm0-.247c.132.106.261.106.393 0 .127-.449-.52-.449-.393 0m7.365-.542c-.004-.16-.064-.265-.196-.295-.063.077.002.325.196.295m-14.582-.295h.098v-.099h-.098zm-6.284.246c.183.02.288-.04.294-.197-.041-.106-.12-.174-.294-.148-.071.066-.071.279 0 .345m39.179-.739c-.066.292.351.237.245-.05-.113-.015-.188.009-.245.05m-32.7.148c.115.016.19-.008.247-.05.051-.307-.306-.19-.246.05m1.67-.444c-.131-.29-.529-.043-.344.247.237.041.33-.063.343-.247m18.363.05c.093-.012.108.055.196.049.067-.063.067-.233 0-.296h-.147c-.041.058-.065.133-.05.247m-.441-.296a.235.235 0 0 0 .049.148c.13.015.16-.068.147-.198-.085-.002-.153.012-.196.05m-24.99.05h.098c0-.05.04-.06.049-.1-.063-.001-.068-.062-.147-.048zm3.142-.1c-.004-.134.081-.098 0-.196a.105.105 0 0 0 0 .197m-4.223-.05c.056.01.077.055.099.1.2.02.31-.051.295-.247-.087-.225-.44-.152-.393.148m23.615-.345H45v-.1h-.098zm-15.81.246h.246c.057-.058.056-.174.05-.295-.205-.161-.449.083-.295.295M26 28.124c.041-.057.065-.132.049-.246h-.245c.027.12.042.253.196.246m-5.45-.394c-.083-.312-.7-.307-.59.247.27.307.673.064.59-.247m-3.24-.296h.245c.085-.079.122-.206.098-.394-.308-.216-.589.183-.344.394m27.347-.295c.114.016.19-.008.246-.05v-.147c-.148-.123-.363.033-.246.197m-1.865-.345c.084.003.126-.038.147-.099-.078.006-.17-.006-.147.1M17.654 26.4c.098.103.21.002.246-.098-.098-.103-.21-.002-.246.098m20.13-.296c.15.072.251.01.245-.196-.066-.016-.094-.071-.196-.05-.041.058-.065.132-.05.246m-10.555-.147c.168.037.192-.188.05-.198-.016.067-.071.095-.05.198m-6.628-.198c-.159.343.307.593.59.494.142-.327-.299-.602-.59-.493m7.463-.69c-.314-.056-.108.15 0 0m3.633.148c.042.072.073.156.196.148.072-.043.156-.074.148-.198-.043-.071-.073-.155-.197-.147-.072.042-.155.074-.147.197m-4.64-.296l-.024.05c.082.407.615.295.786.049-.144-.02-.16-.169-.246-.247a.855.855 0 0 0-.54.099zm10.482-.197c-.314-.057-.107.151 0 0m-12.077 0c-.315-.057-.108.151 0 0m16.644.148v-.197a.105.105 0 0 0 0 .197m-27.445-.246c.038.01.057.04.049.098.22.04.272-.087.294-.246-.175-.114-.29-.082-.343.148m24.303-.493c.32.161.199-.141 0 0m-7.021 0c.32.161.199-.141 0 0m-13.453-.394c.122-.074.225-.169.245-.345-.246-.551-.885.271-.245.345m-2.553-.542c.115.41.947.35.786-.344-.31-.418-.903-.072-.786.344m4.271-.64c-.097 0-.062-.135-.196-.099-.036.11.18.204.196.099m-.883-.099h.196v-.197c-.154-.023-.219.043-.196.197m2.994 0c.146.187.548.11.442-.246-.145-.187-.547-.11-.442.246m-8.984-.098c.629.213.065-.72 0 0m1.67-.345c.111.013.184-.012.196-.099-.07-.011-.084-.08-.148-.098-.015.066-.07.094-.05.197m23.813-.148h.148v-.148h-.148zm-20.326.148c.072.109.13.23.344.197.462-.285-.309-.783-.344-.197m3.682-.246c.183.02.289-.04.295-.198-.042-.106-.12-.174-.295-.147-.07.065-.07.278 0 .345m-8.003 0c.37-.011.448-.802-.049-.69-.49.11-.275.7.05.69m-.934-.936c.05 0 .059.04.099.05 0-.05.04-.06.049-.1-.05 0-.059-.04-.098-.049 0 .05-.04.059-.05.099m31.619.147c.18.093.393.028.393-.197-.037-.127-.157-.17-.344-.148-.067.064-.048.215-.05.345m-28.77.69c.503-.15.438-1.162-.295-.985-.751.181-.327 1.17.296.985m7.118-.69c.038.01.097.002.098.05.367-.044.564-.256.54-.69-.327-.397-.884.162-.638.64m2.455-.738c.175.01.257-.071.246-.247-.07-.011-.083-.08-.147-.098-.11.045-.22.216-.1.345m8.298-.542h.197c.014-.129-.018-.212-.147-.198-.016.067-.07.095-.05.198m-9.966-.345c.014-.113-.012-.185-.098-.197-.078.073-.055.22.098.197m10.31-.099c.121.158.303-.114.099-.148-.012.07-.082.084-.1.148m1.327.05c.067-.063.076-.242-.05-.247-.116.034-.151.274.05.247m-3.682-.887a.235.235 0 0 0 .049.148c.123.008.153-.076.196-.148a.183.183 0 0 0-.245 0m-6.923 0c.065.064.183.065.196-.05-.065-.063-.182-.064-.196.05m5.253-.591h.196c.008-.123-.025-.205-.097-.246.036.151-.17.06-.1.246m-.637-.493c.182.035.217-.078.196-.246-.234-.035-.257.106-.196.246m4.272-.296h.147v-.147h-.147zm-12.962-.147c.208.045.247-.08.295-.198-.094-.02-.09-.14-.246-.098-.056.058-.056.175-.05.296m8.494-.296c.15.072.252.009.246-.197-.104-.098-.304-.015-.246.197m-6.137.789c.186-.07.35-.594.344-.887-.004-.218-.069-.458-.245-.542-.552.229-.371 1.014-.099 1.429m40.75-1.528c.945.049 1.089-1.629-.146-1.33-.815.198-.572 1.294.147 1.33m-40.309.05c-.146 1.013.427 1.924 1.178 1.92.85-.003 1.696-1.238 1.032-2.314-.448-.09-.718-.317-1.13-.247-.388.066-.642.41-1.03.493l.024.09zm-.564-.238l.073-.058c-.068-.096-.254-.073-.343-.147-.07-.292-.234-.488-.295-.789-.307-.103-.583-.236-.884-.345-.422-.033-1.177.233-1.325.69-.175.54.153 1.315.736 1.429 1.05.203 1.117-.686 2.062-.69zm-5.082-1.24c.138.12.277.077.393-.05-.118-.045-.13-.197-.344-.148.01.094-.055.11-.049.198m2.455-.099c-.093-.432-.943-.062-.442.345.372.055.483-.157.442-.345m-4.763-.59c.027.207.472.205.443-.05-.027-.305-.46-.292-.443.05m29.115-.395h.098c0-.05.04-.058.05-.098-.063-.003-.069-.064-.148-.05zm.196-.05h.148v-.147h-.148zm-25.04.149c.056.01.077.054.1.098.2.02.31-.05.294-.246-.086-.225-.439-.152-.393.148m-1.129-.197c.143.072.143-.22 0-.148zm26.56-.543c.05 0 .06.04.1.05 0-.05.04-.059.048-.099-.05 0-.058-.04-.098-.049 0 .05-.04.059-.05.098m-27.788-.344v.099c.03.002.058.007.05.049h.097c.003-.03.007-.059.05-.05v-.099c-.03-.002-.058-.007-.05-.049h-.097c-.003.03-.008.059-.05.05m24.647-.099v-.148h-.148c-.008.108.04.158.148.148m-30.096.247c.129-.204-.07-.438-.148-.591-.568-.057-.195.675.148.59m13.649-.541H26c.055-.071.053-.12-.049-.148-.003.063-.063.068-.05.148m2.161 0c.041-.057.065-.132.049-.247h-.196c-.061.143-.025.225.147.247m11.144-.887c.074.078.22.055.197-.099-.112-.013-.184.012-.196.1m-22.83-.592c.003-.085-.038-.126-.098-.148-.07.072-.072.19.098.148m-.933-1.034c.002-.085-.038-.127-.098-.149-.07.073-.072.19.098.149m-6.579-.1h.147v-.098h-.147zm.246-.738c.134.096.21.096.343 0 .02-.184-.039-.29-.196-.296-.068.08-.174.122-.147.296M62.038.046c.056-.16.055.132.049.196-.057.16-.056-.132-.049-.196" fill="white" fill-rule="evenodd"/></svg>