<svg xmlns="http://www.w3.org/2000/svg" width="233.127" height="201.284" viewBox="0 0 61.682 53.256"><path d="M32.875 31.444a.251.251 0 0 0 .176.47c.148-.055.328.025.54.119l.095.04a.25.25 0 0 0 .33-.13.253.253 0 0 0-.132-.33l-.089-.04c-.272-.12-.581-.257-.92-.13M47.45 19.977c-.351.448-.796.807-1.268 1.189l-.521.43a.25.25 0 0 0-.03.354.259.259 0 0 0 .361.03l.51-.42c.472-.38.962-.777 1.348-1.27a.254.254 0 0 0-.4-.313m-16.96 3.247a.23.23 0 0 0 .01.46c2.075-.048 4.215.017 6.285.08 1.986.06 4.042.122 6.052.086a.23.23 0 1 0-.009-.46c-1.999.036-4.049-.027-6.03-.086-2.075-.063-4.222-.128-6.308-.08m-5.8-.506a.206.206 0 0 0 .18.235l2.549.291 1.898.203a.217.217 0 0 0 .238-.19.208.208 0 0 0-.185-.232l-1.91-.205-2.526-.289a.22.22 0 0 0-.243.187m9.67-4.225l-.329.109a.26.26 0 0 1 .164.494l.328-.11a.26.26 0 0 0 .166-.329.26.26 0 0 0-.328-.164m18.08-5.609l-.417.213c.138-.07.328-.028.398.108.07.137.039.292-.097.363l.307-.16c.137-.07.222-.252.152-.389s-.206-.204-.343-.135m-10.416-1.845l-.269.182-.098.062a.282.282 0 0 0-.088.392.287.287 0 0 0 .395.088l.094-.059.328-.224c.13-.088.143-.25.055-.38s-.286-.148-.417-.06M29.26 18.94c-.707.202-1.501.184-2.037.153a.303.303 0 0 0-.035.604c.58.034 1.443.052 2.239-.176a.302.302 0 1 0-.167-.581m12.665 21.054l-.053.03-.12.189a.24.24 0 0 0 .405.256l.048-.076c.292-.149.675-.186 1.065-.093a.24.24 0 0 0 .112-.466c-.533-.127-1.05-.07-1.457.16m-8.14-8.152l-.246.192c-.028.192-.26.179-.494.165 0-.165.134-.196.166-.33l-.248-.191.082-.302c-5.272-.516-3.456 7.8-.493 8.554 5.182 1.319 5.886-7.755 1.152-8.39zm-8.8-9.348c-.222-1.29.305-1.607-.329-2.633.766-.052.915.51 1.48.658.637-.022.65-.667 1.152-.822l-.082-.302.246-.191c-2.406-.233-4.806-.028-7.566-.165-1.9 2.22-.645 5.842 2.139 5.757 1.412-.042 1.922-1.026 2.96-1.81l-.082-.246zm5.593.657c-.394-.099-.75-.236-1.316-.165l.082.247-.082.247c.17.378.34.757.658.987.517-.031.791-.306.823-.822l-.247-.192zm11.63-11.893l.214.214c.938-.06-1.055.88-.33.165l-.279-.116-.214-.213c-1.588 1.483-3.432 2.52-5.428 3.618-1.245.686-2.69 1.007-3.619 1.645-1.299.89-1.524 2.724-3.455 2.468l.247.192-.082.301c.825-.057.807.728 1.48.823 1.146-.5 2.138-1.152 3.62-1.316l-.248-.193s.083-.3 5.183-1.617c-.836.5-2.159.756-3.455.988-.925.165-1.98.46-2.467 0 .397-1.095 1.84-1.31 2.796-1.81 1.01-.527 2.081-1.043 2.96-1.645h.494c.469.628 1.063 1.13-5.428 3.783l.246.192-.082.302c1.408-.236 3.404-.092 5.43-.494.651-.129 1.26-.72 1.973-.822.585-.084 1.66.192 2.467.164 1.03-.034 1.816-.306 2.303-.164 1.133.33 1.46 1.678.822 2.467l.295-.059.2.224c.03.42-1.334 1.731-1.81 1.645l-.214-.214-.115-.28c-.857.734-1.243 1.938-2.961 1.81l.082.301-.247.192v.33c-2.256 1.53-5.907 1.16-8.553 2.137-1.307.483-2.043 1.532-3.126 1.975-.784.148-2.018-.154-1.81.987.41.77 1.28.143 1.974 0 .727-.15 1.61-.295 2.304-.494 1.196-.344 2.042-1.439 2.96-1.81 1.341-.54 3.54-.732 5.594-1.315 1.817-.517 3.563-1.607 5.099-1.974 2.38-.57 5.516.185 7.566-.659.745-.306 1.592-1.276 2.468-1.973 1.094-.871 2.131-1.402 2.468-2.139.461-1.011.364-2.543.493-3.947.258-2.816-.072-4.47-2.303-4.606-2.192-.134-3.828 2.183-5.428 2.631l.246.193s-.082.3.247.3c.021.296-.163.386-.494.33 0-.165.134-.196.165-.33l-.28-.114-.213-.214c-.916.147-1.15-.386-1.48-.822-.728.013-1.458.031-1.481-.658.128-2.703 2.584-4.804 2.467-7.897-.054-1.438-1.058-3.303-2.467-3.618-4.68-1.05-2.853 4.844-1.974 6.744.461.998 2.363 2.658.658 3.619-1.739.555-4.597-.672-5.758.658zm-.115 41.996h.329c0-.165.133-.196.164-.329-.21-.009-.227-.21-.494-.164zM29.097 45.36c.139-.19.217-.44.165-.822-.191-.138-.441-.217-.823-.165-.27.534-.088 1.043.658.987m8.883-.658h.823c.009-.1.024-.194.164-.164v-.822c-.693-.984-1.97.293-.987.986m-4.112-.493c.128.036.19.137.164.329.864.414 1.93.079 1.81-.987-.548-.64-2.062-.329-1.974.658m-6.58-1.152v.658c.396-.067.357.3.822.165.139-.19.217-.441.165-.823-.21-.225-.777-.225-.987 0m-8.39-1.48c.223.052.315.234.659.164.123-.56-.629-.64-.658-.164m12.666-.33c.309.467 1.367.458 1.316-.328-.098-.87-1.59-.875-1.316.329m11.761-1.178l-.246.191c.074.268-.897.268-.823 0l-.301.082-.192-.247c-4.258 1.574-2.102 7.346 1.644 7.403 5.02.076 4.438-7.736-.164-7.731zm-25.908-4.086c-.05.434.228.54.658.494.047-.43-.06-.708-.494-.659-.009.1-.024.195-.164.165m4.113-2.796c.046-.375-.04-.619-.33-.659-.258.245-.183.736.33.659m-2.304-.823c-.135.465.232.426.165.823.405.021.792.025.987-.165v-.658c-.22-.235-.932-.235-1.152 0m8.39-3.125c.418 1.412 1.298-.701 0 0m-2.632 0c-.335-1.264-3.72-1.188-5.593-1.316-1.858-.128-3.965-.423-4.935-.33-.74.072-1.71.568-2.632.823-.945.263-1.823.477-2.632.823-1.833.785-3.205 2.19-4.441 2.631-1.627.582-3.495.502-4.277 1.646-1.43 2.092.623 4.077 2.796 3.454 2.048-.587 1.98-2.984 2.961-4.277.342-.449 1.756-1.413 2.797-1.974 2.536-1.367 3.632-1.2 7.073-1.48-.927 1.987 1.338 3.487 2.468 1.974.388-1.162-.784-1.623-.494-2.139 1.094.057 2.449-.145 3.29.165.551.49.389 1.695.658 2.467.829.07 3.302-1.18 2.961-2.467m4.112-2.138h.33v-.33h-.33zm-1.151-1.81c.667.064 1.146-.06 1.151-.659-.232-.425-.53-.784-1.316-.657-.344.364-.129 1.095.165 1.316m-2.303-4.113c-.087.746.242 1.074.987.987.514-.708-.302-1.524-.987-.987m-11.844-.329c-.2-2.474-2.192.81 0 0m-4.441-1.151c-.057 1.397 1.778 1.698 2.96 1.316-.015-1.325-1.944-1.532-2.96-1.316m7.073.658c.514.28.87.358 1.316 0 .32-1.395-1.699-1.54-1.316 0m26.155-.987c.261-.246.24-.938-.329-.823-.262.246-.24.939.329.823M8.7 18.546c.387-.003.484.284.987.165.19-.194.186-.582.164-.987-.194-.19-.581-.186-.987-.165-.19.195-.186.582-.164.987m-.33-.493c.038-.31-.184-.363-.163-.658-.195-.19-.583-.187-.988-.165-.626.883.628 1.567 1.152.823m52.638-.494h.658c.077-.515-.143-.734-.658-.658zM26.63 4.564c.128.037.324.004.329.165.536.042.792-.196.822-.658-.14-.355-.405-.582-.987-.494-.189.194-.186.581-.164.987m7.402-1.152h.494v.494h-.494z" fill="white" fill-rule="evenodd"/></svg>